%TF.GenerationSoftware,KiCad,Pcbnew,7.0.7*%
%TF.CreationDate,2023-11-21T20:30:23+01:00*%
%TF.ProjectId,tekskey-v2-molten,74656b73-6b65-4792-9d76-322d6d6f6c74,rev?*%
%TF.SameCoordinates,Original*%
%TF.FileFunction,Drillmap*%
%TF.FilePolarity,Positive*%
%FSLAX45Y45*%
G04 Gerber Fmt 4.5, Leading zero omitted, Abs format (unit mm)*
G04 Created by KiCad (PCBNEW 7.0.7) date 2023-11-21 20:30:23*
%MOMM*%
%LPD*%
G01*
G04 APERTURE LIST*
%ADD10C,0.100000*%
%ADD11C,0.200000*%
%ADD12C,0.080000*%
%ADD13C,0.175000*%
%ADD14C,0.398780*%
G04 APERTURE END LIST*
D10*
X2857500Y-4445000D02*
X14843125Y-4445000D01*
X14843125Y-16986250D01*
X2857500Y-16986250D01*
X2857500Y-4445000D01*
D11*
D12*
X12660000Y-4803125D02*
X12740000Y-4883125D01*
X12740000Y-4803125D02*
X12660000Y-4883125D01*
X12660000Y-5503125D02*
X12740000Y-5583125D01*
X12740000Y-5503125D02*
X12660000Y-5583125D01*
D13*
X3707000Y-5715000D02*
G75*
G03*
X3707000Y-5715000I-87500J0D01*
G01*
X3707000Y-8096250D02*
G75*
G03*
X3707000Y-8096250I-87500J0D01*
G01*
X3707000Y-10001250D02*
G75*
G03*
X3707000Y-10001250I-87500J0D01*
G01*
X3707000Y-11906250D02*
G75*
G03*
X3707000Y-11906250I-87500J0D01*
G01*
X3707000Y-13811250D02*
G75*
G03*
X3707000Y-13811250I-87500J0D01*
G01*
X3707000Y-15716250D02*
G75*
G03*
X3707000Y-15716250I-87500J0D01*
G01*
X4723000Y-5715000D02*
G75*
G03*
X4723000Y-5715000I-87500J0D01*
G01*
X4723000Y-8096250D02*
G75*
G03*
X4723000Y-8096250I-87500J0D01*
G01*
X4723000Y-10001250D02*
G75*
G03*
X4723000Y-10001250I-87500J0D01*
G01*
X4723000Y-11906250D02*
G75*
G03*
X4723000Y-11906250I-87500J0D01*
G01*
X4723000Y-13811250D02*
G75*
G03*
X4723000Y-13811250I-87500J0D01*
G01*
X4723000Y-15716250D02*
G75*
G03*
X4723000Y-15716250I-87500J0D01*
G01*
X5612000Y-5715000D02*
G75*
G03*
X5612000Y-5715000I-87500J0D01*
G01*
X5612000Y-8096250D02*
G75*
G03*
X5612000Y-8096250I-87500J0D01*
G01*
X5612000Y-10001250D02*
G75*
G03*
X5612000Y-10001250I-87500J0D01*
G01*
X5612000Y-11906250D02*
G75*
G03*
X5612000Y-11906250I-87500J0D01*
G01*
X5612000Y-13811250D02*
G75*
G03*
X5612000Y-13811250I-87500J0D01*
G01*
X5612000Y-15716250D02*
G75*
G03*
X5612000Y-15716250I-87500J0D01*
G01*
X6564500Y-5715000D02*
G75*
G03*
X6564500Y-5715000I-87500J0D01*
G01*
X6628000Y-5715000D02*
G75*
G03*
X6628000Y-5715000I-87500J0D01*
G01*
X6628000Y-8096250D02*
G75*
G03*
X6628000Y-8096250I-87500J0D01*
G01*
X6628000Y-10001250D02*
G75*
G03*
X6628000Y-10001250I-87500J0D01*
G01*
X6628000Y-11906250D02*
G75*
G03*
X6628000Y-11906250I-87500J0D01*
G01*
X6628000Y-13811250D02*
G75*
G03*
X6628000Y-13811250I-87500J0D01*
G01*
X6628000Y-15716250D02*
G75*
G03*
X6628000Y-15716250I-87500J0D01*
G01*
X7517000Y-8096250D02*
G75*
G03*
X7517000Y-8096250I-87500J0D01*
G01*
X7517000Y-10001250D02*
G75*
G03*
X7517000Y-10001250I-87500J0D01*
G01*
X7517000Y-11906250D02*
G75*
G03*
X7517000Y-11906250I-87500J0D01*
G01*
X7517000Y-13811250D02*
G75*
G03*
X7517000Y-13811250I-87500J0D01*
G01*
X7517000Y-15716250D02*
G75*
G03*
X7517000Y-15716250I-87500J0D01*
G01*
X7580500Y-5715000D02*
G75*
G03*
X7580500Y-5715000I-87500J0D01*
G01*
X8469500Y-5715000D02*
G75*
G03*
X8469500Y-5715000I-87500J0D01*
G01*
X8533000Y-8096250D02*
G75*
G03*
X8533000Y-8096250I-87500J0D01*
G01*
X8533000Y-10001250D02*
G75*
G03*
X8533000Y-10001250I-87500J0D01*
G01*
X8533000Y-11906250D02*
G75*
G03*
X8533000Y-11906250I-87500J0D01*
G01*
X8533000Y-13811250D02*
G75*
G03*
X8533000Y-13811250I-87500J0D01*
G01*
X8533000Y-15716250D02*
G75*
G03*
X8533000Y-15716250I-87500J0D01*
G01*
X9422000Y-8096250D02*
G75*
G03*
X9422000Y-8096250I-87500J0D01*
G01*
X9422000Y-10001250D02*
G75*
G03*
X9422000Y-10001250I-87500J0D01*
G01*
X9422000Y-11906250D02*
G75*
G03*
X9422000Y-11906250I-87500J0D01*
G01*
X9422000Y-13811250D02*
G75*
G03*
X9422000Y-13811250I-87500J0D01*
G01*
X9422000Y-15716250D02*
G75*
G03*
X9422000Y-15716250I-87500J0D01*
G01*
X9485500Y-5715000D02*
G75*
G03*
X9485500Y-5715000I-87500J0D01*
G01*
X10374500Y-5715000D02*
G75*
G03*
X10374500Y-5715000I-87500J0D01*
G01*
X10438000Y-8096250D02*
G75*
G03*
X10438000Y-8096250I-87500J0D01*
G01*
X10438000Y-10001250D02*
G75*
G03*
X10438000Y-10001250I-87500J0D01*
G01*
X10438000Y-11906250D02*
G75*
G03*
X10438000Y-11906250I-87500J0D01*
G01*
X10438000Y-13811250D02*
G75*
G03*
X10438000Y-13811250I-87500J0D01*
G01*
X10438000Y-15716250D02*
G75*
G03*
X10438000Y-15716250I-87500J0D01*
G01*
X11327000Y-5715000D02*
G75*
G03*
X11327000Y-5715000I-87500J0D01*
G01*
X11327000Y-8096250D02*
G75*
G03*
X11327000Y-8096250I-87500J0D01*
G01*
X11327000Y-10001250D02*
G75*
G03*
X11327000Y-10001250I-87500J0D01*
G01*
X11327000Y-11906250D02*
G75*
G03*
X11327000Y-11906250I-87500J0D01*
G01*
X11327000Y-13811250D02*
G75*
G03*
X11327000Y-13811250I-87500J0D01*
G01*
X11327000Y-15716250D02*
G75*
G03*
X11327000Y-15716250I-87500J0D01*
G01*
X11390500Y-5715000D02*
G75*
G03*
X11390500Y-5715000I-87500J0D01*
G01*
X12343000Y-5715000D02*
G75*
G03*
X12343000Y-5715000I-87500J0D01*
G01*
X12343000Y-8096250D02*
G75*
G03*
X12343000Y-8096250I-87500J0D01*
G01*
X12343000Y-10001250D02*
G75*
G03*
X12343000Y-10001250I-87500J0D01*
G01*
X12343000Y-11906250D02*
G75*
G03*
X12343000Y-11906250I-87500J0D01*
G01*
X12343000Y-13811250D02*
G75*
G03*
X12343000Y-13811250I-87500J0D01*
G01*
X12343000Y-15716250D02*
G75*
G03*
X12343000Y-15716250I-87500J0D01*
G01*
X13232000Y-5715000D02*
G75*
G03*
X13232000Y-5715000I-87500J0D01*
G01*
X13232000Y-8096250D02*
G75*
G03*
X13232000Y-8096250I-87500J0D01*
G01*
X13232000Y-10001250D02*
G75*
G03*
X13232000Y-10001250I-87500J0D01*
G01*
X13232000Y-11906250D02*
G75*
G03*
X13232000Y-11906250I-87500J0D01*
G01*
X13232000Y-13811250D02*
G75*
G03*
X13232000Y-13811250I-87500J0D01*
G01*
X13232000Y-15716250D02*
G75*
G03*
X13232000Y-15716250I-87500J0D01*
G01*
X14248000Y-5715000D02*
G75*
G03*
X14248000Y-5715000I-87500J0D01*
G01*
X14248000Y-8096250D02*
G75*
G03*
X14248000Y-8096250I-87500J0D01*
G01*
X14248000Y-10001250D02*
G75*
G03*
X14248000Y-10001250I-87500J0D01*
G01*
X14248000Y-11906250D02*
G75*
G03*
X14248000Y-11906250I-87500J0D01*
G01*
X14248000Y-13811250D02*
G75*
G03*
X14248000Y-13811250I-87500J0D01*
G01*
X14248000Y-15716250D02*
G75*
G03*
X14248000Y-15716250I-87500J0D01*
G01*
D14*
X4127500Y-5515610D02*
X4127500Y-5914390D01*
X3928110Y-5715000D02*
X4326890Y-5715000D01*
X4127500Y-7896860D02*
X4127500Y-8295640D01*
X3928110Y-8096250D02*
X4326890Y-8096250D01*
X4127500Y-9801860D02*
X4127500Y-10200640D01*
X3928110Y-10001250D02*
X4326890Y-10001250D01*
X4127500Y-11706860D02*
X4127500Y-12105640D01*
X3928110Y-11906250D02*
X4326890Y-11906250D01*
X4127500Y-13611860D02*
X4127500Y-14010640D01*
X3928110Y-13811250D02*
X4326890Y-13811250D01*
X4127500Y-15516860D02*
X4127500Y-15915640D01*
X3928110Y-15716250D02*
X4326890Y-15716250D01*
X6032500Y-5515610D02*
X6032500Y-5914390D01*
X5833110Y-5715000D02*
X6231890Y-5715000D01*
X6032500Y-7896860D02*
X6032500Y-8295640D01*
X5833110Y-8096250D02*
X6231890Y-8096250D01*
X6032500Y-9801860D02*
X6032500Y-10200640D01*
X5833110Y-10001250D02*
X6231890Y-10001250D01*
X6032500Y-11706860D02*
X6032500Y-12105640D01*
X5833110Y-11906250D02*
X6231890Y-11906250D01*
X6032500Y-13611860D02*
X6032500Y-14010640D01*
X5833110Y-13811250D02*
X6231890Y-13811250D01*
X6032500Y-15516860D02*
X6032500Y-15915640D01*
X5833110Y-15716250D02*
X6231890Y-15716250D01*
X6985000Y-5515610D02*
X6985000Y-5914390D01*
X6785610Y-5715000D02*
X7184390Y-5715000D01*
X7937500Y-7896860D02*
X7937500Y-8295640D01*
X7738110Y-8096250D02*
X8136890Y-8096250D01*
X7937500Y-9801860D02*
X7937500Y-10200640D01*
X7738110Y-10001250D02*
X8136890Y-10001250D01*
X7937500Y-11706860D02*
X7937500Y-12105640D01*
X7738110Y-11906250D02*
X8136890Y-11906250D01*
X7937500Y-13611860D02*
X7937500Y-14010640D01*
X7738110Y-13811250D02*
X8136890Y-13811250D01*
X7937500Y-15516860D02*
X7937500Y-15915640D01*
X7738110Y-15716250D02*
X8136890Y-15716250D01*
X8890000Y-5515610D02*
X8890000Y-5914390D01*
X8690610Y-5715000D02*
X9089390Y-5715000D01*
X9842500Y-7896860D02*
X9842500Y-8295640D01*
X9643110Y-8096250D02*
X10041890Y-8096250D01*
X9842500Y-9801860D02*
X9842500Y-10200640D01*
X9643110Y-10001250D02*
X10041890Y-10001250D01*
X9842500Y-11706860D02*
X9842500Y-12105640D01*
X9643110Y-11906250D02*
X10041890Y-11906250D01*
X9842500Y-13611860D02*
X9842500Y-14010640D01*
X9643110Y-13811250D02*
X10041890Y-13811250D01*
X9842500Y-15516860D02*
X9842500Y-15915640D01*
X9643110Y-15716250D02*
X10041890Y-15716250D01*
X10795000Y-5515610D02*
X10795000Y-5914390D01*
X10595610Y-5715000D02*
X10994390Y-5715000D01*
X11747500Y-5515610D02*
X11747500Y-5914390D01*
X11548110Y-5715000D02*
X11946890Y-5715000D01*
X11747500Y-7896860D02*
X11747500Y-8295640D01*
X11548110Y-8096250D02*
X11946890Y-8096250D01*
X11747500Y-9801860D02*
X11747500Y-10200640D01*
X11548110Y-10001250D02*
X11946890Y-10001250D01*
X11747500Y-11706860D02*
X11747500Y-12105640D01*
X11548110Y-11906250D02*
X11946890Y-11906250D01*
X11747500Y-13611860D02*
X11747500Y-14010640D01*
X11548110Y-13811250D02*
X11946890Y-13811250D01*
X11747500Y-15516860D02*
X11747500Y-15915640D01*
X11548110Y-15716250D02*
X11946890Y-15716250D01*
X13652500Y-5515610D02*
X13652500Y-5914390D01*
X13453110Y-5715000D02*
X13851890Y-5715000D01*
X13652500Y-7896860D02*
X13652500Y-8295640D01*
X13453110Y-8096250D02*
X13851890Y-8096250D01*
X13652500Y-9801860D02*
X13652500Y-10200640D01*
X13453110Y-10001250D02*
X13851890Y-10001250D01*
X13652500Y-11706860D02*
X13652500Y-12105640D01*
X13453110Y-11906250D02*
X13851890Y-11906250D01*
X13652500Y-13611860D02*
X13652500Y-14010640D01*
X13453110Y-13811250D02*
X13851890Y-13811250D01*
X13652500Y-15516860D02*
X13652500Y-15915640D01*
X13453110Y-15716250D02*
X13851890Y-15716250D01*
D11*
X3113277Y-17302734D02*
X3113277Y-17102734D01*
X3113277Y-17102734D02*
X3160896Y-17102734D01*
X3160896Y-17102734D02*
X3189467Y-17112258D01*
X3189467Y-17112258D02*
X3208515Y-17131305D01*
X3208515Y-17131305D02*
X3218039Y-17150353D01*
X3218039Y-17150353D02*
X3227562Y-17188448D01*
X3227562Y-17188448D02*
X3227562Y-17217020D01*
X3227562Y-17217020D02*
X3218039Y-17255115D01*
X3218039Y-17255115D02*
X3208515Y-17274162D01*
X3208515Y-17274162D02*
X3189467Y-17293210D01*
X3189467Y-17293210D02*
X3160896Y-17302734D01*
X3160896Y-17302734D02*
X3113277Y-17302734D01*
X3313277Y-17302734D02*
X3313277Y-17169400D01*
X3313277Y-17207496D02*
X3322801Y-17188448D01*
X3322801Y-17188448D02*
X3332324Y-17178924D01*
X3332324Y-17178924D02*
X3351372Y-17169400D01*
X3351372Y-17169400D02*
X3370420Y-17169400D01*
X3437086Y-17302734D02*
X3437086Y-17169400D01*
X3437086Y-17102734D02*
X3427562Y-17112258D01*
X3427562Y-17112258D02*
X3437086Y-17121781D01*
X3437086Y-17121781D02*
X3446610Y-17112258D01*
X3446610Y-17112258D02*
X3437086Y-17102734D01*
X3437086Y-17102734D02*
X3437086Y-17121781D01*
X3560896Y-17302734D02*
X3541848Y-17293210D01*
X3541848Y-17293210D02*
X3532324Y-17274162D01*
X3532324Y-17274162D02*
X3532324Y-17102734D01*
X3665658Y-17302734D02*
X3646610Y-17293210D01*
X3646610Y-17293210D02*
X3637086Y-17274162D01*
X3637086Y-17274162D02*
X3637086Y-17102734D01*
X3894229Y-17302734D02*
X3894229Y-17102734D01*
X3894229Y-17102734D02*
X3960896Y-17245591D01*
X3960896Y-17245591D02*
X4027562Y-17102734D01*
X4027562Y-17102734D02*
X4027562Y-17302734D01*
X4208515Y-17302734D02*
X4208515Y-17197972D01*
X4208515Y-17197972D02*
X4198991Y-17178924D01*
X4198991Y-17178924D02*
X4179943Y-17169400D01*
X4179943Y-17169400D02*
X4141848Y-17169400D01*
X4141848Y-17169400D02*
X4122801Y-17178924D01*
X4208515Y-17293210D02*
X4189467Y-17302734D01*
X4189467Y-17302734D02*
X4141848Y-17302734D01*
X4141848Y-17302734D02*
X4122801Y-17293210D01*
X4122801Y-17293210D02*
X4113277Y-17274162D01*
X4113277Y-17274162D02*
X4113277Y-17255115D01*
X4113277Y-17255115D02*
X4122801Y-17236067D01*
X4122801Y-17236067D02*
X4141848Y-17226543D01*
X4141848Y-17226543D02*
X4189467Y-17226543D01*
X4189467Y-17226543D02*
X4208515Y-17217020D01*
X4303753Y-17169400D02*
X4303753Y-17369400D01*
X4303753Y-17178924D02*
X4322801Y-17169400D01*
X4322801Y-17169400D02*
X4360896Y-17169400D01*
X4360896Y-17169400D02*
X4379944Y-17178924D01*
X4379944Y-17178924D02*
X4389467Y-17188448D01*
X4389467Y-17188448D02*
X4398991Y-17207496D01*
X4398991Y-17207496D02*
X4398991Y-17264639D01*
X4398991Y-17264639D02*
X4389467Y-17283686D01*
X4389467Y-17283686D02*
X4379944Y-17293210D01*
X4379944Y-17293210D02*
X4360896Y-17302734D01*
X4360896Y-17302734D02*
X4322801Y-17302734D01*
X4322801Y-17302734D02*
X4303753Y-17293210D01*
X4484705Y-17283686D02*
X4494229Y-17293210D01*
X4494229Y-17293210D02*
X4484705Y-17302734D01*
X4484705Y-17302734D02*
X4475182Y-17293210D01*
X4475182Y-17293210D02*
X4484705Y-17283686D01*
X4484705Y-17283686D02*
X4484705Y-17302734D01*
X4484705Y-17178924D02*
X4494229Y-17188448D01*
X4494229Y-17188448D02*
X4484705Y-17197972D01*
X4484705Y-17197972D02*
X4475182Y-17188448D01*
X4475182Y-17188448D02*
X4484705Y-17178924D01*
X4484705Y-17178924D02*
X4484705Y-17197972D01*
D12*
X2772500Y-17591250D02*
X2852500Y-17671250D01*
X2852500Y-17591250D02*
X2772500Y-17671250D01*
D11*
X3151372Y-17522734D02*
X3170420Y-17522734D01*
X3170420Y-17522734D02*
X3189467Y-17532258D01*
X3189467Y-17532258D02*
X3198991Y-17541781D01*
X3198991Y-17541781D02*
X3208515Y-17560829D01*
X3208515Y-17560829D02*
X3218039Y-17598924D01*
X3218039Y-17598924D02*
X3218039Y-17646543D01*
X3218039Y-17646543D02*
X3208515Y-17684639D01*
X3208515Y-17684639D02*
X3198991Y-17703686D01*
X3198991Y-17703686D02*
X3189467Y-17713210D01*
X3189467Y-17713210D02*
X3170420Y-17722734D01*
X3170420Y-17722734D02*
X3151372Y-17722734D01*
X3151372Y-17722734D02*
X3132324Y-17713210D01*
X3132324Y-17713210D02*
X3122801Y-17703686D01*
X3122801Y-17703686D02*
X3113277Y-17684639D01*
X3113277Y-17684639D02*
X3103753Y-17646543D01*
X3103753Y-17646543D02*
X3103753Y-17598924D01*
X3103753Y-17598924D02*
X3113277Y-17560829D01*
X3113277Y-17560829D02*
X3122801Y-17541781D01*
X3122801Y-17541781D02*
X3132324Y-17532258D01*
X3132324Y-17532258D02*
X3151372Y-17522734D01*
X3303753Y-17703686D02*
X3313277Y-17713210D01*
X3313277Y-17713210D02*
X3303753Y-17722734D01*
X3303753Y-17722734D02*
X3294229Y-17713210D01*
X3294229Y-17713210D02*
X3303753Y-17703686D01*
X3303753Y-17703686D02*
X3303753Y-17722734D01*
X3427562Y-17608448D02*
X3408515Y-17598924D01*
X3408515Y-17598924D02*
X3398991Y-17589400D01*
X3398991Y-17589400D02*
X3389467Y-17570353D01*
X3389467Y-17570353D02*
X3389467Y-17560829D01*
X3389467Y-17560829D02*
X3398991Y-17541781D01*
X3398991Y-17541781D02*
X3408515Y-17532258D01*
X3408515Y-17532258D02*
X3427562Y-17522734D01*
X3427562Y-17522734D02*
X3465658Y-17522734D01*
X3465658Y-17522734D02*
X3484705Y-17532258D01*
X3484705Y-17532258D02*
X3494229Y-17541781D01*
X3494229Y-17541781D02*
X3503753Y-17560829D01*
X3503753Y-17560829D02*
X3503753Y-17570353D01*
X3503753Y-17570353D02*
X3494229Y-17589400D01*
X3494229Y-17589400D02*
X3484705Y-17598924D01*
X3484705Y-17598924D02*
X3465658Y-17608448D01*
X3465658Y-17608448D02*
X3427562Y-17608448D01*
X3427562Y-17608448D02*
X3408515Y-17617972D01*
X3408515Y-17617972D02*
X3398991Y-17627496D01*
X3398991Y-17627496D02*
X3389467Y-17646543D01*
X3389467Y-17646543D02*
X3389467Y-17684639D01*
X3389467Y-17684639D02*
X3398991Y-17703686D01*
X3398991Y-17703686D02*
X3408515Y-17713210D01*
X3408515Y-17713210D02*
X3427562Y-17722734D01*
X3427562Y-17722734D02*
X3465658Y-17722734D01*
X3465658Y-17722734D02*
X3484705Y-17713210D01*
X3484705Y-17713210D02*
X3494229Y-17703686D01*
X3494229Y-17703686D02*
X3503753Y-17684639D01*
X3503753Y-17684639D02*
X3503753Y-17646543D01*
X3503753Y-17646543D02*
X3494229Y-17627496D01*
X3494229Y-17627496D02*
X3484705Y-17617972D01*
X3484705Y-17617972D02*
X3465658Y-17608448D01*
X3627562Y-17522734D02*
X3646610Y-17522734D01*
X3646610Y-17522734D02*
X3665658Y-17532258D01*
X3665658Y-17532258D02*
X3675182Y-17541781D01*
X3675182Y-17541781D02*
X3684705Y-17560829D01*
X3684705Y-17560829D02*
X3694229Y-17598924D01*
X3694229Y-17598924D02*
X3694229Y-17646543D01*
X3694229Y-17646543D02*
X3684705Y-17684639D01*
X3684705Y-17684639D02*
X3675182Y-17703686D01*
X3675182Y-17703686D02*
X3665658Y-17713210D01*
X3665658Y-17713210D02*
X3646610Y-17722734D01*
X3646610Y-17722734D02*
X3627562Y-17722734D01*
X3627562Y-17722734D02*
X3608515Y-17713210D01*
X3608515Y-17713210D02*
X3598991Y-17703686D01*
X3598991Y-17703686D02*
X3589467Y-17684639D01*
X3589467Y-17684639D02*
X3579943Y-17646543D01*
X3579943Y-17646543D02*
X3579943Y-17598924D01*
X3579943Y-17598924D02*
X3589467Y-17560829D01*
X3589467Y-17560829D02*
X3598991Y-17541781D01*
X3598991Y-17541781D02*
X3608515Y-17532258D01*
X3608515Y-17532258D02*
X3627562Y-17522734D01*
X3818039Y-17522734D02*
X3837086Y-17522734D01*
X3837086Y-17522734D02*
X3856134Y-17532258D01*
X3856134Y-17532258D02*
X3865658Y-17541781D01*
X3865658Y-17541781D02*
X3875182Y-17560829D01*
X3875182Y-17560829D02*
X3884705Y-17598924D01*
X3884705Y-17598924D02*
X3884705Y-17646543D01*
X3884705Y-17646543D02*
X3875182Y-17684639D01*
X3875182Y-17684639D02*
X3865658Y-17703686D01*
X3865658Y-17703686D02*
X3856134Y-17713210D01*
X3856134Y-17713210D02*
X3837086Y-17722734D01*
X3837086Y-17722734D02*
X3818039Y-17722734D01*
X3818039Y-17722734D02*
X3798991Y-17713210D01*
X3798991Y-17713210D02*
X3789467Y-17703686D01*
X3789467Y-17703686D02*
X3779943Y-17684639D01*
X3779943Y-17684639D02*
X3770420Y-17646543D01*
X3770420Y-17646543D02*
X3770420Y-17598924D01*
X3770420Y-17598924D02*
X3779943Y-17560829D01*
X3779943Y-17560829D02*
X3789467Y-17541781D01*
X3789467Y-17541781D02*
X3798991Y-17532258D01*
X3798991Y-17532258D02*
X3818039Y-17522734D01*
X3970420Y-17722734D02*
X3970420Y-17589400D01*
X3970420Y-17608448D02*
X3979943Y-17598924D01*
X3979943Y-17598924D02*
X3998991Y-17589400D01*
X3998991Y-17589400D02*
X4027563Y-17589400D01*
X4027563Y-17589400D02*
X4046610Y-17598924D01*
X4046610Y-17598924D02*
X4056134Y-17617972D01*
X4056134Y-17617972D02*
X4056134Y-17722734D01*
X4056134Y-17617972D02*
X4065658Y-17598924D01*
X4065658Y-17598924D02*
X4084705Y-17589400D01*
X4084705Y-17589400D02*
X4113277Y-17589400D01*
X4113277Y-17589400D02*
X4132324Y-17598924D01*
X4132324Y-17598924D02*
X4141848Y-17617972D01*
X4141848Y-17617972D02*
X4141848Y-17722734D01*
X4237086Y-17722734D02*
X4237086Y-17589400D01*
X4237086Y-17608448D02*
X4246610Y-17598924D01*
X4246610Y-17598924D02*
X4265658Y-17589400D01*
X4265658Y-17589400D02*
X4294229Y-17589400D01*
X4294229Y-17589400D02*
X4313277Y-17598924D01*
X4313277Y-17598924D02*
X4322801Y-17617972D01*
X4322801Y-17617972D02*
X4322801Y-17722734D01*
X4322801Y-17617972D02*
X4332325Y-17598924D01*
X4332325Y-17598924D02*
X4351372Y-17589400D01*
X4351372Y-17589400D02*
X4379944Y-17589400D01*
X4379944Y-17589400D02*
X4398991Y-17598924D01*
X4398991Y-17598924D02*
X4408515Y-17617972D01*
X4408515Y-17617972D02*
X4408515Y-17722734D01*
X4798991Y-17513210D02*
X4627563Y-17770353D01*
X5056134Y-17522734D02*
X5075182Y-17522734D01*
X5075182Y-17522734D02*
X5094229Y-17532258D01*
X5094229Y-17532258D02*
X5103753Y-17541781D01*
X5103753Y-17541781D02*
X5113277Y-17560829D01*
X5113277Y-17560829D02*
X5122801Y-17598924D01*
X5122801Y-17598924D02*
X5122801Y-17646543D01*
X5122801Y-17646543D02*
X5113277Y-17684639D01*
X5113277Y-17684639D02*
X5103753Y-17703686D01*
X5103753Y-17703686D02*
X5094229Y-17713210D01*
X5094229Y-17713210D02*
X5075182Y-17722734D01*
X5075182Y-17722734D02*
X5056134Y-17722734D01*
X5056134Y-17722734D02*
X5037087Y-17713210D01*
X5037087Y-17713210D02*
X5027563Y-17703686D01*
X5027563Y-17703686D02*
X5018039Y-17684639D01*
X5018039Y-17684639D02*
X5008515Y-17646543D01*
X5008515Y-17646543D02*
X5008515Y-17598924D01*
X5008515Y-17598924D02*
X5018039Y-17560829D01*
X5018039Y-17560829D02*
X5027563Y-17541781D01*
X5027563Y-17541781D02*
X5037087Y-17532258D01*
X5037087Y-17532258D02*
X5056134Y-17522734D01*
X5208515Y-17703686D02*
X5218039Y-17713210D01*
X5218039Y-17713210D02*
X5208515Y-17722734D01*
X5208515Y-17722734D02*
X5198991Y-17713210D01*
X5198991Y-17713210D02*
X5208515Y-17703686D01*
X5208515Y-17703686D02*
X5208515Y-17722734D01*
X5341848Y-17522734D02*
X5360896Y-17522734D01*
X5360896Y-17522734D02*
X5379944Y-17532258D01*
X5379944Y-17532258D02*
X5389468Y-17541781D01*
X5389468Y-17541781D02*
X5398991Y-17560829D01*
X5398991Y-17560829D02*
X5408515Y-17598924D01*
X5408515Y-17598924D02*
X5408515Y-17646543D01*
X5408515Y-17646543D02*
X5398991Y-17684639D01*
X5398991Y-17684639D02*
X5389468Y-17703686D01*
X5389468Y-17703686D02*
X5379944Y-17713210D01*
X5379944Y-17713210D02*
X5360896Y-17722734D01*
X5360896Y-17722734D02*
X5341848Y-17722734D01*
X5341848Y-17722734D02*
X5322801Y-17713210D01*
X5322801Y-17713210D02*
X5313277Y-17703686D01*
X5313277Y-17703686D02*
X5303753Y-17684639D01*
X5303753Y-17684639D02*
X5294229Y-17646543D01*
X5294229Y-17646543D02*
X5294229Y-17598924D01*
X5294229Y-17598924D02*
X5303753Y-17560829D01*
X5303753Y-17560829D02*
X5313277Y-17541781D01*
X5313277Y-17541781D02*
X5322801Y-17532258D01*
X5322801Y-17532258D02*
X5341848Y-17522734D01*
X5475182Y-17522734D02*
X5598991Y-17522734D01*
X5598991Y-17522734D02*
X5532325Y-17598924D01*
X5532325Y-17598924D02*
X5560896Y-17598924D01*
X5560896Y-17598924D02*
X5579944Y-17608448D01*
X5579944Y-17608448D02*
X5589468Y-17617972D01*
X5589468Y-17617972D02*
X5598991Y-17637020D01*
X5598991Y-17637020D02*
X5598991Y-17684639D01*
X5598991Y-17684639D02*
X5589468Y-17703686D01*
X5589468Y-17703686D02*
X5579944Y-17713210D01*
X5579944Y-17713210D02*
X5560896Y-17722734D01*
X5560896Y-17722734D02*
X5503753Y-17722734D01*
X5503753Y-17722734D02*
X5484706Y-17713210D01*
X5484706Y-17713210D02*
X5475182Y-17703686D01*
X5789467Y-17722734D02*
X5675182Y-17722734D01*
X5732325Y-17722734D02*
X5732325Y-17522734D01*
X5732325Y-17522734D02*
X5713277Y-17551305D01*
X5713277Y-17551305D02*
X5694229Y-17570353D01*
X5694229Y-17570353D02*
X5675182Y-17579877D01*
X5970420Y-17522734D02*
X5875182Y-17522734D01*
X5875182Y-17522734D02*
X5865658Y-17617972D01*
X5865658Y-17617972D02*
X5875182Y-17608448D01*
X5875182Y-17608448D02*
X5894229Y-17598924D01*
X5894229Y-17598924D02*
X5941848Y-17598924D01*
X5941848Y-17598924D02*
X5960896Y-17608448D01*
X5960896Y-17608448D02*
X5970420Y-17617972D01*
X5970420Y-17617972D02*
X5979944Y-17637020D01*
X5979944Y-17637020D02*
X5979944Y-17684639D01*
X5979944Y-17684639D02*
X5970420Y-17703686D01*
X5970420Y-17703686D02*
X5960896Y-17713210D01*
X5960896Y-17713210D02*
X5941848Y-17722734D01*
X5941848Y-17722734D02*
X5894229Y-17722734D01*
X5894229Y-17722734D02*
X5875182Y-17713210D01*
X5875182Y-17713210D02*
X5865658Y-17703686D01*
X6056134Y-17522734D02*
X6056134Y-17560829D01*
X6132325Y-17522734D02*
X6132325Y-17560829D01*
X6427563Y-17798924D02*
X6418039Y-17789400D01*
X6418039Y-17789400D02*
X6398991Y-17760829D01*
X6398991Y-17760829D02*
X6389468Y-17741781D01*
X6389468Y-17741781D02*
X6379944Y-17713210D01*
X6379944Y-17713210D02*
X6370420Y-17665591D01*
X6370420Y-17665591D02*
X6370420Y-17627496D01*
X6370420Y-17627496D02*
X6379944Y-17579877D01*
X6379944Y-17579877D02*
X6389468Y-17551305D01*
X6389468Y-17551305D02*
X6398991Y-17532258D01*
X6398991Y-17532258D02*
X6418039Y-17503686D01*
X6418039Y-17503686D02*
X6427563Y-17494162D01*
X6494229Y-17541781D02*
X6503753Y-17532258D01*
X6503753Y-17532258D02*
X6522801Y-17522734D01*
X6522801Y-17522734D02*
X6570420Y-17522734D01*
X6570420Y-17522734D02*
X6589468Y-17532258D01*
X6589468Y-17532258D02*
X6598991Y-17541781D01*
X6598991Y-17541781D02*
X6608515Y-17560829D01*
X6608515Y-17560829D02*
X6608515Y-17579877D01*
X6608515Y-17579877D02*
X6598991Y-17608448D01*
X6598991Y-17608448D02*
X6484706Y-17722734D01*
X6484706Y-17722734D02*
X6608515Y-17722734D01*
X6846610Y-17722734D02*
X6846610Y-17522734D01*
X6932325Y-17722734D02*
X6932325Y-17617972D01*
X6932325Y-17617972D02*
X6922801Y-17598924D01*
X6922801Y-17598924D02*
X6903753Y-17589400D01*
X6903753Y-17589400D02*
X6875182Y-17589400D01*
X6875182Y-17589400D02*
X6856134Y-17598924D01*
X6856134Y-17598924D02*
X6846610Y-17608448D01*
X7056134Y-17722734D02*
X7037087Y-17713210D01*
X7037087Y-17713210D02*
X7027563Y-17703686D01*
X7027563Y-17703686D02*
X7018039Y-17684639D01*
X7018039Y-17684639D02*
X7018039Y-17627496D01*
X7018039Y-17627496D02*
X7027563Y-17608448D01*
X7027563Y-17608448D02*
X7037087Y-17598924D01*
X7037087Y-17598924D02*
X7056134Y-17589400D01*
X7056134Y-17589400D02*
X7084706Y-17589400D01*
X7084706Y-17589400D02*
X7103753Y-17598924D01*
X7103753Y-17598924D02*
X7113277Y-17608448D01*
X7113277Y-17608448D02*
X7122801Y-17627496D01*
X7122801Y-17627496D02*
X7122801Y-17684639D01*
X7122801Y-17684639D02*
X7113277Y-17703686D01*
X7113277Y-17703686D02*
X7103753Y-17713210D01*
X7103753Y-17713210D02*
X7084706Y-17722734D01*
X7084706Y-17722734D02*
X7056134Y-17722734D01*
X7237087Y-17722734D02*
X7218039Y-17713210D01*
X7218039Y-17713210D02*
X7208515Y-17694162D01*
X7208515Y-17694162D02*
X7208515Y-17522734D01*
X7389468Y-17713210D02*
X7370420Y-17722734D01*
X7370420Y-17722734D02*
X7332325Y-17722734D01*
X7332325Y-17722734D02*
X7313277Y-17713210D01*
X7313277Y-17713210D02*
X7303753Y-17694162D01*
X7303753Y-17694162D02*
X7303753Y-17617972D01*
X7303753Y-17617972D02*
X7313277Y-17598924D01*
X7313277Y-17598924D02*
X7332325Y-17589400D01*
X7332325Y-17589400D02*
X7370420Y-17589400D01*
X7370420Y-17589400D02*
X7389468Y-17598924D01*
X7389468Y-17598924D02*
X7398991Y-17617972D01*
X7398991Y-17617972D02*
X7398991Y-17637020D01*
X7398991Y-17637020D02*
X7303753Y-17656067D01*
X7475182Y-17713210D02*
X7494230Y-17722734D01*
X7494230Y-17722734D02*
X7532325Y-17722734D01*
X7532325Y-17722734D02*
X7551372Y-17713210D01*
X7551372Y-17713210D02*
X7560896Y-17694162D01*
X7560896Y-17694162D02*
X7560896Y-17684639D01*
X7560896Y-17684639D02*
X7551372Y-17665591D01*
X7551372Y-17665591D02*
X7532325Y-17656067D01*
X7532325Y-17656067D02*
X7503753Y-17656067D01*
X7503753Y-17656067D02*
X7484706Y-17646543D01*
X7484706Y-17646543D02*
X7475182Y-17627496D01*
X7475182Y-17627496D02*
X7475182Y-17617972D01*
X7475182Y-17617972D02*
X7484706Y-17598924D01*
X7484706Y-17598924D02*
X7503753Y-17589400D01*
X7503753Y-17589400D02*
X7532325Y-17589400D01*
X7532325Y-17589400D02*
X7551372Y-17598924D01*
X7627563Y-17798924D02*
X7637087Y-17789400D01*
X7637087Y-17789400D02*
X7656134Y-17760829D01*
X7656134Y-17760829D02*
X7665658Y-17741781D01*
X7665658Y-17741781D02*
X7675182Y-17713210D01*
X7675182Y-17713210D02*
X7684706Y-17665591D01*
X7684706Y-17665591D02*
X7684706Y-17627496D01*
X7684706Y-17627496D02*
X7675182Y-17579877D01*
X7675182Y-17579877D02*
X7665658Y-17551305D01*
X7665658Y-17551305D02*
X7656134Y-17532258D01*
X7656134Y-17532258D02*
X7637087Y-17503686D01*
X7637087Y-17503686D02*
X7627563Y-17494162D01*
X7989468Y-17798924D02*
X7979944Y-17789400D01*
X7979944Y-17789400D02*
X7960896Y-17760829D01*
X7960896Y-17760829D02*
X7951372Y-17741781D01*
X7951372Y-17741781D02*
X7941849Y-17713210D01*
X7941849Y-17713210D02*
X7932325Y-17665591D01*
X7932325Y-17665591D02*
X7932325Y-17627496D01*
X7932325Y-17627496D02*
X7941849Y-17579877D01*
X7941849Y-17579877D02*
X7951372Y-17551305D01*
X7951372Y-17551305D02*
X7960896Y-17532258D01*
X7960896Y-17532258D02*
X7979944Y-17503686D01*
X7979944Y-17503686D02*
X7989468Y-17494162D01*
X8065658Y-17589400D02*
X8065658Y-17722734D01*
X8065658Y-17608448D02*
X8075182Y-17598924D01*
X8075182Y-17598924D02*
X8094230Y-17589400D01*
X8094230Y-17589400D02*
X8122801Y-17589400D01*
X8122801Y-17589400D02*
X8141849Y-17598924D01*
X8141849Y-17598924D02*
X8151372Y-17617972D01*
X8151372Y-17617972D02*
X8151372Y-17722734D01*
X8275182Y-17722734D02*
X8256134Y-17713210D01*
X8256134Y-17713210D02*
X8246611Y-17703686D01*
X8246611Y-17703686D02*
X8237087Y-17684639D01*
X8237087Y-17684639D02*
X8237087Y-17627496D01*
X8237087Y-17627496D02*
X8246611Y-17608448D01*
X8246611Y-17608448D02*
X8256134Y-17598924D01*
X8256134Y-17598924D02*
X8275182Y-17589400D01*
X8275182Y-17589400D02*
X8303753Y-17589400D01*
X8303753Y-17589400D02*
X8322801Y-17598924D01*
X8322801Y-17598924D02*
X8332325Y-17608448D01*
X8332325Y-17608448D02*
X8341849Y-17627496D01*
X8341849Y-17627496D02*
X8341849Y-17684639D01*
X8341849Y-17684639D02*
X8332325Y-17703686D01*
X8332325Y-17703686D02*
X8322801Y-17713210D01*
X8322801Y-17713210D02*
X8303753Y-17722734D01*
X8303753Y-17722734D02*
X8275182Y-17722734D01*
X8398992Y-17589400D02*
X8475182Y-17589400D01*
X8427563Y-17522734D02*
X8427563Y-17694162D01*
X8427563Y-17694162D02*
X8437087Y-17713210D01*
X8437087Y-17713210D02*
X8456134Y-17722734D01*
X8456134Y-17722734D02*
X8475182Y-17722734D01*
X8694230Y-17589400D02*
X8694230Y-17789400D01*
X8694230Y-17598924D02*
X8713277Y-17589400D01*
X8713277Y-17589400D02*
X8751373Y-17589400D01*
X8751373Y-17589400D02*
X8770420Y-17598924D01*
X8770420Y-17598924D02*
X8779944Y-17608448D01*
X8779944Y-17608448D02*
X8789468Y-17627496D01*
X8789468Y-17627496D02*
X8789468Y-17684639D01*
X8789468Y-17684639D02*
X8779944Y-17703686D01*
X8779944Y-17703686D02*
X8770420Y-17713210D01*
X8770420Y-17713210D02*
X8751373Y-17722734D01*
X8751373Y-17722734D02*
X8713277Y-17722734D01*
X8713277Y-17722734D02*
X8694230Y-17713210D01*
X8903754Y-17722734D02*
X8884706Y-17713210D01*
X8884706Y-17713210D02*
X8875182Y-17694162D01*
X8875182Y-17694162D02*
X8875182Y-17522734D01*
X9065658Y-17722734D02*
X9065658Y-17617972D01*
X9065658Y-17617972D02*
X9056135Y-17598924D01*
X9056135Y-17598924D02*
X9037087Y-17589400D01*
X9037087Y-17589400D02*
X8998992Y-17589400D01*
X8998992Y-17589400D02*
X8979944Y-17598924D01*
X9065658Y-17713210D02*
X9046611Y-17722734D01*
X9046611Y-17722734D02*
X8998992Y-17722734D01*
X8998992Y-17722734D02*
X8979944Y-17713210D01*
X8979944Y-17713210D02*
X8970420Y-17694162D01*
X8970420Y-17694162D02*
X8970420Y-17675115D01*
X8970420Y-17675115D02*
X8979944Y-17656067D01*
X8979944Y-17656067D02*
X8998992Y-17646543D01*
X8998992Y-17646543D02*
X9046611Y-17646543D01*
X9046611Y-17646543D02*
X9065658Y-17637020D01*
X9132325Y-17589400D02*
X9208515Y-17589400D01*
X9160896Y-17522734D02*
X9160896Y-17694162D01*
X9160896Y-17694162D02*
X9170420Y-17713210D01*
X9170420Y-17713210D02*
X9189468Y-17722734D01*
X9189468Y-17722734D02*
X9208515Y-17722734D01*
X9351373Y-17713210D02*
X9332325Y-17722734D01*
X9332325Y-17722734D02*
X9294230Y-17722734D01*
X9294230Y-17722734D02*
X9275182Y-17713210D01*
X9275182Y-17713210D02*
X9265658Y-17694162D01*
X9265658Y-17694162D02*
X9265658Y-17617972D01*
X9265658Y-17617972D02*
X9275182Y-17598924D01*
X9275182Y-17598924D02*
X9294230Y-17589400D01*
X9294230Y-17589400D02*
X9332325Y-17589400D01*
X9332325Y-17589400D02*
X9351373Y-17598924D01*
X9351373Y-17598924D02*
X9360896Y-17617972D01*
X9360896Y-17617972D02*
X9360896Y-17637020D01*
X9360896Y-17637020D02*
X9265658Y-17656067D01*
X9532325Y-17722734D02*
X9532325Y-17522734D01*
X9532325Y-17713210D02*
X9513277Y-17722734D01*
X9513277Y-17722734D02*
X9475182Y-17722734D01*
X9475182Y-17722734D02*
X9456135Y-17713210D01*
X9456135Y-17713210D02*
X9446611Y-17703686D01*
X9446611Y-17703686D02*
X9437087Y-17684639D01*
X9437087Y-17684639D02*
X9437087Y-17627496D01*
X9437087Y-17627496D02*
X9446611Y-17608448D01*
X9446611Y-17608448D02*
X9456135Y-17598924D01*
X9456135Y-17598924D02*
X9475182Y-17589400D01*
X9475182Y-17589400D02*
X9513277Y-17589400D01*
X9513277Y-17589400D02*
X9532325Y-17598924D01*
X9608516Y-17798924D02*
X9618039Y-17789400D01*
X9618039Y-17789400D02*
X9637087Y-17760829D01*
X9637087Y-17760829D02*
X9646611Y-17741781D01*
X9646611Y-17741781D02*
X9656135Y-17713210D01*
X9656135Y-17713210D02*
X9665658Y-17665591D01*
X9665658Y-17665591D02*
X9665658Y-17627496D01*
X9665658Y-17627496D02*
X9656135Y-17579877D01*
X9656135Y-17579877D02*
X9646611Y-17551305D01*
X9646611Y-17551305D02*
X9637087Y-17532258D01*
X9637087Y-17532258D02*
X9618039Y-17503686D01*
X9618039Y-17503686D02*
X9608516Y-17494162D01*
D13*
X2852500Y-17895250D02*
G75*
G03*
X2852500Y-17895250I-87500J0D01*
G01*
D11*
X3218039Y-17986734D02*
X3103753Y-17986734D01*
X3160896Y-17986734D02*
X3160896Y-17786734D01*
X3160896Y-17786734D02*
X3141848Y-17815305D01*
X3141848Y-17815305D02*
X3122801Y-17834353D01*
X3122801Y-17834353D02*
X3103753Y-17843877D01*
X3303753Y-17967686D02*
X3313277Y-17977210D01*
X3313277Y-17977210D02*
X3303753Y-17986734D01*
X3303753Y-17986734D02*
X3294229Y-17977210D01*
X3294229Y-17977210D02*
X3303753Y-17967686D01*
X3303753Y-17967686D02*
X3303753Y-17986734D01*
X3379943Y-17786734D02*
X3513277Y-17786734D01*
X3513277Y-17786734D02*
X3427562Y-17986734D01*
X3684705Y-17786734D02*
X3589467Y-17786734D01*
X3589467Y-17786734D02*
X3579943Y-17881972D01*
X3579943Y-17881972D02*
X3589467Y-17872448D01*
X3589467Y-17872448D02*
X3608515Y-17862924D01*
X3608515Y-17862924D02*
X3656134Y-17862924D01*
X3656134Y-17862924D02*
X3675182Y-17872448D01*
X3675182Y-17872448D02*
X3684705Y-17881972D01*
X3684705Y-17881972D02*
X3694229Y-17901020D01*
X3694229Y-17901020D02*
X3694229Y-17948639D01*
X3694229Y-17948639D02*
X3684705Y-17967686D01*
X3684705Y-17967686D02*
X3675182Y-17977210D01*
X3675182Y-17977210D02*
X3656134Y-17986734D01*
X3656134Y-17986734D02*
X3608515Y-17986734D01*
X3608515Y-17986734D02*
X3589467Y-17977210D01*
X3589467Y-17977210D02*
X3579943Y-17967686D01*
X3818039Y-17786734D02*
X3837086Y-17786734D01*
X3837086Y-17786734D02*
X3856134Y-17796258D01*
X3856134Y-17796258D02*
X3865658Y-17805781D01*
X3865658Y-17805781D02*
X3875182Y-17824829D01*
X3875182Y-17824829D02*
X3884705Y-17862924D01*
X3884705Y-17862924D02*
X3884705Y-17910543D01*
X3884705Y-17910543D02*
X3875182Y-17948639D01*
X3875182Y-17948639D02*
X3865658Y-17967686D01*
X3865658Y-17967686D02*
X3856134Y-17977210D01*
X3856134Y-17977210D02*
X3837086Y-17986734D01*
X3837086Y-17986734D02*
X3818039Y-17986734D01*
X3818039Y-17986734D02*
X3798991Y-17977210D01*
X3798991Y-17977210D02*
X3789467Y-17967686D01*
X3789467Y-17967686D02*
X3779943Y-17948639D01*
X3779943Y-17948639D02*
X3770420Y-17910543D01*
X3770420Y-17910543D02*
X3770420Y-17862924D01*
X3770420Y-17862924D02*
X3779943Y-17824829D01*
X3779943Y-17824829D02*
X3789467Y-17805781D01*
X3789467Y-17805781D02*
X3798991Y-17796258D01*
X3798991Y-17796258D02*
X3818039Y-17786734D01*
X3970420Y-17986734D02*
X3970420Y-17853400D01*
X3970420Y-17872448D02*
X3979943Y-17862924D01*
X3979943Y-17862924D02*
X3998991Y-17853400D01*
X3998991Y-17853400D02*
X4027563Y-17853400D01*
X4027563Y-17853400D02*
X4046610Y-17862924D01*
X4046610Y-17862924D02*
X4056134Y-17881972D01*
X4056134Y-17881972D02*
X4056134Y-17986734D01*
X4056134Y-17881972D02*
X4065658Y-17862924D01*
X4065658Y-17862924D02*
X4084705Y-17853400D01*
X4084705Y-17853400D02*
X4113277Y-17853400D01*
X4113277Y-17853400D02*
X4132324Y-17862924D01*
X4132324Y-17862924D02*
X4141848Y-17881972D01*
X4141848Y-17881972D02*
X4141848Y-17986734D01*
X4237086Y-17986734D02*
X4237086Y-17853400D01*
X4237086Y-17872448D02*
X4246610Y-17862924D01*
X4246610Y-17862924D02*
X4265658Y-17853400D01*
X4265658Y-17853400D02*
X4294229Y-17853400D01*
X4294229Y-17853400D02*
X4313277Y-17862924D01*
X4313277Y-17862924D02*
X4322801Y-17881972D01*
X4322801Y-17881972D02*
X4322801Y-17986734D01*
X4322801Y-17881972D02*
X4332325Y-17862924D01*
X4332325Y-17862924D02*
X4351372Y-17853400D01*
X4351372Y-17853400D02*
X4379944Y-17853400D01*
X4379944Y-17853400D02*
X4398991Y-17862924D01*
X4398991Y-17862924D02*
X4408515Y-17881972D01*
X4408515Y-17881972D02*
X4408515Y-17986734D01*
X4798991Y-17777210D02*
X4627563Y-18034353D01*
X5056134Y-17786734D02*
X5075182Y-17786734D01*
X5075182Y-17786734D02*
X5094229Y-17796258D01*
X5094229Y-17796258D02*
X5103753Y-17805781D01*
X5103753Y-17805781D02*
X5113277Y-17824829D01*
X5113277Y-17824829D02*
X5122801Y-17862924D01*
X5122801Y-17862924D02*
X5122801Y-17910543D01*
X5122801Y-17910543D02*
X5113277Y-17948639D01*
X5113277Y-17948639D02*
X5103753Y-17967686D01*
X5103753Y-17967686D02*
X5094229Y-17977210D01*
X5094229Y-17977210D02*
X5075182Y-17986734D01*
X5075182Y-17986734D02*
X5056134Y-17986734D01*
X5056134Y-17986734D02*
X5037087Y-17977210D01*
X5037087Y-17977210D02*
X5027563Y-17967686D01*
X5027563Y-17967686D02*
X5018039Y-17948639D01*
X5018039Y-17948639D02*
X5008515Y-17910543D01*
X5008515Y-17910543D02*
X5008515Y-17862924D01*
X5008515Y-17862924D02*
X5018039Y-17824829D01*
X5018039Y-17824829D02*
X5027563Y-17805781D01*
X5027563Y-17805781D02*
X5037087Y-17796258D01*
X5037087Y-17796258D02*
X5056134Y-17786734D01*
X5208515Y-17967686D02*
X5218039Y-17977210D01*
X5218039Y-17977210D02*
X5208515Y-17986734D01*
X5208515Y-17986734D02*
X5198991Y-17977210D01*
X5198991Y-17977210D02*
X5208515Y-17967686D01*
X5208515Y-17967686D02*
X5208515Y-17986734D01*
X5341848Y-17786734D02*
X5360896Y-17786734D01*
X5360896Y-17786734D02*
X5379944Y-17796258D01*
X5379944Y-17796258D02*
X5389468Y-17805781D01*
X5389468Y-17805781D02*
X5398991Y-17824829D01*
X5398991Y-17824829D02*
X5408515Y-17862924D01*
X5408515Y-17862924D02*
X5408515Y-17910543D01*
X5408515Y-17910543D02*
X5398991Y-17948639D01*
X5398991Y-17948639D02*
X5389468Y-17967686D01*
X5389468Y-17967686D02*
X5379944Y-17977210D01*
X5379944Y-17977210D02*
X5360896Y-17986734D01*
X5360896Y-17986734D02*
X5341848Y-17986734D01*
X5341848Y-17986734D02*
X5322801Y-17977210D01*
X5322801Y-17977210D02*
X5313277Y-17967686D01*
X5313277Y-17967686D02*
X5303753Y-17948639D01*
X5303753Y-17948639D02*
X5294229Y-17910543D01*
X5294229Y-17910543D02*
X5294229Y-17862924D01*
X5294229Y-17862924D02*
X5303753Y-17824829D01*
X5303753Y-17824829D02*
X5313277Y-17805781D01*
X5313277Y-17805781D02*
X5322801Y-17796258D01*
X5322801Y-17796258D02*
X5341848Y-17786734D01*
X5579944Y-17786734D02*
X5541848Y-17786734D01*
X5541848Y-17786734D02*
X5522801Y-17796258D01*
X5522801Y-17796258D02*
X5513277Y-17805781D01*
X5513277Y-17805781D02*
X5494229Y-17834353D01*
X5494229Y-17834353D02*
X5484706Y-17872448D01*
X5484706Y-17872448D02*
X5484706Y-17948639D01*
X5484706Y-17948639D02*
X5494229Y-17967686D01*
X5494229Y-17967686D02*
X5503753Y-17977210D01*
X5503753Y-17977210D02*
X5522801Y-17986734D01*
X5522801Y-17986734D02*
X5560896Y-17986734D01*
X5560896Y-17986734D02*
X5579944Y-17977210D01*
X5579944Y-17977210D02*
X5589468Y-17967686D01*
X5589468Y-17967686D02*
X5598991Y-17948639D01*
X5598991Y-17948639D02*
X5598991Y-17901020D01*
X5598991Y-17901020D02*
X5589468Y-17881972D01*
X5589468Y-17881972D02*
X5579944Y-17872448D01*
X5579944Y-17872448D02*
X5560896Y-17862924D01*
X5560896Y-17862924D02*
X5522801Y-17862924D01*
X5522801Y-17862924D02*
X5503753Y-17872448D01*
X5503753Y-17872448D02*
X5494229Y-17881972D01*
X5494229Y-17881972D02*
X5484706Y-17901020D01*
X5713277Y-17872448D02*
X5694229Y-17862924D01*
X5694229Y-17862924D02*
X5684706Y-17853400D01*
X5684706Y-17853400D02*
X5675182Y-17834353D01*
X5675182Y-17834353D02*
X5675182Y-17824829D01*
X5675182Y-17824829D02*
X5684706Y-17805781D01*
X5684706Y-17805781D02*
X5694229Y-17796258D01*
X5694229Y-17796258D02*
X5713277Y-17786734D01*
X5713277Y-17786734D02*
X5751372Y-17786734D01*
X5751372Y-17786734D02*
X5770420Y-17796258D01*
X5770420Y-17796258D02*
X5779944Y-17805781D01*
X5779944Y-17805781D02*
X5789467Y-17824829D01*
X5789467Y-17824829D02*
X5789467Y-17834353D01*
X5789467Y-17834353D02*
X5779944Y-17853400D01*
X5779944Y-17853400D02*
X5770420Y-17862924D01*
X5770420Y-17862924D02*
X5751372Y-17872448D01*
X5751372Y-17872448D02*
X5713277Y-17872448D01*
X5713277Y-17872448D02*
X5694229Y-17881972D01*
X5694229Y-17881972D02*
X5684706Y-17891496D01*
X5684706Y-17891496D02*
X5675182Y-17910543D01*
X5675182Y-17910543D02*
X5675182Y-17948639D01*
X5675182Y-17948639D02*
X5684706Y-17967686D01*
X5684706Y-17967686D02*
X5694229Y-17977210D01*
X5694229Y-17977210D02*
X5713277Y-17986734D01*
X5713277Y-17986734D02*
X5751372Y-17986734D01*
X5751372Y-17986734D02*
X5770420Y-17977210D01*
X5770420Y-17977210D02*
X5779944Y-17967686D01*
X5779944Y-17967686D02*
X5789467Y-17948639D01*
X5789467Y-17948639D02*
X5789467Y-17910543D01*
X5789467Y-17910543D02*
X5779944Y-17891496D01*
X5779944Y-17891496D02*
X5770420Y-17881972D01*
X5770420Y-17881972D02*
X5751372Y-17872448D01*
X5884706Y-17986734D02*
X5922801Y-17986734D01*
X5922801Y-17986734D02*
X5941848Y-17977210D01*
X5941848Y-17977210D02*
X5951372Y-17967686D01*
X5951372Y-17967686D02*
X5970420Y-17939115D01*
X5970420Y-17939115D02*
X5979944Y-17901020D01*
X5979944Y-17901020D02*
X5979944Y-17824829D01*
X5979944Y-17824829D02*
X5970420Y-17805781D01*
X5970420Y-17805781D02*
X5960896Y-17796258D01*
X5960896Y-17796258D02*
X5941848Y-17786734D01*
X5941848Y-17786734D02*
X5903753Y-17786734D01*
X5903753Y-17786734D02*
X5884706Y-17796258D01*
X5884706Y-17796258D02*
X5875182Y-17805781D01*
X5875182Y-17805781D02*
X5865658Y-17824829D01*
X5865658Y-17824829D02*
X5865658Y-17872448D01*
X5865658Y-17872448D02*
X5875182Y-17891496D01*
X5875182Y-17891496D02*
X5884706Y-17901020D01*
X5884706Y-17901020D02*
X5903753Y-17910543D01*
X5903753Y-17910543D02*
X5941848Y-17910543D01*
X5941848Y-17910543D02*
X5960896Y-17901020D01*
X5960896Y-17901020D02*
X5970420Y-17891496D01*
X5970420Y-17891496D02*
X5979944Y-17872448D01*
X6056134Y-17786734D02*
X6056134Y-17824829D01*
X6132325Y-17786734D02*
X6132325Y-17824829D01*
X6427563Y-18062924D02*
X6418039Y-18053400D01*
X6418039Y-18053400D02*
X6398991Y-18024829D01*
X6398991Y-18024829D02*
X6389468Y-18005781D01*
X6389468Y-18005781D02*
X6379944Y-17977210D01*
X6379944Y-17977210D02*
X6370420Y-17929591D01*
X6370420Y-17929591D02*
X6370420Y-17891496D01*
X6370420Y-17891496D02*
X6379944Y-17843877D01*
X6379944Y-17843877D02*
X6389468Y-17815305D01*
X6389468Y-17815305D02*
X6398991Y-17796258D01*
X6398991Y-17796258D02*
X6418039Y-17767686D01*
X6418039Y-17767686D02*
X6427563Y-17758162D01*
X6484706Y-17786734D02*
X6618039Y-17786734D01*
X6618039Y-17786734D02*
X6532325Y-17986734D01*
X6779944Y-17853400D02*
X6779944Y-17986734D01*
X6732325Y-17777210D02*
X6684706Y-17920067D01*
X6684706Y-17920067D02*
X6808515Y-17920067D01*
X7037087Y-17986734D02*
X7037087Y-17786734D01*
X7122801Y-17986734D02*
X7122801Y-17881972D01*
X7122801Y-17881972D02*
X7113277Y-17862924D01*
X7113277Y-17862924D02*
X7094230Y-17853400D01*
X7094230Y-17853400D02*
X7065658Y-17853400D01*
X7065658Y-17853400D02*
X7046610Y-17862924D01*
X7046610Y-17862924D02*
X7037087Y-17872448D01*
X7246610Y-17986734D02*
X7227563Y-17977210D01*
X7227563Y-17977210D02*
X7218039Y-17967686D01*
X7218039Y-17967686D02*
X7208515Y-17948639D01*
X7208515Y-17948639D02*
X7208515Y-17891496D01*
X7208515Y-17891496D02*
X7218039Y-17872448D01*
X7218039Y-17872448D02*
X7227563Y-17862924D01*
X7227563Y-17862924D02*
X7246610Y-17853400D01*
X7246610Y-17853400D02*
X7275182Y-17853400D01*
X7275182Y-17853400D02*
X7294230Y-17862924D01*
X7294230Y-17862924D02*
X7303753Y-17872448D01*
X7303753Y-17872448D02*
X7313277Y-17891496D01*
X7313277Y-17891496D02*
X7313277Y-17948639D01*
X7313277Y-17948639D02*
X7303753Y-17967686D01*
X7303753Y-17967686D02*
X7294230Y-17977210D01*
X7294230Y-17977210D02*
X7275182Y-17986734D01*
X7275182Y-17986734D02*
X7246610Y-17986734D01*
X7427563Y-17986734D02*
X7408515Y-17977210D01*
X7408515Y-17977210D02*
X7398991Y-17958162D01*
X7398991Y-17958162D02*
X7398991Y-17786734D01*
X7579944Y-17977210D02*
X7560896Y-17986734D01*
X7560896Y-17986734D02*
X7522801Y-17986734D01*
X7522801Y-17986734D02*
X7503753Y-17977210D01*
X7503753Y-17977210D02*
X7494230Y-17958162D01*
X7494230Y-17958162D02*
X7494230Y-17881972D01*
X7494230Y-17881972D02*
X7503753Y-17862924D01*
X7503753Y-17862924D02*
X7522801Y-17853400D01*
X7522801Y-17853400D02*
X7560896Y-17853400D01*
X7560896Y-17853400D02*
X7579944Y-17862924D01*
X7579944Y-17862924D02*
X7589468Y-17881972D01*
X7589468Y-17881972D02*
X7589468Y-17901020D01*
X7589468Y-17901020D02*
X7494230Y-17920067D01*
X7665658Y-17977210D02*
X7684706Y-17986734D01*
X7684706Y-17986734D02*
X7722801Y-17986734D01*
X7722801Y-17986734D02*
X7741849Y-17977210D01*
X7741849Y-17977210D02*
X7751372Y-17958162D01*
X7751372Y-17958162D02*
X7751372Y-17948639D01*
X7751372Y-17948639D02*
X7741849Y-17929591D01*
X7741849Y-17929591D02*
X7722801Y-17920067D01*
X7722801Y-17920067D02*
X7694230Y-17920067D01*
X7694230Y-17920067D02*
X7675182Y-17910543D01*
X7675182Y-17910543D02*
X7665658Y-17891496D01*
X7665658Y-17891496D02*
X7665658Y-17881972D01*
X7665658Y-17881972D02*
X7675182Y-17862924D01*
X7675182Y-17862924D02*
X7694230Y-17853400D01*
X7694230Y-17853400D02*
X7722801Y-17853400D01*
X7722801Y-17853400D02*
X7741849Y-17862924D01*
X7818039Y-18062924D02*
X7827563Y-18053400D01*
X7827563Y-18053400D02*
X7846611Y-18024829D01*
X7846611Y-18024829D02*
X7856134Y-18005781D01*
X7856134Y-18005781D02*
X7865658Y-17977210D01*
X7865658Y-17977210D02*
X7875182Y-17929591D01*
X7875182Y-17929591D02*
X7875182Y-17891496D01*
X7875182Y-17891496D02*
X7865658Y-17843877D01*
X7865658Y-17843877D02*
X7856134Y-17815305D01*
X7856134Y-17815305D02*
X7846611Y-17796258D01*
X7846611Y-17796258D02*
X7827563Y-17767686D01*
X7827563Y-17767686D02*
X7818039Y-17758162D01*
X8179944Y-18062924D02*
X8170420Y-18053400D01*
X8170420Y-18053400D02*
X8151372Y-18024829D01*
X8151372Y-18024829D02*
X8141849Y-18005781D01*
X8141849Y-18005781D02*
X8132325Y-17977210D01*
X8132325Y-17977210D02*
X8122801Y-17929591D01*
X8122801Y-17929591D02*
X8122801Y-17891496D01*
X8122801Y-17891496D02*
X8132325Y-17843877D01*
X8132325Y-17843877D02*
X8141849Y-17815305D01*
X8141849Y-17815305D02*
X8151372Y-17796258D01*
X8151372Y-17796258D02*
X8170420Y-17767686D01*
X8170420Y-17767686D02*
X8179944Y-17758162D01*
X8256134Y-17853400D02*
X8256134Y-17986734D01*
X8256134Y-17872448D02*
X8265658Y-17862924D01*
X8265658Y-17862924D02*
X8284706Y-17853400D01*
X8284706Y-17853400D02*
X8313277Y-17853400D01*
X8313277Y-17853400D02*
X8332325Y-17862924D01*
X8332325Y-17862924D02*
X8341849Y-17881972D01*
X8341849Y-17881972D02*
X8341849Y-17986734D01*
X8465658Y-17986734D02*
X8446611Y-17977210D01*
X8446611Y-17977210D02*
X8437087Y-17967686D01*
X8437087Y-17967686D02*
X8427563Y-17948639D01*
X8427563Y-17948639D02*
X8427563Y-17891496D01*
X8427563Y-17891496D02*
X8437087Y-17872448D01*
X8437087Y-17872448D02*
X8446611Y-17862924D01*
X8446611Y-17862924D02*
X8465658Y-17853400D01*
X8465658Y-17853400D02*
X8494230Y-17853400D01*
X8494230Y-17853400D02*
X8513277Y-17862924D01*
X8513277Y-17862924D02*
X8522801Y-17872448D01*
X8522801Y-17872448D02*
X8532325Y-17891496D01*
X8532325Y-17891496D02*
X8532325Y-17948639D01*
X8532325Y-17948639D02*
X8522801Y-17967686D01*
X8522801Y-17967686D02*
X8513277Y-17977210D01*
X8513277Y-17977210D02*
X8494230Y-17986734D01*
X8494230Y-17986734D02*
X8465658Y-17986734D01*
X8589468Y-17853400D02*
X8665658Y-17853400D01*
X8618039Y-17786734D02*
X8618039Y-17958162D01*
X8618039Y-17958162D02*
X8627563Y-17977210D01*
X8627563Y-17977210D02*
X8646611Y-17986734D01*
X8646611Y-17986734D02*
X8665658Y-17986734D01*
X8884706Y-17853400D02*
X8884706Y-18053400D01*
X8884706Y-17862924D02*
X8903754Y-17853400D01*
X8903754Y-17853400D02*
X8941849Y-17853400D01*
X8941849Y-17853400D02*
X8960896Y-17862924D01*
X8960896Y-17862924D02*
X8970420Y-17872448D01*
X8970420Y-17872448D02*
X8979944Y-17891496D01*
X8979944Y-17891496D02*
X8979944Y-17948639D01*
X8979944Y-17948639D02*
X8970420Y-17967686D01*
X8970420Y-17967686D02*
X8960896Y-17977210D01*
X8960896Y-17977210D02*
X8941849Y-17986734D01*
X8941849Y-17986734D02*
X8903754Y-17986734D01*
X8903754Y-17986734D02*
X8884706Y-17977210D01*
X9094230Y-17986734D02*
X9075182Y-17977210D01*
X9075182Y-17977210D02*
X9065658Y-17958162D01*
X9065658Y-17958162D02*
X9065658Y-17786734D01*
X9256135Y-17986734D02*
X9256135Y-17881972D01*
X9256135Y-17881972D02*
X9246611Y-17862924D01*
X9246611Y-17862924D02*
X9227563Y-17853400D01*
X9227563Y-17853400D02*
X9189468Y-17853400D01*
X9189468Y-17853400D02*
X9170420Y-17862924D01*
X9256135Y-17977210D02*
X9237087Y-17986734D01*
X9237087Y-17986734D02*
X9189468Y-17986734D01*
X9189468Y-17986734D02*
X9170420Y-17977210D01*
X9170420Y-17977210D02*
X9160896Y-17958162D01*
X9160896Y-17958162D02*
X9160896Y-17939115D01*
X9160896Y-17939115D02*
X9170420Y-17920067D01*
X9170420Y-17920067D02*
X9189468Y-17910543D01*
X9189468Y-17910543D02*
X9237087Y-17910543D01*
X9237087Y-17910543D02*
X9256135Y-17901020D01*
X9322801Y-17853400D02*
X9398992Y-17853400D01*
X9351373Y-17786734D02*
X9351373Y-17958162D01*
X9351373Y-17958162D02*
X9360896Y-17977210D01*
X9360896Y-17977210D02*
X9379944Y-17986734D01*
X9379944Y-17986734D02*
X9398992Y-17986734D01*
X9541849Y-17977210D02*
X9522801Y-17986734D01*
X9522801Y-17986734D02*
X9484706Y-17986734D01*
X9484706Y-17986734D02*
X9465658Y-17977210D01*
X9465658Y-17977210D02*
X9456135Y-17958162D01*
X9456135Y-17958162D02*
X9456135Y-17881972D01*
X9456135Y-17881972D02*
X9465658Y-17862924D01*
X9465658Y-17862924D02*
X9484706Y-17853400D01*
X9484706Y-17853400D02*
X9522801Y-17853400D01*
X9522801Y-17853400D02*
X9541849Y-17862924D01*
X9541849Y-17862924D02*
X9551373Y-17881972D01*
X9551373Y-17881972D02*
X9551373Y-17901020D01*
X9551373Y-17901020D02*
X9456135Y-17920067D01*
X9722801Y-17986734D02*
X9722801Y-17786734D01*
X9722801Y-17977210D02*
X9703754Y-17986734D01*
X9703754Y-17986734D02*
X9665658Y-17986734D01*
X9665658Y-17986734D02*
X9646611Y-17977210D01*
X9646611Y-17977210D02*
X9637087Y-17967686D01*
X9637087Y-17967686D02*
X9627563Y-17948639D01*
X9627563Y-17948639D02*
X9627563Y-17891496D01*
X9627563Y-17891496D02*
X9637087Y-17872448D01*
X9637087Y-17872448D02*
X9646611Y-17862924D01*
X9646611Y-17862924D02*
X9665658Y-17853400D01*
X9665658Y-17853400D02*
X9703754Y-17853400D01*
X9703754Y-17853400D02*
X9722801Y-17862924D01*
X9798992Y-18062924D02*
X9808516Y-18053400D01*
X9808516Y-18053400D02*
X9827563Y-18024829D01*
X9827563Y-18024829D02*
X9837087Y-18005781D01*
X9837087Y-18005781D02*
X9846611Y-17977210D01*
X9846611Y-17977210D02*
X9856135Y-17929591D01*
X9856135Y-17929591D02*
X9856135Y-17891496D01*
X9856135Y-17891496D02*
X9846611Y-17843877D01*
X9846611Y-17843877D02*
X9837087Y-17815305D01*
X9837087Y-17815305D02*
X9827563Y-17796258D01*
X9827563Y-17796258D02*
X9808516Y-17767686D01*
X9808516Y-17767686D02*
X9798992Y-17758162D01*
X2752500Y-18090250D02*
X2752500Y-18290250D01*
X2652500Y-18190250D02*
X2852500Y-18190250D01*
X3094229Y-18081734D02*
X3218039Y-18081734D01*
X3218039Y-18081734D02*
X3151372Y-18157924D01*
X3151372Y-18157924D02*
X3179943Y-18157924D01*
X3179943Y-18157924D02*
X3198991Y-18167448D01*
X3198991Y-18167448D02*
X3208515Y-18176972D01*
X3208515Y-18176972D02*
X3218039Y-18196020D01*
X3218039Y-18196020D02*
X3218039Y-18243639D01*
X3218039Y-18243639D02*
X3208515Y-18262686D01*
X3208515Y-18262686D02*
X3198991Y-18272210D01*
X3198991Y-18272210D02*
X3179943Y-18281734D01*
X3179943Y-18281734D02*
X3122801Y-18281734D01*
X3122801Y-18281734D02*
X3103753Y-18272210D01*
X3103753Y-18272210D02*
X3094229Y-18262686D01*
X3303753Y-18262686D02*
X3313277Y-18272210D01*
X3313277Y-18272210D02*
X3303753Y-18281734D01*
X3303753Y-18281734D02*
X3294229Y-18272210D01*
X3294229Y-18272210D02*
X3303753Y-18262686D01*
X3303753Y-18262686D02*
X3303753Y-18281734D01*
X3408515Y-18281734D02*
X3446610Y-18281734D01*
X3446610Y-18281734D02*
X3465658Y-18272210D01*
X3465658Y-18272210D02*
X3475182Y-18262686D01*
X3475182Y-18262686D02*
X3494229Y-18234115D01*
X3494229Y-18234115D02*
X3503753Y-18196020D01*
X3503753Y-18196020D02*
X3503753Y-18119829D01*
X3503753Y-18119829D02*
X3494229Y-18100781D01*
X3494229Y-18100781D02*
X3484705Y-18091258D01*
X3484705Y-18091258D02*
X3465658Y-18081734D01*
X3465658Y-18081734D02*
X3427562Y-18081734D01*
X3427562Y-18081734D02*
X3408515Y-18091258D01*
X3408515Y-18091258D02*
X3398991Y-18100781D01*
X3398991Y-18100781D02*
X3389467Y-18119829D01*
X3389467Y-18119829D02*
X3389467Y-18167448D01*
X3389467Y-18167448D02*
X3398991Y-18186496D01*
X3398991Y-18186496D02*
X3408515Y-18196020D01*
X3408515Y-18196020D02*
X3427562Y-18205543D01*
X3427562Y-18205543D02*
X3465658Y-18205543D01*
X3465658Y-18205543D02*
X3484705Y-18196020D01*
X3484705Y-18196020D02*
X3494229Y-18186496D01*
X3494229Y-18186496D02*
X3503753Y-18167448D01*
X3618039Y-18167448D02*
X3598991Y-18157924D01*
X3598991Y-18157924D02*
X3589467Y-18148400D01*
X3589467Y-18148400D02*
X3579943Y-18129353D01*
X3579943Y-18129353D02*
X3579943Y-18119829D01*
X3579943Y-18119829D02*
X3589467Y-18100781D01*
X3589467Y-18100781D02*
X3598991Y-18091258D01*
X3598991Y-18091258D02*
X3618039Y-18081734D01*
X3618039Y-18081734D02*
X3656134Y-18081734D01*
X3656134Y-18081734D02*
X3675182Y-18091258D01*
X3675182Y-18091258D02*
X3684705Y-18100781D01*
X3684705Y-18100781D02*
X3694229Y-18119829D01*
X3694229Y-18119829D02*
X3694229Y-18129353D01*
X3694229Y-18129353D02*
X3684705Y-18148400D01*
X3684705Y-18148400D02*
X3675182Y-18157924D01*
X3675182Y-18157924D02*
X3656134Y-18167448D01*
X3656134Y-18167448D02*
X3618039Y-18167448D01*
X3618039Y-18167448D02*
X3598991Y-18176972D01*
X3598991Y-18176972D02*
X3589467Y-18186496D01*
X3589467Y-18186496D02*
X3579943Y-18205543D01*
X3579943Y-18205543D02*
X3579943Y-18243639D01*
X3579943Y-18243639D02*
X3589467Y-18262686D01*
X3589467Y-18262686D02*
X3598991Y-18272210D01*
X3598991Y-18272210D02*
X3618039Y-18281734D01*
X3618039Y-18281734D02*
X3656134Y-18281734D01*
X3656134Y-18281734D02*
X3675182Y-18272210D01*
X3675182Y-18272210D02*
X3684705Y-18262686D01*
X3684705Y-18262686D02*
X3694229Y-18243639D01*
X3694229Y-18243639D02*
X3694229Y-18205543D01*
X3694229Y-18205543D02*
X3684705Y-18186496D01*
X3684705Y-18186496D02*
X3675182Y-18176972D01*
X3675182Y-18176972D02*
X3656134Y-18167448D01*
X3808515Y-18167448D02*
X3789467Y-18157924D01*
X3789467Y-18157924D02*
X3779943Y-18148400D01*
X3779943Y-18148400D02*
X3770420Y-18129353D01*
X3770420Y-18129353D02*
X3770420Y-18119829D01*
X3770420Y-18119829D02*
X3779943Y-18100781D01*
X3779943Y-18100781D02*
X3789467Y-18091258D01*
X3789467Y-18091258D02*
X3808515Y-18081734D01*
X3808515Y-18081734D02*
X3846610Y-18081734D01*
X3846610Y-18081734D02*
X3865658Y-18091258D01*
X3865658Y-18091258D02*
X3875182Y-18100781D01*
X3875182Y-18100781D02*
X3884705Y-18119829D01*
X3884705Y-18119829D02*
X3884705Y-18129353D01*
X3884705Y-18129353D02*
X3875182Y-18148400D01*
X3875182Y-18148400D02*
X3865658Y-18157924D01*
X3865658Y-18157924D02*
X3846610Y-18167448D01*
X3846610Y-18167448D02*
X3808515Y-18167448D01*
X3808515Y-18167448D02*
X3789467Y-18176972D01*
X3789467Y-18176972D02*
X3779943Y-18186496D01*
X3779943Y-18186496D02*
X3770420Y-18205543D01*
X3770420Y-18205543D02*
X3770420Y-18243639D01*
X3770420Y-18243639D02*
X3779943Y-18262686D01*
X3779943Y-18262686D02*
X3789467Y-18272210D01*
X3789467Y-18272210D02*
X3808515Y-18281734D01*
X3808515Y-18281734D02*
X3846610Y-18281734D01*
X3846610Y-18281734D02*
X3865658Y-18272210D01*
X3865658Y-18272210D02*
X3875182Y-18262686D01*
X3875182Y-18262686D02*
X3884705Y-18243639D01*
X3884705Y-18243639D02*
X3884705Y-18205543D01*
X3884705Y-18205543D02*
X3875182Y-18186496D01*
X3875182Y-18186496D02*
X3865658Y-18176972D01*
X3865658Y-18176972D02*
X3846610Y-18167448D01*
X3970420Y-18281734D02*
X3970420Y-18148400D01*
X3970420Y-18167448D02*
X3979943Y-18157924D01*
X3979943Y-18157924D02*
X3998991Y-18148400D01*
X3998991Y-18148400D02*
X4027563Y-18148400D01*
X4027563Y-18148400D02*
X4046610Y-18157924D01*
X4046610Y-18157924D02*
X4056134Y-18176972D01*
X4056134Y-18176972D02*
X4056134Y-18281734D01*
X4056134Y-18176972D02*
X4065658Y-18157924D01*
X4065658Y-18157924D02*
X4084705Y-18148400D01*
X4084705Y-18148400D02*
X4113277Y-18148400D01*
X4113277Y-18148400D02*
X4132324Y-18157924D01*
X4132324Y-18157924D02*
X4141848Y-18176972D01*
X4141848Y-18176972D02*
X4141848Y-18281734D01*
X4237086Y-18281734D02*
X4237086Y-18148400D01*
X4237086Y-18167448D02*
X4246610Y-18157924D01*
X4246610Y-18157924D02*
X4265658Y-18148400D01*
X4265658Y-18148400D02*
X4294229Y-18148400D01*
X4294229Y-18148400D02*
X4313277Y-18157924D01*
X4313277Y-18157924D02*
X4322801Y-18176972D01*
X4322801Y-18176972D02*
X4322801Y-18281734D01*
X4322801Y-18176972D02*
X4332325Y-18157924D01*
X4332325Y-18157924D02*
X4351372Y-18148400D01*
X4351372Y-18148400D02*
X4379944Y-18148400D01*
X4379944Y-18148400D02*
X4398991Y-18157924D01*
X4398991Y-18157924D02*
X4408515Y-18176972D01*
X4408515Y-18176972D02*
X4408515Y-18281734D01*
X4798991Y-18072210D02*
X4627563Y-18329353D01*
X5056134Y-18081734D02*
X5075182Y-18081734D01*
X5075182Y-18081734D02*
X5094229Y-18091258D01*
X5094229Y-18091258D02*
X5103753Y-18100781D01*
X5103753Y-18100781D02*
X5113277Y-18119829D01*
X5113277Y-18119829D02*
X5122801Y-18157924D01*
X5122801Y-18157924D02*
X5122801Y-18205543D01*
X5122801Y-18205543D02*
X5113277Y-18243639D01*
X5113277Y-18243639D02*
X5103753Y-18262686D01*
X5103753Y-18262686D02*
X5094229Y-18272210D01*
X5094229Y-18272210D02*
X5075182Y-18281734D01*
X5075182Y-18281734D02*
X5056134Y-18281734D01*
X5056134Y-18281734D02*
X5037087Y-18272210D01*
X5037087Y-18272210D02*
X5027563Y-18262686D01*
X5027563Y-18262686D02*
X5018039Y-18243639D01*
X5018039Y-18243639D02*
X5008515Y-18205543D01*
X5008515Y-18205543D02*
X5008515Y-18157924D01*
X5008515Y-18157924D02*
X5018039Y-18119829D01*
X5018039Y-18119829D02*
X5027563Y-18100781D01*
X5027563Y-18100781D02*
X5037087Y-18091258D01*
X5037087Y-18091258D02*
X5056134Y-18081734D01*
X5208515Y-18262686D02*
X5218039Y-18272210D01*
X5218039Y-18272210D02*
X5208515Y-18281734D01*
X5208515Y-18281734D02*
X5198991Y-18272210D01*
X5198991Y-18272210D02*
X5208515Y-18262686D01*
X5208515Y-18262686D02*
X5208515Y-18281734D01*
X5408515Y-18281734D02*
X5294229Y-18281734D01*
X5351372Y-18281734D02*
X5351372Y-18081734D01*
X5351372Y-18081734D02*
X5332325Y-18110305D01*
X5332325Y-18110305D02*
X5313277Y-18129353D01*
X5313277Y-18129353D02*
X5294229Y-18138877D01*
X5589468Y-18081734D02*
X5494229Y-18081734D01*
X5494229Y-18081734D02*
X5484706Y-18176972D01*
X5484706Y-18176972D02*
X5494229Y-18167448D01*
X5494229Y-18167448D02*
X5513277Y-18157924D01*
X5513277Y-18157924D02*
X5560896Y-18157924D01*
X5560896Y-18157924D02*
X5579944Y-18167448D01*
X5579944Y-18167448D02*
X5589468Y-18176972D01*
X5589468Y-18176972D02*
X5598991Y-18196020D01*
X5598991Y-18196020D02*
X5598991Y-18243639D01*
X5598991Y-18243639D02*
X5589468Y-18262686D01*
X5589468Y-18262686D02*
X5579944Y-18272210D01*
X5579944Y-18272210D02*
X5560896Y-18281734D01*
X5560896Y-18281734D02*
X5513277Y-18281734D01*
X5513277Y-18281734D02*
X5494229Y-18272210D01*
X5494229Y-18272210D02*
X5484706Y-18262686D01*
X5665658Y-18081734D02*
X5798991Y-18081734D01*
X5798991Y-18081734D02*
X5713277Y-18281734D01*
X5913277Y-18081734D02*
X5932325Y-18081734D01*
X5932325Y-18081734D02*
X5951372Y-18091258D01*
X5951372Y-18091258D02*
X5960896Y-18100781D01*
X5960896Y-18100781D02*
X5970420Y-18119829D01*
X5970420Y-18119829D02*
X5979944Y-18157924D01*
X5979944Y-18157924D02*
X5979944Y-18205543D01*
X5979944Y-18205543D02*
X5970420Y-18243639D01*
X5970420Y-18243639D02*
X5960896Y-18262686D01*
X5960896Y-18262686D02*
X5951372Y-18272210D01*
X5951372Y-18272210D02*
X5932325Y-18281734D01*
X5932325Y-18281734D02*
X5913277Y-18281734D01*
X5913277Y-18281734D02*
X5894229Y-18272210D01*
X5894229Y-18272210D02*
X5884706Y-18262686D01*
X5884706Y-18262686D02*
X5875182Y-18243639D01*
X5875182Y-18243639D02*
X5865658Y-18205543D01*
X5865658Y-18205543D02*
X5865658Y-18157924D01*
X5865658Y-18157924D02*
X5875182Y-18119829D01*
X5875182Y-18119829D02*
X5884706Y-18100781D01*
X5884706Y-18100781D02*
X5894229Y-18091258D01*
X5894229Y-18091258D02*
X5913277Y-18081734D01*
X6056134Y-18081734D02*
X6056134Y-18119829D01*
X6132325Y-18081734D02*
X6132325Y-18119829D01*
X6427563Y-18357924D02*
X6418039Y-18348400D01*
X6418039Y-18348400D02*
X6398991Y-18319829D01*
X6398991Y-18319829D02*
X6389468Y-18300781D01*
X6389468Y-18300781D02*
X6379944Y-18272210D01*
X6379944Y-18272210D02*
X6370420Y-18224591D01*
X6370420Y-18224591D02*
X6370420Y-18186496D01*
X6370420Y-18186496D02*
X6379944Y-18138877D01*
X6379944Y-18138877D02*
X6389468Y-18110305D01*
X6389468Y-18110305D02*
X6398991Y-18091258D01*
X6398991Y-18091258D02*
X6418039Y-18062686D01*
X6418039Y-18062686D02*
X6427563Y-18053162D01*
X6484706Y-18081734D02*
X6608515Y-18081734D01*
X6608515Y-18081734D02*
X6541848Y-18157924D01*
X6541848Y-18157924D02*
X6570420Y-18157924D01*
X6570420Y-18157924D02*
X6589468Y-18167448D01*
X6589468Y-18167448D02*
X6598991Y-18176972D01*
X6598991Y-18176972D02*
X6608515Y-18196020D01*
X6608515Y-18196020D02*
X6608515Y-18243639D01*
X6608515Y-18243639D02*
X6598991Y-18262686D01*
X6598991Y-18262686D02*
X6589468Y-18272210D01*
X6589468Y-18272210D02*
X6570420Y-18281734D01*
X6570420Y-18281734D02*
X6513277Y-18281734D01*
X6513277Y-18281734D02*
X6494229Y-18272210D01*
X6494229Y-18272210D02*
X6484706Y-18262686D01*
X6675182Y-18081734D02*
X6808515Y-18081734D01*
X6808515Y-18081734D02*
X6722801Y-18281734D01*
X7037087Y-18281734D02*
X7037087Y-18081734D01*
X7122801Y-18281734D02*
X7122801Y-18176972D01*
X7122801Y-18176972D02*
X7113277Y-18157924D01*
X7113277Y-18157924D02*
X7094230Y-18148400D01*
X7094230Y-18148400D02*
X7065658Y-18148400D01*
X7065658Y-18148400D02*
X7046610Y-18157924D01*
X7046610Y-18157924D02*
X7037087Y-18167448D01*
X7246610Y-18281734D02*
X7227563Y-18272210D01*
X7227563Y-18272210D02*
X7218039Y-18262686D01*
X7218039Y-18262686D02*
X7208515Y-18243639D01*
X7208515Y-18243639D02*
X7208515Y-18186496D01*
X7208515Y-18186496D02*
X7218039Y-18167448D01*
X7218039Y-18167448D02*
X7227563Y-18157924D01*
X7227563Y-18157924D02*
X7246610Y-18148400D01*
X7246610Y-18148400D02*
X7275182Y-18148400D01*
X7275182Y-18148400D02*
X7294230Y-18157924D01*
X7294230Y-18157924D02*
X7303753Y-18167448D01*
X7303753Y-18167448D02*
X7313277Y-18186496D01*
X7313277Y-18186496D02*
X7313277Y-18243639D01*
X7313277Y-18243639D02*
X7303753Y-18262686D01*
X7303753Y-18262686D02*
X7294230Y-18272210D01*
X7294230Y-18272210D02*
X7275182Y-18281734D01*
X7275182Y-18281734D02*
X7246610Y-18281734D01*
X7427563Y-18281734D02*
X7408515Y-18272210D01*
X7408515Y-18272210D02*
X7398991Y-18253162D01*
X7398991Y-18253162D02*
X7398991Y-18081734D01*
X7579944Y-18272210D02*
X7560896Y-18281734D01*
X7560896Y-18281734D02*
X7522801Y-18281734D01*
X7522801Y-18281734D02*
X7503753Y-18272210D01*
X7503753Y-18272210D02*
X7494230Y-18253162D01*
X7494230Y-18253162D02*
X7494230Y-18176972D01*
X7494230Y-18176972D02*
X7503753Y-18157924D01*
X7503753Y-18157924D02*
X7522801Y-18148400D01*
X7522801Y-18148400D02*
X7560896Y-18148400D01*
X7560896Y-18148400D02*
X7579944Y-18157924D01*
X7579944Y-18157924D02*
X7589468Y-18176972D01*
X7589468Y-18176972D02*
X7589468Y-18196020D01*
X7589468Y-18196020D02*
X7494230Y-18215067D01*
X7665658Y-18272210D02*
X7684706Y-18281734D01*
X7684706Y-18281734D02*
X7722801Y-18281734D01*
X7722801Y-18281734D02*
X7741849Y-18272210D01*
X7741849Y-18272210D02*
X7751372Y-18253162D01*
X7751372Y-18253162D02*
X7751372Y-18243639D01*
X7751372Y-18243639D02*
X7741849Y-18224591D01*
X7741849Y-18224591D02*
X7722801Y-18215067D01*
X7722801Y-18215067D02*
X7694230Y-18215067D01*
X7694230Y-18215067D02*
X7675182Y-18205543D01*
X7675182Y-18205543D02*
X7665658Y-18186496D01*
X7665658Y-18186496D02*
X7665658Y-18176972D01*
X7665658Y-18176972D02*
X7675182Y-18157924D01*
X7675182Y-18157924D02*
X7694230Y-18148400D01*
X7694230Y-18148400D02*
X7722801Y-18148400D01*
X7722801Y-18148400D02*
X7741849Y-18157924D01*
X7818039Y-18357924D02*
X7827563Y-18348400D01*
X7827563Y-18348400D02*
X7846611Y-18319829D01*
X7846611Y-18319829D02*
X7856134Y-18300781D01*
X7856134Y-18300781D02*
X7865658Y-18272210D01*
X7865658Y-18272210D02*
X7875182Y-18224591D01*
X7875182Y-18224591D02*
X7875182Y-18186496D01*
X7875182Y-18186496D02*
X7865658Y-18138877D01*
X7865658Y-18138877D02*
X7856134Y-18110305D01*
X7856134Y-18110305D02*
X7846611Y-18091258D01*
X7846611Y-18091258D02*
X7827563Y-18062686D01*
X7827563Y-18062686D02*
X7818039Y-18053162D01*
X8179944Y-18357924D02*
X8170420Y-18348400D01*
X8170420Y-18348400D02*
X8151372Y-18319829D01*
X8151372Y-18319829D02*
X8141849Y-18300781D01*
X8141849Y-18300781D02*
X8132325Y-18272210D01*
X8132325Y-18272210D02*
X8122801Y-18224591D01*
X8122801Y-18224591D02*
X8122801Y-18186496D01*
X8122801Y-18186496D02*
X8132325Y-18138877D01*
X8132325Y-18138877D02*
X8141849Y-18110305D01*
X8141849Y-18110305D02*
X8151372Y-18091258D01*
X8151372Y-18091258D02*
X8170420Y-18062686D01*
X8170420Y-18062686D02*
X8179944Y-18053162D01*
X8256134Y-18148400D02*
X8256134Y-18281734D01*
X8256134Y-18167448D02*
X8265658Y-18157924D01*
X8265658Y-18157924D02*
X8284706Y-18148400D01*
X8284706Y-18148400D02*
X8313277Y-18148400D01*
X8313277Y-18148400D02*
X8332325Y-18157924D01*
X8332325Y-18157924D02*
X8341849Y-18176972D01*
X8341849Y-18176972D02*
X8341849Y-18281734D01*
X8465658Y-18281734D02*
X8446611Y-18272210D01*
X8446611Y-18272210D02*
X8437087Y-18262686D01*
X8437087Y-18262686D02*
X8427563Y-18243639D01*
X8427563Y-18243639D02*
X8427563Y-18186496D01*
X8427563Y-18186496D02*
X8437087Y-18167448D01*
X8437087Y-18167448D02*
X8446611Y-18157924D01*
X8446611Y-18157924D02*
X8465658Y-18148400D01*
X8465658Y-18148400D02*
X8494230Y-18148400D01*
X8494230Y-18148400D02*
X8513277Y-18157924D01*
X8513277Y-18157924D02*
X8522801Y-18167448D01*
X8522801Y-18167448D02*
X8532325Y-18186496D01*
X8532325Y-18186496D02*
X8532325Y-18243639D01*
X8532325Y-18243639D02*
X8522801Y-18262686D01*
X8522801Y-18262686D02*
X8513277Y-18272210D01*
X8513277Y-18272210D02*
X8494230Y-18281734D01*
X8494230Y-18281734D02*
X8465658Y-18281734D01*
X8589468Y-18148400D02*
X8665658Y-18148400D01*
X8618039Y-18081734D02*
X8618039Y-18253162D01*
X8618039Y-18253162D02*
X8627563Y-18272210D01*
X8627563Y-18272210D02*
X8646611Y-18281734D01*
X8646611Y-18281734D02*
X8665658Y-18281734D01*
X8884706Y-18148400D02*
X8884706Y-18348400D01*
X8884706Y-18157924D02*
X8903754Y-18148400D01*
X8903754Y-18148400D02*
X8941849Y-18148400D01*
X8941849Y-18148400D02*
X8960896Y-18157924D01*
X8960896Y-18157924D02*
X8970420Y-18167448D01*
X8970420Y-18167448D02*
X8979944Y-18186496D01*
X8979944Y-18186496D02*
X8979944Y-18243639D01*
X8979944Y-18243639D02*
X8970420Y-18262686D01*
X8970420Y-18262686D02*
X8960896Y-18272210D01*
X8960896Y-18272210D02*
X8941849Y-18281734D01*
X8941849Y-18281734D02*
X8903754Y-18281734D01*
X8903754Y-18281734D02*
X8884706Y-18272210D01*
X9094230Y-18281734D02*
X9075182Y-18272210D01*
X9075182Y-18272210D02*
X9065658Y-18253162D01*
X9065658Y-18253162D02*
X9065658Y-18081734D01*
X9256135Y-18281734D02*
X9256135Y-18176972D01*
X9256135Y-18176972D02*
X9246611Y-18157924D01*
X9246611Y-18157924D02*
X9227563Y-18148400D01*
X9227563Y-18148400D02*
X9189468Y-18148400D01*
X9189468Y-18148400D02*
X9170420Y-18157924D01*
X9256135Y-18272210D02*
X9237087Y-18281734D01*
X9237087Y-18281734D02*
X9189468Y-18281734D01*
X9189468Y-18281734D02*
X9170420Y-18272210D01*
X9170420Y-18272210D02*
X9160896Y-18253162D01*
X9160896Y-18253162D02*
X9160896Y-18234115D01*
X9160896Y-18234115D02*
X9170420Y-18215067D01*
X9170420Y-18215067D02*
X9189468Y-18205543D01*
X9189468Y-18205543D02*
X9237087Y-18205543D01*
X9237087Y-18205543D02*
X9256135Y-18196020D01*
X9322801Y-18148400D02*
X9398992Y-18148400D01*
X9351373Y-18081734D02*
X9351373Y-18253162D01*
X9351373Y-18253162D02*
X9360896Y-18272210D01*
X9360896Y-18272210D02*
X9379944Y-18281734D01*
X9379944Y-18281734D02*
X9398992Y-18281734D01*
X9541849Y-18272210D02*
X9522801Y-18281734D01*
X9522801Y-18281734D02*
X9484706Y-18281734D01*
X9484706Y-18281734D02*
X9465658Y-18272210D01*
X9465658Y-18272210D02*
X9456135Y-18253162D01*
X9456135Y-18253162D02*
X9456135Y-18176972D01*
X9456135Y-18176972D02*
X9465658Y-18157924D01*
X9465658Y-18157924D02*
X9484706Y-18148400D01*
X9484706Y-18148400D02*
X9522801Y-18148400D01*
X9522801Y-18148400D02*
X9541849Y-18157924D01*
X9541849Y-18157924D02*
X9551373Y-18176972D01*
X9551373Y-18176972D02*
X9551373Y-18196020D01*
X9551373Y-18196020D02*
X9456135Y-18215067D01*
X9722801Y-18281734D02*
X9722801Y-18081734D01*
X9722801Y-18272210D02*
X9703754Y-18281734D01*
X9703754Y-18281734D02*
X9665658Y-18281734D01*
X9665658Y-18281734D02*
X9646611Y-18272210D01*
X9646611Y-18272210D02*
X9637087Y-18262686D01*
X9637087Y-18262686D02*
X9627563Y-18243639D01*
X9627563Y-18243639D02*
X9627563Y-18186496D01*
X9627563Y-18186496D02*
X9637087Y-18167448D01*
X9637087Y-18167448D02*
X9646611Y-18157924D01*
X9646611Y-18157924D02*
X9665658Y-18148400D01*
X9665658Y-18148400D02*
X9703754Y-18148400D01*
X9703754Y-18148400D02*
X9722801Y-18157924D01*
X9798992Y-18357924D02*
X9808516Y-18348400D01*
X9808516Y-18348400D02*
X9827563Y-18319829D01*
X9827563Y-18319829D02*
X9837087Y-18300781D01*
X9837087Y-18300781D02*
X9846611Y-18272210D01*
X9846611Y-18272210D02*
X9856135Y-18224591D01*
X9856135Y-18224591D02*
X9856135Y-18186496D01*
X9856135Y-18186496D02*
X9846611Y-18138877D01*
X9846611Y-18138877D02*
X9837087Y-18110305D01*
X9837087Y-18110305D02*
X9827563Y-18091258D01*
X9827563Y-18091258D02*
X9808516Y-18062686D01*
X9808516Y-18062686D02*
X9798992Y-18053162D01*
M02*
