M48
; DRILL file {KiCad 7.0.7} date Tue Nov 21 20:30:09 2023
; FORMAT={-:-/ absolute / metric / decimal}
; #@! TF.CreationDate,2023-11-21T20:30:09+01:00
; #@! TF.GenerationSoftware,Kicad,Pcbnew,7.0.7
; #@! TF.FileFunction,Plated,1,2,PTH
FMAT,2
METRIC
; #@! TA.AperFunction,Plated,PTH,ViaDrill
T1C0.400
; #@! TA.AperFunction,Plated,PTH,ComponentDrill
T2C0.400
; #@! TA.AperFunction,Plated,PTH,ComponentDrill
T3C0.800
; #@! TA.AperFunction,Plated,PTH,ComponentDrill
T4C0.900
; #@! TA.AperFunction,Plated,PTH,ComponentDrill
T5C1.000
; #@! TA.AperFunction,Plated,PTH,ComponentDrill
T6C2.200
; #@! TA.AperFunction,Plated,PTH,ComponentDrill
T7C3.000
%
G90
G05
T1
X34.131Y-50.006
X38.894Y-50.006
X49.212Y-80.962
X49.212Y-119.062
X49.212Y-157.162
X122.089Y-52.812
X133.81Y-49.968
X142.081Y-96.837
X142.081Y-134.938
X143.669Y-50.006
T2
X58.675Y-71.438
X58.675Y-109.537
X58.675Y-147.637
X59.158Y-70.271
X59.158Y-72.604
X59.158Y-108.371
X59.158Y-110.704
X59.158Y-146.471
X59.158Y-148.804
X60.325Y-69.787
X60.325Y-73.087
X60.325Y-107.887
X60.325Y-111.188
X60.325Y-145.987
X60.325Y-149.287
X61.492Y-70.271
X61.492Y-72.604
X61.492Y-108.371
X61.492Y-110.704
X61.492Y-146.471
X61.492Y-148.804
X61.975Y-71.438
X61.975Y-109.537
X61.975Y-147.637
X115.825Y-70.644
X115.825Y-109.537
X115.825Y-147.637
X116.308Y-69.477
X116.308Y-71.81
X116.308Y-108.371
X116.308Y-110.704
X116.308Y-146.471
X116.308Y-148.804
X117.475Y-68.994
X117.475Y-72.294
X117.475Y-107.887
X117.475Y-111.188
X117.475Y-145.987
X117.475Y-149.287
X118.642Y-69.477
X118.642Y-71.81
X118.642Y-108.371
X118.642Y-110.704
X118.642Y-146.471
X118.642Y-148.804
X119.125Y-70.644
X119.125Y-109.537
X119.125Y-147.637
T3
X33.337Y-64.929
X33.337Y-70.009
X33.337Y-72.866
X33.337Y-77.946
X33.337Y-91.916
X33.337Y-96.996
X33.337Y-110.966
X33.337Y-116.046
X33.337Y-130.016
X33.337Y-135.096
X33.337Y-149.066
X33.337Y-154.146
X52.387Y-64.929
X52.387Y-70.009
X52.387Y-72.866
X52.387Y-77.946
X52.387Y-91.916
X52.387Y-96.996
X52.387Y-110.966
X52.387Y-116.046
X52.387Y-130.016
X52.387Y-135.096
X52.387Y-149.066
X52.387Y-154.146
X71.438Y-72.866
X71.438Y-77.946
X71.438Y-91.916
X71.438Y-96.996
X71.438Y-110.966
X71.438Y-116.046
X71.438Y-130.016
X71.438Y-135.096
X71.438Y-149.066
X71.438Y-154.146
X77.787Y-64.929
X77.787Y-70.009
X90.487Y-72.866
X90.487Y-77.946
X90.487Y-91.916
X90.487Y-96.996
X90.487Y-110.966
X90.487Y-116.046
X90.487Y-130.016
X90.487Y-135.096
X90.487Y-149.066
X90.487Y-154.146
X109.537Y-64.929
X109.537Y-70.009
X109.537Y-72.866
X109.537Y-77.946
X109.537Y-91.916
X109.537Y-96.996
X109.537Y-110.966
X109.537Y-116.046
X109.537Y-130.016
X109.537Y-135.096
X109.537Y-149.066
X109.537Y-154.146
X128.588Y-64.929
X128.588Y-70.009
X128.588Y-72.866
X128.588Y-77.946
X128.588Y-91.916
X128.588Y-96.996
X128.588Y-110.966
X128.588Y-116.046
X128.588Y-130.016
X128.588Y-135.096
X128.588Y-149.066
X128.588Y-154.146
T5
X81.28Y-49.371
X81.28Y-51.911
X81.28Y-54.451
X81.28Y-56.991
X81.28Y-62.071
X81.28Y-64.611
X81.28Y-67.151
X81.28Y-69.691
X83.82Y-69.691
X86.36Y-69.691
X88.9Y-69.691
X91.44Y-69.691
X93.98Y-69.691
X96.52Y-49.371
X96.52Y-51.911
X96.52Y-54.451
X96.52Y-56.991
X96.52Y-59.531
X96.52Y-64.611
X96.52Y-67.151
X96.52Y-69.691
T6
X60.325Y-71.438
X60.325Y-109.537
X60.325Y-147.637
X117.475Y-70.644
X117.475Y-109.537
X117.475Y-147.637
T7
X37.465Y-59.69
X37.465Y-83.502
X37.465Y-102.552
X37.465Y-121.602
X37.465Y-140.653
X37.465Y-159.702
X43.815Y-62.23
X43.815Y-86.042
X43.815Y-105.093
X43.815Y-124.142
X43.815Y-143.192
X43.815Y-162.243
X56.515Y-59.69
X56.515Y-83.502
X56.515Y-102.552
X56.515Y-121.602
X56.515Y-140.653
X56.515Y-159.702
X62.865Y-62.23
X62.865Y-86.042
X62.865Y-105.093
X62.865Y-124.142
X62.865Y-143.192
X62.865Y-162.243
X66.04Y-59.69
X72.39Y-62.23
X75.565Y-83.502
X75.565Y-102.552
X75.565Y-121.602
X75.565Y-140.653
X75.565Y-159.702
X81.915Y-86.042
X81.915Y-105.093
X81.915Y-124.142
X81.915Y-143.192
X81.915Y-162.243
X85.09Y-59.69
X91.44Y-62.23
X94.615Y-83.502
X94.615Y-102.552
X94.615Y-121.602
X94.615Y-140.653
X94.615Y-159.702
X100.965Y-86.042
X100.965Y-105.093
X100.965Y-124.142
X100.965Y-143.192
X100.965Y-162.243
X104.14Y-59.69
X110.49Y-62.23
X113.665Y-59.69
X113.665Y-83.502
X113.665Y-102.552
X113.665Y-121.602
X113.665Y-140.653
X113.665Y-159.702
X120.015Y-62.23
X120.015Y-86.042
X120.015Y-105.093
X120.015Y-124.142
X120.015Y-143.192
X120.015Y-162.243
X132.715Y-59.69
X132.715Y-83.502
X132.715Y-102.552
X132.715Y-121.602
X132.715Y-140.653
X132.715Y-159.702
X139.065Y-62.23
X139.065Y-86.042
X139.065Y-105.093
X139.065Y-124.142
X139.065Y-143.192
X139.065Y-162.243
T4
X124.7Y-57.931G85X124.7Y-58.331
G05
X129.3Y-49.831G85X129.3Y-50.231
G05
X129.3Y-52.831G85X129.3Y-53.231
G05
X129.3Y-56.831G85X129.3Y-57.231
G05
T0
M30
