%TF.GenerationSoftware,KiCad,Pcbnew,(6.0.9)*%
%TF.CreationDate,2022-12-06T20:12:37+01:00*%
%TF.ProjectId,tekskey-rounded-num,74656b73-6b65-4792-9d72-6f756e646564,rev?*%
%TF.SameCoordinates,Original*%
%TF.FileFunction,Drillmap*%
%TF.FilePolarity,Positive*%
%FSLAX45Y45*%
G04 Gerber Fmt 4.5, Leading zero omitted, Abs format (unit mm)*
G04 Created by KiCad (PCBNEW (6.0.9)) date 2022-12-06 20:12:37*
%MOMM*%
%LPD*%
G01*
G04 APERTURE LIST*
%ADD10C,0.100000*%
%ADD11C,0.200000*%
%ADD12C,0.175000*%
%ADD13C,0.398780*%
G04 APERTURE END LIST*
D10*
X4813500Y-3869125D02*
X19101000Y-3869125D01*
X19101000Y-3869125D02*
X19101000Y-16251625D01*
X19101000Y-16251625D02*
X4813500Y-16251625D01*
X4813500Y-16251625D02*
X4813500Y-3869125D01*
D11*
D12*
X5408625Y-4972250D02*
X5583625Y-5147250D01*
X5583625Y-4972250D02*
X5408625Y-5147250D01*
X5408625Y-7353500D02*
X5583625Y-7528500D01*
X5583625Y-7353500D02*
X5408625Y-7528500D01*
X5408625Y-9258500D02*
X5583625Y-9433500D01*
X5583625Y-9258500D02*
X5408625Y-9433500D01*
X5408625Y-11163500D02*
X5583625Y-11338500D01*
X5583625Y-11163500D02*
X5408625Y-11338500D01*
X5408625Y-13068500D02*
X5583625Y-13243500D01*
X5583625Y-13068500D02*
X5408625Y-13243500D01*
X5408625Y-14973500D02*
X5583625Y-15148500D01*
X5583625Y-14973500D02*
X5408625Y-15148500D01*
X6424625Y-4972250D02*
X6599625Y-5147250D01*
X6599625Y-4972250D02*
X6424625Y-5147250D01*
X6424625Y-7353500D02*
X6599625Y-7528500D01*
X6599625Y-7353500D02*
X6424625Y-7528500D01*
X6424625Y-9258500D02*
X6599625Y-9433500D01*
X6599625Y-9258500D02*
X6424625Y-9433500D01*
X6424625Y-11163500D02*
X6599625Y-11338500D01*
X6599625Y-11163500D02*
X6424625Y-11338500D01*
X6424625Y-13068500D02*
X6599625Y-13243500D01*
X6599625Y-13068500D02*
X6424625Y-13243500D01*
X6424625Y-14973500D02*
X6599625Y-15148500D01*
X6599625Y-14973500D02*
X6424625Y-15148500D01*
X7313625Y-4972250D02*
X7488625Y-5147250D01*
X7488625Y-4972250D02*
X7313625Y-5147250D01*
X7313625Y-7353500D02*
X7488625Y-7528500D01*
X7488625Y-7353500D02*
X7313625Y-7528500D01*
X7313625Y-9258500D02*
X7488625Y-9433500D01*
X7488625Y-9258500D02*
X7313625Y-9433500D01*
X7313625Y-11163500D02*
X7488625Y-11338500D01*
X7488625Y-11163500D02*
X7313625Y-11338500D01*
X7313625Y-13068500D02*
X7488625Y-13243500D01*
X7488625Y-13068500D02*
X7313625Y-13243500D01*
X7313625Y-14973500D02*
X7488625Y-15148500D01*
X7488625Y-14973500D02*
X7313625Y-15148500D01*
X8329625Y-4972250D02*
X8504625Y-5147250D01*
X8504625Y-4972250D02*
X8329625Y-5147250D01*
X8329625Y-7353500D02*
X8504625Y-7528500D01*
X8504625Y-7353500D02*
X8329625Y-7528500D01*
X8329625Y-9258500D02*
X8504625Y-9433500D01*
X8504625Y-9258500D02*
X8329625Y-9433500D01*
X8329625Y-11163500D02*
X8504625Y-11338500D01*
X8504625Y-11163500D02*
X8329625Y-11338500D01*
X8329625Y-13068500D02*
X8504625Y-13243500D01*
X8504625Y-13068500D02*
X8329625Y-13243500D01*
X8329625Y-14973500D02*
X8504625Y-15148500D01*
X8504625Y-14973500D02*
X8329625Y-15148500D01*
X9218625Y-4972250D02*
X9393625Y-5147250D01*
X9393625Y-4972250D02*
X9218625Y-5147250D01*
X9218625Y-7353500D02*
X9393625Y-7528500D01*
X9393625Y-7353500D02*
X9218625Y-7528500D01*
X9218625Y-9258500D02*
X9393625Y-9433500D01*
X9393625Y-9258500D02*
X9218625Y-9433500D01*
X9218625Y-11163500D02*
X9393625Y-11338500D01*
X9393625Y-11163500D02*
X9218625Y-11338500D01*
X9218625Y-13068500D02*
X9393625Y-13243500D01*
X9393625Y-13068500D02*
X9218625Y-13243500D01*
X9218625Y-14973500D02*
X9393625Y-15148500D01*
X9393625Y-14973500D02*
X9218625Y-15148500D01*
X10234625Y-4972250D02*
X10409625Y-5147250D01*
X10409625Y-4972250D02*
X10234625Y-5147250D01*
X10234625Y-7353500D02*
X10409625Y-7528500D01*
X10409625Y-7353500D02*
X10234625Y-7528500D01*
X10234625Y-9258500D02*
X10409625Y-9433500D01*
X10409625Y-9258500D02*
X10234625Y-9433500D01*
X10234625Y-11163500D02*
X10409625Y-11338500D01*
X10409625Y-11163500D02*
X10234625Y-11338500D01*
X10234625Y-13068500D02*
X10409625Y-13243500D01*
X10409625Y-13068500D02*
X10234625Y-13243500D01*
X10234625Y-14973500D02*
X10409625Y-15148500D01*
X10409625Y-14973500D02*
X10234625Y-15148500D01*
X11599875Y-4972250D02*
X11774875Y-5147250D01*
X11774875Y-4972250D02*
X11599875Y-5147250D01*
X11599875Y-7353500D02*
X11774875Y-7528500D01*
X11774875Y-7353500D02*
X11599875Y-7528500D01*
X11599875Y-9258500D02*
X11774875Y-9433500D01*
X11774875Y-9258500D02*
X11599875Y-9433500D01*
X11599875Y-11163500D02*
X11774875Y-11338500D01*
X11774875Y-11163500D02*
X11599875Y-11338500D01*
X11599875Y-13068500D02*
X11774875Y-13243500D01*
X11774875Y-13068500D02*
X11599875Y-13243500D01*
X12552375Y-14973500D02*
X12727375Y-15148500D01*
X12727375Y-14973500D02*
X12552375Y-15148500D01*
X12615875Y-4972250D02*
X12790875Y-5147250D01*
X12790875Y-4972250D02*
X12615875Y-5147250D01*
X12615875Y-7353500D02*
X12790875Y-7528500D01*
X12790875Y-7353500D02*
X12615875Y-7528500D01*
X12615875Y-9258500D02*
X12790875Y-9433500D01*
X12790875Y-9258500D02*
X12615875Y-9433500D01*
X12615875Y-11163500D02*
X12790875Y-11338500D01*
X12790875Y-11163500D02*
X12615875Y-11338500D01*
X12615875Y-13068500D02*
X12790875Y-13243500D01*
X12790875Y-13068500D02*
X12615875Y-13243500D01*
X13504875Y-4972250D02*
X13679875Y-5147250D01*
X13679875Y-4972250D02*
X13504875Y-5147250D01*
X13504875Y-7353500D02*
X13679875Y-7528500D01*
X13679875Y-7353500D02*
X13504875Y-7528500D01*
X13504875Y-9258500D02*
X13679875Y-9433500D01*
X13679875Y-9258500D02*
X13504875Y-9433500D01*
X13504875Y-11163500D02*
X13679875Y-11338500D01*
X13679875Y-11163500D02*
X13504875Y-11338500D01*
X13504875Y-13068500D02*
X13679875Y-13243500D01*
X13679875Y-13068500D02*
X13504875Y-13243500D01*
X13568375Y-14973500D02*
X13743375Y-15148500D01*
X13743375Y-14973500D02*
X13568375Y-15148500D01*
X14520875Y-4972250D02*
X14695875Y-5147250D01*
X14695875Y-4972250D02*
X14520875Y-5147250D01*
X14520875Y-7353500D02*
X14695875Y-7528500D01*
X14695875Y-7353500D02*
X14520875Y-7528500D01*
X14520875Y-9258500D02*
X14695875Y-9433500D01*
X14695875Y-9258500D02*
X14520875Y-9433500D01*
X14520875Y-11163500D02*
X14695875Y-11338500D01*
X14695875Y-11163500D02*
X14520875Y-11338500D01*
X14520875Y-13068500D02*
X14695875Y-13243500D01*
X14695875Y-13068500D02*
X14520875Y-13243500D01*
X15409875Y-4972250D02*
X15584875Y-5147250D01*
X15584875Y-4972250D02*
X15409875Y-5147250D01*
X15409875Y-7353500D02*
X15584875Y-7528500D01*
X15584875Y-7353500D02*
X15409875Y-7528500D01*
X15409875Y-9258500D02*
X15584875Y-9433500D01*
X15584875Y-9258500D02*
X15409875Y-9433500D01*
X15409875Y-11163500D02*
X15584875Y-11338500D01*
X15584875Y-11163500D02*
X15409875Y-11338500D01*
X15409875Y-13068500D02*
X15584875Y-13243500D01*
X15584875Y-13068500D02*
X15409875Y-13243500D01*
X15409875Y-14973500D02*
X15584875Y-15148500D01*
X15584875Y-14973500D02*
X15409875Y-15148500D01*
X16425875Y-4972250D02*
X16600875Y-5147250D01*
X16600875Y-4972250D02*
X16425875Y-5147250D01*
X16425875Y-7353500D02*
X16600875Y-7528500D01*
X16600875Y-7353500D02*
X16425875Y-7528500D01*
X16425875Y-9258500D02*
X16600875Y-9433500D01*
X16600875Y-9258500D02*
X16425875Y-9433500D01*
X16425875Y-11163500D02*
X16600875Y-11338500D01*
X16600875Y-11163500D02*
X16425875Y-11338500D01*
X16425875Y-13068500D02*
X16600875Y-13243500D01*
X16600875Y-13068500D02*
X16425875Y-13243500D01*
X16425875Y-14973500D02*
X16600875Y-15148500D01*
X16600875Y-14973500D02*
X16425875Y-15148500D01*
X17314875Y-4972250D02*
X17489875Y-5147250D01*
X17489875Y-4972250D02*
X17314875Y-5147250D01*
X17314875Y-7353500D02*
X17489875Y-7528500D01*
X17489875Y-7353500D02*
X17314875Y-7528500D01*
X17314875Y-10211000D02*
X17489875Y-10386000D01*
X17489875Y-10211000D02*
X17314875Y-10386000D01*
X17314875Y-14021000D02*
X17489875Y-14196000D01*
X17489875Y-14021000D02*
X17314875Y-14196000D01*
X18330875Y-4972250D02*
X18505875Y-5147250D01*
X18505875Y-4972250D02*
X18330875Y-5147250D01*
X18330875Y-7353500D02*
X18505875Y-7528500D01*
X18505875Y-7353500D02*
X18330875Y-7528500D01*
X18330875Y-10211000D02*
X18505875Y-10386000D01*
X18505875Y-10211000D02*
X18330875Y-10386000D01*
X18330875Y-14021000D02*
X18505875Y-14196000D01*
X18505875Y-14021000D02*
X18330875Y-14196000D01*
D13*
X6203515Y-5059750D02*
G75*
G03*
X6203515Y-5059750I-199390J0D01*
G01*
X6203515Y-7441000D02*
G75*
G03*
X6203515Y-7441000I-199390J0D01*
G01*
X6203515Y-9346000D02*
G75*
G03*
X6203515Y-9346000I-199390J0D01*
G01*
X6203515Y-11251000D02*
G75*
G03*
X6203515Y-11251000I-199390J0D01*
G01*
X6203515Y-13156000D02*
G75*
G03*
X6203515Y-13156000I-199390J0D01*
G01*
X6203515Y-15061000D02*
G75*
G03*
X6203515Y-15061000I-199390J0D01*
G01*
X8108515Y-5059750D02*
G75*
G03*
X8108515Y-5059750I-199390J0D01*
G01*
X8108515Y-7441000D02*
G75*
G03*
X8108515Y-7441000I-199390J0D01*
G01*
X8108515Y-9346000D02*
G75*
G03*
X8108515Y-9346000I-199390J0D01*
G01*
X8108515Y-11251000D02*
G75*
G03*
X8108515Y-11251000I-199390J0D01*
G01*
X8108515Y-13156000D02*
G75*
G03*
X8108515Y-13156000I-199390J0D01*
G01*
X8108515Y-15061000D02*
G75*
G03*
X8108515Y-15061000I-199390J0D01*
G01*
X10013515Y-5059750D02*
G75*
G03*
X10013515Y-5059750I-199390J0D01*
G01*
X10013515Y-7441000D02*
G75*
G03*
X10013515Y-7441000I-199390J0D01*
G01*
X10013515Y-9346000D02*
G75*
G03*
X10013515Y-9346000I-199390J0D01*
G01*
X10013515Y-11251000D02*
G75*
G03*
X10013515Y-11251000I-199390J0D01*
G01*
X10013515Y-13156000D02*
G75*
G03*
X10013515Y-13156000I-199390J0D01*
G01*
X10013515Y-15061000D02*
G75*
G03*
X10013515Y-15061000I-199390J0D01*
G01*
X12394765Y-5059750D02*
G75*
G03*
X12394765Y-5059750I-199390J0D01*
G01*
X12394765Y-7441000D02*
G75*
G03*
X12394765Y-7441000I-199390J0D01*
G01*
X12394765Y-9346000D02*
G75*
G03*
X12394765Y-9346000I-199390J0D01*
G01*
X12394765Y-11251000D02*
G75*
G03*
X12394765Y-11251000I-199390J0D01*
G01*
X12394765Y-13156000D02*
G75*
G03*
X12394765Y-13156000I-199390J0D01*
G01*
X13347265Y-15061000D02*
G75*
G03*
X13347265Y-15061000I-199390J0D01*
G01*
X14299765Y-5059750D02*
G75*
G03*
X14299765Y-5059750I-199390J0D01*
G01*
X14299765Y-7441000D02*
G75*
G03*
X14299765Y-7441000I-199390J0D01*
G01*
X14299765Y-9346000D02*
G75*
G03*
X14299765Y-9346000I-199390J0D01*
G01*
X14299765Y-11251000D02*
G75*
G03*
X14299765Y-11251000I-199390J0D01*
G01*
X14299765Y-13156000D02*
G75*
G03*
X14299765Y-13156000I-199390J0D01*
G01*
X16204765Y-5059750D02*
G75*
G03*
X16204765Y-5059750I-199390J0D01*
G01*
X16204765Y-7441000D02*
G75*
G03*
X16204765Y-7441000I-199390J0D01*
G01*
X16204765Y-9346000D02*
G75*
G03*
X16204765Y-9346000I-199390J0D01*
G01*
X16204765Y-11251000D02*
G75*
G03*
X16204765Y-11251000I-199390J0D01*
G01*
X16204765Y-13156000D02*
G75*
G03*
X16204765Y-13156000I-199390J0D01*
G01*
X16204765Y-15061000D02*
G75*
G03*
X16204765Y-15061000I-199390J0D01*
G01*
X18109765Y-5059750D02*
G75*
G03*
X18109765Y-5059750I-199390J0D01*
G01*
X18109765Y-7441000D02*
G75*
G03*
X18109765Y-7441000I-199390J0D01*
G01*
X18109765Y-10298500D02*
G75*
G03*
X18109765Y-10298500I-199390J0D01*
G01*
X18109765Y-14108500D02*
G75*
G03*
X18109765Y-14108500I-199390J0D01*
G01*
D11*
X5066119Y-16567101D02*
X5066119Y-16367101D01*
X5113738Y-16367101D01*
X5142310Y-16376625D01*
X5161357Y-16395673D01*
X5170881Y-16414720D01*
X5180405Y-16452815D01*
X5180405Y-16481387D01*
X5170881Y-16519482D01*
X5161357Y-16538530D01*
X5142310Y-16557577D01*
X5113738Y-16567101D01*
X5066119Y-16567101D01*
X5266119Y-16567101D02*
X5266119Y-16433768D01*
X5266119Y-16471863D02*
X5275643Y-16452815D01*
X5285167Y-16443292D01*
X5304214Y-16433768D01*
X5323262Y-16433768D01*
X5389929Y-16567101D02*
X5389929Y-16433768D01*
X5389929Y-16367101D02*
X5380405Y-16376625D01*
X5389929Y-16386149D01*
X5399452Y-16376625D01*
X5389929Y-16367101D01*
X5389929Y-16386149D01*
X5513738Y-16567101D02*
X5494690Y-16557577D01*
X5485167Y-16538530D01*
X5485167Y-16367101D01*
X5618500Y-16567101D02*
X5599452Y-16557577D01*
X5589929Y-16538530D01*
X5589929Y-16367101D01*
X5847071Y-16567101D02*
X5847071Y-16367101D01*
X5913738Y-16509958D01*
X5980405Y-16367101D01*
X5980405Y-16567101D01*
X6161357Y-16567101D02*
X6161357Y-16462339D01*
X6151833Y-16443292D01*
X6132786Y-16433768D01*
X6094690Y-16433768D01*
X6075643Y-16443292D01*
X6161357Y-16557577D02*
X6142309Y-16567101D01*
X6094690Y-16567101D01*
X6075643Y-16557577D01*
X6066119Y-16538530D01*
X6066119Y-16519482D01*
X6075643Y-16500434D01*
X6094690Y-16490911D01*
X6142309Y-16490911D01*
X6161357Y-16481387D01*
X6256595Y-16433768D02*
X6256595Y-16633768D01*
X6256595Y-16443292D02*
X6275643Y-16433768D01*
X6313738Y-16433768D01*
X6332786Y-16443292D01*
X6342309Y-16452815D01*
X6351833Y-16471863D01*
X6351833Y-16529006D01*
X6342309Y-16548053D01*
X6332786Y-16557577D01*
X6313738Y-16567101D01*
X6275643Y-16567101D01*
X6256595Y-16557577D01*
X6437548Y-16548053D02*
X6447071Y-16557577D01*
X6437548Y-16567101D01*
X6428024Y-16557577D01*
X6437548Y-16548053D01*
X6437548Y-16567101D01*
X6437548Y-16443292D02*
X6447071Y-16452815D01*
X6437548Y-16462339D01*
X6428024Y-16452815D01*
X6437548Y-16443292D01*
X6437548Y-16462339D01*
D12*
X4633500Y-16809125D02*
X4808500Y-16984125D01*
X4808500Y-16809125D02*
X4633500Y-16984125D01*
D11*
X5170881Y-16987101D02*
X5056595Y-16987101D01*
X5113738Y-16987101D02*
X5113738Y-16787101D01*
X5094690Y-16815673D01*
X5075643Y-16834720D01*
X5056595Y-16844244D01*
X5256595Y-16968054D02*
X5266119Y-16977577D01*
X5256595Y-16987101D01*
X5247071Y-16977577D01*
X5256595Y-16968054D01*
X5256595Y-16987101D01*
X5332786Y-16787101D02*
X5466119Y-16787101D01*
X5380405Y-16987101D01*
X5637548Y-16787101D02*
X5542310Y-16787101D01*
X5532786Y-16882339D01*
X5542310Y-16872815D01*
X5561357Y-16863292D01*
X5608976Y-16863292D01*
X5628024Y-16872815D01*
X5637548Y-16882339D01*
X5647071Y-16901387D01*
X5647071Y-16949006D01*
X5637548Y-16968054D01*
X5628024Y-16977577D01*
X5608976Y-16987101D01*
X5561357Y-16987101D01*
X5542310Y-16977577D01*
X5532786Y-16968054D01*
X5770881Y-16787101D02*
X5789928Y-16787101D01*
X5808976Y-16796625D01*
X5818500Y-16806149D01*
X5828024Y-16825196D01*
X5837548Y-16863292D01*
X5837548Y-16910911D01*
X5828024Y-16949006D01*
X5818500Y-16968054D01*
X5808976Y-16977577D01*
X5789928Y-16987101D01*
X5770881Y-16987101D01*
X5751833Y-16977577D01*
X5742309Y-16968054D01*
X5732786Y-16949006D01*
X5723262Y-16910911D01*
X5723262Y-16863292D01*
X5732786Y-16825196D01*
X5742309Y-16806149D01*
X5751833Y-16796625D01*
X5770881Y-16787101D01*
X5923262Y-16987101D02*
X5923262Y-16853768D01*
X5923262Y-16872815D02*
X5932786Y-16863292D01*
X5951833Y-16853768D01*
X5980405Y-16853768D01*
X5999452Y-16863292D01*
X6008976Y-16882339D01*
X6008976Y-16987101D01*
X6008976Y-16882339D02*
X6018500Y-16863292D01*
X6037548Y-16853768D01*
X6066119Y-16853768D01*
X6085167Y-16863292D01*
X6094690Y-16882339D01*
X6094690Y-16987101D01*
X6189928Y-16987101D02*
X6189928Y-16853768D01*
X6189928Y-16872815D02*
X6199452Y-16863292D01*
X6218500Y-16853768D01*
X6247071Y-16853768D01*
X6266119Y-16863292D01*
X6275643Y-16882339D01*
X6275643Y-16987101D01*
X6275643Y-16882339D02*
X6285167Y-16863292D01*
X6304214Y-16853768D01*
X6332786Y-16853768D01*
X6351833Y-16863292D01*
X6361357Y-16882339D01*
X6361357Y-16987101D01*
X6751833Y-16777577D02*
X6580405Y-17034720D01*
X7008976Y-16787101D02*
X7028024Y-16787101D01*
X7047071Y-16796625D01*
X7056595Y-16806149D01*
X7066119Y-16825196D01*
X7075643Y-16863292D01*
X7075643Y-16910911D01*
X7066119Y-16949006D01*
X7056595Y-16968054D01*
X7047071Y-16977577D01*
X7028024Y-16987101D01*
X7008976Y-16987101D01*
X6989928Y-16977577D01*
X6980405Y-16968054D01*
X6970881Y-16949006D01*
X6961357Y-16910911D01*
X6961357Y-16863292D01*
X6970881Y-16825196D01*
X6980405Y-16806149D01*
X6989928Y-16796625D01*
X7008976Y-16787101D01*
X7161357Y-16968054D02*
X7170881Y-16977577D01*
X7161357Y-16987101D01*
X7151833Y-16977577D01*
X7161357Y-16968054D01*
X7161357Y-16987101D01*
X7294690Y-16787101D02*
X7313738Y-16787101D01*
X7332786Y-16796625D01*
X7342309Y-16806149D01*
X7351833Y-16825196D01*
X7361357Y-16863292D01*
X7361357Y-16910911D01*
X7351833Y-16949006D01*
X7342309Y-16968054D01*
X7332786Y-16977577D01*
X7313738Y-16987101D01*
X7294690Y-16987101D01*
X7275643Y-16977577D01*
X7266119Y-16968054D01*
X7256595Y-16949006D01*
X7247071Y-16910911D01*
X7247071Y-16863292D01*
X7256595Y-16825196D01*
X7266119Y-16806149D01*
X7275643Y-16796625D01*
X7294690Y-16787101D01*
X7532786Y-16787101D02*
X7494690Y-16787101D01*
X7475643Y-16796625D01*
X7466119Y-16806149D01*
X7447071Y-16834720D01*
X7437548Y-16872815D01*
X7437548Y-16949006D01*
X7447071Y-16968054D01*
X7456595Y-16977577D01*
X7475643Y-16987101D01*
X7513738Y-16987101D01*
X7532786Y-16977577D01*
X7542309Y-16968054D01*
X7551833Y-16949006D01*
X7551833Y-16901387D01*
X7542309Y-16882339D01*
X7532786Y-16872815D01*
X7513738Y-16863292D01*
X7475643Y-16863292D01*
X7456595Y-16872815D01*
X7447071Y-16882339D01*
X7437548Y-16901387D01*
X7666119Y-16872815D02*
X7647071Y-16863292D01*
X7637548Y-16853768D01*
X7628024Y-16834720D01*
X7628024Y-16825196D01*
X7637548Y-16806149D01*
X7647071Y-16796625D01*
X7666119Y-16787101D01*
X7704214Y-16787101D01*
X7723262Y-16796625D01*
X7732786Y-16806149D01*
X7742309Y-16825196D01*
X7742309Y-16834720D01*
X7732786Y-16853768D01*
X7723262Y-16863292D01*
X7704214Y-16872815D01*
X7666119Y-16872815D01*
X7647071Y-16882339D01*
X7637548Y-16891863D01*
X7628024Y-16910911D01*
X7628024Y-16949006D01*
X7637548Y-16968054D01*
X7647071Y-16977577D01*
X7666119Y-16987101D01*
X7704214Y-16987101D01*
X7723262Y-16977577D01*
X7732786Y-16968054D01*
X7742309Y-16949006D01*
X7742309Y-16910911D01*
X7732786Y-16891863D01*
X7723262Y-16882339D01*
X7704214Y-16872815D01*
X7837548Y-16987101D02*
X7875643Y-16987101D01*
X7894690Y-16977577D01*
X7904214Y-16968054D01*
X7923262Y-16939482D01*
X7932786Y-16901387D01*
X7932786Y-16825196D01*
X7923262Y-16806149D01*
X7913738Y-16796625D01*
X7894690Y-16787101D01*
X7856595Y-16787101D01*
X7837548Y-16796625D01*
X7828024Y-16806149D01*
X7818500Y-16825196D01*
X7818500Y-16872815D01*
X7828024Y-16891863D01*
X7837548Y-16901387D01*
X7856595Y-16910911D01*
X7894690Y-16910911D01*
X7913738Y-16901387D01*
X7923262Y-16891863D01*
X7932786Y-16872815D01*
X8008976Y-16787101D02*
X8008976Y-16825196D01*
X8085167Y-16787101D02*
X8085167Y-16825196D01*
X8380405Y-17063292D02*
X8370881Y-17053768D01*
X8351833Y-17025196D01*
X8342309Y-17006149D01*
X8332786Y-16977577D01*
X8323262Y-16929958D01*
X8323262Y-16891863D01*
X8332786Y-16844244D01*
X8342309Y-16815673D01*
X8351833Y-16796625D01*
X8370881Y-16768053D01*
X8380405Y-16758530D01*
X8437548Y-16787101D02*
X8570881Y-16787101D01*
X8485167Y-16987101D01*
X8675643Y-16872815D02*
X8656595Y-16863292D01*
X8647071Y-16853768D01*
X8637548Y-16834720D01*
X8637548Y-16825196D01*
X8647071Y-16806149D01*
X8656595Y-16796625D01*
X8675643Y-16787101D01*
X8713738Y-16787101D01*
X8732786Y-16796625D01*
X8742310Y-16806149D01*
X8751833Y-16825196D01*
X8751833Y-16834720D01*
X8742310Y-16853768D01*
X8732786Y-16863292D01*
X8713738Y-16872815D01*
X8675643Y-16872815D01*
X8656595Y-16882339D01*
X8647071Y-16891863D01*
X8637548Y-16910911D01*
X8637548Y-16949006D01*
X8647071Y-16968054D01*
X8656595Y-16977577D01*
X8675643Y-16987101D01*
X8713738Y-16987101D01*
X8732786Y-16977577D01*
X8742310Y-16968054D01*
X8751833Y-16949006D01*
X8751833Y-16910911D01*
X8742310Y-16891863D01*
X8732786Y-16882339D01*
X8713738Y-16872815D01*
X8989929Y-16987101D02*
X8989929Y-16787101D01*
X9075643Y-16987101D02*
X9075643Y-16882339D01*
X9066119Y-16863292D01*
X9047071Y-16853768D01*
X9018500Y-16853768D01*
X8999452Y-16863292D01*
X8989929Y-16872815D01*
X9199452Y-16987101D02*
X9180405Y-16977577D01*
X9170881Y-16968054D01*
X9161357Y-16949006D01*
X9161357Y-16891863D01*
X9170881Y-16872815D01*
X9180405Y-16863292D01*
X9199452Y-16853768D01*
X9228024Y-16853768D01*
X9247071Y-16863292D01*
X9256595Y-16872815D01*
X9266119Y-16891863D01*
X9266119Y-16949006D01*
X9256595Y-16968054D01*
X9247071Y-16977577D01*
X9228024Y-16987101D01*
X9199452Y-16987101D01*
X9380405Y-16987101D02*
X9361357Y-16977577D01*
X9351833Y-16958530D01*
X9351833Y-16787101D01*
X9532786Y-16977577D02*
X9513738Y-16987101D01*
X9475643Y-16987101D01*
X9456595Y-16977577D01*
X9447071Y-16958530D01*
X9447071Y-16882339D01*
X9456595Y-16863292D01*
X9475643Y-16853768D01*
X9513738Y-16853768D01*
X9532786Y-16863292D01*
X9542310Y-16882339D01*
X9542310Y-16901387D01*
X9447071Y-16920435D01*
X9618500Y-16977577D02*
X9637548Y-16987101D01*
X9675643Y-16987101D01*
X9694690Y-16977577D01*
X9704214Y-16958530D01*
X9704214Y-16949006D01*
X9694690Y-16929958D01*
X9675643Y-16920435D01*
X9647071Y-16920435D01*
X9628024Y-16910911D01*
X9618500Y-16891863D01*
X9618500Y-16882339D01*
X9628024Y-16863292D01*
X9647071Y-16853768D01*
X9675643Y-16853768D01*
X9694690Y-16863292D01*
X9770881Y-17063292D02*
X9780405Y-17053768D01*
X9799452Y-17025196D01*
X9808976Y-17006149D01*
X9818500Y-16977577D01*
X9828024Y-16929958D01*
X9828024Y-16891863D01*
X9818500Y-16844244D01*
X9808976Y-16815673D01*
X9799452Y-16796625D01*
X9780405Y-16768053D01*
X9770881Y-16758530D01*
X10132786Y-17063292D02*
X10123262Y-17053768D01*
X10104214Y-17025196D01*
X10094690Y-17006149D01*
X10085167Y-16977577D01*
X10075643Y-16929958D01*
X10075643Y-16891863D01*
X10085167Y-16844244D01*
X10094690Y-16815673D01*
X10104214Y-16796625D01*
X10123262Y-16768053D01*
X10132786Y-16758530D01*
X10208976Y-16853768D02*
X10208976Y-16987101D01*
X10208976Y-16872815D02*
X10218500Y-16863292D01*
X10237548Y-16853768D01*
X10266119Y-16853768D01*
X10285167Y-16863292D01*
X10294690Y-16882339D01*
X10294690Y-16987101D01*
X10418500Y-16987101D02*
X10399452Y-16977577D01*
X10389929Y-16968054D01*
X10380405Y-16949006D01*
X10380405Y-16891863D01*
X10389929Y-16872815D01*
X10399452Y-16863292D01*
X10418500Y-16853768D01*
X10447071Y-16853768D01*
X10466119Y-16863292D01*
X10475643Y-16872815D01*
X10485167Y-16891863D01*
X10485167Y-16949006D01*
X10475643Y-16968054D01*
X10466119Y-16977577D01*
X10447071Y-16987101D01*
X10418500Y-16987101D01*
X10542310Y-16853768D02*
X10618500Y-16853768D01*
X10570881Y-16787101D02*
X10570881Y-16958530D01*
X10580405Y-16977577D01*
X10599452Y-16987101D01*
X10618500Y-16987101D01*
X10837548Y-16853768D02*
X10837548Y-17053768D01*
X10837548Y-16863292D02*
X10856595Y-16853768D01*
X10894690Y-16853768D01*
X10913738Y-16863292D01*
X10923262Y-16872815D01*
X10932786Y-16891863D01*
X10932786Y-16949006D01*
X10923262Y-16968054D01*
X10913738Y-16977577D01*
X10894690Y-16987101D01*
X10856595Y-16987101D01*
X10837548Y-16977577D01*
X11047071Y-16987101D02*
X11028024Y-16977577D01*
X11018500Y-16958530D01*
X11018500Y-16787101D01*
X11208976Y-16987101D02*
X11208976Y-16882339D01*
X11199452Y-16863292D01*
X11180405Y-16853768D01*
X11142310Y-16853768D01*
X11123262Y-16863292D01*
X11208976Y-16977577D02*
X11189928Y-16987101D01*
X11142310Y-16987101D01*
X11123262Y-16977577D01*
X11113738Y-16958530D01*
X11113738Y-16939482D01*
X11123262Y-16920435D01*
X11142310Y-16910911D01*
X11189928Y-16910911D01*
X11208976Y-16901387D01*
X11275643Y-16853768D02*
X11351833Y-16853768D01*
X11304214Y-16787101D02*
X11304214Y-16958530D01*
X11313738Y-16977577D01*
X11332786Y-16987101D01*
X11351833Y-16987101D01*
X11494690Y-16977577D02*
X11475643Y-16987101D01*
X11437548Y-16987101D01*
X11418500Y-16977577D01*
X11408976Y-16958530D01*
X11408976Y-16882339D01*
X11418500Y-16863292D01*
X11437548Y-16853768D01*
X11475643Y-16853768D01*
X11494690Y-16863292D01*
X11504214Y-16882339D01*
X11504214Y-16901387D01*
X11408976Y-16920435D01*
X11675643Y-16987101D02*
X11675643Y-16787101D01*
X11675643Y-16977577D02*
X11656595Y-16987101D01*
X11618500Y-16987101D01*
X11599452Y-16977577D01*
X11589928Y-16968054D01*
X11580405Y-16949006D01*
X11580405Y-16891863D01*
X11589928Y-16872815D01*
X11599452Y-16863292D01*
X11618500Y-16853768D01*
X11656595Y-16853768D01*
X11675643Y-16863292D01*
X11751833Y-17063292D02*
X11761357Y-17053768D01*
X11780405Y-17025196D01*
X11789928Y-17006149D01*
X11799452Y-16977577D01*
X11808976Y-16929958D01*
X11808976Y-16891863D01*
X11799452Y-16844244D01*
X11789928Y-16815673D01*
X11780405Y-16796625D01*
X11761357Y-16768053D01*
X11751833Y-16758530D01*
X4808500Y-17191625D02*
G75*
G03*
X4808500Y-17191625I-100000J0D01*
G01*
X5047071Y-17082101D02*
X5170881Y-17082101D01*
X5104214Y-17158292D01*
X5132786Y-17158292D01*
X5151833Y-17167815D01*
X5161357Y-17177339D01*
X5170881Y-17196387D01*
X5170881Y-17244006D01*
X5161357Y-17263054D01*
X5151833Y-17272577D01*
X5132786Y-17282101D01*
X5075643Y-17282101D01*
X5056595Y-17272577D01*
X5047071Y-17263054D01*
X5256595Y-17263054D02*
X5266119Y-17272577D01*
X5256595Y-17282101D01*
X5247071Y-17272577D01*
X5256595Y-17263054D01*
X5256595Y-17282101D01*
X5361357Y-17282101D02*
X5399452Y-17282101D01*
X5418500Y-17272577D01*
X5428024Y-17263054D01*
X5447071Y-17234482D01*
X5456595Y-17196387D01*
X5456595Y-17120196D01*
X5447071Y-17101149D01*
X5437548Y-17091625D01*
X5418500Y-17082101D01*
X5380405Y-17082101D01*
X5361357Y-17091625D01*
X5351833Y-17101149D01*
X5342310Y-17120196D01*
X5342310Y-17167815D01*
X5351833Y-17186863D01*
X5361357Y-17196387D01*
X5380405Y-17205911D01*
X5418500Y-17205911D01*
X5437548Y-17196387D01*
X5447071Y-17186863D01*
X5456595Y-17167815D01*
X5570881Y-17167815D02*
X5551833Y-17158292D01*
X5542310Y-17148768D01*
X5532786Y-17129720D01*
X5532786Y-17120196D01*
X5542310Y-17101149D01*
X5551833Y-17091625D01*
X5570881Y-17082101D01*
X5608976Y-17082101D01*
X5628024Y-17091625D01*
X5637548Y-17101149D01*
X5647071Y-17120196D01*
X5647071Y-17129720D01*
X5637548Y-17148768D01*
X5628024Y-17158292D01*
X5608976Y-17167815D01*
X5570881Y-17167815D01*
X5551833Y-17177339D01*
X5542310Y-17186863D01*
X5532786Y-17205911D01*
X5532786Y-17244006D01*
X5542310Y-17263054D01*
X5551833Y-17272577D01*
X5570881Y-17282101D01*
X5608976Y-17282101D01*
X5628024Y-17272577D01*
X5637548Y-17263054D01*
X5647071Y-17244006D01*
X5647071Y-17205911D01*
X5637548Y-17186863D01*
X5628024Y-17177339D01*
X5608976Y-17167815D01*
X5761357Y-17167815D02*
X5742309Y-17158292D01*
X5732786Y-17148768D01*
X5723262Y-17129720D01*
X5723262Y-17120196D01*
X5732786Y-17101149D01*
X5742309Y-17091625D01*
X5761357Y-17082101D01*
X5799452Y-17082101D01*
X5818500Y-17091625D01*
X5828024Y-17101149D01*
X5837548Y-17120196D01*
X5837548Y-17129720D01*
X5828024Y-17148768D01*
X5818500Y-17158292D01*
X5799452Y-17167815D01*
X5761357Y-17167815D01*
X5742309Y-17177339D01*
X5732786Y-17186863D01*
X5723262Y-17205911D01*
X5723262Y-17244006D01*
X5732786Y-17263054D01*
X5742309Y-17272577D01*
X5761357Y-17282101D01*
X5799452Y-17282101D01*
X5818500Y-17272577D01*
X5828024Y-17263054D01*
X5837548Y-17244006D01*
X5837548Y-17205911D01*
X5828024Y-17186863D01*
X5818500Y-17177339D01*
X5799452Y-17167815D01*
X5923262Y-17282101D02*
X5923262Y-17148768D01*
X5923262Y-17167815D02*
X5932786Y-17158292D01*
X5951833Y-17148768D01*
X5980405Y-17148768D01*
X5999452Y-17158292D01*
X6008976Y-17177339D01*
X6008976Y-17282101D01*
X6008976Y-17177339D02*
X6018500Y-17158292D01*
X6037548Y-17148768D01*
X6066119Y-17148768D01*
X6085167Y-17158292D01*
X6094690Y-17177339D01*
X6094690Y-17282101D01*
X6189928Y-17282101D02*
X6189928Y-17148768D01*
X6189928Y-17167815D02*
X6199452Y-17158292D01*
X6218500Y-17148768D01*
X6247071Y-17148768D01*
X6266119Y-17158292D01*
X6275643Y-17177339D01*
X6275643Y-17282101D01*
X6275643Y-17177339D02*
X6285167Y-17158292D01*
X6304214Y-17148768D01*
X6332786Y-17148768D01*
X6351833Y-17158292D01*
X6361357Y-17177339D01*
X6361357Y-17282101D01*
X6751833Y-17072577D02*
X6580405Y-17329720D01*
X7008976Y-17082101D02*
X7028024Y-17082101D01*
X7047071Y-17091625D01*
X7056595Y-17101149D01*
X7066119Y-17120196D01*
X7075643Y-17158292D01*
X7075643Y-17205911D01*
X7066119Y-17244006D01*
X7056595Y-17263054D01*
X7047071Y-17272577D01*
X7028024Y-17282101D01*
X7008976Y-17282101D01*
X6989928Y-17272577D01*
X6980405Y-17263054D01*
X6970881Y-17244006D01*
X6961357Y-17205911D01*
X6961357Y-17158292D01*
X6970881Y-17120196D01*
X6980405Y-17101149D01*
X6989928Y-17091625D01*
X7008976Y-17082101D01*
X7161357Y-17263054D02*
X7170881Y-17272577D01*
X7161357Y-17282101D01*
X7151833Y-17272577D01*
X7161357Y-17263054D01*
X7161357Y-17282101D01*
X7361357Y-17282101D02*
X7247071Y-17282101D01*
X7304214Y-17282101D02*
X7304214Y-17082101D01*
X7285167Y-17110673D01*
X7266119Y-17129720D01*
X7247071Y-17139244D01*
X7542309Y-17082101D02*
X7447071Y-17082101D01*
X7437548Y-17177339D01*
X7447071Y-17167815D01*
X7466119Y-17158292D01*
X7513738Y-17158292D01*
X7532786Y-17167815D01*
X7542309Y-17177339D01*
X7551833Y-17196387D01*
X7551833Y-17244006D01*
X7542309Y-17263054D01*
X7532786Y-17272577D01*
X7513738Y-17282101D01*
X7466119Y-17282101D01*
X7447071Y-17272577D01*
X7437548Y-17263054D01*
X7618500Y-17082101D02*
X7751833Y-17082101D01*
X7666119Y-17282101D01*
X7866119Y-17082101D02*
X7885167Y-17082101D01*
X7904214Y-17091625D01*
X7913738Y-17101149D01*
X7923262Y-17120196D01*
X7932786Y-17158292D01*
X7932786Y-17205911D01*
X7923262Y-17244006D01*
X7913738Y-17263054D01*
X7904214Y-17272577D01*
X7885167Y-17282101D01*
X7866119Y-17282101D01*
X7847071Y-17272577D01*
X7837548Y-17263054D01*
X7828024Y-17244006D01*
X7818500Y-17205911D01*
X7818500Y-17158292D01*
X7828024Y-17120196D01*
X7837548Y-17101149D01*
X7847071Y-17091625D01*
X7866119Y-17082101D01*
X8008976Y-17082101D02*
X8008976Y-17120196D01*
X8085167Y-17082101D02*
X8085167Y-17120196D01*
X8380405Y-17358292D02*
X8370881Y-17348768D01*
X8351833Y-17320196D01*
X8342309Y-17301149D01*
X8332786Y-17272577D01*
X8323262Y-17224958D01*
X8323262Y-17186863D01*
X8332786Y-17139244D01*
X8342309Y-17110673D01*
X8351833Y-17091625D01*
X8370881Y-17063054D01*
X8380405Y-17053530D01*
X8437548Y-17082101D02*
X8561357Y-17082101D01*
X8494690Y-17158292D01*
X8523262Y-17158292D01*
X8542310Y-17167815D01*
X8551833Y-17177339D01*
X8561357Y-17196387D01*
X8561357Y-17244006D01*
X8551833Y-17263054D01*
X8542310Y-17272577D01*
X8523262Y-17282101D01*
X8466119Y-17282101D01*
X8447071Y-17272577D01*
X8437548Y-17263054D01*
X8656595Y-17282101D02*
X8694690Y-17282101D01*
X8713738Y-17272577D01*
X8723262Y-17263054D01*
X8742310Y-17234482D01*
X8751833Y-17196387D01*
X8751833Y-17120196D01*
X8742310Y-17101149D01*
X8732786Y-17091625D01*
X8713738Y-17082101D01*
X8675643Y-17082101D01*
X8656595Y-17091625D01*
X8647071Y-17101149D01*
X8637548Y-17120196D01*
X8637548Y-17167815D01*
X8647071Y-17186863D01*
X8656595Y-17196387D01*
X8675643Y-17205911D01*
X8713738Y-17205911D01*
X8732786Y-17196387D01*
X8742310Y-17186863D01*
X8751833Y-17167815D01*
X8989929Y-17282101D02*
X8989929Y-17082101D01*
X9075643Y-17282101D02*
X9075643Y-17177339D01*
X9066119Y-17158292D01*
X9047071Y-17148768D01*
X9018500Y-17148768D01*
X8999452Y-17158292D01*
X8989929Y-17167815D01*
X9199452Y-17282101D02*
X9180405Y-17272577D01*
X9170881Y-17263054D01*
X9161357Y-17244006D01*
X9161357Y-17186863D01*
X9170881Y-17167815D01*
X9180405Y-17158292D01*
X9199452Y-17148768D01*
X9228024Y-17148768D01*
X9247071Y-17158292D01*
X9256595Y-17167815D01*
X9266119Y-17186863D01*
X9266119Y-17244006D01*
X9256595Y-17263054D01*
X9247071Y-17272577D01*
X9228024Y-17282101D01*
X9199452Y-17282101D01*
X9380405Y-17282101D02*
X9361357Y-17272577D01*
X9351833Y-17253530D01*
X9351833Y-17082101D01*
X9532786Y-17272577D02*
X9513738Y-17282101D01*
X9475643Y-17282101D01*
X9456595Y-17272577D01*
X9447071Y-17253530D01*
X9447071Y-17177339D01*
X9456595Y-17158292D01*
X9475643Y-17148768D01*
X9513738Y-17148768D01*
X9532786Y-17158292D01*
X9542310Y-17177339D01*
X9542310Y-17196387D01*
X9447071Y-17215435D01*
X9618500Y-17272577D02*
X9637548Y-17282101D01*
X9675643Y-17282101D01*
X9694690Y-17272577D01*
X9704214Y-17253530D01*
X9704214Y-17244006D01*
X9694690Y-17224958D01*
X9675643Y-17215435D01*
X9647071Y-17215435D01*
X9628024Y-17205911D01*
X9618500Y-17186863D01*
X9618500Y-17177339D01*
X9628024Y-17158292D01*
X9647071Y-17148768D01*
X9675643Y-17148768D01*
X9694690Y-17158292D01*
X9770881Y-17358292D02*
X9780405Y-17348768D01*
X9799452Y-17320196D01*
X9808976Y-17301149D01*
X9818500Y-17272577D01*
X9828024Y-17224958D01*
X9828024Y-17186863D01*
X9818500Y-17139244D01*
X9808976Y-17110673D01*
X9799452Y-17091625D01*
X9780405Y-17063054D01*
X9770881Y-17053530D01*
X10132786Y-17358292D02*
X10123262Y-17348768D01*
X10104214Y-17320196D01*
X10094690Y-17301149D01*
X10085167Y-17272577D01*
X10075643Y-17224958D01*
X10075643Y-17186863D01*
X10085167Y-17139244D01*
X10094690Y-17110673D01*
X10104214Y-17091625D01*
X10123262Y-17063054D01*
X10132786Y-17053530D01*
X10208976Y-17148768D02*
X10208976Y-17282101D01*
X10208976Y-17167815D02*
X10218500Y-17158292D01*
X10237548Y-17148768D01*
X10266119Y-17148768D01*
X10285167Y-17158292D01*
X10294690Y-17177339D01*
X10294690Y-17282101D01*
X10418500Y-17282101D02*
X10399452Y-17272577D01*
X10389929Y-17263054D01*
X10380405Y-17244006D01*
X10380405Y-17186863D01*
X10389929Y-17167815D01*
X10399452Y-17158292D01*
X10418500Y-17148768D01*
X10447071Y-17148768D01*
X10466119Y-17158292D01*
X10475643Y-17167815D01*
X10485167Y-17186863D01*
X10485167Y-17244006D01*
X10475643Y-17263054D01*
X10466119Y-17272577D01*
X10447071Y-17282101D01*
X10418500Y-17282101D01*
X10542310Y-17148768D02*
X10618500Y-17148768D01*
X10570881Y-17082101D02*
X10570881Y-17253530D01*
X10580405Y-17272577D01*
X10599452Y-17282101D01*
X10618500Y-17282101D01*
X10837548Y-17148768D02*
X10837548Y-17348768D01*
X10837548Y-17158292D02*
X10856595Y-17148768D01*
X10894690Y-17148768D01*
X10913738Y-17158292D01*
X10923262Y-17167815D01*
X10932786Y-17186863D01*
X10932786Y-17244006D01*
X10923262Y-17263054D01*
X10913738Y-17272577D01*
X10894690Y-17282101D01*
X10856595Y-17282101D01*
X10837548Y-17272577D01*
X11047071Y-17282101D02*
X11028024Y-17272577D01*
X11018500Y-17253530D01*
X11018500Y-17082101D01*
X11208976Y-17282101D02*
X11208976Y-17177339D01*
X11199452Y-17158292D01*
X11180405Y-17148768D01*
X11142310Y-17148768D01*
X11123262Y-17158292D01*
X11208976Y-17272577D02*
X11189928Y-17282101D01*
X11142310Y-17282101D01*
X11123262Y-17272577D01*
X11113738Y-17253530D01*
X11113738Y-17234482D01*
X11123262Y-17215435D01*
X11142310Y-17205911D01*
X11189928Y-17205911D01*
X11208976Y-17196387D01*
X11275643Y-17148768D02*
X11351833Y-17148768D01*
X11304214Y-17082101D02*
X11304214Y-17253530D01*
X11313738Y-17272577D01*
X11332786Y-17282101D01*
X11351833Y-17282101D01*
X11494690Y-17272577D02*
X11475643Y-17282101D01*
X11437548Y-17282101D01*
X11418500Y-17272577D01*
X11408976Y-17253530D01*
X11408976Y-17177339D01*
X11418500Y-17158292D01*
X11437548Y-17148768D01*
X11475643Y-17148768D01*
X11494690Y-17158292D01*
X11504214Y-17177339D01*
X11504214Y-17196387D01*
X11408976Y-17215435D01*
X11675643Y-17282101D02*
X11675643Y-17082101D01*
X11675643Y-17272577D02*
X11656595Y-17282101D01*
X11618500Y-17282101D01*
X11599452Y-17272577D01*
X11589928Y-17263054D01*
X11580405Y-17244006D01*
X11580405Y-17186863D01*
X11589928Y-17167815D01*
X11599452Y-17158292D01*
X11618500Y-17148768D01*
X11656595Y-17148768D01*
X11675643Y-17158292D01*
X11751833Y-17358292D02*
X11761357Y-17348768D01*
X11780405Y-17320196D01*
X11789928Y-17301149D01*
X11799452Y-17272577D01*
X11808976Y-17224958D01*
X11808976Y-17186863D01*
X11799452Y-17139244D01*
X11789928Y-17110673D01*
X11780405Y-17091625D01*
X11761357Y-17063054D01*
X11751833Y-17053530D01*
M02*
