M48
; DRILL file {KiCad (6.0.9)} date Tue Dec  6 20:12:36 2022
; FORMAT={-:-/ absolute / inch / decimal}
; #@! TF.CreationDate,2022-12-06T20:12:36+01:00
; #@! TF.GenerationSoftware,Kicad,Pcbnew,(6.0.9)
; #@! TF.FileFunction,Plated,1,2,PTH
FMAT,2
INCH
; #@! TA.AperFunction,Plated,PTH,ViaDrill
T1C0.0157
; #@! TA.AperFunction,Plated,PTH,ComponentDrill
T2C0.0315
; #@! TA.AperFunction,Plated,PTH,ComponentDrill
T3C0.0394
; #@! TA.AperFunction,Plated,PTH,ComponentDrill
T4C0.1181
; #@! TA.AperFunction,Plated,PTH,ComponentDrill
T5C0.1260
%
G90
G05
T1
X3.6451Y-2.8045
X3.6451Y-3.3358
X3.6451Y-4.3045
X3.6451Y-4.7733
X3.6451Y-5.8045
X5.0201Y-2.4608
X5.0201Y-4.0545
X5.0513Y-5.5545
X5.1138Y-1.992
X5.1138Y-3.6483
X5.1138Y-5.1795
T2
X1.9888Y-1.842
X1.9888Y-2.142
X1.9888Y-2.7795
X1.9888Y-3.0795
X1.9888Y-3.5295
X1.9888Y-3.8295
X1.9888Y-4.2733
X1.9888Y-4.5733
X1.9888Y-5.0233
X1.9888Y-5.3233
X1.9888Y-5.7733
X1.9888Y-6.0733
X2.7388Y-1.842
X2.7388Y-2.142
X2.7388Y-2.7795
X2.7388Y-3.0795
X2.7388Y-3.5295
X2.7388Y-3.8295
X2.7388Y-4.2795
X2.7388Y-4.5795
X2.7388Y-5.0233
X2.7388Y-5.3233
X2.7388Y-5.7795
X2.7388Y-6.0795
X3.4888Y-1.842
X3.4888Y-2.142
X3.4888Y-2.7795
X3.4888Y-3.0795
X3.4888Y-3.5295
X3.4888Y-3.8295
X3.4888Y-4.2795
X3.4888Y-4.5795
X3.4888Y-5.0295
X3.4888Y-5.3295
X3.4888Y-5.7795
X3.4888Y-6.0795
X4.4263Y-1.842
X4.4263Y-2.142
X4.4263Y-2.7795
X4.4263Y-3.0795
X4.4263Y-3.5295
X4.4263Y-3.8295
X4.4263Y-4.2795
X4.4263Y-4.5795
X4.4263Y-5.0295
X4.4263Y-5.3295
X4.8013Y-5.7795
X4.8013Y-6.0795
X5.1763Y-1.842
X5.1763Y-2.142
X5.1763Y-2.7795
X5.1763Y-3.0795
X5.1763Y-3.5295
X5.1763Y-3.8295
X5.1763Y-4.2795
X5.1763Y-4.5795
X5.1763Y-5.0295
X5.1763Y-5.3295
X5.9263Y-1.842
X5.9263Y-2.142
X5.9263Y-2.7795
X5.9263Y-3.0795
X5.9263Y-3.5295
X5.9263Y-3.8295
X5.9263Y-4.2795
X5.9263Y-4.5795
X5.9263Y-5.0295
X5.9263Y-5.3295
X5.9263Y-5.7858
X5.9263Y-6.0858
X6.6763Y-1.842
X6.6763Y-2.142
X6.6763Y-2.7795
X6.6763Y-3.0795
X6.6763Y-3.9358
X6.6763Y-4.2358
X6.6763Y-5.4045
X6.6763Y-5.7045
T3
X4.1451Y-2.4295
X4.2076Y-1.617
X4.2451Y-2.4295
X4.3076Y-1.617
X4.3451Y-2.4295
X4.4076Y-1.617
X4.4451Y-2.4295
X4.5076Y-1.617
X4.5451Y-2.4295
X4.6076Y-1.617
X4.6451Y-2.4295
X4.7076Y-1.617
X4.7451Y-2.4295
X4.8076Y-1.617
X4.8451Y-2.4295
X4.9076Y-1.617
T4
X2.2138Y-2.092
X2.2138Y-3.0295
X2.2138Y-3.7795
X2.2138Y-4.5295
X2.2138Y-5.2795
X2.2138Y-6.0295
X2.4638Y-2.192
X2.4638Y-3.1295
X2.4638Y-3.8795
X2.4638Y-4.6295
X2.4638Y-5.3795
X2.4638Y-6.1295
X2.9638Y-2.092
X2.9638Y-3.0295
X2.9638Y-3.7795
X2.9638Y-4.5295
X2.9638Y-5.2795
X2.9638Y-6.0295
X3.2138Y-2.192
X3.2138Y-3.1295
X3.2138Y-3.8795
X3.2138Y-4.6295
X3.2138Y-5.3795
X3.2138Y-6.1295
X3.7138Y-2.092
X3.7138Y-3.0295
X3.7138Y-3.7795
X3.7138Y-4.5295
X3.7138Y-5.2795
X3.7138Y-6.0295
X3.9638Y-2.192
X3.9638Y-3.1295
X3.9638Y-3.8795
X3.9638Y-4.6295
X3.9638Y-5.3795
X3.9638Y-6.1295
X4.6513Y-2.092
X4.6513Y-3.0295
X4.6513Y-3.7795
X4.6513Y-4.5295
X4.6513Y-5.2795
X4.9013Y-2.192
X4.9013Y-3.1295
X4.9013Y-3.8795
X4.9013Y-4.6295
X4.9013Y-5.3795
X5.0263Y-6.0295
X5.2763Y-6.1295
X5.4013Y-2.092
X5.4013Y-3.0295
X5.4013Y-3.7795
X5.4013Y-4.5295
X5.4013Y-5.2795
X5.6513Y-2.192
X5.6513Y-3.1295
X5.6513Y-3.8795
X5.6513Y-4.6295
X5.6513Y-5.3795
X6.1513Y-2.092
X6.1513Y-3.0295
X6.1513Y-3.7795
X6.1513Y-4.5295
X6.1513Y-5.2795
X6.1513Y-6.0295
X6.4013Y-2.192
X6.4013Y-3.1295
X6.4013Y-3.8795
X6.4013Y-4.6295
X6.4013Y-5.3795
X6.4013Y-6.1295
X6.9013Y-2.092
X6.9013Y-3.0295
X6.9013Y-4.1545
X6.9013Y-5.6545
X7.1513Y-2.192
X7.1513Y-3.1295
X7.1513Y-4.2545
X7.1513Y-5.7545
T5
X2.0201Y-1.6483
X2.0201Y-6.2733
X7.3951Y-1.6483
X7.3951Y-6.2733
T0
M30
