M48
; DRILL file {KiCad (6.0.9)} date Tue Dec  6 20:12:36 2022
; FORMAT={-:-/ absolute / inch / decimal}
; #@! TF.CreationDate,2022-12-06T20:12:36+01:00
; #@! TF.GenerationSoftware,Kicad,Pcbnew,(6.0.9)
; #@! TF.FileFunction,NonPlated,1,2,NPTH
FMAT,2
INCH
; #@! TA.AperFunction,NonPlated,NPTH,ComponentDrill
T1C0.0689
; #@! TA.AperFunction,NonPlated,NPTH,ComponentDrill
T2C0.1570
%
G90
G05
T1
X2.1638Y-1.992
X2.1638Y-2.9295
X2.1638Y-3.6795
X2.1638Y-4.4295
X2.1638Y-5.1795
X2.1638Y-5.9295
X2.5638Y-1.992
X2.5638Y-2.9295
X2.5638Y-3.6795
X2.5638Y-4.4295
X2.5638Y-5.1795
X2.5638Y-5.9295
X2.9138Y-1.992
X2.9138Y-2.9295
X2.9138Y-3.6795
X2.9138Y-4.4295
X2.9138Y-5.1795
X2.9138Y-5.9295
X3.3138Y-1.992
X3.3138Y-2.9295
X3.3138Y-3.6795
X3.3138Y-4.4295
X3.3138Y-5.1795
X3.3138Y-5.9295
X3.6638Y-1.992
X3.6638Y-2.9295
X3.6638Y-3.6795
X3.6638Y-4.4295
X3.6638Y-5.1795
X3.6638Y-5.9295
X4.0638Y-1.992
X4.0638Y-2.9295
X4.0638Y-3.6795
X4.0638Y-4.4295
X4.0638Y-5.1795
X4.0638Y-5.9295
X4.6013Y-1.992
X4.6013Y-2.9295
X4.6013Y-3.6795
X4.6013Y-4.4295
X4.6013Y-5.1795
X4.9763Y-5.9295
X5.0013Y-1.992
X5.0013Y-2.9295
X5.0013Y-3.6795
X5.0013Y-4.4295
X5.0013Y-5.1795
X5.3513Y-1.992
X5.3513Y-2.9295
X5.3513Y-3.6795
X5.3513Y-4.4295
X5.3513Y-5.1795
X5.3763Y-5.9295
X5.7513Y-1.992
X5.7513Y-2.9295
X5.7513Y-3.6795
X5.7513Y-4.4295
X5.7513Y-5.1795
X6.1013Y-1.992
X6.1013Y-2.9295
X6.1013Y-3.6795
X6.1013Y-4.4295
X6.1013Y-5.1795
X6.1013Y-5.9295
X6.5013Y-1.992
X6.5013Y-2.9295
X6.5013Y-3.6795
X6.5013Y-4.4295
X6.5013Y-5.1795
X6.5013Y-5.9295
X6.8513Y-1.992
X6.8513Y-2.9295
X6.8513Y-4.0545
X6.8513Y-5.5545
X7.2513Y-1.992
X7.2513Y-2.9295
X7.2513Y-4.0545
X7.2513Y-5.5545
T2
X2.3638Y-1.992
X2.3638Y-2.9295
X2.3638Y-3.6795
X2.3638Y-4.4295
X2.3638Y-5.1795
X2.3638Y-5.9295
X3.1138Y-1.992
X3.1138Y-2.9295
X3.1138Y-3.6795
X3.1138Y-4.4295
X3.1138Y-5.1795
X3.1138Y-5.9295
X3.8638Y-1.992
X3.8638Y-2.9295
X3.8638Y-3.6795
X3.8638Y-4.4295
X3.8638Y-5.1795
X3.8638Y-5.9295
X4.8013Y-1.992
X4.8013Y-2.9295
X4.8013Y-3.6795
X4.8013Y-4.4295
X4.8013Y-5.1795
X5.1763Y-5.9295
X5.5513Y-1.992
X5.5513Y-2.9295
X5.5513Y-3.6795
X5.5513Y-4.4295
X5.5513Y-5.1795
X6.3013Y-1.992
X6.3013Y-2.9295
X6.3013Y-3.6795
X6.3013Y-4.4295
X6.3013Y-5.1795
X6.3013Y-5.9295
X7.0513Y-1.992
X7.0513Y-2.9295
X7.0513Y-4.0545
X7.0513Y-5.5545
T0
M30
