%TF.GenerationSoftware,KiCad,Pcbnew,(6.0.9)*%
%TF.CreationDate,2022-12-06T20:12:41+01:00*%
%TF.ProjectId,tekskey-rounded-num,74656b73-6b65-4792-9d72-6f756e646564,rev?*%
%TF.SameCoordinates,Original*%
%TF.FileFunction,Legend,Top*%
%TF.FilePolarity,Positive*%
%FSLAX46Y46*%
G04 Gerber Fmt 4.6, Leading zero omitted, Abs format (unit mm)*
G04 Created by KiCad (PCBNEW (6.0.9)) date 2022-12-06 20:12:41*
%MOMM*%
%LPD*%
G01*
G04 APERTURE LIST*
%ADD10C,0.150000*%
%ADD11C,0.120000*%
G04 APERTURE END LIST*
D10*
%TO.C,J203*%
X186549285Y-45118630D02*
X186549285Y-45832916D01*
X186501666Y-45975773D01*
X186406428Y-46071011D01*
X186263571Y-46118630D01*
X186168333Y-46118630D01*
X186977857Y-45213869D02*
X187025476Y-45166250D01*
X187120714Y-45118630D01*
X187358809Y-45118630D01*
X187454047Y-45166250D01*
X187501666Y-45213869D01*
X187549285Y-45309107D01*
X187549285Y-45404345D01*
X187501666Y-45547202D01*
X186930238Y-46118630D01*
X187549285Y-46118630D01*
X188168333Y-45118630D02*
X188263571Y-45118630D01*
X188358809Y-45166250D01*
X188406428Y-45213869D01*
X188454047Y-45309107D01*
X188501666Y-45499583D01*
X188501666Y-45737678D01*
X188454047Y-45928154D01*
X188406428Y-46023392D01*
X188358809Y-46071011D01*
X188263571Y-46118630D01*
X188168333Y-46118630D01*
X188073095Y-46071011D01*
X188025476Y-46023392D01*
X187977857Y-45928154D01*
X187930238Y-45737678D01*
X187930238Y-45499583D01*
X187977857Y-45309107D01*
X188025476Y-45213869D01*
X188073095Y-45166250D01*
X188168333Y-45118630D01*
X188835000Y-45118630D02*
X189454047Y-45118630D01*
X189120714Y-45499583D01*
X189263571Y-45499583D01*
X189358809Y-45547202D01*
X189406428Y-45594821D01*
X189454047Y-45690059D01*
X189454047Y-45928154D01*
X189406428Y-46023392D01*
X189358809Y-46071011D01*
X189263571Y-46118630D01*
X188977857Y-46118630D01*
X188882619Y-46071011D01*
X188835000Y-46023392D01*
%TO.C,J202*%
X103994880Y-42358214D02*
X104709166Y-42358214D01*
X104852023Y-42405833D01*
X104947261Y-42501071D01*
X104994880Y-42643928D01*
X104994880Y-42739166D01*
X104090119Y-41929642D02*
X104042500Y-41882023D01*
X103994880Y-41786785D01*
X103994880Y-41548690D01*
X104042500Y-41453452D01*
X104090119Y-41405833D01*
X104185357Y-41358214D01*
X104280595Y-41358214D01*
X104423452Y-41405833D01*
X104994880Y-41977261D01*
X104994880Y-41358214D01*
X103994880Y-40739166D02*
X103994880Y-40643928D01*
X104042500Y-40548690D01*
X104090119Y-40501071D01*
X104185357Y-40453452D01*
X104375833Y-40405833D01*
X104613928Y-40405833D01*
X104804404Y-40453452D01*
X104899642Y-40501071D01*
X104947261Y-40548690D01*
X104994880Y-40643928D01*
X104994880Y-40739166D01*
X104947261Y-40834404D01*
X104899642Y-40882023D01*
X104804404Y-40929642D01*
X104613928Y-40977261D01*
X104375833Y-40977261D01*
X104185357Y-40929642D01*
X104090119Y-40882023D01*
X104042500Y-40834404D01*
X103994880Y-40739166D01*
X104090119Y-40024880D02*
X104042500Y-39977261D01*
X103994880Y-39882023D01*
X103994880Y-39643928D01*
X104042500Y-39548690D01*
X104090119Y-39501071D01*
X104185357Y-39453452D01*
X104280595Y-39453452D01*
X104423452Y-39501071D01*
X104994880Y-40072500D01*
X104994880Y-39453452D01*
%TO.C,J205*%
X50024285Y-45118630D02*
X50024285Y-45832916D01*
X49976666Y-45975773D01*
X49881428Y-46071011D01*
X49738571Y-46118630D01*
X49643333Y-46118630D01*
X50452857Y-45213869D02*
X50500476Y-45166250D01*
X50595714Y-45118630D01*
X50833809Y-45118630D01*
X50929047Y-45166250D01*
X50976666Y-45213869D01*
X51024285Y-45309107D01*
X51024285Y-45404345D01*
X50976666Y-45547202D01*
X50405238Y-46118630D01*
X51024285Y-46118630D01*
X51643333Y-45118630D02*
X51738571Y-45118630D01*
X51833809Y-45166250D01*
X51881428Y-45213869D01*
X51929047Y-45309107D01*
X51976666Y-45499583D01*
X51976666Y-45737678D01*
X51929047Y-45928154D01*
X51881428Y-46023392D01*
X51833809Y-46071011D01*
X51738571Y-46118630D01*
X51643333Y-46118630D01*
X51548095Y-46071011D01*
X51500476Y-46023392D01*
X51452857Y-45928154D01*
X51405238Y-45737678D01*
X51405238Y-45499583D01*
X51452857Y-45309107D01*
X51500476Y-45213869D01*
X51548095Y-45166250D01*
X51643333Y-45118630D01*
X52881428Y-45118630D02*
X52405238Y-45118630D01*
X52357619Y-45594821D01*
X52405238Y-45547202D01*
X52500476Y-45499583D01*
X52738571Y-45499583D01*
X52833809Y-45547202D01*
X52881428Y-45594821D01*
X52929047Y-45690059D01*
X52929047Y-45928154D01*
X52881428Y-46023392D01*
X52833809Y-46071011D01*
X52738571Y-46118630D01*
X52500476Y-46118630D01*
X52405238Y-46071011D01*
X52357619Y-46023392D01*
%TO.C,J201*%
X102407380Y-62995714D02*
X103121666Y-62995714D01*
X103264523Y-63043333D01*
X103359761Y-63138571D01*
X103407380Y-63281428D01*
X103407380Y-63376666D01*
X102502619Y-62567142D02*
X102455000Y-62519523D01*
X102407380Y-62424285D01*
X102407380Y-62186190D01*
X102455000Y-62090952D01*
X102502619Y-62043333D01*
X102597857Y-61995714D01*
X102693095Y-61995714D01*
X102835952Y-62043333D01*
X103407380Y-62614761D01*
X103407380Y-61995714D01*
X102407380Y-61376666D02*
X102407380Y-61281428D01*
X102455000Y-61186190D01*
X102502619Y-61138571D01*
X102597857Y-61090952D01*
X102788333Y-61043333D01*
X103026428Y-61043333D01*
X103216904Y-61090952D01*
X103312142Y-61138571D01*
X103359761Y-61186190D01*
X103407380Y-61281428D01*
X103407380Y-61376666D01*
X103359761Y-61471904D01*
X103312142Y-61519523D01*
X103216904Y-61567142D01*
X103026428Y-61614761D01*
X102788333Y-61614761D01*
X102597857Y-61567142D01*
X102502619Y-61519523D01*
X102455000Y-61471904D01*
X102407380Y-61376666D01*
X103407380Y-60090952D02*
X103407380Y-60662380D01*
X103407380Y-60376666D02*
X102407380Y-60376666D01*
X102550238Y-60471904D01*
X102645476Y-60567142D01*
X102693095Y-60662380D01*
%TO.C,J204*%
X186549285Y-162593630D02*
X186549285Y-163307916D01*
X186501666Y-163450773D01*
X186406428Y-163546011D01*
X186263571Y-163593630D01*
X186168333Y-163593630D01*
X186977857Y-162688869D02*
X187025476Y-162641250D01*
X187120714Y-162593630D01*
X187358809Y-162593630D01*
X187454047Y-162641250D01*
X187501666Y-162688869D01*
X187549285Y-162784107D01*
X187549285Y-162879345D01*
X187501666Y-163022202D01*
X186930238Y-163593630D01*
X187549285Y-163593630D01*
X188168333Y-162593630D02*
X188263571Y-162593630D01*
X188358809Y-162641250D01*
X188406428Y-162688869D01*
X188454047Y-162784107D01*
X188501666Y-162974583D01*
X188501666Y-163212678D01*
X188454047Y-163403154D01*
X188406428Y-163498392D01*
X188358809Y-163546011D01*
X188263571Y-163593630D01*
X188168333Y-163593630D01*
X188073095Y-163546011D01*
X188025476Y-163498392D01*
X187977857Y-163403154D01*
X187930238Y-163212678D01*
X187930238Y-162974583D01*
X187977857Y-162784107D01*
X188025476Y-162688869D01*
X188073095Y-162641250D01*
X188168333Y-162593630D01*
X189358809Y-162926964D02*
X189358809Y-163593630D01*
X189120714Y-162546011D02*
X188882619Y-163260297D01*
X189501666Y-163260297D01*
%TO.C,J206*%
X50024285Y-162593630D02*
X50024285Y-163307916D01*
X49976666Y-163450773D01*
X49881428Y-163546011D01*
X49738571Y-163593630D01*
X49643333Y-163593630D01*
X50452857Y-162688869D02*
X50500476Y-162641250D01*
X50595714Y-162593630D01*
X50833809Y-162593630D01*
X50929047Y-162641250D01*
X50976666Y-162688869D01*
X51024285Y-162784107D01*
X51024285Y-162879345D01*
X50976666Y-163022202D01*
X50405238Y-163593630D01*
X51024285Y-163593630D01*
X51643333Y-162593630D02*
X51738571Y-162593630D01*
X51833809Y-162641250D01*
X51881428Y-162688869D01*
X51929047Y-162784107D01*
X51976666Y-162974583D01*
X51976666Y-163212678D01*
X51929047Y-163403154D01*
X51881428Y-163498392D01*
X51833809Y-163546011D01*
X51738571Y-163593630D01*
X51643333Y-163593630D01*
X51548095Y-163546011D01*
X51500476Y-163498392D01*
X51452857Y-163403154D01*
X51405238Y-163212678D01*
X51405238Y-162974583D01*
X51452857Y-162784107D01*
X51500476Y-162688869D01*
X51548095Y-162641250D01*
X51643333Y-162593630D01*
X52833809Y-162593630D02*
X52643333Y-162593630D01*
X52548095Y-162641250D01*
X52500476Y-162688869D01*
X52405238Y-162831726D01*
X52357619Y-163022202D01*
X52357619Y-163403154D01*
X52405238Y-163498392D01*
X52452857Y-163546011D01*
X52548095Y-163593630D01*
X52738571Y-163593630D01*
X52833809Y-163546011D01*
X52881428Y-163498392D01*
X52929047Y-163403154D01*
X52929047Y-163165059D01*
X52881428Y-163069821D01*
X52833809Y-163022202D01*
X52738571Y-162974583D01*
X52548095Y-162974583D01*
X52452857Y-163022202D01*
X52405238Y-163069821D01*
X52357619Y-163165059D01*
D11*
%TO.C,J202*%
X125982500Y-42402500D02*
X125982500Y-39742500D01*
X108142500Y-42402500D02*
X125982500Y-42402500D01*
X108142500Y-39742500D02*
X125982500Y-39742500D01*
X106872500Y-42402500D02*
X105542500Y-42402500D01*
X105542500Y-42402500D02*
X105542500Y-41072500D01*
X108142500Y-42402500D02*
X108142500Y-39742500D01*
%TO.C,J201*%
X106555000Y-60380000D02*
X124395000Y-60380000D01*
X105285000Y-63040000D02*
X103955000Y-63040000D01*
X103955000Y-63040000D02*
X103955000Y-61710000D01*
X106555000Y-63040000D02*
X124395000Y-63040000D01*
X124395000Y-63040000D02*
X124395000Y-60380000D01*
X106555000Y-63040000D02*
X106555000Y-60380000D01*
%TD*%
M02*
