%TF.GenerationSoftware,KiCad,Pcbnew,(6.0.9)*%
%TF.CreationDate,2022-12-06T20:12:41+01:00*%
%TF.ProjectId,tekskey-rounded-num,74656b73-6b65-4792-9d72-6f756e646564,rev?*%
%TF.SameCoordinates,Original*%
%TF.FileFunction,Soldermask,Top*%
%TF.FilePolarity,Negative*%
%FSLAX46Y46*%
G04 Gerber Fmt 4.6, Leading zero omitted, Abs format (unit mm)*
G04 Created by KiCad (PCBNEW (6.0.9)) date 2022-12-06 20:12:41*
%MOMM*%
%LPD*%
G01*
G04 APERTURE LIST*
G04 Aperture macros list*
%AMRoundRect*
0 Rectangle with rounded corners*
0 $1 Rounding radius*
0 $2 $3 $4 $5 $6 $7 $8 $9 X,Y pos of 4 corners*
0 Add a 4 corners polygon primitive as box body*
4,1,4,$2,$3,$4,$5,$6,$7,$8,$9,$2,$3,0*
0 Add four circle primitives for the rounded corners*
1,1,$1+$1,$2,$3*
1,1,$1+$1,$4,$5*
1,1,$1+$1,$6,$7*
1,1,$1+$1,$8,$9*
0 Add four rect primitives between the rounded corners*
20,1,$1+$1,$2,$3,$4,$5,0*
20,1,$1+$1,$4,$5,$6,$7,0*
20,1,$1+$1,$6,$7,$8,$9,0*
20,1,$1+$1,$8,$9,$2,$3,0*%
%AMFreePoly0*
4,1,18,-0.410000,0.265000,0.000000,0.675000,0.328000,0.675000,0.359380,0.668758,0.385983,0.650983,0.403758,0.624380,0.410000,0.593000,0.410000,-0.593000,0.403758,-0.624380,0.385983,-0.650983,0.359380,-0.668758,0.328000,-0.675000,-0.328000,-0.675000,-0.359380,-0.668758,-0.385983,-0.650983,-0.403758,-0.624380,-0.410000,-0.593000,-0.410000,0.265000,-0.410000,0.265000,$1*%
G04 Aperture macros list end*
%ADD10C,3.987800*%
%ADD11C,1.750000*%
%ADD12C,3.300000*%
%ADD13RoundRect,0.250000X1.025000X1.000000X-1.025000X1.000000X-1.025000X-1.000000X1.025000X-1.000000X0*%
%ADD14RoundRect,0.082000X-0.593000X0.328000X-0.593000X-0.328000X0.593000X-0.328000X0.593000X0.328000X0*%
%ADD15FreePoly0,270.000000*%
%ADD16RoundRect,0.082000X0.593000X-0.328000X0.593000X0.328000X-0.593000X0.328000X-0.593000X-0.328000X0*%
%ADD17FreePoly0,90.000000*%
%ADD18R,1.600000X1.600000*%
%ADD19O,1.600000X1.600000*%
%ADD20C,5.600000*%
%ADD21R,1.700000X1.700000*%
%ADD22O,1.700000X1.700000*%
G04 APERTURE END LIST*
D10*
%TO.C,SW214*%
X179103750Y-74410000D03*
D11*
X184183750Y-74410000D03*
X174023750Y-74410000D03*
D12*
X175293750Y-76950000D03*
D13*
X171743750Y-76950000D03*
X185193750Y-79490000D03*
D12*
X181643750Y-79490000D03*
%TD*%
D14*
%TO.C,LED217*%
X95416250Y-89130000D03*
X95416250Y-87630000D03*
X100866250Y-89130000D03*
D15*
X100866250Y-87630000D03*
%TD*%
D16*
%TO.C,LED223*%
X81816250Y-106680000D03*
X81816250Y-108180000D03*
X76366250Y-106680000D03*
D17*
X76366250Y-108180000D03*
%TD*%
D18*
%TO.C,D211*%
X112428750Y-70600000D03*
D19*
X112428750Y-78220000D03*
%TD*%
D18*
%TO.C,D229*%
X50516250Y-127591250D03*
D19*
X50516250Y-135211250D03*
%TD*%
D11*
%TO.C,SW223*%
X74011250Y-112510000D03*
X84171250Y-112510000D03*
D10*
X79091250Y-112510000D03*
D12*
X75281250Y-115050000D03*
D13*
X71731250Y-115050000D03*
X85181250Y-117590000D03*
D12*
X81631250Y-117590000D03*
%TD*%
D18*
%TO.C,D209*%
X69566250Y-70600000D03*
D19*
X69566250Y-78220000D03*
%TD*%
D18*
%TO.C,D226*%
X131478750Y-108700000D03*
D19*
X131478750Y-116320000D03*
%TD*%
D11*
%TO.C,SW209*%
X84171250Y-74410000D03*
D10*
X79091250Y-74410000D03*
D11*
X74011250Y-74410000D03*
D12*
X75281250Y-76950000D03*
D13*
X71731250Y-76950000D03*
D12*
X81631250Y-79490000D03*
D13*
X85181250Y-79490000D03*
%TD*%
D16*
%TO.C,LED225*%
X124678750Y-106680000D03*
X124678750Y-108180000D03*
X119228750Y-106680000D03*
D17*
X119228750Y-108180000D03*
%TD*%
D16*
%TO.C,LED210*%
X100866250Y-68580000D03*
X100866250Y-70080000D03*
X95416250Y-68580000D03*
D17*
X95416250Y-70080000D03*
%TD*%
D14*
%TO.C,LED233*%
X138278750Y-127230000D03*
X138278750Y-125730000D03*
X143728750Y-127230000D03*
D15*
X143728750Y-125730000D03*
%TD*%
D16*
%TO.C,LED227*%
X162778750Y-106680000D03*
X162778750Y-108180000D03*
X157328750Y-106680000D03*
D17*
X157328750Y-108180000D03*
%TD*%
D14*
%TO.C,LED220*%
X157328750Y-89130000D03*
X157328750Y-87630000D03*
X162778750Y-89130000D03*
D15*
X162778750Y-87630000D03*
%TD*%
D10*
%TO.C,SW202*%
X79091250Y-50597500D03*
D11*
X74011250Y-50597500D03*
X84171250Y-50597500D03*
D12*
X75281250Y-53137500D03*
D13*
X71731250Y-53137500D03*
X85181250Y-55677500D03*
D12*
X81631250Y-55677500D03*
%TD*%
D16*
%TO.C,LED236*%
X62766250Y-144780000D03*
X62766250Y-146280000D03*
X57316250Y-144780000D03*
D17*
X57316250Y-146280000D03*
%TD*%
D11*
%TO.C,SW232*%
X116873750Y-131560000D03*
X127033750Y-131560000D03*
D10*
X121953750Y-131560000D03*
D12*
X118143750Y-134100000D03*
D13*
X114593750Y-134100000D03*
D12*
X124493750Y-136640000D03*
D13*
X128043750Y-136640000D03*
%TD*%
D18*
%TO.C,D217*%
X88616250Y-89650000D03*
D19*
X88616250Y-97270000D03*
%TD*%
D11*
%TO.C,SW218*%
X127033750Y-93460000D03*
D10*
X121953750Y-93460000D03*
D11*
X116873750Y-93460000D03*
D13*
X114593750Y-96000000D03*
D12*
X118143750Y-96000000D03*
X124493750Y-98540000D03*
D13*
X128043750Y-98540000D03*
%TD*%
D18*
%TO.C,D235*%
X169578750Y-137275000D03*
D19*
X169578750Y-144895000D03*
%TD*%
D18*
%TO.C,D232*%
X112428750Y-127750000D03*
D19*
X112428750Y-135370000D03*
%TD*%
D18*
%TO.C,D234*%
X150528750Y-127750000D03*
D19*
X150528750Y-135370000D03*
%TD*%
D18*
%TO.C,D221*%
X169578750Y-99968750D03*
D19*
X169578750Y-107588750D03*
%TD*%
D14*
%TO.C,LED216*%
X76366250Y-89130000D03*
X76366250Y-87630000D03*
X81816250Y-89130000D03*
D15*
X81816250Y-87630000D03*
%TD*%
D14*
%TO.C,LED230*%
X76366250Y-127230000D03*
X76366250Y-125730000D03*
X81816250Y-127230000D03*
D15*
X81816250Y-125730000D03*
%TD*%
D11*
%TO.C,SW215*%
X54961250Y-93460000D03*
D10*
X60041250Y-93460000D03*
D11*
X65121250Y-93460000D03*
D13*
X52681250Y-96000000D03*
D12*
X56231250Y-96000000D03*
X62581250Y-98540000D03*
D13*
X66131250Y-98540000D03*
%TD*%
D18*
%TO.C,D208*%
X50516250Y-70600000D03*
D19*
X50516250Y-78220000D03*
%TD*%
D11*
%TO.C,SW210*%
X93061250Y-74410000D03*
X103221250Y-74410000D03*
D10*
X98141250Y-74410000D03*
D13*
X90781250Y-76950000D03*
D12*
X94331250Y-76950000D03*
X100681250Y-79490000D03*
D13*
X104231250Y-79490000D03*
%TD*%
D14*
%TO.C,LED207*%
X176378750Y-46267500D03*
X176378750Y-44767500D03*
X181828750Y-46267500D03*
D15*
X181828750Y-44767500D03*
%TD*%
D10*
%TO.C,SW205*%
X141003750Y-50597500D03*
D11*
X135923750Y-50597500D03*
X146083750Y-50597500D03*
D12*
X137193750Y-53137500D03*
D13*
X133643750Y-53137500D03*
D12*
X143543750Y-55677500D03*
D13*
X147093750Y-55677500D03*
%TD*%
D18*
%TO.C,D231*%
X88616250Y-127750000D03*
D19*
X88616250Y-135370000D03*
%TD*%
D11*
%TO.C,SW216*%
X74011250Y-93460000D03*
X84171250Y-93460000D03*
D10*
X79091250Y-93460000D03*
D13*
X71731250Y-96000000D03*
D12*
X75281250Y-96000000D03*
X81631250Y-98540000D03*
D13*
X85181250Y-98540000D03*
%TD*%
D18*
%TO.C,D237*%
X69566250Y-146800000D03*
D19*
X69566250Y-154420000D03*
%TD*%
D20*
%TO.C,J203*%
X187835000Y-41866250D03*
%TD*%
D11*
%TO.C,SW231*%
X93061250Y-131560000D03*
X103221250Y-131560000D03*
D10*
X98141250Y-131560000D03*
D13*
X90781250Y-134100000D03*
D12*
X94331250Y-134100000D03*
X100681250Y-136640000D03*
D13*
X104231250Y-136640000D03*
%TD*%
D16*
%TO.C,LED212*%
X143728750Y-68580000D03*
X143728750Y-70080000D03*
X138278750Y-68580000D03*
D17*
X138278750Y-70080000D03*
%TD*%
D11*
%TO.C,SW211*%
X127033750Y-74410000D03*
X116873750Y-74410000D03*
D10*
X121953750Y-74410000D03*
D12*
X118143750Y-76950000D03*
D13*
X114593750Y-76950000D03*
X128043750Y-79490000D03*
D12*
X124493750Y-79490000D03*
%TD*%
D18*
%TO.C,D218*%
X112428750Y-89650000D03*
D19*
X112428750Y-97270000D03*
%TD*%
D16*
%TO.C,LED224*%
X100866250Y-106680000D03*
X100866250Y-108180000D03*
X95416250Y-106680000D03*
D17*
X95416250Y-108180000D03*
%TD*%
D16*
%TO.C,LED209*%
X81816250Y-68580000D03*
X81816250Y-70080000D03*
X76366250Y-68580000D03*
D17*
X76366250Y-70080000D03*
%TD*%
D11*
%TO.C,SW206*%
X154973750Y-50597500D03*
X165133750Y-50597500D03*
D10*
X160053750Y-50597500D03*
D13*
X152693750Y-53137500D03*
D12*
X156243750Y-53137500D03*
X162593750Y-55677500D03*
D13*
X166143750Y-55677500D03*
%TD*%
D14*
%TO.C,LED201*%
X57316250Y-46267500D03*
X57316250Y-44767500D03*
X62766250Y-46267500D03*
D15*
X62766250Y-44767500D03*
%TD*%
D11*
%TO.C,SW221*%
X174023750Y-102985000D03*
X184183750Y-102985000D03*
D10*
X179103750Y-102985000D03*
D12*
X175293750Y-105525000D03*
D13*
X171743750Y-105525000D03*
D12*
X181643750Y-108065000D03*
D13*
X185193750Y-108065000D03*
%TD*%
D11*
%TO.C,SW233*%
X146083750Y-131560000D03*
D10*
X141003750Y-131560000D03*
D11*
X135923750Y-131560000D03*
D13*
X133643750Y-134100000D03*
D12*
X137193750Y-134100000D03*
X143543750Y-136640000D03*
D13*
X147093750Y-136640000D03*
%TD*%
D11*
%TO.C,SW239*%
X126398750Y-150610000D03*
D10*
X131478750Y-150610000D03*
D11*
X136558750Y-150610000D03*
D13*
X124118750Y-153150000D03*
D12*
X127668750Y-153150000D03*
D13*
X137568750Y-155690000D03*
D12*
X134018750Y-155690000D03*
%TD*%
D11*
%TO.C,SW230*%
X74011250Y-131560000D03*
D10*
X79091250Y-131560000D03*
D11*
X84171250Y-131560000D03*
D12*
X75281250Y-134100000D03*
D13*
X71731250Y-134100000D03*
D12*
X81631250Y-136640000D03*
D13*
X85181250Y-136640000D03*
%TD*%
D21*
%TO.C,J202*%
X106872500Y-41072500D03*
D22*
X109412500Y-41072500D03*
X111952500Y-41072500D03*
X114492500Y-41072500D03*
X117032500Y-41072500D03*
X119572500Y-41072500D03*
X122112500Y-41072500D03*
X124652500Y-41072500D03*
%TD*%
D20*
%TO.C,J205*%
X51310000Y-41866250D03*
%TD*%
D14*
%TO.C,LED234*%
X157328750Y-127230000D03*
X157328750Y-125730000D03*
X162778750Y-127230000D03*
D15*
X162778750Y-125730000D03*
%TD*%
D16*
%TO.C,LED241*%
X162778750Y-144780000D03*
X162778750Y-146280000D03*
X157328750Y-144780000D03*
D17*
X157328750Y-146280000D03*
%TD*%
D18*
%TO.C,D225*%
X112428750Y-108700000D03*
D19*
X112428750Y-116320000D03*
%TD*%
D18*
%TO.C,D210*%
X88616250Y-70600000D03*
D19*
X88616250Y-78220000D03*
%TD*%
D18*
%TO.C,D236*%
X50516250Y-146641250D03*
D19*
X50516250Y-154261250D03*
%TD*%
D18*
%TO.C,D215*%
X50516250Y-89650000D03*
D19*
X50516250Y-97270000D03*
%TD*%
D18*
%TO.C,D241*%
X150528750Y-146958750D03*
D19*
X150528750Y-154578750D03*
%TD*%
D11*
%TO.C,SW207*%
X184183750Y-50597500D03*
X174023750Y-50597500D03*
D10*
X179103750Y-50597500D03*
D13*
X171743750Y-53137500D03*
D12*
X175293750Y-53137500D03*
X181643750Y-55677500D03*
D13*
X185193750Y-55677500D03*
%TD*%
D16*
%TO.C,LED213*%
X162778750Y-68580000D03*
X162778750Y-70080000D03*
X157328750Y-68580000D03*
D17*
X157328750Y-70080000D03*
%TD*%
D18*
%TO.C,D202*%
X69566250Y-46787500D03*
D19*
X69566250Y-54407500D03*
%TD*%
D18*
%TO.C,D201*%
X50516250Y-46787500D03*
D19*
X50516250Y-54407500D03*
%TD*%
D14*
%TO.C,LED235*%
X176378750Y-136755000D03*
X176378750Y-135255000D03*
X181828750Y-136755000D03*
D15*
X181828750Y-135255000D03*
%TD*%
D14*
%TO.C,LED205*%
X138278750Y-46267500D03*
X138278750Y-44767500D03*
X143728750Y-46267500D03*
D15*
X143728750Y-44767500D03*
%TD*%
D18*
%TO.C,D223*%
X69566250Y-108700000D03*
D19*
X69566250Y-116320000D03*
%TD*%
D14*
%TO.C,LED218*%
X119228750Y-89130000D03*
X119228750Y-87630000D03*
X124678750Y-89130000D03*
D15*
X124678750Y-87630000D03*
%TD*%
D18*
%TO.C,D212*%
X131478750Y-70600000D03*
D19*
X131478750Y-78220000D03*
%TD*%
D10*
%TO.C,SW204*%
X121953750Y-50597500D03*
D11*
X127033750Y-50597500D03*
X116873750Y-50597500D03*
D12*
X118143750Y-53137500D03*
D13*
X114593750Y-53137500D03*
D12*
X124493750Y-55677500D03*
D13*
X128043750Y-55677500D03*
%TD*%
D18*
%TO.C,D222*%
X50516250Y-108541250D03*
D19*
X50516250Y-116161250D03*
%TD*%
D11*
%TO.C,SW237*%
X84171250Y-150610000D03*
D10*
X79091250Y-150610000D03*
D11*
X74011250Y-150610000D03*
D12*
X75281250Y-153150000D03*
D13*
X71731250Y-153150000D03*
X85181250Y-155690000D03*
D12*
X81631250Y-155690000D03*
%TD*%
D14*
%TO.C,LED231*%
X95416250Y-127230000D03*
X95416250Y-125730000D03*
X100866250Y-127230000D03*
D15*
X100866250Y-125730000D03*
%TD*%
D14*
%TO.C,LED204*%
X119228750Y-46267500D03*
X119228750Y-44767500D03*
X124678750Y-46267500D03*
D15*
X124678750Y-44767500D03*
%TD*%
D11*
%TO.C,SW227*%
X154973750Y-112510000D03*
X165133750Y-112510000D03*
D10*
X160053750Y-112510000D03*
D12*
X156243750Y-115050000D03*
D13*
X152693750Y-115050000D03*
X166143750Y-117590000D03*
D12*
X162593750Y-117590000D03*
%TD*%
D18*
%TO.C,D216*%
X69566250Y-89650000D03*
D19*
X69566250Y-97270000D03*
%TD*%
D18*
%TO.C,D203*%
X88616250Y-46787500D03*
D19*
X88616250Y-54407500D03*
%TD*%
D14*
%TO.C,LED229*%
X57316250Y-127230000D03*
X57316250Y-125730000D03*
X62766250Y-127230000D03*
D15*
X62766250Y-125730000D03*
%TD*%
D10*
%TO.C,SW241*%
X160053750Y-150610000D03*
D11*
X165133750Y-150610000D03*
X154973750Y-150610000D03*
D13*
X152693750Y-153150000D03*
D12*
X156243750Y-153150000D03*
D13*
X166143750Y-155690000D03*
D12*
X162593750Y-155690000D03*
%TD*%
D18*
%TO.C,D239*%
X121953750Y-146800000D03*
D19*
X121953750Y-154420000D03*
%TD*%
D11*
%TO.C,SW213*%
X154973750Y-74410000D03*
X165133750Y-74410000D03*
D10*
X160053750Y-74410000D03*
D12*
X156243750Y-76950000D03*
D13*
X152693750Y-76950000D03*
X166143750Y-79490000D03*
D12*
X162593750Y-79490000D03*
%TD*%
D16*
%TO.C,LED222*%
X62766250Y-106680000D03*
X62766250Y-108180000D03*
X57316250Y-106680000D03*
D17*
X57316250Y-108180000D03*
%TD*%
D16*
%TO.C,LED237*%
X81816250Y-144780000D03*
X81816250Y-146280000D03*
X76366250Y-144780000D03*
D17*
X76366250Y-146280000D03*
%TD*%
D11*
%TO.C,SW201*%
X54961250Y-50597500D03*
X65121250Y-50597500D03*
D10*
X60041250Y-50597500D03*
D13*
X52681250Y-53137500D03*
D12*
X56231250Y-53137500D03*
X62581250Y-55677500D03*
D13*
X66131250Y-55677500D03*
%TD*%
D11*
%TO.C,SW203*%
X103221250Y-50597500D03*
X93061250Y-50597500D03*
D10*
X98141250Y-50597500D03*
D12*
X94331250Y-53137500D03*
D13*
X90781250Y-53137500D03*
X104231250Y-55677500D03*
D12*
X100681250Y-55677500D03*
%TD*%
D14*
%TO.C,LED232*%
X119228750Y-127230000D03*
X119228750Y-125730000D03*
X124678750Y-127230000D03*
D15*
X124678750Y-125730000D03*
%TD*%
D21*
%TO.C,J201*%
X105285000Y-61710000D03*
D22*
X107825000Y-61710000D03*
X110365000Y-61710000D03*
X112905000Y-61710000D03*
X115445000Y-61710000D03*
X117985000Y-61710000D03*
X120525000Y-61710000D03*
X123065000Y-61710000D03*
%TD*%
D18*
%TO.C,D214*%
X169578750Y-70600000D03*
D19*
X169578750Y-78220000D03*
%TD*%
D20*
%TO.C,J204*%
X187835000Y-159341250D03*
%TD*%
D14*
%TO.C,LED203*%
X95416250Y-46267500D03*
X95416250Y-44767500D03*
X100866250Y-46267500D03*
D15*
X100866250Y-44767500D03*
%TD*%
D18*
%TO.C,D233*%
X131478750Y-127750000D03*
D19*
X131478750Y-135370000D03*
%TD*%
D10*
%TO.C,SW217*%
X98141250Y-93460000D03*
D11*
X93061250Y-93460000D03*
X103221250Y-93460000D03*
D13*
X90781250Y-96000000D03*
D12*
X94331250Y-96000000D03*
X100681250Y-98540000D03*
D13*
X104231250Y-98540000D03*
%TD*%
D16*
%TO.C,LED226*%
X143728750Y-106680000D03*
X143728750Y-108180000D03*
X138278750Y-106680000D03*
D17*
X138278750Y-108180000D03*
%TD*%
D18*
%TO.C,D230*%
X69566250Y-127591250D03*
D19*
X69566250Y-135211250D03*
%TD*%
D16*
%TO.C,LED208*%
X62766250Y-68580000D03*
X62766250Y-70080000D03*
X57316250Y-68580000D03*
D17*
X57316250Y-70080000D03*
%TD*%
D18*
%TO.C,D219*%
X131478750Y-89650000D03*
D19*
X131478750Y-97270000D03*
%TD*%
D11*
%TO.C,SW224*%
X93061250Y-112510000D03*
X103221250Y-112510000D03*
D10*
X98141250Y-112510000D03*
D12*
X94331250Y-115050000D03*
D13*
X90781250Y-115050000D03*
X104231250Y-117590000D03*
D12*
X100681250Y-117590000D03*
%TD*%
D18*
%TO.C,D238*%
X88616250Y-146800000D03*
D19*
X88616250Y-154420000D03*
%TD*%
D14*
%TO.C,LED221*%
X176378750Y-98655000D03*
X176378750Y-97155000D03*
X181828750Y-98655000D03*
D15*
X181828750Y-97155000D03*
%TD*%
D11*
%TO.C,SW236*%
X65121250Y-150610000D03*
D10*
X60041250Y-150610000D03*
D11*
X54961250Y-150610000D03*
D12*
X56231250Y-153150000D03*
D13*
X52681250Y-153150000D03*
D12*
X62581250Y-155690000D03*
D13*
X66131250Y-155690000D03*
%TD*%
D14*
%TO.C,LED215*%
X57316250Y-89130000D03*
X57316250Y-87630000D03*
X62766250Y-89130000D03*
D15*
X62766250Y-87630000D03*
%TD*%
D10*
%TO.C,SW238*%
X98141250Y-150610000D03*
D11*
X93061250Y-150610000D03*
X103221250Y-150610000D03*
D13*
X90781250Y-153150000D03*
D12*
X94331250Y-153150000D03*
X100681250Y-155690000D03*
D13*
X104231250Y-155690000D03*
%TD*%
D14*
%TO.C,LED219*%
X138278750Y-89130000D03*
X138278750Y-87630000D03*
X143728750Y-89130000D03*
D15*
X143728750Y-87630000D03*
%TD*%
D16*
%TO.C,LED238*%
X100866250Y-144780000D03*
X100866250Y-146280000D03*
X95416250Y-144780000D03*
D17*
X95416250Y-146280000D03*
%TD*%
D20*
%TO.C,J206*%
X51310000Y-159341250D03*
%TD*%
D14*
%TO.C,LED202*%
X76366250Y-46267500D03*
X76366250Y-44767500D03*
X81816250Y-46267500D03*
D15*
X81816250Y-44767500D03*
%TD*%
D18*
%TO.C,D204*%
X112428750Y-46787500D03*
D19*
X112428750Y-54407500D03*
%TD*%
D16*
%TO.C,LED211*%
X124678750Y-68580000D03*
X124678750Y-70080000D03*
X119228750Y-68580000D03*
D17*
X119228750Y-70080000D03*
%TD*%
D11*
%TO.C,SW225*%
X116873750Y-112510000D03*
X127033750Y-112510000D03*
D10*
X121953750Y-112510000D03*
D13*
X114593750Y-115050000D03*
D12*
X118143750Y-115050000D03*
X124493750Y-117590000D03*
D13*
X128043750Y-117590000D03*
%TD*%
D18*
%TO.C,D207*%
X169578750Y-46787500D03*
D19*
X169578750Y-54407500D03*
%TD*%
D18*
%TO.C,D220*%
X150528750Y-89650000D03*
D19*
X150528750Y-97270000D03*
%TD*%
D18*
%TO.C,D206*%
X150528750Y-46787500D03*
D19*
X150528750Y-54407500D03*
%TD*%
D11*
%TO.C,SW222*%
X65121250Y-112510000D03*
D10*
X60041250Y-112510000D03*
D11*
X54961250Y-112510000D03*
D13*
X52681250Y-115050000D03*
D12*
X56231250Y-115050000D03*
D13*
X66131250Y-117590000D03*
D12*
X62581250Y-117590000D03*
%TD*%
D10*
%TO.C,SW220*%
X160053750Y-93460000D03*
D11*
X165133750Y-93460000D03*
X154973750Y-93460000D03*
D13*
X152693750Y-96000000D03*
D12*
X156243750Y-96000000D03*
X162593750Y-98540000D03*
D13*
X166143750Y-98540000D03*
%TD*%
D14*
%TO.C,LED206*%
X157328750Y-46267500D03*
X157328750Y-44767500D03*
X162778750Y-46267500D03*
D15*
X162778750Y-44767500D03*
%TD*%
D16*
%TO.C,LED239*%
X134203750Y-144780000D03*
X134203750Y-146280000D03*
X128753750Y-144780000D03*
D17*
X128753750Y-146280000D03*
%TD*%
D11*
%TO.C,SW229*%
X54961250Y-131560000D03*
D10*
X60041250Y-131560000D03*
D11*
X65121250Y-131560000D03*
D12*
X56231250Y-134100000D03*
D13*
X52681250Y-134100000D03*
X66131250Y-136640000D03*
D12*
X62581250Y-136640000D03*
%TD*%
D18*
%TO.C,D205*%
X131478750Y-46787500D03*
D19*
X131478750Y-54407500D03*
%TD*%
D18*
%TO.C,D224*%
X88616250Y-108700000D03*
D19*
X88616250Y-116320000D03*
%TD*%
D10*
%TO.C,SW235*%
X179103750Y-141085000D03*
D11*
X184183750Y-141085000D03*
X174023750Y-141085000D03*
D12*
X175293750Y-143625000D03*
D13*
X171743750Y-143625000D03*
D12*
X181643750Y-146165000D03*
D13*
X185193750Y-146165000D03*
%TD*%
D11*
%TO.C,SW212*%
X146083750Y-74410000D03*
X135923750Y-74410000D03*
D10*
X141003750Y-74410000D03*
D13*
X133643750Y-76950000D03*
D12*
X137193750Y-76950000D03*
D13*
X147093750Y-79490000D03*
D12*
X143543750Y-79490000D03*
%TD*%
D11*
%TO.C,SW208*%
X65121250Y-74410000D03*
D10*
X60041250Y-74410000D03*
D11*
X54961250Y-74410000D03*
D13*
X52681250Y-76950000D03*
D12*
X56231250Y-76950000D03*
X62581250Y-79490000D03*
D13*
X66131250Y-79490000D03*
%TD*%
D18*
%TO.C,D213*%
X150528750Y-70600000D03*
D19*
X150528750Y-78220000D03*
%TD*%
D11*
%TO.C,SW226*%
X135923750Y-112510000D03*
D10*
X141003750Y-112510000D03*
D11*
X146083750Y-112510000D03*
D13*
X133643750Y-115050000D03*
D12*
X137193750Y-115050000D03*
D13*
X147093750Y-117590000D03*
D12*
X143543750Y-117590000D03*
%TD*%
D18*
%TO.C,D227*%
X150528750Y-108700000D03*
D19*
X150528750Y-116320000D03*
%TD*%
D10*
%TO.C,SW219*%
X141003750Y-93460000D03*
D11*
X146083750Y-93460000D03*
X135923750Y-93460000D03*
D13*
X133643750Y-96000000D03*
D12*
X137193750Y-96000000D03*
X143543750Y-98540000D03*
D13*
X147093750Y-98540000D03*
%TD*%
D16*
%TO.C,LED214*%
X181828750Y-68580000D03*
X181828750Y-70080000D03*
X176378750Y-68580000D03*
D17*
X176378750Y-70080000D03*
%TD*%
D11*
%TO.C,SW234*%
X154973750Y-131560000D03*
D10*
X160053750Y-131560000D03*
D11*
X165133750Y-131560000D03*
D12*
X156243750Y-134100000D03*
D13*
X152693750Y-134100000D03*
D12*
X162593750Y-136640000D03*
D13*
X166143750Y-136640000D03*
%TD*%
M02*
