%TF.GenerationSoftware,KiCad,Pcbnew,(6.0.9)*%
%TF.CreationDate,2022-12-06T20:12:41+01:00*%
%TF.ProjectId,tekskey-rounded-num,74656b73-6b65-4792-9d72-6f756e646564,rev?*%
%TF.SameCoordinates,Original*%
%TF.FileFunction,Paste,Top*%
%TF.FilePolarity,Positive*%
%FSLAX46Y46*%
G04 Gerber Fmt 4.6, Leading zero omitted, Abs format (unit mm)*
G04 Created by KiCad (PCBNEW (6.0.9)) date 2022-12-06 20:12:41*
%MOMM*%
%LPD*%
G01*
G04 APERTURE LIST*
G04 Aperture macros list*
%AMRoundRect*
0 Rectangle with rounded corners*
0 $1 Rounding radius*
0 $2 $3 $4 $5 $6 $7 $8 $9 X,Y pos of 4 corners*
0 Add a 4 corners polygon primitive as box body*
4,1,4,$2,$3,$4,$5,$6,$7,$8,$9,$2,$3,0*
0 Add four circle primitives for the rounded corners*
1,1,$1+$1,$2,$3*
1,1,$1+$1,$4,$5*
1,1,$1+$1,$6,$7*
1,1,$1+$1,$8,$9*
0 Add four rect primitives between the rounded corners*
20,1,$1+$1,$2,$3,$4,$5,0*
20,1,$1+$1,$4,$5,$6,$7,0*
20,1,$1+$1,$6,$7,$8,$9,0*
20,1,$1+$1,$8,$9,$2,$3,0*%
%AMFreePoly0*
4,1,18,-0.410000,0.265000,0.000000,0.675000,0.328000,0.675000,0.359380,0.668758,0.385983,0.650983,0.403758,0.624380,0.410000,0.593000,0.410000,-0.593000,0.403758,-0.624380,0.385983,-0.650983,0.359380,-0.668758,0.328000,-0.675000,-0.328000,-0.675000,-0.359380,-0.668758,-0.385983,-0.650983,-0.403758,-0.624380,-0.410000,-0.593000,-0.410000,0.265000,-0.410000,0.265000,$1*%
G04 Aperture macros list end*
%ADD10RoundRect,0.250000X1.025000X1.000000X-1.025000X1.000000X-1.025000X-1.000000X1.025000X-1.000000X0*%
%ADD11RoundRect,0.082000X-0.593000X0.328000X-0.593000X-0.328000X0.593000X-0.328000X0.593000X0.328000X0*%
%ADD12FreePoly0,270.000000*%
%ADD13RoundRect,0.082000X0.593000X-0.328000X0.593000X0.328000X-0.593000X0.328000X-0.593000X-0.328000X0*%
%ADD14FreePoly0,90.000000*%
G04 APERTURE END LIST*
D10*
%TO.C,SW214*%
X171743750Y-76950000D03*
X185193750Y-79490000D03*
%TD*%
D11*
%TO.C,LED217*%
X95416250Y-89130000D03*
X95416250Y-87630000D03*
X100866250Y-89130000D03*
D12*
X100866250Y-87630000D03*
%TD*%
D13*
%TO.C,LED223*%
X81816250Y-106680000D03*
X81816250Y-108180000D03*
X76366250Y-106680000D03*
D14*
X76366250Y-108180000D03*
%TD*%
D10*
%TO.C,SW223*%
X71731250Y-115050000D03*
X85181250Y-117590000D03*
%TD*%
%TO.C,SW209*%
X71731250Y-76950000D03*
X85181250Y-79490000D03*
%TD*%
D13*
%TO.C,LED225*%
X124678750Y-106680000D03*
X124678750Y-108180000D03*
X119228750Y-106680000D03*
D14*
X119228750Y-108180000D03*
%TD*%
D13*
%TO.C,LED210*%
X100866250Y-68580000D03*
X100866250Y-70080000D03*
X95416250Y-68580000D03*
D14*
X95416250Y-70080000D03*
%TD*%
D11*
%TO.C,LED233*%
X138278750Y-127230000D03*
X138278750Y-125730000D03*
X143728750Y-127230000D03*
D12*
X143728750Y-125730000D03*
%TD*%
D13*
%TO.C,LED227*%
X162778750Y-106680000D03*
X162778750Y-108180000D03*
X157328750Y-106680000D03*
D14*
X157328750Y-108180000D03*
%TD*%
D11*
%TO.C,LED220*%
X157328750Y-89130000D03*
X157328750Y-87630000D03*
X162778750Y-89130000D03*
D12*
X162778750Y-87630000D03*
%TD*%
D10*
%TO.C,SW202*%
X71731250Y-53137500D03*
X85181250Y-55677500D03*
%TD*%
D13*
%TO.C,LED236*%
X62766250Y-144780000D03*
X62766250Y-146280000D03*
X57316250Y-144780000D03*
D14*
X57316250Y-146280000D03*
%TD*%
D10*
%TO.C,SW232*%
X114593750Y-134100000D03*
X128043750Y-136640000D03*
%TD*%
%TO.C,SW218*%
X114593750Y-96000000D03*
X128043750Y-98540000D03*
%TD*%
D11*
%TO.C,LED216*%
X76366250Y-89130000D03*
X76366250Y-87630000D03*
X81816250Y-89130000D03*
D12*
X81816250Y-87630000D03*
%TD*%
D11*
%TO.C,LED230*%
X76366250Y-127230000D03*
X76366250Y-125730000D03*
X81816250Y-127230000D03*
D12*
X81816250Y-125730000D03*
%TD*%
D10*
%TO.C,SW215*%
X52681250Y-96000000D03*
X66131250Y-98540000D03*
%TD*%
%TO.C,SW210*%
X90781250Y-76950000D03*
X104231250Y-79490000D03*
%TD*%
D11*
%TO.C,LED207*%
X176378750Y-46267500D03*
X176378750Y-44767500D03*
X181828750Y-46267500D03*
D12*
X181828750Y-44767500D03*
%TD*%
D10*
%TO.C,SW205*%
X133643750Y-53137500D03*
X147093750Y-55677500D03*
%TD*%
%TO.C,SW216*%
X71731250Y-96000000D03*
X85181250Y-98540000D03*
%TD*%
%TO.C,SW231*%
X90781250Y-134100000D03*
X104231250Y-136640000D03*
%TD*%
D13*
%TO.C,LED212*%
X143728750Y-68580000D03*
X143728750Y-70080000D03*
X138278750Y-68580000D03*
D14*
X138278750Y-70080000D03*
%TD*%
D10*
%TO.C,SW211*%
X114593750Y-76950000D03*
X128043750Y-79490000D03*
%TD*%
D13*
%TO.C,LED224*%
X100866250Y-106680000D03*
X100866250Y-108180000D03*
X95416250Y-106680000D03*
D14*
X95416250Y-108180000D03*
%TD*%
D13*
%TO.C,LED209*%
X81816250Y-68580000D03*
X81816250Y-70080000D03*
X76366250Y-68580000D03*
D14*
X76366250Y-70080000D03*
%TD*%
D10*
%TO.C,SW206*%
X152693750Y-53137500D03*
X166143750Y-55677500D03*
%TD*%
D11*
%TO.C,LED201*%
X57316250Y-46267500D03*
X57316250Y-44767500D03*
X62766250Y-46267500D03*
D12*
X62766250Y-44767500D03*
%TD*%
D10*
%TO.C,SW221*%
X171743750Y-105525000D03*
X185193750Y-108065000D03*
%TD*%
%TO.C,SW233*%
X133643750Y-134100000D03*
X147093750Y-136640000D03*
%TD*%
%TO.C,SW239*%
X124118750Y-153150000D03*
X137568750Y-155690000D03*
%TD*%
%TO.C,SW230*%
X71731250Y-134100000D03*
X85181250Y-136640000D03*
%TD*%
D11*
%TO.C,LED234*%
X157328750Y-127230000D03*
X157328750Y-125730000D03*
X162778750Y-127230000D03*
D12*
X162778750Y-125730000D03*
%TD*%
D13*
%TO.C,LED241*%
X162778750Y-144780000D03*
X162778750Y-146280000D03*
X157328750Y-144780000D03*
D14*
X157328750Y-146280000D03*
%TD*%
D10*
%TO.C,SW207*%
X171743750Y-53137500D03*
X185193750Y-55677500D03*
%TD*%
D13*
%TO.C,LED213*%
X162778750Y-68580000D03*
X162778750Y-70080000D03*
X157328750Y-68580000D03*
D14*
X157328750Y-70080000D03*
%TD*%
D11*
%TO.C,LED235*%
X176378750Y-136755000D03*
X176378750Y-135255000D03*
X181828750Y-136755000D03*
D12*
X181828750Y-135255000D03*
%TD*%
D11*
%TO.C,LED205*%
X138278750Y-46267500D03*
X138278750Y-44767500D03*
X143728750Y-46267500D03*
D12*
X143728750Y-44767500D03*
%TD*%
D11*
%TO.C,LED218*%
X119228750Y-89130000D03*
X119228750Y-87630000D03*
X124678750Y-89130000D03*
D12*
X124678750Y-87630000D03*
%TD*%
D10*
%TO.C,SW204*%
X114593750Y-53137500D03*
X128043750Y-55677500D03*
%TD*%
%TO.C,SW237*%
X71731250Y-153150000D03*
X85181250Y-155690000D03*
%TD*%
D11*
%TO.C,LED231*%
X95416250Y-127230000D03*
X95416250Y-125730000D03*
X100866250Y-127230000D03*
D12*
X100866250Y-125730000D03*
%TD*%
D11*
%TO.C,LED204*%
X119228750Y-46267500D03*
X119228750Y-44767500D03*
X124678750Y-46267500D03*
D12*
X124678750Y-44767500D03*
%TD*%
D10*
%TO.C,SW227*%
X152693750Y-115050000D03*
X166143750Y-117590000D03*
%TD*%
D11*
%TO.C,LED229*%
X57316250Y-127230000D03*
X57316250Y-125730000D03*
X62766250Y-127230000D03*
D12*
X62766250Y-125730000D03*
%TD*%
D10*
%TO.C,SW241*%
X152693750Y-153150000D03*
X166143750Y-155690000D03*
%TD*%
%TO.C,SW213*%
X152693750Y-76950000D03*
X166143750Y-79490000D03*
%TD*%
D13*
%TO.C,LED222*%
X62766250Y-106680000D03*
X62766250Y-108180000D03*
X57316250Y-106680000D03*
D14*
X57316250Y-108180000D03*
%TD*%
D13*
%TO.C,LED237*%
X81816250Y-144780000D03*
X81816250Y-146280000D03*
X76366250Y-144780000D03*
D14*
X76366250Y-146280000D03*
%TD*%
D10*
%TO.C,SW201*%
X52681250Y-53137500D03*
X66131250Y-55677500D03*
%TD*%
%TO.C,SW203*%
X90781250Y-53137500D03*
X104231250Y-55677500D03*
%TD*%
D11*
%TO.C,LED232*%
X119228750Y-127230000D03*
X119228750Y-125730000D03*
X124678750Y-127230000D03*
D12*
X124678750Y-125730000D03*
%TD*%
D11*
%TO.C,LED203*%
X95416250Y-46267500D03*
X95416250Y-44767500D03*
X100866250Y-46267500D03*
D12*
X100866250Y-44767500D03*
%TD*%
D10*
%TO.C,SW217*%
X90781250Y-96000000D03*
X104231250Y-98540000D03*
%TD*%
D13*
%TO.C,LED226*%
X143728750Y-106680000D03*
X143728750Y-108180000D03*
X138278750Y-106680000D03*
D14*
X138278750Y-108180000D03*
%TD*%
D13*
%TO.C,LED208*%
X62766250Y-68580000D03*
X62766250Y-70080000D03*
X57316250Y-68580000D03*
D14*
X57316250Y-70080000D03*
%TD*%
D10*
%TO.C,SW224*%
X90781250Y-115050000D03*
X104231250Y-117590000D03*
%TD*%
D11*
%TO.C,LED221*%
X176378750Y-98655000D03*
X176378750Y-97155000D03*
X181828750Y-98655000D03*
D12*
X181828750Y-97155000D03*
%TD*%
D10*
%TO.C,SW236*%
X52681250Y-153150000D03*
X66131250Y-155690000D03*
%TD*%
D11*
%TO.C,LED215*%
X57316250Y-89130000D03*
X57316250Y-87630000D03*
X62766250Y-89130000D03*
D12*
X62766250Y-87630000D03*
%TD*%
D10*
%TO.C,SW238*%
X90781250Y-153150000D03*
X104231250Y-155690000D03*
%TD*%
D11*
%TO.C,LED219*%
X138278750Y-89130000D03*
X138278750Y-87630000D03*
X143728750Y-89130000D03*
D12*
X143728750Y-87630000D03*
%TD*%
D13*
%TO.C,LED238*%
X100866250Y-144780000D03*
X100866250Y-146280000D03*
X95416250Y-144780000D03*
D14*
X95416250Y-146280000D03*
%TD*%
D11*
%TO.C,LED202*%
X76366250Y-46267500D03*
X76366250Y-44767500D03*
X81816250Y-46267500D03*
D12*
X81816250Y-44767500D03*
%TD*%
D13*
%TO.C,LED211*%
X124678750Y-68580000D03*
X124678750Y-70080000D03*
X119228750Y-68580000D03*
D14*
X119228750Y-70080000D03*
%TD*%
D10*
%TO.C,SW225*%
X114593750Y-115050000D03*
X128043750Y-117590000D03*
%TD*%
%TO.C,SW222*%
X52681250Y-115050000D03*
X66131250Y-117590000D03*
%TD*%
%TO.C,SW220*%
X152693750Y-96000000D03*
X166143750Y-98540000D03*
%TD*%
D11*
%TO.C,LED206*%
X157328750Y-46267500D03*
X157328750Y-44767500D03*
X162778750Y-46267500D03*
D12*
X162778750Y-44767500D03*
%TD*%
D13*
%TO.C,LED239*%
X134203750Y-144780000D03*
X134203750Y-146280000D03*
X128753750Y-144780000D03*
D14*
X128753750Y-146280000D03*
%TD*%
D10*
%TO.C,SW229*%
X52681250Y-134100000D03*
X66131250Y-136640000D03*
%TD*%
%TO.C,SW235*%
X171743750Y-143625000D03*
X185193750Y-146165000D03*
%TD*%
%TO.C,SW212*%
X133643750Y-76950000D03*
X147093750Y-79490000D03*
%TD*%
%TO.C,SW208*%
X52681250Y-76950000D03*
X66131250Y-79490000D03*
%TD*%
%TO.C,SW226*%
X133643750Y-115050000D03*
X147093750Y-117590000D03*
%TD*%
%TO.C,SW219*%
X133643750Y-96000000D03*
X147093750Y-98540000D03*
%TD*%
D13*
%TO.C,LED214*%
X181828750Y-68580000D03*
X181828750Y-70080000D03*
X176378750Y-68580000D03*
D14*
X176378750Y-70080000D03*
%TD*%
D10*
%TO.C,SW234*%
X152693750Y-134100000D03*
X166143750Y-136640000D03*
%TD*%
M02*
