M48
; DRILL file {KiCad 8.0.5} date 2024-10-08T22:30:30+0200
; FORMAT={-:-/ absolute / metric / decimal}
; #@! TF.CreationDate,2024-10-08T22:30:30+02:00
; #@! TF.GenerationSoftware,Kicad,Pcbnew,8.0.5
; #@! TF.FileFunction,NonPlated,1,2,NPTH
FMAT,2
METRIC
; #@! TA.AperFunction,NonPlated,NPTH,ComponentDrill
T1C0.800
; #@! TA.AperFunction,NonPlated,NPTH,ComponentDrill
T2C1.750
; #@! TA.AperFunction,NonPlated,NPTH,ComponentDrill
T3C3.988
%
G90
G05
T1
X47.923Y-24.737
X47.923Y-31.737
X123.527Y-24.737
X123.527Y-31.737
T2
X33.02Y-33.337
X33.02Y-57.15
X33.02Y-76.2
X33.02Y-95.25
X33.02Y-114.3
X33.02Y-133.35
X43.18Y-33.337
X43.18Y-57.15
X43.18Y-76.2
X43.18Y-95.25
X43.18Y-114.3
X43.18Y-133.35
X52.07Y-33.337
X52.07Y-57.15
X52.07Y-76.2
X52.07Y-95.25
X52.07Y-114.3
X52.07Y-133.35
X61.595Y-33.337
X62.23Y-33.337
X62.23Y-57.15
X62.23Y-76.2
X62.23Y-95.25
X62.23Y-114.3
X62.23Y-133.35
X71.12Y-57.15
X71.12Y-76.2
X71.12Y-95.25
X71.12Y-114.3
X71.12Y-133.35
X71.755Y-33.337
X80.645Y-33.337
X81.28Y-57.15
X81.28Y-76.2
X81.28Y-95.25
X81.28Y-114.3
X81.28Y-133.35
X90.17Y-57.15
X90.17Y-76.2
X90.17Y-95.25
X90.17Y-114.3
X90.17Y-133.35
X90.805Y-33.337
X99.695Y-33.337
X100.33Y-57.15
X100.33Y-76.2
X100.33Y-95.25
X100.33Y-114.3
X100.33Y-133.35
X109.22Y-33.337
X109.22Y-57.15
X109.22Y-76.2
X109.22Y-95.25
X109.22Y-114.3
X109.22Y-133.35
X109.855Y-33.337
X119.38Y-33.337
X119.38Y-57.15
X119.38Y-76.2
X119.38Y-95.25
X119.38Y-114.3
X119.38Y-133.35
X128.27Y-33.337
X128.27Y-57.15
X128.27Y-76.2
X128.27Y-95.25
X128.27Y-114.3
X128.27Y-133.35
X138.43Y-33.337
X138.43Y-57.15
X138.43Y-76.2
X138.43Y-95.25
X138.43Y-114.3
X138.43Y-133.35
T3
X38.1Y-33.337
X38.1Y-57.15
X38.1Y-76.2
X38.1Y-95.25
X38.1Y-114.3
X38.1Y-133.35
X57.15Y-33.337
X57.15Y-57.15
X57.15Y-76.2
X57.15Y-95.25
X57.15Y-114.3
X57.15Y-133.35
X66.675Y-33.337
X76.2Y-57.15
X76.2Y-76.2
X76.2Y-95.25
X76.2Y-114.3
X76.2Y-133.35
X85.725Y-33.337
X95.25Y-57.15
X95.25Y-76.2
X95.25Y-95.25
X95.25Y-114.3
X95.25Y-133.35
X104.775Y-33.337
X114.3Y-33.337
X114.3Y-57.15
X114.3Y-76.2
X114.3Y-95.25
X114.3Y-114.3
X114.3Y-133.35
X133.35Y-33.337
X133.35Y-57.15
X133.35Y-76.2
X133.35Y-95.25
X133.35Y-114.3
X133.35Y-133.35
M30
