G04 #@! TF.GenerationSoftware,KiCad,Pcbnew,8.0.5*
G04 #@! TF.CreationDate,2024-10-08T22:30:13+02:00*
G04 #@! TF.ProjectId,tekskey-v3-rounded,74656b73-6b65-4792-9d76-332d726f756e,rev?*
G04 #@! TF.SameCoordinates,Original*
G04 #@! TF.FileFunction,Legend,Top*
G04 #@! TF.FilePolarity,Positive*
%FSLAX46Y46*%
G04 Gerber Fmt 4.6, Leading zero omitted, Abs format (unit mm)*
G04 Created by KiCad (PCBNEW 8.0.5) date 2024-10-08 22:30:13*
%MOMM*%
%LPD*%
G01*
G04 APERTURE LIST*
%ADD10C,0.700000*%
%ADD11C,4.400000*%
%ADD12O,1.600000X1.600000*%
%ADD13R,1.600000X1.600000*%
%ADD14C,3.300000*%
%ADD15C,1.750000*%
%ADD16C,3.987800*%
%ADD17O,1.600000X2.000000*%
%ADD18C,0.800000*%
G04 APERTURE END LIST*
%LPC*%
D10*
X138571875Y-123825000D03*
X138088601Y-124991726D03*
X138088601Y-122658274D03*
X136921875Y-125475000D03*
D11*
X136921875Y-123825000D03*
D10*
X136921875Y-122175000D03*
X135755149Y-124991726D03*
X135755149Y-122658274D03*
X135271875Y-123825000D03*
X138571875Y-45243750D03*
X138088601Y-46410476D03*
X138088601Y-44077024D03*
X136921875Y-46893750D03*
D11*
X136921875Y-45243750D03*
D10*
X136921875Y-43593750D03*
X135755149Y-46410476D03*
X135755149Y-44077024D03*
X135271875Y-45243750D03*
X43321875Y-85725000D03*
X42838601Y-86891726D03*
X42838601Y-84558274D03*
X41671875Y-87375000D03*
D11*
X41671875Y-85725000D03*
D10*
X41671875Y-84075000D03*
X40505149Y-86891726D03*
X40505149Y-84558274D03*
X40021875Y-85725000D03*
X43321875Y-45243750D03*
X42838601Y-46410476D03*
X42838601Y-44077024D03*
X41671875Y-46893750D03*
D11*
X41671875Y-45243750D03*
D10*
X41671875Y-43593750D03*
X40505149Y-46410476D03*
X40505149Y-44077024D03*
X40021875Y-45243750D03*
X138571875Y-85725000D03*
X138088601Y-86891726D03*
X138088601Y-84558274D03*
X136921875Y-87375000D03*
D11*
X136921875Y-85725000D03*
D10*
X136921875Y-84075000D03*
X135755149Y-86891726D03*
X135755149Y-84558274D03*
X135271875Y-85725000D03*
X43321875Y-123825000D03*
X42838601Y-124991726D03*
X42838601Y-122658274D03*
X41671875Y-125475000D03*
D11*
X41671875Y-123825000D03*
D10*
X41671875Y-122175000D03*
X40505149Y-124991726D03*
X40505149Y-122658274D03*
X40021875Y-123825000D03*
D12*
X96069190Y-38528029D03*
D13*
X96069190Y-43608029D03*
D14*
X73660000Y-62230000D03*
X80010000Y-59690000D03*
D15*
X81280000Y-57150000D03*
D16*
X76200000Y-57150000D03*
D15*
X71120000Y-57150000D03*
D12*
X122634375Y-89455625D03*
D13*
X122634375Y-84375625D03*
D12*
X122634296Y-108505625D03*
D13*
X122634296Y-103425625D03*
D14*
X130810000Y-62230000D03*
X137160000Y-59690000D03*
D15*
X138430000Y-57150000D03*
D16*
X133350000Y-57150000D03*
D15*
X128270000Y-57150000D03*
D14*
X73660000Y-138430000D03*
X80010000Y-135890000D03*
D15*
X81280000Y-133350000D03*
D16*
X76200000Y-133350000D03*
D15*
X71120000Y-133350000D03*
D12*
X84534375Y-70405625D03*
D13*
X84534375Y-65325625D03*
D12*
X65467925Y-127562395D03*
D13*
X65467925Y-122482395D03*
D12*
X122634296Y-38536548D03*
D13*
X122634296Y-43616548D03*
D12*
X103584375Y-108505625D03*
D13*
X103584375Y-103425625D03*
D14*
X111760000Y-38417500D03*
X118110000Y-35877500D03*
D15*
X119380000Y-33337500D03*
D16*
X114300000Y-33337500D03*
D15*
X109220000Y-33337500D03*
D12*
X46434375Y-108505625D03*
D13*
X46434375Y-103425625D03*
D12*
X65484344Y-89455625D03*
D13*
X65484344Y-84375625D03*
D14*
X54610000Y-38417500D03*
X60960000Y-35877500D03*
D15*
X62230000Y-33337500D03*
D16*
X57150000Y-33337500D03*
D15*
X52070000Y-33337500D03*
D14*
X73660000Y-119380000D03*
X80010000Y-116840000D03*
D15*
X81280000Y-114300000D03*
D16*
X76200000Y-114300000D03*
D15*
X71120000Y-114300000D03*
D14*
X92710000Y-138430000D03*
X99060000Y-135890000D03*
D15*
X100330000Y-133350000D03*
D16*
X95250000Y-133350000D03*
D15*
X90170000Y-133350000D03*
D12*
X65484344Y-108505625D03*
D13*
X65484344Y-103425625D03*
D14*
X111760000Y-119380000D03*
X118110000Y-116840000D03*
D15*
X119380000Y-114300000D03*
D16*
X114300000Y-114300000D03*
D15*
X109220000Y-114300000D03*
D12*
X46434360Y-51792164D03*
D13*
X46434360Y-46712164D03*
D14*
X54610000Y-138430000D03*
X60960000Y-135890000D03*
D15*
X62230000Y-133350000D03*
D16*
X57150000Y-133350000D03*
D15*
X52070000Y-133350000D03*
D12*
X141684280Y-38536548D03*
D13*
X141684280Y-43616548D03*
D14*
X73660000Y-81280000D03*
X80010000Y-78740000D03*
D15*
X81280000Y-76200000D03*
D16*
X76200000Y-76200000D03*
D15*
X71120000Y-76200000D03*
D14*
X83185000Y-38417500D03*
X89535000Y-35877500D03*
D15*
X90805000Y-33337500D03*
D16*
X85725000Y-33337500D03*
D15*
X80645000Y-33337500D03*
D17*
X121227264Y-33337492D03*
X125827264Y-34437492D03*
X121227264Y-26337492D03*
X121227264Y-29337492D03*
D18*
X123527264Y-24737492D03*
X123527264Y-31737492D03*
D14*
X111760000Y-100330000D03*
X118110000Y-97790000D03*
D15*
X119380000Y-95250000D03*
D16*
X114300000Y-95250000D03*
D15*
X109220000Y-95250000D03*
D12*
X85724952Y-54173412D03*
D13*
X85724952Y-49093412D03*
D14*
X92710000Y-100330000D03*
X99060000Y-97790000D03*
D15*
X100330000Y-95250000D03*
D16*
X95250000Y-95250000D03*
D15*
X90170000Y-95250000D03*
D12*
X46434375Y-127555625D03*
D13*
X46434375Y-122475625D03*
D14*
X35560000Y-62230000D03*
X41910000Y-59690000D03*
D15*
X43180000Y-57150000D03*
D16*
X38100000Y-57150000D03*
D15*
X33020000Y-57150000D03*
D12*
X122634296Y-127555625D03*
D13*
X122634296Y-122475625D03*
D12*
X84534375Y-127555625D03*
D13*
X84534375Y-122475625D03*
D14*
X92710000Y-62230000D03*
X99060000Y-59690000D03*
D15*
X100330000Y-57150000D03*
D16*
X95250000Y-57150000D03*
D15*
X90170000Y-57150000D03*
D14*
X35560000Y-81280000D03*
X41910000Y-78740000D03*
D15*
X43180000Y-76200000D03*
D16*
X38100000Y-76200000D03*
D15*
X33020000Y-76200000D03*
D12*
X65484344Y-51792164D03*
D13*
X65484344Y-46712164D03*
D12*
X141684280Y-89455625D03*
D13*
X141684280Y-84375625D03*
D14*
X111760000Y-138430000D03*
X118110000Y-135890000D03*
D15*
X119380000Y-133350000D03*
D16*
X114300000Y-133350000D03*
D15*
X109220000Y-133350000D03*
D12*
X141684280Y-127555625D03*
D13*
X141684280Y-122475625D03*
D12*
X65484375Y-70405625D03*
D13*
X65484375Y-65325625D03*
D14*
X54610000Y-100330000D03*
X60960000Y-97790000D03*
D15*
X62230000Y-95250000D03*
D16*
X57150000Y-95250000D03*
D15*
X52070000Y-95250000D03*
D14*
X92710000Y-119380000D03*
X99060000Y-116840000D03*
D15*
X100330000Y-114300000D03*
D16*
X95250000Y-114300000D03*
D15*
X90170000Y-114300000D03*
D14*
X130810000Y-38417500D03*
X137160000Y-35877500D03*
D15*
X138430000Y-33337500D03*
D16*
X133350000Y-33337500D03*
D15*
X128270000Y-33337500D03*
D12*
X75009336Y-39727172D03*
D13*
X75009336Y-44807172D03*
D14*
X35560000Y-138430000D03*
X41910000Y-135890000D03*
D15*
X43180000Y-133350000D03*
D16*
X38100000Y-133350000D03*
D15*
X33020000Y-133350000D03*
D12*
X46434375Y-70405625D03*
D13*
X46434375Y-65325625D03*
D14*
X111760000Y-62230000D03*
X118110000Y-59690000D03*
D15*
X119380000Y-57150000D03*
D16*
X114300000Y-57150000D03*
D15*
X109220000Y-57150000D03*
D14*
X92710000Y-81280000D03*
X99060000Y-78740000D03*
D15*
X100330000Y-76200000D03*
D16*
X95250000Y-76200000D03*
D15*
X90170000Y-76200000D03*
D12*
X46434360Y-89455625D03*
D13*
X46434360Y-84375625D03*
D14*
X111760000Y-81280000D03*
X118110000Y-78740000D03*
D15*
X119380000Y-76200000D03*
D16*
X114300000Y-76200000D03*
D15*
X109220000Y-76200000D03*
D14*
X130810000Y-81280000D03*
X137160000Y-78740000D03*
D15*
X138430000Y-76200000D03*
D16*
X133350000Y-76200000D03*
D15*
X128270000Y-76200000D03*
D14*
X102235000Y-38417500D03*
X108585000Y-35877500D03*
D15*
X109855000Y-33337500D03*
D16*
X104775000Y-33337500D03*
D15*
X99695000Y-33337500D03*
D12*
X141684375Y-70405625D03*
D13*
X141684375Y-65325625D03*
D14*
X130810000Y-100330000D03*
X137160000Y-97790000D03*
D15*
X138430000Y-95250000D03*
D16*
X133350000Y-95250000D03*
D15*
X128270000Y-95250000D03*
D14*
X35560000Y-119380000D03*
X41910000Y-116840000D03*
D15*
X43180000Y-114300000D03*
D16*
X38100000Y-114300000D03*
D15*
X33020000Y-114300000D03*
D12*
X141684375Y-108505625D03*
D13*
X141684375Y-103425625D03*
D14*
X54610000Y-119380000D03*
X60960000Y-116840000D03*
D15*
X62230000Y-114300000D03*
D16*
X57150000Y-114300000D03*
D15*
X52070000Y-114300000D03*
D12*
X103584375Y-51355625D03*
D13*
X103584375Y-46275625D03*
D14*
X54610000Y-81280000D03*
X60960000Y-78740000D03*
D15*
X62230000Y-76200000D03*
D16*
X57150000Y-76200000D03*
D15*
X52070000Y-76200000D03*
D14*
X73660000Y-100330000D03*
X80010000Y-97790000D03*
D15*
X81280000Y-95250000D03*
D16*
X76200000Y-95250000D03*
D15*
X71120000Y-95250000D03*
D12*
X103584375Y-89455625D03*
D13*
X103584375Y-84375625D03*
D12*
X141684375Y-51792164D03*
D13*
X141684375Y-46712164D03*
D12*
X103584375Y-70405625D03*
D13*
X103584375Y-65325625D03*
D14*
X130810000Y-138430000D03*
X137160000Y-135890000D03*
D15*
X138430000Y-133350000D03*
D16*
X133350000Y-133350000D03*
D15*
X128270000Y-133350000D03*
D14*
X35560000Y-100330000D03*
X41910000Y-97790000D03*
D15*
X43180000Y-95250000D03*
D16*
X38100000Y-95250000D03*
D15*
X33020000Y-95250000D03*
D12*
X122634375Y-70405625D03*
D13*
X122634375Y-65325625D03*
D17*
X45622640Y-33337492D03*
X50222640Y-34437492D03*
X45622640Y-26337492D03*
X45622640Y-29337492D03*
D18*
X47922640Y-24737492D03*
X47922640Y-31737492D03*
D14*
X35560000Y-38417500D03*
X41910000Y-35877500D03*
D15*
X43180000Y-33337500D03*
D16*
X38100000Y-33337500D03*
D15*
X33020000Y-33337500D03*
D14*
X54610000Y-62230000D03*
X60960000Y-59690000D03*
D15*
X62230000Y-57150000D03*
D16*
X57150000Y-57150000D03*
D15*
X52070000Y-57150000D03*
D14*
X64135000Y-38417500D03*
X70485000Y-35877500D03*
D15*
X71755000Y-33337500D03*
D16*
X66675000Y-33337500D03*
D15*
X61595000Y-33337500D03*
D12*
X84534328Y-108505625D03*
D13*
X84534328Y-103425625D03*
D12*
X46434360Y-38536548D03*
D13*
X46434360Y-43616548D03*
D12*
X122634375Y-52546228D03*
D13*
X122634375Y-47466228D03*
D12*
X84534375Y-89455625D03*
D13*
X84534375Y-84375625D03*
D14*
X130810000Y-119380000D03*
X137160000Y-116840000D03*
D15*
X138430000Y-114300000D03*
D16*
X133350000Y-114300000D03*
D15*
X128270000Y-114300000D03*
D12*
X103584375Y-127555625D03*
D13*
X103584375Y-122475625D03*
%LPD*%
M02*
