M48
; DRILL file {KiCad 8.0.5} date 2024-10-08T22:30:30+0200
; FORMAT={-:-/ absolute / metric / decimal}
; #@! TF.CreationDate,2024-10-08T22:30:30+02:00
; #@! TF.GenerationSoftware,Kicad,Pcbnew,8.0.5
; #@! TF.FileFunction,Plated,1,2,PTH
FMAT,2
METRIC
; #@! TA.AperFunction,Plated,PTH,ViaDrill
T1C0.300
; #@! TA.AperFunction,Plated,PTH,ComponentDrill
T2C0.400
; #@! TA.AperFunction,Plated,PTH,ComponentDrill
T3C0.800
; #@! TA.AperFunction,Plated,PTH,ComponentDrill
T4C0.900
; #@! TA.AperFunction,Plated,PTH,ComponentDrill
T5C1.000
; #@! TA.AperFunction,Plated,PTH,ComponentDrill
T6C2.200
; #@! TA.AperFunction,Plated,PTH,ComponentDrill
T7C3.000
%
G90
G05
T1
X30.361Y-29.766
X35.719Y-30.956
X40.779Y-25.301
X43.16Y-73.223
X43.16Y-111.621
X50.304Y-26.194
X50.304Y-54.471
X50.304Y-59.234
X50.304Y-68.461
X50.304Y-92.571
X50.304Y-97.631
X50.304Y-106.263
X50.304Y-131.266
X51.867Y-27.842
X52.685Y-30.659
X57.745Y-39.588
X61.615Y-27.384
X62.21Y-28.873
X65.187Y-41.374
X67.866Y-76.2
X68.759Y-50.304
X68.759Y-87.511
X68.759Y-114.895
X68.759Y-125.313
X68.759Y-135.136
X69.056Y-26.491
X72.118Y-26.794
X76.2Y-27.384
X78.284Y-120.848
X81.26Y-73.223
X81.26Y-82.451
X81.26Y-111.621
X88.404Y-59.234
X88.404Y-68.461
X88.404Y-92.571
X88.404Y-97.631
X88.404Y-106.263
X88.404Y-131.266
X89.138Y-25.737
X90.487Y-50.304
X95.845Y-29.541
X96.651Y-26.999
X99.119Y-46.137
X99.417Y-29.541
X107.156Y-114.895
X107.156Y-125.313
X107.156Y-135.136
X108.942Y-50.304
X108.942Y-73.819
X108.942Y-87.511
X109.24Y-27.384
X110.43Y-28.873
X111.919Y-44.946
X116.086Y-82.451
X117.028Y-26.789
X119.36Y-73.223
X119.36Y-111.919
X119.36Y-120.848
X119.418Y-49.294
X125.016Y-26.789
X126.206Y-55.066
X126.206Y-59.234
X126.206Y-68.461
X126.206Y-92.571
X126.206Y-97.631
X126.206Y-106.263
X126.206Y-131.266
X129.183Y-25.301
X136.069Y-67.568
X136.075Y-105.668
X137.219Y-139.601
X138.41Y-40.481
X138.41Y-73.819
X138.41Y-111.621
X138.921Y-50.059
X140.19Y-55.066
X140.196Y-93.166
X141.387Y-31.552
T2
X40.022Y-45.244
X40.022Y-85.725
X40.022Y-123.825
X40.505Y-44.077
X40.505Y-46.41
X40.505Y-84.558
X40.505Y-86.892
X40.505Y-122.658
X40.505Y-124.992
X41.672Y-43.594
X41.672Y-46.894
X41.672Y-84.075
X41.672Y-87.375
X41.672Y-122.175
X41.672Y-125.475
X42.839Y-44.077
X42.839Y-46.41
X42.839Y-84.558
X42.839Y-86.892
X42.839Y-122.658
X42.839Y-124.992
X43.322Y-45.244
X43.322Y-85.725
X43.322Y-123.825
X135.272Y-45.244
X135.272Y-85.725
X135.272Y-123.825
X135.755Y-44.077
X135.755Y-46.41
X135.755Y-84.558
X135.755Y-86.892
X135.755Y-122.658
X135.755Y-124.992
X136.922Y-43.594
X136.922Y-46.894
X136.922Y-84.075
X136.922Y-87.375
X136.922Y-122.175
X136.922Y-125.475
X138.089Y-44.077
X138.089Y-46.41
X138.089Y-84.558
X138.089Y-86.892
X138.089Y-122.658
X138.089Y-124.992
X138.572Y-45.244
X138.572Y-85.725
X138.572Y-123.825
T3
X46.434Y-38.537
X46.434Y-43.617
X46.434Y-46.712
X46.434Y-51.792
X46.434Y-84.376
X46.434Y-89.456
X46.434Y-65.326
X46.434Y-70.406
X46.434Y-103.426
X46.434Y-108.506
X46.434Y-122.476
X46.434Y-127.556
X65.468Y-122.482
X65.468Y-127.562
X65.484Y-46.712
X65.484Y-51.792
X65.484Y-84.376
X65.484Y-89.456
X65.484Y-103.426
X65.484Y-108.506
X65.484Y-65.326
X65.484Y-70.406
X75.009Y-39.727
X75.009Y-44.807
X84.534Y-103.426
X84.534Y-108.506
X84.534Y-65.326
X84.534Y-70.406
X84.534Y-84.376
X84.534Y-89.456
X84.534Y-122.476
X84.534Y-127.556
X85.725Y-49.093
X85.725Y-54.173
X96.069Y-38.528
X96.069Y-43.608
X103.584Y-46.276
X103.584Y-51.356
X103.584Y-65.326
X103.584Y-70.406
X103.584Y-84.376
X103.584Y-89.456
X103.584Y-103.426
X103.584Y-108.506
X103.584Y-122.476
X103.584Y-127.556
X122.634Y-38.537
X122.634Y-43.617
X122.634Y-103.426
X122.634Y-108.506
X122.634Y-122.476
X122.634Y-127.556
X122.634Y-47.466
X122.634Y-52.546
X122.634Y-65.326
X122.634Y-70.406
X122.634Y-84.376
X122.634Y-89.456
X141.684Y-38.537
X141.684Y-43.617
X141.684Y-84.376
X141.684Y-89.456
X141.684Y-122.476
X141.684Y-127.556
X141.684Y-46.712
X141.684Y-51.792
X141.684Y-65.326
X141.684Y-70.406
X141.684Y-103.426
X141.684Y-108.506
T5
X78.105Y-25.737
X78.105Y-28.277
X78.105Y-30.817
X78.105Y-33.357
X78.105Y-35.897
X78.105Y-40.977
X78.105Y-43.517
X78.105Y-46.057
X80.645Y-46.057
X83.185Y-46.057
X85.725Y-46.057
X88.265Y-46.057
X90.805Y-46.057
X93.345Y-25.737
X93.345Y-28.277
X93.345Y-30.817
X93.345Y-33.357
X93.345Y-38.437
X93.345Y-40.977
X93.345Y-43.517
X93.345Y-46.057
T6
X41.672Y-45.244
X41.672Y-85.725
X41.672Y-123.825
X136.922Y-45.244
X136.922Y-85.725
X136.922Y-123.825
T7
X35.56Y-38.417
X35.56Y-62.23
X35.56Y-81.28
X35.56Y-100.33
X35.56Y-119.38
X35.56Y-138.43
X41.91Y-35.877
X41.91Y-59.69
X41.91Y-78.74
X41.91Y-97.79
X41.91Y-116.84
X41.91Y-135.89
X54.61Y-38.417
X54.61Y-62.23
X54.61Y-81.28
X54.61Y-100.33
X54.61Y-119.38
X54.61Y-138.43
X60.96Y-35.877
X60.96Y-59.69
X60.96Y-78.74
X60.96Y-97.79
X60.96Y-116.84
X60.96Y-135.89
X64.135Y-38.417
X70.485Y-35.877
X73.66Y-62.23
X73.66Y-81.28
X73.66Y-100.33
X73.66Y-119.38
X73.66Y-138.43
X80.01Y-59.69
X80.01Y-78.74
X80.01Y-97.79
X80.01Y-116.84
X80.01Y-135.89
X83.185Y-38.417
X89.535Y-35.877
X92.71Y-62.23
X92.71Y-81.28
X92.71Y-100.33
X92.71Y-119.38
X92.71Y-138.43
X99.06Y-59.69
X99.06Y-78.74
X99.06Y-97.79
X99.06Y-116.84
X99.06Y-135.89
X102.235Y-38.417
X108.585Y-35.877
X111.76Y-38.417
X111.76Y-62.23
X111.76Y-81.28
X111.76Y-100.33
X111.76Y-119.38
X111.76Y-138.43
X118.11Y-35.877
X118.11Y-59.69
X118.11Y-78.74
X118.11Y-97.79
X118.11Y-116.84
X118.11Y-135.89
X130.81Y-38.417
X130.81Y-62.23
X130.81Y-81.28
X130.81Y-100.33
X130.81Y-119.38
X130.81Y-138.43
X137.16Y-35.877
X137.16Y-59.69
X137.16Y-78.74
X137.16Y-97.79
X137.16Y-116.84
X137.16Y-135.89
T4
X45.623Y-26.537G85X45.623Y-26.137
G05
X45.623Y-29.537G85X45.623Y-29.137
G05
X45.623Y-33.537G85X45.623Y-33.137
G05
X50.223Y-34.637G85X50.223Y-34.237
G05
X121.227Y-26.537G85X121.227Y-26.137
G05
X121.227Y-29.537G85X121.227Y-29.137
G05
X121.227Y-33.537G85X121.227Y-33.137
G05
X125.827Y-34.637G85X125.827Y-34.237
G05
M30
