G04 #@! TF.GenerationSoftware,KiCad,Pcbnew,8.0.5*
G04 #@! TF.CreationDate,2024-10-08T22:30:13+02:00*
G04 #@! TF.ProjectId,tekskey-v3-rounded,74656b73-6b65-4792-9d76-332d726f756e,rev?*
G04 #@! TF.SameCoordinates,Original*
G04 #@! TF.FileFunction,Profile,NP*
%FSLAX46Y46*%
G04 Gerber Fmt 4.6, Leading zero omitted, Abs format (unit mm)*
G04 Created by KiCad (PCBNEW 8.0.5) date 2024-10-08 22:30:13*
%MOMM*%
%LPD*%
G01*
G04 APERTURE LIST*
G04 #@! TA.AperFunction,Profile*
%ADD10C,0.050000*%
G04 #@! TD*
G04 #@! TA.AperFunction,Profile*
%ADD11C,0.100000*%
G04 #@! TD*
G04 APERTURE END LIST*
D10*
X28575000Y-23812500D02*
X142875000Y-23812500D01*
X142875000Y-142875000D01*
X28575000Y-142875000D01*
X28575000Y-23812500D01*
D11*
X116049484Y-110139719D02*
G75*
G02*
X115999985Y-109922841I450116J216819D01*
G01*
X116049484Y-110139718D02*
G75*
G02*
X115346710Y-110788301I-450514J-216882D01*
G01*
X115999999Y-108517156D02*
G75*
G02*
X116049486Y-108300280I499901J16D01*
G01*
X115346711Y-107651701D02*
G75*
G02*
X116049483Y-108300279I252259J-431699D01*
G01*
X115346711Y-107651701D02*
G75*
G02*
X115094453Y-107720000I-252261J431711D01*
G01*
X115094452Y-110719999D02*
G75*
G02*
X115346711Y-110788298I-2J-500011D01*
G01*
X113505547Y-107719999D02*
G75*
G02*
X113253289Y-107651700I3J500009D01*
G01*
X113253290Y-110788298D02*
G75*
G02*
X113505548Y-110719999I252261J-431710D01*
G01*
X113253289Y-110788296D02*
G75*
G02*
X112550516Y-110139719I-252258J431700D01*
G01*
X112600001Y-109922842D02*
G75*
G02*
X112550516Y-110139719I-499990J-1D01*
G01*
X112550516Y-108300279D02*
G75*
G02*
X113253289Y-107651700I450515J216878D01*
G01*
X112550516Y-108300279D02*
G75*
G02*
X112600001Y-108517157I-450505J-216876D01*
G01*
X115999999Y-109922841D02*
X115999999Y-108517157D01*
X115094453Y-107720000D02*
X113505548Y-107720000D01*
X113505548Y-110719999D02*
X115094452Y-110719999D01*
X112600001Y-108517157D02*
X112600001Y-109922841D01*
X135099484Y-91089721D02*
G75*
G02*
X135049987Y-90872843I451016J217021D01*
G01*
X135099484Y-91089721D02*
G75*
G02*
X134396711Y-91738300I-450514J-216879D01*
G01*
X135049999Y-89467158D02*
G75*
G02*
X135099479Y-89250278I499801J58D01*
G01*
X134396711Y-88601704D02*
G75*
G02*
X135099480Y-89250279I252259J-431696D01*
G01*
X134396710Y-88601702D02*
G75*
G02*
X134144452Y-88670000I-252260J431712D01*
G01*
X134144453Y-91670001D02*
G75*
G02*
X134396711Y-91738300I-3J-500009D01*
G01*
X132555548Y-88670001D02*
G75*
G02*
X132303289Y-88601702I2J500009D01*
G01*
X132303289Y-91738299D02*
G75*
G02*
X132555547Y-91670000I252261J-431710D01*
G01*
X132303289Y-91738299D02*
G75*
G02*
X131600515Y-91089721I-252259J431700D01*
G01*
X131650001Y-90872844D02*
G75*
G02*
X131600516Y-91089721I-499990J-1D01*
G01*
X131600516Y-89250282D02*
G75*
G02*
X132303289Y-88601702I450514J216880D01*
G01*
X131600516Y-89250281D02*
G75*
G02*
X131650001Y-89467159I-450505J-216876D01*
G01*
X135049999Y-90872843D02*
X135049999Y-89467159D01*
X134144452Y-88670001D02*
X132555548Y-88670001D01*
X132555547Y-91670000D02*
X134144452Y-91670000D01*
X131650001Y-89467159D02*
X131650001Y-90872843D01*
X77949484Y-110139719D02*
G75*
G02*
X77899985Y-109922841I450116J216819D01*
G01*
X77949484Y-110139718D02*
G75*
G02*
X77246710Y-110788301I-450514J-216882D01*
G01*
X77899999Y-108517156D02*
G75*
G02*
X77949486Y-108300280I499901J16D01*
G01*
X77246711Y-107651701D02*
G75*
G02*
X77949483Y-108300279I252259J-431699D01*
G01*
X77246711Y-107651701D02*
G75*
G02*
X76994453Y-107720000I-252261J431711D01*
G01*
X76994452Y-110719999D02*
G75*
G02*
X77246711Y-110788298I-2J-500011D01*
G01*
X75405547Y-107719999D02*
G75*
G02*
X75153289Y-107651700I3J500009D01*
G01*
X75153290Y-110788298D02*
G75*
G02*
X75405548Y-110719999I252261J-431710D01*
G01*
X75153289Y-110788296D02*
G75*
G02*
X74450516Y-110139719I-252258J431700D01*
G01*
X74500001Y-109922842D02*
G75*
G02*
X74450516Y-110139719I-499990J-1D01*
G01*
X74450516Y-108300279D02*
G75*
G02*
X75153289Y-107651700I450515J216878D01*
G01*
X74450516Y-108300279D02*
G75*
G02*
X74500001Y-108517157I-450505J-216876D01*
G01*
X77899999Y-109922841D02*
X77899999Y-108517157D01*
X76994453Y-107720000D02*
X75405548Y-107720000D01*
X75405548Y-110719999D02*
X76994452Y-110719999D01*
X74500001Y-108517157D02*
X74500001Y-109922841D01*
X116049484Y-29177219D02*
G75*
G02*
X115999985Y-28960341I450116J216819D01*
G01*
X116049484Y-29177218D02*
G75*
G02*
X115346710Y-29825801I-450514J-216882D01*
G01*
X115999999Y-27554656D02*
G75*
G02*
X116049486Y-27337780I499901J16D01*
G01*
X115346711Y-26689201D02*
G75*
G02*
X116049483Y-27337779I252259J-431699D01*
G01*
X115346711Y-26689201D02*
G75*
G02*
X115094453Y-26757500I-252261J431711D01*
G01*
X115094452Y-29757499D02*
G75*
G02*
X115346711Y-29825798I-2J-500011D01*
G01*
X113505547Y-26757499D02*
G75*
G02*
X113253289Y-26689200I3J500009D01*
G01*
X113253290Y-29825798D02*
G75*
G02*
X113505548Y-29757499I252261J-431710D01*
G01*
X113253289Y-29825796D02*
G75*
G02*
X112550516Y-29177219I-252258J431700D01*
G01*
X112600001Y-28960342D02*
G75*
G02*
X112550516Y-29177219I-499990J-1D01*
G01*
X112550516Y-27337779D02*
G75*
G02*
X113253289Y-26689200I450515J216878D01*
G01*
X112550516Y-27337779D02*
G75*
G02*
X112600001Y-27554657I-450505J-216876D01*
G01*
X115999999Y-28960341D02*
X115999999Y-27554657D01*
X115094453Y-26757500D02*
X113505548Y-26757500D01*
X113505548Y-29757499D02*
X115094452Y-29757499D01*
X112600001Y-27554657D02*
X112600001Y-28960341D01*
X58899484Y-91089721D02*
G75*
G02*
X58849987Y-90872843I451016J217021D01*
G01*
X58899484Y-91089721D02*
G75*
G02*
X58196711Y-91738300I-450514J-216879D01*
G01*
X58849999Y-89467158D02*
G75*
G02*
X58899479Y-89250278I499801J58D01*
G01*
X58196711Y-88601704D02*
G75*
G02*
X58899480Y-89250279I252259J-431696D01*
G01*
X58196710Y-88601702D02*
G75*
G02*
X57944452Y-88670000I-252260J431712D01*
G01*
X57944453Y-91670001D02*
G75*
G02*
X58196711Y-91738300I-3J-500009D01*
G01*
X56355548Y-88670001D02*
G75*
G02*
X56103289Y-88601702I2J500009D01*
G01*
X56103289Y-91738299D02*
G75*
G02*
X56355547Y-91670000I252261J-431710D01*
G01*
X56103289Y-91738299D02*
G75*
G02*
X55400515Y-91089721I-252259J431700D01*
G01*
X55450001Y-90872844D02*
G75*
G02*
X55400516Y-91089721I-499990J-1D01*
G01*
X55400516Y-89250282D02*
G75*
G02*
X56103289Y-88601702I450514J216880D01*
G01*
X55400516Y-89250281D02*
G75*
G02*
X55450001Y-89467159I-450505J-216876D01*
G01*
X58849999Y-90872843D02*
X58849999Y-89467159D01*
X57944452Y-88670001D02*
X56355548Y-88670001D01*
X56355547Y-91670000D02*
X57944452Y-91670000D01*
X55450001Y-89467159D02*
X55450001Y-90872843D01*
X135099484Y-72039719D02*
G75*
G02*
X135049985Y-71822841I450116J216819D01*
G01*
X135099484Y-72039718D02*
G75*
G02*
X134396710Y-72688301I-450514J-216882D01*
G01*
X135049999Y-70417156D02*
G75*
G02*
X135099486Y-70200280I499901J16D01*
G01*
X134396711Y-69551701D02*
G75*
G02*
X135099483Y-70200279I252259J-431699D01*
G01*
X134396711Y-69551701D02*
G75*
G02*
X134144453Y-69620000I-252261J431711D01*
G01*
X134144452Y-72619999D02*
G75*
G02*
X134396711Y-72688298I-2J-500011D01*
G01*
X132555547Y-69619999D02*
G75*
G02*
X132303289Y-69551700I3J500009D01*
G01*
X132303290Y-72688298D02*
G75*
G02*
X132555548Y-72619999I252261J-431710D01*
G01*
X132303289Y-72688296D02*
G75*
G02*
X131600516Y-72039719I-252258J431700D01*
G01*
X131650001Y-71822842D02*
G75*
G02*
X131600516Y-72039719I-499990J-1D01*
G01*
X131600516Y-70200279D02*
G75*
G02*
X132303289Y-69551700I450515J216878D01*
G01*
X131600516Y-70200279D02*
G75*
G02*
X131650001Y-70417157I-450505J-216876D01*
G01*
X135049999Y-71822841D02*
X135049999Y-70417157D01*
X134144453Y-69620000D02*
X132555548Y-69620000D01*
X132555548Y-72619999D02*
X134144452Y-72619999D01*
X131650001Y-70417157D02*
X131650001Y-71822841D01*
X58899484Y-29177219D02*
G75*
G02*
X58849985Y-28960341I450116J216819D01*
G01*
X58899484Y-29177218D02*
G75*
G02*
X58196710Y-29825801I-450514J-216882D01*
G01*
X58849999Y-27554656D02*
G75*
G02*
X58899486Y-27337780I499901J16D01*
G01*
X58196711Y-26689201D02*
G75*
G02*
X58899483Y-27337779I252259J-431699D01*
G01*
X58196711Y-26689201D02*
G75*
G02*
X57944453Y-26757500I-252261J431711D01*
G01*
X57944452Y-29757499D02*
G75*
G02*
X58196711Y-29825798I-2J-500011D01*
G01*
X56355547Y-26757499D02*
G75*
G02*
X56103289Y-26689200I3J500009D01*
G01*
X56103290Y-29825798D02*
G75*
G02*
X56355548Y-29757499I252261J-431710D01*
G01*
X56103289Y-29825796D02*
G75*
G02*
X55400516Y-29177219I-252258J431700D01*
G01*
X55450001Y-28960342D02*
G75*
G02*
X55400516Y-29177219I-499990J-1D01*
G01*
X55400516Y-27337779D02*
G75*
G02*
X56103289Y-26689200I450515J216878D01*
G01*
X55400516Y-27337779D02*
G75*
G02*
X55450001Y-27554657I-450505J-216876D01*
G01*
X58849999Y-28960341D02*
X58849999Y-27554657D01*
X57944453Y-26757500D02*
X56355548Y-26757500D01*
X56355548Y-29757499D02*
X57944452Y-29757499D01*
X55450001Y-27554657D02*
X55450001Y-28960341D01*
X77949484Y-72039719D02*
G75*
G02*
X77899985Y-71822841I450116J216819D01*
G01*
X77949484Y-72039718D02*
G75*
G02*
X77246710Y-72688301I-450514J-216882D01*
G01*
X77899999Y-70417156D02*
G75*
G02*
X77949486Y-70200280I499901J16D01*
G01*
X77246711Y-69551701D02*
G75*
G02*
X77949483Y-70200279I252259J-431699D01*
G01*
X77246711Y-69551701D02*
G75*
G02*
X76994453Y-69620000I-252261J431711D01*
G01*
X76994452Y-72619999D02*
G75*
G02*
X77246711Y-72688298I-2J-500011D01*
G01*
X75405547Y-69619999D02*
G75*
G02*
X75153289Y-69551700I3J500009D01*
G01*
X75153290Y-72688298D02*
G75*
G02*
X75405548Y-72619999I252261J-431710D01*
G01*
X75153289Y-72688296D02*
G75*
G02*
X74450516Y-72039719I-252258J431700D01*
G01*
X74500001Y-71822842D02*
G75*
G02*
X74450516Y-72039719I-499990J-1D01*
G01*
X74450516Y-70200279D02*
G75*
G02*
X75153289Y-69551700I450515J216878D01*
G01*
X74450516Y-70200279D02*
G75*
G02*
X74500001Y-70417157I-450505J-216876D01*
G01*
X77899999Y-71822841D02*
X77899999Y-70417157D01*
X76994453Y-69620000D02*
X75405548Y-69620000D01*
X75405548Y-72619999D02*
X76994452Y-72619999D01*
X74500001Y-70417157D02*
X74500001Y-71822841D01*
X106524484Y-29177219D02*
G75*
G02*
X106474985Y-28960341I450116J216819D01*
G01*
X106524484Y-29177218D02*
G75*
G02*
X105821710Y-29825801I-450514J-216882D01*
G01*
X106474999Y-27554656D02*
G75*
G02*
X106524486Y-27337780I499901J16D01*
G01*
X105821711Y-26689201D02*
G75*
G02*
X106524483Y-27337779I252259J-431699D01*
G01*
X105821711Y-26689201D02*
G75*
G02*
X105569453Y-26757500I-252261J431711D01*
G01*
X105569452Y-29757499D02*
G75*
G02*
X105821711Y-29825798I-2J-500011D01*
G01*
X103980547Y-26757499D02*
G75*
G02*
X103728289Y-26689200I3J500009D01*
G01*
X103728290Y-29825798D02*
G75*
G02*
X103980548Y-29757499I252261J-431710D01*
G01*
X103728289Y-29825796D02*
G75*
G02*
X103025516Y-29177219I-252258J431700D01*
G01*
X103075001Y-28960342D02*
G75*
G02*
X103025516Y-29177219I-499990J-1D01*
G01*
X103025516Y-27337779D02*
G75*
G02*
X103728289Y-26689200I450515J216878D01*
G01*
X103025516Y-27337779D02*
G75*
G02*
X103075001Y-27554657I-450505J-216876D01*
G01*
X106474999Y-28960341D02*
X106474999Y-27554657D01*
X105569453Y-26757500D02*
X103980548Y-26757500D01*
X103980548Y-29757499D02*
X105569452Y-29757499D01*
X103075001Y-27554657D02*
X103075001Y-28960341D01*
X58899484Y-72039719D02*
G75*
G02*
X58849985Y-71822841I450116J216819D01*
G01*
X58899484Y-72039718D02*
G75*
G02*
X58196710Y-72688301I-450514J-216882D01*
G01*
X58849999Y-70417156D02*
G75*
G02*
X58899486Y-70200280I499901J16D01*
G01*
X58196711Y-69551701D02*
G75*
G02*
X58899483Y-70200279I252259J-431699D01*
G01*
X58196711Y-69551701D02*
G75*
G02*
X57944453Y-69620000I-252261J431711D01*
G01*
X57944452Y-72619999D02*
G75*
G02*
X58196711Y-72688298I-2J-500011D01*
G01*
X56355547Y-69619999D02*
G75*
G02*
X56103289Y-69551700I3J500009D01*
G01*
X56103290Y-72688298D02*
G75*
G02*
X56355548Y-72619999I252261J-431710D01*
G01*
X56103289Y-72688296D02*
G75*
G02*
X55400516Y-72039719I-252258J431700D01*
G01*
X55450001Y-71822842D02*
G75*
G02*
X55400516Y-72039719I-499990J-1D01*
G01*
X55400516Y-70200279D02*
G75*
G02*
X56103289Y-69551700I450515J216878D01*
G01*
X55400516Y-70200279D02*
G75*
G02*
X55450001Y-70417157I-450505J-216876D01*
G01*
X58849999Y-71822841D02*
X58849999Y-70417157D01*
X57944453Y-69620000D02*
X56355548Y-69620000D01*
X56355548Y-72619999D02*
X57944452Y-72619999D01*
X55450001Y-70417157D02*
X55450001Y-71822841D01*
X39849484Y-52989721D02*
G75*
G02*
X39799987Y-52772843I451016J217021D01*
G01*
X39849484Y-52989721D02*
G75*
G02*
X39146711Y-53638300I-450514J-216879D01*
G01*
X39799999Y-51367158D02*
G75*
G02*
X39849479Y-51150278I499801J58D01*
G01*
X39146711Y-50501704D02*
G75*
G02*
X39849480Y-51150279I252259J-431696D01*
G01*
X39146710Y-50501702D02*
G75*
G02*
X38894452Y-50570000I-252260J431712D01*
G01*
X38894453Y-53570001D02*
G75*
G02*
X39146711Y-53638300I-3J-500009D01*
G01*
X37305548Y-50570001D02*
G75*
G02*
X37053289Y-50501702I2J500009D01*
G01*
X37053289Y-53638299D02*
G75*
G02*
X37305547Y-53570000I252261J-431710D01*
G01*
X37053289Y-53638299D02*
G75*
G02*
X36350515Y-52989721I-252259J431700D01*
G01*
X36400001Y-52772844D02*
G75*
G02*
X36350516Y-52989721I-499990J-1D01*
G01*
X36350516Y-51150282D02*
G75*
G02*
X37053289Y-50501702I450514J216880D01*
G01*
X36350516Y-51150281D02*
G75*
G02*
X36400001Y-51367159I-450505J-216876D01*
G01*
X39799999Y-52772843D02*
X39799999Y-51367159D01*
X38894452Y-50570001D02*
X37305548Y-50570001D01*
X37305547Y-53570000D02*
X38894452Y-53570000D01*
X36400001Y-51367159D02*
X36400001Y-52772843D01*
X58899484Y-110139719D02*
G75*
G02*
X58849985Y-109922841I450116J216819D01*
G01*
X58899484Y-110139718D02*
G75*
G02*
X58196710Y-110788301I-450514J-216882D01*
G01*
X58849999Y-108517156D02*
G75*
G02*
X58899486Y-108300280I499901J16D01*
G01*
X58196711Y-107651701D02*
G75*
G02*
X58899483Y-108300279I252259J-431699D01*
G01*
X58196711Y-107651701D02*
G75*
G02*
X57944453Y-107720000I-252261J431711D01*
G01*
X57944452Y-110719999D02*
G75*
G02*
X58196711Y-110788298I-2J-500011D01*
G01*
X56355547Y-107719999D02*
G75*
G02*
X56103289Y-107651700I3J500009D01*
G01*
X56103290Y-110788298D02*
G75*
G02*
X56355548Y-110719999I252261J-431710D01*
G01*
X56103289Y-110788296D02*
G75*
G02*
X55400516Y-110139719I-252258J431700D01*
G01*
X55450001Y-109922842D02*
G75*
G02*
X55400516Y-110139719I-499990J-1D01*
G01*
X55400516Y-108300279D02*
G75*
G02*
X56103289Y-107651700I450515J216878D01*
G01*
X55400516Y-108300279D02*
G75*
G02*
X55450001Y-108517157I-450505J-216876D01*
G01*
X58849999Y-109922841D02*
X58849999Y-108517157D01*
X57944453Y-107720000D02*
X56355548Y-107720000D01*
X56355548Y-110719999D02*
X57944452Y-110719999D01*
X55450001Y-108517157D02*
X55450001Y-109922841D01*
X39849484Y-91089721D02*
G75*
G02*
X39799987Y-90872843I451016J217021D01*
G01*
X39849484Y-91089721D02*
G75*
G02*
X39146711Y-91738300I-450514J-216879D01*
G01*
X39799999Y-89467158D02*
G75*
G02*
X39849479Y-89250278I499801J58D01*
G01*
X39146711Y-88601704D02*
G75*
G02*
X39849480Y-89250279I252259J-431696D01*
G01*
X39146710Y-88601702D02*
G75*
G02*
X38894452Y-88670000I-252260J431712D01*
G01*
X38894453Y-91670001D02*
G75*
G02*
X39146711Y-91738300I-3J-500009D01*
G01*
X37305548Y-88670001D02*
G75*
G02*
X37053289Y-88601702I2J500009D01*
G01*
X37053289Y-91738299D02*
G75*
G02*
X37305547Y-91670000I252261J-431710D01*
G01*
X37053289Y-91738299D02*
G75*
G02*
X36350515Y-91089721I-252259J431700D01*
G01*
X36400001Y-90872844D02*
G75*
G02*
X36350516Y-91089721I-499990J-1D01*
G01*
X36350516Y-89250282D02*
G75*
G02*
X37053289Y-88601702I450514J216880D01*
G01*
X36350516Y-89250281D02*
G75*
G02*
X36400001Y-89467159I-450505J-216876D01*
G01*
X39799999Y-90872843D02*
X39799999Y-89467159D01*
X38894452Y-88670001D02*
X37305548Y-88670001D01*
X37305547Y-91670000D02*
X38894452Y-91670000D01*
X36400001Y-89467159D02*
X36400001Y-90872843D01*
X96999484Y-129189721D02*
G75*
G02*
X96949987Y-128972843I451016J217021D01*
G01*
X96999484Y-129189721D02*
G75*
G02*
X96296711Y-129838300I-450514J-216879D01*
G01*
X96949999Y-127567158D02*
G75*
G02*
X96999479Y-127350278I499801J58D01*
G01*
X96296711Y-126701704D02*
G75*
G02*
X96999480Y-127350279I252259J-431696D01*
G01*
X96296710Y-126701702D02*
G75*
G02*
X96044452Y-126770000I-252260J431712D01*
G01*
X96044453Y-129770001D02*
G75*
G02*
X96296711Y-129838300I-3J-500009D01*
G01*
X94455548Y-126770001D02*
G75*
G02*
X94203289Y-126701702I2J500009D01*
G01*
X94203289Y-129838299D02*
G75*
G02*
X94455547Y-129770000I252261J-431710D01*
G01*
X94203289Y-129838299D02*
G75*
G02*
X93500515Y-129189721I-252259J431700D01*
G01*
X93550001Y-128972844D02*
G75*
G02*
X93500516Y-129189721I-499990J-1D01*
G01*
X93500516Y-127350282D02*
G75*
G02*
X94203289Y-126701702I450514J216880D01*
G01*
X93500516Y-127350281D02*
G75*
G02*
X93550001Y-127567159I-450505J-216876D01*
G01*
X96949999Y-128972843D02*
X96949999Y-127567159D01*
X96044452Y-126770001D02*
X94455548Y-126770001D01*
X94455547Y-129770000D02*
X96044452Y-129770000D01*
X93550001Y-127567159D02*
X93550001Y-128972843D01*
X68424484Y-29177219D02*
G75*
G02*
X68374985Y-28960341I450116J216819D01*
G01*
X68424484Y-29177218D02*
G75*
G02*
X67721710Y-29825801I-450514J-216882D01*
G01*
X68374999Y-27554656D02*
G75*
G02*
X68424486Y-27337780I499901J16D01*
G01*
X67721711Y-26689201D02*
G75*
G02*
X68424483Y-27337779I252259J-431699D01*
G01*
X67721711Y-26689201D02*
G75*
G02*
X67469453Y-26757500I-252261J431711D01*
G01*
X67469452Y-29757499D02*
G75*
G02*
X67721711Y-29825798I-2J-500011D01*
G01*
X65880547Y-26757499D02*
G75*
G02*
X65628289Y-26689200I3J500009D01*
G01*
X65628290Y-29825798D02*
G75*
G02*
X65880548Y-29757499I252261J-431710D01*
G01*
X65628289Y-29825796D02*
G75*
G02*
X64925516Y-29177219I-252258J431700D01*
G01*
X64975001Y-28960342D02*
G75*
G02*
X64925516Y-29177219I-499990J-1D01*
G01*
X64925516Y-27337779D02*
G75*
G02*
X65628289Y-26689200I450515J216878D01*
G01*
X64925516Y-27337779D02*
G75*
G02*
X64975001Y-27554657I-450505J-216876D01*
G01*
X68374999Y-28960341D02*
X68374999Y-27554657D01*
X67469453Y-26757500D02*
X65880548Y-26757500D01*
X65880548Y-29757499D02*
X67469452Y-29757499D01*
X64975001Y-27554657D02*
X64975001Y-28960341D01*
X39849484Y-72039719D02*
G75*
G02*
X39799985Y-71822841I450116J216819D01*
G01*
X39849484Y-72039718D02*
G75*
G02*
X39146710Y-72688301I-450514J-216882D01*
G01*
X39799999Y-70417156D02*
G75*
G02*
X39849486Y-70200280I499901J16D01*
G01*
X39146711Y-69551701D02*
G75*
G02*
X39849483Y-70200279I252259J-431699D01*
G01*
X39146711Y-69551701D02*
G75*
G02*
X38894453Y-69620000I-252261J431711D01*
G01*
X38894452Y-72619999D02*
G75*
G02*
X39146711Y-72688298I-2J-500011D01*
G01*
X37305547Y-69619999D02*
G75*
G02*
X37053289Y-69551700I3J500009D01*
G01*
X37053290Y-72688298D02*
G75*
G02*
X37305548Y-72619999I252261J-431710D01*
G01*
X37053289Y-72688296D02*
G75*
G02*
X36350516Y-72039719I-252258J431700D01*
G01*
X36400001Y-71822842D02*
G75*
G02*
X36350516Y-72039719I-499990J-1D01*
G01*
X36350516Y-70200279D02*
G75*
G02*
X37053289Y-69551700I450515J216878D01*
G01*
X36350516Y-70200279D02*
G75*
G02*
X36400001Y-70417157I-450505J-216876D01*
G01*
X39799999Y-71822841D02*
X39799999Y-70417157D01*
X38894453Y-69620000D02*
X37305548Y-69620000D01*
X37305548Y-72619999D02*
X38894452Y-72619999D01*
X36400001Y-70417157D02*
X36400001Y-71822841D01*
X135099484Y-129189721D02*
G75*
G02*
X135049987Y-128972843I451016J217021D01*
G01*
X135099484Y-129189721D02*
G75*
G02*
X134396711Y-129838300I-450514J-216879D01*
G01*
X135049999Y-127567158D02*
G75*
G02*
X135099479Y-127350278I499801J58D01*
G01*
X134396711Y-126701704D02*
G75*
G02*
X135099480Y-127350279I252259J-431696D01*
G01*
X134396710Y-126701702D02*
G75*
G02*
X134144452Y-126770000I-252260J431712D01*
G01*
X134144453Y-129770001D02*
G75*
G02*
X134396711Y-129838300I-3J-500009D01*
G01*
X132555548Y-126770001D02*
G75*
G02*
X132303289Y-126701702I2J500009D01*
G01*
X132303289Y-129838299D02*
G75*
G02*
X132555547Y-129770000I252261J-431710D01*
G01*
X132303289Y-129838299D02*
G75*
G02*
X131600515Y-129189721I-252259J431700D01*
G01*
X131650001Y-128972844D02*
G75*
G02*
X131600516Y-129189721I-499990J-1D01*
G01*
X131600516Y-127350282D02*
G75*
G02*
X132303289Y-126701702I450514J216880D01*
G01*
X131600516Y-127350281D02*
G75*
G02*
X131650001Y-127567159I-450505J-216876D01*
G01*
X135049999Y-128972843D02*
X135049999Y-127567159D01*
X134144452Y-126770001D02*
X132555548Y-126770001D01*
X132555547Y-129770000D02*
X134144452Y-129770000D01*
X131650001Y-127567159D02*
X131650001Y-128972843D01*
X96999484Y-110139719D02*
G75*
G02*
X96949985Y-109922841I450116J216819D01*
G01*
X96999484Y-110139718D02*
G75*
G02*
X96296710Y-110788301I-450514J-216882D01*
G01*
X96949999Y-108517156D02*
G75*
G02*
X96999486Y-108300280I499901J16D01*
G01*
X96296711Y-107651701D02*
G75*
G02*
X96999483Y-108300279I252259J-431699D01*
G01*
X96296711Y-107651701D02*
G75*
G02*
X96044453Y-107720000I-252261J431711D01*
G01*
X96044452Y-110719999D02*
G75*
G02*
X96296711Y-110788298I-2J-500011D01*
G01*
X94455547Y-107719999D02*
G75*
G02*
X94203289Y-107651700I3J500009D01*
G01*
X94203290Y-110788298D02*
G75*
G02*
X94455548Y-110719999I252261J-431710D01*
G01*
X94203289Y-110788296D02*
G75*
G02*
X93500516Y-110139719I-252258J431700D01*
G01*
X93550001Y-109922842D02*
G75*
G02*
X93500516Y-110139719I-499990J-1D01*
G01*
X93500516Y-108300279D02*
G75*
G02*
X94203289Y-107651700I450515J216878D01*
G01*
X93500516Y-108300279D02*
G75*
G02*
X93550001Y-108517157I-450505J-216876D01*
G01*
X96949999Y-109922841D02*
X96949999Y-108517157D01*
X96044453Y-107720000D02*
X94455548Y-107720000D01*
X94455548Y-110719999D02*
X96044452Y-110719999D01*
X93550001Y-108517157D02*
X93550001Y-109922841D01*
X77949484Y-91089721D02*
G75*
G02*
X77899987Y-90872843I451016J217021D01*
G01*
X77949484Y-91089721D02*
G75*
G02*
X77246711Y-91738300I-450514J-216879D01*
G01*
X77899999Y-89467158D02*
G75*
G02*
X77949479Y-89250278I499801J58D01*
G01*
X77246711Y-88601704D02*
G75*
G02*
X77949480Y-89250279I252259J-431696D01*
G01*
X77246710Y-88601702D02*
G75*
G02*
X76994452Y-88670000I-252260J431712D01*
G01*
X76994453Y-91670001D02*
G75*
G02*
X77246711Y-91738300I-3J-500009D01*
G01*
X75405548Y-88670001D02*
G75*
G02*
X75153289Y-88601702I2J500009D01*
G01*
X75153289Y-91738299D02*
G75*
G02*
X75405547Y-91670000I252261J-431710D01*
G01*
X75153289Y-91738299D02*
G75*
G02*
X74450515Y-91089721I-252259J431700D01*
G01*
X74500001Y-90872844D02*
G75*
G02*
X74450516Y-91089721I-499990J-1D01*
G01*
X74450516Y-89250282D02*
G75*
G02*
X75153289Y-88601702I450514J216880D01*
G01*
X74450516Y-89250281D02*
G75*
G02*
X74500001Y-89467159I-450505J-216876D01*
G01*
X77899999Y-90872843D02*
X77899999Y-89467159D01*
X76994452Y-88670001D02*
X75405548Y-88670001D01*
X75405547Y-91670000D02*
X76994452Y-91670000D01*
X74500001Y-89467159D02*
X74500001Y-90872843D01*
X96999484Y-91089721D02*
G75*
G02*
X96949987Y-90872843I451016J217021D01*
G01*
X96999484Y-91089721D02*
G75*
G02*
X96296711Y-91738300I-450514J-216879D01*
G01*
X96949999Y-89467158D02*
G75*
G02*
X96999479Y-89250278I499801J58D01*
G01*
X96296711Y-88601704D02*
G75*
G02*
X96999480Y-89250279I252259J-431696D01*
G01*
X96296710Y-88601702D02*
G75*
G02*
X96044452Y-88670000I-252260J431712D01*
G01*
X96044453Y-91670001D02*
G75*
G02*
X96296711Y-91738300I-3J-500009D01*
G01*
X94455548Y-88670001D02*
G75*
G02*
X94203289Y-88601702I2J500009D01*
G01*
X94203289Y-91738299D02*
G75*
G02*
X94455547Y-91670000I252261J-431710D01*
G01*
X94203289Y-91738299D02*
G75*
G02*
X93500515Y-91089721I-252259J431700D01*
G01*
X93550001Y-90872844D02*
G75*
G02*
X93500516Y-91089721I-499990J-1D01*
G01*
X93500516Y-89250282D02*
G75*
G02*
X94203289Y-88601702I450514J216880D01*
G01*
X93500516Y-89250281D02*
G75*
G02*
X93550001Y-89467159I-450505J-216876D01*
G01*
X96949999Y-90872843D02*
X96949999Y-89467159D01*
X96044452Y-88670001D02*
X94455548Y-88670001D01*
X94455547Y-91670000D02*
X96044452Y-91670000D01*
X93550001Y-89467159D02*
X93550001Y-90872843D01*
X116049484Y-91089721D02*
G75*
G02*
X115999987Y-90872843I451016J217021D01*
G01*
X116049484Y-91089721D02*
G75*
G02*
X115346711Y-91738300I-450514J-216879D01*
G01*
X115999999Y-89467158D02*
G75*
G02*
X116049479Y-89250278I499801J58D01*
G01*
X115346711Y-88601704D02*
G75*
G02*
X116049480Y-89250279I252259J-431696D01*
G01*
X115346710Y-88601702D02*
G75*
G02*
X115094452Y-88670000I-252260J431712D01*
G01*
X115094453Y-91670001D02*
G75*
G02*
X115346711Y-91738300I-3J-500009D01*
G01*
X113505548Y-88670001D02*
G75*
G02*
X113253289Y-88601702I2J500009D01*
G01*
X113253289Y-91738299D02*
G75*
G02*
X113505547Y-91670000I252261J-431710D01*
G01*
X113253289Y-91738299D02*
G75*
G02*
X112550515Y-91089721I-252259J431700D01*
G01*
X112600001Y-90872844D02*
G75*
G02*
X112550516Y-91089721I-499990J-1D01*
G01*
X112550516Y-89250282D02*
G75*
G02*
X113253289Y-88601702I450514J216880D01*
G01*
X112550516Y-89250281D02*
G75*
G02*
X112600001Y-89467159I-450505J-216876D01*
G01*
X115999999Y-90872843D02*
X115999999Y-89467159D01*
X115094452Y-88670001D02*
X113505548Y-88670001D01*
X113505547Y-91670000D02*
X115094452Y-91670000D01*
X112600001Y-89467159D02*
X112600001Y-90872843D01*
X58899484Y-52989721D02*
G75*
G02*
X58849987Y-52772843I451016J217021D01*
G01*
X58899484Y-52989721D02*
G75*
G02*
X58196711Y-53638300I-450514J-216879D01*
G01*
X58849999Y-51367158D02*
G75*
G02*
X58899479Y-51150278I499801J58D01*
G01*
X58196711Y-50501704D02*
G75*
G02*
X58899480Y-51150279I252259J-431696D01*
G01*
X58196710Y-50501702D02*
G75*
G02*
X57944452Y-50570000I-252260J431712D01*
G01*
X57944453Y-53570001D02*
G75*
G02*
X58196711Y-53638300I-3J-500009D01*
G01*
X56355548Y-50570001D02*
G75*
G02*
X56103289Y-50501702I2J500009D01*
G01*
X56103289Y-53638299D02*
G75*
G02*
X56355547Y-53570000I252261J-431710D01*
G01*
X56103289Y-53638299D02*
G75*
G02*
X55400515Y-52989721I-252259J431700D01*
G01*
X55450001Y-52772844D02*
G75*
G02*
X55400516Y-52989721I-499990J-1D01*
G01*
X55400516Y-51150282D02*
G75*
G02*
X56103289Y-50501702I450514J216880D01*
G01*
X55400516Y-51150281D02*
G75*
G02*
X55450001Y-51367159I-450505J-216876D01*
G01*
X58849999Y-52772843D02*
X58849999Y-51367159D01*
X57944452Y-50570001D02*
X56355548Y-50570001D01*
X56355547Y-53570000D02*
X57944452Y-53570000D01*
X55450001Y-51367159D02*
X55450001Y-52772843D01*
X77949484Y-129189721D02*
G75*
G02*
X77899987Y-128972843I451016J217021D01*
G01*
X77949484Y-129189721D02*
G75*
G02*
X77246711Y-129838300I-450514J-216879D01*
G01*
X77899999Y-127567158D02*
G75*
G02*
X77949479Y-127350278I499801J58D01*
G01*
X77246711Y-126701704D02*
G75*
G02*
X77949480Y-127350279I252259J-431696D01*
G01*
X77246710Y-126701702D02*
G75*
G02*
X76994452Y-126770000I-252260J431712D01*
G01*
X76994453Y-129770001D02*
G75*
G02*
X77246711Y-129838300I-3J-500009D01*
G01*
X75405548Y-126770001D02*
G75*
G02*
X75153289Y-126701702I2J500009D01*
G01*
X75153289Y-129838299D02*
G75*
G02*
X75405547Y-129770000I252261J-431710D01*
G01*
X75153289Y-129838299D02*
G75*
G02*
X74450515Y-129189721I-252259J431700D01*
G01*
X74500001Y-128972844D02*
G75*
G02*
X74450516Y-129189721I-499990J-1D01*
G01*
X74450516Y-127350282D02*
G75*
G02*
X75153289Y-126701702I450514J216880D01*
G01*
X74450516Y-127350281D02*
G75*
G02*
X74500001Y-127567159I-450505J-216876D01*
G01*
X77899999Y-128972843D02*
X77899999Y-127567159D01*
X76994452Y-126770001D02*
X75405548Y-126770001D01*
X75405547Y-129770000D02*
X76994452Y-129770000D01*
X74500001Y-127567159D02*
X74500001Y-128972843D01*
X96999484Y-52989721D02*
G75*
G02*
X96949987Y-52772843I451016J217021D01*
G01*
X96999484Y-52989721D02*
G75*
G02*
X96296711Y-53638300I-450514J-216879D01*
G01*
X96949999Y-51367158D02*
G75*
G02*
X96999479Y-51150278I499801J58D01*
G01*
X96296711Y-50501704D02*
G75*
G02*
X96999480Y-51150279I252259J-431696D01*
G01*
X96296710Y-50501702D02*
G75*
G02*
X96044452Y-50570000I-252260J431712D01*
G01*
X96044453Y-53570001D02*
G75*
G02*
X96296711Y-53638300I-3J-500009D01*
G01*
X94455548Y-50570001D02*
G75*
G02*
X94203289Y-50501702I2J500009D01*
G01*
X94203289Y-53638299D02*
G75*
G02*
X94455547Y-53570000I252261J-431710D01*
G01*
X94203289Y-53638299D02*
G75*
G02*
X93500515Y-52989721I-252259J431700D01*
G01*
X93550001Y-52772844D02*
G75*
G02*
X93500516Y-52989721I-499990J-1D01*
G01*
X93500516Y-51150282D02*
G75*
G02*
X94203289Y-50501702I450514J216880D01*
G01*
X93500516Y-51150281D02*
G75*
G02*
X93550001Y-51367159I-450505J-216876D01*
G01*
X96949999Y-52772843D02*
X96949999Y-51367159D01*
X96044452Y-50570001D02*
X94455548Y-50570001D01*
X94455547Y-53570000D02*
X96044452Y-53570000D01*
X93550001Y-51367159D02*
X93550001Y-52772843D01*
X135099484Y-110139719D02*
G75*
G02*
X135049985Y-109922841I450116J216819D01*
G01*
X135099484Y-110139718D02*
G75*
G02*
X134396710Y-110788301I-450514J-216882D01*
G01*
X135049999Y-108517156D02*
G75*
G02*
X135099486Y-108300280I499901J16D01*
G01*
X134396711Y-107651701D02*
G75*
G02*
X135099483Y-108300279I252259J-431699D01*
G01*
X134396711Y-107651701D02*
G75*
G02*
X134144453Y-107720000I-252261J431711D01*
G01*
X134144452Y-110719999D02*
G75*
G02*
X134396711Y-110788298I-2J-500011D01*
G01*
X132555547Y-107719999D02*
G75*
G02*
X132303289Y-107651700I3J500009D01*
G01*
X132303290Y-110788298D02*
G75*
G02*
X132555548Y-110719999I252261J-431710D01*
G01*
X132303289Y-110788296D02*
G75*
G02*
X131600516Y-110139719I-252258J431700D01*
G01*
X131650001Y-109922842D02*
G75*
G02*
X131600516Y-110139719I-499990J-1D01*
G01*
X131600516Y-108300279D02*
G75*
G02*
X132303289Y-107651700I450515J216878D01*
G01*
X131600516Y-108300279D02*
G75*
G02*
X131650001Y-108517157I-450505J-216876D01*
G01*
X135049999Y-109922841D02*
X135049999Y-108517157D01*
X134144453Y-107720000D02*
X132555548Y-107720000D01*
X132555548Y-110719999D02*
X134144452Y-110719999D01*
X131650001Y-108517157D02*
X131650001Y-109922841D01*
X116049484Y-72039719D02*
G75*
G02*
X115999985Y-71822841I450116J216819D01*
G01*
X116049484Y-72039718D02*
G75*
G02*
X115346710Y-72688301I-450514J-216882D01*
G01*
X115999999Y-70417156D02*
G75*
G02*
X116049486Y-70200280I499901J16D01*
G01*
X115346711Y-69551701D02*
G75*
G02*
X116049483Y-70200279I252259J-431699D01*
G01*
X115346711Y-69551701D02*
G75*
G02*
X115094453Y-69620000I-252261J431711D01*
G01*
X115094452Y-72619999D02*
G75*
G02*
X115346711Y-72688298I-2J-500011D01*
G01*
X113505547Y-69619999D02*
G75*
G02*
X113253289Y-69551700I3J500009D01*
G01*
X113253290Y-72688298D02*
G75*
G02*
X113505548Y-72619999I252261J-431710D01*
G01*
X113253289Y-72688296D02*
G75*
G02*
X112550516Y-72039719I-252258J431700D01*
G01*
X112600001Y-71822842D02*
G75*
G02*
X112550516Y-72039719I-499990J-1D01*
G01*
X112550516Y-70200279D02*
G75*
G02*
X113253289Y-69551700I450515J216878D01*
G01*
X112550516Y-70200279D02*
G75*
G02*
X112600001Y-70417157I-450505J-216876D01*
G01*
X115999999Y-71822841D02*
X115999999Y-70417157D01*
X115094453Y-69620000D02*
X113505548Y-69620000D01*
X113505548Y-72619999D02*
X115094452Y-72619999D01*
X112600001Y-70417157D02*
X112600001Y-71822841D01*
X135099484Y-29177219D02*
G75*
G02*
X135049985Y-28960341I450116J216819D01*
G01*
X135099484Y-29177218D02*
G75*
G02*
X134396710Y-29825801I-450514J-216882D01*
G01*
X135049999Y-27554656D02*
G75*
G02*
X135099486Y-27337780I499901J16D01*
G01*
X134396711Y-26689201D02*
G75*
G02*
X135099483Y-27337779I252259J-431699D01*
G01*
X134396711Y-26689201D02*
G75*
G02*
X134144453Y-26757500I-252261J431711D01*
G01*
X134144452Y-29757499D02*
G75*
G02*
X134396711Y-29825798I-2J-500011D01*
G01*
X132555547Y-26757499D02*
G75*
G02*
X132303289Y-26689200I3J500009D01*
G01*
X132303290Y-29825798D02*
G75*
G02*
X132555548Y-29757499I252261J-431710D01*
G01*
X132303289Y-29825796D02*
G75*
G02*
X131600516Y-29177219I-252258J431700D01*
G01*
X131650001Y-28960342D02*
G75*
G02*
X131600516Y-29177219I-499990J-1D01*
G01*
X131600516Y-27337779D02*
G75*
G02*
X132303289Y-26689200I450515J216878D01*
G01*
X131600516Y-27337779D02*
G75*
G02*
X131650001Y-27554657I-450505J-216876D01*
G01*
X135049999Y-28960341D02*
X135049999Y-27554657D01*
X134144453Y-26757500D02*
X132555548Y-26757500D01*
X132555548Y-29757499D02*
X134144452Y-29757499D01*
X131650001Y-27554657D02*
X131650001Y-28960341D01*
X96999484Y-72039719D02*
G75*
G02*
X96949985Y-71822841I450116J216819D01*
G01*
X96999484Y-72039718D02*
G75*
G02*
X96296710Y-72688301I-450514J-216882D01*
G01*
X96949999Y-70417156D02*
G75*
G02*
X96999486Y-70200280I499901J16D01*
G01*
X96296711Y-69551701D02*
G75*
G02*
X96999483Y-70200279I252259J-431699D01*
G01*
X96296711Y-69551701D02*
G75*
G02*
X96044453Y-69620000I-252261J431711D01*
G01*
X96044452Y-72619999D02*
G75*
G02*
X96296711Y-72688298I-2J-500011D01*
G01*
X94455547Y-69619999D02*
G75*
G02*
X94203289Y-69551700I3J500009D01*
G01*
X94203290Y-72688298D02*
G75*
G02*
X94455548Y-72619999I252261J-431710D01*
G01*
X94203289Y-72688296D02*
G75*
G02*
X93500516Y-72039719I-252258J431700D01*
G01*
X93550001Y-71822842D02*
G75*
G02*
X93500516Y-72039719I-499990J-1D01*
G01*
X93500516Y-70200279D02*
G75*
G02*
X94203289Y-69551700I450515J216878D01*
G01*
X93500516Y-70200279D02*
G75*
G02*
X93550001Y-70417157I-450505J-216876D01*
G01*
X96949999Y-71822841D02*
X96949999Y-70417157D01*
X96044453Y-69620000D02*
X94455548Y-69620000D01*
X94455548Y-72619999D02*
X96044452Y-72619999D01*
X93550001Y-70417157D02*
X93550001Y-71822841D01*
X39849484Y-129189721D02*
G75*
G02*
X39799987Y-128972843I451016J217021D01*
G01*
X39849484Y-129189721D02*
G75*
G02*
X39146711Y-129838300I-450514J-216879D01*
G01*
X39799999Y-127567158D02*
G75*
G02*
X39849479Y-127350278I499801J58D01*
G01*
X39146711Y-126701704D02*
G75*
G02*
X39849480Y-127350279I252259J-431696D01*
G01*
X39146710Y-126701702D02*
G75*
G02*
X38894452Y-126770000I-252260J431712D01*
G01*
X38894453Y-129770001D02*
G75*
G02*
X39146711Y-129838300I-3J-500009D01*
G01*
X37305548Y-126770001D02*
G75*
G02*
X37053289Y-126701702I2J500009D01*
G01*
X37053289Y-129838299D02*
G75*
G02*
X37305547Y-129770000I252261J-431710D01*
G01*
X37053289Y-129838299D02*
G75*
G02*
X36350515Y-129189721I-252259J431700D01*
G01*
X36400001Y-128972844D02*
G75*
G02*
X36350516Y-129189721I-499990J-1D01*
G01*
X36350516Y-127350282D02*
G75*
G02*
X37053289Y-126701702I450514J216880D01*
G01*
X36350516Y-127350281D02*
G75*
G02*
X36400001Y-127567159I-450505J-216876D01*
G01*
X39799999Y-128972843D02*
X39799999Y-127567159D01*
X38894452Y-126770001D02*
X37305548Y-126770001D01*
X37305547Y-129770000D02*
X38894452Y-129770000D01*
X36400001Y-127567159D02*
X36400001Y-128972843D01*
X39849484Y-29177219D02*
G75*
G02*
X39799985Y-28960341I450116J216819D01*
G01*
X39849484Y-29177218D02*
G75*
G02*
X39146710Y-29825801I-450514J-216882D01*
G01*
X39799999Y-27554656D02*
G75*
G02*
X39849486Y-27337780I499901J16D01*
G01*
X39146711Y-26689201D02*
G75*
G02*
X39849483Y-27337779I252259J-431699D01*
G01*
X39146711Y-26689201D02*
G75*
G02*
X38894453Y-26757500I-252261J431711D01*
G01*
X38894452Y-29757499D02*
G75*
G02*
X39146711Y-29825798I-2J-500011D01*
G01*
X37305547Y-26757499D02*
G75*
G02*
X37053289Y-26689200I3J500009D01*
G01*
X37053290Y-29825798D02*
G75*
G02*
X37305548Y-29757499I252261J-431710D01*
G01*
X37053289Y-29825796D02*
G75*
G02*
X36350516Y-29177219I-252258J431700D01*
G01*
X36400001Y-28960342D02*
G75*
G02*
X36350516Y-29177219I-499990J-1D01*
G01*
X36350516Y-27337779D02*
G75*
G02*
X37053289Y-26689200I450515J216878D01*
G01*
X36350516Y-27337779D02*
G75*
G02*
X36400001Y-27554657I-450505J-216876D01*
G01*
X39799999Y-28960341D02*
X39799999Y-27554657D01*
X38894453Y-26757500D02*
X37305548Y-26757500D01*
X37305548Y-29757499D02*
X38894452Y-29757499D01*
X36400001Y-27554657D02*
X36400001Y-28960341D01*
X116049484Y-129189721D02*
G75*
G02*
X115999987Y-128972843I451016J217021D01*
G01*
X116049484Y-129189721D02*
G75*
G02*
X115346711Y-129838300I-450514J-216879D01*
G01*
X115999999Y-127567158D02*
G75*
G02*
X116049479Y-127350278I499801J58D01*
G01*
X115346711Y-126701704D02*
G75*
G02*
X116049480Y-127350279I252259J-431696D01*
G01*
X115346710Y-126701702D02*
G75*
G02*
X115094452Y-126770000I-252260J431712D01*
G01*
X115094453Y-129770001D02*
G75*
G02*
X115346711Y-129838300I-3J-500009D01*
G01*
X113505548Y-126770001D02*
G75*
G02*
X113253289Y-126701702I2J500009D01*
G01*
X113253289Y-129838299D02*
G75*
G02*
X113505547Y-129770000I252261J-431710D01*
G01*
X113253289Y-129838299D02*
G75*
G02*
X112550515Y-129189721I-252259J431700D01*
G01*
X112600001Y-128972844D02*
G75*
G02*
X112550516Y-129189721I-499990J-1D01*
G01*
X112550516Y-127350282D02*
G75*
G02*
X113253289Y-126701702I450514J216880D01*
G01*
X112550516Y-127350281D02*
G75*
G02*
X112600001Y-127567159I-450505J-216876D01*
G01*
X115999999Y-128972843D02*
X115999999Y-127567159D01*
X115094452Y-126770001D02*
X113505548Y-126770001D01*
X113505547Y-129770000D02*
X115094452Y-129770000D01*
X112600001Y-127567159D02*
X112600001Y-128972843D01*
X116049484Y-52989721D02*
G75*
G02*
X115999987Y-52772843I451016J217021D01*
G01*
X116049484Y-52989721D02*
G75*
G02*
X115346711Y-53638300I-450514J-216879D01*
G01*
X115999999Y-51367158D02*
G75*
G02*
X116049479Y-51150278I499801J58D01*
G01*
X115346711Y-50501704D02*
G75*
G02*
X116049480Y-51150279I252259J-431696D01*
G01*
X115346710Y-50501702D02*
G75*
G02*
X115094452Y-50570000I-252260J431712D01*
G01*
X115094453Y-53570001D02*
G75*
G02*
X115346711Y-53638300I-3J-500009D01*
G01*
X113505548Y-50570001D02*
G75*
G02*
X113253289Y-50501702I2J500009D01*
G01*
X113253289Y-53638299D02*
G75*
G02*
X113505547Y-53570000I252261J-431710D01*
G01*
X113253289Y-53638299D02*
G75*
G02*
X112550515Y-52989721I-252259J431700D01*
G01*
X112600001Y-52772844D02*
G75*
G02*
X112550516Y-52989721I-499990J-1D01*
G01*
X112550516Y-51150282D02*
G75*
G02*
X113253289Y-50501702I450514J216880D01*
G01*
X112550516Y-51150281D02*
G75*
G02*
X112600001Y-51367159I-450505J-216876D01*
G01*
X115999999Y-52772843D02*
X115999999Y-51367159D01*
X115094452Y-50570001D02*
X113505548Y-50570001D01*
X113505547Y-53570000D02*
X115094452Y-53570000D01*
X112600001Y-51367159D02*
X112600001Y-52772843D01*
X77949484Y-52989721D02*
G75*
G02*
X77899987Y-52772843I451016J217021D01*
G01*
X77949484Y-52989721D02*
G75*
G02*
X77246711Y-53638300I-450514J-216879D01*
G01*
X77899999Y-51367158D02*
G75*
G02*
X77949479Y-51150278I499801J58D01*
G01*
X77246711Y-50501704D02*
G75*
G02*
X77949480Y-51150279I252259J-431696D01*
G01*
X77246710Y-50501702D02*
G75*
G02*
X76994452Y-50570000I-252260J431712D01*
G01*
X76994453Y-53570001D02*
G75*
G02*
X77246711Y-53638300I-3J-500009D01*
G01*
X75405548Y-50570001D02*
G75*
G02*
X75153289Y-50501702I2J500009D01*
G01*
X75153289Y-53638299D02*
G75*
G02*
X75405547Y-53570000I252261J-431710D01*
G01*
X75153289Y-53638299D02*
G75*
G02*
X74450515Y-52989721I-252259J431700D01*
G01*
X74500001Y-52772844D02*
G75*
G02*
X74450516Y-52989721I-499990J-1D01*
G01*
X74450516Y-51150282D02*
G75*
G02*
X75153289Y-50501702I450514J216880D01*
G01*
X74450516Y-51150281D02*
G75*
G02*
X74500001Y-51367159I-450505J-216876D01*
G01*
X77899999Y-52772843D02*
X77899999Y-51367159D01*
X76994452Y-50570001D02*
X75405548Y-50570001D01*
X75405547Y-53570000D02*
X76994452Y-53570000D01*
X74500001Y-51367159D02*
X74500001Y-52772843D01*
X39849484Y-110139719D02*
G75*
G02*
X39799985Y-109922841I450116J216819D01*
G01*
X39849484Y-110139718D02*
G75*
G02*
X39146710Y-110788301I-450514J-216882D01*
G01*
X39799999Y-108517156D02*
G75*
G02*
X39849486Y-108300280I499901J16D01*
G01*
X39146711Y-107651701D02*
G75*
G02*
X39849483Y-108300279I252259J-431699D01*
G01*
X39146711Y-107651701D02*
G75*
G02*
X38894453Y-107720000I-252261J431711D01*
G01*
X38894452Y-110719999D02*
G75*
G02*
X39146711Y-110788298I-2J-500011D01*
G01*
X37305547Y-107719999D02*
G75*
G02*
X37053289Y-107651700I3J500009D01*
G01*
X37053290Y-110788298D02*
G75*
G02*
X37305548Y-110719999I252261J-431710D01*
G01*
X37053289Y-110788296D02*
G75*
G02*
X36350516Y-110139719I-252258J431700D01*
G01*
X36400001Y-109922842D02*
G75*
G02*
X36350516Y-110139719I-499990J-1D01*
G01*
X36350516Y-108300279D02*
G75*
G02*
X37053289Y-107651700I450515J216878D01*
G01*
X36350516Y-108300279D02*
G75*
G02*
X36400001Y-108517157I-450505J-216876D01*
G01*
X39799999Y-109922841D02*
X39799999Y-108517157D01*
X38894453Y-107720000D02*
X37305548Y-107720000D01*
X37305548Y-110719999D02*
X38894452Y-110719999D01*
X36400001Y-108517157D02*
X36400001Y-109922841D01*
X87474484Y-29177219D02*
G75*
G02*
X87424985Y-28960341I450116J216819D01*
G01*
X87474484Y-29177218D02*
G75*
G02*
X86771710Y-29825801I-450514J-216882D01*
G01*
X87424999Y-27554656D02*
G75*
G02*
X87474486Y-27337780I499901J16D01*
G01*
X86771711Y-26689201D02*
G75*
G02*
X87474483Y-27337779I252259J-431699D01*
G01*
X86771711Y-26689201D02*
G75*
G02*
X86519453Y-26757500I-252261J431711D01*
G01*
X86519452Y-29757499D02*
G75*
G02*
X86771711Y-29825798I-2J-500011D01*
G01*
X84930547Y-26757499D02*
G75*
G02*
X84678289Y-26689200I3J500009D01*
G01*
X84678290Y-29825798D02*
G75*
G02*
X84930548Y-29757499I252261J-431710D01*
G01*
X84678289Y-29825796D02*
G75*
G02*
X83975516Y-29177219I-252258J431700D01*
G01*
X84025001Y-28960342D02*
G75*
G02*
X83975516Y-29177219I-499990J-1D01*
G01*
X83975516Y-27337779D02*
G75*
G02*
X84678289Y-26689200I450515J216878D01*
G01*
X83975516Y-27337779D02*
G75*
G02*
X84025001Y-27554657I-450505J-216876D01*
G01*
X87424999Y-28960341D02*
X87424999Y-27554657D01*
X86519453Y-26757500D02*
X84930548Y-26757500D01*
X84930548Y-29757499D02*
X86519452Y-29757499D01*
X84025001Y-27554657D02*
X84025001Y-28960341D01*
X58899484Y-129189721D02*
G75*
G02*
X58849987Y-128972843I451016J217021D01*
G01*
X58899484Y-129189721D02*
G75*
G02*
X58196711Y-129838300I-450514J-216879D01*
G01*
X58849999Y-127567158D02*
G75*
G02*
X58899479Y-127350278I499801J58D01*
G01*
X58196711Y-126701704D02*
G75*
G02*
X58899480Y-127350279I252259J-431696D01*
G01*
X58196710Y-126701702D02*
G75*
G02*
X57944452Y-126770000I-252260J431712D01*
G01*
X57944453Y-129770001D02*
G75*
G02*
X58196711Y-129838300I-3J-500009D01*
G01*
X56355548Y-126770001D02*
G75*
G02*
X56103289Y-126701702I2J500009D01*
G01*
X56103289Y-129838299D02*
G75*
G02*
X56355547Y-129770000I252261J-431710D01*
G01*
X56103289Y-129838299D02*
G75*
G02*
X55400515Y-129189721I-252259J431700D01*
G01*
X55450001Y-128972844D02*
G75*
G02*
X55400516Y-129189721I-499990J-1D01*
G01*
X55400516Y-127350282D02*
G75*
G02*
X56103289Y-126701702I450514J216880D01*
G01*
X55400516Y-127350281D02*
G75*
G02*
X55450001Y-127567159I-450505J-216876D01*
G01*
X58849999Y-128972843D02*
X58849999Y-127567159D01*
X57944452Y-126770001D02*
X56355548Y-126770001D01*
X56355547Y-129770000D02*
X57944452Y-129770000D01*
X55450001Y-127567159D02*
X55450001Y-128972843D01*
X135099484Y-52989721D02*
G75*
G02*
X135049987Y-52772843I451016J217021D01*
G01*
X135099484Y-52989721D02*
G75*
G02*
X134396711Y-53638300I-450514J-216879D01*
G01*
X135049999Y-51367158D02*
G75*
G02*
X135099479Y-51150278I499801J58D01*
G01*
X134396711Y-50501704D02*
G75*
G02*
X135099480Y-51150279I252259J-431696D01*
G01*
X134396710Y-50501702D02*
G75*
G02*
X134144452Y-50570000I-252260J431712D01*
G01*
X134144453Y-53570001D02*
G75*
G02*
X134396711Y-53638300I-3J-500009D01*
G01*
X132555548Y-50570001D02*
G75*
G02*
X132303289Y-50501702I2J500009D01*
G01*
X132303289Y-53638299D02*
G75*
G02*
X132555547Y-53570000I252261J-431710D01*
G01*
X132303289Y-53638299D02*
G75*
G02*
X131600515Y-52989721I-252259J431700D01*
G01*
X131650001Y-52772844D02*
G75*
G02*
X131600516Y-52989721I-499990J-1D01*
G01*
X131600516Y-51150282D02*
G75*
G02*
X132303289Y-50501702I450514J216880D01*
G01*
X131600516Y-51150281D02*
G75*
G02*
X131650001Y-51367159I-450505J-216876D01*
G01*
X135049999Y-52772843D02*
X135049999Y-51367159D01*
X134144452Y-50570001D02*
X132555548Y-50570001D01*
X132555547Y-53570000D02*
X134144452Y-53570000D01*
X131650001Y-51367159D02*
X131650001Y-52772843D01*
M02*
