%TF.GenerationSoftware,KiCad,Pcbnew,(6.0.9)*%
%TF.CreationDate,2022-12-06T20:11:09+01:00*%
%TF.ProjectId,tekskey-rounded-half,74656b73-6b65-4792-9d72-6f756e646564,rev?*%
%TF.SameCoordinates,Original*%
%TF.FileFunction,Drillmap*%
%TF.FilePolarity,Positive*%
%FSLAX45Y45*%
G04 Gerber Fmt 4.5, Leading zero omitted, Abs format (unit mm)*
G04 Created by KiCad (PCBNEW (6.0.9)) date 2022-12-06 20:11:09*
%MOMM*%
%LPD*%
G01*
G04 APERTURE LIST*
%ADD10C,0.100000*%
%ADD11C,0.200000*%
%ADD12C,0.040000*%
%ADD13C,0.080000*%
%ADD14C,0.300000*%
%ADD15C,0.320000*%
G04 APERTURE END LIST*
D10*
X4336320Y-3897806D02*
X16242570Y-3897806D01*
X16242570Y-3897806D02*
X16242570Y-16280306D01*
X16242570Y-16280306D02*
X4336320Y-16280306D01*
X4336320Y-16280306D02*
X4336320Y-3897806D01*
D11*
D12*
X4792570Y-14514056D02*
X4832570Y-14554056D01*
X4832570Y-14514056D02*
X4792570Y-14554056D01*
X8602570Y-7211556D02*
X8642570Y-7251556D01*
X8642570Y-7211556D02*
X8602570Y-7251556D01*
X8681945Y-11021556D02*
X8721945Y-11061556D01*
X8721945Y-11021556D02*
X8681945Y-11061556D01*
X8681945Y-14752181D02*
X8721945Y-14792181D01*
X8721945Y-14752181D02*
X8681945Y-14792181D01*
X9634445Y-8402181D02*
X9674445Y-8442181D01*
X9674445Y-8402181D02*
X9634445Y-8442181D01*
X9713820Y-12212181D02*
X9753820Y-12252181D01*
X9753820Y-12212181D02*
X9713820Y-12252181D01*
X10745220Y-12892715D02*
X10785220Y-12932715D01*
X10785220Y-12892715D02*
X10745220Y-12932715D01*
X10903970Y-9162090D02*
X10943970Y-9202090D01*
X10943970Y-9162090D02*
X10903970Y-9202090D01*
X11697720Y-10352715D02*
X11737720Y-10392715D01*
X11737720Y-10352715D02*
X11697720Y-10392715D01*
X11697720Y-14242090D02*
X11737720Y-14282090D01*
X11737720Y-14242090D02*
X11697720Y-14282090D01*
D13*
X4613970Y-6578590D02*
G75*
G03*
X4613970Y-6578590I-40000J0D01*
G01*
X4613970Y-7340590D02*
G75*
G03*
X4613970Y-7340590I-40000J0D01*
G01*
X4613970Y-8483590D02*
G75*
G03*
X4613970Y-8483590I-40000J0D01*
G01*
X4613970Y-9245590D02*
G75*
G03*
X4613970Y-9245590I-40000J0D01*
G01*
X4613970Y-10388590D02*
G75*
G03*
X4613970Y-10388590I-40000J0D01*
G01*
X4613970Y-11150590D02*
G75*
G03*
X4613970Y-11150590I-40000J0D01*
G01*
X4613970Y-12293590D02*
G75*
G03*
X4613970Y-12293590I-40000J0D01*
G01*
X4613970Y-13055590D02*
G75*
G03*
X4613970Y-13055590I-40000J0D01*
G01*
X4613970Y-14198590D02*
G75*
G03*
X4613970Y-14198590I-40000J0D01*
G01*
X4613970Y-14960590D02*
G75*
G03*
X4613970Y-14960590I-40000J0D01*
G01*
X5375970Y-6007090D02*
G75*
G03*
X5375970Y-6007090I-40000J0D01*
G01*
X6137970Y-6007090D02*
G75*
G03*
X6137970Y-6007090I-40000J0D01*
G01*
X6455470Y-16008340D02*
G75*
G03*
X6455470Y-16008340I-40000J0D01*
G01*
X6518970Y-6578590D02*
G75*
G03*
X6518970Y-6578590I-40000J0D01*
G01*
X6518970Y-7340590D02*
G75*
G03*
X6518970Y-7340590I-40000J0D01*
G01*
X6518970Y-8483590D02*
G75*
G03*
X6518970Y-8483590I-40000J0D01*
G01*
X6518970Y-9245590D02*
G75*
G03*
X6518970Y-9245590I-40000J0D01*
G01*
X6518970Y-10388590D02*
G75*
G03*
X6518970Y-10388590I-40000J0D01*
G01*
X6518970Y-11150590D02*
G75*
G03*
X6518970Y-11150590I-40000J0D01*
G01*
X6518970Y-12293590D02*
G75*
G03*
X6518970Y-12293590I-40000J0D01*
G01*
X6518970Y-13055590D02*
G75*
G03*
X6518970Y-13055590I-40000J0D01*
G01*
X7217470Y-16008340D02*
G75*
G03*
X7217470Y-16008340I-40000J0D01*
G01*
X7280970Y-6007090D02*
G75*
G03*
X7280970Y-6007090I-40000J0D01*
G01*
X8042970Y-6007090D02*
G75*
G03*
X8042970Y-6007090I-40000J0D01*
G01*
X8423970Y-6578590D02*
G75*
G03*
X8423970Y-6578590I-40000J0D01*
G01*
X8423970Y-7340590D02*
G75*
G03*
X8423970Y-7340590I-40000J0D01*
G01*
X8423970Y-8483590D02*
G75*
G03*
X8423970Y-8483590I-40000J0D01*
G01*
X8423970Y-9245590D02*
G75*
G03*
X8423970Y-9245590I-40000J0D01*
G01*
X8423970Y-10388590D02*
G75*
G03*
X8423970Y-10388590I-40000J0D01*
G01*
X8423970Y-11150590D02*
G75*
G03*
X8423970Y-11150590I-40000J0D01*
G01*
X8423970Y-12293590D02*
G75*
G03*
X8423970Y-12293590I-40000J0D01*
G01*
X8423970Y-13055590D02*
G75*
G03*
X8423970Y-13055590I-40000J0D01*
G01*
X8423970Y-14198590D02*
G75*
G03*
X8423970Y-14198590I-40000J0D01*
G01*
X8423970Y-14960590D02*
G75*
G03*
X8423970Y-14960590I-40000J0D01*
G01*
X9185970Y-6007090D02*
G75*
G03*
X9185970Y-6007090I-40000J0D01*
G01*
X9947970Y-6007090D02*
G75*
G03*
X9947970Y-6007090I-40000J0D01*
G01*
X10328970Y-6578590D02*
G75*
G03*
X10328970Y-6578590I-40000J0D01*
G01*
X10328970Y-7340590D02*
G75*
G03*
X10328970Y-7340590I-40000J0D01*
G01*
X10328970Y-8483590D02*
G75*
G03*
X10328970Y-8483590I-40000J0D01*
G01*
X10328970Y-9245590D02*
G75*
G03*
X10328970Y-9245590I-40000J0D01*
G01*
X10328970Y-10388590D02*
G75*
G03*
X10328970Y-10388590I-40000J0D01*
G01*
X10328970Y-11150590D02*
G75*
G03*
X10328970Y-11150590I-40000J0D01*
G01*
X10328970Y-12293590D02*
G75*
G03*
X10328970Y-12293590I-40000J0D01*
G01*
X10328970Y-13055590D02*
G75*
G03*
X10328970Y-13055590I-40000J0D01*
G01*
X10328970Y-14198590D02*
G75*
G03*
X10328970Y-14198590I-40000J0D01*
G01*
X10328970Y-14960590D02*
G75*
G03*
X10328970Y-14960590I-40000J0D01*
G01*
X11090970Y-6007090D02*
G75*
G03*
X11090970Y-6007090I-40000J0D01*
G01*
X11852970Y-6007090D02*
G75*
G03*
X11852970Y-6007090I-40000J0D01*
G01*
X12233970Y-6578590D02*
G75*
G03*
X12233970Y-6578590I-40000J0D01*
G01*
X12233970Y-7340590D02*
G75*
G03*
X12233970Y-7340590I-40000J0D01*
G01*
X12233970Y-8483590D02*
G75*
G03*
X12233970Y-8483590I-40000J0D01*
G01*
X12233970Y-9245590D02*
G75*
G03*
X12233970Y-9245590I-40000J0D01*
G01*
X12233970Y-10388590D02*
G75*
G03*
X12233970Y-10388590I-40000J0D01*
G01*
X12233970Y-11150590D02*
G75*
G03*
X12233970Y-11150590I-40000J0D01*
G01*
X12233970Y-12293590D02*
G75*
G03*
X12233970Y-12293590I-40000J0D01*
G01*
X12233970Y-13055590D02*
G75*
G03*
X12233970Y-13055590I-40000J0D01*
G01*
X12233970Y-14198590D02*
G75*
G03*
X12233970Y-14198590I-40000J0D01*
G01*
X12233970Y-14960590D02*
G75*
G03*
X12233970Y-14960590I-40000J0D01*
G01*
X12995970Y-6007090D02*
G75*
G03*
X12995970Y-6007090I-40000J0D01*
G01*
X13757970Y-6007090D02*
G75*
G03*
X13757970Y-6007090I-40000J0D01*
G01*
X14075470Y-16008340D02*
G75*
G03*
X14075470Y-16008340I-40000J0D01*
G01*
X14138970Y-6578590D02*
G75*
G03*
X14138970Y-6578590I-40000J0D01*
G01*
X14138970Y-7340590D02*
G75*
G03*
X14138970Y-7340590I-40000J0D01*
G01*
X14138970Y-8483590D02*
G75*
G03*
X14138970Y-8483590I-40000J0D01*
G01*
X14138970Y-9245590D02*
G75*
G03*
X14138970Y-9245590I-40000J0D01*
G01*
X14138970Y-10388590D02*
G75*
G03*
X14138970Y-10388590I-40000J0D01*
G01*
X14138970Y-11150590D02*
G75*
G03*
X14138970Y-11150590I-40000J0D01*
G01*
X14138970Y-12293590D02*
G75*
G03*
X14138970Y-12293590I-40000J0D01*
G01*
X14138970Y-13055590D02*
G75*
G03*
X14138970Y-13055590I-40000J0D01*
G01*
X14837470Y-16008340D02*
G75*
G03*
X14837470Y-16008340I-40000J0D01*
G01*
X14948595Y-6007090D02*
G75*
G03*
X14948595Y-6007090I-40000J0D01*
G01*
X15710595Y-6007090D02*
G75*
G03*
X15710595Y-6007090I-40000J0D01*
G01*
D10*
X9336470Y-4085931D02*
X9336470Y-4185931D01*
X9286470Y-4135931D02*
X9386470Y-4135931D01*
X9415845Y-6274590D02*
X9415845Y-6374590D01*
X9365845Y-6324590D02*
X9465845Y-6324590D01*
X9590470Y-4085931D02*
X9590470Y-4185931D01*
X9540470Y-4135931D02*
X9640470Y-4135931D01*
X9669845Y-6274590D02*
X9669845Y-6374590D01*
X9619845Y-6324590D02*
X9719845Y-6324590D01*
X9844470Y-4085931D02*
X9844470Y-4185931D01*
X9794470Y-4135931D02*
X9894470Y-4135931D01*
X9923845Y-6274590D02*
X9923845Y-6374590D01*
X9873845Y-6324590D02*
X9973845Y-6324590D01*
X10098470Y-4085931D02*
X10098470Y-4185931D01*
X10048470Y-4135931D02*
X10148470Y-4135931D01*
X10177845Y-6274590D02*
X10177845Y-6374590D01*
X10127845Y-6324590D02*
X10227845Y-6324590D01*
X10352470Y-4085931D02*
X10352470Y-4185931D01*
X10302470Y-4135931D02*
X10402470Y-4135931D01*
X10431845Y-6274590D02*
X10431845Y-6374590D01*
X10381845Y-6324590D02*
X10481845Y-6324590D01*
X10606470Y-4085931D02*
X10606470Y-4185931D01*
X10556470Y-4135931D02*
X10656470Y-4135931D01*
X10685845Y-6274590D02*
X10685845Y-6374590D01*
X10635845Y-6324590D02*
X10735845Y-6324590D01*
X10860470Y-4085931D02*
X10860470Y-4185931D01*
X10810470Y-4135931D02*
X10910470Y-4135931D01*
X10939845Y-6274590D02*
X10939845Y-6374590D01*
X10889845Y-6324590D02*
X10989845Y-6324590D01*
X11114470Y-4085931D02*
X11114470Y-4185931D01*
X11064470Y-4135931D02*
X11164470Y-4135931D01*
X11193845Y-6274590D02*
X11193845Y-6374590D01*
X11143845Y-6324590D02*
X11243845Y-6324590D01*
D14*
X5251537Y-5446407D02*
X5251537Y-5234273D01*
X5039403Y-5234273D01*
X5039403Y-5446407D01*
X5251537Y-5446407D01*
X5251537Y-7827657D02*
X5251537Y-7615523D01*
X5039403Y-7615523D01*
X5039403Y-7827657D01*
X5251537Y-7827657D01*
X5251537Y-9732657D02*
X5251537Y-9520523D01*
X5039403Y-9520523D01*
X5039403Y-9732657D01*
X5251537Y-9732657D01*
X5251537Y-11637657D02*
X5251537Y-11425523D01*
X5039403Y-11425523D01*
X5039403Y-11637657D01*
X5251537Y-11637657D01*
X5251537Y-13542657D02*
X5251537Y-13330523D01*
X5039403Y-13330523D01*
X5039403Y-13542657D01*
X5251537Y-13542657D01*
X5251537Y-15447657D02*
X5251537Y-15235523D01*
X5039403Y-15235523D01*
X5039403Y-15447657D01*
X5251537Y-15447657D01*
X5886537Y-5700407D02*
X5886537Y-5488273D01*
X5674403Y-5488273D01*
X5674403Y-5700407D01*
X5886537Y-5700407D01*
X5886537Y-8081657D02*
X5886537Y-7869523D01*
X5674403Y-7869523D01*
X5674403Y-8081657D01*
X5886537Y-8081657D01*
X5886537Y-9986657D02*
X5886537Y-9774523D01*
X5674403Y-9774523D01*
X5674403Y-9986657D01*
X5886537Y-9986657D01*
X5886537Y-11891657D02*
X5886537Y-11679523D01*
X5674403Y-11679523D01*
X5674403Y-11891657D01*
X5886537Y-11891657D01*
X5886537Y-13796657D02*
X5886537Y-13584523D01*
X5674403Y-13584523D01*
X5674403Y-13796657D01*
X5886537Y-13796657D01*
X5886537Y-15701657D02*
X5886537Y-15489523D01*
X5674403Y-15489523D01*
X5674403Y-15701657D01*
X5886537Y-15701657D01*
X6204037Y-5446407D02*
X6204037Y-5234273D01*
X5991903Y-5234273D01*
X5991903Y-5446407D01*
X6204037Y-5446407D01*
X6204037Y-15447657D02*
X6204037Y-15235523D01*
X5991903Y-15235523D01*
X5991903Y-15447657D01*
X6204037Y-15447657D01*
X6839037Y-5700407D02*
X6839037Y-5488273D01*
X6626903Y-5488273D01*
X6626903Y-5700407D01*
X6839037Y-5700407D01*
X6839037Y-15701657D02*
X6839037Y-15489523D01*
X6626903Y-15489523D01*
X6626903Y-15701657D01*
X6839037Y-15701657D01*
X7156537Y-5446407D02*
X7156537Y-5234273D01*
X6944403Y-5234273D01*
X6944403Y-5446407D01*
X7156537Y-5446407D01*
X7156537Y-7827657D02*
X7156537Y-7615523D01*
X6944403Y-7615523D01*
X6944403Y-7827657D01*
X7156537Y-7827657D01*
X7156537Y-9732657D02*
X7156537Y-9520523D01*
X6944403Y-9520523D01*
X6944403Y-9732657D01*
X7156537Y-9732657D01*
X7156537Y-11637657D02*
X7156537Y-11425523D01*
X6944403Y-11425523D01*
X6944403Y-11637657D01*
X7156537Y-11637657D01*
X7156537Y-13542657D02*
X7156537Y-13330523D01*
X6944403Y-13330523D01*
X6944403Y-13542657D01*
X7156537Y-13542657D01*
X7156537Y-15447657D02*
X7156537Y-15235523D01*
X6944403Y-15235523D01*
X6944403Y-15447657D01*
X7156537Y-15447657D01*
X7791537Y-5700407D02*
X7791537Y-5488273D01*
X7579403Y-5488273D01*
X7579403Y-5700407D01*
X7791537Y-5700407D01*
X7791537Y-8081657D02*
X7791537Y-7869523D01*
X7579403Y-7869523D01*
X7579403Y-8081657D01*
X7791537Y-8081657D01*
X7791537Y-9986657D02*
X7791537Y-9774523D01*
X7579403Y-9774523D01*
X7579403Y-9986657D01*
X7791537Y-9986657D01*
X7791537Y-11891657D02*
X7791537Y-11679523D01*
X7579403Y-11679523D01*
X7579403Y-11891657D01*
X7791537Y-11891657D01*
X7791537Y-13796657D02*
X7791537Y-13584523D01*
X7579403Y-13584523D01*
X7579403Y-13796657D01*
X7791537Y-13796657D01*
X7791537Y-15701657D02*
X7791537Y-15489523D01*
X7579403Y-15489523D01*
X7579403Y-15701657D01*
X7791537Y-15701657D01*
X8109037Y-5446407D02*
X8109037Y-5234273D01*
X7896903Y-5234273D01*
X7896903Y-5446407D01*
X8109037Y-5446407D01*
X8744037Y-5700407D02*
X8744037Y-5488273D01*
X8531903Y-5488273D01*
X8531903Y-5700407D01*
X8744037Y-5700407D01*
X9061537Y-5446407D02*
X9061537Y-5234273D01*
X8849403Y-5234273D01*
X8849403Y-5446407D01*
X9061537Y-5446407D01*
X9061537Y-7827657D02*
X9061537Y-7615523D01*
X8849403Y-7615523D01*
X8849403Y-7827657D01*
X9061537Y-7827657D01*
X9061537Y-9732657D02*
X9061537Y-9520523D01*
X8849403Y-9520523D01*
X8849403Y-9732657D01*
X9061537Y-9732657D01*
X9061537Y-11637657D02*
X9061537Y-11425523D01*
X8849403Y-11425523D01*
X8849403Y-11637657D01*
X9061537Y-11637657D01*
X9061537Y-13542657D02*
X9061537Y-13330523D01*
X8849403Y-13330523D01*
X8849403Y-13542657D01*
X9061537Y-13542657D01*
X9061537Y-15447657D02*
X9061537Y-15235523D01*
X8849403Y-15235523D01*
X8849403Y-15447657D01*
X9061537Y-15447657D01*
X9696537Y-5700407D02*
X9696537Y-5488273D01*
X9484403Y-5488273D01*
X9484403Y-5700407D01*
X9696537Y-5700407D01*
X9696537Y-8081657D02*
X9696537Y-7869523D01*
X9484403Y-7869523D01*
X9484403Y-8081657D01*
X9696537Y-8081657D01*
X9696537Y-9986657D02*
X9696537Y-9774523D01*
X9484403Y-9774523D01*
X9484403Y-9986657D01*
X9696537Y-9986657D01*
X9696537Y-11891657D02*
X9696537Y-11679523D01*
X9484403Y-11679523D01*
X9484403Y-11891657D01*
X9696537Y-11891657D01*
X9696537Y-13796657D02*
X9696537Y-13584523D01*
X9484403Y-13584523D01*
X9484403Y-13796657D01*
X9696537Y-13796657D01*
X9696537Y-15701657D02*
X9696537Y-15489523D01*
X9484403Y-15489523D01*
X9484403Y-15701657D01*
X9696537Y-15701657D01*
X10014037Y-5446407D02*
X10014037Y-5234273D01*
X9801903Y-5234273D01*
X9801903Y-5446407D01*
X10014037Y-5446407D01*
X10649037Y-5700407D02*
X10649037Y-5488273D01*
X10436903Y-5488273D01*
X10436903Y-5700407D01*
X10649037Y-5700407D01*
X10966537Y-5446407D02*
X10966537Y-5234273D01*
X10754403Y-5234273D01*
X10754403Y-5446407D01*
X10966537Y-5446407D01*
X10966537Y-7827657D02*
X10966537Y-7615523D01*
X10754403Y-7615523D01*
X10754403Y-7827657D01*
X10966537Y-7827657D01*
X10966537Y-9732657D02*
X10966537Y-9520523D01*
X10754403Y-9520523D01*
X10754403Y-9732657D01*
X10966537Y-9732657D01*
X10966537Y-11637657D02*
X10966537Y-11425523D01*
X10754403Y-11425523D01*
X10754403Y-11637657D01*
X10966537Y-11637657D01*
X10966537Y-13542657D02*
X10966537Y-13330523D01*
X10754403Y-13330523D01*
X10754403Y-13542657D01*
X10966537Y-13542657D01*
X10966537Y-15447657D02*
X10966537Y-15235523D01*
X10754403Y-15235523D01*
X10754403Y-15447657D01*
X10966537Y-15447657D01*
X11601537Y-5700407D02*
X11601537Y-5488273D01*
X11389403Y-5488273D01*
X11389403Y-5700407D01*
X11601537Y-5700407D01*
X11601537Y-8081657D02*
X11601537Y-7869523D01*
X11389403Y-7869523D01*
X11389403Y-8081657D01*
X11601537Y-8081657D01*
X11601537Y-9986657D02*
X11601537Y-9774523D01*
X11389403Y-9774523D01*
X11389403Y-9986657D01*
X11601537Y-9986657D01*
X11601537Y-11891657D02*
X11601537Y-11679523D01*
X11389403Y-11679523D01*
X11389403Y-11891657D01*
X11601537Y-11891657D01*
X11601537Y-13796657D02*
X11601537Y-13584523D01*
X11389403Y-13584523D01*
X11389403Y-13796657D01*
X11601537Y-13796657D01*
X11601537Y-15701657D02*
X11601537Y-15489523D01*
X11389403Y-15489523D01*
X11389403Y-15701657D01*
X11601537Y-15701657D01*
X11919037Y-5446407D02*
X11919037Y-5234273D01*
X11706903Y-5234273D01*
X11706903Y-5446407D01*
X11919037Y-5446407D01*
X12554037Y-5700407D02*
X12554037Y-5488273D01*
X12341903Y-5488273D01*
X12341903Y-5700407D01*
X12554037Y-5700407D01*
X12871537Y-5446407D02*
X12871537Y-5234273D01*
X12659403Y-5234273D01*
X12659403Y-5446407D01*
X12871537Y-5446407D01*
X12871537Y-7827657D02*
X12871537Y-7615523D01*
X12659403Y-7615523D01*
X12659403Y-7827657D01*
X12871537Y-7827657D01*
X12871537Y-9732657D02*
X12871537Y-9520523D01*
X12659403Y-9520523D01*
X12659403Y-9732657D01*
X12871537Y-9732657D01*
X12871537Y-11637657D02*
X12871537Y-11425523D01*
X12659403Y-11425523D01*
X12659403Y-11637657D01*
X12871537Y-11637657D01*
X12871537Y-13542657D02*
X12871537Y-13330523D01*
X12659403Y-13330523D01*
X12659403Y-13542657D01*
X12871537Y-13542657D01*
X12871537Y-15447657D02*
X12871537Y-15235523D01*
X12659403Y-15235523D01*
X12659403Y-15447657D01*
X12871537Y-15447657D01*
X13506537Y-5700407D02*
X13506537Y-5488273D01*
X13294403Y-5488273D01*
X13294403Y-5700407D01*
X13506537Y-5700407D01*
X13506537Y-8081657D02*
X13506537Y-7869523D01*
X13294403Y-7869523D01*
X13294403Y-8081657D01*
X13506537Y-8081657D01*
X13506537Y-9986657D02*
X13506537Y-9774523D01*
X13294403Y-9774523D01*
X13294403Y-9986657D01*
X13506537Y-9986657D01*
X13506537Y-11891657D02*
X13506537Y-11679523D01*
X13294403Y-11679523D01*
X13294403Y-11891657D01*
X13506537Y-11891657D01*
X13506537Y-13796657D02*
X13506537Y-13584523D01*
X13294403Y-13584523D01*
X13294403Y-13796657D01*
X13506537Y-13796657D01*
X13506537Y-15701657D02*
X13506537Y-15489523D01*
X13294403Y-15489523D01*
X13294403Y-15701657D01*
X13506537Y-15701657D01*
X13824037Y-5446407D02*
X13824037Y-5234273D01*
X13611903Y-5234273D01*
X13611903Y-5446407D01*
X13824037Y-5446407D01*
X13824037Y-15447657D02*
X13824037Y-15235523D01*
X13611903Y-15235523D01*
X13611903Y-15447657D01*
X13824037Y-15447657D01*
X14459037Y-5700407D02*
X14459037Y-5488273D01*
X14246903Y-5488273D01*
X14246903Y-5700407D01*
X14459037Y-5700407D01*
X14459037Y-15701657D02*
X14459037Y-15489523D01*
X14246903Y-15489523D01*
X14246903Y-15701657D01*
X14459037Y-15701657D01*
X14776537Y-5446407D02*
X14776537Y-5234273D01*
X14564403Y-5234273D01*
X14564403Y-5446407D01*
X14776537Y-5446407D01*
X14776537Y-7827657D02*
X14776537Y-7615523D01*
X14564403Y-7615523D01*
X14564403Y-7827657D01*
X14776537Y-7827657D01*
X14776537Y-9732657D02*
X14776537Y-9520523D01*
X14564403Y-9520523D01*
X14564403Y-9732657D01*
X14776537Y-9732657D01*
X14776537Y-11637657D02*
X14776537Y-11425523D01*
X14564403Y-11425523D01*
X14564403Y-11637657D01*
X14776537Y-11637657D01*
X14776537Y-13542657D02*
X14776537Y-13330523D01*
X14564403Y-13330523D01*
X14564403Y-13542657D01*
X14776537Y-13542657D01*
X14776537Y-15447657D02*
X14776537Y-15235523D01*
X14564403Y-15235523D01*
X14564403Y-15447657D01*
X14776537Y-15447657D01*
X15411537Y-5700407D02*
X15411537Y-5488273D01*
X15199403Y-5488273D01*
X15199403Y-5700407D01*
X15411537Y-5700407D01*
X15411537Y-8081657D02*
X15411537Y-7869523D01*
X15199403Y-7869523D01*
X15199403Y-8081657D01*
X15411537Y-8081657D01*
X15411537Y-9986657D02*
X15411537Y-9774523D01*
X15199403Y-9774523D01*
X15199403Y-9986657D01*
X15411537Y-9986657D01*
X15411537Y-11891657D02*
X15411537Y-11679523D01*
X15199403Y-11679523D01*
X15199403Y-11891657D01*
X15411537Y-11891657D01*
X15411537Y-13796657D02*
X15411537Y-13584523D01*
X15199403Y-13584523D01*
X15199403Y-13796657D01*
X15411537Y-13796657D01*
X15411537Y-15701657D02*
X15411537Y-15489523D01*
X15199403Y-15489523D01*
X15199403Y-15701657D01*
X15411537Y-15701657D01*
D15*
X4653820Y-4375306D02*
X4813820Y-4215306D01*
X4653820Y-4055306D01*
X4493820Y-4215306D01*
X4653820Y-4375306D01*
X4653820Y-16122806D02*
X4813820Y-15962806D01*
X4653820Y-15802806D01*
X4493820Y-15962806D01*
X4653820Y-16122806D01*
X15925070Y-4375306D02*
X16085070Y-4215306D01*
X15925070Y-4055306D01*
X15765070Y-4215306D01*
X15925070Y-4375306D01*
X15925070Y-15249681D02*
X16085070Y-15089681D01*
X15925070Y-14929681D01*
X15765070Y-15089681D01*
X15925070Y-15249681D01*
D11*
X4588939Y-16595782D02*
X4588939Y-16395782D01*
X4636558Y-16395782D01*
X4665130Y-16405306D01*
X4684177Y-16424354D01*
X4693701Y-16443401D01*
X4703225Y-16481496D01*
X4703225Y-16510068D01*
X4693701Y-16548163D01*
X4684177Y-16567211D01*
X4665130Y-16586258D01*
X4636558Y-16595782D01*
X4588939Y-16595782D01*
X4788939Y-16595782D02*
X4788939Y-16462449D01*
X4788939Y-16500544D02*
X4798463Y-16481496D01*
X4807987Y-16471973D01*
X4827034Y-16462449D01*
X4846082Y-16462449D01*
X4912749Y-16595782D02*
X4912749Y-16462449D01*
X4912749Y-16395782D02*
X4903225Y-16405306D01*
X4912749Y-16414830D01*
X4922273Y-16405306D01*
X4912749Y-16395782D01*
X4912749Y-16414830D01*
X5036558Y-16595782D02*
X5017511Y-16586258D01*
X5007987Y-16567211D01*
X5007987Y-16395782D01*
X5141320Y-16595782D02*
X5122273Y-16586258D01*
X5112749Y-16567211D01*
X5112749Y-16395782D01*
X5369892Y-16595782D02*
X5369892Y-16395782D01*
X5436558Y-16538639D01*
X5503225Y-16395782D01*
X5503225Y-16595782D01*
X5684177Y-16595782D02*
X5684177Y-16491020D01*
X5674653Y-16471973D01*
X5655606Y-16462449D01*
X5617511Y-16462449D01*
X5598463Y-16471973D01*
X5684177Y-16586258D02*
X5665130Y-16595782D01*
X5617511Y-16595782D01*
X5598463Y-16586258D01*
X5588939Y-16567211D01*
X5588939Y-16548163D01*
X5598463Y-16529115D01*
X5617511Y-16519592D01*
X5665130Y-16519592D01*
X5684177Y-16510068D01*
X5779415Y-16462449D02*
X5779415Y-16662449D01*
X5779415Y-16471973D02*
X5798463Y-16462449D01*
X5836558Y-16462449D01*
X5855606Y-16471973D01*
X5865130Y-16481496D01*
X5874653Y-16500544D01*
X5874653Y-16557687D01*
X5865130Y-16576734D01*
X5855606Y-16586258D01*
X5836558Y-16595782D01*
X5798463Y-16595782D01*
X5779415Y-16586258D01*
X5960368Y-16576734D02*
X5969892Y-16586258D01*
X5960368Y-16595782D01*
X5950844Y-16586258D01*
X5960368Y-16576734D01*
X5960368Y-16595782D01*
X5960368Y-16471973D02*
X5969892Y-16481496D01*
X5960368Y-16491020D01*
X5950844Y-16481496D01*
X5960368Y-16471973D01*
X5960368Y-16491020D01*
D12*
X4291320Y-16905306D02*
X4331320Y-16945306D01*
X4331320Y-16905306D02*
X4291320Y-16945306D01*
D11*
X4627034Y-16815782D02*
X4646082Y-16815782D01*
X4665130Y-16825306D01*
X4674654Y-16834830D01*
X4684177Y-16853877D01*
X4693701Y-16891973D01*
X4693701Y-16939592D01*
X4684177Y-16977687D01*
X4674654Y-16996735D01*
X4665130Y-17006258D01*
X4646082Y-17015782D01*
X4627034Y-17015782D01*
X4607987Y-17006258D01*
X4598463Y-16996735D01*
X4588939Y-16977687D01*
X4579415Y-16939592D01*
X4579415Y-16891973D01*
X4588939Y-16853877D01*
X4598463Y-16834830D01*
X4607987Y-16825306D01*
X4627034Y-16815782D01*
X4779415Y-16996735D02*
X4788939Y-17006258D01*
X4779415Y-17015782D01*
X4769892Y-17006258D01*
X4779415Y-16996735D01*
X4779415Y-17015782D01*
X4960368Y-16882449D02*
X4960368Y-17015782D01*
X4912749Y-16806258D02*
X4865130Y-16949116D01*
X4988939Y-16949116D01*
X5103225Y-16815782D02*
X5122273Y-16815782D01*
X5141320Y-16825306D01*
X5150844Y-16834830D01*
X5160368Y-16853877D01*
X5169892Y-16891973D01*
X5169892Y-16939592D01*
X5160368Y-16977687D01*
X5150844Y-16996735D01*
X5141320Y-17006258D01*
X5122273Y-17015782D01*
X5103225Y-17015782D01*
X5084177Y-17006258D01*
X5074654Y-16996735D01*
X5065130Y-16977687D01*
X5055606Y-16939592D01*
X5055606Y-16891973D01*
X5065130Y-16853877D01*
X5074654Y-16834830D01*
X5084177Y-16825306D01*
X5103225Y-16815782D01*
X5293701Y-16815782D02*
X5312749Y-16815782D01*
X5331796Y-16825306D01*
X5341320Y-16834830D01*
X5350844Y-16853877D01*
X5360368Y-16891973D01*
X5360368Y-16939592D01*
X5350844Y-16977687D01*
X5341320Y-16996735D01*
X5331796Y-17006258D01*
X5312749Y-17015782D01*
X5293701Y-17015782D01*
X5274654Y-17006258D01*
X5265130Y-16996735D01*
X5255606Y-16977687D01*
X5246082Y-16939592D01*
X5246082Y-16891973D01*
X5255606Y-16853877D01*
X5265130Y-16834830D01*
X5274654Y-16825306D01*
X5293701Y-16815782D01*
X5446082Y-17015782D02*
X5446082Y-16882449D01*
X5446082Y-16901496D02*
X5455606Y-16891973D01*
X5474654Y-16882449D01*
X5503225Y-16882449D01*
X5522273Y-16891973D01*
X5531796Y-16911020D01*
X5531796Y-17015782D01*
X5531796Y-16911020D02*
X5541320Y-16891973D01*
X5560368Y-16882449D01*
X5588939Y-16882449D01*
X5607987Y-16891973D01*
X5617511Y-16911020D01*
X5617511Y-17015782D01*
X5712749Y-17015782D02*
X5712749Y-16882449D01*
X5712749Y-16901496D02*
X5722272Y-16891973D01*
X5741320Y-16882449D01*
X5769892Y-16882449D01*
X5788939Y-16891973D01*
X5798463Y-16911020D01*
X5798463Y-17015782D01*
X5798463Y-16911020D02*
X5807987Y-16891973D01*
X5827034Y-16882449D01*
X5855606Y-16882449D01*
X5874653Y-16891973D01*
X5884177Y-16911020D01*
X5884177Y-17015782D01*
X6274653Y-16806258D02*
X6103225Y-17063401D01*
X6531796Y-16815782D02*
X6550844Y-16815782D01*
X6569892Y-16825306D01*
X6579415Y-16834830D01*
X6588939Y-16853877D01*
X6598463Y-16891973D01*
X6598463Y-16939592D01*
X6588939Y-16977687D01*
X6579415Y-16996735D01*
X6569892Y-17006258D01*
X6550844Y-17015782D01*
X6531796Y-17015782D01*
X6512749Y-17006258D01*
X6503225Y-16996735D01*
X6493701Y-16977687D01*
X6484177Y-16939592D01*
X6484177Y-16891973D01*
X6493701Y-16853877D01*
X6503225Y-16834830D01*
X6512749Y-16825306D01*
X6531796Y-16815782D01*
X6684177Y-16996735D02*
X6693701Y-17006258D01*
X6684177Y-17015782D01*
X6674653Y-17006258D01*
X6684177Y-16996735D01*
X6684177Y-17015782D01*
X6817511Y-16815782D02*
X6836558Y-16815782D01*
X6855606Y-16825306D01*
X6865130Y-16834830D01*
X6874653Y-16853877D01*
X6884177Y-16891973D01*
X6884177Y-16939592D01*
X6874653Y-16977687D01*
X6865130Y-16996735D01*
X6855606Y-17006258D01*
X6836558Y-17015782D01*
X6817511Y-17015782D01*
X6798463Y-17006258D01*
X6788939Y-16996735D01*
X6779415Y-16977687D01*
X6769892Y-16939592D01*
X6769892Y-16891973D01*
X6779415Y-16853877D01*
X6788939Y-16834830D01*
X6798463Y-16825306D01*
X6817511Y-16815782D01*
X7074653Y-17015782D02*
X6960368Y-17015782D01*
X7017511Y-17015782D02*
X7017511Y-16815782D01*
X6998463Y-16844354D01*
X6979415Y-16863401D01*
X6960368Y-16872925D01*
X7255606Y-16815782D02*
X7160368Y-16815782D01*
X7150844Y-16911020D01*
X7160368Y-16901496D01*
X7179415Y-16891973D01*
X7227034Y-16891973D01*
X7246082Y-16901496D01*
X7255606Y-16911020D01*
X7265130Y-16930068D01*
X7265130Y-16977687D01*
X7255606Y-16996735D01*
X7246082Y-17006258D01*
X7227034Y-17015782D01*
X7179415Y-17015782D01*
X7160368Y-17006258D01*
X7150844Y-16996735D01*
X7331796Y-16815782D02*
X7465130Y-16815782D01*
X7379415Y-17015782D01*
X7531796Y-16815782D02*
X7531796Y-16853877D01*
X7607987Y-16815782D02*
X7607987Y-16853877D01*
X7903225Y-17091973D02*
X7893701Y-17082449D01*
X7874653Y-17053877D01*
X7865130Y-17034830D01*
X7855606Y-17006258D01*
X7846082Y-16958639D01*
X7846082Y-16920544D01*
X7855606Y-16872925D01*
X7865130Y-16844354D01*
X7874653Y-16825306D01*
X7893701Y-16796735D01*
X7903225Y-16787211D01*
X8084177Y-17015782D02*
X7969892Y-17015782D01*
X8027034Y-17015782D02*
X8027034Y-16815782D01*
X8007987Y-16844354D01*
X7988939Y-16863401D01*
X7969892Y-16872925D01*
X8207987Y-16815782D02*
X8227034Y-16815782D01*
X8246082Y-16825306D01*
X8255606Y-16834830D01*
X8265130Y-16853877D01*
X8274653Y-16891973D01*
X8274653Y-16939592D01*
X8265130Y-16977687D01*
X8255606Y-16996735D01*
X8246082Y-17006258D01*
X8227034Y-17015782D01*
X8207987Y-17015782D01*
X8188939Y-17006258D01*
X8179415Y-16996735D01*
X8169892Y-16977687D01*
X8160368Y-16939592D01*
X8160368Y-16891973D01*
X8169892Y-16853877D01*
X8179415Y-16834830D01*
X8188939Y-16825306D01*
X8207987Y-16815782D01*
X8512749Y-17015782D02*
X8512749Y-16815782D01*
X8598463Y-17015782D02*
X8598463Y-16911020D01*
X8588939Y-16891973D01*
X8569892Y-16882449D01*
X8541320Y-16882449D01*
X8522273Y-16891973D01*
X8512749Y-16901496D01*
X8722273Y-17015782D02*
X8703225Y-17006258D01*
X8693701Y-16996735D01*
X8684177Y-16977687D01*
X8684177Y-16920544D01*
X8693701Y-16901496D01*
X8703225Y-16891973D01*
X8722273Y-16882449D01*
X8750844Y-16882449D01*
X8769892Y-16891973D01*
X8779415Y-16901496D01*
X8788939Y-16920544D01*
X8788939Y-16977687D01*
X8779415Y-16996735D01*
X8769892Y-17006258D01*
X8750844Y-17015782D01*
X8722273Y-17015782D01*
X8903225Y-17015782D02*
X8884177Y-17006258D01*
X8874654Y-16987211D01*
X8874654Y-16815782D01*
X9055606Y-17006258D02*
X9036558Y-17015782D01*
X8998463Y-17015782D01*
X8979415Y-17006258D01*
X8969892Y-16987211D01*
X8969892Y-16911020D01*
X8979415Y-16891973D01*
X8998463Y-16882449D01*
X9036558Y-16882449D01*
X9055606Y-16891973D01*
X9065130Y-16911020D01*
X9065130Y-16930068D01*
X8969892Y-16949116D01*
X9141320Y-17006258D02*
X9160368Y-17015782D01*
X9198463Y-17015782D01*
X9217511Y-17006258D01*
X9227034Y-16987211D01*
X9227034Y-16977687D01*
X9217511Y-16958639D01*
X9198463Y-16949116D01*
X9169892Y-16949116D01*
X9150844Y-16939592D01*
X9141320Y-16920544D01*
X9141320Y-16911020D01*
X9150844Y-16891973D01*
X9169892Y-16882449D01*
X9198463Y-16882449D01*
X9217511Y-16891973D01*
X9293701Y-17091973D02*
X9303225Y-17082449D01*
X9322273Y-17053877D01*
X9331796Y-17034830D01*
X9341320Y-17006258D01*
X9350844Y-16958639D01*
X9350844Y-16920544D01*
X9341320Y-16872925D01*
X9331796Y-16844354D01*
X9322273Y-16825306D01*
X9303225Y-16796735D01*
X9293701Y-16787211D01*
D13*
X4331320Y-17189306D02*
G75*
G03*
X4331320Y-17189306I-40000J0D01*
G01*
D11*
X4627034Y-17079782D02*
X4646082Y-17079782D01*
X4665130Y-17089306D01*
X4674654Y-17098830D01*
X4684177Y-17117877D01*
X4693701Y-17155973D01*
X4693701Y-17203592D01*
X4684177Y-17241687D01*
X4674654Y-17260735D01*
X4665130Y-17270258D01*
X4646082Y-17279782D01*
X4627034Y-17279782D01*
X4607987Y-17270258D01*
X4598463Y-17260735D01*
X4588939Y-17241687D01*
X4579415Y-17203592D01*
X4579415Y-17155973D01*
X4588939Y-17117877D01*
X4598463Y-17098830D01*
X4607987Y-17089306D01*
X4627034Y-17079782D01*
X4779415Y-17260735D02*
X4788939Y-17270258D01*
X4779415Y-17279782D01*
X4769892Y-17270258D01*
X4779415Y-17260735D01*
X4779415Y-17279782D01*
X4903225Y-17165496D02*
X4884177Y-17155973D01*
X4874654Y-17146449D01*
X4865130Y-17127401D01*
X4865130Y-17117877D01*
X4874654Y-17098830D01*
X4884177Y-17089306D01*
X4903225Y-17079782D01*
X4941320Y-17079782D01*
X4960368Y-17089306D01*
X4969892Y-17098830D01*
X4979415Y-17117877D01*
X4979415Y-17127401D01*
X4969892Y-17146449D01*
X4960368Y-17155973D01*
X4941320Y-17165496D01*
X4903225Y-17165496D01*
X4884177Y-17175020D01*
X4874654Y-17184544D01*
X4865130Y-17203592D01*
X4865130Y-17241687D01*
X4874654Y-17260735D01*
X4884177Y-17270258D01*
X4903225Y-17279782D01*
X4941320Y-17279782D01*
X4960368Y-17270258D01*
X4969892Y-17260735D01*
X4979415Y-17241687D01*
X4979415Y-17203592D01*
X4969892Y-17184544D01*
X4960368Y-17175020D01*
X4941320Y-17165496D01*
X5103225Y-17079782D02*
X5122273Y-17079782D01*
X5141320Y-17089306D01*
X5150844Y-17098830D01*
X5160368Y-17117877D01*
X5169892Y-17155973D01*
X5169892Y-17203592D01*
X5160368Y-17241687D01*
X5150844Y-17260735D01*
X5141320Y-17270258D01*
X5122273Y-17279782D01*
X5103225Y-17279782D01*
X5084177Y-17270258D01*
X5074654Y-17260735D01*
X5065130Y-17241687D01*
X5055606Y-17203592D01*
X5055606Y-17155973D01*
X5065130Y-17117877D01*
X5074654Y-17098830D01*
X5084177Y-17089306D01*
X5103225Y-17079782D01*
X5293701Y-17079782D02*
X5312749Y-17079782D01*
X5331796Y-17089306D01*
X5341320Y-17098830D01*
X5350844Y-17117877D01*
X5360368Y-17155973D01*
X5360368Y-17203592D01*
X5350844Y-17241687D01*
X5341320Y-17260735D01*
X5331796Y-17270258D01*
X5312749Y-17279782D01*
X5293701Y-17279782D01*
X5274654Y-17270258D01*
X5265130Y-17260735D01*
X5255606Y-17241687D01*
X5246082Y-17203592D01*
X5246082Y-17155973D01*
X5255606Y-17117877D01*
X5265130Y-17098830D01*
X5274654Y-17089306D01*
X5293701Y-17079782D01*
X5446082Y-17279782D02*
X5446082Y-17146449D01*
X5446082Y-17165496D02*
X5455606Y-17155973D01*
X5474654Y-17146449D01*
X5503225Y-17146449D01*
X5522273Y-17155973D01*
X5531796Y-17175020D01*
X5531796Y-17279782D01*
X5531796Y-17175020D02*
X5541320Y-17155973D01*
X5560368Y-17146449D01*
X5588939Y-17146449D01*
X5607987Y-17155973D01*
X5617511Y-17175020D01*
X5617511Y-17279782D01*
X5712749Y-17279782D02*
X5712749Y-17146449D01*
X5712749Y-17165496D02*
X5722272Y-17155973D01*
X5741320Y-17146449D01*
X5769892Y-17146449D01*
X5788939Y-17155973D01*
X5798463Y-17175020D01*
X5798463Y-17279782D01*
X5798463Y-17175020D02*
X5807987Y-17155973D01*
X5827034Y-17146449D01*
X5855606Y-17146449D01*
X5874653Y-17155973D01*
X5884177Y-17175020D01*
X5884177Y-17279782D01*
X6274653Y-17070258D02*
X6103225Y-17327401D01*
X6531796Y-17079782D02*
X6550844Y-17079782D01*
X6569892Y-17089306D01*
X6579415Y-17098830D01*
X6588939Y-17117877D01*
X6598463Y-17155973D01*
X6598463Y-17203592D01*
X6588939Y-17241687D01*
X6579415Y-17260735D01*
X6569892Y-17270258D01*
X6550844Y-17279782D01*
X6531796Y-17279782D01*
X6512749Y-17270258D01*
X6503225Y-17260735D01*
X6493701Y-17241687D01*
X6484177Y-17203592D01*
X6484177Y-17155973D01*
X6493701Y-17117877D01*
X6503225Y-17098830D01*
X6512749Y-17089306D01*
X6531796Y-17079782D01*
X6684177Y-17260735D02*
X6693701Y-17270258D01*
X6684177Y-17279782D01*
X6674653Y-17270258D01*
X6684177Y-17260735D01*
X6684177Y-17279782D01*
X6817511Y-17079782D02*
X6836558Y-17079782D01*
X6855606Y-17089306D01*
X6865130Y-17098830D01*
X6874653Y-17117877D01*
X6884177Y-17155973D01*
X6884177Y-17203592D01*
X6874653Y-17241687D01*
X6865130Y-17260735D01*
X6855606Y-17270258D01*
X6836558Y-17279782D01*
X6817511Y-17279782D01*
X6798463Y-17270258D01*
X6788939Y-17260735D01*
X6779415Y-17241687D01*
X6769892Y-17203592D01*
X6769892Y-17155973D01*
X6779415Y-17117877D01*
X6788939Y-17098830D01*
X6798463Y-17089306D01*
X6817511Y-17079782D01*
X6950844Y-17079782D02*
X7074653Y-17079782D01*
X7007987Y-17155973D01*
X7036558Y-17155973D01*
X7055606Y-17165496D01*
X7065130Y-17175020D01*
X7074653Y-17194068D01*
X7074653Y-17241687D01*
X7065130Y-17260735D01*
X7055606Y-17270258D01*
X7036558Y-17279782D01*
X6979415Y-17279782D01*
X6960368Y-17270258D01*
X6950844Y-17260735D01*
X7265130Y-17279782D02*
X7150844Y-17279782D01*
X7207987Y-17279782D02*
X7207987Y-17079782D01*
X7188939Y-17108354D01*
X7169892Y-17127401D01*
X7150844Y-17136925D01*
X7446082Y-17079782D02*
X7350844Y-17079782D01*
X7341320Y-17175020D01*
X7350844Y-17165496D01*
X7369892Y-17155973D01*
X7417511Y-17155973D01*
X7436558Y-17165496D01*
X7446082Y-17175020D01*
X7455606Y-17194068D01*
X7455606Y-17241687D01*
X7446082Y-17260735D01*
X7436558Y-17270258D01*
X7417511Y-17279782D01*
X7369892Y-17279782D01*
X7350844Y-17270258D01*
X7341320Y-17260735D01*
X7531796Y-17079782D02*
X7531796Y-17117877D01*
X7607987Y-17079782D02*
X7607987Y-17117877D01*
X7903225Y-17355973D02*
X7893701Y-17346449D01*
X7874653Y-17317877D01*
X7865130Y-17298830D01*
X7855606Y-17270258D01*
X7846082Y-17222639D01*
X7846082Y-17184544D01*
X7855606Y-17136925D01*
X7865130Y-17108354D01*
X7874653Y-17089306D01*
X7893701Y-17060735D01*
X7903225Y-17051211D01*
X7960368Y-17079782D02*
X8093701Y-17079782D01*
X8007987Y-17279782D01*
X8160368Y-17098830D02*
X8169892Y-17089306D01*
X8188939Y-17079782D01*
X8236558Y-17079782D01*
X8255606Y-17089306D01*
X8265130Y-17098830D01*
X8274653Y-17117877D01*
X8274653Y-17136925D01*
X8265130Y-17165496D01*
X8150844Y-17279782D01*
X8274653Y-17279782D01*
X8512749Y-17279782D02*
X8512749Y-17079782D01*
X8598463Y-17279782D02*
X8598463Y-17175020D01*
X8588939Y-17155973D01*
X8569892Y-17146449D01*
X8541320Y-17146449D01*
X8522273Y-17155973D01*
X8512749Y-17165496D01*
X8722273Y-17279782D02*
X8703225Y-17270258D01*
X8693701Y-17260735D01*
X8684177Y-17241687D01*
X8684177Y-17184544D01*
X8693701Y-17165496D01*
X8703225Y-17155973D01*
X8722273Y-17146449D01*
X8750844Y-17146449D01*
X8769892Y-17155973D01*
X8779415Y-17165496D01*
X8788939Y-17184544D01*
X8788939Y-17241687D01*
X8779415Y-17260735D01*
X8769892Y-17270258D01*
X8750844Y-17279782D01*
X8722273Y-17279782D01*
X8903225Y-17279782D02*
X8884177Y-17270258D01*
X8874654Y-17251211D01*
X8874654Y-17079782D01*
X9055606Y-17270258D02*
X9036558Y-17279782D01*
X8998463Y-17279782D01*
X8979415Y-17270258D01*
X8969892Y-17251211D01*
X8969892Y-17175020D01*
X8979415Y-17155973D01*
X8998463Y-17146449D01*
X9036558Y-17146449D01*
X9055606Y-17155973D01*
X9065130Y-17175020D01*
X9065130Y-17194068D01*
X8969892Y-17213116D01*
X9141320Y-17270258D02*
X9160368Y-17279782D01*
X9198463Y-17279782D01*
X9217511Y-17270258D01*
X9227034Y-17251211D01*
X9227034Y-17241687D01*
X9217511Y-17222639D01*
X9198463Y-17213116D01*
X9169892Y-17213116D01*
X9150844Y-17203592D01*
X9141320Y-17184544D01*
X9141320Y-17175020D01*
X9150844Y-17155973D01*
X9169892Y-17146449D01*
X9198463Y-17146449D01*
X9217511Y-17155973D01*
X9293701Y-17355973D02*
X9303225Y-17346449D01*
X9322273Y-17317877D01*
X9331796Y-17298830D01*
X9341320Y-17270258D01*
X9350844Y-17222639D01*
X9350844Y-17184544D01*
X9341320Y-17136925D01*
X9331796Y-17108354D01*
X9322273Y-17089306D01*
X9303225Y-17060735D01*
X9293701Y-17051211D01*
D10*
X4281320Y-17403306D02*
X4281320Y-17503306D01*
X4231320Y-17453306D02*
X4331320Y-17453306D01*
D11*
X4693701Y-17543782D02*
X4579415Y-17543782D01*
X4636558Y-17543782D02*
X4636558Y-17343782D01*
X4617511Y-17372354D01*
X4598463Y-17391401D01*
X4579415Y-17400925D01*
X4779415Y-17524735D02*
X4788939Y-17534258D01*
X4779415Y-17543782D01*
X4769892Y-17534258D01*
X4779415Y-17524735D01*
X4779415Y-17543782D01*
X4912749Y-17343782D02*
X4931796Y-17343782D01*
X4950844Y-17353306D01*
X4960368Y-17362830D01*
X4969892Y-17381877D01*
X4979415Y-17419973D01*
X4979415Y-17467592D01*
X4969892Y-17505687D01*
X4960368Y-17524735D01*
X4950844Y-17534258D01*
X4931796Y-17543782D01*
X4912749Y-17543782D01*
X4893701Y-17534258D01*
X4884177Y-17524735D01*
X4874654Y-17505687D01*
X4865130Y-17467592D01*
X4865130Y-17419973D01*
X4874654Y-17381877D01*
X4884177Y-17362830D01*
X4893701Y-17353306D01*
X4912749Y-17343782D01*
X5103225Y-17343782D02*
X5122273Y-17343782D01*
X5141320Y-17353306D01*
X5150844Y-17362830D01*
X5160368Y-17381877D01*
X5169892Y-17419973D01*
X5169892Y-17467592D01*
X5160368Y-17505687D01*
X5150844Y-17524735D01*
X5141320Y-17534258D01*
X5122273Y-17543782D01*
X5103225Y-17543782D01*
X5084177Y-17534258D01*
X5074654Y-17524735D01*
X5065130Y-17505687D01*
X5055606Y-17467592D01*
X5055606Y-17419973D01*
X5065130Y-17381877D01*
X5074654Y-17362830D01*
X5084177Y-17353306D01*
X5103225Y-17343782D01*
X5293701Y-17343782D02*
X5312749Y-17343782D01*
X5331796Y-17353306D01*
X5341320Y-17362830D01*
X5350844Y-17381877D01*
X5360368Y-17419973D01*
X5360368Y-17467592D01*
X5350844Y-17505687D01*
X5341320Y-17524735D01*
X5331796Y-17534258D01*
X5312749Y-17543782D01*
X5293701Y-17543782D01*
X5274654Y-17534258D01*
X5265130Y-17524735D01*
X5255606Y-17505687D01*
X5246082Y-17467592D01*
X5246082Y-17419973D01*
X5255606Y-17381877D01*
X5265130Y-17362830D01*
X5274654Y-17353306D01*
X5293701Y-17343782D01*
X5446082Y-17543782D02*
X5446082Y-17410449D01*
X5446082Y-17429496D02*
X5455606Y-17419973D01*
X5474654Y-17410449D01*
X5503225Y-17410449D01*
X5522273Y-17419973D01*
X5531796Y-17439020D01*
X5531796Y-17543782D01*
X5531796Y-17439020D02*
X5541320Y-17419973D01*
X5560368Y-17410449D01*
X5588939Y-17410449D01*
X5607987Y-17419973D01*
X5617511Y-17439020D01*
X5617511Y-17543782D01*
X5712749Y-17543782D02*
X5712749Y-17410449D01*
X5712749Y-17429496D02*
X5722272Y-17419973D01*
X5741320Y-17410449D01*
X5769892Y-17410449D01*
X5788939Y-17419973D01*
X5798463Y-17439020D01*
X5798463Y-17543782D01*
X5798463Y-17439020D02*
X5807987Y-17419973D01*
X5827034Y-17410449D01*
X5855606Y-17410449D01*
X5874653Y-17419973D01*
X5884177Y-17439020D01*
X5884177Y-17543782D01*
X6274653Y-17334258D02*
X6103225Y-17591401D01*
X6531796Y-17343782D02*
X6550844Y-17343782D01*
X6569892Y-17353306D01*
X6579415Y-17362830D01*
X6588939Y-17381877D01*
X6598463Y-17419973D01*
X6598463Y-17467592D01*
X6588939Y-17505687D01*
X6579415Y-17524735D01*
X6569892Y-17534258D01*
X6550844Y-17543782D01*
X6531796Y-17543782D01*
X6512749Y-17534258D01*
X6503225Y-17524735D01*
X6493701Y-17505687D01*
X6484177Y-17467592D01*
X6484177Y-17419973D01*
X6493701Y-17381877D01*
X6503225Y-17362830D01*
X6512749Y-17353306D01*
X6531796Y-17343782D01*
X6684177Y-17524735D02*
X6693701Y-17534258D01*
X6684177Y-17543782D01*
X6674653Y-17534258D01*
X6684177Y-17524735D01*
X6684177Y-17543782D01*
X6817511Y-17343782D02*
X6836558Y-17343782D01*
X6855606Y-17353306D01*
X6865130Y-17362830D01*
X6874653Y-17381877D01*
X6884177Y-17419973D01*
X6884177Y-17467592D01*
X6874653Y-17505687D01*
X6865130Y-17524735D01*
X6855606Y-17534258D01*
X6836558Y-17543782D01*
X6817511Y-17543782D01*
X6798463Y-17534258D01*
X6788939Y-17524735D01*
X6779415Y-17505687D01*
X6769892Y-17467592D01*
X6769892Y-17419973D01*
X6779415Y-17381877D01*
X6788939Y-17362830D01*
X6798463Y-17353306D01*
X6817511Y-17343782D01*
X6950844Y-17343782D02*
X7074653Y-17343782D01*
X7007987Y-17419973D01*
X7036558Y-17419973D01*
X7055606Y-17429496D01*
X7065130Y-17439020D01*
X7074653Y-17458068D01*
X7074653Y-17505687D01*
X7065130Y-17524735D01*
X7055606Y-17534258D01*
X7036558Y-17543782D01*
X6979415Y-17543782D01*
X6960368Y-17534258D01*
X6950844Y-17524735D01*
X7169892Y-17543782D02*
X7207987Y-17543782D01*
X7227034Y-17534258D01*
X7236558Y-17524735D01*
X7255606Y-17496163D01*
X7265130Y-17458068D01*
X7265130Y-17381877D01*
X7255606Y-17362830D01*
X7246082Y-17353306D01*
X7227034Y-17343782D01*
X7188939Y-17343782D01*
X7169892Y-17353306D01*
X7160368Y-17362830D01*
X7150844Y-17381877D01*
X7150844Y-17429496D01*
X7160368Y-17448544D01*
X7169892Y-17458068D01*
X7188939Y-17467592D01*
X7227034Y-17467592D01*
X7246082Y-17458068D01*
X7255606Y-17448544D01*
X7265130Y-17429496D01*
X7436558Y-17410449D02*
X7436558Y-17543782D01*
X7388939Y-17334258D02*
X7341320Y-17477116D01*
X7465130Y-17477116D01*
X7531796Y-17343782D02*
X7531796Y-17381877D01*
X7607987Y-17343782D02*
X7607987Y-17381877D01*
X7903225Y-17619973D02*
X7893701Y-17610449D01*
X7874653Y-17581877D01*
X7865130Y-17562830D01*
X7855606Y-17534258D01*
X7846082Y-17486639D01*
X7846082Y-17448544D01*
X7855606Y-17400925D01*
X7865130Y-17372354D01*
X7874653Y-17353306D01*
X7893701Y-17324735D01*
X7903225Y-17315211D01*
X8084177Y-17543782D02*
X7969892Y-17543782D01*
X8027034Y-17543782D02*
X8027034Y-17343782D01*
X8007987Y-17372354D01*
X7988939Y-17391401D01*
X7969892Y-17400925D01*
X8255606Y-17343782D02*
X8217511Y-17343782D01*
X8198463Y-17353306D01*
X8188939Y-17362830D01*
X8169892Y-17391401D01*
X8160368Y-17429496D01*
X8160368Y-17505687D01*
X8169892Y-17524735D01*
X8179415Y-17534258D01*
X8198463Y-17543782D01*
X8236558Y-17543782D01*
X8255606Y-17534258D01*
X8265130Y-17524735D01*
X8274653Y-17505687D01*
X8274653Y-17458068D01*
X8265130Y-17439020D01*
X8255606Y-17429496D01*
X8236558Y-17419973D01*
X8198463Y-17419973D01*
X8179415Y-17429496D01*
X8169892Y-17439020D01*
X8160368Y-17458068D01*
X8512749Y-17543782D02*
X8512749Y-17343782D01*
X8598463Y-17543782D02*
X8598463Y-17439020D01*
X8588939Y-17419973D01*
X8569892Y-17410449D01*
X8541320Y-17410449D01*
X8522273Y-17419973D01*
X8512749Y-17429496D01*
X8722273Y-17543782D02*
X8703225Y-17534258D01*
X8693701Y-17524735D01*
X8684177Y-17505687D01*
X8684177Y-17448544D01*
X8693701Y-17429496D01*
X8703225Y-17419973D01*
X8722273Y-17410449D01*
X8750844Y-17410449D01*
X8769892Y-17419973D01*
X8779415Y-17429496D01*
X8788939Y-17448544D01*
X8788939Y-17505687D01*
X8779415Y-17524735D01*
X8769892Y-17534258D01*
X8750844Y-17543782D01*
X8722273Y-17543782D01*
X8903225Y-17543782D02*
X8884177Y-17534258D01*
X8874654Y-17515211D01*
X8874654Y-17343782D01*
X9055606Y-17534258D02*
X9036558Y-17543782D01*
X8998463Y-17543782D01*
X8979415Y-17534258D01*
X8969892Y-17515211D01*
X8969892Y-17439020D01*
X8979415Y-17419973D01*
X8998463Y-17410449D01*
X9036558Y-17410449D01*
X9055606Y-17419973D01*
X9065130Y-17439020D01*
X9065130Y-17458068D01*
X8969892Y-17477116D01*
X9141320Y-17534258D02*
X9160368Y-17543782D01*
X9198463Y-17543782D01*
X9217511Y-17534258D01*
X9227034Y-17515211D01*
X9227034Y-17505687D01*
X9217511Y-17486639D01*
X9198463Y-17477116D01*
X9169892Y-17477116D01*
X9150844Y-17467592D01*
X9141320Y-17448544D01*
X9141320Y-17439020D01*
X9150844Y-17419973D01*
X9169892Y-17410449D01*
X9198463Y-17410449D01*
X9217511Y-17419973D01*
X9293701Y-17619973D02*
X9303225Y-17610449D01*
X9322273Y-17581877D01*
X9331796Y-17562830D01*
X9341320Y-17534258D01*
X9350844Y-17486639D01*
X9350844Y-17448544D01*
X9341320Y-17400925D01*
X9331796Y-17372354D01*
X9322273Y-17353306D01*
X9303225Y-17324735D01*
X9293701Y-17315211D01*
X4302032Y-17788017D02*
X4302032Y-17646595D01*
X4160609Y-17646595D01*
X4160609Y-17788017D01*
X4302032Y-17788017D01*
X4569892Y-17607782D02*
X4693701Y-17607782D01*
X4627034Y-17683973D01*
X4655606Y-17683973D01*
X4674654Y-17693496D01*
X4684177Y-17703020D01*
X4693701Y-17722068D01*
X4693701Y-17769687D01*
X4684177Y-17788735D01*
X4674654Y-17798258D01*
X4655606Y-17807782D01*
X4598463Y-17807782D01*
X4579415Y-17798258D01*
X4569892Y-17788735D01*
X4779415Y-17788735D02*
X4788939Y-17798258D01*
X4779415Y-17807782D01*
X4769892Y-17798258D01*
X4779415Y-17788735D01*
X4779415Y-17807782D01*
X4912749Y-17607782D02*
X4931796Y-17607782D01*
X4950844Y-17617306D01*
X4960368Y-17626830D01*
X4969892Y-17645877D01*
X4979415Y-17683973D01*
X4979415Y-17731592D01*
X4969892Y-17769687D01*
X4960368Y-17788735D01*
X4950844Y-17798258D01*
X4931796Y-17807782D01*
X4912749Y-17807782D01*
X4893701Y-17798258D01*
X4884177Y-17788735D01*
X4874654Y-17769687D01*
X4865130Y-17731592D01*
X4865130Y-17683973D01*
X4874654Y-17645877D01*
X4884177Y-17626830D01*
X4893701Y-17617306D01*
X4912749Y-17607782D01*
X5103225Y-17607782D02*
X5122273Y-17607782D01*
X5141320Y-17617306D01*
X5150844Y-17626830D01*
X5160368Y-17645877D01*
X5169892Y-17683973D01*
X5169892Y-17731592D01*
X5160368Y-17769687D01*
X5150844Y-17788735D01*
X5141320Y-17798258D01*
X5122273Y-17807782D01*
X5103225Y-17807782D01*
X5084177Y-17798258D01*
X5074654Y-17788735D01*
X5065130Y-17769687D01*
X5055606Y-17731592D01*
X5055606Y-17683973D01*
X5065130Y-17645877D01*
X5074654Y-17626830D01*
X5084177Y-17617306D01*
X5103225Y-17607782D01*
X5293701Y-17607782D02*
X5312749Y-17607782D01*
X5331796Y-17617306D01*
X5341320Y-17626830D01*
X5350844Y-17645877D01*
X5360368Y-17683973D01*
X5360368Y-17731592D01*
X5350844Y-17769687D01*
X5341320Y-17788735D01*
X5331796Y-17798258D01*
X5312749Y-17807782D01*
X5293701Y-17807782D01*
X5274654Y-17798258D01*
X5265130Y-17788735D01*
X5255606Y-17769687D01*
X5246082Y-17731592D01*
X5246082Y-17683973D01*
X5255606Y-17645877D01*
X5265130Y-17626830D01*
X5274654Y-17617306D01*
X5293701Y-17607782D01*
X5446082Y-17807782D02*
X5446082Y-17674449D01*
X5446082Y-17693496D02*
X5455606Y-17683973D01*
X5474654Y-17674449D01*
X5503225Y-17674449D01*
X5522273Y-17683973D01*
X5531796Y-17703020D01*
X5531796Y-17807782D01*
X5531796Y-17703020D02*
X5541320Y-17683973D01*
X5560368Y-17674449D01*
X5588939Y-17674449D01*
X5607987Y-17683973D01*
X5617511Y-17703020D01*
X5617511Y-17807782D01*
X5712749Y-17807782D02*
X5712749Y-17674449D01*
X5712749Y-17693496D02*
X5722272Y-17683973D01*
X5741320Y-17674449D01*
X5769892Y-17674449D01*
X5788939Y-17683973D01*
X5798463Y-17703020D01*
X5798463Y-17807782D01*
X5798463Y-17703020D02*
X5807987Y-17683973D01*
X5827034Y-17674449D01*
X5855606Y-17674449D01*
X5874653Y-17683973D01*
X5884177Y-17703020D01*
X5884177Y-17807782D01*
X6274653Y-17598258D02*
X6103225Y-17855401D01*
X6531796Y-17607782D02*
X6550844Y-17607782D01*
X6569892Y-17617306D01*
X6579415Y-17626830D01*
X6588939Y-17645877D01*
X6598463Y-17683973D01*
X6598463Y-17731592D01*
X6588939Y-17769687D01*
X6579415Y-17788735D01*
X6569892Y-17798258D01*
X6550844Y-17807782D01*
X6531796Y-17807782D01*
X6512749Y-17798258D01*
X6503225Y-17788735D01*
X6493701Y-17769687D01*
X6484177Y-17731592D01*
X6484177Y-17683973D01*
X6493701Y-17645877D01*
X6503225Y-17626830D01*
X6512749Y-17617306D01*
X6531796Y-17607782D01*
X6684177Y-17788735D02*
X6693701Y-17798258D01*
X6684177Y-17807782D01*
X6674653Y-17798258D01*
X6684177Y-17788735D01*
X6684177Y-17807782D01*
X6884177Y-17807782D02*
X6769892Y-17807782D01*
X6827034Y-17807782D02*
X6827034Y-17607782D01*
X6807987Y-17636354D01*
X6788939Y-17655401D01*
X6769892Y-17664925D01*
X7074653Y-17807782D02*
X6960368Y-17807782D01*
X7017511Y-17807782D02*
X7017511Y-17607782D01*
X6998463Y-17636354D01*
X6979415Y-17655401D01*
X6960368Y-17664925D01*
X7188939Y-17693496D02*
X7169892Y-17683973D01*
X7160368Y-17674449D01*
X7150844Y-17655401D01*
X7150844Y-17645877D01*
X7160368Y-17626830D01*
X7169892Y-17617306D01*
X7188939Y-17607782D01*
X7227034Y-17607782D01*
X7246082Y-17617306D01*
X7255606Y-17626830D01*
X7265130Y-17645877D01*
X7265130Y-17655401D01*
X7255606Y-17674449D01*
X7246082Y-17683973D01*
X7227034Y-17693496D01*
X7188939Y-17693496D01*
X7169892Y-17703020D01*
X7160368Y-17712544D01*
X7150844Y-17731592D01*
X7150844Y-17769687D01*
X7160368Y-17788735D01*
X7169892Y-17798258D01*
X7188939Y-17807782D01*
X7227034Y-17807782D01*
X7246082Y-17798258D01*
X7255606Y-17788735D01*
X7265130Y-17769687D01*
X7265130Y-17731592D01*
X7255606Y-17712544D01*
X7246082Y-17703020D01*
X7227034Y-17693496D01*
X7455606Y-17807782D02*
X7341320Y-17807782D01*
X7398463Y-17807782D02*
X7398463Y-17607782D01*
X7379415Y-17636354D01*
X7360368Y-17655401D01*
X7341320Y-17664925D01*
X7531796Y-17607782D02*
X7531796Y-17645877D01*
X7607987Y-17607782D02*
X7607987Y-17645877D01*
X7903225Y-17883973D02*
X7893701Y-17874449D01*
X7874653Y-17845877D01*
X7865130Y-17826830D01*
X7855606Y-17798258D01*
X7846082Y-17750639D01*
X7846082Y-17712544D01*
X7855606Y-17664925D01*
X7865130Y-17636354D01*
X7874653Y-17617306D01*
X7893701Y-17588735D01*
X7903225Y-17579211D01*
X8007987Y-17693496D02*
X7988939Y-17683973D01*
X7979415Y-17674449D01*
X7969892Y-17655401D01*
X7969892Y-17645877D01*
X7979415Y-17626830D01*
X7988939Y-17617306D01*
X8007987Y-17607782D01*
X8046082Y-17607782D01*
X8065130Y-17617306D01*
X8074653Y-17626830D01*
X8084177Y-17645877D01*
X8084177Y-17655401D01*
X8074653Y-17674449D01*
X8065130Y-17683973D01*
X8046082Y-17693496D01*
X8007987Y-17693496D01*
X7988939Y-17703020D01*
X7979415Y-17712544D01*
X7969892Y-17731592D01*
X7969892Y-17769687D01*
X7979415Y-17788735D01*
X7988939Y-17798258D01*
X8007987Y-17807782D01*
X8046082Y-17807782D01*
X8065130Y-17798258D01*
X8074653Y-17788735D01*
X8084177Y-17769687D01*
X8084177Y-17731592D01*
X8074653Y-17712544D01*
X8065130Y-17703020D01*
X8046082Y-17693496D01*
X8255606Y-17607782D02*
X8217511Y-17607782D01*
X8198463Y-17617306D01*
X8188939Y-17626830D01*
X8169892Y-17655401D01*
X8160368Y-17693496D01*
X8160368Y-17769687D01*
X8169892Y-17788735D01*
X8179415Y-17798258D01*
X8198463Y-17807782D01*
X8236558Y-17807782D01*
X8255606Y-17798258D01*
X8265130Y-17788735D01*
X8274653Y-17769687D01*
X8274653Y-17722068D01*
X8265130Y-17703020D01*
X8255606Y-17693496D01*
X8236558Y-17683973D01*
X8198463Y-17683973D01*
X8179415Y-17693496D01*
X8169892Y-17703020D01*
X8160368Y-17722068D01*
X8512749Y-17807782D02*
X8512749Y-17607782D01*
X8598463Y-17807782D02*
X8598463Y-17703020D01*
X8588939Y-17683973D01*
X8569892Y-17674449D01*
X8541320Y-17674449D01*
X8522273Y-17683973D01*
X8512749Y-17693496D01*
X8722273Y-17807782D02*
X8703225Y-17798258D01*
X8693701Y-17788735D01*
X8684177Y-17769687D01*
X8684177Y-17712544D01*
X8693701Y-17693496D01*
X8703225Y-17683973D01*
X8722273Y-17674449D01*
X8750844Y-17674449D01*
X8769892Y-17683973D01*
X8779415Y-17693496D01*
X8788939Y-17712544D01*
X8788939Y-17769687D01*
X8779415Y-17788735D01*
X8769892Y-17798258D01*
X8750844Y-17807782D01*
X8722273Y-17807782D01*
X8903225Y-17807782D02*
X8884177Y-17798258D01*
X8874654Y-17779211D01*
X8874654Y-17607782D01*
X9055606Y-17798258D02*
X9036558Y-17807782D01*
X8998463Y-17807782D01*
X8979415Y-17798258D01*
X8969892Y-17779211D01*
X8969892Y-17703020D01*
X8979415Y-17683973D01*
X8998463Y-17674449D01*
X9036558Y-17674449D01*
X9055606Y-17683973D01*
X9065130Y-17703020D01*
X9065130Y-17722068D01*
X8969892Y-17741116D01*
X9141320Y-17798258D02*
X9160368Y-17807782D01*
X9198463Y-17807782D01*
X9217511Y-17798258D01*
X9227034Y-17779211D01*
X9227034Y-17769687D01*
X9217511Y-17750639D01*
X9198463Y-17741116D01*
X9169892Y-17741116D01*
X9150844Y-17731592D01*
X9141320Y-17712544D01*
X9141320Y-17703020D01*
X9150844Y-17683973D01*
X9169892Y-17674449D01*
X9198463Y-17674449D01*
X9217511Y-17683973D01*
X9293701Y-17883973D02*
X9303225Y-17874449D01*
X9322273Y-17845877D01*
X9331796Y-17826830D01*
X9341320Y-17798258D01*
X9350844Y-17750639D01*
X9350844Y-17712544D01*
X9341320Y-17664925D01*
X9331796Y-17636354D01*
X9322273Y-17617306D01*
X9303225Y-17588735D01*
X9293701Y-17579211D01*
X4231320Y-18137306D02*
X4331320Y-18037306D01*
X4231320Y-17937306D01*
X4131320Y-18037306D01*
X4231320Y-18137306D01*
X4569892Y-17927782D02*
X4693701Y-17927782D01*
X4627034Y-18003973D01*
X4655606Y-18003973D01*
X4674654Y-18013496D01*
X4684177Y-18023020D01*
X4693701Y-18042068D01*
X4693701Y-18089687D01*
X4684177Y-18108735D01*
X4674654Y-18118258D01*
X4655606Y-18127782D01*
X4598463Y-18127782D01*
X4579415Y-18118258D01*
X4569892Y-18108735D01*
X4779415Y-18108735D02*
X4788939Y-18118258D01*
X4779415Y-18127782D01*
X4769892Y-18118258D01*
X4779415Y-18108735D01*
X4779415Y-18127782D01*
X4865130Y-17946830D02*
X4874654Y-17937306D01*
X4893701Y-17927782D01*
X4941320Y-17927782D01*
X4960368Y-17937306D01*
X4969892Y-17946830D01*
X4979415Y-17965877D01*
X4979415Y-17984925D01*
X4969892Y-18013496D01*
X4855606Y-18127782D01*
X4979415Y-18127782D01*
X5103225Y-17927782D02*
X5122273Y-17927782D01*
X5141320Y-17937306D01*
X5150844Y-17946830D01*
X5160368Y-17965877D01*
X5169892Y-18003973D01*
X5169892Y-18051592D01*
X5160368Y-18089687D01*
X5150844Y-18108735D01*
X5141320Y-18118258D01*
X5122273Y-18127782D01*
X5103225Y-18127782D01*
X5084177Y-18118258D01*
X5074654Y-18108735D01*
X5065130Y-18089687D01*
X5055606Y-18051592D01*
X5055606Y-18003973D01*
X5065130Y-17965877D01*
X5074654Y-17946830D01*
X5084177Y-17937306D01*
X5103225Y-17927782D01*
X5293701Y-17927782D02*
X5312749Y-17927782D01*
X5331796Y-17937306D01*
X5341320Y-17946830D01*
X5350844Y-17965877D01*
X5360368Y-18003973D01*
X5360368Y-18051592D01*
X5350844Y-18089687D01*
X5341320Y-18108735D01*
X5331796Y-18118258D01*
X5312749Y-18127782D01*
X5293701Y-18127782D01*
X5274654Y-18118258D01*
X5265130Y-18108735D01*
X5255606Y-18089687D01*
X5246082Y-18051592D01*
X5246082Y-18003973D01*
X5255606Y-17965877D01*
X5265130Y-17946830D01*
X5274654Y-17937306D01*
X5293701Y-17927782D01*
X5446082Y-18127782D02*
X5446082Y-17994449D01*
X5446082Y-18013496D02*
X5455606Y-18003973D01*
X5474654Y-17994449D01*
X5503225Y-17994449D01*
X5522273Y-18003973D01*
X5531796Y-18023020D01*
X5531796Y-18127782D01*
X5531796Y-18023020D02*
X5541320Y-18003973D01*
X5560368Y-17994449D01*
X5588939Y-17994449D01*
X5607987Y-18003973D01*
X5617511Y-18023020D01*
X5617511Y-18127782D01*
X5712749Y-18127782D02*
X5712749Y-17994449D01*
X5712749Y-18013496D02*
X5722272Y-18003973D01*
X5741320Y-17994449D01*
X5769892Y-17994449D01*
X5788939Y-18003973D01*
X5798463Y-18023020D01*
X5798463Y-18127782D01*
X5798463Y-18023020D02*
X5807987Y-18003973D01*
X5827034Y-17994449D01*
X5855606Y-17994449D01*
X5874653Y-18003973D01*
X5884177Y-18023020D01*
X5884177Y-18127782D01*
X6274653Y-17918258D02*
X6103225Y-18175401D01*
X6531796Y-17927782D02*
X6550844Y-17927782D01*
X6569892Y-17937306D01*
X6579415Y-17946830D01*
X6588939Y-17965877D01*
X6598463Y-18003973D01*
X6598463Y-18051592D01*
X6588939Y-18089687D01*
X6579415Y-18108735D01*
X6569892Y-18118258D01*
X6550844Y-18127782D01*
X6531796Y-18127782D01*
X6512749Y-18118258D01*
X6503225Y-18108735D01*
X6493701Y-18089687D01*
X6484177Y-18051592D01*
X6484177Y-18003973D01*
X6493701Y-17965877D01*
X6503225Y-17946830D01*
X6512749Y-17937306D01*
X6531796Y-17927782D01*
X6684177Y-18108735D02*
X6693701Y-18118258D01*
X6684177Y-18127782D01*
X6674653Y-18118258D01*
X6684177Y-18108735D01*
X6684177Y-18127782D01*
X6884177Y-18127782D02*
X6769892Y-18127782D01*
X6827034Y-18127782D02*
X6827034Y-17927782D01*
X6807987Y-17956354D01*
X6788939Y-17975401D01*
X6769892Y-17984925D01*
X6960368Y-17946830D02*
X6969892Y-17937306D01*
X6988939Y-17927782D01*
X7036558Y-17927782D01*
X7055606Y-17937306D01*
X7065130Y-17946830D01*
X7074653Y-17965877D01*
X7074653Y-17984925D01*
X7065130Y-18013496D01*
X6950844Y-18127782D01*
X7074653Y-18127782D01*
X7246082Y-17927782D02*
X7207987Y-17927782D01*
X7188939Y-17937306D01*
X7179415Y-17946830D01*
X7160368Y-17975401D01*
X7150844Y-18013496D01*
X7150844Y-18089687D01*
X7160368Y-18108735D01*
X7169892Y-18118258D01*
X7188939Y-18127782D01*
X7227034Y-18127782D01*
X7246082Y-18118258D01*
X7255606Y-18108735D01*
X7265130Y-18089687D01*
X7265130Y-18042068D01*
X7255606Y-18023020D01*
X7246082Y-18013496D01*
X7227034Y-18003973D01*
X7188939Y-18003973D01*
X7169892Y-18013496D01*
X7160368Y-18023020D01*
X7150844Y-18042068D01*
X7388939Y-17927782D02*
X7407987Y-17927782D01*
X7427034Y-17937306D01*
X7436558Y-17946830D01*
X7446082Y-17965877D01*
X7455606Y-18003973D01*
X7455606Y-18051592D01*
X7446082Y-18089687D01*
X7436558Y-18108735D01*
X7427034Y-18118258D01*
X7407987Y-18127782D01*
X7388939Y-18127782D01*
X7369892Y-18118258D01*
X7360368Y-18108735D01*
X7350844Y-18089687D01*
X7341320Y-18051592D01*
X7341320Y-18003973D01*
X7350844Y-17965877D01*
X7360368Y-17946830D01*
X7369892Y-17937306D01*
X7388939Y-17927782D01*
X7531796Y-17927782D02*
X7531796Y-17965877D01*
X7607987Y-17927782D02*
X7607987Y-17965877D01*
X7903225Y-18203973D02*
X7893701Y-18194449D01*
X7874653Y-18165877D01*
X7865130Y-18146830D01*
X7855606Y-18118258D01*
X7846082Y-18070639D01*
X7846082Y-18032544D01*
X7855606Y-17984925D01*
X7865130Y-17956354D01*
X7874653Y-17937306D01*
X7893701Y-17908735D01*
X7903225Y-17899211D01*
X8065130Y-17994449D02*
X8065130Y-18127782D01*
X8017511Y-17918258D02*
X7969892Y-18061116D01*
X8093701Y-18061116D01*
X8322272Y-18127782D02*
X8322272Y-17927782D01*
X8407987Y-18127782D02*
X8407987Y-18023020D01*
X8398463Y-18003973D01*
X8379415Y-17994449D01*
X8350844Y-17994449D01*
X8331796Y-18003973D01*
X8322272Y-18013496D01*
X8531796Y-18127782D02*
X8512749Y-18118258D01*
X8503225Y-18108735D01*
X8493701Y-18089687D01*
X8493701Y-18032544D01*
X8503225Y-18013496D01*
X8512749Y-18003973D01*
X8531796Y-17994449D01*
X8560368Y-17994449D01*
X8579415Y-18003973D01*
X8588939Y-18013496D01*
X8598463Y-18032544D01*
X8598463Y-18089687D01*
X8588939Y-18108735D01*
X8579415Y-18118258D01*
X8560368Y-18127782D01*
X8531796Y-18127782D01*
X8712749Y-18127782D02*
X8693701Y-18118258D01*
X8684177Y-18099211D01*
X8684177Y-17927782D01*
X8865130Y-18118258D02*
X8846082Y-18127782D01*
X8807987Y-18127782D01*
X8788939Y-18118258D01*
X8779415Y-18099211D01*
X8779415Y-18023020D01*
X8788939Y-18003973D01*
X8807987Y-17994449D01*
X8846082Y-17994449D01*
X8865130Y-18003973D01*
X8874654Y-18023020D01*
X8874654Y-18042068D01*
X8779415Y-18061116D01*
X8950844Y-18118258D02*
X8969892Y-18127782D01*
X9007987Y-18127782D01*
X9027034Y-18118258D01*
X9036558Y-18099211D01*
X9036558Y-18089687D01*
X9027034Y-18070639D01*
X9007987Y-18061116D01*
X8979415Y-18061116D01*
X8960368Y-18051592D01*
X8950844Y-18032544D01*
X8950844Y-18023020D01*
X8960368Y-18003973D01*
X8979415Y-17994449D01*
X9007987Y-17994449D01*
X9027034Y-18003973D01*
X9103225Y-18203973D02*
X9112749Y-18194449D01*
X9131796Y-18165877D01*
X9141320Y-18146830D01*
X9150844Y-18118258D01*
X9160368Y-18070639D01*
X9160368Y-18032544D01*
X9150844Y-17984925D01*
X9141320Y-17956354D01*
X9131796Y-17937306D01*
X9112749Y-17908735D01*
X9103225Y-17899211D01*
M02*
