M48
; DRILL file {KiCad (6.0.9)} date Tue Dec  6 20:11:08 2022
; FORMAT={-:-/ absolute / inch / decimal}
; #@! TF.CreationDate,2022-12-06T20:11:08+01:00
; #@! TF.GenerationSoftware,Kicad,Pcbnew,(6.0.9)
; #@! TF.FileFunction,Plated,1,2,PTH
FMAT,2
INCH
; #@! TA.AperFunction,Plated,PTH,ViaDrill
T1C0.0157
; #@! TA.AperFunction,Plated,PTH,ComponentDrill
T2C0.0315
; #@! TA.AperFunction,Plated,PTH,ComponentDrill
T3C0.0394
; #@! TA.AperFunction,Plated,PTH,ComponentDrill
T4C0.1181
; #@! TA.AperFunction,Plated,PTH,ComponentDrill
T5C0.1260
%
G90
G05
T1
X1.8947Y-5.7221
X3.3947Y-2.8471
X3.426Y-4.3471
X3.426Y-5.8158
X3.801Y-3.3158
X3.8322Y-4.8158
X4.2383Y-5.0837
X4.3008Y-3.615
X4.6133Y-4.0837
X4.6133Y-5.615
T2
X1.8008Y-2.59
X1.8008Y-2.89
X1.8008Y-3.34
X1.8008Y-3.64
X1.8008Y-4.09
X1.8008Y-4.39
X1.8008Y-4.84
X1.8008Y-5.14
X1.8008Y-5.59
X1.8008Y-5.89
X2.1008Y-2.365
X2.4008Y-2.365
X2.5258Y-6.3025
X2.5508Y-2.59
X2.5508Y-2.89
X2.5508Y-3.34
X2.5508Y-3.64
X2.5508Y-4.09
X2.5508Y-4.39
X2.5508Y-4.84
X2.5508Y-5.14
X2.8258Y-6.3025
X2.8508Y-2.365
X3.1508Y-2.365
X3.3008Y-2.59
X3.3008Y-2.89
X3.3008Y-3.34
X3.3008Y-3.64
X3.3008Y-4.09
X3.3008Y-4.39
X3.3008Y-4.84
X3.3008Y-5.14
X3.3008Y-5.59
X3.3008Y-5.89
X3.6008Y-2.365
X3.9008Y-2.365
X4.0508Y-2.59
X4.0508Y-2.89
X4.0508Y-3.34
X4.0508Y-3.64
X4.0508Y-4.09
X4.0508Y-4.39
X4.0508Y-4.84
X4.0508Y-5.14
X4.0508Y-5.59
X4.0508Y-5.89
X4.3508Y-2.365
X4.6508Y-2.365
X4.8008Y-2.59
X4.8008Y-2.89
X4.8008Y-3.34
X4.8008Y-3.64
X4.8008Y-4.09
X4.8008Y-4.39
X4.8008Y-4.84
X4.8008Y-5.14
X4.8008Y-5.59
X4.8008Y-5.89
X5.1008Y-2.365
X5.4008Y-2.365
X5.5258Y-6.3025
X5.5508Y-2.59
X5.5508Y-2.89
X5.5508Y-3.34
X5.5508Y-3.64
X5.5508Y-4.09
X5.5508Y-4.39
X5.5508Y-4.84
X5.5508Y-5.14
X5.8258Y-6.3025
X5.8695Y-2.365
X6.1695Y-2.365
T3
X3.6758Y-1.6283
X3.707Y-2.49
X3.7758Y-1.6283
X3.807Y-2.49
X3.8758Y-1.6283
X3.907Y-2.49
X3.9758Y-1.6283
X4.007Y-2.49
X4.0758Y-1.6283
X4.107Y-2.49
X4.1758Y-1.6283
X4.207Y-2.49
X4.2758Y-1.6283
X4.307Y-2.49
X4.3758Y-1.6283
X4.407Y-2.49
T4
X2.0258Y-2.1025
X2.0258Y-3.04
X2.0258Y-3.79
X2.0258Y-4.54
X2.0258Y-5.29
X2.0258Y-6.04
X2.2758Y-2.2025
X2.2758Y-3.14
X2.2758Y-3.89
X2.2758Y-4.64
X2.2758Y-5.39
X2.2758Y-6.14
X2.4008Y-2.1025
X2.4008Y-6.04
X2.6508Y-2.2025
X2.6508Y-6.14
X2.7758Y-2.1025
X2.7758Y-3.04
X2.7758Y-3.79
X2.7758Y-4.54
X2.7758Y-5.29
X2.7758Y-6.04
X3.0258Y-2.2025
X3.0258Y-3.14
X3.0258Y-3.89
X3.0258Y-4.64
X3.0258Y-5.39
X3.0258Y-6.14
X3.1508Y-2.1025
X3.4008Y-2.2025
X3.5258Y-2.1025
X3.5258Y-3.04
X3.5258Y-3.79
X3.5258Y-4.54
X3.5258Y-5.29
X3.5258Y-6.04
X3.7758Y-2.2025
X3.7758Y-3.14
X3.7758Y-3.89
X3.7758Y-4.64
X3.7758Y-5.39
X3.7758Y-6.14
X3.9008Y-2.1025
X4.1508Y-2.2025
X4.2758Y-2.1025
X4.2758Y-3.04
X4.2758Y-3.79
X4.2758Y-4.54
X4.2758Y-5.29
X4.2758Y-6.04
X4.5258Y-2.2025
X4.5258Y-3.14
X4.5258Y-3.89
X4.5258Y-4.64
X4.5258Y-5.39
X4.5258Y-6.14
X4.6508Y-2.1025
X4.9008Y-2.2025
X5.0258Y-2.1025
X5.0258Y-3.04
X5.0258Y-3.79
X5.0258Y-4.54
X5.0258Y-5.29
X5.0258Y-6.04
X5.2758Y-2.2025
X5.2758Y-3.14
X5.2758Y-3.89
X5.2758Y-4.64
X5.2758Y-5.39
X5.2758Y-6.14
X5.4008Y-2.1025
X5.4008Y-6.04
X5.6508Y-2.2025
X5.6508Y-6.14
X5.7758Y-2.1025
X5.7758Y-3.04
X5.7758Y-3.79
X5.7758Y-4.54
X5.7758Y-5.29
X5.7758Y-6.04
X6.0258Y-2.2025
X6.0258Y-3.14
X6.0258Y-3.89
X6.0258Y-4.64
X6.0258Y-5.39
X6.0258Y-6.14
T5
X1.8322Y-1.6596
X1.8322Y-6.2846
X6.2697Y-1.6596
X6.2697Y-5.9408
T0
M30
