%TF.GenerationSoftware,KiCad,Pcbnew,(6.0.9)*%
%TF.CreationDate,2022-12-06T20:11:38+01:00*%
%TF.ProjectId,tekskey-rounded-half,74656b73-6b65-4792-9d72-6f756e646564,rev?*%
%TF.SameCoordinates,Original*%
%TF.FileFunction,Profile,NP*%
%FSLAX46Y46*%
G04 Gerber Fmt 4.6, Leading zero omitted, Abs format (unit mm)*
G04 Created by KiCad (PCBNEW (6.0.9)) date 2022-12-06 20:11:38*
%MOMM*%
%LPD*%
G01*
G04 APERTURE LIST*
%TA.AperFunction,Profile*%
%ADD10C,0.100000*%
%TD*%
G04 APERTURE END LIST*
D10*
X43363202Y-38978060D02*
X162425702Y-38978060D01*
X162425702Y-38978060D02*
X162425702Y-162803060D01*
X162425702Y-162803060D02*
X43363202Y-162803060D01*
X43363202Y-162803060D02*
X43363202Y-38978060D01*
%TO.C,LED136*%
X130670248Y-147295899D02*
X132259152Y-147295899D01*
X133164699Y-146498741D02*
X133164699Y-145093057D01*
X132259152Y-144295900D02*
X130670247Y-144295900D01*
X129764701Y-145093057D02*
X129764701Y-146498741D01*
X132259153Y-144295899D02*
G75*
G03*
X132511411Y-144227600I-3J500009D01*
G01*
X129764702Y-145093056D02*
G75*
G03*
X129715216Y-144876179I-499302J156D01*
G01*
X133214184Y-144876179D02*
G75*
G03*
X132511411Y-144227600I-450515J216878D01*
G01*
X130670248Y-147295899D02*
G75*
G03*
X130417989Y-147364198I2J-500011D01*
G01*
X132511410Y-147364198D02*
G75*
G03*
X132259152Y-147295899I-252261J-431710D01*
G01*
X130417989Y-144227601D02*
G75*
G03*
X130670247Y-144295900I252261J431711D01*
G01*
X133214184Y-144876179D02*
G75*
G03*
X133164699Y-145093057I450505J-216876D01*
G01*
X132511411Y-147364196D02*
G75*
G03*
X133214184Y-146715619I252258J431700D01*
G01*
X133164699Y-146498742D02*
G75*
G03*
X133214184Y-146715619I499990J-1D01*
G01*
X130417989Y-144227602D02*
G75*
G03*
X129715216Y-144876179I-252258J-431700D01*
G01*
X129715218Y-146715619D02*
G75*
G03*
X130417989Y-147364198I450512J-216881D01*
G01*
X129715218Y-146715620D02*
G75*
G03*
X129764701Y-146498741I-450718J216920D01*
G01*
%TO.C,LED121*%
X92570248Y-109195899D02*
X94159152Y-109195899D01*
X95064699Y-108398741D02*
X95064699Y-106993057D01*
X91664701Y-106993057D02*
X91664701Y-108398741D01*
X94159152Y-106195900D02*
X92570247Y-106195900D01*
X91664702Y-106993056D02*
G75*
G03*
X91615216Y-106776179I-499302J156D01*
G01*
X95114184Y-106776179D02*
G75*
G03*
X94411411Y-106127600I-450515J216878D01*
G01*
X91615218Y-108615619D02*
G75*
G03*
X92317989Y-109264198I450512J-216881D01*
G01*
X92317989Y-106127601D02*
G75*
G03*
X92570247Y-106195900I252261J431711D01*
G01*
X95114184Y-106776179D02*
G75*
G03*
X95064699Y-106993057I450505J-216876D01*
G01*
X94411411Y-109264196D02*
G75*
G03*
X95114184Y-108615619I252258J431700D01*
G01*
X94411410Y-109264198D02*
G75*
G03*
X94159152Y-109195899I-252261J-431710D01*
G01*
X92317989Y-106127602D02*
G75*
G03*
X91615216Y-106776179I-252258J-431700D01*
G01*
X91615218Y-108615620D02*
G75*
G03*
X91664701Y-108398741I-450718J216920D01*
G01*
X95064699Y-108398742D02*
G75*
G03*
X95114184Y-108615619I499990J-1D01*
G01*
X92570248Y-109195899D02*
G75*
G03*
X92317989Y-109264198I2J-500011D01*
G01*
X94159153Y-106195899D02*
G75*
G03*
X94411411Y-106127600I-3J500009D01*
G01*
%TO.C,LED1B101*%
X83045248Y-47283400D02*
X84634153Y-47283400D01*
X84634152Y-44283401D02*
X83045248Y-44283401D01*
X85539699Y-46486243D02*
X85539699Y-45080559D01*
X82139701Y-45080559D02*
X82139701Y-46486243D01*
X82792990Y-44215103D02*
G75*
G03*
X83045248Y-44283401I252260J431713D01*
G01*
X85589184Y-44863681D02*
G75*
G03*
X85539699Y-45080559I450505J-216876D01*
G01*
X84886411Y-47351699D02*
G75*
G03*
X84634153Y-47283400I-252261J-431710D01*
G01*
X82090214Y-46703120D02*
G75*
G03*
X82139701Y-46486243I-450504J216880D01*
G01*
X82090216Y-46703121D02*
G75*
G03*
X82792989Y-47351700I450514J-216879D01*
G01*
X85589183Y-44863682D02*
G75*
G03*
X84886411Y-44215102I-450513J216880D01*
G01*
X83045247Y-47283401D02*
G75*
G03*
X82792989Y-47351700I3J-500009D01*
G01*
X82139715Y-45080558D02*
G75*
G03*
X82090216Y-44863681I-499615J58D01*
G01*
X84634152Y-44283401D02*
G75*
G03*
X84886411Y-44215102I-2J500009D01*
G01*
X85539699Y-46486244D02*
G75*
G03*
X85589184Y-46703121I499990J-1D01*
G01*
X82792989Y-44215104D02*
G75*
G03*
X82090216Y-44863681I-252258J-431700D01*
G01*
X84886410Y-47351700D02*
G75*
G03*
X85589184Y-46703121I252259J431701D01*
G01*
%TO.C,LED123*%
X129764701Y-106993057D02*
X129764701Y-108398741D01*
X133164699Y-108398741D02*
X133164699Y-106993057D01*
X130670248Y-109195899D02*
X132259152Y-109195899D01*
X132259152Y-106195900D02*
X130670247Y-106195900D01*
X129715218Y-108615619D02*
G75*
G03*
X130417989Y-109264198I450512J-216881D01*
G01*
X130417989Y-106127602D02*
G75*
G03*
X129715216Y-106776179I-252258J-431700D01*
G01*
X133164699Y-108398742D02*
G75*
G03*
X133214184Y-108615619I499990J-1D01*
G01*
X133214184Y-106776179D02*
G75*
G03*
X132511411Y-106127600I-450515J216878D01*
G01*
X130670248Y-109195899D02*
G75*
G03*
X130417989Y-109264198I2J-500011D01*
G01*
X129764702Y-106993056D02*
G75*
G03*
X129715216Y-106776179I-499302J156D01*
G01*
X132511410Y-109264198D02*
G75*
G03*
X132259152Y-109195899I-252261J-431710D01*
G01*
X132511411Y-109264196D02*
G75*
G03*
X133214184Y-108615619I252258J431700D01*
G01*
X130417989Y-106127601D02*
G75*
G03*
X130670247Y-106195900I252261J431711D01*
G01*
X129715218Y-108615620D02*
G75*
G03*
X129764701Y-108398741I-450718J216920D01*
G01*
X133214184Y-106776179D02*
G75*
G03*
X133164699Y-106993057I450505J-216876D01*
G01*
X132259153Y-106195899D02*
G75*
G03*
X132511411Y-106127600I-3J500009D01*
G01*
%TO.C,LED110*%
X110714701Y-68893057D02*
X110714701Y-70298741D01*
X111620248Y-71095899D02*
X113209152Y-71095899D01*
X113209152Y-68095900D02*
X111620247Y-68095900D01*
X114114699Y-70298741D02*
X114114699Y-68893057D01*
X114164184Y-68676179D02*
G75*
G03*
X114114699Y-68893057I450505J-216876D01*
G01*
X114164184Y-68676179D02*
G75*
G03*
X113461411Y-68027600I-450515J216878D01*
G01*
X111620248Y-71095899D02*
G75*
G03*
X111367989Y-71164198I2J-500011D01*
G01*
X113461411Y-71164196D02*
G75*
G03*
X114164184Y-70515619I252258J431700D01*
G01*
X114114699Y-70298742D02*
G75*
G03*
X114164184Y-70515619I499990J-1D01*
G01*
X110665218Y-70515619D02*
G75*
G03*
X111367989Y-71164198I450512J-216881D01*
G01*
X111367989Y-68027602D02*
G75*
G03*
X110665216Y-68676179I-252258J-431700D01*
G01*
X110665218Y-70515620D02*
G75*
G03*
X110714701Y-70298741I-450718J216920D01*
G01*
X113461410Y-71164198D02*
G75*
G03*
X113209152Y-71095899I-252261J-431710D01*
G01*
X113209153Y-68095899D02*
G75*
G03*
X113461411Y-68027600I-3J500009D01*
G01*
X110714702Y-68893056D02*
G75*
G03*
X110665216Y-68676179I-499302J156D01*
G01*
X111367989Y-68027601D02*
G75*
G03*
X111620247Y-68095900I252261J431711D01*
G01*
%TO.C,LED138*%
X152214699Y-146498741D02*
X152214699Y-145093057D01*
X151309152Y-144295900D02*
X149720247Y-144295900D01*
X148814701Y-145093057D02*
X148814701Y-146498741D01*
X149720248Y-147295899D02*
X151309152Y-147295899D01*
X148765218Y-146715620D02*
G75*
G03*
X148814701Y-146498741I-450718J216920D01*
G01*
X152264184Y-144876179D02*
G75*
G03*
X151561411Y-144227600I-450515J216878D01*
G01*
X151561411Y-147364196D02*
G75*
G03*
X152264184Y-146715619I252258J431700D01*
G01*
X151309153Y-144295899D02*
G75*
G03*
X151561411Y-144227600I-3J500009D01*
G01*
X149467989Y-144227602D02*
G75*
G03*
X148765216Y-144876179I-252258J-431700D01*
G01*
X152264184Y-144876179D02*
G75*
G03*
X152214699Y-145093057I450505J-216876D01*
G01*
X151561410Y-147364198D02*
G75*
G03*
X151309152Y-147295899I-252261J-431710D01*
G01*
X149467989Y-144227601D02*
G75*
G03*
X149720247Y-144295900I252261J431711D01*
G01*
X148765218Y-146715619D02*
G75*
G03*
X149467989Y-147364198I450512J-216881D01*
G01*
X148814702Y-145093056D02*
G75*
G03*
X148765216Y-144876179I-499302J156D01*
G01*
X149720248Y-147295899D02*
G75*
G03*
X149467989Y-147364198I2J-500011D01*
G01*
X152214699Y-146498742D02*
G75*
G03*
X152264184Y-146715619I499990J-1D01*
G01*
%TO.C,LED135*%
X114114699Y-146498741D02*
X114114699Y-145093057D01*
X113209152Y-144295900D02*
X111620247Y-144295900D01*
X111620248Y-147295899D02*
X113209152Y-147295899D01*
X110714701Y-145093057D02*
X110714701Y-146498741D01*
X110714702Y-145093056D02*
G75*
G03*
X110665216Y-144876179I-499302J156D01*
G01*
X111367989Y-144227601D02*
G75*
G03*
X111620247Y-144295900I252261J431711D01*
G01*
X114114699Y-146498742D02*
G75*
G03*
X114164184Y-146715619I499990J-1D01*
G01*
X114164184Y-144876179D02*
G75*
G03*
X114114699Y-145093057I450505J-216876D01*
G01*
X111620248Y-147295899D02*
G75*
G03*
X111367989Y-147364198I2J-500011D01*
G01*
X114164184Y-144876179D02*
G75*
G03*
X113461411Y-144227600I-450515J216878D01*
G01*
X113209153Y-144295899D02*
G75*
G03*
X113461411Y-144227600I-3J500009D01*
G01*
X110665218Y-146715620D02*
G75*
G03*
X110714701Y-146498741I-450718J216920D01*
G01*
X113461411Y-147364196D02*
G75*
G03*
X114164184Y-146715619I252258J431700D01*
G01*
X113461410Y-147364198D02*
G75*
G03*
X113209152Y-147295899I-252261J-431710D01*
G01*
X110665218Y-146715619D02*
G75*
G03*
X111367989Y-147364198I450512J-216881D01*
G01*
X111367989Y-144227602D02*
G75*
G03*
X110665216Y-144876179I-252258J-431700D01*
G01*
%TO.C,LED105*%
X133164699Y-46486243D02*
X133164699Y-45080559D01*
X132259152Y-44283401D02*
X130670248Y-44283401D01*
X130670248Y-47283400D02*
X132259153Y-47283400D01*
X129764701Y-45080559D02*
X129764701Y-46486243D01*
X132511411Y-47351699D02*
G75*
G03*
X132259153Y-47283400I-252261J-431710D01*
G01*
X133164699Y-46486244D02*
G75*
G03*
X133214184Y-46703121I499990J-1D01*
G01*
X130417990Y-44215103D02*
G75*
G03*
X130670248Y-44283401I252260J431713D01*
G01*
X129764715Y-45080558D02*
G75*
G03*
X129715216Y-44863681I-499615J58D01*
G01*
X133214183Y-44863682D02*
G75*
G03*
X132511411Y-44215102I-450513J216880D01*
G01*
X129715216Y-46703121D02*
G75*
G03*
X130417989Y-47351700I450514J-216879D01*
G01*
X132511410Y-47351700D02*
G75*
G03*
X133214184Y-46703121I252259J431701D01*
G01*
X130417989Y-44215104D02*
G75*
G03*
X129715216Y-44863681I-252258J-431700D01*
G01*
X132259152Y-44283401D02*
G75*
G03*
X132511411Y-44215102I-2J500009D01*
G01*
X133214184Y-44863681D02*
G75*
G03*
X133164699Y-45080559I450505J-216876D01*
G01*
X130670247Y-47283401D02*
G75*
G03*
X130417989Y-47351700I3J-500009D01*
G01*
X129715214Y-46703120D02*
G75*
G03*
X129764701Y-46486243I-450504J216880D01*
G01*
%TO.C,LED103*%
X95064699Y-46486243D02*
X95064699Y-45080559D01*
X94159152Y-44283401D02*
X92570248Y-44283401D01*
X91664701Y-45080559D02*
X91664701Y-46486243D01*
X92570248Y-47283400D02*
X94159153Y-47283400D01*
X95114184Y-44863681D02*
G75*
G03*
X95064699Y-45080559I450505J-216876D01*
G01*
X95064699Y-46486244D02*
G75*
G03*
X95114184Y-46703121I499990J-1D01*
G01*
X92317990Y-44215103D02*
G75*
G03*
X92570248Y-44283401I252260J431713D01*
G01*
X92317989Y-44215104D02*
G75*
G03*
X91615216Y-44863681I-252258J-431700D01*
G01*
X95114183Y-44863682D02*
G75*
G03*
X94411411Y-44215102I-450513J216880D01*
G01*
X91615216Y-46703121D02*
G75*
G03*
X92317989Y-47351700I450514J-216879D01*
G01*
X94411410Y-47351700D02*
G75*
G03*
X95114184Y-46703121I252259J431701D01*
G01*
X94411411Y-47351699D02*
G75*
G03*
X94159153Y-47283400I-252261J-431710D01*
G01*
X94159152Y-44283401D02*
G75*
G03*
X94411411Y-44215102I-2J500009D01*
G01*
X91615214Y-46703120D02*
G75*
G03*
X91664701Y-46486243I-450504J216880D01*
G01*
X92570247Y-47283401D02*
G75*
G03*
X92317989Y-47351700I3J-500009D01*
G01*
X91664715Y-45080558D02*
G75*
G03*
X91615216Y-44863681I-499615J58D01*
G01*
%TO.C,LED109*%
X91664701Y-68893057D02*
X91664701Y-70298741D01*
X92570248Y-71095899D02*
X94159152Y-71095899D01*
X94159152Y-68095900D02*
X92570247Y-68095900D01*
X95064699Y-70298741D02*
X95064699Y-68893057D01*
X91615218Y-70515619D02*
G75*
G03*
X92317989Y-71164198I450512J-216881D01*
G01*
X94411411Y-71164196D02*
G75*
G03*
X95114184Y-70515619I252258J431700D01*
G01*
X92317989Y-68027602D02*
G75*
G03*
X91615216Y-68676179I-252258J-431700D01*
G01*
X92317989Y-68027601D02*
G75*
G03*
X92570247Y-68095900I252261J431711D01*
G01*
X95114184Y-68676179D02*
G75*
G03*
X95064699Y-68893057I450505J-216876D01*
G01*
X94159153Y-68095899D02*
G75*
G03*
X94411411Y-68027600I-3J500009D01*
G01*
X92570248Y-71095899D02*
G75*
G03*
X92317989Y-71164198I2J-500011D01*
G01*
X95064699Y-70298742D02*
G75*
G03*
X95114184Y-70515619I499990J-1D01*
G01*
X91664702Y-68893056D02*
G75*
G03*
X91615216Y-68676179I-499302J156D01*
G01*
X95114184Y-68676179D02*
G75*
G03*
X94411411Y-68027600I-450515J216878D01*
G01*
X91615218Y-70515620D02*
G75*
G03*
X91664701Y-70298741I-450718J216920D01*
G01*
X94411410Y-71164198D02*
G75*
G03*
X94159152Y-71095899I-252261J-431710D01*
G01*
%TO.C,LED108*%
X73520248Y-71095899D02*
X75109152Y-71095899D01*
X72614701Y-68893057D02*
X72614701Y-70298741D01*
X75109152Y-68095900D02*
X73520247Y-68095900D01*
X76014699Y-70298741D02*
X76014699Y-68893057D01*
X72565218Y-70515620D02*
G75*
G03*
X72614701Y-70298741I-450718J216920D01*
G01*
X73520248Y-71095899D02*
G75*
G03*
X73267989Y-71164198I2J-500011D01*
G01*
X76064184Y-68676179D02*
G75*
G03*
X75361411Y-68027600I-450515J216878D01*
G01*
X75361410Y-71164198D02*
G75*
G03*
X75109152Y-71095899I-252261J-431710D01*
G01*
X76064184Y-68676179D02*
G75*
G03*
X76014699Y-68893057I450505J-216876D01*
G01*
X75361411Y-71164196D02*
G75*
G03*
X76064184Y-70515619I252258J431700D01*
G01*
X72565218Y-70515619D02*
G75*
G03*
X73267989Y-71164198I450512J-216881D01*
G01*
X72614702Y-68893056D02*
G75*
G03*
X72565216Y-68676179I-499302J156D01*
G01*
X76014699Y-70298742D02*
G75*
G03*
X76064184Y-70515619I499990J-1D01*
G01*
X73267989Y-68027601D02*
G75*
G03*
X73520247Y-68095900I252261J431711D01*
G01*
X73267989Y-68027602D02*
G75*
G03*
X72565216Y-68676179I-252258J-431700D01*
G01*
X75109153Y-68095899D02*
G75*
G03*
X75361411Y-68027600I-3J500009D01*
G01*
%TO.C,LED132*%
X66489699Y-146498741D02*
X66489699Y-145093057D01*
X65584152Y-144295900D02*
X63995247Y-144295900D01*
X63995248Y-147295899D02*
X65584152Y-147295899D01*
X63089701Y-145093057D02*
X63089701Y-146498741D01*
X63995248Y-147295899D02*
G75*
G03*
X63742989Y-147364198I2J-500011D01*
G01*
X66489699Y-146498742D02*
G75*
G03*
X66539184Y-146715619I499990J-1D01*
G01*
X65836411Y-147364196D02*
G75*
G03*
X66539184Y-146715619I252258J431700D01*
G01*
X63040218Y-146715620D02*
G75*
G03*
X63089701Y-146498741I-450718J216920D01*
G01*
X65836410Y-147364198D02*
G75*
G03*
X65584152Y-147295899I-252261J-431710D01*
G01*
X63089702Y-145093056D02*
G75*
G03*
X63040216Y-144876179I-499302J156D01*
G01*
X63742989Y-144227602D02*
G75*
G03*
X63040216Y-144876179I-252258J-431700D01*
G01*
X63742989Y-144227601D02*
G75*
G03*
X63995247Y-144295900I252261J431711D01*
G01*
X66539184Y-144876179D02*
G75*
G03*
X66489699Y-145093057I450505J-216876D01*
G01*
X66539184Y-144876179D02*
G75*
G03*
X65836411Y-144227600I-450515J216878D01*
G01*
X63040218Y-146715619D02*
G75*
G03*
X63742989Y-147364198I450512J-216881D01*
G01*
X65584153Y-144295899D02*
G75*
G03*
X65836411Y-144227600I-3J500009D01*
G01*
%TO.C,LED101*%
X56059152Y-44283401D02*
X54470248Y-44283401D01*
X56964699Y-46486243D02*
X56964699Y-45080559D01*
X53564701Y-45080559D02*
X53564701Y-46486243D01*
X54470248Y-47283400D02*
X56059153Y-47283400D01*
X53515216Y-46703121D02*
G75*
G03*
X54217989Y-47351700I450514J-216879D01*
G01*
X56311411Y-47351699D02*
G75*
G03*
X56059153Y-47283400I-252261J-431710D01*
G01*
X57014184Y-44863681D02*
G75*
G03*
X56964699Y-45080559I450505J-216876D01*
G01*
X57014183Y-44863682D02*
G75*
G03*
X56311411Y-44215102I-450513J216880D01*
G01*
X56311410Y-47351700D02*
G75*
G03*
X57014184Y-46703121I252259J431701D01*
G01*
X54217989Y-44215104D02*
G75*
G03*
X53515216Y-44863681I-252258J-431700D01*
G01*
X56964699Y-46486244D02*
G75*
G03*
X57014184Y-46703121I499990J-1D01*
G01*
X53515214Y-46703120D02*
G75*
G03*
X53564701Y-46486243I-450504J216880D01*
G01*
X54217990Y-44215103D02*
G75*
G03*
X54470248Y-44283401I252260J431713D01*
G01*
X54470247Y-47283401D02*
G75*
G03*
X54217989Y-47351700I3J-500009D01*
G01*
X53564715Y-45080558D02*
G75*
G03*
X53515216Y-44863681I-499615J58D01*
G01*
X56059152Y-44283401D02*
G75*
G03*
X56311411Y-44215102I-2J500009D01*
G01*
%TO.C,LED126*%
X76014699Y-127448743D02*
X76014699Y-126043059D01*
X73520248Y-128245900D02*
X75109153Y-128245900D01*
X72614701Y-126043059D02*
X72614701Y-127448743D01*
X75109152Y-125245901D02*
X73520248Y-125245901D01*
X72614715Y-126043058D02*
G75*
G03*
X72565216Y-125826181I-499615J58D01*
G01*
X75361410Y-128314200D02*
G75*
G03*
X76064184Y-127665621I252259J431701D01*
G01*
X75109152Y-125245901D02*
G75*
G03*
X75361411Y-125177602I-2J500009D01*
G01*
X73267989Y-125177604D02*
G75*
G03*
X72565216Y-125826181I-252258J-431700D01*
G01*
X72565216Y-127665621D02*
G75*
G03*
X73267989Y-128314200I450514J-216879D01*
G01*
X76064184Y-125826181D02*
G75*
G03*
X76014699Y-126043059I450505J-216876D01*
G01*
X72565214Y-127665620D02*
G75*
G03*
X72614701Y-127448743I-450504J216880D01*
G01*
X76014699Y-127448744D02*
G75*
G03*
X76064184Y-127665621I499990J-1D01*
G01*
X75361411Y-128314199D02*
G75*
G03*
X75109153Y-128245900I-252261J-431710D01*
G01*
X76064183Y-125826182D02*
G75*
G03*
X75361411Y-125177602I-450513J216880D01*
G01*
X73267990Y-125177603D02*
G75*
G03*
X73520248Y-125245901I252260J431713D01*
G01*
X73520247Y-128245901D02*
G75*
G03*
X73267989Y-128314200I3J-500009D01*
G01*
%TO.C,LED117*%
X129764701Y-87943059D02*
X129764701Y-89348743D01*
X133164699Y-89348743D02*
X133164699Y-87943059D01*
X130670248Y-90145900D02*
X132259153Y-90145900D01*
X132259152Y-87145901D02*
X130670248Y-87145901D01*
X130670247Y-90145901D02*
G75*
G03*
X130417989Y-90214200I3J-500009D01*
G01*
X130417990Y-87077603D02*
G75*
G03*
X130670248Y-87145901I252260J431713D01*
G01*
X132259152Y-87145901D02*
G75*
G03*
X132511411Y-87077602I-2J500009D01*
G01*
X133214184Y-87726181D02*
G75*
G03*
X133164699Y-87943059I450505J-216876D01*
G01*
X129764715Y-87943058D02*
G75*
G03*
X129715216Y-87726181I-499615J58D01*
G01*
X132511410Y-90214200D02*
G75*
G03*
X133214184Y-89565621I252259J431701D01*
G01*
X133214183Y-87726182D02*
G75*
G03*
X132511411Y-87077602I-450513J216880D01*
G01*
X130417989Y-87077604D02*
G75*
G03*
X129715216Y-87726181I-252258J-431700D01*
G01*
X132511411Y-90214199D02*
G75*
G03*
X132259153Y-90145900I-252261J-431710D01*
G01*
X133164699Y-89348744D02*
G75*
G03*
X133214184Y-89565621I499990J-1D01*
G01*
X129715214Y-89565620D02*
G75*
G03*
X129764701Y-89348743I-450504J216880D01*
G01*
X129715216Y-89565621D02*
G75*
G03*
X130417989Y-90214200I450514J-216879D01*
G01*
%TO.C,LED120*%
X72614701Y-106993057D02*
X72614701Y-108398741D01*
X73520248Y-109195899D02*
X75109152Y-109195899D01*
X76014699Y-108398741D02*
X76014699Y-106993057D01*
X75109152Y-106195900D02*
X73520247Y-106195900D01*
X73267989Y-106127601D02*
G75*
G03*
X73520247Y-106195900I252261J431711D01*
G01*
X73520248Y-109195899D02*
G75*
G03*
X73267989Y-109264198I2J-500011D01*
G01*
X73267989Y-106127602D02*
G75*
G03*
X72565216Y-106776179I-252258J-431700D01*
G01*
X72565218Y-108615619D02*
G75*
G03*
X73267989Y-109264198I450512J-216881D01*
G01*
X75361410Y-109264198D02*
G75*
G03*
X75109152Y-109195899I-252261J-431710D01*
G01*
X76064184Y-106776179D02*
G75*
G03*
X75361411Y-106127600I-450515J216878D01*
G01*
X72565218Y-108615620D02*
G75*
G03*
X72614701Y-108398741I-450718J216920D01*
G01*
X75361411Y-109264196D02*
G75*
G03*
X76064184Y-108615619I252258J431700D01*
G01*
X72614702Y-106993056D02*
G75*
G03*
X72565216Y-106776179I-499302J156D01*
G01*
X76064184Y-106776179D02*
G75*
G03*
X76014699Y-106993057I450505J-216876D01*
G01*
X76014699Y-108398742D02*
G75*
G03*
X76064184Y-108615619I499990J-1D01*
G01*
X75109153Y-106195899D02*
G75*
G03*
X75361411Y-106127600I-3J500009D01*
G01*
%TO.C,LED102*%
X76014699Y-46486243D02*
X76014699Y-45080559D01*
X72614701Y-45080559D02*
X72614701Y-46486243D01*
X73520248Y-47283400D02*
X75109153Y-47283400D01*
X75109152Y-44283401D02*
X73520248Y-44283401D01*
X75361411Y-47351699D02*
G75*
G03*
X75109153Y-47283400I-252261J-431710D01*
G01*
X76064184Y-44863681D02*
G75*
G03*
X76014699Y-45080559I450505J-216876D01*
G01*
X75361410Y-47351700D02*
G75*
G03*
X76064184Y-46703121I252259J431701D01*
G01*
X73267989Y-44215104D02*
G75*
G03*
X72565216Y-44863681I-252258J-431700D01*
G01*
X76064183Y-44863682D02*
G75*
G03*
X75361411Y-44215102I-450513J216880D01*
G01*
X72565216Y-46703121D02*
G75*
G03*
X73267989Y-47351700I450514J-216879D01*
G01*
X76014699Y-46486244D02*
G75*
G03*
X76064184Y-46703121I499990J-1D01*
G01*
X72614715Y-45080558D02*
G75*
G03*
X72565216Y-44863681I-499615J58D01*
G01*
X72565214Y-46703120D02*
G75*
G03*
X72614701Y-46486243I-450504J216880D01*
G01*
X73520247Y-47283401D02*
G75*
G03*
X73267989Y-47351700I3J-500009D01*
G01*
X75109152Y-44283401D02*
G75*
G03*
X75361411Y-44215102I-2J500009D01*
G01*
X73267990Y-44215103D02*
G75*
G03*
X73520248Y-44283401I252260J431713D01*
G01*
%TO.C,LED114*%
X73520248Y-90145900D02*
X75109153Y-90145900D01*
X75109152Y-87145901D02*
X73520248Y-87145901D01*
X76014699Y-89348743D02*
X76014699Y-87943059D01*
X72614701Y-87943059D02*
X72614701Y-89348743D01*
X72565214Y-89565620D02*
G75*
G03*
X72614701Y-89348743I-450504J216880D01*
G01*
X76014699Y-89348744D02*
G75*
G03*
X76064184Y-89565621I499990J-1D01*
G01*
X76064183Y-87726182D02*
G75*
G03*
X75361411Y-87077602I-450513J216880D01*
G01*
X72614715Y-87943058D02*
G75*
G03*
X72565216Y-87726181I-499615J58D01*
G01*
X72565216Y-89565621D02*
G75*
G03*
X73267989Y-90214200I450514J-216879D01*
G01*
X76064184Y-87726181D02*
G75*
G03*
X76014699Y-87943059I450505J-216876D01*
G01*
X73520247Y-90145901D02*
G75*
G03*
X73267989Y-90214200I3J-500009D01*
G01*
X75361410Y-90214200D02*
G75*
G03*
X76064184Y-89565621I252259J431701D01*
G01*
X73267989Y-87077604D02*
G75*
G03*
X72565216Y-87726181I-252258J-431700D01*
G01*
X75361411Y-90214199D02*
G75*
G03*
X75109153Y-90145900I-252261J-431710D01*
G01*
X75109152Y-87145901D02*
G75*
G03*
X75361411Y-87077602I-2J500009D01*
G01*
X73267990Y-87077603D02*
G75*
G03*
X73520248Y-87145901I252260J431713D01*
G01*
%TO.C,LED133*%
X76014699Y-146498741D02*
X76014699Y-145093057D01*
X75109152Y-144295900D02*
X73520247Y-144295900D01*
X73520248Y-147295899D02*
X75109152Y-147295899D01*
X72614701Y-145093057D02*
X72614701Y-146498741D01*
X75361410Y-147364198D02*
G75*
G03*
X75109152Y-147295899I-252261J-431710D01*
G01*
X72565218Y-146715619D02*
G75*
G03*
X73267989Y-147364198I450512J-216881D01*
G01*
X75109153Y-144295899D02*
G75*
G03*
X75361411Y-144227600I-3J500009D01*
G01*
X72565218Y-146715620D02*
G75*
G03*
X72614701Y-146498741I-450718J216920D01*
G01*
X73267989Y-144227601D02*
G75*
G03*
X73520247Y-144295900I252261J431711D01*
G01*
X75361411Y-147364196D02*
G75*
G03*
X76064184Y-146715619I252258J431700D01*
G01*
X76014699Y-146498742D02*
G75*
G03*
X76064184Y-146715619I499990J-1D01*
G01*
X76064184Y-144876179D02*
G75*
G03*
X75361411Y-144227600I-450515J216878D01*
G01*
X73267989Y-144227602D02*
G75*
G03*
X72565216Y-144876179I-252258J-431700D01*
G01*
X76064184Y-144876179D02*
G75*
G03*
X76014699Y-145093057I450505J-216876D01*
G01*
X73520248Y-147295899D02*
G75*
G03*
X73267989Y-147364198I2J-500011D01*
G01*
X72614702Y-145093056D02*
G75*
G03*
X72565216Y-144876179I-499302J156D01*
G01*
%TO.C,LED118*%
X151309152Y-87145901D02*
X149720248Y-87145901D01*
X148814701Y-87943059D02*
X148814701Y-89348743D01*
X149720248Y-90145900D02*
X151309153Y-90145900D01*
X152214699Y-89348743D02*
X152214699Y-87943059D01*
X149467989Y-87077604D02*
G75*
G03*
X148765216Y-87726181I-252258J-431700D01*
G01*
X151561411Y-90214199D02*
G75*
G03*
X151309153Y-90145900I-252261J-431710D01*
G01*
X149720247Y-90145901D02*
G75*
G03*
X149467989Y-90214200I3J-500009D01*
G01*
X152264183Y-87726182D02*
G75*
G03*
X151561411Y-87077602I-450513J216880D01*
G01*
X152214699Y-89348744D02*
G75*
G03*
X152264184Y-89565621I499990J-1D01*
G01*
X149467990Y-87077603D02*
G75*
G03*
X149720248Y-87145901I252260J431713D01*
G01*
X151309152Y-87145901D02*
G75*
G03*
X151561411Y-87077602I-2J500009D01*
G01*
X148814715Y-87943058D02*
G75*
G03*
X148765216Y-87726181I-499615J58D01*
G01*
X148765214Y-89565620D02*
G75*
G03*
X148814701Y-89348743I-450504J216880D01*
G01*
X151561410Y-90214200D02*
G75*
G03*
X152264184Y-89565621I252259J431701D01*
G01*
X152264184Y-87726181D02*
G75*
G03*
X152214699Y-87943059I450505J-216876D01*
G01*
X148765216Y-89565621D02*
G75*
G03*
X149467989Y-90214200I450514J-216879D01*
G01*
%TO.C,LED116*%
X110714701Y-87943059D02*
X110714701Y-89348743D01*
X114114699Y-89348743D02*
X114114699Y-87943059D01*
X111620248Y-90145900D02*
X113209153Y-90145900D01*
X113209152Y-87145901D02*
X111620248Y-87145901D01*
X111367989Y-87077604D02*
G75*
G03*
X110665216Y-87726181I-252258J-431700D01*
G01*
X114114699Y-89348744D02*
G75*
G03*
X114164184Y-89565621I499990J-1D01*
G01*
X111620247Y-90145901D02*
G75*
G03*
X111367989Y-90214200I3J-500009D01*
G01*
X114164184Y-87726181D02*
G75*
G03*
X114114699Y-87943059I450505J-216876D01*
G01*
X110665216Y-89565621D02*
G75*
G03*
X111367989Y-90214200I450514J-216879D01*
G01*
X113461410Y-90214200D02*
G75*
G03*
X114164184Y-89565621I252259J431701D01*
G01*
X110665214Y-89565620D02*
G75*
G03*
X110714701Y-89348743I-450504J216880D01*
G01*
X114164183Y-87726182D02*
G75*
G03*
X113461411Y-87077602I-450513J216880D01*
G01*
X113209152Y-87145901D02*
G75*
G03*
X113461411Y-87077602I-2J500009D01*
G01*
X113461411Y-90214199D02*
G75*
G03*
X113209153Y-90145900I-252261J-431710D01*
G01*
X110714715Y-87943058D02*
G75*
G03*
X110665216Y-87726181I-499615J58D01*
G01*
X111367990Y-87077603D02*
G75*
G03*
X111620248Y-87145901I252260J431713D01*
G01*
%TO.C,LED125*%
X53564701Y-126043059D02*
X53564701Y-127448743D01*
X54470248Y-128245900D02*
X56059153Y-128245900D01*
X56964699Y-127448743D02*
X56964699Y-126043059D01*
X56059152Y-125245901D02*
X54470248Y-125245901D01*
X57014184Y-125826181D02*
G75*
G03*
X56964699Y-126043059I450505J-216876D01*
G01*
X53564715Y-126043058D02*
G75*
G03*
X53515216Y-125826181I-499615J58D01*
G01*
X54217990Y-125177603D02*
G75*
G03*
X54470248Y-125245901I252260J431713D01*
G01*
X53515216Y-127665621D02*
G75*
G03*
X54217989Y-128314200I450514J-216879D01*
G01*
X53515214Y-127665620D02*
G75*
G03*
X53564701Y-127448743I-450504J216880D01*
G01*
X56311411Y-128314199D02*
G75*
G03*
X56059153Y-128245900I-252261J-431710D01*
G01*
X56964699Y-127448744D02*
G75*
G03*
X57014184Y-127665621I499990J-1D01*
G01*
X56059152Y-125245901D02*
G75*
G03*
X56311411Y-125177602I-2J500009D01*
G01*
X56311410Y-128314200D02*
G75*
G03*
X57014184Y-127665621I252259J431701D01*
G01*
X54470247Y-128245901D02*
G75*
G03*
X54217989Y-128314200I3J-500009D01*
G01*
X57014183Y-125826182D02*
G75*
G03*
X56311411Y-125177602I-450513J216880D01*
G01*
X54217989Y-125177604D02*
G75*
G03*
X53515216Y-125826181I-252258J-431700D01*
G01*
%TO.C,LED137*%
X141784152Y-144295900D02*
X140195247Y-144295900D01*
X140195248Y-147295899D02*
X141784152Y-147295899D01*
X142689699Y-146498741D02*
X142689699Y-145093057D01*
X139289701Y-145093057D02*
X139289701Y-146498741D01*
X139942989Y-144227602D02*
G75*
G03*
X139240216Y-144876179I-252258J-431700D01*
G01*
X142739184Y-144876179D02*
G75*
G03*
X142036411Y-144227600I-450515J216878D01*
G01*
X141784153Y-144295899D02*
G75*
G03*
X142036411Y-144227600I-3J500009D01*
G01*
X140195248Y-147295899D02*
G75*
G03*
X139942989Y-147364198I2J-500011D01*
G01*
X139240218Y-146715620D02*
G75*
G03*
X139289701Y-146498741I-450718J216920D01*
G01*
X142036410Y-147364198D02*
G75*
G03*
X141784152Y-147295899I-252261J-431710D01*
G01*
X139240218Y-146715619D02*
G75*
G03*
X139942989Y-147364198I450512J-216881D01*
G01*
X142036411Y-147364196D02*
G75*
G03*
X142739184Y-146715619I252258J431700D01*
G01*
X142739184Y-144876179D02*
G75*
G03*
X142689699Y-145093057I450505J-216876D01*
G01*
X142689699Y-146498742D02*
G75*
G03*
X142739184Y-146715619I499990J-1D01*
G01*
X139942989Y-144227601D02*
G75*
G03*
X140195247Y-144295900I252261J431711D01*
G01*
X139289702Y-145093056D02*
G75*
G03*
X139240216Y-144876179I-499302J156D01*
G01*
%TO.C,LED3B101*%
X120239701Y-45080559D02*
X120239701Y-46486243D01*
X123639699Y-46486243D02*
X123639699Y-45080559D01*
X122734152Y-44283401D02*
X121145248Y-44283401D01*
X121145248Y-47283400D02*
X122734153Y-47283400D01*
X120239715Y-45080558D02*
G75*
G03*
X120190216Y-44863681I-499615J58D01*
G01*
X123639699Y-46486244D02*
G75*
G03*
X123689184Y-46703121I499990J-1D01*
G01*
X123689184Y-44863681D02*
G75*
G03*
X123639699Y-45080559I450505J-216876D01*
G01*
X122734152Y-44283401D02*
G75*
G03*
X122986411Y-44215102I-2J500009D01*
G01*
X123689183Y-44863682D02*
G75*
G03*
X122986411Y-44215102I-450513J216880D01*
G01*
X120190214Y-46703120D02*
G75*
G03*
X120239701Y-46486243I-450504J216880D01*
G01*
X121145247Y-47283401D02*
G75*
G03*
X120892989Y-47351700I3J-500009D01*
G01*
X120892990Y-44215103D02*
G75*
G03*
X121145248Y-44283401I252260J431713D01*
G01*
X120190216Y-46703121D02*
G75*
G03*
X120892989Y-47351700I450514J-216879D01*
G01*
X122986411Y-47351699D02*
G75*
G03*
X122734153Y-47283400I-252261J-431710D01*
G01*
X120892989Y-44215104D02*
G75*
G03*
X120190216Y-44863681I-252258J-431700D01*
G01*
X122986410Y-47351700D02*
G75*
G03*
X123689184Y-46703121I252259J431701D01*
G01*
%TO.C,LED106*%
X149720248Y-47283400D02*
X151309153Y-47283400D01*
X151309152Y-44283401D02*
X149720248Y-44283401D01*
X152214699Y-46486243D02*
X152214699Y-45080559D01*
X148814701Y-45080559D02*
X148814701Y-46486243D01*
X151561410Y-47351700D02*
G75*
G03*
X152264184Y-46703121I252259J431701D01*
G01*
X152214699Y-46486244D02*
G75*
G03*
X152264184Y-46703121I499990J-1D01*
G01*
X149467990Y-44215103D02*
G75*
G03*
X149720248Y-44283401I252260J431713D01*
G01*
X151309152Y-44283401D02*
G75*
G03*
X151561411Y-44215102I-2J500009D01*
G01*
X149720247Y-47283401D02*
G75*
G03*
X149467989Y-47351700I3J-500009D01*
G01*
X149467989Y-44215104D02*
G75*
G03*
X148765216Y-44863681I-252258J-431700D01*
G01*
X148765216Y-46703121D02*
G75*
G03*
X149467989Y-47351700I450514J-216879D01*
G01*
X152264184Y-44863681D02*
G75*
G03*
X152214699Y-45080559I450505J-216876D01*
G01*
X148814715Y-45080558D02*
G75*
G03*
X148765216Y-44863681I-499615J58D01*
G01*
X152264183Y-44863682D02*
G75*
G03*
X151561411Y-44215102I-450513J216880D01*
G01*
X151561411Y-47351699D02*
G75*
G03*
X151309153Y-47283400I-252261J-431710D01*
G01*
X148765214Y-46703120D02*
G75*
G03*
X148814701Y-46486243I-450504J216880D01*
G01*
%TO.C,LED0B101*%
X65584152Y-44283401D02*
X63995248Y-44283401D01*
X63995248Y-47283400D02*
X65584153Y-47283400D01*
X66489699Y-46486243D02*
X66489699Y-45080559D01*
X63089701Y-45080559D02*
X63089701Y-46486243D01*
X63995247Y-47283401D02*
G75*
G03*
X63742989Y-47351700I3J-500009D01*
G01*
X65836410Y-47351700D02*
G75*
G03*
X66539184Y-46703121I252259J431701D01*
G01*
X63742990Y-44215103D02*
G75*
G03*
X63995248Y-44283401I252260J431713D01*
G01*
X63089715Y-45080558D02*
G75*
G03*
X63040216Y-44863681I-499615J58D01*
G01*
X66539184Y-44863681D02*
G75*
G03*
X66489699Y-45080559I450505J-216876D01*
G01*
X65836411Y-47351699D02*
G75*
G03*
X65584153Y-47283400I-252261J-431710D01*
G01*
X65584152Y-44283401D02*
G75*
G03*
X65836411Y-44215102I-2J500009D01*
G01*
X63040216Y-46703121D02*
G75*
G03*
X63742989Y-47351700I450514J-216879D01*
G01*
X63742989Y-44215104D02*
G75*
G03*
X63040216Y-44863681I-252258J-431700D01*
G01*
X66539183Y-44863682D02*
G75*
G03*
X65836411Y-44215102I-450513J216880D01*
G01*
X66489699Y-46486244D02*
G75*
G03*
X66539184Y-46703121I499990J-1D01*
G01*
X63040214Y-46703120D02*
G75*
G03*
X63089701Y-46486243I-450504J216880D01*
G01*
%TO.C,LED104*%
X111620248Y-47283400D02*
X113209153Y-47283400D01*
X114114699Y-46486243D02*
X114114699Y-45080559D01*
X113209152Y-44283401D02*
X111620248Y-44283401D01*
X110714701Y-45080559D02*
X110714701Y-46486243D01*
X113209152Y-44283401D02*
G75*
G03*
X113461411Y-44215102I-2J500009D01*
G01*
X114114699Y-46486244D02*
G75*
G03*
X114164184Y-46703121I499990J-1D01*
G01*
X111620247Y-47283401D02*
G75*
G03*
X111367989Y-47351700I3J-500009D01*
G01*
X111367990Y-44215103D02*
G75*
G03*
X111620248Y-44283401I252260J431713D01*
G01*
X114164184Y-44863681D02*
G75*
G03*
X114114699Y-45080559I450505J-216876D01*
G01*
X113461410Y-47351700D02*
G75*
G03*
X114164184Y-46703121I252259J431701D01*
G01*
X110665216Y-46703121D02*
G75*
G03*
X111367989Y-47351700I450514J-216879D01*
G01*
X114164183Y-44863682D02*
G75*
G03*
X113461411Y-44215102I-450513J216880D01*
G01*
X110665214Y-46703120D02*
G75*
G03*
X110714701Y-46486243I-450504J216880D01*
G01*
X111367989Y-44215104D02*
G75*
G03*
X110665216Y-44863681I-252258J-431700D01*
G01*
X110714715Y-45080558D02*
G75*
G03*
X110665216Y-44863681I-499615J58D01*
G01*
X113461411Y-47351699D02*
G75*
G03*
X113209153Y-47283400I-252261J-431710D01*
G01*
%TO.C,LED127*%
X92570248Y-128245900D02*
X94159153Y-128245900D01*
X94159152Y-125245901D02*
X92570248Y-125245901D01*
X91664701Y-126043059D02*
X91664701Y-127448743D01*
X95064699Y-127448743D02*
X95064699Y-126043059D01*
X91664715Y-126043058D02*
G75*
G03*
X91615216Y-125826181I-499615J58D01*
G01*
X92570247Y-128245901D02*
G75*
G03*
X92317989Y-128314200I3J-500009D01*
G01*
X95114183Y-125826182D02*
G75*
G03*
X94411411Y-125177602I-450513J216880D01*
G01*
X92317990Y-125177603D02*
G75*
G03*
X92570248Y-125245901I252260J431713D01*
G01*
X94411411Y-128314199D02*
G75*
G03*
X94159153Y-128245900I-252261J-431710D01*
G01*
X94159152Y-125245901D02*
G75*
G03*
X94411411Y-125177602I-2J500009D01*
G01*
X91615214Y-127665620D02*
G75*
G03*
X91664701Y-127448743I-450504J216880D01*
G01*
X94411410Y-128314200D02*
G75*
G03*
X95114184Y-127665621I252259J431701D01*
G01*
X95064699Y-127448744D02*
G75*
G03*
X95114184Y-127665621I499990J-1D01*
G01*
X92317989Y-125177604D02*
G75*
G03*
X91615216Y-125826181I-252258J-431700D01*
G01*
X91615216Y-127665621D02*
G75*
G03*
X92317989Y-128314200I450514J-216879D01*
G01*
X95114184Y-125826181D02*
G75*
G03*
X95064699Y-126043059I450505J-216876D01*
G01*
%TO.C,LED134*%
X91664701Y-145093057D02*
X91664701Y-146498741D01*
X94159152Y-144295900D02*
X92570247Y-144295900D01*
X92570248Y-147295899D02*
X94159152Y-147295899D01*
X95064699Y-146498741D02*
X95064699Y-145093057D01*
X95064699Y-146498742D02*
G75*
G03*
X95114184Y-146715619I499990J-1D01*
G01*
X92570248Y-147295899D02*
G75*
G03*
X92317989Y-147364198I2J-500011D01*
G01*
X91615218Y-146715619D02*
G75*
G03*
X92317989Y-147364198I450512J-216881D01*
G01*
X94411411Y-147364196D02*
G75*
G03*
X95114184Y-146715619I252258J431700D01*
G01*
X91664702Y-145093056D02*
G75*
G03*
X91615216Y-144876179I-499302J156D01*
G01*
X92317989Y-144227602D02*
G75*
G03*
X91615216Y-144876179I-252258J-431700D01*
G01*
X94411410Y-147364198D02*
G75*
G03*
X94159152Y-147295899I-252261J-431710D01*
G01*
X91615218Y-146715620D02*
G75*
G03*
X91664701Y-146498741I-450718J216920D01*
G01*
X95114184Y-144876179D02*
G75*
G03*
X95064699Y-145093057I450505J-216876D01*
G01*
X95114184Y-144876179D02*
G75*
G03*
X94411411Y-144227600I-450515J216878D01*
G01*
X92317989Y-144227601D02*
G75*
G03*
X92570247Y-144295900I252261J431711D01*
G01*
X94159153Y-144295899D02*
G75*
G03*
X94411411Y-144227600I-3J500009D01*
G01*
%TO.C,LED2B101*%
X101189701Y-45080559D02*
X101189701Y-46486243D01*
X104589699Y-46486243D02*
X104589699Y-45080559D01*
X103684152Y-44283401D02*
X102095248Y-44283401D01*
X102095248Y-47283400D02*
X103684153Y-47283400D01*
X104639183Y-44863682D02*
G75*
G03*
X103936411Y-44215102I-450513J216880D01*
G01*
X102095247Y-47283401D02*
G75*
G03*
X101842989Y-47351700I3J-500009D01*
G01*
X103936410Y-47351700D02*
G75*
G03*
X104639184Y-46703121I252259J431701D01*
G01*
X104639184Y-44863681D02*
G75*
G03*
X104589699Y-45080559I450505J-216876D01*
G01*
X101842989Y-44215104D02*
G75*
G03*
X101140216Y-44863681I-252258J-431700D01*
G01*
X104589699Y-46486244D02*
G75*
G03*
X104639184Y-46703121I499990J-1D01*
G01*
X101842990Y-44215103D02*
G75*
G03*
X102095248Y-44283401I252260J431713D01*
G01*
X103936411Y-47351699D02*
G75*
G03*
X103684153Y-47283400I-252261J-431710D01*
G01*
X101140216Y-46703121D02*
G75*
G03*
X101842989Y-47351700I450514J-216879D01*
G01*
X103684152Y-44283401D02*
G75*
G03*
X103936411Y-44215102I-2J500009D01*
G01*
X101140214Y-46703120D02*
G75*
G03*
X101189701Y-46486243I-450504J216880D01*
G01*
X101189715Y-45080558D02*
G75*
G03*
X101140216Y-44863681I-499615J58D01*
G01*
%TO.C,LED122*%
X110714701Y-106993057D02*
X110714701Y-108398741D01*
X113209152Y-106195900D02*
X111620247Y-106195900D01*
X114114699Y-108398741D02*
X114114699Y-106993057D01*
X111620248Y-109195899D02*
X113209152Y-109195899D01*
X110714702Y-106993056D02*
G75*
G03*
X110665216Y-106776179I-499302J156D01*
G01*
X113461411Y-109264196D02*
G75*
G03*
X114164184Y-108615619I252258J431700D01*
G01*
X114114699Y-108398742D02*
G75*
G03*
X114164184Y-108615619I499990J-1D01*
G01*
X114164184Y-106776179D02*
G75*
G03*
X113461411Y-106127600I-450515J216878D01*
G01*
X114164184Y-106776179D02*
G75*
G03*
X114114699Y-106993057I450505J-216876D01*
G01*
X110665218Y-108615619D02*
G75*
G03*
X111367989Y-109264198I450512J-216881D01*
G01*
X111620248Y-109195899D02*
G75*
G03*
X111367989Y-109264198I2J-500011D01*
G01*
X111367989Y-106127602D02*
G75*
G03*
X110665216Y-106776179I-252258J-431700D01*
G01*
X113461410Y-109264198D02*
G75*
G03*
X113209152Y-109195899I-252261J-431710D01*
G01*
X110665218Y-108615620D02*
G75*
G03*
X110714701Y-108398741I-450718J216920D01*
G01*
X113209153Y-106195899D02*
G75*
G03*
X113461411Y-106127600I-3J500009D01*
G01*
X111367989Y-106127601D02*
G75*
G03*
X111620247Y-106195900I252261J431711D01*
G01*
%TO.C,LED124*%
X148814701Y-106993057D02*
X148814701Y-108398741D01*
X152214699Y-108398741D02*
X152214699Y-106993057D01*
X149720248Y-109195899D02*
X151309152Y-109195899D01*
X151309152Y-106195900D02*
X149720247Y-106195900D01*
X152264184Y-106776179D02*
G75*
G03*
X151561411Y-106127600I-450515J216878D01*
G01*
X151561411Y-109264196D02*
G75*
G03*
X152264184Y-108615619I252258J431700D01*
G01*
X151309153Y-106195899D02*
G75*
G03*
X151561411Y-106127600I-3J500009D01*
G01*
X148765218Y-108615619D02*
G75*
G03*
X149467989Y-109264198I450512J-216881D01*
G01*
X152214699Y-108398742D02*
G75*
G03*
X152264184Y-108615619I499990J-1D01*
G01*
X148814702Y-106993056D02*
G75*
G03*
X148765216Y-106776179I-499302J156D01*
G01*
X151561410Y-109264198D02*
G75*
G03*
X151309152Y-109195899I-252261J-431710D01*
G01*
X149467989Y-106127602D02*
G75*
G03*
X148765216Y-106776179I-252258J-431700D01*
G01*
X149467989Y-106127601D02*
G75*
G03*
X149720247Y-106195900I252261J431711D01*
G01*
X149720248Y-109195899D02*
G75*
G03*
X149467989Y-109264198I2J-500011D01*
G01*
X148765218Y-108615620D02*
G75*
G03*
X148814701Y-108398741I-450718J216920D01*
G01*
X152264184Y-106776179D02*
G75*
G03*
X152214699Y-106993057I450505J-216876D01*
G01*
%TO.C,LED111*%
X133164699Y-70298741D02*
X133164699Y-68893057D01*
X132259152Y-68095900D02*
X130670247Y-68095900D01*
X130670248Y-71095899D02*
X132259152Y-71095899D01*
X129764701Y-68893057D02*
X129764701Y-70298741D01*
X133214184Y-68676179D02*
G75*
G03*
X132511411Y-68027600I-450515J216878D01*
G01*
X132511411Y-71164196D02*
G75*
G03*
X133214184Y-70515619I252258J431700D01*
G01*
X132511410Y-71164198D02*
G75*
G03*
X132259152Y-71095899I-252261J-431710D01*
G01*
X129764702Y-68893056D02*
G75*
G03*
X129715216Y-68676179I-499302J156D01*
G01*
X133214184Y-68676179D02*
G75*
G03*
X133164699Y-68893057I450505J-216876D01*
G01*
X129715218Y-70515620D02*
G75*
G03*
X129764701Y-70298741I-450718J216920D01*
G01*
X130417989Y-68027602D02*
G75*
G03*
X129715216Y-68676179I-252258J-431700D01*
G01*
X132259153Y-68095899D02*
G75*
G03*
X132511411Y-68027600I-3J500009D01*
G01*
X133164699Y-70298742D02*
G75*
G03*
X133214184Y-70515619I499990J-1D01*
G01*
X129715218Y-70515619D02*
G75*
G03*
X130417989Y-71164198I450512J-216881D01*
G01*
X130417989Y-68027601D02*
G75*
G03*
X130670247Y-68095900I252261J431711D01*
G01*
X130670248Y-71095899D02*
G75*
G03*
X130417989Y-71164198I2J-500011D01*
G01*
%TO.C,LED128*%
X114114699Y-127448743D02*
X114114699Y-126043059D01*
X111620248Y-128245900D02*
X113209153Y-128245900D01*
X110714701Y-126043059D02*
X110714701Y-127448743D01*
X113209152Y-125245901D02*
X111620248Y-125245901D01*
X113461410Y-128314200D02*
G75*
G03*
X114164184Y-127665621I252259J431701D01*
G01*
X110665214Y-127665620D02*
G75*
G03*
X110714701Y-127448743I-450504J216880D01*
G01*
X110714715Y-126043058D02*
G75*
G03*
X110665216Y-125826181I-499615J58D01*
G01*
X111367990Y-125177603D02*
G75*
G03*
X111620248Y-125245901I252260J431713D01*
G01*
X111620247Y-128245901D02*
G75*
G03*
X111367989Y-128314200I3J-500009D01*
G01*
X113461411Y-128314199D02*
G75*
G03*
X113209153Y-128245900I-252261J-431710D01*
G01*
X113209152Y-125245901D02*
G75*
G03*
X113461411Y-125177602I-2J500009D01*
G01*
X114164183Y-125826182D02*
G75*
G03*
X113461411Y-125177602I-450513J216880D01*
G01*
X114114699Y-127448744D02*
G75*
G03*
X114164184Y-127665621I499990J-1D01*
G01*
X110665216Y-127665621D02*
G75*
G03*
X111367989Y-128314200I450514J-216879D01*
G01*
X111367989Y-125177604D02*
G75*
G03*
X110665216Y-125826181I-252258J-431700D01*
G01*
X114164184Y-125826181D02*
G75*
G03*
X114114699Y-126043059I450505J-216876D01*
G01*
%TO.C,LED4B101*%
X139289701Y-45080559D02*
X139289701Y-46486243D01*
X141784152Y-44283401D02*
X140195248Y-44283401D01*
X142689699Y-46486243D02*
X142689699Y-45080559D01*
X140195248Y-47283400D02*
X141784153Y-47283400D01*
X142689699Y-46486244D02*
G75*
G03*
X142739184Y-46703121I499990J-1D01*
G01*
X139942989Y-44215104D02*
G75*
G03*
X139240216Y-44863681I-252258J-431700D01*
G01*
X140195247Y-47283401D02*
G75*
G03*
X139942989Y-47351700I3J-500009D01*
G01*
X142036410Y-47351700D02*
G75*
G03*
X142739184Y-46703121I252259J431701D01*
G01*
X139289715Y-45080558D02*
G75*
G03*
X139240216Y-44863681I-499615J58D01*
G01*
X141784152Y-44283401D02*
G75*
G03*
X142036411Y-44215102I-2J500009D01*
G01*
X142036411Y-47351699D02*
G75*
G03*
X141784153Y-47283400I-252261J-431710D01*
G01*
X142739183Y-44863682D02*
G75*
G03*
X142036411Y-44215102I-450513J216880D01*
G01*
X139942990Y-44215103D02*
G75*
G03*
X140195248Y-44283401I252260J431713D01*
G01*
X139240214Y-46703120D02*
G75*
G03*
X139289701Y-46486243I-450504J216880D01*
G01*
X142739184Y-44863681D02*
G75*
G03*
X142689699Y-45080559I450505J-216876D01*
G01*
X139240216Y-46703121D02*
G75*
G03*
X139942989Y-47351700I450514J-216879D01*
G01*
%TO.C,LED115*%
X91664701Y-87943059D02*
X91664701Y-89348743D01*
X94159152Y-87145901D02*
X92570248Y-87145901D01*
X92570248Y-90145900D02*
X94159153Y-90145900D01*
X95064699Y-89348743D02*
X95064699Y-87943059D01*
X92317990Y-87077603D02*
G75*
G03*
X92570248Y-87145901I252260J431713D01*
G01*
X95064699Y-89348744D02*
G75*
G03*
X95114184Y-89565621I499990J-1D01*
G01*
X92317989Y-87077604D02*
G75*
G03*
X91615216Y-87726181I-252258J-431700D01*
G01*
X95114183Y-87726182D02*
G75*
G03*
X94411411Y-87077602I-450513J216880D01*
G01*
X95114184Y-87726181D02*
G75*
G03*
X95064699Y-87943059I450505J-216876D01*
G01*
X91615216Y-89565621D02*
G75*
G03*
X92317989Y-90214200I450514J-216879D01*
G01*
X94411411Y-90214199D02*
G75*
G03*
X94159153Y-90145900I-252261J-431710D01*
G01*
X94411410Y-90214200D02*
G75*
G03*
X95114184Y-89565621I252259J431701D01*
G01*
X92570247Y-90145901D02*
G75*
G03*
X92317989Y-90214200I3J-500009D01*
G01*
X94159152Y-87145901D02*
G75*
G03*
X94411411Y-87077602I-2J500009D01*
G01*
X91664715Y-87943058D02*
G75*
G03*
X91615216Y-87726181I-499615J58D01*
G01*
X91615214Y-89565620D02*
G75*
G03*
X91664701Y-89348743I-450504J216880D01*
G01*
%TO.C,LED129*%
X129764701Y-126043059D02*
X129764701Y-127448743D01*
X133164699Y-127448743D02*
X133164699Y-126043059D01*
X132259152Y-125245901D02*
X130670248Y-125245901D01*
X130670248Y-128245900D02*
X132259153Y-128245900D01*
X133214184Y-125826181D02*
G75*
G03*
X133164699Y-126043059I450505J-216876D01*
G01*
X130670247Y-128245901D02*
G75*
G03*
X130417989Y-128314200I3J-500009D01*
G01*
X129715214Y-127665620D02*
G75*
G03*
X129764701Y-127448743I-450504J216880D01*
G01*
X130417989Y-125177604D02*
G75*
G03*
X129715216Y-125826181I-252258J-431700D01*
G01*
X132511410Y-128314200D02*
G75*
G03*
X133214184Y-127665621I252259J431701D01*
G01*
X129715216Y-127665621D02*
G75*
G03*
X130417989Y-128314200I450514J-216879D01*
G01*
X133164699Y-127448744D02*
G75*
G03*
X133214184Y-127665621I499990J-1D01*
G01*
X132511411Y-128314199D02*
G75*
G03*
X132259153Y-128245900I-252261J-431710D01*
G01*
X129764715Y-126043058D02*
G75*
G03*
X129715216Y-125826181I-499615J58D01*
G01*
X132259152Y-125245901D02*
G75*
G03*
X132511411Y-125177602I-2J500009D01*
G01*
X133214183Y-125826182D02*
G75*
G03*
X132511411Y-125177602I-450513J216880D01*
G01*
X130417990Y-125177603D02*
G75*
G03*
X130670248Y-125245901I252260J431713D01*
G01*
%TO.C,LED113*%
X54470248Y-90145900D02*
X56059153Y-90145900D01*
X56964699Y-89348743D02*
X56964699Y-87943059D01*
X56059152Y-87145901D02*
X54470248Y-87145901D01*
X53564701Y-87943059D02*
X53564701Y-89348743D01*
X56311411Y-90214199D02*
G75*
G03*
X56059153Y-90145900I-252261J-431710D01*
G01*
X54217989Y-87077604D02*
G75*
G03*
X53515216Y-87726181I-252258J-431700D01*
G01*
X57014183Y-87726182D02*
G75*
G03*
X56311411Y-87077602I-450513J216880D01*
G01*
X53515216Y-89565621D02*
G75*
G03*
X54217989Y-90214200I450514J-216879D01*
G01*
X56964699Y-89348744D02*
G75*
G03*
X57014184Y-89565621I499990J-1D01*
G01*
X57014184Y-87726181D02*
G75*
G03*
X56964699Y-87943059I450505J-216876D01*
G01*
X54217990Y-87077603D02*
G75*
G03*
X54470248Y-87145901I252260J431713D01*
G01*
X53515214Y-89565620D02*
G75*
G03*
X53564701Y-89348743I-450504J216880D01*
G01*
X53564715Y-87943058D02*
G75*
G03*
X53515216Y-87726181I-499615J58D01*
G01*
X54470247Y-90145901D02*
G75*
G03*
X54217989Y-90214200I3J-500009D01*
G01*
X56311410Y-90214200D02*
G75*
G03*
X57014184Y-89565621I252259J431701D01*
G01*
X56059152Y-87145901D02*
G75*
G03*
X56311411Y-87077602I-2J500009D01*
G01*
%TO.C,LED130*%
X148814701Y-126043059D02*
X148814701Y-127448743D01*
X149720248Y-128245900D02*
X151309153Y-128245900D01*
X151309152Y-125245901D02*
X149720248Y-125245901D01*
X152214699Y-127448743D02*
X152214699Y-126043059D01*
X148814715Y-126043058D02*
G75*
G03*
X148765216Y-125826181I-499615J58D01*
G01*
X151561411Y-128314199D02*
G75*
G03*
X151309153Y-128245900I-252261J-431710D01*
G01*
X148765216Y-127665621D02*
G75*
G03*
X149467989Y-128314200I450514J-216879D01*
G01*
X149467990Y-125177603D02*
G75*
G03*
X149720248Y-125245901I252260J431713D01*
G01*
X152214699Y-127448744D02*
G75*
G03*
X152264184Y-127665621I499990J-1D01*
G01*
X151309152Y-125245901D02*
G75*
G03*
X151561411Y-125177602I-2J500009D01*
G01*
X148765214Y-127665620D02*
G75*
G03*
X148814701Y-127448743I-450504J216880D01*
G01*
X152264183Y-125826182D02*
G75*
G03*
X151561411Y-125177602I-450513J216880D01*
G01*
X149720247Y-128245901D02*
G75*
G03*
X149467989Y-128314200I3J-500009D01*
G01*
X152264184Y-125826181D02*
G75*
G03*
X152214699Y-126043059I450505J-216876D01*
G01*
X149467989Y-125177604D02*
G75*
G03*
X148765216Y-125826181I-252258J-431700D01*
G01*
X151561410Y-128314200D02*
G75*
G03*
X152264184Y-127665621I252259J431701D01*
G01*
%TO.C,LED107*%
X53564701Y-68893057D02*
X53564701Y-70298741D01*
X56059152Y-68095900D02*
X54470247Y-68095900D01*
X54470248Y-71095899D02*
X56059152Y-71095899D01*
X56964699Y-70298741D02*
X56964699Y-68893057D01*
X54470248Y-71095899D02*
G75*
G03*
X54217989Y-71164198I2J-500011D01*
G01*
X54217989Y-68027601D02*
G75*
G03*
X54470247Y-68095900I252261J431711D01*
G01*
X54217989Y-68027602D02*
G75*
G03*
X53515216Y-68676179I-252258J-431700D01*
G01*
X53515218Y-70515620D02*
G75*
G03*
X53564701Y-70298741I-450718J216920D01*
G01*
X53515218Y-70515619D02*
G75*
G03*
X54217989Y-71164198I450512J-216881D01*
G01*
X56311411Y-71164196D02*
G75*
G03*
X57014184Y-70515619I252258J431700D01*
G01*
X56059153Y-68095899D02*
G75*
G03*
X56311411Y-68027600I-3J500009D01*
G01*
X53564702Y-68893056D02*
G75*
G03*
X53515216Y-68676179I-499302J156D01*
G01*
X57014184Y-68676179D02*
G75*
G03*
X56311411Y-68027600I-450515J216878D01*
G01*
X56311410Y-71164198D02*
G75*
G03*
X56059152Y-71095899I-252261J-431710D01*
G01*
X57014184Y-68676179D02*
G75*
G03*
X56964699Y-68893057I450505J-216876D01*
G01*
X56964699Y-70298742D02*
G75*
G03*
X57014184Y-70515619I499990J-1D01*
G01*
%TO.C,LED119*%
X56964699Y-108398741D02*
X56964699Y-106993057D01*
X56059152Y-106195900D02*
X54470247Y-106195900D01*
X54470248Y-109195899D02*
X56059152Y-109195899D01*
X53564701Y-106993057D02*
X53564701Y-108398741D01*
X56311411Y-109264196D02*
G75*
G03*
X57014184Y-108615619I252258J431700D01*
G01*
X53515218Y-108615619D02*
G75*
G03*
X54217989Y-109264198I450512J-216881D01*
G01*
X57014184Y-106776179D02*
G75*
G03*
X56964699Y-106993057I450505J-216876D01*
G01*
X54470248Y-109195899D02*
G75*
G03*
X54217989Y-109264198I2J-500011D01*
G01*
X53515218Y-108615620D02*
G75*
G03*
X53564701Y-108398741I-450718J216920D01*
G01*
X56311410Y-109264198D02*
G75*
G03*
X56059152Y-109195899I-252261J-431710D01*
G01*
X56059153Y-106195899D02*
G75*
G03*
X56311411Y-106127600I-3J500009D01*
G01*
X57014184Y-106776179D02*
G75*
G03*
X56311411Y-106127600I-450515J216878D01*
G01*
X54217989Y-106127602D02*
G75*
G03*
X53515216Y-106776179I-252258J-431700D01*
G01*
X53564702Y-106993056D02*
G75*
G03*
X53515216Y-106776179I-499302J156D01*
G01*
X54217989Y-106127601D02*
G75*
G03*
X54470247Y-106195900I252261J431711D01*
G01*
X56964699Y-108398742D02*
G75*
G03*
X57014184Y-108615619I499990J-1D01*
G01*
%TO.C,LED112*%
X151309152Y-68095900D02*
X149720247Y-68095900D01*
X152214699Y-70298741D02*
X152214699Y-68893057D01*
X148814701Y-68893057D02*
X148814701Y-70298741D01*
X149720248Y-71095899D02*
X151309152Y-71095899D01*
X152214699Y-70298742D02*
G75*
G03*
X152264184Y-70515619I499990J-1D01*
G01*
X151309153Y-68095899D02*
G75*
G03*
X151561411Y-68027600I-3J500009D01*
G01*
X151561411Y-71164196D02*
G75*
G03*
X152264184Y-70515619I252258J431700D01*
G01*
X148765218Y-70515620D02*
G75*
G03*
X148814701Y-70298741I-450718J216920D01*
G01*
X149467989Y-68027601D02*
G75*
G03*
X149720247Y-68095900I252261J431711D01*
G01*
X152264184Y-68676179D02*
G75*
G03*
X152214699Y-68893057I450505J-216876D01*
G01*
X151561410Y-71164198D02*
G75*
G03*
X151309152Y-71095899I-252261J-431710D01*
G01*
X148765218Y-70515619D02*
G75*
G03*
X149467989Y-71164198I450512J-216881D01*
G01*
X152264184Y-68676179D02*
G75*
G03*
X151561411Y-68027600I-450515J216878D01*
G01*
X149467989Y-68027602D02*
G75*
G03*
X148765216Y-68676179I-252258J-431700D01*
G01*
X149720248Y-71095899D02*
G75*
G03*
X149467989Y-71164198I2J-500011D01*
G01*
X148814702Y-68893056D02*
G75*
G03*
X148765216Y-68676179I-499302J156D01*
G01*
%TO.C,LED131*%
X54470248Y-147295899D02*
X56059152Y-147295899D01*
X56059152Y-144295900D02*
X54470247Y-144295900D01*
X56964699Y-146498741D02*
X56964699Y-145093057D01*
X53564701Y-145093057D02*
X53564701Y-146498741D01*
X54217989Y-144227601D02*
G75*
G03*
X54470247Y-144295900I252261J431711D01*
G01*
X56311410Y-147364198D02*
G75*
G03*
X56059152Y-147295899I-252261J-431710D01*
G01*
X56311411Y-147364196D02*
G75*
G03*
X57014184Y-146715619I252258J431700D01*
G01*
X53515218Y-146715620D02*
G75*
G03*
X53564701Y-146498741I-450718J216920D01*
G01*
X56964699Y-146498742D02*
G75*
G03*
X57014184Y-146715619I499990J-1D01*
G01*
X57014184Y-144876179D02*
G75*
G03*
X56964699Y-145093057I450505J-216876D01*
G01*
X56059153Y-144295899D02*
G75*
G03*
X56311411Y-144227600I-3J500009D01*
G01*
X54470248Y-147295899D02*
G75*
G03*
X54217989Y-147364198I2J-500011D01*
G01*
X53515218Y-146715619D02*
G75*
G03*
X54217989Y-147364198I450512J-216881D01*
G01*
X53564702Y-145093056D02*
G75*
G03*
X53515216Y-144876179I-499302J156D01*
G01*
X54217989Y-144227602D02*
G75*
G03*
X53515216Y-144876179I-252258J-431700D01*
G01*
X57014184Y-144876179D02*
G75*
G03*
X56311411Y-144227600I-450515J216878D01*
G01*
%TD*%
M02*
