M48
; DRILL file {KiCad (6.0.9)} date Tue Dec  6 20:11:08 2022
; FORMAT={-:-/ absolute / inch / decimal}
; #@! TF.CreationDate,2022-12-06T20:11:08+01:00
; #@! TF.GenerationSoftware,Kicad,Pcbnew,(6.0.9)
; #@! TF.FileFunction,NonPlated,1,2,NPTH
FMAT,2
INCH
; #@! TA.AperFunction,NonPlated,NPTH,ComponentDrill
T1C0.0689
; #@! TA.AperFunction,NonPlated,NPTH,ComponentDrill
T2C0.1570
%
G90
G05
T1
X1.9758Y-2.0025
X1.9758Y-2.94
X1.9758Y-3.69
X1.9758Y-4.44
X1.9758Y-5.19
X1.9758Y-5.94
X2.3508Y-2.0025
X2.3508Y-5.94
X2.3758Y-2.0025
X2.3758Y-2.94
X2.3758Y-3.69
X2.3758Y-4.44
X2.3758Y-5.19
X2.3758Y-5.94
X2.7258Y-2.0025
X2.7258Y-2.94
X2.7258Y-3.69
X2.7258Y-4.44
X2.7258Y-5.19
X2.7258Y-5.94
X2.7508Y-2.0025
X2.7508Y-5.94
X3.1008Y-2.0025
X3.1258Y-2.0025
X3.1258Y-2.94
X3.1258Y-3.69
X3.1258Y-4.44
X3.1258Y-5.19
X3.1258Y-5.94
X3.4758Y-2.0025
X3.4758Y-2.94
X3.4758Y-3.69
X3.4758Y-4.44
X3.4758Y-5.19
X3.4758Y-5.94
X3.5008Y-2.0025
X3.8508Y-2.0025
X3.8758Y-2.0025
X3.8758Y-2.94
X3.8758Y-3.69
X3.8758Y-4.44
X3.8758Y-5.19
X3.8758Y-5.94
X4.2258Y-2.0025
X4.2258Y-2.94
X4.2258Y-3.69
X4.2258Y-4.44
X4.2258Y-5.19
X4.2258Y-5.94
X4.2508Y-2.0025
X4.6008Y-2.0025
X4.6258Y-2.0025
X4.6258Y-2.94
X4.6258Y-3.69
X4.6258Y-4.44
X4.6258Y-5.19
X4.6258Y-5.94
X4.9758Y-2.0025
X4.9758Y-2.94
X4.9758Y-3.69
X4.9758Y-4.44
X4.9758Y-5.19
X4.9758Y-5.94
X5.0008Y-2.0025
X5.3508Y-2.0025
X5.3508Y-5.94
X5.3758Y-2.0025
X5.3758Y-2.94
X5.3758Y-3.69
X5.3758Y-4.44
X5.3758Y-5.19
X5.3758Y-5.94
X5.7258Y-2.0025
X5.7258Y-2.94
X5.7258Y-3.69
X5.7258Y-4.44
X5.7258Y-5.19
X5.7258Y-5.94
X5.7508Y-2.0025
X5.7508Y-5.94
X6.1258Y-2.0025
X6.1258Y-2.94
X6.1258Y-3.69
X6.1258Y-4.44
X6.1258Y-5.19
X6.1258Y-5.94
T2
X2.1758Y-2.0025
X2.1758Y-2.94
X2.1758Y-3.69
X2.1758Y-4.44
X2.1758Y-5.19
X2.1758Y-5.94
X2.5508Y-2.0025
X2.5508Y-5.94
X2.9258Y-2.0025
X2.9258Y-2.94
X2.9258Y-3.69
X2.9258Y-4.44
X2.9258Y-5.19
X2.9258Y-5.94
X3.3008Y-2.0025
X3.6758Y-2.0025
X3.6758Y-2.94
X3.6758Y-3.69
X3.6758Y-4.44
X3.6758Y-5.19
X3.6758Y-5.94
X4.0508Y-2.0025
X4.4258Y-2.0025
X4.4258Y-2.94
X4.4258Y-3.69
X4.4258Y-4.44
X4.4258Y-5.19
X4.4258Y-5.94
X4.8008Y-2.0025
X5.1758Y-2.0025
X5.1758Y-2.94
X5.1758Y-3.69
X5.1758Y-4.44
X5.1758Y-5.19
X5.1758Y-5.94
X5.5508Y-2.0025
X5.5508Y-5.94
X5.9258Y-2.0025
X5.9258Y-2.94
X5.9258Y-3.69
X5.9258Y-4.44
X5.9258Y-5.19
X5.9258Y-5.94
T0
M30
