G04 #@! TF.GenerationSoftware,KiCad,Pcbnew,8.0.5*
G04 #@! TF.CreationDate,2024-10-08T22:33:10+02:00*
G04 #@! TF.ProjectId,plate,706c6174-652e-46b6-9963-61645f706362,rev?*
G04 #@! TF.SameCoordinates,Original*
G04 #@! TF.FileFunction,Copper,L2,Bot*
G04 #@! TF.FilePolarity,Positive*
%FSLAX46Y46*%
G04 Gerber Fmt 4.6, Leading zero omitted, Abs format (unit mm)*
G04 Created by KiCad (PCBNEW 8.0.5) date 2024-10-08 22:33:10*
%MOMM*%
%LPD*%
G01*
G04 APERTURE LIST*
G04 #@! TA.AperFunction,EtchedComponent*
%ADD10C,1.190624*%
G04 #@! TD*
G04 APERTURE END LIST*
D10*
X7408340Y-22523504D02*
X10881851Y-19050000D01*
X7408340Y-25997008D02*
X10881851Y-22523504D01*
X7408340Y-29470512D02*
X10881851Y-25997008D01*
X7408340Y-32944016D02*
X10881851Y-29470512D01*
X7408340Y-32944016D02*
X10881851Y-36417521D01*
X7408340Y-36417521D02*
X10881851Y-39891024D01*
X7408340Y-39891024D02*
X10881851Y-43364529D01*
X7408340Y-46838033D02*
X10881851Y-43364529D01*
X7408340Y-46838033D02*
X10881851Y-50311538D01*
X7408340Y-50311538D02*
X10881851Y-53785043D01*
X7408340Y-57258546D02*
X10881851Y-53785043D01*
X7408340Y-57258546D02*
X10881851Y-60732049D01*
X7408340Y-60732049D02*
X10881851Y-64205556D01*
X7408340Y-64205556D02*
X10881851Y-67679059D01*
X7408340Y-67679059D02*
X10881851Y-71152562D01*
X7408340Y-74626065D02*
X10881851Y-71152562D01*
X7408340Y-74626065D02*
X10881851Y-78099568D01*
X7408340Y-78099568D02*
X10881851Y-81573075D01*
X7408340Y-85046574D02*
X10881851Y-81573075D01*
X7408340Y-88520085D02*
X10881851Y-85046574D01*
X7408340Y-91993588D02*
X10881851Y-88520085D01*
X7408340Y-95467091D02*
X10881851Y-91993588D01*
X7408340Y-98940594D02*
X10881851Y-95467091D01*
X7408340Y-102414098D02*
X10881851Y-98940594D01*
X7408340Y-102414098D02*
X10881851Y-105887608D01*
X7408340Y-105887608D02*
X10881851Y-109361111D01*
X7408340Y-112834615D02*
X10881851Y-109361111D01*
X7408340Y-112834615D02*
X10881851Y-116308118D01*
X7408340Y-119781621D02*
X10881851Y-116308118D01*
X7408340Y-123255124D02*
X10881851Y-119781621D01*
X7408340Y-126728627D02*
X10881851Y-123255124D01*
X7408340Y-130202130D02*
X10881851Y-126728627D01*
X7408340Y-130202130D02*
X10881851Y-133675633D01*
X7408340Y-133675633D02*
X10881851Y-137149136D01*
X7408340Y-140622647D02*
X10881851Y-137149136D01*
X7408340Y-140622647D02*
X10881851Y-144096150D01*
X7408340Y-147569653D02*
X10881851Y-144096150D01*
X7408340Y-147569653D02*
X10881851Y-151043149D01*
X7408340Y-151043149D02*
X10881851Y-154516660D01*
X10881851Y-19050000D02*
X14355347Y-22523504D01*
X10881851Y-25997008D02*
X14355347Y-22523504D01*
X10881851Y-25997008D02*
X14355347Y-29470512D01*
X10881851Y-32944016D02*
X14355347Y-29470512D01*
X10881851Y-36417521D02*
X14355347Y-32944016D01*
X10881851Y-36417521D02*
X14355347Y-39891024D01*
X10881851Y-43364529D02*
X14355347Y-39891024D01*
X10881851Y-43364529D02*
X14355347Y-46838033D01*
X10881851Y-46838033D02*
X14355347Y-50311538D01*
X10881851Y-53785043D02*
X14355347Y-50311538D01*
X10881851Y-53785043D02*
X14355347Y-57258546D01*
X10881851Y-57258546D02*
X14355347Y-60732049D01*
X10881851Y-60732049D02*
X14355347Y-64205556D01*
X10881851Y-64205556D02*
X14355347Y-67679059D01*
X10881851Y-71152562D02*
X14355347Y-67679059D01*
X10881851Y-74626065D02*
X14355347Y-71152562D01*
X10881851Y-78099568D02*
X14355347Y-74626065D01*
X10881851Y-81573075D02*
X14355347Y-78099568D01*
X10881851Y-85046574D02*
X14355347Y-81573075D01*
X10881851Y-88520085D02*
X14355347Y-85046574D01*
X10881851Y-91993588D02*
X14355347Y-88520085D01*
X10881851Y-95467091D02*
X14355347Y-91993588D01*
X10881851Y-95467091D02*
X14355347Y-98940594D01*
X10881851Y-98940594D02*
X14355347Y-102414098D01*
X10881851Y-105887608D02*
X14355347Y-102414098D01*
X10881851Y-109361111D02*
X14355347Y-105887608D01*
X10881851Y-109361111D02*
X14355347Y-112834615D01*
X10881851Y-116308118D02*
X14355347Y-112834615D01*
X10881851Y-116308118D02*
X14355347Y-119781621D01*
X10881851Y-119781621D02*
X14355347Y-123255124D01*
X10881851Y-123255124D02*
X14355347Y-126728627D01*
X10881851Y-126728627D02*
X14355347Y-130202130D01*
X10881851Y-130202130D02*
X14355347Y-133675633D01*
X10881851Y-133675633D02*
X14355347Y-137149136D01*
X10881851Y-140622647D02*
X14355347Y-137149136D01*
X10881851Y-144096150D02*
X14355347Y-140622647D01*
X10881851Y-147569653D02*
X14355347Y-144096150D01*
X10881851Y-147569653D02*
X14355347Y-151043149D01*
X10881851Y-154516660D02*
X14355347Y-151043149D01*
X14355347Y-19050000D02*
X17828850Y-22523504D01*
X14355347Y-22523504D02*
X17828850Y-25997008D01*
X14355347Y-29470512D02*
X17828850Y-25997008D01*
X14355347Y-32944016D02*
X17828850Y-29470512D01*
X14355347Y-32944016D02*
X17828850Y-36417521D01*
X14355347Y-39891024D02*
X17828850Y-36417521D01*
X14355347Y-43364529D02*
X17828850Y-39891024D01*
X14355347Y-46838033D02*
X17828850Y-43364529D01*
X14355347Y-50311538D02*
X17828850Y-46838033D01*
X14355347Y-50311538D02*
X17828850Y-53785043D01*
X14355347Y-53785043D02*
X17828850Y-57258546D01*
X14355347Y-60732049D02*
X17828850Y-57258546D01*
X14355347Y-64205556D02*
X17828850Y-60732049D01*
X14355347Y-67679059D02*
X17828850Y-64205556D01*
X14355347Y-67679059D02*
X17828850Y-71152562D01*
X14355347Y-74626065D02*
X17828850Y-71152562D01*
X14355347Y-78099568D02*
X17828850Y-74626065D01*
X14355347Y-81573075D02*
X17828850Y-78099568D01*
X14355347Y-81573075D02*
X17828850Y-85046574D01*
X14355347Y-88520085D02*
X17828850Y-85046574D01*
X14355347Y-88520085D02*
X17828850Y-91993588D01*
X14355347Y-91993588D02*
X17828850Y-95467091D01*
X14355347Y-98940594D02*
X17828850Y-95467091D01*
X14355347Y-102414098D02*
X17828850Y-98940594D01*
X14355347Y-102414098D02*
X17828850Y-105887608D01*
X14355347Y-105887608D02*
X17828850Y-109361111D01*
X14355347Y-112834615D02*
X17828850Y-109361111D01*
X14355347Y-112834615D02*
X17828850Y-116308118D01*
X14355347Y-116308118D02*
X17828850Y-119781621D01*
X14355347Y-119781621D02*
X17828850Y-123255124D01*
X14355347Y-123255124D02*
X17828850Y-126728627D01*
X14355347Y-126728627D02*
X17828850Y-130202130D01*
X14355347Y-130202130D02*
X17828850Y-133675633D01*
X14355347Y-137149136D02*
X17828850Y-133675633D01*
X14355347Y-140622647D02*
X17828850Y-137149136D01*
X14355347Y-140622647D02*
X17828850Y-144096150D01*
X14355347Y-147569653D02*
X17828850Y-144096150D01*
X14355347Y-147569653D02*
X17828850Y-151043149D01*
X14355347Y-154516660D02*
X17828850Y-151043149D01*
X17828850Y-19050000D02*
X21302353Y-22523504D01*
X17828850Y-22523504D02*
X21302353Y-25997008D01*
X17828850Y-29470512D02*
X21302353Y-25997008D01*
X17828850Y-32944016D02*
X21302353Y-29470512D01*
X17828850Y-36417521D02*
X21302353Y-32944016D01*
X17828850Y-36417521D02*
X21302353Y-39891024D01*
X17828850Y-39891024D02*
X21302353Y-43364529D01*
X17828850Y-43364529D02*
X21302353Y-46838033D01*
X17828850Y-46838033D02*
X21302353Y-50311538D01*
X17828850Y-50311538D02*
X21302353Y-53785043D01*
X17828850Y-57258546D02*
X21302353Y-53785043D01*
X17828850Y-60732049D02*
X21302353Y-57258546D01*
X17828850Y-60732049D02*
X21302353Y-64205556D01*
X17828850Y-64205556D02*
X21302353Y-67679059D01*
X17828850Y-67679059D02*
X21302353Y-71152562D01*
X17828850Y-71152562D02*
X21302353Y-74626065D01*
X17828850Y-74626065D02*
X21302353Y-78099568D01*
X17828850Y-81573075D02*
X21302353Y-78099568D01*
X17828850Y-81573075D02*
X21302353Y-85046574D01*
X17828850Y-88520085D02*
X21302353Y-85046574D01*
X17828850Y-88520085D02*
X21302353Y-91993588D01*
X17828850Y-95467091D02*
X21302353Y-91993588D01*
X17828850Y-98940594D02*
X21302353Y-95467091D01*
X17828850Y-102414098D02*
X21302353Y-98940594D01*
X17828850Y-105887608D02*
X21302353Y-102414098D01*
X17828850Y-105887608D02*
X21302353Y-109361111D01*
X17828850Y-112834615D02*
X21302353Y-109361111D01*
X17828850Y-112834615D02*
X21302353Y-116308118D01*
X17828850Y-119781621D02*
X21302353Y-116308118D01*
X17828850Y-123255124D02*
X21302353Y-119781621D01*
X17828850Y-126728627D02*
X21302353Y-123255124D01*
X17828850Y-126728627D02*
X21302353Y-130202130D01*
X17828850Y-133675633D02*
X21302353Y-130202130D01*
X17828850Y-137149136D02*
X21302353Y-133675633D01*
X17828850Y-140622647D02*
X21302353Y-137149136D01*
X17828850Y-140622647D02*
X21302353Y-144096150D01*
X17828850Y-147569653D02*
X21302353Y-144096150D01*
X17828850Y-151043149D02*
X21302353Y-147569653D01*
X17828850Y-151043149D02*
X21302353Y-154516660D01*
X21302353Y-22523504D02*
X24775864Y-19050000D01*
X21302353Y-25997008D02*
X24775864Y-22523504D01*
X21302353Y-29470512D02*
X24775864Y-25997008D01*
X21302353Y-29470512D02*
X24775864Y-32944016D01*
X21302353Y-36417521D02*
X24775864Y-32944016D01*
X21302353Y-36417521D02*
X24775864Y-39891024D01*
X21302353Y-39891024D02*
X24775864Y-43364529D01*
X21302353Y-43364529D02*
X24775864Y-46838033D01*
X21302353Y-46838033D02*
X24775864Y-50311538D01*
X21302353Y-50311538D02*
X24775864Y-53785043D01*
X21302353Y-57258546D02*
X24775864Y-53785043D01*
X21302353Y-57258546D02*
X24775864Y-60732049D01*
X21302353Y-60732049D02*
X24775864Y-64205556D01*
X21302353Y-67679059D02*
X24775864Y-64205556D01*
X21302353Y-71152562D02*
X24775864Y-67679059D01*
X21302353Y-74626065D02*
X24775864Y-71152562D01*
X21302353Y-74626065D02*
X24775864Y-78099568D01*
X21302353Y-78099568D02*
X24775864Y-81573075D01*
X21302353Y-85046574D02*
X24775864Y-81573075D01*
X21302353Y-88520085D02*
X24775864Y-85046574D01*
X21302353Y-91993588D02*
X24775864Y-88520085D01*
X21302353Y-91993588D02*
X24775864Y-95467091D01*
X21302353Y-98940594D02*
X24775864Y-95467091D01*
X21302353Y-102414098D02*
X24775864Y-98940594D01*
X21302353Y-105887608D02*
X24775864Y-102414098D01*
X21302353Y-105887608D02*
X24775864Y-109361111D01*
X21302353Y-109361111D02*
X24775864Y-112834615D01*
X21302353Y-112834615D02*
X24775864Y-116308118D01*
X21302353Y-116308118D02*
X24775864Y-119781621D01*
X21302353Y-123255124D02*
X24775864Y-119781621D01*
X21302353Y-123255124D02*
X24775864Y-126728627D01*
X21302353Y-126728627D02*
X24775864Y-130202130D01*
X21302353Y-133675633D02*
X24775864Y-130202130D01*
X21302353Y-137149136D02*
X24775864Y-133675633D01*
X21302353Y-140622647D02*
X24775864Y-137149136D01*
X21302353Y-144096150D02*
X24775864Y-140622647D01*
X21302353Y-144096150D02*
X24775864Y-147569653D01*
X21302353Y-151043149D02*
X24775864Y-147569653D01*
X21302353Y-151043149D02*
X24775864Y-154516660D01*
X24775864Y-22523504D02*
X28249367Y-19050000D01*
X24775864Y-25997008D02*
X28249367Y-22523504D01*
X24775864Y-25997008D02*
X28249367Y-29470512D01*
X24775864Y-32944016D02*
X28249367Y-29470512D01*
X24775864Y-36417521D02*
X28249367Y-32944016D01*
X24775864Y-39891024D02*
X28249367Y-36417521D01*
X24775864Y-39891024D02*
X28249367Y-43364529D01*
X24775864Y-46838033D02*
X28249367Y-43364529D01*
X24775864Y-50311538D02*
X28249367Y-46838033D01*
X24775864Y-50311538D02*
X28249367Y-53785043D01*
X24775864Y-57258546D02*
X28249367Y-53785043D01*
X24775864Y-60732049D02*
X28249367Y-57258546D01*
X24775864Y-60732049D02*
X28249367Y-64205556D01*
X24775864Y-67679059D02*
X28249367Y-64205556D01*
X24775864Y-71152562D02*
X28249367Y-67679059D01*
X24775864Y-71152562D02*
X28249367Y-74626065D01*
X24775864Y-78099568D02*
X28249367Y-74626065D01*
X24775864Y-81573075D02*
X28249367Y-78099568D01*
X24775864Y-81573075D02*
X28249367Y-85046574D01*
X24775864Y-88520085D02*
X28249367Y-85046574D01*
X24775864Y-88520085D02*
X28249367Y-91993588D01*
X24775864Y-95467091D02*
X28249367Y-91993588D01*
X24775864Y-98940594D02*
X28249367Y-95467091D01*
X24775864Y-102414098D02*
X28249367Y-98940594D01*
X24775864Y-102414098D02*
X28249367Y-105887608D01*
X24775864Y-109361111D02*
X28249367Y-105887608D01*
X24775864Y-109361111D02*
X28249367Y-112834615D01*
X24775864Y-112834615D02*
X28249367Y-116308118D01*
X24775864Y-116308118D02*
X28249367Y-119781621D01*
X24775864Y-119781621D02*
X28249367Y-123255124D01*
X24775864Y-126728627D02*
X28249367Y-123255124D01*
X24775864Y-130202130D02*
X28249367Y-126728627D01*
X24775864Y-130202130D02*
X28249367Y-133675633D01*
X24775864Y-137149136D02*
X28249367Y-133675633D01*
X24775864Y-137149136D02*
X28249367Y-140622647D01*
X24775864Y-144096150D02*
X28249367Y-140622647D01*
X24775864Y-144096150D02*
X28249367Y-147569653D01*
X24775864Y-147569653D02*
X28249367Y-151043149D01*
X24775864Y-154516660D02*
X28249367Y-151043149D01*
X28249367Y-19050000D02*
X31722870Y-22523504D01*
X28249367Y-25997008D02*
X31722870Y-22523504D01*
X28249367Y-29470512D02*
X31722870Y-25997008D01*
X28249367Y-32944016D02*
X31722870Y-29470512D01*
X28249367Y-32944016D02*
X31722870Y-36417521D01*
X28249367Y-36417521D02*
X31722870Y-39891024D01*
X28249367Y-43364529D02*
X31722870Y-39891024D01*
X28249367Y-46838033D02*
X31722870Y-43364529D01*
X28249367Y-46838033D02*
X31722870Y-50311538D01*
X28249367Y-53785043D02*
X31722870Y-50311538D01*
X28249367Y-57258546D02*
X31722870Y-53785043D01*
X28249367Y-57258546D02*
X31722870Y-60732049D01*
X28249367Y-60732049D02*
X31722870Y-64205556D01*
X28249367Y-67679059D02*
X31722870Y-64205556D01*
X28249367Y-67679059D02*
X31722870Y-71152562D01*
X28249367Y-74626065D02*
X31722870Y-71152562D01*
X28249367Y-74626065D02*
X31722870Y-78099568D01*
X28249367Y-81573075D02*
X31722870Y-78099568D01*
X28249367Y-85046574D02*
X31722870Y-81573075D01*
X28249367Y-85046574D02*
X31722870Y-88520085D01*
X28249367Y-91993588D02*
X31722870Y-88520085D01*
X28249367Y-95467091D02*
X31722870Y-91993588D01*
X28249367Y-95467091D02*
X31722870Y-98940594D01*
X28249367Y-102414098D02*
X31722870Y-98940594D01*
X28249367Y-105887608D02*
X31722870Y-102414098D01*
X28249367Y-105887608D02*
X31722870Y-109361111D01*
X28249367Y-109361111D02*
X31722870Y-112834615D01*
X28249367Y-112834615D02*
X31722870Y-116308118D01*
X28249367Y-116308118D02*
X31722870Y-119781621D01*
X28249367Y-123255124D02*
X31722870Y-119781621D01*
X28249367Y-123255124D02*
X31722870Y-126728627D01*
X28249367Y-130202130D02*
X31722870Y-126728627D01*
X28249367Y-133675633D02*
X31722870Y-130202130D01*
X28249367Y-137149136D02*
X31722870Y-133675633D01*
X28249367Y-140622647D02*
X31722870Y-137149136D01*
X28249367Y-144096150D02*
X31722870Y-140622647D01*
X28249367Y-147569653D02*
X31722870Y-144096150D01*
X28249367Y-147569653D02*
X31722870Y-151043149D01*
X28249367Y-154516660D02*
X31722870Y-151043149D01*
X31722870Y-19050000D02*
X35196373Y-22523504D01*
X31722870Y-25997008D02*
X35196373Y-22523504D01*
X31722870Y-25997008D02*
X35196373Y-29470512D01*
X31722870Y-32944016D02*
X35196373Y-29470512D01*
X31722870Y-32944016D02*
X35196373Y-36417521D01*
X31722870Y-36417521D02*
X35196373Y-39891024D01*
X31722870Y-39891024D02*
X35196373Y-43364529D01*
X31722870Y-46838033D02*
X35196373Y-43364529D01*
X31722870Y-46838033D02*
X35196373Y-50311538D01*
X31722870Y-53785043D02*
X35196373Y-50311538D01*
X31722870Y-57258546D02*
X35196373Y-53785043D01*
X31722870Y-60732049D02*
X35196373Y-57258546D01*
X31722870Y-64205556D02*
X35196373Y-60732049D01*
X31722870Y-64205556D02*
X35196373Y-67679059D01*
X31722870Y-71152562D02*
X35196373Y-67679059D01*
X31722870Y-71152562D02*
X35196373Y-74626065D01*
X31722870Y-74626065D02*
X35196373Y-78099568D01*
X31722870Y-81573075D02*
X35196373Y-78099568D01*
X31722870Y-81573075D02*
X35196373Y-85046574D01*
X31722870Y-88520085D02*
X35196373Y-85046574D01*
X31722870Y-88520085D02*
X35196373Y-91993588D01*
X31722870Y-95467091D02*
X35196373Y-91993588D01*
X31722870Y-98940594D02*
X35196373Y-95467091D01*
X31722870Y-98940594D02*
X35196373Y-102414098D01*
X31722870Y-102414098D02*
X35196373Y-105887608D01*
X31722870Y-109361111D02*
X35196373Y-105887608D01*
X31722870Y-112834615D02*
X35196373Y-109361111D01*
X31722870Y-116308118D02*
X35196373Y-112834615D01*
X31722870Y-116308118D02*
X35196373Y-119781621D01*
X31722870Y-123255124D02*
X35196373Y-119781621D01*
X31722870Y-123255124D02*
X35196373Y-126728627D01*
X31722870Y-130202130D02*
X35196373Y-126728627D01*
X31722870Y-130202130D02*
X35196373Y-133675633D01*
X31722870Y-133675633D02*
X35196373Y-137149136D01*
X31722870Y-137149136D02*
X35196373Y-140622647D01*
X31722870Y-140622647D02*
X35196373Y-144096150D01*
X31722870Y-144096150D02*
X35196373Y-147569653D01*
X31722870Y-151043149D02*
X35196373Y-147569653D01*
X31722870Y-154516660D02*
X35196373Y-151043149D01*
X35196373Y-22523504D02*
X38669876Y-19050000D01*
X35196373Y-25997008D02*
X38669876Y-22523504D01*
X35196373Y-25997008D02*
X38669876Y-29470512D01*
X35196373Y-29470512D02*
X38669876Y-32944016D01*
X35196373Y-36417521D02*
X38669876Y-32944016D01*
X35196373Y-36417521D02*
X38669876Y-39891024D01*
X35196373Y-39891024D02*
X38669876Y-43364529D01*
X35196373Y-43364529D02*
X38669876Y-46838033D01*
X35196373Y-50311538D02*
X38669876Y-46838033D01*
X35196373Y-53785043D02*
X38669876Y-50311538D01*
X35196373Y-53785043D02*
X38669876Y-57258546D01*
X35196373Y-60732049D02*
X38669876Y-57258546D01*
X35196373Y-60732049D02*
X38669876Y-64205556D01*
X35196373Y-67679059D02*
X38669876Y-64205556D01*
X35196373Y-67679059D02*
X38669876Y-71152562D01*
X35196373Y-74626065D02*
X38669876Y-71152562D01*
X35196373Y-74626065D02*
X38669876Y-78099568D01*
X35196373Y-81573075D02*
X38669876Y-78099568D01*
X35196373Y-85046574D02*
X38669876Y-81573075D01*
X35196373Y-85046574D02*
X38669876Y-88520085D01*
X35196373Y-88520085D02*
X38669876Y-91993588D01*
X35196373Y-91993588D02*
X38669876Y-95467091D01*
X35196373Y-98940594D02*
X38669876Y-95467091D01*
X35196373Y-102414098D02*
X38669876Y-98940594D01*
X35196373Y-102414098D02*
X38669876Y-105887608D01*
X35196373Y-105887608D02*
X38669876Y-109361111D01*
X35196373Y-112834615D02*
X38669876Y-109361111D01*
X35196373Y-116308118D02*
X38669876Y-112834615D01*
X35196373Y-119781621D02*
X38669876Y-116308118D01*
X35196373Y-119781621D02*
X38669876Y-123255124D01*
X35196373Y-126728627D02*
X38669876Y-123255124D01*
X35196373Y-130202130D02*
X38669876Y-126728627D01*
X35196373Y-133675633D02*
X38669876Y-130202130D01*
X35196373Y-133675633D02*
X38669876Y-137149136D01*
X35196373Y-140622647D02*
X38669876Y-137149136D01*
X35196373Y-144096150D02*
X38669876Y-140622647D01*
X35196373Y-144096150D02*
X38669876Y-147569653D01*
X35196373Y-151043149D02*
X38669876Y-147569653D01*
X35196373Y-154516660D02*
X38669876Y-151043149D01*
X38669876Y-22523504D02*
X42143379Y-19050000D01*
X38669876Y-22523504D02*
X42143379Y-25997008D01*
X38669876Y-29470512D02*
X42143379Y-25997008D01*
X38669876Y-29470512D02*
X42143379Y-32944016D01*
X38669876Y-32944016D02*
X42143379Y-36417521D01*
X38669876Y-39891024D02*
X42143379Y-36417521D01*
X38669876Y-39891024D02*
X42143379Y-43364529D01*
X38669876Y-43364529D02*
X42143379Y-46838033D01*
X38669876Y-46838033D02*
X42143379Y-50311538D01*
X38669876Y-50311538D02*
X42143379Y-53785043D01*
X38669876Y-53785043D02*
X42143379Y-57258546D01*
X38669876Y-60732049D02*
X42143379Y-57258546D01*
X38669876Y-60732049D02*
X42143379Y-64205556D01*
X38669876Y-67679059D02*
X42143379Y-64205556D01*
X38669876Y-67679059D02*
X42143379Y-71152562D01*
X38669876Y-74626065D02*
X42143379Y-71152562D01*
X38669876Y-78099568D02*
X42143379Y-74626065D01*
X38669876Y-81573075D02*
X42143379Y-78099568D01*
X38669876Y-81573075D02*
X42143379Y-85046574D01*
X38669876Y-88520085D02*
X42143379Y-85046574D01*
X38669876Y-91993588D02*
X42143379Y-88520085D01*
X38669876Y-91993588D02*
X42143379Y-95467091D01*
X38669876Y-98940594D02*
X42143379Y-95467091D01*
X38669876Y-98940594D02*
X42143379Y-102414098D01*
X38669876Y-105887608D02*
X42143379Y-102414098D01*
X38669876Y-105887608D02*
X42143379Y-109361111D01*
X38669876Y-112834615D02*
X42143379Y-109361111D01*
X38669876Y-116308118D02*
X42143379Y-112834615D01*
X38669876Y-119781621D02*
X42143379Y-116308118D01*
X38669876Y-123255124D02*
X42143379Y-119781621D01*
X38669876Y-126728627D02*
X42143379Y-123255124D01*
X38669876Y-126728627D02*
X42143379Y-130202130D01*
X38669876Y-130202130D02*
X42143379Y-133675633D01*
X38669876Y-137149136D02*
X42143379Y-133675633D01*
X38669876Y-140622647D02*
X42143379Y-137149136D01*
X38669876Y-144096150D02*
X42143379Y-140622647D01*
X38669876Y-144096150D02*
X42143379Y-147569653D01*
X38669876Y-151043149D02*
X42143379Y-147569653D01*
X38669876Y-151043149D02*
X42143379Y-154516660D01*
X42143379Y-19050000D02*
X45616882Y-22523504D01*
X42143379Y-22523504D02*
X45616882Y-25997008D01*
X42143379Y-25997008D02*
X45616882Y-29470512D01*
X42143379Y-32944016D02*
X45616882Y-29470512D01*
X42143379Y-36417521D02*
X45616882Y-32944016D01*
X42143379Y-39891024D02*
X45616882Y-36417521D01*
X42143379Y-43364529D02*
X45616882Y-39891024D01*
X42143379Y-46838033D02*
X45616882Y-43364529D01*
X42143379Y-50311538D02*
X45616882Y-46838033D01*
X42143379Y-53785043D02*
X45616882Y-50311538D01*
X42143379Y-53785043D02*
X45616882Y-57258546D01*
X42143379Y-60732049D02*
X45616882Y-57258546D01*
X42143379Y-64205556D02*
X45616882Y-60732049D01*
X42143379Y-64205556D02*
X45616882Y-67679059D01*
X42143379Y-71152562D02*
X45616882Y-67679059D01*
X42143379Y-71152562D02*
X45616882Y-74626065D01*
X42143379Y-78099568D02*
X45616882Y-74626065D01*
X42143379Y-78099568D02*
X45616882Y-81573075D01*
X42143379Y-85046574D02*
X45616882Y-81573075D01*
X42143379Y-85046574D02*
X45616882Y-88520085D01*
X42143379Y-91993588D02*
X45616882Y-88520085D01*
X42143379Y-95467091D02*
X45616882Y-91993588D01*
X42143379Y-98940594D02*
X45616882Y-95467091D01*
X42143379Y-98940594D02*
X45616882Y-102414098D01*
X42143379Y-105887608D02*
X45616882Y-102414098D01*
X42143379Y-105887608D02*
X45616882Y-109361111D01*
X42143379Y-112834615D02*
X45616882Y-109361111D01*
X42143379Y-112834615D02*
X45616882Y-116308118D01*
X42143379Y-116308118D02*
X45616882Y-119781621D01*
X42143379Y-123255124D02*
X45616882Y-119781621D01*
X42143379Y-123255124D02*
X45616882Y-126728627D01*
X42143379Y-130202130D02*
X45616882Y-126728627D01*
X42143379Y-133675633D02*
X45616882Y-130202130D01*
X42143379Y-133675633D02*
X45616882Y-137149136D01*
X42143379Y-140622647D02*
X45616882Y-137149136D01*
X42143379Y-140622647D02*
X45616882Y-144096150D01*
X42143379Y-147569653D02*
X45616882Y-144096150D01*
X42143379Y-147569653D02*
X45616882Y-151043149D01*
X42143379Y-151043149D02*
X45616882Y-154516660D01*
X45616882Y-22523504D02*
X49090385Y-19050000D01*
X45616882Y-25997008D02*
X49090385Y-22523504D01*
X45616882Y-29470512D02*
X49090385Y-25997008D01*
X45616882Y-29470512D02*
X49090385Y-32944016D01*
X45616882Y-36417521D02*
X49090385Y-32944016D01*
X45616882Y-39891024D02*
X49090385Y-36417521D01*
X45616882Y-39891024D02*
X49090385Y-43364529D01*
X45616882Y-46838033D02*
X49090385Y-43364529D01*
X45616882Y-46838033D02*
X49090385Y-50311538D01*
X45616882Y-50311538D02*
X49090385Y-53785043D01*
X45616882Y-53785043D02*
X49090385Y-57258546D01*
X45616882Y-60732049D02*
X49090385Y-57258546D01*
X45616882Y-64205556D02*
X49090385Y-60732049D01*
X45616882Y-67679059D02*
X49090385Y-64205556D01*
X45616882Y-71152562D02*
X49090385Y-67679059D01*
X45616882Y-74626065D02*
X49090385Y-71152562D01*
X45616882Y-78099568D02*
X49090385Y-74626065D01*
X45616882Y-81573075D02*
X49090385Y-78099568D01*
X45616882Y-81573075D02*
X49090385Y-85046574D01*
X45616882Y-88520085D02*
X49090385Y-85046574D01*
X45616882Y-88520085D02*
X49090385Y-91993588D01*
X45616882Y-91993588D02*
X49090385Y-95467091D01*
X45616882Y-98940594D02*
X49090385Y-95467091D01*
X45616882Y-98940594D02*
X49090385Y-102414098D01*
X45616882Y-102414098D02*
X49090385Y-105887608D01*
X45616882Y-105887608D02*
X49090385Y-109361111D01*
X45616882Y-112834615D02*
X49090385Y-109361111D01*
X45616882Y-116308118D02*
X49090385Y-112834615D01*
X45616882Y-119781621D02*
X49090385Y-116308118D01*
X45616882Y-123255124D02*
X49090385Y-119781621D01*
X45616882Y-123255124D02*
X49090385Y-126728627D01*
X45616882Y-130202130D02*
X49090385Y-126728627D01*
X45616882Y-130202130D02*
X49090385Y-133675633D01*
X45616882Y-137149136D02*
X49090385Y-133675633D01*
X45616882Y-140622647D02*
X49090385Y-137149136D01*
X45616882Y-144096150D02*
X49090385Y-140622647D01*
X45616882Y-144096150D02*
X49090385Y-147569653D01*
X45616882Y-151043149D02*
X49090385Y-147569653D01*
X45616882Y-151043149D02*
X49090385Y-154516660D01*
X49090385Y-22523504D02*
X52563889Y-19050000D01*
X49090385Y-22523504D02*
X52563889Y-25997008D01*
X49090385Y-25997008D02*
X52563889Y-29470512D01*
X49090385Y-29470512D02*
X52563889Y-32944016D01*
X49090385Y-36417521D02*
X52563889Y-32944016D01*
X49090385Y-36417521D02*
X52563889Y-39891024D01*
X49090385Y-43364529D02*
X52563889Y-39891024D01*
X49090385Y-43364529D02*
X52563889Y-46838033D01*
X49090385Y-50311538D02*
X52563889Y-46838033D01*
X49090385Y-53785043D02*
X52563889Y-50311538D01*
X49090385Y-57258546D02*
X52563889Y-53785043D01*
X49090385Y-60732049D02*
X52563889Y-57258546D01*
X49090385Y-60732049D02*
X52563889Y-64205556D01*
X49090385Y-64205556D02*
X52563889Y-67679059D01*
X49090385Y-67679059D02*
X52563889Y-71152562D01*
X49090385Y-74626065D02*
X52563889Y-71152562D01*
X49090385Y-78099568D02*
X52563889Y-74626065D01*
X49090385Y-81573075D02*
X52563889Y-78099568D01*
X49090385Y-81573075D02*
X52563889Y-85046574D01*
X49090385Y-85046574D02*
X52563889Y-88520085D01*
X49090385Y-91993588D02*
X52563889Y-88520085D01*
X49090385Y-95467091D02*
X52563889Y-91993588D01*
X49090385Y-95467091D02*
X52563889Y-98940594D01*
X49090385Y-98940594D02*
X52563889Y-102414098D01*
X49090385Y-102414098D02*
X52563889Y-105887608D01*
X49090385Y-105887608D02*
X52563889Y-109361111D01*
X49090385Y-109361111D02*
X52563889Y-112834615D01*
X49090385Y-112834615D02*
X52563889Y-116308118D01*
X49090385Y-116308118D02*
X52563889Y-119781621D01*
X49090385Y-119781621D02*
X52563889Y-123255124D01*
X49090385Y-126728627D02*
X52563889Y-123255124D01*
X49090385Y-130202130D02*
X52563889Y-126728627D01*
X49090385Y-133675633D02*
X52563889Y-130202130D01*
X49090385Y-137149136D02*
X52563889Y-133675633D01*
X49090385Y-137149136D02*
X52563889Y-140622647D01*
X49090385Y-144096150D02*
X52563889Y-140622647D01*
X49090385Y-147569653D02*
X52563889Y-144096150D01*
X49090385Y-147569653D02*
X52563889Y-151043149D01*
X49090385Y-151043149D02*
X52563889Y-154516660D01*
X52563889Y-19050000D02*
X56037392Y-22523504D01*
X52563889Y-22523504D02*
X56037392Y-25997008D01*
X52563889Y-29470512D02*
X56037392Y-25997008D01*
X52563889Y-29470512D02*
X56037392Y-32944016D01*
X52563889Y-32944016D02*
X56037392Y-36417521D01*
X52563889Y-36417521D02*
X56037392Y-39891024D01*
X52563889Y-43364529D02*
X56037392Y-39891024D01*
X52563889Y-46838033D02*
X56037392Y-43364529D01*
X52563889Y-50311538D02*
X56037392Y-46838033D01*
X52563889Y-50311538D02*
X56037392Y-53785043D01*
X52563889Y-57258546D02*
X56037392Y-53785043D01*
X52563889Y-60732049D02*
X56037392Y-57258546D01*
X52563889Y-60732049D02*
X56037392Y-64205556D01*
X52563889Y-64205556D02*
X56037392Y-67679059D01*
X52563889Y-67679059D02*
X56037392Y-71152562D01*
X52563889Y-71152562D02*
X56037392Y-74626065D01*
X52563889Y-74626065D02*
X56037392Y-78099568D01*
X52563889Y-81573075D02*
X56037392Y-78099568D01*
X52563889Y-81573075D02*
X56037392Y-85046574D01*
X52563889Y-88520085D02*
X56037392Y-85046574D01*
X52563889Y-91993588D02*
X56037392Y-88520085D01*
X52563889Y-91993588D02*
X56037392Y-95467091D01*
X52563889Y-95467091D02*
X56037392Y-98940594D01*
X52563889Y-98940594D02*
X56037392Y-102414098D01*
X52563889Y-105887608D02*
X56037392Y-102414098D01*
X52563889Y-109361111D02*
X56037392Y-105887608D01*
X52563889Y-112834615D02*
X56037392Y-109361111D01*
X52563889Y-112834615D02*
X56037392Y-116308118D01*
X52563889Y-116308118D02*
X56037392Y-119781621D01*
X52563889Y-123255124D02*
X56037392Y-119781621D01*
X52563889Y-126728627D02*
X56037392Y-123255124D01*
X52563889Y-130202130D02*
X56037392Y-126728627D01*
X52563889Y-133675633D02*
X56037392Y-130202130D01*
X52563889Y-133675633D02*
X56037392Y-137149136D01*
X52563889Y-137149136D02*
X56037392Y-140622647D01*
X52563889Y-144096150D02*
X56037392Y-140622647D01*
X52563889Y-144096150D02*
X56037392Y-147569653D01*
X52563889Y-151043149D02*
X56037392Y-147569653D01*
X52563889Y-151043149D02*
X56037392Y-154516660D01*
X56037392Y-19050000D02*
X59510902Y-22523504D01*
X56037392Y-25997008D02*
X59510902Y-22523504D01*
X56037392Y-29470512D02*
X59510902Y-25997008D01*
X56037392Y-29470512D02*
X59510902Y-32944016D01*
X56037392Y-36417521D02*
X59510902Y-32944016D01*
X56037392Y-36417521D02*
X59510902Y-39891024D01*
X56037392Y-39891024D02*
X59510902Y-43364529D01*
X56037392Y-43364529D02*
X59510902Y-46838033D01*
X56037392Y-50311538D02*
X59510902Y-46838033D01*
X56037392Y-53785043D02*
X59510902Y-50311538D01*
X56037392Y-53785043D02*
X59510902Y-57258546D01*
X56037392Y-57258546D02*
X59510902Y-60732049D01*
X56037392Y-60732049D02*
X59510902Y-64205556D01*
X56037392Y-67679059D02*
X59510902Y-64205556D01*
X56037392Y-71152562D02*
X59510902Y-67679059D01*
X56037392Y-74626065D02*
X59510902Y-71152562D01*
X56037392Y-74626065D02*
X59510902Y-78099568D01*
X56037392Y-78099568D02*
X59510902Y-81573075D01*
X56037392Y-85046574D02*
X59510902Y-81573075D01*
X56037392Y-85046574D02*
X59510902Y-88520085D01*
X56037392Y-88520085D02*
X59510902Y-91993588D01*
X56037392Y-91993588D02*
X59510902Y-95467091D01*
X56037392Y-95467091D02*
X59510902Y-98940594D01*
X56037392Y-102414098D02*
X59510902Y-98940594D01*
X56037392Y-102414098D02*
X59510902Y-105887608D01*
X56037392Y-109361111D02*
X59510902Y-105887608D01*
X56037392Y-112834615D02*
X59510902Y-109361111D01*
X56037392Y-112834615D02*
X59510902Y-116308118D01*
X56037392Y-116308118D02*
X59510902Y-119781621D01*
X56037392Y-119781621D02*
X59510902Y-123255124D01*
X56037392Y-123255124D02*
X59510902Y-126728627D01*
X56037392Y-130202130D02*
X59510902Y-126728627D01*
X56037392Y-133675633D02*
X59510902Y-130202130D01*
X56037392Y-133675633D02*
X59510902Y-137149136D01*
X56037392Y-137149136D02*
X59510902Y-140622647D01*
X56037392Y-140622647D02*
X59510902Y-144096150D01*
X56037392Y-147569653D02*
X59510902Y-144096150D01*
X56037392Y-151043149D02*
X59510902Y-147569653D01*
X56037392Y-154516660D02*
X59510902Y-151043149D01*
X59510902Y-19050000D02*
X62984406Y-22523504D01*
X59510902Y-22523504D02*
X62984406Y-25997008D01*
X59510902Y-29470512D02*
X62984406Y-25997008D01*
X59510902Y-29470512D02*
X62984406Y-32944016D01*
X59510902Y-32944016D02*
X62984406Y-36417521D01*
X59510902Y-36417521D02*
X62984406Y-39891024D01*
X59510902Y-39891024D02*
X62984406Y-43364529D01*
X59510902Y-46838033D02*
X62984406Y-43364529D01*
X59510902Y-50311538D02*
X62984406Y-46838033D01*
X59510902Y-50311538D02*
X62984406Y-53785043D01*
X59510902Y-57258546D02*
X62984406Y-53785043D01*
X59510902Y-57258546D02*
X62984406Y-60732049D01*
X59510902Y-60732049D02*
X62984406Y-64205556D01*
X59510902Y-67679059D02*
X62984406Y-64205556D01*
X59510902Y-67679059D02*
X62984406Y-71152562D01*
X59510902Y-74626065D02*
X62984406Y-71152562D01*
X59510902Y-74626065D02*
X62984406Y-78099568D01*
X59510902Y-78099568D02*
X62984406Y-81573075D01*
X59510902Y-85046574D02*
X62984406Y-81573075D01*
X59510902Y-88520085D02*
X62984406Y-85046574D01*
X59510902Y-91993588D02*
X62984406Y-88520085D01*
X59510902Y-91993588D02*
X62984406Y-95467091D01*
X59510902Y-98940594D02*
X62984406Y-95467091D01*
X59510902Y-98940594D02*
X62984406Y-102414098D01*
X59510902Y-102414098D02*
X62984406Y-105887608D01*
X59510902Y-105887608D02*
X62984406Y-109361111D01*
X59510902Y-112834615D02*
X62984406Y-109361111D01*
X59510902Y-116308118D02*
X62984406Y-112834615D01*
X59510902Y-116308118D02*
X62984406Y-119781621D01*
X59510902Y-123255124D02*
X62984406Y-119781621D01*
X59510902Y-126728627D02*
X62984406Y-123255124D01*
X59510902Y-126728627D02*
X62984406Y-130202130D01*
X59510902Y-133675633D02*
X62984406Y-130202130D01*
X59510902Y-137149136D02*
X62984406Y-133675633D01*
X59510902Y-140622647D02*
X62984406Y-137149136D01*
X59510902Y-144096150D02*
X62984406Y-140622647D01*
X59510902Y-147569653D02*
X62984406Y-144096150D01*
X59510902Y-151043149D02*
X62984406Y-147569653D01*
X59510902Y-151043149D02*
X62984406Y-154516660D01*
X62984406Y-19050000D02*
X66457909Y-22523504D01*
X62984406Y-25997008D02*
X66457909Y-22523504D01*
X62984406Y-29470512D02*
X66457909Y-25997008D01*
X62984406Y-29470512D02*
X66457909Y-32944016D01*
X62984406Y-36417521D02*
X66457909Y-32944016D01*
X62984406Y-39891024D02*
X66457909Y-36417521D01*
X62984406Y-39891024D02*
X66457909Y-43364529D01*
X62984406Y-46838033D02*
X66457909Y-43364529D01*
X62984406Y-46838033D02*
X66457909Y-50311538D01*
X62984406Y-50311538D02*
X66457909Y-53785043D01*
X62984406Y-57258546D02*
X66457909Y-53785043D01*
X62984406Y-57258546D02*
X66457909Y-60732049D01*
X62984406Y-64205556D02*
X66457909Y-60732049D01*
X62984406Y-64205556D02*
X66457909Y-67679059D01*
X62984406Y-67679059D02*
X66457909Y-71152562D01*
X62984406Y-71152562D02*
X66457909Y-74626065D01*
X62984406Y-78099568D02*
X66457909Y-74626065D01*
X62984406Y-78099568D02*
X66457909Y-81573075D01*
X62984406Y-81573075D02*
X66457909Y-85046574D01*
X62984406Y-88520085D02*
X66457909Y-85046574D01*
X62984406Y-88520085D02*
X66457909Y-91993588D01*
X62984406Y-95467091D02*
X66457909Y-91993588D01*
X62984406Y-95467091D02*
X66457909Y-98940594D01*
X62984406Y-102414098D02*
X66457909Y-98940594D01*
X62984406Y-105887608D02*
X66457909Y-102414098D01*
X62984406Y-105887608D02*
X66457909Y-109361111D01*
X62984406Y-109361111D02*
X66457909Y-112834615D01*
X62984406Y-116308118D02*
X66457909Y-112834615D01*
X62984406Y-119781621D02*
X66457909Y-116308118D01*
X62984406Y-123255124D02*
X66457909Y-119781621D01*
X62984406Y-123255124D02*
X66457909Y-126728627D01*
X62984406Y-130202130D02*
X66457909Y-126728627D01*
X62984406Y-130202130D02*
X66457909Y-133675633D01*
X62984406Y-133675633D02*
X66457909Y-137149136D01*
X62984406Y-137149136D02*
X66457909Y-140622647D01*
X62984406Y-144096150D02*
X66457909Y-140622647D01*
X62984406Y-147569653D02*
X66457909Y-144096150D01*
X62984406Y-147569653D02*
X66457909Y-151043149D01*
X62984406Y-151043149D02*
X66457909Y-154516660D01*
X66457909Y-22523504D02*
X69931412Y-19050000D01*
X66457909Y-25997008D02*
X69931412Y-22523504D01*
X66457909Y-29470512D02*
X69931412Y-25997008D01*
X66457909Y-29470512D02*
X69931412Y-32944016D01*
X66457909Y-36417521D02*
X69931412Y-32944016D01*
X66457909Y-36417521D02*
X69931412Y-39891024D01*
X66457909Y-39891024D02*
X69931412Y-43364529D01*
X66457909Y-43364529D02*
X69931412Y-46838033D01*
X66457909Y-46838033D02*
X69931412Y-50311538D01*
X66457909Y-50311538D02*
X69931412Y-53785043D01*
X66457909Y-57258546D02*
X69931412Y-53785043D01*
X66457909Y-60732049D02*
X69931412Y-57258546D01*
X66457909Y-60732049D02*
X69931412Y-64205556D01*
X66457909Y-67679059D02*
X69931412Y-64205556D01*
X66457909Y-67679059D02*
X69931412Y-71152562D01*
X66457909Y-71152562D02*
X69931412Y-74626065D01*
X66457909Y-74626065D02*
X69931412Y-78099568D01*
X66457909Y-78099568D02*
X69931412Y-81573075D01*
X66457909Y-85046574D02*
X69931412Y-81573075D01*
X66457909Y-85046574D02*
X69931412Y-88520085D01*
X66457909Y-91993588D02*
X69931412Y-88520085D01*
X66457909Y-95467091D02*
X69931412Y-91993588D01*
X66457909Y-98940594D02*
X69931412Y-95467091D01*
X66457909Y-98940594D02*
X69931412Y-102414098D01*
X66457909Y-102414098D02*
X69931412Y-105887608D01*
X66457909Y-109361111D02*
X69931412Y-105887608D01*
X66457909Y-112834615D02*
X69931412Y-109361111D01*
X66457909Y-112834615D02*
X69931412Y-116308118D01*
X66457909Y-119781621D02*
X69931412Y-116308118D01*
X66457909Y-119781621D02*
X69931412Y-123255124D01*
X66457909Y-123255124D02*
X69931412Y-126728627D01*
X66457909Y-130202130D02*
X69931412Y-126728627D01*
X66457909Y-133675633D02*
X69931412Y-130202130D01*
X66457909Y-137149136D02*
X69931412Y-133675633D01*
X66457909Y-137149136D02*
X69931412Y-140622647D01*
X66457909Y-144096150D02*
X69931412Y-140622647D01*
X66457909Y-147569653D02*
X69931412Y-144096150D01*
X66457909Y-147569653D02*
X69931412Y-151043149D01*
X66457909Y-154516660D02*
X69931412Y-151043149D01*
X69931412Y-19050000D02*
X73404915Y-22523504D01*
X69931412Y-22523504D02*
X73404915Y-25997008D01*
X69931412Y-25997008D02*
X73404915Y-29470512D01*
X69931412Y-32944016D02*
X73404915Y-29470512D01*
X69931412Y-32944016D02*
X73404915Y-36417521D01*
X69931412Y-39891024D02*
X73404915Y-36417521D01*
X69931412Y-43364529D02*
X73404915Y-39891024D01*
X69931412Y-43364529D02*
X73404915Y-46838033D01*
X69931412Y-50311538D02*
X73404915Y-46838033D01*
X69931412Y-50311538D02*
X73404915Y-53785043D01*
X69931412Y-53785043D02*
X73404915Y-57258546D01*
X69931412Y-60732049D02*
X73404915Y-57258546D01*
X69931412Y-64205556D02*
X73404915Y-60732049D01*
X69931412Y-64205556D02*
X73404915Y-67679059D01*
X69931412Y-71152562D02*
X73404915Y-67679059D01*
X69931412Y-71152562D02*
X73404915Y-74626065D01*
X69931412Y-78099568D02*
X73404915Y-74626065D01*
X69931412Y-81573075D02*
X73404915Y-78099568D01*
X69931412Y-81573075D02*
X73404915Y-85046574D01*
X69931412Y-88520085D02*
X73404915Y-85046574D01*
X69931412Y-88520085D02*
X73404915Y-91993588D01*
X69931412Y-91993588D02*
X73404915Y-95467091D01*
X69931412Y-95467091D02*
X73404915Y-98940594D01*
X69931412Y-102414098D02*
X73404915Y-98940594D01*
X69931412Y-105887608D02*
X73404915Y-102414098D01*
X69931412Y-109361111D02*
X73404915Y-105887608D01*
X69931412Y-112834615D02*
X73404915Y-109361111D01*
X69931412Y-112834615D02*
X73404915Y-116308118D01*
X69931412Y-116308118D02*
X73404915Y-119781621D01*
X69931412Y-123255124D02*
X73404915Y-119781621D01*
X69931412Y-126728627D02*
X73404915Y-123255124D01*
X69931412Y-130202130D02*
X73404915Y-126728627D01*
X69931412Y-130202130D02*
X73404915Y-133675633D01*
X69931412Y-137149136D02*
X73404915Y-133675633D01*
X69931412Y-140622647D02*
X73404915Y-137149136D01*
X69931412Y-140622647D02*
X73404915Y-144096150D01*
X69931412Y-144096150D02*
X73404915Y-147569653D01*
X69931412Y-151043149D02*
X73404915Y-147569653D01*
X69931412Y-151043149D02*
X73404915Y-154516660D01*
X73404915Y-19050000D02*
X76878426Y-22523504D01*
X73404915Y-22523504D02*
X76878426Y-25997008D01*
X73404915Y-29470512D02*
X76878426Y-25997008D01*
X73404915Y-32944016D02*
X76878426Y-29470512D01*
X73404915Y-36417521D02*
X76878426Y-32944016D01*
X73404915Y-36417521D02*
X76878426Y-39891024D01*
X73404915Y-43364529D02*
X76878426Y-39891024D01*
X73404915Y-46838033D02*
X76878426Y-43364529D01*
X73404915Y-46838033D02*
X76878426Y-50311538D01*
X73404915Y-53785043D02*
X76878426Y-50311538D01*
X73404915Y-57258546D02*
X76878426Y-53785043D01*
X73404915Y-60732049D02*
X76878426Y-57258546D01*
X73404915Y-64205556D02*
X76878426Y-60732049D01*
X73404915Y-67679059D02*
X76878426Y-64205556D01*
X73404915Y-71152562D02*
X76878426Y-67679059D01*
X73404915Y-74626065D02*
X76878426Y-71152562D01*
X73404915Y-74626065D02*
X76878426Y-78099568D01*
X73404915Y-81573075D02*
X76878426Y-78099568D01*
X73404915Y-85046574D02*
X76878426Y-81573075D01*
X73404915Y-88520085D02*
X76878426Y-85046574D01*
X73404915Y-88520085D02*
X76878426Y-91993588D01*
X73404915Y-95467091D02*
X76878426Y-91993588D01*
X73404915Y-98940594D02*
X76878426Y-95467091D01*
X73404915Y-98940594D02*
X76878426Y-102414098D01*
X73404915Y-102414098D02*
X76878426Y-105887608D01*
X73404915Y-105887608D02*
X76878426Y-109361111D01*
X73404915Y-112834615D02*
X76878426Y-109361111D01*
X73404915Y-112834615D02*
X76878426Y-116308118D01*
X73404915Y-116308118D02*
X76878426Y-119781621D01*
X73404915Y-123255124D02*
X76878426Y-119781621D01*
X73404915Y-126728627D02*
X76878426Y-123255124D01*
X73404915Y-126728627D02*
X76878426Y-130202130D01*
X73404915Y-133675633D02*
X76878426Y-130202130D01*
X73404915Y-133675633D02*
X76878426Y-137149136D01*
X73404915Y-137149136D02*
X76878426Y-140622647D01*
X73404915Y-140622647D02*
X76878426Y-144096150D01*
X73404915Y-144096150D02*
X76878426Y-147569653D01*
X73404915Y-147569653D02*
X76878426Y-151043149D01*
X73404915Y-154516660D02*
X76878426Y-151043149D01*
X76878426Y-19050000D02*
X80351925Y-22523504D01*
X76878426Y-25997008D02*
X80351925Y-22523504D01*
X76878426Y-25997008D02*
X80351925Y-29470512D01*
X76878426Y-29470512D02*
X80351925Y-32944016D01*
X76878426Y-36417521D02*
X80351925Y-32944016D01*
X76878426Y-39891024D02*
X80351925Y-36417521D01*
X76878426Y-39891024D02*
X80351925Y-43364529D01*
X76878426Y-43364529D02*
X80351925Y-46838033D01*
X76878426Y-50311538D02*
X80351925Y-46838033D01*
X76878426Y-53785043D02*
X80351925Y-50311538D01*
X76878426Y-57258546D02*
X80351925Y-53785043D01*
X76878426Y-57258546D02*
X80351925Y-60732049D01*
X76878426Y-60732049D02*
X80351925Y-64205556D01*
X76878426Y-64205556D02*
X80351925Y-67679059D01*
X76878426Y-67679059D02*
X80351925Y-71152562D01*
X76878426Y-71152562D02*
X80351925Y-74626065D01*
X76878426Y-74626065D02*
X80351925Y-78099568D01*
X76878426Y-81573075D02*
X80351925Y-78099568D01*
X76878426Y-81573075D02*
X80351925Y-85046574D01*
X76878426Y-85046574D02*
X80351925Y-88520085D01*
X76878426Y-91993588D02*
X80351925Y-88520085D01*
X76878426Y-91993588D02*
X80351925Y-95467091D01*
X76878426Y-95467091D02*
X80351925Y-98940594D01*
X76878426Y-102414098D02*
X80351925Y-98940594D01*
X76878426Y-105887608D02*
X80351925Y-102414098D01*
X76878426Y-109361111D02*
X80351925Y-105887608D01*
X76878426Y-109361111D02*
X80351925Y-112834615D01*
X76878426Y-112834615D02*
X80351925Y-116308118D01*
X76878426Y-119781621D02*
X80351925Y-116308118D01*
X76878426Y-123255124D02*
X80351925Y-119781621D01*
X76878426Y-126728627D02*
X80351925Y-123255124D01*
X76878426Y-130202130D02*
X80351925Y-126728627D01*
X76878426Y-130202130D02*
X80351925Y-133675633D01*
X76878426Y-133675633D02*
X80351925Y-137149136D01*
X76878426Y-137149136D02*
X80351925Y-140622647D01*
X76878426Y-144096150D02*
X80351925Y-140622647D01*
X76878426Y-147569653D02*
X80351925Y-144096150D01*
X76878426Y-151043149D02*
X80351925Y-147569653D01*
X76878426Y-154516660D02*
X80351925Y-151043149D01*
X80351925Y-19050000D02*
X83825432Y-22523504D01*
X80351925Y-25997008D02*
X83825432Y-22523504D01*
X80351925Y-29470512D02*
X83825432Y-25997008D01*
X80351925Y-29470512D02*
X83825432Y-32944016D01*
X80351925Y-36417521D02*
X83825432Y-32944016D01*
X80351925Y-36417521D02*
X83825432Y-39891024D01*
X80351925Y-39891024D02*
X83825432Y-43364529D01*
X80351925Y-43364529D02*
X83825432Y-46838033D01*
X80351925Y-50311538D02*
X83825432Y-46838033D01*
X80351925Y-53785043D02*
X83825432Y-50311538D01*
X80351925Y-53785043D02*
X83825432Y-57258546D01*
X80351925Y-57258546D02*
X83825432Y-60732049D01*
X80351925Y-64205556D02*
X83825432Y-60732049D01*
X80351925Y-67679059D02*
X83825432Y-64205556D01*
X80351925Y-71152562D02*
X83825432Y-67679059D01*
X80351925Y-71152562D02*
X83825432Y-74626065D01*
X80351925Y-74626065D02*
X83825432Y-78099568D01*
X80351925Y-78099568D02*
X83825432Y-81573075D01*
X80351925Y-85046574D02*
X83825432Y-81573075D01*
X80351925Y-88520085D02*
X83825432Y-85046574D01*
X80351925Y-88520085D02*
X83825432Y-91993588D01*
X80351925Y-91993588D02*
X83825432Y-95467091D01*
X80351925Y-98940594D02*
X83825432Y-95467091D01*
X80351925Y-102414098D02*
X83825432Y-98940594D01*
X80351925Y-102414098D02*
X83825432Y-105887608D01*
X80351925Y-105887608D02*
X83825432Y-109361111D01*
X80351925Y-109361111D02*
X83825432Y-112834615D01*
X80351925Y-112834615D02*
X83825432Y-116308118D01*
X80351925Y-116308118D02*
X83825432Y-119781621D01*
X80351925Y-119781621D02*
X83825432Y-123255124D01*
X80351925Y-126728627D02*
X83825432Y-123255124D01*
X80351925Y-130202130D02*
X83825432Y-126728627D01*
X80351925Y-133675633D02*
X83825432Y-130202130D01*
X80351925Y-133675633D02*
X83825432Y-137149136D01*
X80351925Y-140622647D02*
X83825432Y-137149136D01*
X80351925Y-144096150D02*
X83825432Y-140622647D01*
X80351925Y-144096150D02*
X83825432Y-147569653D01*
X80351925Y-147569653D02*
X83825432Y-151043149D01*
X80351925Y-151043149D02*
X83825432Y-154516660D01*
X83825432Y-19050000D02*
X87298935Y-22523504D01*
X83825432Y-25997008D02*
X87298935Y-22523504D01*
X83825432Y-29470512D02*
X87298935Y-25997008D01*
X83825432Y-29470512D02*
X87298935Y-32944016D01*
X83825432Y-36417521D02*
X87298935Y-32944016D01*
X83825432Y-36417521D02*
X87298935Y-39891024D01*
X83825432Y-43364529D02*
X87298935Y-39891024D01*
X83825432Y-46838033D02*
X87298935Y-43364529D01*
X83825432Y-46838033D02*
X87298935Y-50311538D01*
X83825432Y-53785043D02*
X87298935Y-50311538D01*
X83825432Y-53785043D02*
X87298935Y-57258546D01*
X83825432Y-57258546D02*
X87298935Y-60732049D01*
X83825432Y-60732049D02*
X87298935Y-64205556D01*
X83825432Y-64205556D02*
X87298935Y-67679059D01*
X83825432Y-67679059D02*
X87298935Y-71152562D01*
X83825432Y-71152562D02*
X87298935Y-74626065D01*
X83825432Y-78099568D02*
X87298935Y-74626065D01*
X83825432Y-81573075D02*
X87298935Y-78099568D01*
X83825432Y-81573075D02*
X87298935Y-85046574D01*
X83825432Y-88520085D02*
X87298935Y-85046574D01*
X83825432Y-91993588D02*
X87298935Y-88520085D01*
X83825432Y-91993588D02*
X87298935Y-95467091D01*
X83825432Y-95467091D02*
X87298935Y-98940594D01*
X83825432Y-98940594D02*
X87298935Y-102414098D01*
X83825432Y-102414098D02*
X87298935Y-105887608D01*
X83825432Y-105887608D02*
X87298935Y-109361111D01*
X83825432Y-112834615D02*
X87298935Y-109361111D01*
X83825432Y-112834615D02*
X87298935Y-116308118D01*
X83825432Y-119781621D02*
X87298935Y-116308118D01*
X83825432Y-119781621D02*
X87298935Y-123255124D01*
X83825432Y-123255124D02*
X87298935Y-126728627D01*
X83825432Y-130202130D02*
X87298935Y-126728627D01*
X83825432Y-130202130D02*
X87298935Y-133675633D01*
X83825432Y-137149136D02*
X87298935Y-133675633D01*
X83825432Y-137149136D02*
X87298935Y-140622647D01*
X83825432Y-144096150D02*
X87298935Y-140622647D01*
X83825432Y-144096150D02*
X87298935Y-147569653D01*
X83825432Y-147569653D02*
X87298935Y-151043149D01*
X83825432Y-151043149D02*
X87298935Y-154516660D01*
X87298935Y-22523504D02*
X90772438Y-19050000D01*
X87298935Y-22523504D02*
X90772438Y-25997008D01*
X87298935Y-25997008D02*
X90772438Y-29470512D01*
X87298935Y-29470512D02*
X90772438Y-32944016D01*
X87298935Y-32944016D02*
X90772438Y-36417521D01*
X87298935Y-39891024D02*
X90772438Y-36417521D01*
X87298935Y-43364529D02*
X90772438Y-39891024D01*
X87298935Y-43364529D02*
X90772438Y-46838033D01*
X87298935Y-50311538D02*
X90772438Y-46838033D01*
X87298935Y-53785043D02*
X90772438Y-50311538D01*
X87298935Y-57258546D02*
X90772438Y-53785043D01*
X87298935Y-60732049D02*
X90772438Y-57258546D01*
X87298935Y-60732049D02*
X90772438Y-64205556D01*
X87298935Y-67679059D02*
X90772438Y-64205556D01*
X87298935Y-67679059D02*
X90772438Y-71152562D01*
X87298935Y-71152562D02*
X90772438Y-74626065D01*
X87298935Y-74626065D02*
X90772438Y-78099568D01*
X87298935Y-78099568D02*
X90772438Y-81573075D01*
X87298935Y-81573075D02*
X90772438Y-85046574D01*
X87298935Y-88520085D02*
X90772438Y-85046574D01*
X87298935Y-88520085D02*
X90772438Y-91993588D01*
X87298935Y-91993588D02*
X90772438Y-95467091D01*
X87298935Y-95467091D02*
X90772438Y-98940594D01*
X87298935Y-98940594D02*
X90772438Y-102414098D01*
X87298935Y-102414098D02*
X90772438Y-105887608D01*
X87298935Y-109361111D02*
X90772438Y-105887608D01*
X87298935Y-112834615D02*
X90772438Y-109361111D01*
X87298935Y-112834615D02*
X90772438Y-116308118D01*
X87298935Y-119781621D02*
X90772438Y-116308118D01*
X87298935Y-123255124D02*
X90772438Y-119781621D01*
X87298935Y-123255124D02*
X90772438Y-126728627D01*
X87298935Y-126728627D02*
X90772438Y-130202130D01*
X87298935Y-130202130D02*
X90772438Y-133675633D01*
X87298935Y-133675633D02*
X90772438Y-137149136D01*
X87298935Y-140622647D02*
X90772438Y-137149136D01*
X87298935Y-144096150D02*
X90772438Y-140622647D01*
X87298935Y-144096150D02*
X90772438Y-147569653D01*
X87298935Y-151043149D02*
X90772438Y-147569653D01*
X87298935Y-151043149D02*
X90772438Y-154516660D01*
X90772438Y-19050000D02*
X94245941Y-22523504D01*
X90772438Y-22523504D02*
X94245941Y-25997008D01*
X90772438Y-25997008D02*
X94245941Y-29470512D01*
X90772438Y-32944016D02*
X94245941Y-29470512D01*
X90772438Y-36417521D02*
X94245941Y-32944016D01*
X90772438Y-36417521D02*
X94245941Y-39891024D01*
X90772438Y-39891024D02*
X94245941Y-43364529D01*
X90772438Y-46838033D02*
X94245941Y-43364529D01*
X90772438Y-50311538D02*
X94245941Y-46838033D01*
X90772438Y-53785043D02*
X94245941Y-50311538D01*
X90772438Y-57258546D02*
X94245941Y-53785043D01*
X90772438Y-60732049D02*
X94245941Y-57258546D01*
X90772438Y-60732049D02*
X94245941Y-64205556D01*
X90772438Y-67679059D02*
X94245941Y-64205556D01*
X90772438Y-67679059D02*
X94245941Y-71152562D01*
X90772438Y-74626065D02*
X94245941Y-71152562D01*
X90772438Y-74626065D02*
X94245941Y-78099568D01*
X90772438Y-78099568D02*
X94245941Y-81573075D01*
X90772438Y-81573075D02*
X94245941Y-85046574D01*
X90772438Y-85046574D02*
X94245941Y-88520085D01*
X90772438Y-88520085D02*
X94245941Y-91993588D01*
X90772438Y-95467091D02*
X94245941Y-91993588D01*
X90772438Y-95467091D02*
X94245941Y-98940594D01*
X90772438Y-102414098D02*
X94245941Y-98940594D01*
X90772438Y-102414098D02*
X94245941Y-105887608D01*
X90772438Y-105887608D02*
X94245941Y-109361111D01*
X90772438Y-112834615D02*
X94245941Y-109361111D01*
X90772438Y-112834615D02*
X94245941Y-116308118D01*
X90772438Y-119781621D02*
X94245941Y-116308118D01*
X90772438Y-119781621D02*
X94245941Y-123255124D01*
X90772438Y-123255124D02*
X94245941Y-126728627D01*
X90772438Y-130202130D02*
X94245941Y-126728627D01*
X90772438Y-133675633D02*
X94245941Y-130202130D01*
X90772438Y-133675633D02*
X94245941Y-137149136D01*
X90772438Y-137149136D02*
X94245941Y-140622647D01*
X90772438Y-144096150D02*
X94245941Y-140622647D01*
X90772438Y-147569653D02*
X94245941Y-144096150D01*
X90772438Y-147569653D02*
X94245941Y-151043149D01*
X90772438Y-151043149D02*
X94245941Y-154516660D01*
X94245941Y-19050000D02*
X97719444Y-22523504D01*
X94245941Y-22523504D02*
X97719444Y-25997008D01*
X94245941Y-29470512D02*
X97719444Y-25997008D01*
X94245941Y-29470512D02*
X97719444Y-32944016D01*
X94245941Y-36417521D02*
X97719444Y-32944016D01*
X94245941Y-36417521D02*
X97719444Y-39891024D01*
X94245941Y-43364529D02*
X97719444Y-39891024D01*
X94245941Y-46838033D02*
X97719444Y-43364529D01*
X94245941Y-50311538D02*
X97719444Y-46838033D01*
X94245941Y-50311538D02*
X97719444Y-53785043D01*
X94245941Y-57258546D02*
X97719444Y-53785043D01*
X94245941Y-60732049D02*
X97719444Y-57258546D01*
X94245941Y-64205556D02*
X97719444Y-60732049D01*
X94245941Y-67679059D02*
X97719444Y-64205556D01*
X94245941Y-67679059D02*
X97719444Y-71152562D01*
X94245941Y-74626065D02*
X97719444Y-71152562D01*
X94245941Y-78099568D02*
X97719444Y-74626065D01*
X94245941Y-78099568D02*
X97719444Y-81573075D01*
X94245941Y-85046574D02*
X97719444Y-81573075D01*
X94245941Y-88520085D02*
X97719444Y-85046574D01*
X94245941Y-91993588D02*
X97719444Y-88520085D01*
X94245941Y-91993588D02*
X97719444Y-95467091D01*
X94245941Y-98940594D02*
X97719444Y-95467091D01*
X94245941Y-98940594D02*
X97719444Y-102414098D01*
X94245941Y-102414098D02*
X97719444Y-105887608D01*
X94245941Y-109361111D02*
X97719444Y-105887608D01*
X94245941Y-109361111D02*
X97719444Y-112834615D01*
X94245941Y-116308118D02*
X97719444Y-112834615D01*
X94245941Y-116308118D02*
X97719444Y-119781621D01*
X94245941Y-119781621D02*
X97719444Y-123255124D01*
X94245941Y-123255124D02*
X97719444Y-126728627D01*
X94245941Y-130202130D02*
X97719444Y-126728627D01*
X94245941Y-130202130D02*
X97719444Y-133675633D01*
X94245941Y-133675633D02*
X97719444Y-137149136D01*
X94245941Y-140622647D02*
X97719444Y-137149136D01*
X94245941Y-144096150D02*
X97719444Y-140622647D01*
X94245941Y-147569653D02*
X97719444Y-144096150D01*
X94245941Y-147569653D02*
X97719444Y-151043149D01*
X94245941Y-151043149D02*
X97719444Y-154516660D01*
X97719444Y-22523504D02*
X101192951Y-19050000D01*
X97719444Y-22523504D02*
X101192951Y-25997008D01*
X97719444Y-25997008D02*
X101192951Y-29470512D01*
X97719444Y-29470512D02*
X101192951Y-32944016D01*
X97719444Y-36417521D02*
X101192951Y-32944016D01*
X97719444Y-36417521D02*
X101192951Y-39891024D01*
X97719444Y-39891024D02*
X101192951Y-43364529D01*
X97719444Y-46838033D02*
X101192951Y-43364529D01*
X97719444Y-46838033D02*
X101192951Y-50311538D01*
X97719444Y-50311538D02*
X101192951Y-53785043D01*
X97719444Y-53785043D02*
X101192951Y-57258546D01*
X97719444Y-60732049D02*
X101192951Y-57258546D01*
X97719444Y-64205556D02*
X101192951Y-60732049D01*
X97719444Y-67679059D02*
X101192951Y-64205556D01*
X97719444Y-71152562D02*
X101192951Y-67679059D01*
X97719444Y-71152562D02*
X101192951Y-74626065D01*
X97719444Y-78099568D02*
X101192951Y-74626065D01*
X97719444Y-81573075D02*
X101192951Y-78099568D01*
X97719444Y-85046574D02*
X101192951Y-81573075D01*
X97719444Y-85046574D02*
X101192951Y-88520085D01*
X97719444Y-91993588D02*
X101192951Y-88520085D01*
X97719444Y-95467091D02*
X101192951Y-91993588D01*
X97719444Y-95467091D02*
X101192951Y-98940594D01*
X97719444Y-102414098D02*
X101192951Y-98940594D01*
X97719444Y-105887608D02*
X101192951Y-102414098D01*
X97719444Y-105887608D02*
X101192951Y-109361111D01*
X97719444Y-109361111D02*
X101192951Y-112834615D01*
X97719444Y-112834615D02*
X101192951Y-116308118D01*
X97719444Y-119781621D02*
X101192951Y-116308118D01*
X97719444Y-119781621D02*
X101192951Y-123255124D01*
X97719444Y-126728627D02*
X101192951Y-123255124D01*
X97719444Y-126728627D02*
X101192951Y-130202130D01*
X97719444Y-133675633D02*
X101192951Y-130202130D01*
X97719444Y-137149136D02*
X101192951Y-133675633D01*
X97719444Y-137149136D02*
X101192951Y-140622647D01*
X97719444Y-140622647D02*
X101192951Y-144096150D01*
X97719444Y-144096150D02*
X101192951Y-147569653D01*
X97719444Y-151043149D02*
X101192951Y-147569653D01*
X97719444Y-154516660D02*
X101192951Y-151043149D01*
X101192951Y-22523504D02*
X104666454Y-19050000D01*
X101192951Y-22523504D02*
X104666454Y-25997008D01*
X101192951Y-29470512D02*
X104666454Y-25997008D01*
X101192951Y-32944016D02*
X104666454Y-29470512D01*
X101192951Y-32944016D02*
X104666454Y-36417521D01*
X101192951Y-39891024D02*
X104666454Y-36417521D01*
X101192951Y-43364529D02*
X104666454Y-39891024D01*
X101192951Y-43364529D02*
X104666454Y-46838033D01*
X101192951Y-50311538D02*
X104666454Y-46838033D01*
X101192951Y-53785043D02*
X104666454Y-50311538D01*
X101192951Y-53785043D02*
X104666454Y-57258546D01*
X101192951Y-60732049D02*
X104666454Y-57258546D01*
X101192951Y-60732049D02*
X104666454Y-64205556D01*
X101192951Y-67679059D02*
X104666454Y-64205556D01*
X101192951Y-67679059D02*
X104666454Y-71152562D01*
X101192951Y-71152562D02*
X104666454Y-74626065D01*
X101192951Y-74626065D02*
X104666454Y-78099568D01*
X101192951Y-81573075D02*
X104666454Y-78099568D01*
X101192951Y-85046574D02*
X104666454Y-81573075D01*
X101192951Y-88520085D02*
X104666454Y-85046574D01*
X101192951Y-91993588D02*
X104666454Y-88520085D01*
X101192951Y-91993588D02*
X104666454Y-95467091D01*
X101192951Y-98940594D02*
X104666454Y-95467091D01*
X101192951Y-98940594D02*
X104666454Y-102414098D01*
X101192951Y-105887608D02*
X104666454Y-102414098D01*
X101192951Y-109361111D02*
X104666454Y-105887608D01*
X101192951Y-109361111D02*
X104666454Y-112834615D01*
X101192951Y-116308118D02*
X104666454Y-112834615D01*
X101192951Y-116308118D02*
X104666454Y-119781621D01*
X101192951Y-119781621D02*
X104666454Y-123255124D01*
X101192951Y-123255124D02*
X104666454Y-126728627D01*
X101192951Y-126728627D02*
X104666454Y-130202130D01*
X101192951Y-133675633D02*
X104666454Y-130202130D01*
X101192951Y-133675633D02*
X104666454Y-137149136D01*
X101192951Y-140622647D02*
X104666454Y-137149136D01*
X101192951Y-144096150D02*
X104666454Y-140622647D01*
X101192951Y-144096150D02*
X104666454Y-147569653D01*
X101192951Y-147569653D02*
X104666454Y-151043149D01*
X101192951Y-154516660D02*
X104666454Y-151043149D01*
X104666454Y-22523504D02*
X108139957Y-19050000D01*
X104666454Y-22523504D02*
X108139957Y-25997008D01*
X104666454Y-25997008D02*
X108139957Y-29470512D01*
X104666454Y-32944016D02*
X108139957Y-29470512D01*
X104666454Y-32944016D02*
X108139957Y-36417521D01*
X104666454Y-39891024D02*
X108139957Y-36417521D01*
X104666454Y-43364529D02*
X108139957Y-39891024D01*
X104666454Y-46838033D02*
X108139957Y-43364529D01*
X104666454Y-50311538D02*
X108139957Y-46838033D01*
X104666454Y-53785043D02*
X108139957Y-50311538D01*
X104666454Y-57258546D02*
X108139957Y-53785043D01*
X104666454Y-60732049D02*
X108139957Y-57258546D01*
X104666454Y-64205556D02*
X108139957Y-60732049D01*
X104666454Y-64205556D02*
X108139957Y-67679059D01*
X104666454Y-67679059D02*
X108139957Y-71152562D01*
X104666454Y-74626065D02*
X108139957Y-71152562D01*
X104666454Y-74626065D02*
X108139957Y-78099568D01*
X104666454Y-78099568D02*
X108139957Y-81573075D01*
X104666454Y-85046574D02*
X108139957Y-81573075D01*
X104666454Y-85046574D02*
X108139957Y-88520085D01*
X104666454Y-91993588D02*
X108139957Y-88520085D01*
X104666454Y-91993588D02*
X108139957Y-95467091D01*
X104666454Y-95467091D02*
X108139957Y-98940594D01*
X104666454Y-98940594D02*
X108139957Y-102414098D01*
X104666454Y-102414098D02*
X108139957Y-105887608D01*
X104666454Y-109361111D02*
X108139957Y-105887608D01*
X104666454Y-112834615D02*
X108139957Y-109361111D01*
X104666454Y-112834615D02*
X108139957Y-116308118D01*
X104666454Y-116308118D02*
X108139957Y-119781621D01*
X104666454Y-123255124D02*
X108139957Y-119781621D01*
X104666454Y-123255124D02*
X108139957Y-126728627D01*
X104666454Y-130202130D02*
X108139957Y-126728627D01*
X104666454Y-130202130D02*
X108139957Y-133675633D01*
X104666454Y-133675633D02*
X108139957Y-137149136D01*
X104666454Y-140622647D02*
X108139957Y-137149136D01*
X104666454Y-140622647D02*
X108139957Y-144096150D01*
X104666454Y-147569653D02*
X108139957Y-144096150D01*
X104666454Y-147569653D02*
X108139957Y-151043149D01*
X104666454Y-154516660D02*
X108139957Y-151043149D01*
X108139957Y-19050000D02*
X111613462Y-22523504D01*
X108139957Y-25997008D02*
X111613462Y-22523504D01*
X108139957Y-25997008D02*
X111613462Y-29470512D01*
X108139957Y-32944016D02*
X111613462Y-29470512D01*
X108139957Y-36417521D02*
X111613462Y-32944016D01*
X108139957Y-36417521D02*
X111613462Y-39891024D01*
X108139957Y-43364529D02*
X111613462Y-39891024D01*
X108139957Y-43364529D02*
X111613462Y-46838033D01*
X108139957Y-46838033D02*
X111613462Y-50311538D01*
X108139957Y-50311538D02*
X111613462Y-53785043D01*
X108139957Y-53785043D02*
X111613462Y-57258546D01*
X108139957Y-57258546D02*
X111613462Y-60732049D01*
X108139957Y-64205556D02*
X111613462Y-60732049D01*
X108139957Y-67679059D02*
X111613462Y-64205556D01*
X108139957Y-67679059D02*
X111613462Y-71152562D01*
X108139957Y-74626065D02*
X111613462Y-71152562D01*
X108139957Y-74626065D02*
X111613462Y-78099568D01*
X108139957Y-81573075D02*
X111613462Y-78099568D01*
X108139957Y-81573075D02*
X111613462Y-85046574D01*
X108139957Y-88520085D02*
X111613462Y-85046574D01*
X108139957Y-91993588D02*
X111613462Y-88520085D01*
X108139957Y-91993588D02*
X111613462Y-95467091D01*
X108139957Y-98940594D02*
X111613462Y-95467091D01*
X108139957Y-98940594D02*
X111613462Y-102414098D01*
X108139957Y-102414098D02*
X111613462Y-105887608D01*
X108139957Y-109361111D02*
X111613462Y-105887608D01*
X108139957Y-109361111D02*
X111613462Y-112834615D01*
X108139957Y-116308118D02*
X111613462Y-112834615D01*
X108139957Y-119781621D02*
X111613462Y-116308118D01*
X108139957Y-119781621D02*
X111613462Y-123255124D01*
X108139957Y-123255124D02*
X111613462Y-126728627D01*
X108139957Y-130202130D02*
X111613462Y-126728627D01*
X108139957Y-133675633D02*
X111613462Y-130202130D01*
X108139957Y-133675633D02*
X111613462Y-137149136D01*
X108139957Y-137149136D02*
X111613462Y-140622647D01*
X108139957Y-144096150D02*
X111613462Y-140622647D01*
X108139957Y-147569653D02*
X111613462Y-144096150D01*
X108139957Y-151043149D02*
X111613462Y-147569653D01*
X108139957Y-154516660D02*
X111613462Y-151043149D01*
X111613462Y-22523504D02*
X115086967Y-19050000D01*
X111613462Y-25997008D02*
X115086967Y-22523504D01*
X111613462Y-25997008D02*
X115086967Y-29470512D01*
X111613462Y-29470512D02*
X115086967Y-32944016D01*
X111613462Y-36417521D02*
X115086967Y-32944016D01*
X111613462Y-39891024D02*
X115086967Y-36417521D01*
X111613462Y-43364529D02*
X115086967Y-39891024D01*
X111613462Y-43364529D02*
X115086967Y-46838033D01*
X111613462Y-50311538D02*
X115086967Y-46838033D01*
X111613462Y-50311538D02*
X115086967Y-53785043D01*
X111613462Y-57258546D02*
X115086967Y-53785043D01*
X111613462Y-57258546D02*
X115086967Y-60732049D01*
X111613462Y-64205556D02*
X115086967Y-60732049D01*
X111613462Y-64205556D02*
X115086967Y-67679059D01*
X111613462Y-71152562D02*
X115086967Y-67679059D01*
X111613462Y-74626065D02*
X115086967Y-71152562D01*
X111613462Y-78099568D02*
X115086967Y-74626065D01*
X111613462Y-81573075D02*
X115086967Y-78099568D01*
X111613462Y-85046574D02*
X115086967Y-81573075D01*
X111613462Y-85046574D02*
X115086967Y-88520085D01*
X111613462Y-91993588D02*
X115086967Y-88520085D01*
X111613462Y-95467091D02*
X115086967Y-91993588D01*
X111613462Y-98940594D02*
X115086967Y-95467091D01*
X111613462Y-102414098D02*
X115086967Y-98940594D01*
X111613462Y-102414098D02*
X115086967Y-105887608D01*
X111613462Y-109361111D02*
X115086967Y-105887608D01*
X111613462Y-112834615D02*
X115086967Y-109361111D01*
X111613462Y-116308118D02*
X115086967Y-112834615D01*
X111613462Y-119781621D02*
X115086967Y-116308118D01*
X111613462Y-123255124D02*
X115086967Y-119781621D01*
X111613462Y-123255124D02*
X115086967Y-126728627D01*
X111613462Y-126728627D02*
X115086967Y-130202130D01*
X111613462Y-133675633D02*
X115086967Y-130202130D01*
X111613462Y-137149136D02*
X115086967Y-133675633D01*
X111613462Y-137149136D02*
X115086967Y-140622647D01*
X111613462Y-144096150D02*
X115086967Y-140622647D01*
X111613462Y-147569653D02*
X115086967Y-144096150D01*
X111613462Y-147569653D02*
X115086967Y-151043149D01*
X111613462Y-154516660D02*
X115086967Y-151043149D01*
X115086967Y-22523504D02*
X118560471Y-19050000D01*
X115086967Y-25997008D02*
X118560471Y-22523504D01*
X115086967Y-29470512D02*
X118560471Y-25997008D01*
X115086967Y-29470512D02*
X118560471Y-32944016D01*
X115086967Y-32944016D02*
X118560471Y-36417521D01*
X115086967Y-39891024D02*
X118560471Y-36417521D01*
X115086967Y-43364529D02*
X118560471Y-39891024D01*
X115086967Y-46838033D02*
X118560471Y-43364529D01*
X115086967Y-46838033D02*
X118560471Y-50311538D01*
X115086967Y-50311538D02*
X118560471Y-53785043D01*
X115086967Y-53785043D02*
X118560471Y-57258546D01*
X115086967Y-57258546D02*
X118560471Y-60732049D01*
X115086967Y-60732049D02*
X118560471Y-64205556D01*
X115086967Y-67679059D02*
X118560471Y-64205556D01*
X115086967Y-71152562D02*
X118560471Y-67679059D01*
X115086967Y-71152562D02*
X118560471Y-74626065D01*
X115086967Y-78099568D02*
X118560471Y-74626065D01*
X115086967Y-78099568D02*
X118560471Y-81573075D01*
X115086967Y-81573075D02*
X118560471Y-85046574D01*
X115086967Y-85046574D02*
X118560471Y-88520085D01*
X115086967Y-91993588D02*
X118560471Y-88520085D01*
X115086967Y-91993588D02*
X118560471Y-95467091D01*
X115086967Y-95467091D02*
X118560471Y-98940594D01*
X115086967Y-98940594D02*
X118560471Y-102414098D01*
X115086967Y-105887608D02*
X118560471Y-102414098D01*
X115086967Y-109361111D02*
X118560471Y-105887608D01*
X115086967Y-109361111D02*
X118560471Y-112834615D01*
X115086967Y-112834615D02*
X118560471Y-116308118D01*
X115086967Y-116308118D02*
X118560471Y-119781621D01*
X115086967Y-123255124D02*
X118560471Y-119781621D01*
X115086967Y-126728627D02*
X118560471Y-123255124D01*
X115086967Y-130202130D02*
X118560471Y-126728627D01*
X115086967Y-130202130D02*
X118560471Y-133675633D01*
X115086967Y-137149136D02*
X118560471Y-133675633D01*
X115086967Y-140622647D02*
X118560471Y-137149136D01*
X115086967Y-140622647D02*
X118560471Y-144096150D01*
X115086967Y-147569653D02*
X118560471Y-144096150D01*
X115086967Y-147569653D02*
X118560471Y-151043149D01*
X115086967Y-151043149D02*
X118560471Y-154516660D01*
X118560471Y-22523504D02*
X122033976Y-19050000D01*
X118560471Y-22523504D02*
X122033976Y-25997008D01*
X118560471Y-25997008D02*
X122033976Y-29470512D01*
X118560471Y-32944016D02*
X122033976Y-29470512D01*
X118560471Y-36417521D02*
X122033976Y-32944016D01*
X118560471Y-36417521D02*
X122033976Y-39891024D01*
X118560471Y-39891024D02*
X122033976Y-43364529D01*
X118560471Y-43364529D02*
X122033976Y-46838033D01*
X118560471Y-46838033D02*
X122033976Y-50311538D01*
X118560471Y-53785043D02*
X122033976Y-50311538D01*
X118560471Y-57258546D02*
X122033976Y-53785043D01*
X118560471Y-60732049D02*
X122033976Y-57258546D01*
X118560471Y-64205556D02*
X122033976Y-60732049D01*
X118560471Y-64205556D02*
X122033976Y-67679059D01*
X118560471Y-67679059D02*
X122033976Y-71152562D01*
X118560471Y-74626065D02*
X122033976Y-71152562D01*
X118560471Y-74626065D02*
X122033976Y-78099568D01*
X118560471Y-81573075D02*
X122033976Y-78099568D01*
X118560471Y-81573075D02*
X122033976Y-85046574D01*
X118560471Y-85046574D02*
X122033976Y-88520085D01*
X118560471Y-91993588D02*
X122033976Y-88520085D01*
X118560471Y-95467091D02*
X122033976Y-91993588D01*
X118560471Y-98940594D02*
X122033976Y-95467091D01*
X118560471Y-102414098D02*
X122033976Y-98940594D01*
X118560471Y-105887608D02*
X122033976Y-102414098D01*
X118560471Y-109361111D02*
X122033976Y-105887608D01*
X118560471Y-109361111D02*
X122033976Y-112834615D01*
X118560471Y-116308118D02*
X122033976Y-112834615D01*
X118560471Y-119781621D02*
X122033976Y-116308118D01*
X118560471Y-119781621D02*
X122033976Y-123255124D01*
X118560471Y-123255124D02*
X122033976Y-126728627D01*
X118560471Y-126728627D02*
X122033976Y-130202130D01*
X118560471Y-130202130D02*
X122033976Y-133675633D01*
X118560471Y-137149136D02*
X122033976Y-133675633D01*
X118560471Y-137149136D02*
X122033976Y-140622647D01*
X118560471Y-144096150D02*
X122033976Y-140622647D01*
X118560471Y-147569653D02*
X122033976Y-144096150D01*
X118560471Y-147569653D02*
X122033976Y-151043149D01*
X118560471Y-154516660D02*
X122033976Y-151043149D01*
X122033976Y-22523504D02*
X125507479Y-19050000D01*
X122033976Y-22523504D02*
X125507479Y-25997008D01*
X122033976Y-29470512D02*
X125507479Y-25997008D01*
X122033976Y-32944016D02*
X125507479Y-29470512D01*
X122033976Y-36417521D02*
X125507479Y-32944016D01*
X122033976Y-39891024D02*
X125507479Y-36417521D01*
X122033976Y-43364529D02*
X125507479Y-39891024D01*
X122033976Y-46838033D02*
X125507479Y-43364529D01*
X122033976Y-46838033D02*
X125507479Y-50311538D01*
X122033976Y-50311538D02*
X125507479Y-53785043D01*
X122033976Y-53785043D02*
X125507479Y-57258546D01*
X122033976Y-57258546D02*
X125507479Y-60732049D01*
X122033976Y-64205556D02*
X125507479Y-60732049D01*
X122033976Y-64205556D02*
X125507479Y-67679059D01*
X122033976Y-71152562D02*
X125507479Y-67679059D01*
X122033976Y-71152562D02*
X125507479Y-74626065D01*
X122033976Y-74626065D02*
X125507479Y-78099568D01*
X122033976Y-81573075D02*
X125507479Y-78099568D01*
X122033976Y-85046574D02*
X125507479Y-81573075D01*
X122033976Y-85046574D02*
X125507479Y-88520085D01*
X122033976Y-91993588D02*
X125507479Y-88520085D01*
X122033976Y-91993588D02*
X125507479Y-95467091D01*
X122033976Y-95467091D02*
X125507479Y-98940594D01*
X122033976Y-98940594D02*
X125507479Y-102414098D01*
X122033976Y-102414098D02*
X125507479Y-105887608D01*
X122033976Y-105887608D02*
X125507479Y-109361111D01*
X122033976Y-109361111D02*
X125507479Y-112834615D01*
X122033976Y-116308118D02*
X125507479Y-112834615D01*
X122033976Y-119781621D02*
X125507479Y-116308118D01*
X122033976Y-123255124D02*
X125507479Y-119781621D01*
X122033976Y-126728627D02*
X125507479Y-123255124D01*
X122033976Y-130202130D02*
X125507479Y-126728627D01*
X122033976Y-130202130D02*
X125507479Y-133675633D01*
X122033976Y-137149136D02*
X125507479Y-133675633D01*
X122033976Y-137149136D02*
X125507479Y-140622647D01*
X122033976Y-140622647D02*
X125507479Y-144096150D01*
X122033976Y-147569653D02*
X125507479Y-144096150D01*
X122033976Y-151043149D02*
X125507479Y-147569653D01*
X122033976Y-154516660D02*
X125507479Y-151043149D01*
X125507479Y-19050000D02*
X128980984Y-22523504D01*
X125507479Y-22523504D02*
X128980984Y-25997008D01*
X125507479Y-25997008D02*
X128980984Y-29470512D01*
X125507479Y-32944016D02*
X128980984Y-29470512D01*
X125507479Y-32944016D02*
X128980984Y-36417521D01*
X125507479Y-36417521D02*
X128980984Y-39891024D01*
X125507479Y-43364529D02*
X128980984Y-39891024D01*
X125507479Y-46838033D02*
X128980984Y-43364529D01*
X125507479Y-50311538D02*
X128980984Y-46838033D01*
X125507479Y-50311538D02*
X128980984Y-53785043D01*
X125507479Y-53785043D02*
X128980984Y-57258546D01*
X125507479Y-60732049D02*
X128980984Y-57258546D01*
X125507479Y-64205556D02*
X128980984Y-60732049D01*
X125507479Y-64205556D02*
X128980984Y-67679059D01*
X125507479Y-67679059D02*
X128980984Y-71152562D01*
X125507479Y-71152562D02*
X128980984Y-74626065D01*
X125507479Y-78099568D02*
X128980984Y-74626065D01*
X125507479Y-78099568D02*
X128980984Y-81573075D01*
X125507479Y-85046574D02*
X128980984Y-81573075D01*
X125507479Y-88520085D02*
X128980984Y-85046574D01*
X125507479Y-91993588D02*
X128980984Y-88520085D01*
X125507479Y-95467091D02*
X128980984Y-91993588D01*
X125507479Y-98940594D02*
X128980984Y-95467091D01*
X125507479Y-98940594D02*
X128980984Y-102414098D01*
X125507479Y-105887608D02*
X128980984Y-102414098D01*
X125507479Y-109361111D02*
X128980984Y-105887608D01*
X125507479Y-109361111D02*
X128980984Y-112834615D01*
X125507479Y-112834615D02*
X128980984Y-116308118D01*
X125507479Y-119781621D02*
X128980984Y-116308118D01*
X125507479Y-123255124D02*
X128980984Y-119781621D01*
X125507479Y-126728627D02*
X128980984Y-123255124D01*
X125507479Y-130202130D02*
X128980984Y-126728627D01*
X125507479Y-133675633D02*
X128980984Y-130202130D01*
X125507479Y-137149136D02*
X128980984Y-133675633D01*
X125507479Y-140622647D02*
X128980984Y-137149136D01*
X125507479Y-144096150D02*
X128980984Y-140622647D01*
X125507479Y-144096150D02*
X128980984Y-147569653D01*
X125507479Y-147569653D02*
X128980984Y-151043149D01*
X125507479Y-151043149D02*
X128980984Y-154516660D01*
X128980984Y-22523504D02*
X132454488Y-19050000D01*
X128980984Y-22523504D02*
X132454488Y-25997008D01*
X128980984Y-25997008D02*
X132454488Y-29470512D01*
X128980984Y-32944016D02*
X132454488Y-29470512D01*
X128980984Y-36417521D02*
X132454488Y-32944016D01*
X128980984Y-36417521D02*
X132454488Y-39891024D01*
X128980984Y-39891024D02*
X132454488Y-43364529D01*
X128980984Y-46838033D02*
X132454488Y-43364529D01*
X128980984Y-46838033D02*
X132454488Y-50311538D01*
X128980984Y-53785043D02*
X132454488Y-50311538D01*
X128980984Y-53785043D02*
X132454488Y-57258546D01*
X128980984Y-60732049D02*
X132454488Y-57258546D01*
X128980984Y-60732049D02*
X132454488Y-64205556D01*
X128980984Y-67679059D02*
X132454488Y-64205556D01*
X128980984Y-71152562D02*
X132454488Y-67679059D01*
X128980984Y-71152562D02*
X132454488Y-74626065D01*
X128980984Y-74626065D02*
X132454488Y-78099568D01*
X128980984Y-78099568D02*
X132454488Y-81573075D01*
X128980984Y-81573075D02*
X132454488Y-85046574D01*
X128980984Y-85046574D02*
X132454488Y-88520085D01*
X128980984Y-88520085D02*
X132454488Y-91993588D01*
X128980984Y-91993588D02*
X132454488Y-95467091D01*
X128980984Y-98940594D02*
X132454488Y-95467091D01*
X128980984Y-102414098D02*
X132454488Y-98940594D01*
X128980984Y-105887608D02*
X132454488Y-102414098D01*
X128980984Y-105887608D02*
X132454488Y-109361111D01*
X128980984Y-112834615D02*
X132454488Y-109361111D01*
X128980984Y-116308118D02*
X132454488Y-112834615D01*
X128980984Y-119781621D02*
X132454488Y-116308118D01*
X128980984Y-119781621D02*
X132454488Y-123255124D01*
X128980984Y-123255124D02*
X132454488Y-126728627D01*
X128980984Y-126728627D02*
X132454488Y-130202130D01*
X128980984Y-133675633D02*
X132454488Y-130202130D01*
X128980984Y-133675633D02*
X132454488Y-137149136D01*
X128980984Y-140622647D02*
X132454488Y-137149136D01*
X128980984Y-140622647D02*
X132454488Y-144096150D01*
X128980984Y-144096150D02*
X132454488Y-147569653D01*
X128980984Y-147569653D02*
X132454488Y-151043149D01*
X128980984Y-154516660D02*
X132454488Y-151043149D01*
X132454488Y-22523504D02*
X135927992Y-19050000D01*
X132454488Y-22523504D02*
X135927992Y-25997008D01*
X132454488Y-29470512D02*
X135927992Y-25997008D01*
X132454488Y-29470512D02*
X135927992Y-32944016D01*
X132454488Y-36417521D02*
X135927992Y-32944016D01*
X132454488Y-39891024D02*
X135927992Y-36417521D01*
X132454488Y-43364529D02*
X135927992Y-39891024D01*
X132454488Y-46838033D02*
X135927992Y-43364529D01*
X132454488Y-50311538D02*
X135927992Y-46838033D01*
X132454488Y-53785043D02*
X135927992Y-50311538D01*
X132454488Y-53785043D02*
X135927992Y-57258546D01*
X132454488Y-57258546D02*
X135927992Y-60732049D01*
X132454488Y-64205556D02*
X135927992Y-60732049D01*
X132454488Y-67679059D02*
X135927992Y-64205556D01*
X132454488Y-71152562D02*
X135927992Y-67679059D01*
X132454488Y-74626065D02*
X135927992Y-71152562D01*
X132454488Y-74626065D02*
X135927992Y-78099568D01*
X132454488Y-78099568D02*
X135927992Y-81573075D01*
X132454488Y-85046574D02*
X135927992Y-81573075D01*
X132454488Y-85046574D02*
X135927992Y-88520085D01*
X132454488Y-91993588D02*
X135927992Y-88520085D01*
X132454488Y-95467091D02*
X135927992Y-91993588D01*
X132454488Y-98940594D02*
X135927992Y-95467091D01*
X132454488Y-98940594D02*
X135927992Y-102414098D01*
X132454488Y-105887608D02*
X135927992Y-102414098D01*
X132454488Y-105887608D02*
X135927992Y-109361111D01*
X132454488Y-109361111D02*
X135927992Y-112834615D01*
X132454488Y-116308118D02*
X135927992Y-112834615D01*
X132454488Y-119781621D02*
X135927992Y-116308118D01*
X132454488Y-119781621D02*
X135927992Y-123255124D01*
X132454488Y-123255124D02*
X135927992Y-126728627D01*
X132454488Y-130202130D02*
X135927992Y-126728627D01*
X132454488Y-130202130D02*
X135927992Y-133675633D01*
X132454488Y-137149136D02*
X135927992Y-133675633D01*
X132454488Y-140622647D02*
X135927992Y-137149136D01*
X132454488Y-140622647D02*
X135927992Y-144096150D01*
X132454488Y-144096150D02*
X135927992Y-147569653D01*
X132454488Y-147569653D02*
X135927992Y-151043149D01*
X132454488Y-151043149D02*
X135927992Y-154516660D01*
X135927992Y-22523504D02*
X139401496Y-19050000D01*
X135927992Y-22523504D02*
X139401496Y-25997008D01*
X135927992Y-25997008D02*
X139401496Y-29470512D01*
X135927992Y-29470512D02*
X139401496Y-32944016D01*
X135927992Y-36417521D02*
X139401496Y-32944016D01*
X135927992Y-39891024D02*
X139401496Y-36417521D01*
X135927992Y-43364529D02*
X139401496Y-39891024D01*
X135927992Y-43364529D02*
X139401496Y-46838033D01*
X135927992Y-50311538D02*
X139401496Y-46838033D01*
X135927992Y-50311538D02*
X139401496Y-53785043D01*
X135927992Y-57258546D02*
X139401496Y-53785043D01*
X135927992Y-60732049D02*
X139401496Y-57258546D01*
X135927992Y-60732049D02*
X139401496Y-64205556D01*
X135927992Y-67679059D02*
X139401496Y-64205556D01*
X135927992Y-71152562D02*
X139401496Y-67679059D01*
X135927992Y-71152562D02*
X139401496Y-74626065D01*
X135927992Y-74626065D02*
X139401496Y-78099568D01*
X135927992Y-78099568D02*
X139401496Y-81573075D01*
X135927992Y-81573075D02*
X139401496Y-85046574D01*
X135927992Y-88520085D02*
X139401496Y-85046574D01*
X135927992Y-91993588D02*
X139401496Y-88520085D01*
X135927992Y-91993588D02*
X139401496Y-95467091D01*
X135927992Y-98940594D02*
X139401496Y-95467091D01*
X135927992Y-98940594D02*
X139401496Y-102414098D01*
X135927992Y-102414098D02*
X139401496Y-105887608D01*
X135927992Y-109361111D02*
X139401496Y-105887608D01*
X135927992Y-112834615D02*
X139401496Y-109361111D01*
X135927992Y-112834615D02*
X139401496Y-116308118D01*
X135927992Y-119781621D02*
X139401496Y-116308118D01*
X135927992Y-119781621D02*
X139401496Y-123255124D01*
X135927992Y-123255124D02*
X139401496Y-126728627D01*
X135927992Y-130202130D02*
X139401496Y-126728627D01*
X135927992Y-133675633D02*
X139401496Y-130202130D01*
X135927992Y-137149136D02*
X139401496Y-133675633D01*
X135927992Y-140622647D02*
X139401496Y-137149136D01*
X135927992Y-140622647D02*
X139401496Y-144096150D01*
X135927992Y-144096150D02*
X139401496Y-147569653D01*
X135927992Y-151043149D02*
X139401496Y-147569653D01*
X135927992Y-154516660D02*
X139401496Y-151043149D01*
X139401496Y-22523504D02*
X142875000Y-19050000D01*
X139401496Y-22523504D02*
X142875000Y-25997008D01*
X139401496Y-29470512D02*
X142875000Y-25997008D01*
X139401496Y-29470512D02*
X142875000Y-32944016D01*
X139401496Y-36417521D02*
X142875000Y-32944016D01*
X139401496Y-36417521D02*
X142875000Y-39891024D01*
X139401496Y-39891024D02*
X142875000Y-43364529D01*
X139401496Y-46838033D02*
X142875000Y-43364529D01*
X139401496Y-46838033D02*
X142875000Y-50311538D01*
X139401496Y-50311538D02*
X142875000Y-53785043D01*
X139401496Y-57258546D02*
X142875000Y-53785043D01*
X139401496Y-60732049D02*
X142875000Y-57258546D01*
X139401496Y-60732049D02*
X142875000Y-64205556D01*
X139401496Y-67679059D02*
X142875000Y-64205556D01*
X139401496Y-71152562D02*
X142875000Y-67679059D01*
X139401496Y-71152562D02*
X142875000Y-74626065D01*
X139401496Y-74626065D02*
X142875000Y-78099568D01*
X139401496Y-78099568D02*
X142875000Y-81573075D01*
X139401496Y-81573075D02*
X142875000Y-85046574D01*
X139401496Y-85046574D02*
X142875000Y-88520085D01*
X139401496Y-88520085D02*
X142875000Y-91993588D01*
X139401496Y-91993588D02*
X142875000Y-95467091D01*
X139401496Y-98940594D02*
X142875000Y-95467091D01*
X139401496Y-102414098D02*
X142875000Y-98940594D01*
X139401496Y-102414098D02*
X142875000Y-105887608D01*
X139401496Y-105887608D02*
X142875000Y-109361111D01*
X139401496Y-112834615D02*
X142875000Y-109361111D01*
X139401496Y-112834615D02*
X142875000Y-116308118D01*
X139401496Y-116308118D02*
X142875000Y-119781621D01*
X139401496Y-123255124D02*
X142875000Y-119781621D01*
X139401496Y-126728627D02*
X142875000Y-123255124D01*
X139401496Y-126728627D02*
X142875000Y-130202130D01*
X139401496Y-130202130D02*
X142875000Y-133675633D01*
X139401496Y-137149136D02*
X142875000Y-133675633D01*
X139401496Y-140622647D02*
X142875000Y-137149136D01*
X139401496Y-140622647D02*
X142875000Y-144096150D01*
X139401496Y-144096150D02*
X142875000Y-147569653D01*
X139401496Y-147569653D02*
X142875000Y-151043149D01*
X139401496Y-154516660D02*
X142875000Y-151043149D01*
M02*
