%TF.GenerationSoftware,KiCad,Pcbnew,8.0.5*%
%TF.CreationDate,2024-10-08T22:33:31+02:00*%
%TF.ProjectId,plate,706c6174-652e-46b6-9963-61645f706362,rev?*%
%TF.SameCoordinates,Original*%
%TF.FileFunction,Drillmap*%
%TF.FilePolarity,Positive*%
%FSLAX45Y45*%
G04 Gerber Fmt 4.5, Leading zero omitted, Abs format (unit mm)*
G04 Created by KiCad (PCBNEW 8.0.5) date 2024-10-08 22:33:31*
%MOMM*%
%LPD*%
G01*
G04 APERTURE LIST*
%ADD10C,0.050000*%
%ADD11C,0.200000*%
G04 APERTURE END LIST*
D10*
X2381250Y-2381250D02*
X13811250Y-2381250D01*
X13811250Y-14287500D01*
X2381250Y-14287500D01*
X2381250Y-2381250D01*
X4538750Y-8875000D02*
X4538750Y-10175000D01*
X4588750Y-10225000D02*
X5888750Y-10225000D01*
X5888750Y-8825000D02*
X4588750Y-8825000D01*
X5938750Y-10175000D02*
X5938750Y-8875000D01*
X4538750Y-8875000D02*
G75*
G02*
X4588750Y-8825000I50000J0D01*
G01*
X4589026Y-10224888D02*
G75*
G02*
X4539026Y-10174888I0J50000D01*
G01*
X5888750Y-8825000D02*
G75*
G02*
X5938750Y-8875000I0J-50000D01*
G01*
X5938750Y-10175000D02*
G75*
G02*
X5888750Y-10225000I-50000J0D01*
G01*
X12158750Y-10780000D02*
X12158750Y-12080000D01*
X12208750Y-12130000D02*
X13508750Y-12130000D01*
X13508750Y-10730000D02*
X12208750Y-10730000D01*
X13558750Y-12080000D02*
X13558750Y-10780000D01*
X12158750Y-10780000D02*
G75*
G02*
X12208750Y-10730000I50000J0D01*
G01*
X12209026Y-12129888D02*
G75*
G02*
X12159026Y-12079888I0J50000D01*
G01*
X13508750Y-10730000D02*
G75*
G02*
X13558750Y-10780000I0J-50000D01*
G01*
X13558750Y-12080000D02*
G75*
G02*
X13508750Y-12130000I-50000J0D01*
G01*
X6443750Y-5065000D02*
X6443750Y-6365000D01*
X6493750Y-6415000D02*
X7793750Y-6415000D01*
X7793750Y-5015000D02*
X6493750Y-5015000D01*
X7843750Y-6365000D02*
X7843750Y-5065000D01*
X6443750Y-5065000D02*
G75*
G02*
X6493750Y-5015000I50000J0D01*
G01*
X6494026Y-6414888D02*
G75*
G02*
X6444026Y-6364888I0J50000D01*
G01*
X7793750Y-5015000D02*
G75*
G02*
X7843750Y-5065000I0J-50000D01*
G01*
X7843750Y-6365000D02*
G75*
G02*
X7793750Y-6415000I-50000J0D01*
G01*
X6443750Y-8875000D02*
X6443750Y-10175000D01*
X6493750Y-10225000D02*
X7793750Y-10225000D01*
X7793750Y-8825000D02*
X6493750Y-8825000D01*
X7843750Y-10175000D02*
X7843750Y-8875000D01*
X6443750Y-8875000D02*
G75*
G02*
X6493750Y-8825000I50000J0D01*
G01*
X6494026Y-10224888D02*
G75*
G02*
X6444026Y-10174888I0J50000D01*
G01*
X7793750Y-8825000D02*
G75*
G02*
X7843750Y-8875000I0J-50000D01*
G01*
X7843750Y-10175000D02*
G75*
G02*
X7793750Y-10225000I-50000J0D01*
G01*
X4538750Y-6970000D02*
X4538750Y-8270000D01*
X4588750Y-8320000D02*
X5888750Y-8320000D01*
X5888750Y-6920000D02*
X4588750Y-6920000D01*
X5938750Y-8270000D02*
X5938750Y-6970000D01*
X4538750Y-6970000D02*
G75*
G02*
X4588750Y-6920000I50000J0D01*
G01*
X4589026Y-8319888D02*
G75*
G02*
X4539026Y-8269888I0J50000D01*
G01*
X5888750Y-6920000D02*
G75*
G02*
X5938750Y-6970000I0J-50000D01*
G01*
X5938750Y-8270000D02*
G75*
G02*
X5888750Y-8320000I-50000J0D01*
G01*
X2633750Y-8875000D02*
X2633750Y-10175000D01*
X2683750Y-10225000D02*
X3983750Y-10225000D01*
X3983750Y-8825000D02*
X2683750Y-8825000D01*
X4033750Y-10175000D02*
X4033750Y-8875000D01*
X2633750Y-8875000D02*
G75*
G02*
X2683750Y-8825000I50000J0D01*
G01*
X2684026Y-10224888D02*
G75*
G02*
X2634026Y-10174888I0J50000D01*
G01*
X3983750Y-8825000D02*
G75*
G02*
X4033750Y-8875000I0J-50000D01*
G01*
X4033750Y-10175000D02*
G75*
G02*
X3983750Y-10225000I-50000J0D01*
G01*
X10253750Y-2683750D02*
X10253750Y-3983750D01*
X10303750Y-4033750D02*
X11603750Y-4033750D01*
X11603750Y-2633750D02*
X10303750Y-2633750D01*
X11653750Y-3983750D02*
X11653750Y-2683750D01*
X10253750Y-2683750D02*
G75*
G02*
X10303750Y-2633750I50000J0D01*
G01*
X10304026Y-4033638D02*
G75*
G02*
X10254026Y-3983638I0J50000D01*
G01*
X11603750Y-2633750D02*
G75*
G02*
X11653750Y-2683750I0J-50000D01*
G01*
X11653750Y-3983750D02*
G75*
G02*
X11603750Y-4033750I-50000J0D01*
G01*
X10253750Y-12685000D02*
X10253750Y-13985000D01*
X10303750Y-14035000D02*
X11603750Y-14035000D01*
X11603750Y-12635000D02*
X10303750Y-12635000D01*
X11653750Y-13985000D02*
X11653750Y-12685000D01*
X10253750Y-12685000D02*
G75*
G02*
X10303750Y-12635000I50000J0D01*
G01*
X10304026Y-14034888D02*
G75*
G02*
X10254026Y-13984888I0J50000D01*
G01*
X11603750Y-12635000D02*
G75*
G02*
X11653750Y-12685000I0J-50000D01*
G01*
X11653750Y-13985000D02*
G75*
G02*
X11603750Y-14035000I-50000J0D01*
G01*
X10253750Y-8875000D02*
X10253750Y-10175000D01*
X10303750Y-10225000D02*
X11603750Y-10225000D01*
X11603750Y-8825000D02*
X10303750Y-8825000D01*
X11653750Y-10175000D02*
X11653750Y-8875000D01*
X10253750Y-8875000D02*
G75*
G02*
X10303750Y-8825000I50000J0D01*
G01*
X10304026Y-10224888D02*
G75*
G02*
X10254026Y-10174888I0J50000D01*
G01*
X11603750Y-8825000D02*
G75*
G02*
X11653750Y-8875000I0J-50000D01*
G01*
X11653750Y-10175000D02*
G75*
G02*
X11603750Y-10225000I-50000J0D01*
G01*
X8348750Y-6970000D02*
X8348750Y-8270000D01*
X8398750Y-8320000D02*
X9698750Y-8320000D01*
X9698750Y-6920000D02*
X8398750Y-6920000D01*
X9748750Y-8270000D02*
X9748750Y-6970000D01*
X8348750Y-6970000D02*
G75*
G02*
X8398750Y-6920000I50000J0D01*
G01*
X8399026Y-8319888D02*
G75*
G02*
X8349026Y-8269888I0J50000D01*
G01*
X9698750Y-6920000D02*
G75*
G02*
X9748750Y-6970000I0J-50000D01*
G01*
X9748750Y-8270000D02*
G75*
G02*
X9698750Y-8320000I-50000J0D01*
G01*
X12158750Y-8875000D02*
X12158750Y-10175000D01*
X12208750Y-10225000D02*
X13508750Y-10225000D01*
X13508750Y-8825000D02*
X12208750Y-8825000D01*
X13558750Y-10175000D02*
X13558750Y-8875000D01*
X12158750Y-8875000D02*
G75*
G02*
X12208750Y-8825000I50000J0D01*
G01*
X12209026Y-10224888D02*
G75*
G02*
X12159026Y-10174888I0J50000D01*
G01*
X13508750Y-8825000D02*
G75*
G02*
X13558750Y-8875000I0J-50000D01*
G01*
X13558750Y-10175000D02*
G75*
G02*
X13508750Y-10225000I-50000J0D01*
G01*
X2633750Y-2683750D02*
X2633750Y-3983750D01*
X2683750Y-4033750D02*
X3983750Y-4033750D01*
X3983750Y-2633750D02*
X2683750Y-2633750D01*
X4033750Y-3983750D02*
X4033750Y-2683750D01*
X2633750Y-2683750D02*
G75*
G02*
X2683750Y-2633750I50000J0D01*
G01*
X2684026Y-4033638D02*
G75*
G02*
X2634026Y-3983638I0J50000D01*
G01*
X3983750Y-2633750D02*
G75*
G02*
X4033750Y-2683750I0J-50000D01*
G01*
X4033750Y-3983750D02*
G75*
G02*
X3983750Y-4033750I-50000J0D01*
G01*
X2633750Y-6970000D02*
X2633750Y-8270000D01*
X2683750Y-8320000D02*
X3983750Y-8320000D01*
X3983750Y-6920000D02*
X2683750Y-6920000D01*
X4033750Y-8270000D02*
X4033750Y-6970000D01*
X2633750Y-6970000D02*
G75*
G02*
X2683750Y-6920000I50000J0D01*
G01*
X2684026Y-8319888D02*
G75*
G02*
X2634026Y-8269888I0J50000D01*
G01*
X3983750Y-6920000D02*
G75*
G02*
X4033750Y-6970000I0J-50000D01*
G01*
X4033750Y-8270000D02*
G75*
G02*
X3983750Y-8320000I-50000J0D01*
G01*
X12158750Y-6970000D02*
X12158750Y-8270000D01*
X12208750Y-8320000D02*
X13508750Y-8320000D01*
X13508750Y-6920000D02*
X12208750Y-6920000D01*
X13558750Y-8270000D02*
X13558750Y-6970000D01*
X12158750Y-6970000D02*
G75*
G02*
X12208750Y-6920000I50000J0D01*
G01*
X12209026Y-8319888D02*
G75*
G02*
X12159026Y-8269888I0J50000D01*
G01*
X13508750Y-6920000D02*
G75*
G02*
X13558750Y-6970000I0J-50000D01*
G01*
X13558750Y-8270000D02*
G75*
G02*
X13508750Y-8320000I-50000J0D01*
G01*
X12158750Y-12685000D02*
X12158750Y-13985000D01*
X12208750Y-14035000D02*
X13508750Y-14035000D01*
X13508750Y-12635000D02*
X12208750Y-12635000D01*
X13558750Y-13985000D02*
X13558750Y-12685000D01*
X12158750Y-12685000D02*
G75*
G02*
X12208750Y-12635000I50000J0D01*
G01*
X12209026Y-14034888D02*
G75*
G02*
X12159026Y-13984888I0J50000D01*
G01*
X13508750Y-12635000D02*
G75*
G02*
X13558750Y-12685000I0J-50000D01*
G01*
X13558750Y-13985000D02*
G75*
G02*
X13508750Y-14035000I-50000J0D01*
G01*
X4538750Y-5065000D02*
X4538750Y-6365000D01*
X4588750Y-6415000D02*
X5888750Y-6415000D01*
X5888750Y-5015000D02*
X4588750Y-5015000D01*
X5938750Y-6365000D02*
X5938750Y-5065000D01*
X4538750Y-5065000D02*
G75*
G02*
X4588750Y-5015000I50000J0D01*
G01*
X4589026Y-6414888D02*
G75*
G02*
X4539026Y-6364888I0J50000D01*
G01*
X5888750Y-5015000D02*
G75*
G02*
X5938750Y-5065000I0J-50000D01*
G01*
X5938750Y-6365000D02*
G75*
G02*
X5888750Y-6415000I-50000J0D01*
G01*
X4538750Y-12685000D02*
X4538750Y-13985000D01*
X4588750Y-14035000D02*
X5888750Y-14035000D01*
X5888750Y-12635000D02*
X4588750Y-12635000D01*
X5938750Y-13985000D02*
X5938750Y-12685000D01*
X4538750Y-12685000D02*
G75*
G02*
X4588750Y-12635000I50000J0D01*
G01*
X4589026Y-14034888D02*
G75*
G02*
X4539026Y-13984888I0J50000D01*
G01*
X5888750Y-12635000D02*
G75*
G02*
X5938750Y-12685000I0J-50000D01*
G01*
X5938750Y-13985000D02*
G75*
G02*
X5888750Y-14035000I-50000J0D01*
G01*
X2633750Y-12685000D02*
X2633750Y-13985000D01*
X2683750Y-14035000D02*
X3983750Y-14035000D01*
X3983750Y-12635000D02*
X2683750Y-12635000D01*
X4033750Y-13985000D02*
X4033750Y-12685000D01*
X2633750Y-12685000D02*
G75*
G02*
X2683750Y-12635000I50000J0D01*
G01*
X2684026Y-14034888D02*
G75*
G02*
X2634026Y-13984888I0J50000D01*
G01*
X3983750Y-12635000D02*
G75*
G02*
X4033750Y-12685000I0J-50000D01*
G01*
X4033750Y-13985000D02*
G75*
G02*
X3983750Y-14035000I-50000J0D01*
G01*
X12158750Y-2683750D02*
X12158750Y-3983750D01*
X12208750Y-4033750D02*
X13508750Y-4033750D01*
X13508750Y-2633750D02*
X12208750Y-2633750D01*
X13558750Y-3983750D02*
X13558750Y-2683750D01*
X12158750Y-2683750D02*
G75*
G02*
X12208750Y-2633750I50000J0D01*
G01*
X12209026Y-4033638D02*
G75*
G02*
X12159026Y-3983638I0J50000D01*
G01*
X13508750Y-2633750D02*
G75*
G02*
X13558750Y-2683750I0J-50000D01*
G01*
X13558750Y-3983750D02*
G75*
G02*
X13508750Y-4033750I-50000J0D01*
G01*
X8348750Y-5065000D02*
X8348750Y-6365000D01*
X8398750Y-6415000D02*
X9698750Y-6415000D01*
X9698750Y-5015000D02*
X8398750Y-5015000D01*
X9748750Y-6365000D02*
X9748750Y-5065000D01*
X8348750Y-5065000D02*
G75*
G02*
X8398750Y-5015000I50000J0D01*
G01*
X8399026Y-6414888D02*
G75*
G02*
X8349026Y-6364888I0J50000D01*
G01*
X9698750Y-5015000D02*
G75*
G02*
X9748750Y-5065000I0J-50000D01*
G01*
X9748750Y-6365000D02*
G75*
G02*
X9698750Y-6415000I-50000J0D01*
G01*
X5491250Y-2683750D02*
X5491250Y-3983750D01*
X5541250Y-4033750D02*
X6841250Y-4033750D01*
X6841250Y-2633750D02*
X5541250Y-2633750D01*
X6891250Y-3983750D02*
X6891250Y-2683750D01*
X5491250Y-2683750D02*
G75*
G02*
X5541250Y-2633750I50000J0D01*
G01*
X5541526Y-4033638D02*
G75*
G02*
X5491526Y-3983638I0J50000D01*
G01*
X6841250Y-2633750D02*
G75*
G02*
X6891250Y-2683750I0J-50000D01*
G01*
X6891250Y-3983750D02*
G75*
G02*
X6841250Y-4033750I-50000J0D01*
G01*
X10253750Y-5065000D02*
X10253750Y-6365000D01*
X10303750Y-6415000D02*
X11603750Y-6415000D01*
X11603750Y-5015000D02*
X10303750Y-5015000D01*
X11653750Y-6365000D02*
X11653750Y-5065000D01*
X10253750Y-5065000D02*
G75*
G02*
X10303750Y-5015000I50000J0D01*
G01*
X10304026Y-6414888D02*
G75*
G02*
X10254026Y-6364888I0J50000D01*
G01*
X11603750Y-5015000D02*
G75*
G02*
X11653750Y-5065000I0J-50000D01*
G01*
X11653750Y-6365000D02*
G75*
G02*
X11603750Y-6415000I-50000J0D01*
G01*
X12158750Y-5065000D02*
X12158750Y-6365000D01*
X12208750Y-6415000D02*
X13508750Y-6415000D01*
X13508750Y-5015000D02*
X12208750Y-5015000D01*
X13558750Y-6365000D02*
X13558750Y-5065000D01*
X12158750Y-5065000D02*
G75*
G02*
X12208750Y-5015000I50000J0D01*
G01*
X12209026Y-6414888D02*
G75*
G02*
X12159026Y-6364888I0J50000D01*
G01*
X13508750Y-5015000D02*
G75*
G02*
X13558750Y-5065000I0J-50000D01*
G01*
X13558750Y-6365000D02*
G75*
G02*
X13508750Y-6415000I-50000J0D01*
G01*
X2633750Y-10780000D02*
X2633750Y-12080000D01*
X2683750Y-12130000D02*
X3983750Y-12130000D01*
X3983750Y-10730000D02*
X2683750Y-10730000D01*
X4033750Y-12080000D02*
X4033750Y-10780000D01*
X2633750Y-10780000D02*
G75*
G02*
X2683750Y-10730000I50000J0D01*
G01*
X2684026Y-12129888D02*
G75*
G02*
X2634026Y-12079888I0J50000D01*
G01*
X3983750Y-10730000D02*
G75*
G02*
X4033750Y-10780000I0J-50000D01*
G01*
X4033750Y-12080000D02*
G75*
G02*
X3983750Y-12130000I-50000J0D01*
G01*
X8348750Y-8875000D02*
X8348750Y-10175000D01*
X8398750Y-10225000D02*
X9698750Y-10225000D01*
X9698750Y-8825000D02*
X8398750Y-8825000D01*
X9748750Y-10175000D02*
X9748750Y-8875000D01*
X8348750Y-8875000D02*
G75*
G02*
X8398750Y-8825000I50000J0D01*
G01*
X8399026Y-10224888D02*
G75*
G02*
X8349026Y-10174888I0J50000D01*
G01*
X9698750Y-8825000D02*
G75*
G02*
X9748750Y-8875000I0J-50000D01*
G01*
X9748750Y-10175000D02*
G75*
G02*
X9698750Y-10225000I-50000J0D01*
G01*
X10253750Y-10780000D02*
X10253750Y-12080000D01*
X10303750Y-12130000D02*
X11603750Y-12130000D01*
X11603750Y-10730000D02*
X10303750Y-10730000D01*
X11653750Y-12080000D02*
X11653750Y-10780000D01*
X10253750Y-10780000D02*
G75*
G02*
X10303750Y-10730000I50000J0D01*
G01*
X10304026Y-12129888D02*
G75*
G02*
X10254026Y-12079888I0J50000D01*
G01*
X11603750Y-10730000D02*
G75*
G02*
X11653750Y-10780000I0J-50000D01*
G01*
X11653750Y-12080000D02*
G75*
G02*
X11603750Y-12130000I-50000J0D01*
G01*
X7396250Y-2683750D02*
X7396250Y-3983750D01*
X7446250Y-4033750D02*
X8746250Y-4033750D01*
X8746250Y-2633750D02*
X7446250Y-2633750D01*
X8796250Y-3983750D02*
X8796250Y-2683750D01*
X7396250Y-2683750D02*
G75*
G02*
X7446250Y-2633750I50000J0D01*
G01*
X7446526Y-4033638D02*
G75*
G02*
X7396526Y-3983638I0J50000D01*
G01*
X8746250Y-2633750D02*
G75*
G02*
X8796250Y-2683750I0J-50000D01*
G01*
X8796250Y-3983750D02*
G75*
G02*
X8746250Y-4033750I-50000J0D01*
G01*
X4538750Y-10780000D02*
X4538750Y-12080000D01*
X4588750Y-12130000D02*
X5888750Y-12130000D01*
X5888750Y-10730000D02*
X4588750Y-10730000D01*
X5938750Y-12080000D02*
X5938750Y-10780000D01*
X4538750Y-10780000D02*
G75*
G02*
X4588750Y-10730000I50000J0D01*
G01*
X4589026Y-12129888D02*
G75*
G02*
X4539026Y-12079888I0J50000D01*
G01*
X5888750Y-10730000D02*
G75*
G02*
X5938750Y-10780000I0J-50000D01*
G01*
X5938750Y-12080000D02*
G75*
G02*
X5888750Y-12130000I-50000J0D01*
G01*
X10253750Y-6970000D02*
X10253750Y-8270000D01*
X10303750Y-8320000D02*
X11603750Y-8320000D01*
X11603750Y-6920000D02*
X10303750Y-6920000D01*
X11653750Y-8270000D02*
X11653750Y-6970000D01*
X10253750Y-6970000D02*
G75*
G02*
X10303750Y-6920000I50000J0D01*
G01*
X10304026Y-8319888D02*
G75*
G02*
X10254026Y-8269888I0J50000D01*
G01*
X11603750Y-6920000D02*
G75*
G02*
X11653750Y-6970000I0J-50000D01*
G01*
X11653750Y-8270000D02*
G75*
G02*
X11603750Y-8320000I-50000J0D01*
G01*
X2633750Y-5065000D02*
X2633750Y-6365000D01*
X2683750Y-6415000D02*
X3983750Y-6415000D01*
X3983750Y-5015000D02*
X2683750Y-5015000D01*
X4033750Y-6365000D02*
X4033750Y-5065000D01*
X2633750Y-5065000D02*
G75*
G02*
X2683750Y-5015000I50000J0D01*
G01*
X2684026Y-6414888D02*
G75*
G02*
X2634026Y-6364888I0J50000D01*
G01*
X3983750Y-5015000D02*
G75*
G02*
X4033750Y-5065000I0J-50000D01*
G01*
X4033750Y-6365000D02*
G75*
G02*
X3983750Y-6415000I-50000J0D01*
G01*
X8348750Y-10780000D02*
X8348750Y-12080000D01*
X8398750Y-12130000D02*
X9698750Y-12130000D01*
X9698750Y-10730000D02*
X8398750Y-10730000D01*
X9748750Y-12080000D02*
X9748750Y-10780000D01*
X8348750Y-10780000D02*
G75*
G02*
X8398750Y-10730000I50000J0D01*
G01*
X8399026Y-12129888D02*
G75*
G02*
X8349026Y-12079888I0J50000D01*
G01*
X9698750Y-10730000D02*
G75*
G02*
X9748750Y-10780000I0J-50000D01*
G01*
X9748750Y-12080000D02*
G75*
G02*
X9698750Y-12130000I-50000J0D01*
G01*
X6443750Y-6970000D02*
X6443750Y-8270000D01*
X6493750Y-8320000D02*
X7793750Y-8320000D01*
X7793750Y-6920000D02*
X6493750Y-6920000D01*
X7843750Y-8270000D02*
X7843750Y-6970000D01*
X6443750Y-6970000D02*
G75*
G02*
X6493750Y-6920000I50000J0D01*
G01*
X6494026Y-8319888D02*
G75*
G02*
X6444026Y-8269888I0J50000D01*
G01*
X7793750Y-6920000D02*
G75*
G02*
X7843750Y-6970000I0J-50000D01*
G01*
X7843750Y-8270000D02*
G75*
G02*
X7793750Y-8320000I-50000J0D01*
G01*
X6443750Y-12685000D02*
X6443750Y-13985000D01*
X6493750Y-14035000D02*
X7793750Y-14035000D01*
X7793750Y-12635000D02*
X6493750Y-12635000D01*
X7843750Y-13985000D02*
X7843750Y-12685000D01*
X6443750Y-12685000D02*
G75*
G02*
X6493750Y-12635000I50000J0D01*
G01*
X6494026Y-14034888D02*
G75*
G02*
X6444026Y-13984888I0J50000D01*
G01*
X7793750Y-12635000D02*
G75*
G02*
X7843750Y-12685000I0J-50000D01*
G01*
X7843750Y-13985000D02*
G75*
G02*
X7793750Y-14035000I-50000J0D01*
G01*
X8348750Y-12685000D02*
X8348750Y-13985000D01*
X8398750Y-14035000D02*
X9698750Y-14035000D01*
X9698750Y-12635000D02*
X8398750Y-12635000D01*
X9748750Y-13985000D02*
X9748750Y-12685000D01*
X8348750Y-12685000D02*
G75*
G02*
X8398750Y-12635000I50000J0D01*
G01*
X8399026Y-14034888D02*
G75*
G02*
X8349026Y-13984888I0J50000D01*
G01*
X9698750Y-12635000D02*
G75*
G02*
X9748750Y-12685000I0J-50000D01*
G01*
X9748750Y-13985000D02*
G75*
G02*
X9698750Y-14035000I-50000J0D01*
G01*
X6443750Y-10780000D02*
X6443750Y-12080000D01*
X6493750Y-12130000D02*
X7793750Y-12130000D01*
X7793750Y-10730000D02*
X6493750Y-10730000D01*
X7843750Y-12080000D02*
X7843750Y-10780000D01*
X6443750Y-10780000D02*
G75*
G02*
X6493750Y-10730000I50000J0D01*
G01*
X6494026Y-12129888D02*
G75*
G02*
X6444026Y-12079888I0J50000D01*
G01*
X7793750Y-10730000D02*
G75*
G02*
X7843750Y-10780000I0J-50000D01*
G01*
X7843750Y-12080000D02*
G75*
G02*
X7793750Y-12130000I-50000J0D01*
G01*
D11*
X2639527Y-14601484D02*
X2639527Y-14401484D01*
X2639527Y-14401484D02*
X2687146Y-14401484D01*
X2687146Y-14401484D02*
X2715717Y-14411008D01*
X2715717Y-14411008D02*
X2734765Y-14430055D01*
X2734765Y-14430055D02*
X2744289Y-14449103D01*
X2744289Y-14449103D02*
X2753813Y-14487198D01*
X2753813Y-14487198D02*
X2753813Y-14515769D01*
X2753813Y-14515769D02*
X2744289Y-14553865D01*
X2744289Y-14553865D02*
X2734765Y-14572912D01*
X2734765Y-14572912D02*
X2715717Y-14591960D01*
X2715717Y-14591960D02*
X2687146Y-14601484D01*
X2687146Y-14601484D02*
X2639527Y-14601484D01*
X2839527Y-14601484D02*
X2839527Y-14468150D01*
X2839527Y-14506246D02*
X2849051Y-14487198D01*
X2849051Y-14487198D02*
X2858574Y-14477674D01*
X2858574Y-14477674D02*
X2877622Y-14468150D01*
X2877622Y-14468150D02*
X2896670Y-14468150D01*
X2963336Y-14601484D02*
X2963336Y-14468150D01*
X2963336Y-14401484D02*
X2953812Y-14411008D01*
X2953812Y-14411008D02*
X2963336Y-14420531D01*
X2963336Y-14420531D02*
X2972860Y-14411008D01*
X2972860Y-14411008D02*
X2963336Y-14401484D01*
X2963336Y-14401484D02*
X2963336Y-14420531D01*
X3087146Y-14601484D02*
X3068098Y-14591960D01*
X3068098Y-14591960D02*
X3058574Y-14572912D01*
X3058574Y-14572912D02*
X3058574Y-14401484D01*
X3191908Y-14601484D02*
X3172860Y-14591960D01*
X3172860Y-14591960D02*
X3163336Y-14572912D01*
X3163336Y-14572912D02*
X3163336Y-14401484D01*
X3420479Y-14601484D02*
X3420479Y-14401484D01*
X3420479Y-14401484D02*
X3487146Y-14544341D01*
X3487146Y-14544341D02*
X3553812Y-14401484D01*
X3553812Y-14401484D02*
X3553812Y-14601484D01*
X3734765Y-14601484D02*
X3734765Y-14496722D01*
X3734765Y-14496722D02*
X3725241Y-14477674D01*
X3725241Y-14477674D02*
X3706193Y-14468150D01*
X3706193Y-14468150D02*
X3668098Y-14468150D01*
X3668098Y-14468150D02*
X3649051Y-14477674D01*
X3734765Y-14591960D02*
X3715717Y-14601484D01*
X3715717Y-14601484D02*
X3668098Y-14601484D01*
X3668098Y-14601484D02*
X3649051Y-14591960D01*
X3649051Y-14591960D02*
X3639527Y-14572912D01*
X3639527Y-14572912D02*
X3639527Y-14553865D01*
X3639527Y-14553865D02*
X3649051Y-14534817D01*
X3649051Y-14534817D02*
X3668098Y-14525293D01*
X3668098Y-14525293D02*
X3715717Y-14525293D01*
X3715717Y-14525293D02*
X3734765Y-14515769D01*
X3830003Y-14468150D02*
X3830003Y-14668150D01*
X3830003Y-14477674D02*
X3849051Y-14468150D01*
X3849051Y-14468150D02*
X3887146Y-14468150D01*
X3887146Y-14468150D02*
X3906193Y-14477674D01*
X3906193Y-14477674D02*
X3915717Y-14487198D01*
X3915717Y-14487198D02*
X3925241Y-14506246D01*
X3925241Y-14506246D02*
X3925241Y-14563388D01*
X3925241Y-14563388D02*
X3915717Y-14582436D01*
X3915717Y-14582436D02*
X3906193Y-14591960D01*
X3906193Y-14591960D02*
X3887146Y-14601484D01*
X3887146Y-14601484D02*
X3849051Y-14601484D01*
X3849051Y-14601484D02*
X3830003Y-14591960D01*
X4010955Y-14582436D02*
X4020479Y-14591960D01*
X4020479Y-14591960D02*
X4010955Y-14601484D01*
X4010955Y-14601484D02*
X4001432Y-14591960D01*
X4001432Y-14591960D02*
X4010955Y-14582436D01*
X4010955Y-14582436D02*
X4010955Y-14601484D01*
X4010955Y-14477674D02*
X4020479Y-14487198D01*
X4020479Y-14487198D02*
X4010955Y-14496722D01*
X4010955Y-14496722D02*
X4001432Y-14487198D01*
X4001432Y-14487198D02*
X4010955Y-14477674D01*
X4010955Y-14477674D02*
X4010955Y-14496722D01*
M02*
