%TF.GenerationSoftware,KiCad,Pcbnew,(6.0.9)*%
%TF.CreationDate,2022-11-26T17:52:30+01:00*%
%TF.ProjectId,tekskey,74656b73-6b65-4792-9e6b-696361645f70,rev?*%
%TF.SameCoordinates,Original*%
%TF.FileFunction,Copper,L2,Bot*%
%TF.FilePolarity,Positive*%
%FSLAX46Y46*%
G04 Gerber Fmt 4.6, Leading zero omitted, Abs format (unit mm)*
G04 Created by KiCad (PCBNEW (6.0.9)) date 2022-11-26 17:52:30*
%MOMM*%
%LPD*%
G01*
G04 APERTURE LIST*
%TA.AperFunction,ComponentPad*%
%ADD10O,1.600000X1.600000*%
%TD*%
%TA.AperFunction,ComponentPad*%
%ADD11R,1.600000X1.600000*%
%TD*%
%TA.AperFunction,ComponentPad*%
%ADD12C,3.300000*%
%TD*%
%TA.AperFunction,ComponentPad*%
%ADD13R,1.700000X1.700000*%
%TD*%
%TA.AperFunction,ComponentPad*%
%ADD14O,1.700000X1.700000*%
%TD*%
%TA.AperFunction,Conductor*%
%ADD15C,0.250000*%
%TD*%
G04 APERTURE END LIST*
D10*
%TO.P,D31,2,A*%
%TO.N,row0*%
X45720000Y-47625000D03*
D11*
%TO.P,D31,1,K*%
%TO.N,Net-(D31-Pad1)*%
X53340000Y-47625000D03*
%TD*%
D12*
%TO.P,SW10,1,1*%
%TO.N,Net-(D1-Pad2)*%
X43815000Y-64770000D03*
%TO.P,SW10,2,2*%
%TO.N,row1*%
X50165000Y-67310000D03*
%TD*%
D11*
%TO.P,D1,1,K*%
%TO.N,col0*%
X38100000Y-56515000D03*
D10*
%TO.P,D1,2,A*%
%TO.N,Net-(D1-Pad2)*%
X38100000Y-64135000D03*
%TD*%
D12*
%TO.P,SW51B1,1,1*%
%TO.N,row5*%
X53340000Y-140970000D03*
%TO.P,SW51B1,2,2*%
%TO.N,Net-(D26-Pad2)*%
X59690000Y-143510000D03*
%TD*%
D11*
%TO.P,D22,1,K*%
%TO.N,col3*%
X95250000Y-113665000D03*
D10*
%TO.P,D22,2,A*%
%TO.N,Net-(D22-Pad2)*%
X95250000Y-121285000D03*
%TD*%
D11*
%TO.P,D32,1,K*%
%TO.N,Net-(D32-Pad1)*%
X72390000Y-47625000D03*
D10*
%TO.P,D32,2,A*%
%TO.N,row0*%
X64770000Y-47625000D03*
%TD*%
D11*
%TO.P,D23,1,K*%
%TO.N,col4*%
X114300000Y-113665000D03*
D10*
%TO.P,D23,2,A*%
%TO.N,Net-(D23-Pad2)*%
X114300000Y-121285000D03*
%TD*%
D12*
%TO.P,SW45,1,1*%
%TO.N,Net-(D24-Pad2)*%
X139065000Y-121920000D03*
%TO.P,SW45,2,2*%
%TO.N,row4*%
X145415000Y-124460000D03*
%TD*%
%TO.P,SW33,1,1*%
%TO.N,Net-(D16-Pad2)*%
X100965000Y-102870000D03*
%TO.P,SW33,2,2*%
%TO.N,row3*%
X107315000Y-105410000D03*
%TD*%
%TO.P,SW15,1,1*%
%TO.N,Net-(D6-Pad2)*%
X139065000Y-64770000D03*
%TO.P,SW15,2,2*%
%TO.N,row1*%
X145415000Y-67310000D03*
%TD*%
%TO.P,SW13,1,1*%
%TO.N,Net-(D4-Pad2)*%
X100965000Y-64770000D03*
%TO.P,SW13,2,2*%
%TO.N,row1*%
X107315000Y-67310000D03*
%TD*%
D11*
%TO.P,D16,1,K*%
%TO.N,col3*%
X95250000Y-94615000D03*
D10*
%TO.P,D16,2,A*%
%TO.N,Net-(D16-Pad2)*%
X95250000Y-102235000D03*
%TD*%
D12*
%TO.P,SW31,1,1*%
%TO.N,Net-(D15-Pad2)*%
X62865000Y-102870000D03*
%TO.P,SW31,2,2*%
%TO.N,row3*%
X69215000Y-105410000D03*
%TD*%
D11*
%TO.P,D19,1,K*%
%TO.N,col0*%
X38100000Y-113665000D03*
D10*
%TO.P,D19,2,A*%
%TO.N,Net-(D19-Pad2)*%
X38100000Y-121285000D03*
%TD*%
D12*
%TO.P,SW51,1,1*%
%TO.N,Net-(D26-Pad2)*%
X62865000Y-140970000D03*
%TO.P,SW51,2,2*%
%TO.N,row5*%
X69215000Y-143510000D03*
%TD*%
%TO.P,SW11,1,1*%
%TO.N,Net-(D2-Pad2)*%
X62865000Y-64770000D03*
%TO.P,SW11,2,2*%
%TO.N,row1*%
X69215000Y-67310000D03*
%TD*%
%TO.P,SW3,1,1*%
%TO.N,col3*%
X100965000Y-40957500D03*
%TO.P,SW3,2,2*%
%TO.N,Net-(D34-Pad1)*%
X107315000Y-43497500D03*
%TD*%
%TO.P,SW0,1,1*%
%TO.N,col0*%
X43815000Y-40957500D03*
%TO.P,SW0,2,2*%
%TO.N,Net-(D31-Pad1)*%
X50165000Y-43497500D03*
%TD*%
D11*
%TO.P,D20,1,K*%
%TO.N,col1*%
X57150000Y-113665000D03*
D10*
%TO.P,D20,2,A*%
%TO.N,Net-(D20-Pad2)*%
X57150000Y-121285000D03*
%TD*%
D11*
%TO.P,D25,1,K*%
%TO.N,col0*%
X38100000Y-132715000D03*
D10*
%TO.P,D25,2,A*%
%TO.N,Net-(D25-Pad2)*%
X38100000Y-140335000D03*
%TD*%
D11*
%TO.P,D36,1,K*%
%TO.N,Net-(D36-Pad1)*%
X149066250Y-47625000D03*
D10*
%TO.P,D36,2,A*%
%TO.N,row0*%
X141446250Y-47625000D03*
%TD*%
D12*
%TO.P,SW52,1,1*%
%TO.N,Net-(D27-Pad2)*%
X81915000Y-140970000D03*
%TO.P,SW52,2,2*%
%TO.N,row5*%
X88265000Y-143510000D03*
%TD*%
D13*
%TO.P,J2,1,Pin_1*%
%TO.N,col0*%
X91281250Y-25400000D03*
D14*
%TO.P,J2,2,Pin_2*%
%TO.N,col1*%
X93821250Y-25400000D03*
%TO.P,J2,3,Pin_3*%
%TO.N,col2*%
X96361250Y-25400000D03*
%TO.P,J2,4,Pin_4*%
%TO.N,col3*%
X98901250Y-25400000D03*
%TO.P,J2,5,Pin_5*%
%TO.N,col4*%
X101441250Y-25400000D03*
%TO.P,J2,6,Pin_6*%
%TO.N,col5*%
X103981250Y-25400000D03*
%TO.P,J2,7,Pin_7*%
%TO.N,LEDIN*%
X106521250Y-25400000D03*
%TO.P,J2,8,Pin_8*%
%TO.N,unconnected-(J2-Pad8)*%
X109061250Y-25400000D03*
%TD*%
D12*
%TO.P,SW34,1,1*%
%TO.N,Net-(D17-Pad2)*%
X120015000Y-102870000D03*
%TO.P,SW34,2,2*%
%TO.N,row3*%
X126365000Y-105410000D03*
%TD*%
%TO.P,SW50,1,1*%
%TO.N,Net-(D25-Pad2)*%
X43815000Y-140970000D03*
%TO.P,SW50,2,2*%
%TO.N,row5*%
X50165000Y-143510000D03*
%TD*%
%TO.P,SW21,1,1*%
%TO.N,Net-(D8-Pad2)*%
X62865000Y-83820000D03*
%TO.P,SW21,2,2*%
%TO.N,row2*%
X69215000Y-86360000D03*
%TD*%
D11*
%TO.P,D13,1,K*%
%TO.N,col2*%
X76200000Y-94615000D03*
D10*
%TO.P,D13,2,A*%
%TO.N,Net-(D13-Pad2)*%
X76200000Y-102235000D03*
%TD*%
D11*
%TO.P,D9,1,K*%
%TO.N,col2*%
X76200000Y-75406250D03*
D10*
%TO.P,D9,2,A*%
%TO.N,Net-(D9-Pad2)*%
X76200000Y-83026250D03*
%TD*%
D12*
%TO.P,SW32,1,1*%
%TO.N,Net-(D13-Pad2)*%
X81915000Y-102870000D03*
%TO.P,SW32,2,2*%
%TO.N,row3*%
X88265000Y-105410000D03*
%TD*%
%TO.P,SW2,1,1*%
%TO.N,col2*%
X81915000Y-40957500D03*
%TO.P,SW2,2,2*%
%TO.N,Net-(D33-Pad1)*%
X88265000Y-43497500D03*
%TD*%
%TO.P,SW54,1,1*%
%TO.N,Net-(D29-Pad2)*%
X120015000Y-140970000D03*
%TO.P,SW54,2,2*%
%TO.N,row5*%
X126365000Y-143510000D03*
%TD*%
%TO.P,SW3B1,1,1*%
%TO.N,Net-(D33-Pad1)*%
X91440000Y-40957500D03*
%TO.P,SW3B1,2,2*%
%TO.N,col3*%
X97790000Y-43497500D03*
%TD*%
%TO.P,SW2B1,1,1*%
%TO.N,Net-(D32-Pad1)*%
X72390000Y-40957500D03*
%TO.P,SW2B1,2,2*%
%TO.N,col2*%
X78740000Y-43497500D03*
%TD*%
D11*
%TO.P,D7,1,K*%
%TO.N,col0*%
X38100000Y-75565000D03*
D10*
%TO.P,D7,2,A*%
%TO.N,Net-(D7-Pad2)*%
X38100000Y-83185000D03*
%TD*%
D12*
%TO.P,SW41,1,1*%
%TO.N,Net-(D20-Pad2)*%
X62865000Y-121920000D03*
%TO.P,SW41,2,2*%
%TO.N,row4*%
X69215000Y-124460000D03*
%TD*%
D11*
%TO.P,D26,1,K*%
%TO.N,col1*%
X56515000Y-147637500D03*
D10*
%TO.P,D26,2,A*%
%TO.N,Net-(D26-Pad2)*%
X64135000Y-147637500D03*
%TD*%
D11*
%TO.P,D17,1,K*%
%TO.N,col4*%
X114300000Y-94615000D03*
D10*
%TO.P,D17,2,A*%
%TO.N,Net-(D17-Pad2)*%
X114300000Y-102235000D03*
%TD*%
D12*
%TO.P,SW1,1,1*%
%TO.N,col1*%
X62865000Y-40957500D03*
%TO.P,SW1,2,2*%
%TO.N,Net-(D32-Pad1)*%
X69215000Y-43497500D03*
%TD*%
D11*
%TO.P,D28,1,K*%
%TO.N,col3*%
X95250000Y-132715000D03*
D10*
%TO.P,D28,2,A*%
%TO.N,Net-(D28-Pad2)*%
X95250000Y-140335000D03*
%TD*%
D11*
%TO.P,D35,1,K*%
%TO.N,Net-(D35-Pad1)*%
X129540000Y-47625000D03*
D10*
%TO.P,D35,2,A*%
%TO.N,row0*%
X121920000Y-47625000D03*
%TD*%
D11*
%TO.P,D4,1,K*%
%TO.N,col3*%
X95250000Y-56515000D03*
D10*
%TO.P,D4,2,A*%
%TO.N,Net-(D4-Pad2)*%
X95250000Y-64135000D03*
%TD*%
D12*
%TO.P,SW55B1,1,1*%
%TO.N,row5*%
X129540000Y-140970000D03*
%TO.P,SW55B1,2,2*%
%TO.N,Net-(SW55B1-Pad2)*%
X135890000Y-143510000D03*
%TD*%
%TO.P,SW25,1,1*%
%TO.N,Net-(D12-Pad2)*%
X139065000Y-83820000D03*
%TO.P,SW25,2,2*%
%TO.N,row2*%
X145415000Y-86360000D03*
%TD*%
D11*
%TO.P,D3,1,K*%
%TO.N,col2*%
X76200000Y-56515000D03*
D10*
%TO.P,D3,2,A*%
%TO.N,Net-(D3-Pad2)*%
X76200000Y-64135000D03*
%TD*%
D11*
%TO.P,D6,1,K*%
%TO.N,col5*%
X133350000Y-56515000D03*
D10*
%TO.P,D6,2,A*%
%TO.N,Net-(D6-Pad2)*%
X133350000Y-64135000D03*
%TD*%
D11*
%TO.P,D18,1,K*%
%TO.N,col5*%
X133350000Y-94615000D03*
D10*
%TO.P,D18,2,A*%
%TO.N,Net-(D18-Pad2)*%
X133350000Y-102235000D03*
%TD*%
D11*
%TO.P,D34,1,K*%
%TO.N,Net-(D34-Pad1)*%
X110490000Y-47625000D03*
D10*
%TO.P,D34,2,A*%
%TO.N,row0*%
X102870000Y-47625000D03*
%TD*%
D12*
%TO.P,SW4B1,1,1*%
%TO.N,Net-(D34-Pad1)*%
X110490000Y-40957500D03*
%TO.P,SW4B1,2,2*%
%TO.N,col4*%
X116840000Y-43497500D03*
%TD*%
%TO.P,SW5,1,1*%
%TO.N,col5*%
X139065000Y-40957500D03*
%TO.P,SW5,2,2*%
%TO.N,Net-(D36-Pad1)*%
X145415000Y-43497500D03*
%TD*%
D11*
%TO.P,D2,1,K*%
%TO.N,col1*%
X57150000Y-56515000D03*
D10*
%TO.P,D2,2,A*%
%TO.N,Net-(D2-Pad2)*%
X57150000Y-64135000D03*
%TD*%
D11*
%TO.P,D30,1,K*%
%TO.N,col5*%
X132715000Y-147637500D03*
D10*
%TO.P,D30,2,A*%
%TO.N,Net-(SW55B1-Pad2)*%
X140335000Y-147637500D03*
%TD*%
D12*
%TO.P,SW20,1,1*%
%TO.N,Net-(D7-Pad2)*%
X43815000Y-83820000D03*
%TO.P,SW20,2,2*%
%TO.N,row2*%
X50165000Y-86360000D03*
%TD*%
D11*
%TO.P,D29,1,K*%
%TO.N,col4*%
X114300000Y-132715000D03*
D10*
%TO.P,D29,2,A*%
%TO.N,Net-(D29-Pad2)*%
X114300000Y-140335000D03*
%TD*%
D12*
%TO.P,SW1B1,1,1*%
%TO.N,Net-(D31-Pad1)*%
X53340000Y-40957500D03*
%TO.P,SW1B1,2,2*%
%TO.N,col1*%
X59690000Y-43497500D03*
%TD*%
%TO.P,SW4,1,1*%
%TO.N,col4*%
X120015000Y-40957500D03*
%TO.P,SW4,2,2*%
%TO.N,Net-(D35-Pad1)*%
X126365000Y-43497500D03*
%TD*%
D11*
%TO.P,D33,1,K*%
%TO.N,Net-(D33-Pad1)*%
X91440000Y-47625000D03*
D10*
%TO.P,D33,2,A*%
%TO.N,row0*%
X83820000Y-47625000D03*
%TD*%
D12*
%TO.P,SW5B1,1,1*%
%TO.N,Net-(D35-Pad1)*%
X129540000Y-40957500D03*
%TO.P,SW5B1,2,2*%
%TO.N,col5*%
X135890000Y-43497500D03*
%TD*%
%TO.P,SW30,1,1*%
%TO.N,Net-(D14-Pad2)*%
X43815000Y-102870000D03*
%TO.P,SW30,2,2*%
%TO.N,row3*%
X50165000Y-105410000D03*
%TD*%
D11*
%TO.P,D27,1,K*%
%TO.N,col2*%
X76200000Y-132715000D03*
D10*
%TO.P,D27,2,A*%
%TO.N,Net-(D27-Pad2)*%
X76200000Y-140335000D03*
%TD*%
D12*
%TO.P,SW42,1,1*%
%TO.N,Net-(D21-Pad2)*%
X81915000Y-121920000D03*
%TO.P,SW42,2,2*%
%TO.N,row4*%
X88265000Y-124460000D03*
%TD*%
%TO.P,SW55,1,1*%
%TO.N,Net-(SW55B1-Pad2)*%
X139065000Y-140970000D03*
%TO.P,SW55,2,2*%
%TO.N,row5*%
X145415000Y-143510000D03*
%TD*%
%TO.P,SW24,1,1*%
%TO.N,Net-(D11-Pad2)*%
X120015000Y-83820000D03*
%TO.P,SW24,2,2*%
%TO.N,row2*%
X126365000Y-86360000D03*
%TD*%
%TO.P,SW40,1,1*%
%TO.N,Net-(D19-Pad2)*%
X43815000Y-121920000D03*
%TO.P,SW40,2,2*%
%TO.N,row4*%
X50165000Y-124460000D03*
%TD*%
D11*
%TO.P,D5,1,K*%
%TO.N,col4*%
X114300000Y-56515000D03*
D10*
%TO.P,D5,2,A*%
%TO.N,Net-(D5-Pad2)*%
X114300000Y-64135000D03*
%TD*%
D12*
%TO.P,SW14,1,1*%
%TO.N,Net-(D5-Pad2)*%
X120015000Y-64770000D03*
%TO.P,SW14,2,2*%
%TO.N,row1*%
X126365000Y-67310000D03*
%TD*%
D11*
%TO.P,D10,1,K*%
%TO.N,col3*%
X95250000Y-75406250D03*
D10*
%TO.P,D10,2,A*%
%TO.N,Net-(D10-Pad2)*%
X95250000Y-83026250D03*
%TD*%
D11*
%TO.P,D15,1,K*%
%TO.N,col1*%
X57150000Y-94615000D03*
D10*
%TO.P,D15,2,A*%
%TO.N,Net-(D15-Pad2)*%
X57150000Y-102235000D03*
%TD*%
D12*
%TO.P,SW44,1,1*%
%TO.N,Net-(D23-Pad2)*%
X120015000Y-121920000D03*
%TO.P,SW44,2,2*%
%TO.N,row4*%
X126365000Y-124460000D03*
%TD*%
D11*
%TO.P,D21,1,K*%
%TO.N,col2*%
X76200000Y-113665000D03*
D10*
%TO.P,D21,2,A*%
%TO.N,Net-(D21-Pad2)*%
X76200000Y-121285000D03*
%TD*%
D13*
%TO.P,J1,1,Pin_1*%
%TO.N,row0*%
X158750000Y-72881250D03*
D14*
%TO.P,J1,2,Pin_2*%
%TO.N,row1*%
X158750000Y-75421250D03*
%TO.P,J1,3,Pin_3*%
%TO.N,row2*%
X158750000Y-77961250D03*
%TO.P,J1,4,Pin_4*%
%TO.N,row3*%
X158750000Y-80501250D03*
%TO.P,J1,5,Pin_5*%
%TO.N,row4*%
X158750000Y-83041250D03*
%TO.P,J1,6,Pin_6*%
%TO.N,row5*%
X158750000Y-85581250D03*
%TO.P,J1,7,Pin_7*%
%TO.N,+5V*%
X158750000Y-88121250D03*
%TO.P,J1,8,Pin_8*%
%TO.N,GND*%
X158750000Y-90661250D03*
%TD*%
D12*
%TO.P,SW23,1,1*%
%TO.N,Net-(D10-Pad2)*%
X100965000Y-83820000D03*
%TO.P,SW23,2,2*%
%TO.N,row2*%
X107315000Y-86360000D03*
%TD*%
D11*
%TO.P,D24,1,K*%
%TO.N,col5*%
X133350000Y-113665000D03*
D10*
%TO.P,D24,2,A*%
%TO.N,Net-(D24-Pad2)*%
X133350000Y-121285000D03*
%TD*%
D11*
%TO.P,D8,1,K*%
%TO.N,col1*%
X57150000Y-75565000D03*
D10*
%TO.P,D8,2,A*%
%TO.N,Net-(D8-Pad2)*%
X57150000Y-83185000D03*
%TD*%
D12*
%TO.P,SW53,1,1*%
%TO.N,Net-(D28-Pad2)*%
X100965000Y-140970000D03*
%TO.P,SW53,2,2*%
%TO.N,row5*%
X107315000Y-143510000D03*
%TD*%
%TO.P,SW12,1,1*%
%TO.N,Net-(D3-Pad2)*%
X81915000Y-64770000D03*
%TO.P,SW12,2,2*%
%TO.N,row1*%
X88265000Y-67310000D03*
%TD*%
D11*
%TO.P,D12,1,K*%
%TO.N,col5*%
X133350000Y-75565000D03*
D10*
%TO.P,D12,2,A*%
%TO.N,Net-(D12-Pad2)*%
X133350000Y-83185000D03*
%TD*%
D12*
%TO.P,SW22,1,1*%
%TO.N,Net-(D9-Pad2)*%
X81915000Y-83820000D03*
%TO.P,SW22,2,2*%
%TO.N,row2*%
X88265000Y-86360000D03*
%TD*%
D11*
%TO.P,D14,1,K*%
%TO.N,col0*%
X38100000Y-94615000D03*
D10*
%TO.P,D14,2,A*%
%TO.N,Net-(D14-Pad2)*%
X38100000Y-102235000D03*
%TD*%
D12*
%TO.P,SW35,1,1*%
%TO.N,Net-(D18-Pad2)*%
X139065000Y-102870000D03*
%TO.P,SW35,2,2*%
%TO.N,row3*%
X145415000Y-105410000D03*
%TD*%
D11*
%TO.P,D11,1,K*%
%TO.N,col4*%
X114300000Y-75565000D03*
D10*
%TO.P,D11,2,A*%
%TO.N,Net-(D11-Pad2)*%
X114300000Y-83185000D03*
%TD*%
D12*
%TO.P,SW43,1,1*%
%TO.N,Net-(D22-Pad2)*%
X100965000Y-121920000D03*
%TO.P,SW43,2,2*%
%TO.N,row4*%
X107315000Y-124460000D03*
%TD*%
D15*
%TO.N,col4*%
X120630001Y-37286251D02*
X120630001Y-40342499D01*
X119062500Y-35718750D02*
X120630001Y-37286251D01*
X120630001Y-40342499D02*
X120015000Y-40957500D01*
X111760000Y-35718750D02*
X119062500Y-35718750D01*
X101441250Y-25400000D02*
X111760000Y-35718750D01*
%TO.N,col0*%
X46037500Y-25400000D02*
X43815000Y-27622500D01*
X46037500Y-25400000D02*
X91281250Y-25400000D01*
X43815000Y-27622500D02*
X43815000Y-40957500D01*
%TO.N,col5*%
X130968750Y-35718750D02*
X137499020Y-35718750D01*
X126206250Y-30956250D02*
X130968750Y-35718750D01*
X103981250Y-25400000D02*
X109537500Y-30956250D01*
X109537500Y-30956250D02*
X126206250Y-30956250D01*
X137499020Y-35718750D02*
X139680001Y-37899732D01*
%TO.N,col3*%
X101600000Y-40322500D02*
X101600000Y-28098750D01*
X101600000Y-28098750D02*
X98901250Y-25400000D01*
X100965000Y-40957500D02*
X101600000Y-40322500D01*
%TO.N,col2*%
X96361250Y-28257500D02*
X96361250Y-25400000D01*
%TO.N,col1*%
X93821250Y-25400000D02*
X93821250Y-26828750D01*
%TO.N,col5*%
X139680001Y-40342499D02*
X139065000Y-40957500D01*
X139680001Y-37899732D02*
X139680001Y-40342499D01*
%TO.N,col4*%
X119380000Y-40957500D02*
X120015000Y-40957500D01*
X116840000Y-43497500D02*
X119380000Y-40957500D01*
%TO.N,col2*%
X81280000Y-40957500D02*
X81915000Y-40957500D01*
X78740000Y-43497500D02*
X81280000Y-40957500D01*
%TO.N,col3*%
X100330000Y-40957500D02*
X100965000Y-40957500D01*
X97790000Y-43497500D02*
X100330000Y-40957500D01*
%TO.N,Net-(D33-Pad1)*%
X90805000Y-40957500D02*
X91440000Y-40957500D01*
X88265000Y-43497500D02*
X90805000Y-40957500D01*
%TO.N,Net-(D31-Pad1)*%
X52705000Y-40957500D02*
X53340000Y-40957500D01*
X50165000Y-43497500D02*
X52705000Y-40957500D01*
%TO.N,col1*%
X62230000Y-40957500D02*
X62865000Y-40957500D01*
X59690000Y-43497500D02*
X62230000Y-40957500D01*
%TO.N,Net-(D32-Pad1)*%
X71755000Y-40957500D02*
X72390000Y-40957500D01*
X69215000Y-43497500D02*
X71755000Y-40957500D01*
%TO.N,col2*%
X94456250Y-30162500D02*
X96361250Y-28257500D01*
X82530001Y-40342499D02*
X82530001Y-33201210D01*
X85568711Y-30162500D02*
X94456250Y-30162500D01*
X81915000Y-40957500D02*
X82530001Y-40342499D01*
X82530001Y-33201210D02*
X85568711Y-30162500D01*
%TO.N,col1*%
X63480001Y-33201210D02*
X63480001Y-40342499D01*
X92075000Y-28575000D02*
X68106211Y-28575000D01*
X63480001Y-40342499D02*
X62865000Y-40957500D01*
X93821250Y-26828750D02*
X92075000Y-28575000D01*
X68106211Y-28575000D02*
X63480001Y-33201210D01*
%TO.N,col0*%
X35718750Y-111283750D02*
X38100000Y-113665000D01*
X38100000Y-113665000D02*
X35718750Y-116046250D01*
%TO.N,row5*%
X153193750Y-135731250D02*
X145415000Y-143510000D01*
X153193750Y-91137500D02*
X153193750Y-135731250D01*
X158750000Y-85581250D02*
X153193750Y-91137500D01*
%TO.N,row4*%
X149205001Y-92586249D02*
X149205001Y-120669999D01*
X149205001Y-120669999D02*
X145415000Y-124460000D01*
X158750000Y-83041250D02*
X149205001Y-92586249D01*
%TO.N,row3*%
X145415000Y-93836250D02*
X145415000Y-105410000D01*
X158750000Y-80501250D02*
X145415000Y-93836250D01*
%TO.N,row2*%
X150351250Y-86360000D02*
X145415000Y-86360000D01*
X158750000Y-77961250D02*
X150351250Y-86360000D01*
%TO.N,row1*%
X153526250Y-75421250D02*
X158750000Y-75421250D01*
X145415000Y-67310000D02*
X153526250Y-75421250D01*
%TO.N,row0*%
X158750000Y-64928750D02*
X158750000Y-72881250D01*
X141446250Y-47625000D02*
X158750000Y-64928750D01*
%TO.N,col5*%
X132715000Y-147637500D02*
X132715000Y-141351928D01*
X130968750Y-139605678D02*
X132715000Y-141351928D01*
%TO.N,col1*%
X54768750Y-139398884D02*
X56515000Y-141145134D01*
X56515000Y-147637500D02*
X56515000Y-141145134D01*
%TO.N,col0*%
X35718750Y-42862500D02*
X35718750Y-54133750D01*
X37623750Y-40957500D02*
X35718750Y-42862500D01*
X35718750Y-54133750D02*
X38100000Y-56515000D01*
X43815000Y-40957500D02*
X37623750Y-40957500D01*
%TO.N,col5*%
X133350000Y-113665000D02*
X130968750Y-116046250D01*
X130968750Y-116046250D02*
X130968750Y-139605678D01*
%TO.N,col4*%
X111918750Y-130333750D02*
X114300000Y-132715000D01*
X111918750Y-116046250D02*
X111918750Y-130333750D01*
X114300000Y-113665000D02*
X111918750Y-116046250D01*
%TO.N,col5*%
X130968750Y-96996250D02*
X130968750Y-111283750D01*
X130968750Y-111283750D02*
X133350000Y-113665000D01*
X133350000Y-94615000D02*
X130968750Y-96996250D01*
%TO.N,col4*%
X111918750Y-111283750D02*
X114300000Y-113665000D01*
X111918750Y-96996250D02*
X111918750Y-111283750D01*
X114300000Y-94615000D02*
X111918750Y-96996250D01*
%TO.N,col5*%
X130968750Y-92233750D02*
X133350000Y-94615000D01*
X130968750Y-77946250D02*
X130968750Y-92233750D01*
X133350000Y-75565000D02*
X130968750Y-77946250D01*
%TO.N,col4*%
X111918750Y-92233750D02*
X114300000Y-94615000D01*
X111918750Y-77946250D02*
X111918750Y-92233750D01*
X114300000Y-75565000D02*
X111918750Y-77946250D01*
%TO.N,col5*%
X130968750Y-73183750D02*
X133350000Y-75565000D01*
X130968750Y-58896250D02*
X130968750Y-73183750D01*
X133350000Y-56515000D02*
X130968750Y-58896250D01*
%TO.N,col4*%
X111918750Y-73183750D02*
X114300000Y-75565000D01*
X111918750Y-58896250D02*
X111918750Y-73183750D01*
X114300000Y-56515000D02*
X111918750Y-58896250D01*
%TO.N,col5*%
X133350000Y-46037500D02*
X135890000Y-43497500D01*
X133350000Y-56515000D02*
X133350000Y-46037500D01*
%TO.N,col4*%
X114300000Y-56515000D02*
X114300000Y-46037500D01*
X114300000Y-46037500D02*
X116840000Y-43497500D01*
%TO.N,col3*%
X95250000Y-46037500D02*
X97790000Y-43497500D01*
X95250000Y-56515000D02*
X95250000Y-46037500D01*
X92868750Y-58896250D02*
X92868750Y-73025000D01*
X92868750Y-73025000D02*
X95250000Y-75406250D01*
X95250000Y-56515000D02*
X92868750Y-58896250D01*
X92868750Y-92233750D02*
X95250000Y-94615000D01*
X92868750Y-77787500D02*
X92868750Y-92233750D01*
X95250000Y-75406250D02*
X92868750Y-77787500D01*
X92868750Y-96996250D02*
X95250000Y-94615000D01*
X95250000Y-113665000D02*
X92868750Y-111283750D01*
X92868750Y-111283750D02*
X92868750Y-96996250D01*
X92868750Y-130333750D02*
X95250000Y-132715000D01*
X92868750Y-116046250D02*
X92868750Y-130333750D01*
X95250000Y-113665000D02*
X92868750Y-116046250D01*
%TO.N,col2*%
X73818750Y-130333750D02*
X76200000Y-132715000D01*
X73818750Y-116046250D02*
X73818750Y-130333750D01*
X76200000Y-113665000D02*
X73818750Y-116046250D01*
X73818750Y-111283750D02*
X76200000Y-113665000D01*
X73818750Y-96996250D02*
X73818750Y-111283750D01*
X76200000Y-94615000D02*
X73818750Y-96996250D01*
X73818750Y-92233750D02*
X76200000Y-94615000D01*
X73818750Y-77787500D02*
X73818750Y-92233750D01*
X76200000Y-75406250D02*
X73818750Y-77787500D01*
X76200000Y-46037500D02*
X78740000Y-43497500D01*
X76200000Y-56515000D02*
X76200000Y-46037500D01*
X73818750Y-73025000D02*
X73818750Y-58896250D01*
X73818750Y-58896250D02*
X76200000Y-56515000D01*
X76200000Y-75406250D02*
X73818750Y-73025000D01*
%TO.N,col1*%
X57150000Y-46037500D02*
X57150000Y-56515000D01*
X59690000Y-43497500D02*
X57150000Y-46037500D01*
X54768750Y-58896250D02*
X57150000Y-56515000D01*
X54768750Y-73183750D02*
X54768750Y-58896250D01*
X57150000Y-75565000D02*
X54768750Y-73183750D01*
X57150000Y-75565000D02*
X54768750Y-77946250D01*
X54768750Y-96996250D02*
X54768750Y-111283750D01*
X57150000Y-94615000D02*
X54768750Y-96996250D01*
X57150000Y-113665000D02*
X54768750Y-116046250D01*
X54768750Y-116046250D02*
X54768750Y-139398884D01*
%TO.N,col0*%
X35718750Y-73183750D02*
X38100000Y-75565000D01*
X35718750Y-58896250D02*
X35718750Y-73183750D01*
X35718750Y-96996250D02*
X35718750Y-111283750D01*
X38100000Y-56515000D02*
X35718750Y-58896250D01*
X35718750Y-130333750D02*
X38100000Y-132715000D01*
X35718750Y-116046250D02*
X35718750Y-130333750D01*
X38100000Y-94615000D02*
X35718750Y-96996250D01*
X35718750Y-77946250D02*
X35718750Y-92233750D01*
X38100000Y-75565000D02*
X35718750Y-77946250D01*
X35718750Y-92233750D02*
X38100000Y-94615000D01*
%TO.N,col1*%
X57150000Y-113665000D02*
X54768750Y-111283750D01*
X54768750Y-92233750D02*
X54768750Y-77946250D01*
X57150000Y-94615000D02*
X54768750Y-92233750D01*
%TD*%
M02*
