%TF.GenerationSoftware,KiCad,Pcbnew,(6.0.9)*%
%TF.CreationDate,2022-11-26T17:52:30+01:00*%
%TF.ProjectId,tekskey,74656b73-6b65-4792-9e6b-696361645f70,rev?*%
%TF.SameCoordinates,Original*%
%TF.FileFunction,Paste,Top*%
%TF.FilePolarity,Positive*%
%FSLAX46Y46*%
G04 Gerber Fmt 4.6, Leading zero omitted, Abs format (unit mm)*
G04 Created by KiCad (PCBNEW (6.0.9)) date 2022-11-26 17:52:30*
%MOMM*%
%LPD*%
G01*
G04 APERTURE LIST*
G04 Aperture macros list*
%AMRoundRect*
0 Rectangle with rounded corners*
0 $1 Rounding radius*
0 $2 $3 $4 $5 $6 $7 $8 $9 X,Y pos of 4 corners*
0 Add a 4 corners polygon primitive as box body*
4,1,4,$2,$3,$4,$5,$6,$7,$8,$9,$2,$3,0*
0 Add four circle primitives for the rounded corners*
1,1,$1+$1,$2,$3*
1,1,$1+$1,$4,$5*
1,1,$1+$1,$6,$7*
1,1,$1+$1,$8,$9*
0 Add four rect primitives between the rounded corners*
20,1,$1+$1,$2,$3,$4,$5,0*
20,1,$1+$1,$4,$5,$6,$7,0*
20,1,$1+$1,$6,$7,$8,$9,0*
20,1,$1+$1,$8,$9,$2,$3,0*%
%AMFreePoly0*
4,1,18,-0.410000,0.265000,0.000000,0.675000,0.328000,0.675000,0.359380,0.668758,0.385983,0.650983,0.403758,0.624380,0.410000,0.593000,0.410000,-0.593000,0.403758,-0.624380,0.385983,-0.650983,0.359380,-0.668758,0.328000,-0.675000,-0.328000,-0.675000,-0.359380,-0.668758,-0.385983,-0.650983,-0.403758,-0.624380,-0.410000,-0.593000,-0.410000,0.265000,-0.410000,0.265000,$1*%
G04 Aperture macros list end*
%ADD10RoundRect,0.082000X0.593000X-0.328000X0.593000X0.328000X-0.593000X0.328000X-0.593000X-0.328000X0*%
%ADD11FreePoly0,90.000000*%
%ADD12RoundRect,0.250000X1.025000X1.000000X-1.025000X1.000000X-1.025000X-1.000000X1.025000X-1.000000X0*%
%ADD13RoundRect,0.082000X-0.593000X0.328000X-0.593000X-0.328000X0.593000X-0.328000X0.593000X0.328000X0*%
%ADD14FreePoly0,270.000000*%
G04 APERTURE END LIST*
D10*
%TO.C,LED10*%
X50350000Y-56400000D03*
X50350000Y-57900000D03*
X44900000Y-56400000D03*
D11*
X44900000Y-57900000D03*
%TD*%
D12*
%TO.C,SW10*%
X40265000Y-64770000D03*
X53715000Y-67310000D03*
%TD*%
%TO.C,SW51B1*%
X49790000Y-140970000D03*
X63240000Y-143510000D03*
%TD*%
D10*
%TO.C,LED54*%
X126550000Y-132600000D03*
X126550000Y-134100000D03*
X121100000Y-132600000D03*
D11*
X121100000Y-134100000D03*
%TD*%
D10*
%TO.C,LED32*%
X88450000Y-94500000D03*
X88450000Y-96000000D03*
X83000000Y-94500000D03*
D11*
X83000000Y-96000000D03*
%TD*%
D13*
%TO.C,LED1B1*%
X73475000Y-34087500D03*
X73475000Y-32587500D03*
X78925000Y-34087500D03*
D14*
X78925000Y-32587500D03*
%TD*%
D10*
%TO.C,LED34*%
X126550000Y-94500000D03*
X126550000Y-96000000D03*
X121100000Y-94500000D03*
D11*
X121100000Y-96000000D03*
%TD*%
D10*
%TO.C,LED13*%
X107500000Y-56400000D03*
X107500000Y-57900000D03*
X102050000Y-56400000D03*
D11*
X102050000Y-57900000D03*
%TD*%
D12*
%TO.C,SW45*%
X135515000Y-121920000D03*
X148965000Y-124460000D03*
%TD*%
%TO.C,SW33*%
X97415000Y-102870000D03*
X110865000Y-105410000D03*
%TD*%
%TO.C,SW15*%
X135515000Y-64770000D03*
X148965000Y-67310000D03*
%TD*%
D10*
%TO.C,LED55*%
X145600000Y-132600000D03*
X145600000Y-134100000D03*
X140150000Y-132600000D03*
D11*
X140150000Y-134100000D03*
%TD*%
D12*
%TO.C,SW13*%
X97415000Y-64770000D03*
X110865000Y-67310000D03*
%TD*%
%TO.C,SW31*%
X59315000Y-102870000D03*
X72765000Y-105410000D03*
%TD*%
%TO.C,SW51*%
X59315000Y-140970000D03*
X72765000Y-143510000D03*
%TD*%
%TO.C,SW11*%
X59315000Y-64770000D03*
X72765000Y-67310000D03*
%TD*%
%TO.C,SW3*%
X97415000Y-40957500D03*
X110865000Y-43497500D03*
%TD*%
D10*
%TO.C,LED53*%
X107500000Y-132600000D03*
X107500000Y-134100000D03*
X102050000Y-132600000D03*
D11*
X102050000Y-134100000D03*
%TD*%
D12*
%TO.C,SW0*%
X40265000Y-40957500D03*
X53715000Y-43497500D03*
%TD*%
D13*
%TO.C,LED4*%
X121100000Y-34087500D03*
X121100000Y-32587500D03*
X126550000Y-34087500D03*
D14*
X126550000Y-32587500D03*
%TD*%
D13*
%TO.C,LED2*%
X83000000Y-34087500D03*
X83000000Y-32587500D03*
X88450000Y-34087500D03*
D14*
X88450000Y-32587500D03*
%TD*%
D12*
%TO.C,SW52*%
X78365000Y-140970000D03*
X91815000Y-143510000D03*
%TD*%
%TO.C,SW34*%
X116465000Y-102870000D03*
X129915000Y-105410000D03*
%TD*%
%TO.C,SW50*%
X40265000Y-140970000D03*
X53715000Y-143510000D03*
%TD*%
%TO.C,SW21*%
X59315000Y-83820000D03*
X72765000Y-86360000D03*
%TD*%
%TO.C,SW32*%
X78365000Y-102870000D03*
X91815000Y-105410000D03*
%TD*%
%TO.C,SW2*%
X78365000Y-40957500D03*
X91815000Y-43497500D03*
%TD*%
D10*
%TO.C,LED12*%
X88450000Y-56400000D03*
X88450000Y-57900000D03*
X83000000Y-56400000D03*
D11*
X83000000Y-57900000D03*
%TD*%
D10*
%TO.C,LED11*%
X69400000Y-56400000D03*
X69400000Y-57900000D03*
X63950000Y-56400000D03*
D11*
X63950000Y-57900000D03*
%TD*%
D10*
%TO.C,LED6*%
X59875000Y-132600000D03*
X59875000Y-134100000D03*
X54425000Y-132600000D03*
D11*
X54425000Y-134100000D03*
%TD*%
D13*
%TO.C,LED0*%
X44900000Y-34087500D03*
X44900000Y-32587500D03*
X50350000Y-34087500D03*
D14*
X50350000Y-32587500D03*
%TD*%
D12*
%TO.C,SW54*%
X116465000Y-140970000D03*
X129915000Y-143510000D03*
%TD*%
D13*
%TO.C,LED41*%
X63950000Y-115050000D03*
X63950000Y-113550000D03*
X69400000Y-115050000D03*
D14*
X69400000Y-113550000D03*
%TD*%
D13*
%TO.C,LED24*%
X121100000Y-76950000D03*
X121100000Y-75450000D03*
X126550000Y-76950000D03*
D14*
X126550000Y-75450000D03*
%TD*%
D12*
%TO.C,SW3B1*%
X87890000Y-40957500D03*
X101340000Y-43497500D03*
%TD*%
%TO.C,SW2B1*%
X68840000Y-40957500D03*
X82290000Y-43497500D03*
%TD*%
%TO.C,SW41*%
X59315000Y-121920000D03*
X72765000Y-124460000D03*
%TD*%
%TO.C,SW1*%
X59315000Y-40957500D03*
X72765000Y-43497500D03*
%TD*%
%TO.C,SW55B1*%
X125990000Y-140970000D03*
X139440000Y-143510000D03*
%TD*%
D10*
%TO.C,LED31*%
X69400000Y-94500000D03*
X69400000Y-96000000D03*
X63950000Y-94500000D03*
D11*
X63950000Y-96000000D03*
%TD*%
D12*
%TO.C,SW25*%
X135515000Y-83820000D03*
X148965000Y-86360000D03*
%TD*%
D13*
%TO.C,LED1*%
X63950000Y-34087500D03*
X63950000Y-32587500D03*
X69400000Y-34087500D03*
D14*
X69400000Y-32587500D03*
%TD*%
D13*
%TO.C,LED21*%
X63950000Y-76950000D03*
X63950000Y-75450000D03*
X69400000Y-76950000D03*
D14*
X69400000Y-75450000D03*
%TD*%
D10*
%TO.C,LED51*%
X69400000Y-132600000D03*
X69400000Y-134100000D03*
X63950000Y-132600000D03*
D11*
X63950000Y-134100000D03*
%TD*%
D13*
%TO.C,LED25*%
X140150000Y-76950000D03*
X140150000Y-75450000D03*
X145600000Y-76950000D03*
D14*
X145600000Y-75450000D03*
%TD*%
D12*
%TO.C,SW4B1*%
X106940000Y-40957500D03*
X120390000Y-43497500D03*
%TD*%
D13*
%TO.C,LED23*%
X102050000Y-76950000D03*
X102050000Y-75450000D03*
X107500000Y-76950000D03*
D14*
X107500000Y-75450000D03*
%TD*%
D12*
%TO.C,SW5*%
X135515000Y-40957500D03*
X148965000Y-43497500D03*
%TD*%
D13*
%TO.C,LED40*%
X44900000Y-115050000D03*
X44900000Y-113550000D03*
X50350000Y-115050000D03*
D14*
X50350000Y-113550000D03*
%TD*%
D10*
%TO.C,LED7*%
X136075000Y-132600000D03*
X136075000Y-134100000D03*
X130625000Y-132600000D03*
D11*
X130625000Y-134100000D03*
%TD*%
D12*
%TO.C,SW20*%
X40265000Y-83820000D03*
X53715000Y-86360000D03*
%TD*%
D13*
%TO.C,LED3B1*%
X111575000Y-34087500D03*
X111575000Y-32587500D03*
X117025000Y-34087500D03*
D14*
X117025000Y-32587500D03*
%TD*%
D12*
%TO.C,SW1B1*%
X49790000Y-40957500D03*
X63240000Y-43497500D03*
%TD*%
D13*
%TO.C,LED5*%
X140150000Y-34087500D03*
X140150000Y-32587500D03*
X145600000Y-34087500D03*
D14*
X145600000Y-32587500D03*
%TD*%
D12*
%TO.C,SW4*%
X116465000Y-40957500D03*
X129915000Y-43497500D03*
%TD*%
D13*
%TO.C,LED0B1*%
X54425000Y-34087500D03*
X54425000Y-32587500D03*
X59875000Y-34087500D03*
D14*
X59875000Y-32587500D03*
%TD*%
D13*
%TO.C,LED3*%
X102050000Y-34087500D03*
X102050000Y-32587500D03*
X107500000Y-34087500D03*
D14*
X107500000Y-32587500D03*
%TD*%
D12*
%TO.C,SW5B1*%
X125990000Y-40957500D03*
X139440000Y-43497500D03*
%TD*%
%TO.C,SW30*%
X40265000Y-102870000D03*
X53715000Y-105410000D03*
%TD*%
D13*
%TO.C,LED42*%
X83000000Y-115050000D03*
X83000000Y-113550000D03*
X88450000Y-115050000D03*
D14*
X88450000Y-113550000D03*
%TD*%
D10*
%TO.C,LED52*%
X88450000Y-132600000D03*
X88450000Y-134100000D03*
X83000000Y-132600000D03*
D11*
X83000000Y-134100000D03*
%TD*%
D13*
%TO.C,LED2B1*%
X92525000Y-34087500D03*
X92525000Y-32587500D03*
X97975000Y-34087500D03*
D14*
X97975000Y-32587500D03*
%TD*%
D12*
%TO.C,SW42*%
X78365000Y-121920000D03*
X91815000Y-124460000D03*
%TD*%
D10*
%TO.C,LED33*%
X107500000Y-94500000D03*
X107500000Y-96000000D03*
X102050000Y-94500000D03*
D11*
X102050000Y-96000000D03*
%TD*%
D12*
%TO.C,SW55*%
X135515000Y-140970000D03*
X148965000Y-143510000D03*
%TD*%
%TO.C,SW24*%
X116465000Y-83820000D03*
X129915000Y-86360000D03*
%TD*%
%TO.C,SW40*%
X40265000Y-121920000D03*
X53715000Y-124460000D03*
%TD*%
%TO.C,SW14*%
X116465000Y-64770000D03*
X129915000Y-67310000D03*
%TD*%
D10*
%TO.C,LED35*%
X145600000Y-94500000D03*
X145600000Y-96000000D03*
X140150000Y-94500000D03*
D11*
X140150000Y-96000000D03*
%TD*%
D12*
%TO.C,SW44*%
X116465000Y-121920000D03*
X129915000Y-124460000D03*
%TD*%
D10*
%TO.C,LED14*%
X126550000Y-56400000D03*
X126550000Y-57900000D03*
X121100000Y-56400000D03*
D11*
X121100000Y-57900000D03*
%TD*%
D12*
%TO.C,SW23*%
X97415000Y-83820000D03*
X110865000Y-86360000D03*
%TD*%
D13*
%TO.C,LED43*%
X102050000Y-115050000D03*
X102050000Y-113550000D03*
X107500000Y-115050000D03*
D14*
X107500000Y-113550000D03*
%TD*%
D13*
%TO.C,LED4B1*%
X130625000Y-34087500D03*
X130625000Y-32587500D03*
X136075000Y-34087500D03*
D14*
X136075000Y-32587500D03*
%TD*%
D12*
%TO.C,SW53*%
X97415000Y-140970000D03*
X110865000Y-143510000D03*
%TD*%
D13*
%TO.C,LED22*%
X83000000Y-76950000D03*
X83000000Y-75450000D03*
X88450000Y-76950000D03*
D14*
X88450000Y-75450000D03*
%TD*%
D13*
%TO.C,LED44*%
X121100000Y-115050000D03*
X121100000Y-113550000D03*
X126550000Y-115050000D03*
D14*
X126550000Y-113550000D03*
%TD*%
D12*
%TO.C,SW12*%
X78365000Y-64770000D03*
X91815000Y-67310000D03*
%TD*%
%TO.C,SW22*%
X78365000Y-83820000D03*
X91815000Y-86360000D03*
%TD*%
D13*
%TO.C,LED20*%
X44900000Y-76950000D03*
X44900000Y-75450000D03*
X50350000Y-76950000D03*
D14*
X50350000Y-75450000D03*
%TD*%
D12*
%TO.C,SW35*%
X135515000Y-102870000D03*
X148965000Y-105410000D03*
%TD*%
D13*
%TO.C,LED45*%
X140150000Y-115050000D03*
X140150000Y-113550000D03*
X145600000Y-115050000D03*
D14*
X145600000Y-113550000D03*
%TD*%
D10*
%TO.C,LED30*%
X50350000Y-94500000D03*
X50350000Y-96000000D03*
X44900000Y-94500000D03*
D11*
X44900000Y-96000000D03*
%TD*%
D12*
%TO.C,SW43*%
X97415000Y-121920000D03*
X110865000Y-124460000D03*
%TD*%
D10*
%TO.C,LED15*%
X145600000Y-56400000D03*
X145600000Y-57900000D03*
X140150000Y-56400000D03*
D11*
X140150000Y-57900000D03*
%TD*%
D10*
%TO.C,LED50*%
X50350000Y-132600000D03*
X50350000Y-134100000D03*
X44900000Y-132600000D03*
D11*
X44900000Y-134100000D03*
%TD*%
M02*
