%TF.GenerationSoftware,KiCad,Pcbnew,(6.0.9)*%
%TF.CreationDate,2022-11-26T17:52:30+01:00*%
%TF.ProjectId,tekskey,74656b73-6b65-4792-9e6b-696361645f70,rev?*%
%TF.SameCoordinates,Original*%
%TF.FileFunction,Soldermask,Bot*%
%TF.FilePolarity,Negative*%
%FSLAX46Y46*%
G04 Gerber Fmt 4.6, Leading zero omitted, Abs format (unit mm)*
G04 Created by KiCad (PCBNEW (6.0.9)) date 2022-11-26 17:52:30*
%MOMM*%
%LPD*%
G01*
G04 APERTURE LIST*
%ADD10O,1.600000X1.600000*%
%ADD11R,1.600000X1.600000*%
%ADD12C,3.987800*%
%ADD13C,1.750000*%
%ADD14C,3.300000*%
%ADD15R,1.700000X1.700000*%
%ADD16O,1.700000X1.700000*%
G04 APERTURE END LIST*
D10*
%TO.C,D31*%
X45720000Y-47625000D03*
D11*
X53340000Y-47625000D03*
%TD*%
D12*
%TO.C,SW10*%
X47625000Y-62230000D03*
D13*
X42545000Y-62230000D03*
X52705000Y-62230000D03*
D14*
X43815000Y-64770000D03*
X50165000Y-67310000D03*
%TD*%
D11*
%TO.C,D1*%
X38100000Y-56515000D03*
D10*
X38100000Y-64135000D03*
%TD*%
D12*
%TO.C,SW51B1*%
X57150000Y-138430000D03*
D13*
X62230000Y-138430000D03*
X52070000Y-138430000D03*
D14*
X53340000Y-140970000D03*
X59690000Y-143510000D03*
%TD*%
D11*
%TO.C,D22*%
X95250000Y-113665000D03*
D10*
X95250000Y-121285000D03*
%TD*%
D11*
%TO.C,D32*%
X72390000Y-47625000D03*
D10*
X64770000Y-47625000D03*
%TD*%
D11*
%TO.C,D23*%
X114300000Y-113665000D03*
D10*
X114300000Y-121285000D03*
%TD*%
D12*
%TO.C,SW45*%
X142875000Y-119380000D03*
D13*
X147955000Y-119380000D03*
X137795000Y-119380000D03*
D14*
X139065000Y-121920000D03*
X145415000Y-124460000D03*
%TD*%
D12*
%TO.C,SW33*%
X104775000Y-100330000D03*
D13*
X99695000Y-100330000D03*
X109855000Y-100330000D03*
D14*
X100965000Y-102870000D03*
X107315000Y-105410000D03*
%TD*%
D13*
%TO.C,SW15*%
X137795000Y-62230000D03*
X147955000Y-62230000D03*
D12*
X142875000Y-62230000D03*
D14*
X139065000Y-64770000D03*
X145415000Y-67310000D03*
%TD*%
D13*
%TO.C,SW13*%
X109855000Y-62230000D03*
D12*
X104775000Y-62230000D03*
D13*
X99695000Y-62230000D03*
D14*
X100965000Y-64770000D03*
X107315000Y-67310000D03*
%TD*%
D11*
%TO.C,D16*%
X95250000Y-94615000D03*
D10*
X95250000Y-102235000D03*
%TD*%
D13*
%TO.C,SW31*%
X71755000Y-100330000D03*
X61595000Y-100330000D03*
D12*
X66675000Y-100330000D03*
D14*
X62865000Y-102870000D03*
X69215000Y-105410000D03*
%TD*%
D11*
%TO.C,D19*%
X38100000Y-113665000D03*
D10*
X38100000Y-121285000D03*
%TD*%
D13*
%TO.C,SW51*%
X71755000Y-138430000D03*
X61595000Y-138430000D03*
D12*
X66675000Y-138430000D03*
D14*
X62865000Y-140970000D03*
X69215000Y-143510000D03*
%TD*%
D13*
%TO.C,SW11*%
X61595000Y-62230000D03*
X71755000Y-62230000D03*
D12*
X66675000Y-62230000D03*
D14*
X62865000Y-64770000D03*
X69215000Y-67310000D03*
%TD*%
D12*
%TO.C,SW3*%
X104775000Y-38417500D03*
D13*
X109855000Y-38417500D03*
X99695000Y-38417500D03*
D14*
X100965000Y-40957500D03*
X107315000Y-43497500D03*
%TD*%
D12*
%TO.C,SW0*%
X47625000Y-38417500D03*
D13*
X52705000Y-38417500D03*
X42545000Y-38417500D03*
D14*
X43815000Y-40957500D03*
X50165000Y-43497500D03*
%TD*%
D11*
%TO.C,D20*%
X57150000Y-113665000D03*
D10*
X57150000Y-121285000D03*
%TD*%
D11*
%TO.C,D25*%
X38100000Y-132715000D03*
D10*
X38100000Y-140335000D03*
%TD*%
D11*
%TO.C,D36*%
X149066250Y-47625000D03*
D10*
X141446250Y-47625000D03*
%TD*%
D12*
%TO.C,SW52*%
X85725000Y-138430000D03*
D13*
X90805000Y-138430000D03*
X80645000Y-138430000D03*
D14*
X81915000Y-140970000D03*
X88265000Y-143510000D03*
%TD*%
D15*
%TO.C,J2*%
X91281250Y-25400000D03*
D16*
X93821250Y-25400000D03*
X96361250Y-25400000D03*
X98901250Y-25400000D03*
X101441250Y-25400000D03*
X103981250Y-25400000D03*
X106521250Y-25400000D03*
X109061250Y-25400000D03*
%TD*%
D13*
%TO.C,SW34*%
X118745000Y-100330000D03*
D12*
X123825000Y-100330000D03*
D13*
X128905000Y-100330000D03*
D14*
X120015000Y-102870000D03*
X126365000Y-105410000D03*
%TD*%
D12*
%TO.C,SW50*%
X47625000Y-138430000D03*
D13*
X52705000Y-138430000D03*
X42545000Y-138430000D03*
D14*
X43815000Y-140970000D03*
X50165000Y-143510000D03*
%TD*%
D12*
%TO.C,SW21*%
X66675000Y-81280000D03*
D13*
X71755000Y-81280000D03*
X61595000Y-81280000D03*
D14*
X62865000Y-83820000D03*
X69215000Y-86360000D03*
%TD*%
D11*
%TO.C,D13*%
X76200000Y-94615000D03*
D10*
X76200000Y-102235000D03*
%TD*%
D11*
%TO.C,D9*%
X76200000Y-75406250D03*
D10*
X76200000Y-83026250D03*
%TD*%
D13*
%TO.C,SW32*%
X80645000Y-100330000D03*
X90805000Y-100330000D03*
D12*
X85725000Y-100330000D03*
D14*
X81915000Y-102870000D03*
X88265000Y-105410000D03*
%TD*%
D13*
%TO.C,SW2*%
X90805000Y-38417500D03*
X80645000Y-38417500D03*
D12*
X85725000Y-38417500D03*
D14*
X81915000Y-40957500D03*
X88265000Y-43497500D03*
%TD*%
D12*
%TO.C,SW54*%
X123825000Y-138430000D03*
D13*
X128905000Y-138430000D03*
X118745000Y-138430000D03*
D14*
X120015000Y-140970000D03*
X126365000Y-143510000D03*
%TD*%
D12*
%TO.C,SW3B1*%
X95250000Y-38417500D03*
D13*
X100330000Y-38417500D03*
X90170000Y-38417500D03*
D14*
X91440000Y-40957500D03*
X97790000Y-43497500D03*
%TD*%
D12*
%TO.C,SW2B1*%
X76200000Y-38417500D03*
D13*
X71120000Y-38417500D03*
X81280000Y-38417500D03*
D14*
X72390000Y-40957500D03*
X78740000Y-43497500D03*
%TD*%
D11*
%TO.C,D7*%
X38100000Y-75565000D03*
D10*
X38100000Y-83185000D03*
%TD*%
D13*
%TO.C,SW41*%
X61595000Y-119380000D03*
D12*
X66675000Y-119380000D03*
D13*
X71755000Y-119380000D03*
D14*
X62865000Y-121920000D03*
X69215000Y-124460000D03*
%TD*%
D11*
%TO.C,D26*%
X56515000Y-147637500D03*
D10*
X64135000Y-147637500D03*
%TD*%
D11*
%TO.C,D17*%
X114300000Y-94615000D03*
D10*
X114300000Y-102235000D03*
%TD*%
D13*
%TO.C,SW1*%
X71755000Y-38417500D03*
X61595000Y-38417500D03*
D12*
X66675000Y-38417500D03*
D14*
X62865000Y-40957500D03*
X69215000Y-43497500D03*
%TD*%
D11*
%TO.C,D28*%
X95250000Y-132715000D03*
D10*
X95250000Y-140335000D03*
%TD*%
D11*
%TO.C,D35*%
X129540000Y-47625000D03*
D10*
X121920000Y-47625000D03*
%TD*%
D11*
%TO.C,D4*%
X95250000Y-56515000D03*
D10*
X95250000Y-64135000D03*
%TD*%
D13*
%TO.C,SW55B1*%
X138430000Y-138430000D03*
D12*
X133350000Y-138430000D03*
D13*
X128270000Y-138430000D03*
D14*
X129540000Y-140970000D03*
X135890000Y-143510000D03*
%TD*%
D12*
%TO.C,SW25*%
X142875000Y-81280000D03*
D13*
X137795000Y-81280000D03*
X147955000Y-81280000D03*
D14*
X139065000Y-83820000D03*
X145415000Y-86360000D03*
%TD*%
D11*
%TO.C,D3*%
X76200000Y-56515000D03*
D10*
X76200000Y-64135000D03*
%TD*%
D11*
%TO.C,D6*%
X133350000Y-56515000D03*
D10*
X133350000Y-64135000D03*
%TD*%
D11*
%TO.C,D18*%
X133350000Y-94615000D03*
D10*
X133350000Y-102235000D03*
%TD*%
D11*
%TO.C,D34*%
X110490000Y-47625000D03*
D10*
X102870000Y-47625000D03*
%TD*%
D12*
%TO.C,SW4B1*%
X114300000Y-38417500D03*
D13*
X109220000Y-38417500D03*
X119380000Y-38417500D03*
D14*
X110490000Y-40957500D03*
X116840000Y-43497500D03*
%TD*%
D13*
%TO.C,SW5*%
X137795000Y-38417500D03*
D12*
X142875000Y-38417500D03*
D13*
X147955000Y-38417500D03*
D14*
X139065000Y-40957500D03*
X145415000Y-43497500D03*
%TD*%
D11*
%TO.C,D2*%
X57150000Y-56515000D03*
D10*
X57150000Y-64135000D03*
%TD*%
D11*
%TO.C,D30*%
X132715000Y-147637500D03*
D10*
X140335000Y-147637500D03*
%TD*%
D13*
%TO.C,SW20*%
X42545000Y-81280000D03*
X52705000Y-81280000D03*
D12*
X47625000Y-81280000D03*
D14*
X43815000Y-83820000D03*
X50165000Y-86360000D03*
%TD*%
D11*
%TO.C,D29*%
X114300000Y-132715000D03*
D10*
X114300000Y-140335000D03*
%TD*%
D13*
%TO.C,SW1B1*%
X62230000Y-38417500D03*
D12*
X57150000Y-38417500D03*
D13*
X52070000Y-38417500D03*
D14*
X53340000Y-40957500D03*
X59690000Y-43497500D03*
%TD*%
D13*
%TO.C,SW4*%
X118745000Y-38417500D03*
D12*
X123825000Y-38417500D03*
D13*
X128905000Y-38417500D03*
D14*
X120015000Y-40957500D03*
X126365000Y-43497500D03*
%TD*%
D11*
%TO.C,D33*%
X91440000Y-47625000D03*
D10*
X83820000Y-47625000D03*
%TD*%
D12*
%TO.C,SW5B1*%
X133350000Y-38417500D03*
D13*
X138430000Y-38417500D03*
X128270000Y-38417500D03*
D14*
X129540000Y-40957500D03*
X135890000Y-43497500D03*
%TD*%
D12*
%TO.C,SW30*%
X47625000Y-100330000D03*
D13*
X42545000Y-100330000D03*
X52705000Y-100330000D03*
D14*
X43815000Y-102870000D03*
X50165000Y-105410000D03*
%TD*%
D11*
%TO.C,D27*%
X76200000Y-132715000D03*
D10*
X76200000Y-140335000D03*
%TD*%
D12*
%TO.C,SW42*%
X85725000Y-119380000D03*
D13*
X80645000Y-119380000D03*
X90805000Y-119380000D03*
D14*
X81915000Y-121920000D03*
X88265000Y-124460000D03*
%TD*%
D13*
%TO.C,SW55*%
X137795000Y-138430000D03*
X147955000Y-138430000D03*
D12*
X142875000Y-138430000D03*
D14*
X139065000Y-140970000D03*
X145415000Y-143510000D03*
%TD*%
D13*
%TO.C,SW24*%
X128905000Y-81280000D03*
D12*
X123825000Y-81280000D03*
D13*
X118745000Y-81280000D03*
D14*
X120015000Y-83820000D03*
X126365000Y-86360000D03*
%TD*%
D13*
%TO.C,SW40*%
X52705000Y-119380000D03*
X42545000Y-119380000D03*
D12*
X47625000Y-119380000D03*
D14*
X43815000Y-121920000D03*
X50165000Y-124460000D03*
%TD*%
D11*
%TO.C,D5*%
X114300000Y-56515000D03*
D10*
X114300000Y-64135000D03*
%TD*%
D13*
%TO.C,SW14*%
X118745000Y-62230000D03*
X128905000Y-62230000D03*
D12*
X123825000Y-62230000D03*
D14*
X120015000Y-64770000D03*
X126365000Y-67310000D03*
%TD*%
D11*
%TO.C,D10*%
X95250000Y-75406250D03*
D10*
X95250000Y-83026250D03*
%TD*%
D11*
%TO.C,D15*%
X57150000Y-94615000D03*
D10*
X57150000Y-102235000D03*
%TD*%
D13*
%TO.C,SW44*%
X118745000Y-119380000D03*
X128905000Y-119380000D03*
D12*
X123825000Y-119380000D03*
D14*
X120015000Y-121920000D03*
X126365000Y-124460000D03*
%TD*%
D11*
%TO.C,D21*%
X76200000Y-113665000D03*
D10*
X76200000Y-121285000D03*
%TD*%
D15*
%TO.C,J1*%
X158750000Y-72881250D03*
D16*
X158750000Y-75421250D03*
X158750000Y-77961250D03*
X158750000Y-80501250D03*
X158750000Y-83041250D03*
X158750000Y-85581250D03*
X158750000Y-88121250D03*
X158750000Y-90661250D03*
%TD*%
D13*
%TO.C,SW23*%
X99695000Y-81280000D03*
D12*
X104775000Y-81280000D03*
D13*
X109855000Y-81280000D03*
D14*
X100965000Y-83820000D03*
X107315000Y-86360000D03*
%TD*%
D11*
%TO.C,D24*%
X133350000Y-113665000D03*
D10*
X133350000Y-121285000D03*
%TD*%
D11*
%TO.C,D8*%
X57150000Y-75565000D03*
D10*
X57150000Y-83185000D03*
%TD*%
D12*
%TO.C,SW53*%
X104775000Y-138430000D03*
D13*
X109855000Y-138430000D03*
X99695000Y-138430000D03*
D14*
X100965000Y-140970000D03*
X107315000Y-143510000D03*
%TD*%
D13*
%TO.C,SW12*%
X80645000Y-62230000D03*
D12*
X85725000Y-62230000D03*
D13*
X90805000Y-62230000D03*
D14*
X81915000Y-64770000D03*
X88265000Y-67310000D03*
%TD*%
D11*
%TO.C,D12*%
X133350000Y-75565000D03*
D10*
X133350000Y-83185000D03*
%TD*%
D13*
%TO.C,SW22*%
X80645000Y-81280000D03*
D12*
X85725000Y-81280000D03*
D13*
X90805000Y-81280000D03*
D14*
X81915000Y-83820000D03*
X88265000Y-86360000D03*
%TD*%
D11*
%TO.C,D14*%
X38100000Y-94615000D03*
D10*
X38100000Y-102235000D03*
%TD*%
D13*
%TO.C,SW35*%
X137795000Y-100330000D03*
X147955000Y-100330000D03*
D12*
X142875000Y-100330000D03*
D14*
X139065000Y-102870000D03*
X145415000Y-105410000D03*
%TD*%
D11*
%TO.C,D11*%
X114300000Y-75565000D03*
D10*
X114300000Y-83185000D03*
%TD*%
D12*
%TO.C,SW43*%
X104775000Y-119380000D03*
D13*
X99695000Y-119380000D03*
X109855000Y-119380000D03*
D14*
X100965000Y-121920000D03*
X107315000Y-124460000D03*
%TD*%
M02*
