%TF.GenerationSoftware,KiCad,Pcbnew,(6.0.9)*%
%TF.CreationDate,2022-11-26T17:52:28+01:00*%
%TF.ProjectId,tekskey,74656b73-6b65-4792-9e6b-696361645f70,rev?*%
%TF.SameCoordinates,Original*%
%TF.FileFunction,Drillmap*%
%TF.FilePolarity,Positive*%
%FSLAX45Y45*%
G04 Gerber Fmt 4.5, Leading zero omitted, Abs format (unit mm)*
G04 Created by KiCad (PCBNEW (6.0.9)) date 2022-11-26 17:52:28*
%MOMM*%
%LPD*%
G01*
G04 APERTURE LIST*
%ADD10C,0.100000*%
%ADD11C,0.200000*%
%ADD12C,0.080000*%
%ADD13C,0.300000*%
G04 APERTURE END LIST*
D10*
X3333750Y-2381250D02*
X16192500Y-2381250D01*
X16192500Y-2381250D02*
X16192500Y-15240000D01*
X16192500Y-15240000D02*
X3333750Y-15240000D01*
X3333750Y-15240000D02*
X3333750Y-2381250D01*
D11*
D12*
X3770000Y-5611500D02*
X3850000Y-5691500D01*
X3850000Y-5611500D02*
X3770000Y-5691500D01*
X3770000Y-6373500D02*
X3850000Y-6453500D01*
X3850000Y-6373500D02*
X3770000Y-6453500D01*
X3770000Y-7516500D02*
X3850000Y-7596500D01*
X3850000Y-7516500D02*
X3770000Y-7596500D01*
X3770000Y-8278500D02*
X3850000Y-8358500D01*
X3850000Y-8278500D02*
X3770000Y-8358500D01*
X3770000Y-9421500D02*
X3850000Y-9501500D01*
X3850000Y-9421500D02*
X3770000Y-9501500D01*
X3770000Y-10183500D02*
X3850000Y-10263500D01*
X3850000Y-10183500D02*
X3770000Y-10263500D01*
X3770000Y-11326500D02*
X3850000Y-11406500D01*
X3850000Y-11326500D02*
X3770000Y-11406500D01*
X3770000Y-12088500D02*
X3850000Y-12168500D01*
X3850000Y-12088500D02*
X3770000Y-12168500D01*
X3770000Y-13231500D02*
X3850000Y-13311500D01*
X3850000Y-13231500D02*
X3770000Y-13311500D01*
X3770000Y-13993500D02*
X3850000Y-14073500D01*
X3850000Y-13993500D02*
X3770000Y-14073500D01*
X4532000Y-4722500D02*
X4612000Y-4802500D01*
X4612000Y-4722500D02*
X4532000Y-4802500D01*
X5294000Y-4722500D02*
X5374000Y-4802500D01*
X5374000Y-4722500D02*
X5294000Y-4802500D01*
X5611500Y-14723750D02*
X5691500Y-14803750D01*
X5691500Y-14723750D02*
X5611500Y-14803750D01*
X5675000Y-5611500D02*
X5755000Y-5691500D01*
X5755000Y-5611500D02*
X5675000Y-5691500D01*
X5675000Y-6373500D02*
X5755000Y-6453500D01*
X5755000Y-6373500D02*
X5675000Y-6453500D01*
X5675000Y-7516500D02*
X5755000Y-7596500D01*
X5755000Y-7516500D02*
X5675000Y-7596500D01*
X5675000Y-8278500D02*
X5755000Y-8358500D01*
X5755000Y-8278500D02*
X5675000Y-8358500D01*
X5675000Y-9421500D02*
X5755000Y-9501500D01*
X5755000Y-9421500D02*
X5675000Y-9501500D01*
X5675000Y-10183500D02*
X5755000Y-10263500D01*
X5755000Y-10183500D02*
X5675000Y-10263500D01*
X5675000Y-11326500D02*
X5755000Y-11406500D01*
X5755000Y-11326500D02*
X5675000Y-11406500D01*
X5675000Y-12088500D02*
X5755000Y-12168500D01*
X5755000Y-12088500D02*
X5675000Y-12168500D01*
X6373500Y-14723750D02*
X6453500Y-14803750D01*
X6453500Y-14723750D02*
X6373500Y-14803750D01*
X6437000Y-4722500D02*
X6517000Y-4802500D01*
X6517000Y-4722500D02*
X6437000Y-4802500D01*
X7199000Y-4722500D02*
X7279000Y-4802500D01*
X7279000Y-4722500D02*
X7199000Y-4802500D01*
X7580000Y-5611500D02*
X7660000Y-5691500D01*
X7660000Y-5611500D02*
X7580000Y-5691500D01*
X7580000Y-6373500D02*
X7660000Y-6453500D01*
X7660000Y-6373500D02*
X7580000Y-6453500D01*
X7580000Y-7500625D02*
X7660000Y-7580625D01*
X7660000Y-7500625D02*
X7580000Y-7580625D01*
X7580000Y-8262625D02*
X7660000Y-8342625D01*
X7660000Y-8262625D02*
X7580000Y-8342625D01*
X7580000Y-9421500D02*
X7660000Y-9501500D01*
X7660000Y-9421500D02*
X7580000Y-9501500D01*
X7580000Y-10183500D02*
X7660000Y-10263500D01*
X7660000Y-10183500D02*
X7580000Y-10263500D01*
X7580000Y-11326500D02*
X7660000Y-11406500D01*
X7660000Y-11326500D02*
X7580000Y-11406500D01*
X7580000Y-12088500D02*
X7660000Y-12168500D01*
X7660000Y-12088500D02*
X7580000Y-12168500D01*
X7580000Y-13231500D02*
X7660000Y-13311500D01*
X7660000Y-13231500D02*
X7580000Y-13311500D01*
X7580000Y-13993500D02*
X7660000Y-14073500D01*
X7660000Y-13993500D02*
X7580000Y-14073500D01*
X8342000Y-4722500D02*
X8422000Y-4802500D01*
X8422000Y-4722500D02*
X8342000Y-4802500D01*
X9104000Y-4722500D02*
X9184000Y-4802500D01*
X9184000Y-4722500D02*
X9104000Y-4802500D01*
X9485000Y-5611500D02*
X9565000Y-5691500D01*
X9565000Y-5611500D02*
X9485000Y-5691500D01*
X9485000Y-6373500D02*
X9565000Y-6453500D01*
X9565000Y-6373500D02*
X9485000Y-6453500D01*
X9485000Y-7500625D02*
X9565000Y-7580625D01*
X9565000Y-7500625D02*
X9485000Y-7580625D01*
X9485000Y-8262625D02*
X9565000Y-8342625D01*
X9565000Y-8262625D02*
X9485000Y-8342625D01*
X9485000Y-9421500D02*
X9565000Y-9501500D01*
X9565000Y-9421500D02*
X9485000Y-9501500D01*
X9485000Y-10183500D02*
X9565000Y-10263500D01*
X9565000Y-10183500D02*
X9485000Y-10263500D01*
X9485000Y-11326500D02*
X9565000Y-11406500D01*
X9565000Y-11326500D02*
X9485000Y-11406500D01*
X9485000Y-12088500D02*
X9565000Y-12168500D01*
X9565000Y-12088500D02*
X9485000Y-12168500D01*
X9485000Y-13231500D02*
X9565000Y-13311500D01*
X9565000Y-13231500D02*
X9485000Y-13311500D01*
X9485000Y-13993500D02*
X9565000Y-14073500D01*
X9565000Y-13993500D02*
X9485000Y-14073500D01*
X10247000Y-4722500D02*
X10327000Y-4802500D01*
X10327000Y-4722500D02*
X10247000Y-4802500D01*
X11009000Y-4722500D02*
X11089000Y-4802500D01*
X11089000Y-4722500D02*
X11009000Y-4802500D01*
X11390000Y-5611500D02*
X11470000Y-5691500D01*
X11470000Y-5611500D02*
X11390000Y-5691500D01*
X11390000Y-6373500D02*
X11470000Y-6453500D01*
X11470000Y-6373500D02*
X11390000Y-6453500D01*
X11390000Y-7516500D02*
X11470000Y-7596500D01*
X11470000Y-7516500D02*
X11390000Y-7596500D01*
X11390000Y-8278500D02*
X11470000Y-8358500D01*
X11470000Y-8278500D02*
X11390000Y-8358500D01*
X11390000Y-9421500D02*
X11470000Y-9501500D01*
X11470000Y-9421500D02*
X11390000Y-9501500D01*
X11390000Y-10183500D02*
X11470000Y-10263500D01*
X11470000Y-10183500D02*
X11390000Y-10263500D01*
X11390000Y-11326500D02*
X11470000Y-11406500D01*
X11470000Y-11326500D02*
X11390000Y-11406500D01*
X11390000Y-12088500D02*
X11470000Y-12168500D01*
X11470000Y-12088500D02*
X11390000Y-12168500D01*
X11390000Y-13231500D02*
X11470000Y-13311500D01*
X11470000Y-13231500D02*
X11390000Y-13311500D01*
X11390000Y-13993500D02*
X11470000Y-14073500D01*
X11470000Y-13993500D02*
X11390000Y-14073500D01*
X12152000Y-4722500D02*
X12232000Y-4802500D01*
X12232000Y-4722500D02*
X12152000Y-4802500D01*
X12914000Y-4722500D02*
X12994000Y-4802500D01*
X12994000Y-4722500D02*
X12914000Y-4802500D01*
X13231500Y-14723750D02*
X13311500Y-14803750D01*
X13311500Y-14723750D02*
X13231500Y-14803750D01*
X13295000Y-5611500D02*
X13375000Y-5691500D01*
X13375000Y-5611500D02*
X13295000Y-5691500D01*
X13295000Y-6373500D02*
X13375000Y-6453500D01*
X13375000Y-6373500D02*
X13295000Y-6453500D01*
X13295000Y-7516500D02*
X13375000Y-7596500D01*
X13375000Y-7516500D02*
X13295000Y-7596500D01*
X13295000Y-8278500D02*
X13375000Y-8358500D01*
X13375000Y-8278500D02*
X13295000Y-8358500D01*
X13295000Y-9421500D02*
X13375000Y-9501500D01*
X13375000Y-9421500D02*
X13295000Y-9501500D01*
X13295000Y-10183500D02*
X13375000Y-10263500D01*
X13375000Y-10183500D02*
X13295000Y-10263500D01*
X13295000Y-11326500D02*
X13375000Y-11406500D01*
X13375000Y-11326500D02*
X13295000Y-11406500D01*
X13295000Y-12088500D02*
X13375000Y-12168500D01*
X13375000Y-12088500D02*
X13295000Y-12168500D01*
X13993500Y-14723750D02*
X14073500Y-14803750D01*
X14073500Y-14723750D02*
X13993500Y-14803750D01*
X14104625Y-4722500D02*
X14184625Y-4802500D01*
X14184625Y-4722500D02*
X14104625Y-4802500D01*
X14866625Y-4722500D02*
X14946625Y-4802500D01*
X14946625Y-4722500D02*
X14866625Y-4802500D01*
D10*
X9178125Y-2540000D02*
G75*
G03*
X9178125Y-2540000I-50000J0D01*
G01*
X9432125Y-2540000D02*
G75*
G03*
X9432125Y-2540000I-50000J0D01*
G01*
X9686125Y-2540000D02*
G75*
G03*
X9686125Y-2540000I-50000J0D01*
G01*
X9940125Y-2540000D02*
G75*
G03*
X9940125Y-2540000I-50000J0D01*
G01*
X10194125Y-2540000D02*
G75*
G03*
X10194125Y-2540000I-50000J0D01*
G01*
X10448125Y-2540000D02*
G75*
G03*
X10448125Y-2540000I-50000J0D01*
G01*
X10702125Y-2540000D02*
G75*
G03*
X10702125Y-2540000I-50000J0D01*
G01*
X10956125Y-2540000D02*
G75*
G03*
X10956125Y-2540000I-50000J0D01*
G01*
X15925000Y-7288125D02*
G75*
G03*
X15925000Y-7288125I-50000J0D01*
G01*
X15925000Y-7542125D02*
G75*
G03*
X15925000Y-7542125I-50000J0D01*
G01*
X15925000Y-7796125D02*
G75*
G03*
X15925000Y-7796125I-50000J0D01*
G01*
X15925000Y-8050125D02*
G75*
G03*
X15925000Y-8050125I-50000J0D01*
G01*
X15925000Y-8304125D02*
G75*
G03*
X15925000Y-8304125I-50000J0D01*
G01*
X15925000Y-8558125D02*
G75*
G03*
X15925000Y-8558125I-50000J0D01*
G01*
X15925000Y-8812125D02*
G75*
G03*
X15925000Y-8812125I-50000J0D01*
G01*
X15925000Y-9066125D02*
G75*
G03*
X15925000Y-9066125I-50000J0D01*
G01*
D13*
X4381500Y-3945750D02*
X4381500Y-4245750D01*
X4231500Y-4095750D02*
X4531500Y-4095750D01*
X4381500Y-6327000D02*
X4381500Y-6627000D01*
X4231500Y-6477000D02*
X4531500Y-6477000D01*
X4381500Y-8232000D02*
X4381500Y-8532000D01*
X4231500Y-8382000D02*
X4531500Y-8382000D01*
X4381500Y-10137000D02*
X4381500Y-10437000D01*
X4231500Y-10287000D02*
X4531500Y-10287000D01*
X4381500Y-12042000D02*
X4381500Y-12342000D01*
X4231500Y-12192000D02*
X4531500Y-12192000D01*
X4381500Y-13947000D02*
X4381500Y-14247000D01*
X4231500Y-14097000D02*
X4531500Y-14097000D01*
X5016500Y-4199750D02*
X5016500Y-4499750D01*
X4866500Y-4349750D02*
X5166500Y-4349750D01*
X5016500Y-6581000D02*
X5016500Y-6881000D01*
X4866500Y-6731000D02*
X5166500Y-6731000D01*
X5016500Y-8486000D02*
X5016500Y-8786000D01*
X4866500Y-8636000D02*
X5166500Y-8636000D01*
X5016500Y-10391000D02*
X5016500Y-10691000D01*
X4866500Y-10541000D02*
X5166500Y-10541000D01*
X5016500Y-12296000D02*
X5016500Y-12596000D01*
X4866500Y-12446000D02*
X5166500Y-12446000D01*
X5016500Y-14201000D02*
X5016500Y-14501000D01*
X4866500Y-14351000D02*
X5166500Y-14351000D01*
X5334000Y-3945750D02*
X5334000Y-4245750D01*
X5184000Y-4095750D02*
X5484000Y-4095750D01*
X5334000Y-13947000D02*
X5334000Y-14247000D01*
X5184000Y-14097000D02*
X5484000Y-14097000D01*
X5969000Y-4199750D02*
X5969000Y-4499750D01*
X5819000Y-4349750D02*
X6119000Y-4349750D01*
X5969000Y-14201000D02*
X5969000Y-14501000D01*
X5819000Y-14351000D02*
X6119000Y-14351000D01*
X6286500Y-3945750D02*
X6286500Y-4245750D01*
X6136500Y-4095750D02*
X6436500Y-4095750D01*
X6286500Y-6327000D02*
X6286500Y-6627000D01*
X6136500Y-6477000D02*
X6436500Y-6477000D01*
X6286500Y-8232000D02*
X6286500Y-8532000D01*
X6136500Y-8382000D02*
X6436500Y-8382000D01*
X6286500Y-10137000D02*
X6286500Y-10437000D01*
X6136500Y-10287000D02*
X6436500Y-10287000D01*
X6286500Y-12042000D02*
X6286500Y-12342000D01*
X6136500Y-12192000D02*
X6436500Y-12192000D01*
X6286500Y-13947000D02*
X6286500Y-14247000D01*
X6136500Y-14097000D02*
X6436500Y-14097000D01*
X6921500Y-4199750D02*
X6921500Y-4499750D01*
X6771500Y-4349750D02*
X7071500Y-4349750D01*
X6921500Y-6581000D02*
X6921500Y-6881000D01*
X6771500Y-6731000D02*
X7071500Y-6731000D01*
X6921500Y-8486000D02*
X6921500Y-8786000D01*
X6771500Y-8636000D02*
X7071500Y-8636000D01*
X6921500Y-10391000D02*
X6921500Y-10691000D01*
X6771500Y-10541000D02*
X7071500Y-10541000D01*
X6921500Y-12296000D02*
X6921500Y-12596000D01*
X6771500Y-12446000D02*
X7071500Y-12446000D01*
X6921500Y-14201000D02*
X6921500Y-14501000D01*
X6771500Y-14351000D02*
X7071500Y-14351000D01*
X7239000Y-3945750D02*
X7239000Y-4245750D01*
X7089000Y-4095750D02*
X7389000Y-4095750D01*
X7874000Y-4199750D02*
X7874000Y-4499750D01*
X7724000Y-4349750D02*
X8024000Y-4349750D01*
X8191500Y-3945750D02*
X8191500Y-4245750D01*
X8041500Y-4095750D02*
X8341500Y-4095750D01*
X8191500Y-6327000D02*
X8191500Y-6627000D01*
X8041500Y-6477000D02*
X8341500Y-6477000D01*
X8191500Y-8232000D02*
X8191500Y-8532000D01*
X8041500Y-8382000D02*
X8341500Y-8382000D01*
X8191500Y-10137000D02*
X8191500Y-10437000D01*
X8041500Y-10287000D02*
X8341500Y-10287000D01*
X8191500Y-12042000D02*
X8191500Y-12342000D01*
X8041500Y-12192000D02*
X8341500Y-12192000D01*
X8191500Y-13947000D02*
X8191500Y-14247000D01*
X8041500Y-14097000D02*
X8341500Y-14097000D01*
X8826500Y-4199750D02*
X8826500Y-4499750D01*
X8676500Y-4349750D02*
X8976500Y-4349750D01*
X8826500Y-6581000D02*
X8826500Y-6881000D01*
X8676500Y-6731000D02*
X8976500Y-6731000D01*
X8826500Y-8486000D02*
X8826500Y-8786000D01*
X8676500Y-8636000D02*
X8976500Y-8636000D01*
X8826500Y-10391000D02*
X8826500Y-10691000D01*
X8676500Y-10541000D02*
X8976500Y-10541000D01*
X8826500Y-12296000D02*
X8826500Y-12596000D01*
X8676500Y-12446000D02*
X8976500Y-12446000D01*
X8826500Y-14201000D02*
X8826500Y-14501000D01*
X8676500Y-14351000D02*
X8976500Y-14351000D01*
X9144000Y-3945750D02*
X9144000Y-4245750D01*
X8994000Y-4095750D02*
X9294000Y-4095750D01*
X9779000Y-4199750D02*
X9779000Y-4499750D01*
X9629000Y-4349750D02*
X9929000Y-4349750D01*
X10096500Y-3945750D02*
X10096500Y-4245750D01*
X9946500Y-4095750D02*
X10246500Y-4095750D01*
X10096500Y-6327000D02*
X10096500Y-6627000D01*
X9946500Y-6477000D02*
X10246500Y-6477000D01*
X10096500Y-8232000D02*
X10096500Y-8532000D01*
X9946500Y-8382000D02*
X10246500Y-8382000D01*
X10096500Y-10137000D02*
X10096500Y-10437000D01*
X9946500Y-10287000D02*
X10246500Y-10287000D01*
X10096500Y-12042000D02*
X10096500Y-12342000D01*
X9946500Y-12192000D02*
X10246500Y-12192000D01*
X10096500Y-13947000D02*
X10096500Y-14247000D01*
X9946500Y-14097000D02*
X10246500Y-14097000D01*
X10731500Y-4199750D02*
X10731500Y-4499750D01*
X10581500Y-4349750D02*
X10881500Y-4349750D01*
X10731500Y-6581000D02*
X10731500Y-6881000D01*
X10581500Y-6731000D02*
X10881500Y-6731000D01*
X10731500Y-8486000D02*
X10731500Y-8786000D01*
X10581500Y-8636000D02*
X10881500Y-8636000D01*
X10731500Y-10391000D02*
X10731500Y-10691000D01*
X10581500Y-10541000D02*
X10881500Y-10541000D01*
X10731500Y-12296000D02*
X10731500Y-12596000D01*
X10581500Y-12446000D02*
X10881500Y-12446000D01*
X10731500Y-14201000D02*
X10731500Y-14501000D01*
X10581500Y-14351000D02*
X10881500Y-14351000D01*
X11049000Y-3945750D02*
X11049000Y-4245750D01*
X10899000Y-4095750D02*
X11199000Y-4095750D01*
X11684000Y-4199750D02*
X11684000Y-4499750D01*
X11534000Y-4349750D02*
X11834000Y-4349750D01*
X12001500Y-3945750D02*
X12001500Y-4245750D01*
X11851500Y-4095750D02*
X12151500Y-4095750D01*
X12001500Y-6327000D02*
X12001500Y-6627000D01*
X11851500Y-6477000D02*
X12151500Y-6477000D01*
X12001500Y-8232000D02*
X12001500Y-8532000D01*
X11851500Y-8382000D02*
X12151500Y-8382000D01*
X12001500Y-10137000D02*
X12001500Y-10437000D01*
X11851500Y-10287000D02*
X12151500Y-10287000D01*
X12001500Y-12042000D02*
X12001500Y-12342000D01*
X11851500Y-12192000D02*
X12151500Y-12192000D01*
X12001500Y-13947000D02*
X12001500Y-14247000D01*
X11851500Y-14097000D02*
X12151500Y-14097000D01*
X12636500Y-4199750D02*
X12636500Y-4499750D01*
X12486500Y-4349750D02*
X12786500Y-4349750D01*
X12636500Y-6581000D02*
X12636500Y-6881000D01*
X12486500Y-6731000D02*
X12786500Y-6731000D01*
X12636500Y-8486000D02*
X12636500Y-8786000D01*
X12486500Y-8636000D02*
X12786500Y-8636000D01*
X12636500Y-10391000D02*
X12636500Y-10691000D01*
X12486500Y-10541000D02*
X12786500Y-10541000D01*
X12636500Y-12296000D02*
X12636500Y-12596000D01*
X12486500Y-12446000D02*
X12786500Y-12446000D01*
X12636500Y-14201000D02*
X12636500Y-14501000D01*
X12486500Y-14351000D02*
X12786500Y-14351000D01*
X12954000Y-3945750D02*
X12954000Y-4245750D01*
X12804000Y-4095750D02*
X13104000Y-4095750D01*
X12954000Y-13947000D02*
X12954000Y-14247000D01*
X12804000Y-14097000D02*
X13104000Y-14097000D01*
X13589000Y-4199750D02*
X13589000Y-4499750D01*
X13439000Y-4349750D02*
X13739000Y-4349750D01*
X13589000Y-14201000D02*
X13589000Y-14501000D01*
X13439000Y-14351000D02*
X13739000Y-14351000D01*
X13906500Y-3945750D02*
X13906500Y-4245750D01*
X13756500Y-4095750D02*
X14056500Y-4095750D01*
X13906500Y-6327000D02*
X13906500Y-6627000D01*
X13756500Y-6477000D02*
X14056500Y-6477000D01*
X13906500Y-8232000D02*
X13906500Y-8532000D01*
X13756500Y-8382000D02*
X14056500Y-8382000D01*
X13906500Y-10137000D02*
X13906500Y-10437000D01*
X13756500Y-10287000D02*
X14056500Y-10287000D01*
X13906500Y-12042000D02*
X13906500Y-12342000D01*
X13756500Y-12192000D02*
X14056500Y-12192000D01*
X13906500Y-13947000D02*
X13906500Y-14247000D01*
X13756500Y-14097000D02*
X14056500Y-14097000D01*
X14541500Y-4199750D02*
X14541500Y-4499750D01*
X14391500Y-4349750D02*
X14691500Y-4349750D01*
X14541500Y-6581000D02*
X14541500Y-6881000D01*
X14391500Y-6731000D02*
X14691500Y-6731000D01*
X14541500Y-8486000D02*
X14541500Y-8786000D01*
X14391500Y-8636000D02*
X14691500Y-8636000D01*
X14541500Y-10391000D02*
X14541500Y-10691000D01*
X14391500Y-10541000D02*
X14691500Y-10541000D01*
X14541500Y-12296000D02*
X14541500Y-12596000D01*
X14391500Y-12446000D02*
X14691500Y-12446000D01*
X14541500Y-14201000D02*
X14541500Y-14501000D01*
X14391500Y-14351000D02*
X14691500Y-14351000D01*
D11*
X3586369Y-15555476D02*
X3586369Y-15355476D01*
X3633988Y-15355476D01*
X3662559Y-15365000D01*
X3681607Y-15384048D01*
X3691131Y-15403095D01*
X3700655Y-15441190D01*
X3700655Y-15469762D01*
X3691131Y-15507857D01*
X3681607Y-15526905D01*
X3662559Y-15545952D01*
X3633988Y-15555476D01*
X3586369Y-15555476D01*
X3786369Y-15555476D02*
X3786369Y-15422143D01*
X3786369Y-15460238D02*
X3795893Y-15441190D01*
X3805417Y-15431667D01*
X3824464Y-15422143D01*
X3843512Y-15422143D01*
X3910178Y-15555476D02*
X3910178Y-15422143D01*
X3910178Y-15355476D02*
X3900655Y-15365000D01*
X3910178Y-15374524D01*
X3919702Y-15365000D01*
X3910178Y-15355476D01*
X3910178Y-15374524D01*
X4033988Y-15555476D02*
X4014940Y-15545952D01*
X4005417Y-15526905D01*
X4005417Y-15355476D01*
X4138750Y-15555476D02*
X4119702Y-15545952D01*
X4110178Y-15526905D01*
X4110178Y-15355476D01*
X4367321Y-15555476D02*
X4367321Y-15355476D01*
X4433988Y-15498333D01*
X4500655Y-15355476D01*
X4500655Y-15555476D01*
X4681607Y-15555476D02*
X4681607Y-15450714D01*
X4672083Y-15431667D01*
X4653036Y-15422143D01*
X4614940Y-15422143D01*
X4595893Y-15431667D01*
X4681607Y-15545952D02*
X4662560Y-15555476D01*
X4614940Y-15555476D01*
X4595893Y-15545952D01*
X4586369Y-15526905D01*
X4586369Y-15507857D01*
X4595893Y-15488809D01*
X4614940Y-15479286D01*
X4662560Y-15479286D01*
X4681607Y-15469762D01*
X4776845Y-15422143D02*
X4776845Y-15622143D01*
X4776845Y-15431667D02*
X4795893Y-15422143D01*
X4833988Y-15422143D01*
X4853036Y-15431667D01*
X4862560Y-15441190D01*
X4872083Y-15460238D01*
X4872083Y-15517381D01*
X4862560Y-15536428D01*
X4853036Y-15545952D01*
X4833988Y-15555476D01*
X4795893Y-15555476D01*
X4776845Y-15545952D01*
X4957798Y-15536428D02*
X4967321Y-15545952D01*
X4957798Y-15555476D01*
X4948274Y-15545952D01*
X4957798Y-15536428D01*
X4957798Y-15555476D01*
X4957798Y-15431667D02*
X4967321Y-15441190D01*
X4957798Y-15450714D01*
X4948274Y-15441190D01*
X4957798Y-15431667D01*
X4957798Y-15450714D01*
D12*
X3248750Y-15845000D02*
X3328750Y-15925000D01*
X3328750Y-15845000D02*
X3248750Y-15925000D01*
D11*
X3624464Y-15775476D02*
X3643512Y-15775476D01*
X3662559Y-15785000D01*
X3672083Y-15794524D01*
X3681607Y-15813571D01*
X3691131Y-15851667D01*
X3691131Y-15899286D01*
X3681607Y-15937381D01*
X3672083Y-15956428D01*
X3662559Y-15965952D01*
X3643512Y-15975476D01*
X3624464Y-15975476D01*
X3605417Y-15965952D01*
X3595893Y-15956428D01*
X3586369Y-15937381D01*
X3576845Y-15899286D01*
X3576845Y-15851667D01*
X3586369Y-15813571D01*
X3595893Y-15794524D01*
X3605417Y-15785000D01*
X3624464Y-15775476D01*
X3776845Y-15956428D02*
X3786369Y-15965952D01*
X3776845Y-15975476D01*
X3767321Y-15965952D01*
X3776845Y-15956428D01*
X3776845Y-15975476D01*
X3900655Y-15861190D02*
X3881607Y-15851667D01*
X3872083Y-15842143D01*
X3862559Y-15823095D01*
X3862559Y-15813571D01*
X3872083Y-15794524D01*
X3881607Y-15785000D01*
X3900655Y-15775476D01*
X3938750Y-15775476D01*
X3957798Y-15785000D01*
X3967321Y-15794524D01*
X3976845Y-15813571D01*
X3976845Y-15823095D01*
X3967321Y-15842143D01*
X3957798Y-15851667D01*
X3938750Y-15861190D01*
X3900655Y-15861190D01*
X3881607Y-15870714D01*
X3872083Y-15880238D01*
X3862559Y-15899286D01*
X3862559Y-15937381D01*
X3872083Y-15956428D01*
X3881607Y-15965952D01*
X3900655Y-15975476D01*
X3938750Y-15975476D01*
X3957798Y-15965952D01*
X3967321Y-15956428D01*
X3976845Y-15937381D01*
X3976845Y-15899286D01*
X3967321Y-15880238D01*
X3957798Y-15870714D01*
X3938750Y-15861190D01*
X4100655Y-15775476D02*
X4119702Y-15775476D01*
X4138750Y-15785000D01*
X4148274Y-15794524D01*
X4157798Y-15813571D01*
X4167321Y-15851667D01*
X4167321Y-15899286D01*
X4157798Y-15937381D01*
X4148274Y-15956428D01*
X4138750Y-15965952D01*
X4119702Y-15975476D01*
X4100655Y-15975476D01*
X4081607Y-15965952D01*
X4072083Y-15956428D01*
X4062559Y-15937381D01*
X4053036Y-15899286D01*
X4053036Y-15851667D01*
X4062559Y-15813571D01*
X4072083Y-15794524D01*
X4081607Y-15785000D01*
X4100655Y-15775476D01*
X4291131Y-15775476D02*
X4310179Y-15775476D01*
X4329226Y-15785000D01*
X4338750Y-15794524D01*
X4348274Y-15813571D01*
X4357798Y-15851667D01*
X4357798Y-15899286D01*
X4348274Y-15937381D01*
X4338750Y-15956428D01*
X4329226Y-15965952D01*
X4310179Y-15975476D01*
X4291131Y-15975476D01*
X4272083Y-15965952D01*
X4262560Y-15956428D01*
X4253036Y-15937381D01*
X4243512Y-15899286D01*
X4243512Y-15851667D01*
X4253036Y-15813571D01*
X4262560Y-15794524D01*
X4272083Y-15785000D01*
X4291131Y-15775476D01*
X4443512Y-15975476D02*
X4443512Y-15842143D01*
X4443512Y-15861190D02*
X4453036Y-15851667D01*
X4472083Y-15842143D01*
X4500655Y-15842143D01*
X4519702Y-15851667D01*
X4529226Y-15870714D01*
X4529226Y-15975476D01*
X4529226Y-15870714D02*
X4538750Y-15851667D01*
X4557798Y-15842143D01*
X4586369Y-15842143D01*
X4605417Y-15851667D01*
X4614940Y-15870714D01*
X4614940Y-15975476D01*
X4710179Y-15975476D02*
X4710179Y-15842143D01*
X4710179Y-15861190D02*
X4719702Y-15851667D01*
X4738750Y-15842143D01*
X4767321Y-15842143D01*
X4786369Y-15851667D01*
X4795893Y-15870714D01*
X4795893Y-15975476D01*
X4795893Y-15870714D02*
X4805417Y-15851667D01*
X4824464Y-15842143D01*
X4853036Y-15842143D01*
X4872083Y-15851667D01*
X4881607Y-15870714D01*
X4881607Y-15975476D01*
X5272083Y-15765952D02*
X5100655Y-16023095D01*
X5529226Y-15775476D02*
X5548274Y-15775476D01*
X5567321Y-15785000D01*
X5576845Y-15794524D01*
X5586369Y-15813571D01*
X5595893Y-15851667D01*
X5595893Y-15899286D01*
X5586369Y-15937381D01*
X5576845Y-15956428D01*
X5567321Y-15965952D01*
X5548274Y-15975476D01*
X5529226Y-15975476D01*
X5510179Y-15965952D01*
X5500655Y-15956428D01*
X5491131Y-15937381D01*
X5481607Y-15899286D01*
X5481607Y-15851667D01*
X5491131Y-15813571D01*
X5500655Y-15794524D01*
X5510179Y-15785000D01*
X5529226Y-15775476D01*
X5681607Y-15956428D02*
X5691131Y-15965952D01*
X5681607Y-15975476D01*
X5672083Y-15965952D01*
X5681607Y-15956428D01*
X5681607Y-15975476D01*
X5814940Y-15775476D02*
X5833988Y-15775476D01*
X5853036Y-15785000D01*
X5862559Y-15794524D01*
X5872083Y-15813571D01*
X5881607Y-15851667D01*
X5881607Y-15899286D01*
X5872083Y-15937381D01*
X5862559Y-15956428D01*
X5853036Y-15965952D01*
X5833988Y-15975476D01*
X5814940Y-15975476D01*
X5795893Y-15965952D01*
X5786369Y-15956428D01*
X5776845Y-15937381D01*
X5767321Y-15899286D01*
X5767321Y-15851667D01*
X5776845Y-15813571D01*
X5786369Y-15794524D01*
X5795893Y-15785000D01*
X5814940Y-15775476D01*
X5948274Y-15775476D02*
X6072083Y-15775476D01*
X6005417Y-15851667D01*
X6033988Y-15851667D01*
X6053036Y-15861190D01*
X6062559Y-15870714D01*
X6072083Y-15889762D01*
X6072083Y-15937381D01*
X6062559Y-15956428D01*
X6053036Y-15965952D01*
X6033988Y-15975476D01*
X5976845Y-15975476D01*
X5957798Y-15965952D01*
X5948274Y-15956428D01*
X6262559Y-15975476D02*
X6148274Y-15975476D01*
X6205417Y-15975476D02*
X6205417Y-15775476D01*
X6186369Y-15804048D01*
X6167321Y-15823095D01*
X6148274Y-15832619D01*
X6443512Y-15775476D02*
X6348274Y-15775476D01*
X6338750Y-15870714D01*
X6348274Y-15861190D01*
X6367321Y-15851667D01*
X6414940Y-15851667D01*
X6433988Y-15861190D01*
X6443512Y-15870714D01*
X6453036Y-15889762D01*
X6453036Y-15937381D01*
X6443512Y-15956428D01*
X6433988Y-15965952D01*
X6414940Y-15975476D01*
X6367321Y-15975476D01*
X6348274Y-15965952D01*
X6338750Y-15956428D01*
X6529226Y-15775476D02*
X6529226Y-15813571D01*
X6605417Y-15775476D02*
X6605417Y-15813571D01*
X6900655Y-16051667D02*
X6891131Y-16042143D01*
X6872083Y-16013571D01*
X6862559Y-15994524D01*
X6853036Y-15965952D01*
X6843512Y-15918333D01*
X6843512Y-15880238D01*
X6853036Y-15832619D01*
X6862559Y-15804048D01*
X6872083Y-15785000D01*
X6891131Y-15756428D01*
X6900655Y-15746905D01*
X6957798Y-15775476D02*
X7091131Y-15775476D01*
X7005417Y-15975476D01*
X7157798Y-15794524D02*
X7167321Y-15785000D01*
X7186369Y-15775476D01*
X7233988Y-15775476D01*
X7253036Y-15785000D01*
X7262559Y-15794524D01*
X7272083Y-15813571D01*
X7272083Y-15832619D01*
X7262559Y-15861190D01*
X7148274Y-15975476D01*
X7272083Y-15975476D01*
X7510178Y-15975476D02*
X7510178Y-15775476D01*
X7595893Y-15975476D02*
X7595893Y-15870714D01*
X7586369Y-15851667D01*
X7567321Y-15842143D01*
X7538750Y-15842143D01*
X7519702Y-15851667D01*
X7510178Y-15861190D01*
X7719702Y-15975476D02*
X7700655Y-15965952D01*
X7691131Y-15956428D01*
X7681607Y-15937381D01*
X7681607Y-15880238D01*
X7691131Y-15861190D01*
X7700655Y-15851667D01*
X7719702Y-15842143D01*
X7748274Y-15842143D01*
X7767321Y-15851667D01*
X7776845Y-15861190D01*
X7786369Y-15880238D01*
X7786369Y-15937381D01*
X7776845Y-15956428D01*
X7767321Y-15965952D01*
X7748274Y-15975476D01*
X7719702Y-15975476D01*
X7900655Y-15975476D02*
X7881607Y-15965952D01*
X7872083Y-15946905D01*
X7872083Y-15775476D01*
X8053036Y-15965952D02*
X8033988Y-15975476D01*
X7995893Y-15975476D01*
X7976845Y-15965952D01*
X7967321Y-15946905D01*
X7967321Y-15870714D01*
X7976845Y-15851667D01*
X7995893Y-15842143D01*
X8033988Y-15842143D01*
X8053036Y-15851667D01*
X8062559Y-15870714D01*
X8062559Y-15889762D01*
X7967321Y-15908809D01*
X8138750Y-15965952D02*
X8157798Y-15975476D01*
X8195893Y-15975476D01*
X8214940Y-15965952D01*
X8224464Y-15946905D01*
X8224464Y-15937381D01*
X8214940Y-15918333D01*
X8195893Y-15908809D01*
X8167321Y-15908809D01*
X8148274Y-15899286D01*
X8138750Y-15880238D01*
X8138750Y-15870714D01*
X8148274Y-15851667D01*
X8167321Y-15842143D01*
X8195893Y-15842143D01*
X8214940Y-15851667D01*
X8291131Y-16051667D02*
X8300655Y-16042143D01*
X8319702Y-16013571D01*
X8329226Y-15994524D01*
X8338750Y-15965952D01*
X8348274Y-15918333D01*
X8348274Y-15880238D01*
X8338750Y-15832619D01*
X8329226Y-15804048D01*
X8319702Y-15785000D01*
X8300655Y-15756428D01*
X8291131Y-15746905D01*
D10*
X3328750Y-16149000D02*
G75*
G03*
X3328750Y-16149000I-50000J0D01*
G01*
D11*
X3691131Y-16239476D02*
X3576845Y-16239476D01*
X3633988Y-16239476D02*
X3633988Y-16039476D01*
X3614940Y-16068048D01*
X3595893Y-16087095D01*
X3576845Y-16096619D01*
X3776845Y-16220428D02*
X3786369Y-16229952D01*
X3776845Y-16239476D01*
X3767321Y-16229952D01*
X3776845Y-16220428D01*
X3776845Y-16239476D01*
X3910178Y-16039476D02*
X3929226Y-16039476D01*
X3948274Y-16049000D01*
X3957798Y-16058524D01*
X3967321Y-16077571D01*
X3976845Y-16115667D01*
X3976845Y-16163286D01*
X3967321Y-16201381D01*
X3957798Y-16220428D01*
X3948274Y-16229952D01*
X3929226Y-16239476D01*
X3910178Y-16239476D01*
X3891131Y-16229952D01*
X3881607Y-16220428D01*
X3872083Y-16201381D01*
X3862559Y-16163286D01*
X3862559Y-16115667D01*
X3872083Y-16077571D01*
X3881607Y-16058524D01*
X3891131Y-16049000D01*
X3910178Y-16039476D01*
X4100655Y-16039476D02*
X4119702Y-16039476D01*
X4138750Y-16049000D01*
X4148274Y-16058524D01*
X4157798Y-16077571D01*
X4167321Y-16115667D01*
X4167321Y-16163286D01*
X4157798Y-16201381D01*
X4148274Y-16220428D01*
X4138750Y-16229952D01*
X4119702Y-16239476D01*
X4100655Y-16239476D01*
X4081607Y-16229952D01*
X4072083Y-16220428D01*
X4062559Y-16201381D01*
X4053036Y-16163286D01*
X4053036Y-16115667D01*
X4062559Y-16077571D01*
X4072083Y-16058524D01*
X4081607Y-16049000D01*
X4100655Y-16039476D01*
X4291131Y-16039476D02*
X4310179Y-16039476D01*
X4329226Y-16049000D01*
X4338750Y-16058524D01*
X4348274Y-16077571D01*
X4357798Y-16115667D01*
X4357798Y-16163286D01*
X4348274Y-16201381D01*
X4338750Y-16220428D01*
X4329226Y-16229952D01*
X4310179Y-16239476D01*
X4291131Y-16239476D01*
X4272083Y-16229952D01*
X4262560Y-16220428D01*
X4253036Y-16201381D01*
X4243512Y-16163286D01*
X4243512Y-16115667D01*
X4253036Y-16077571D01*
X4262560Y-16058524D01*
X4272083Y-16049000D01*
X4291131Y-16039476D01*
X4443512Y-16239476D02*
X4443512Y-16106143D01*
X4443512Y-16125190D02*
X4453036Y-16115667D01*
X4472083Y-16106143D01*
X4500655Y-16106143D01*
X4519702Y-16115667D01*
X4529226Y-16134714D01*
X4529226Y-16239476D01*
X4529226Y-16134714D02*
X4538750Y-16115667D01*
X4557798Y-16106143D01*
X4586369Y-16106143D01*
X4605417Y-16115667D01*
X4614940Y-16134714D01*
X4614940Y-16239476D01*
X4710179Y-16239476D02*
X4710179Y-16106143D01*
X4710179Y-16125190D02*
X4719702Y-16115667D01*
X4738750Y-16106143D01*
X4767321Y-16106143D01*
X4786369Y-16115667D01*
X4795893Y-16134714D01*
X4795893Y-16239476D01*
X4795893Y-16134714D02*
X4805417Y-16115667D01*
X4824464Y-16106143D01*
X4853036Y-16106143D01*
X4872083Y-16115667D01*
X4881607Y-16134714D01*
X4881607Y-16239476D01*
X5272083Y-16029952D02*
X5100655Y-16287095D01*
X5529226Y-16039476D02*
X5548274Y-16039476D01*
X5567321Y-16049000D01*
X5576845Y-16058524D01*
X5586369Y-16077571D01*
X5595893Y-16115667D01*
X5595893Y-16163286D01*
X5586369Y-16201381D01*
X5576845Y-16220428D01*
X5567321Y-16229952D01*
X5548274Y-16239476D01*
X5529226Y-16239476D01*
X5510179Y-16229952D01*
X5500655Y-16220428D01*
X5491131Y-16201381D01*
X5481607Y-16163286D01*
X5481607Y-16115667D01*
X5491131Y-16077571D01*
X5500655Y-16058524D01*
X5510179Y-16049000D01*
X5529226Y-16039476D01*
X5681607Y-16220428D02*
X5691131Y-16229952D01*
X5681607Y-16239476D01*
X5672083Y-16229952D01*
X5681607Y-16220428D01*
X5681607Y-16239476D01*
X5814940Y-16039476D02*
X5833988Y-16039476D01*
X5853036Y-16049000D01*
X5862559Y-16058524D01*
X5872083Y-16077571D01*
X5881607Y-16115667D01*
X5881607Y-16163286D01*
X5872083Y-16201381D01*
X5862559Y-16220428D01*
X5853036Y-16229952D01*
X5833988Y-16239476D01*
X5814940Y-16239476D01*
X5795893Y-16229952D01*
X5786369Y-16220428D01*
X5776845Y-16201381D01*
X5767321Y-16163286D01*
X5767321Y-16115667D01*
X5776845Y-16077571D01*
X5786369Y-16058524D01*
X5795893Y-16049000D01*
X5814940Y-16039476D01*
X5948274Y-16039476D02*
X6072083Y-16039476D01*
X6005417Y-16115667D01*
X6033988Y-16115667D01*
X6053036Y-16125190D01*
X6062559Y-16134714D01*
X6072083Y-16153762D01*
X6072083Y-16201381D01*
X6062559Y-16220428D01*
X6053036Y-16229952D01*
X6033988Y-16239476D01*
X5976845Y-16239476D01*
X5957798Y-16229952D01*
X5948274Y-16220428D01*
X6167321Y-16239476D02*
X6205417Y-16239476D01*
X6224464Y-16229952D01*
X6233988Y-16220428D01*
X6253036Y-16191857D01*
X6262559Y-16153762D01*
X6262559Y-16077571D01*
X6253036Y-16058524D01*
X6243512Y-16049000D01*
X6224464Y-16039476D01*
X6186369Y-16039476D01*
X6167321Y-16049000D01*
X6157798Y-16058524D01*
X6148274Y-16077571D01*
X6148274Y-16125190D01*
X6157798Y-16144238D01*
X6167321Y-16153762D01*
X6186369Y-16163286D01*
X6224464Y-16163286D01*
X6243512Y-16153762D01*
X6253036Y-16144238D01*
X6262559Y-16125190D01*
X6433988Y-16106143D02*
X6433988Y-16239476D01*
X6386369Y-16029952D02*
X6338750Y-16172809D01*
X6462559Y-16172809D01*
X6529226Y-16039476D02*
X6529226Y-16077571D01*
X6605417Y-16039476D02*
X6605417Y-16077571D01*
X6900655Y-16315667D02*
X6891131Y-16306143D01*
X6872083Y-16277571D01*
X6862559Y-16258524D01*
X6853036Y-16229952D01*
X6843512Y-16182333D01*
X6843512Y-16144238D01*
X6853036Y-16096619D01*
X6862559Y-16068048D01*
X6872083Y-16049000D01*
X6891131Y-16020428D01*
X6900655Y-16010905D01*
X7081607Y-16239476D02*
X6967321Y-16239476D01*
X7024464Y-16239476D02*
X7024464Y-16039476D01*
X7005417Y-16068048D01*
X6986369Y-16087095D01*
X6967321Y-16096619D01*
X7253036Y-16039476D02*
X7214940Y-16039476D01*
X7195893Y-16049000D01*
X7186369Y-16058524D01*
X7167321Y-16087095D01*
X7157798Y-16125190D01*
X7157798Y-16201381D01*
X7167321Y-16220428D01*
X7176845Y-16229952D01*
X7195893Y-16239476D01*
X7233988Y-16239476D01*
X7253036Y-16229952D01*
X7262559Y-16220428D01*
X7272083Y-16201381D01*
X7272083Y-16153762D01*
X7262559Y-16134714D01*
X7253036Y-16125190D01*
X7233988Y-16115667D01*
X7195893Y-16115667D01*
X7176845Y-16125190D01*
X7167321Y-16134714D01*
X7157798Y-16153762D01*
X7510178Y-16239476D02*
X7510178Y-16039476D01*
X7595893Y-16239476D02*
X7595893Y-16134714D01*
X7586369Y-16115667D01*
X7567321Y-16106143D01*
X7538750Y-16106143D01*
X7519702Y-16115667D01*
X7510178Y-16125190D01*
X7719702Y-16239476D02*
X7700655Y-16229952D01*
X7691131Y-16220428D01*
X7681607Y-16201381D01*
X7681607Y-16144238D01*
X7691131Y-16125190D01*
X7700655Y-16115667D01*
X7719702Y-16106143D01*
X7748274Y-16106143D01*
X7767321Y-16115667D01*
X7776845Y-16125190D01*
X7786369Y-16144238D01*
X7786369Y-16201381D01*
X7776845Y-16220428D01*
X7767321Y-16229952D01*
X7748274Y-16239476D01*
X7719702Y-16239476D01*
X7900655Y-16239476D02*
X7881607Y-16229952D01*
X7872083Y-16210905D01*
X7872083Y-16039476D01*
X8053036Y-16229952D02*
X8033988Y-16239476D01*
X7995893Y-16239476D01*
X7976845Y-16229952D01*
X7967321Y-16210905D01*
X7967321Y-16134714D01*
X7976845Y-16115667D01*
X7995893Y-16106143D01*
X8033988Y-16106143D01*
X8053036Y-16115667D01*
X8062559Y-16134714D01*
X8062559Y-16153762D01*
X7967321Y-16172809D01*
X8138750Y-16229952D02*
X8157798Y-16239476D01*
X8195893Y-16239476D01*
X8214940Y-16229952D01*
X8224464Y-16210905D01*
X8224464Y-16201381D01*
X8214940Y-16182333D01*
X8195893Y-16172809D01*
X8167321Y-16172809D01*
X8148274Y-16163286D01*
X8138750Y-16144238D01*
X8138750Y-16134714D01*
X8148274Y-16115667D01*
X8167321Y-16106143D01*
X8195893Y-16106143D01*
X8214940Y-16115667D01*
X8291131Y-16315667D02*
X8300655Y-16306143D01*
X8319702Y-16277571D01*
X8329226Y-16258524D01*
X8338750Y-16229952D01*
X8348274Y-16182333D01*
X8348274Y-16144238D01*
X8338750Y-16096619D01*
X8329226Y-16068048D01*
X8319702Y-16049000D01*
X8300655Y-16020428D01*
X8291131Y-16010905D01*
X3228750Y-16313000D02*
X3228750Y-16513000D01*
X3128750Y-16413000D02*
X3328750Y-16413000D01*
X3567321Y-16303476D02*
X3691131Y-16303476D01*
X3624464Y-16379667D01*
X3653036Y-16379667D01*
X3672083Y-16389190D01*
X3681607Y-16398714D01*
X3691131Y-16417762D01*
X3691131Y-16465381D01*
X3681607Y-16484428D01*
X3672083Y-16493952D01*
X3653036Y-16503476D01*
X3595893Y-16503476D01*
X3576845Y-16493952D01*
X3567321Y-16484428D01*
X3776845Y-16484428D02*
X3786369Y-16493952D01*
X3776845Y-16503476D01*
X3767321Y-16493952D01*
X3776845Y-16484428D01*
X3776845Y-16503476D01*
X3910178Y-16303476D02*
X3929226Y-16303476D01*
X3948274Y-16313000D01*
X3957798Y-16322524D01*
X3967321Y-16341571D01*
X3976845Y-16379667D01*
X3976845Y-16427286D01*
X3967321Y-16465381D01*
X3957798Y-16484428D01*
X3948274Y-16493952D01*
X3929226Y-16503476D01*
X3910178Y-16503476D01*
X3891131Y-16493952D01*
X3881607Y-16484428D01*
X3872083Y-16465381D01*
X3862559Y-16427286D01*
X3862559Y-16379667D01*
X3872083Y-16341571D01*
X3881607Y-16322524D01*
X3891131Y-16313000D01*
X3910178Y-16303476D01*
X4100655Y-16303476D02*
X4119702Y-16303476D01*
X4138750Y-16313000D01*
X4148274Y-16322524D01*
X4157798Y-16341571D01*
X4167321Y-16379667D01*
X4167321Y-16427286D01*
X4157798Y-16465381D01*
X4148274Y-16484428D01*
X4138750Y-16493952D01*
X4119702Y-16503476D01*
X4100655Y-16503476D01*
X4081607Y-16493952D01*
X4072083Y-16484428D01*
X4062559Y-16465381D01*
X4053036Y-16427286D01*
X4053036Y-16379667D01*
X4062559Y-16341571D01*
X4072083Y-16322524D01*
X4081607Y-16313000D01*
X4100655Y-16303476D01*
X4291131Y-16303476D02*
X4310179Y-16303476D01*
X4329226Y-16313000D01*
X4338750Y-16322524D01*
X4348274Y-16341571D01*
X4357798Y-16379667D01*
X4357798Y-16427286D01*
X4348274Y-16465381D01*
X4338750Y-16484428D01*
X4329226Y-16493952D01*
X4310179Y-16503476D01*
X4291131Y-16503476D01*
X4272083Y-16493952D01*
X4262560Y-16484428D01*
X4253036Y-16465381D01*
X4243512Y-16427286D01*
X4243512Y-16379667D01*
X4253036Y-16341571D01*
X4262560Y-16322524D01*
X4272083Y-16313000D01*
X4291131Y-16303476D01*
X4443512Y-16503476D02*
X4443512Y-16370143D01*
X4443512Y-16389190D02*
X4453036Y-16379667D01*
X4472083Y-16370143D01*
X4500655Y-16370143D01*
X4519702Y-16379667D01*
X4529226Y-16398714D01*
X4529226Y-16503476D01*
X4529226Y-16398714D02*
X4538750Y-16379667D01*
X4557798Y-16370143D01*
X4586369Y-16370143D01*
X4605417Y-16379667D01*
X4614940Y-16398714D01*
X4614940Y-16503476D01*
X4710179Y-16503476D02*
X4710179Y-16370143D01*
X4710179Y-16389190D02*
X4719702Y-16379667D01*
X4738750Y-16370143D01*
X4767321Y-16370143D01*
X4786369Y-16379667D01*
X4795893Y-16398714D01*
X4795893Y-16503476D01*
X4795893Y-16398714D02*
X4805417Y-16379667D01*
X4824464Y-16370143D01*
X4853036Y-16370143D01*
X4872083Y-16379667D01*
X4881607Y-16398714D01*
X4881607Y-16503476D01*
X5272083Y-16293952D02*
X5100655Y-16551095D01*
X5529226Y-16303476D02*
X5548274Y-16303476D01*
X5567321Y-16313000D01*
X5576845Y-16322524D01*
X5586369Y-16341571D01*
X5595893Y-16379667D01*
X5595893Y-16427286D01*
X5586369Y-16465381D01*
X5576845Y-16484428D01*
X5567321Y-16493952D01*
X5548274Y-16503476D01*
X5529226Y-16503476D01*
X5510179Y-16493952D01*
X5500655Y-16484428D01*
X5491131Y-16465381D01*
X5481607Y-16427286D01*
X5481607Y-16379667D01*
X5491131Y-16341571D01*
X5500655Y-16322524D01*
X5510179Y-16313000D01*
X5529226Y-16303476D01*
X5681607Y-16484428D02*
X5691131Y-16493952D01*
X5681607Y-16503476D01*
X5672083Y-16493952D01*
X5681607Y-16484428D01*
X5681607Y-16503476D01*
X5881607Y-16503476D02*
X5767321Y-16503476D01*
X5824464Y-16503476D02*
X5824464Y-16303476D01*
X5805417Y-16332048D01*
X5786369Y-16351095D01*
X5767321Y-16360619D01*
X6072083Y-16503476D02*
X5957798Y-16503476D01*
X6014940Y-16503476D02*
X6014940Y-16303476D01*
X5995893Y-16332048D01*
X5976845Y-16351095D01*
X5957798Y-16360619D01*
X6186369Y-16389190D02*
X6167321Y-16379667D01*
X6157798Y-16370143D01*
X6148274Y-16351095D01*
X6148274Y-16341571D01*
X6157798Y-16322524D01*
X6167321Y-16313000D01*
X6186369Y-16303476D01*
X6224464Y-16303476D01*
X6243512Y-16313000D01*
X6253036Y-16322524D01*
X6262559Y-16341571D01*
X6262559Y-16351095D01*
X6253036Y-16370143D01*
X6243512Y-16379667D01*
X6224464Y-16389190D01*
X6186369Y-16389190D01*
X6167321Y-16398714D01*
X6157798Y-16408238D01*
X6148274Y-16427286D01*
X6148274Y-16465381D01*
X6157798Y-16484428D01*
X6167321Y-16493952D01*
X6186369Y-16503476D01*
X6224464Y-16503476D01*
X6243512Y-16493952D01*
X6253036Y-16484428D01*
X6262559Y-16465381D01*
X6262559Y-16427286D01*
X6253036Y-16408238D01*
X6243512Y-16398714D01*
X6224464Y-16389190D01*
X6453036Y-16503476D02*
X6338750Y-16503476D01*
X6395893Y-16503476D02*
X6395893Y-16303476D01*
X6376845Y-16332048D01*
X6357798Y-16351095D01*
X6338750Y-16360619D01*
X6529226Y-16303476D02*
X6529226Y-16341571D01*
X6605417Y-16303476D02*
X6605417Y-16341571D01*
X6900655Y-16579667D02*
X6891131Y-16570143D01*
X6872083Y-16541571D01*
X6862559Y-16522524D01*
X6853036Y-16493952D01*
X6843512Y-16446333D01*
X6843512Y-16408238D01*
X6853036Y-16360619D01*
X6862559Y-16332048D01*
X6872083Y-16313000D01*
X6891131Y-16284428D01*
X6900655Y-16274905D01*
X7005417Y-16389190D02*
X6986369Y-16379667D01*
X6976845Y-16370143D01*
X6967321Y-16351095D01*
X6967321Y-16341571D01*
X6976845Y-16322524D01*
X6986369Y-16313000D01*
X7005417Y-16303476D01*
X7043512Y-16303476D01*
X7062559Y-16313000D01*
X7072083Y-16322524D01*
X7081607Y-16341571D01*
X7081607Y-16351095D01*
X7072083Y-16370143D01*
X7062559Y-16379667D01*
X7043512Y-16389190D01*
X7005417Y-16389190D01*
X6986369Y-16398714D01*
X6976845Y-16408238D01*
X6967321Y-16427286D01*
X6967321Y-16465381D01*
X6976845Y-16484428D01*
X6986369Y-16493952D01*
X7005417Y-16503476D01*
X7043512Y-16503476D01*
X7062559Y-16493952D01*
X7072083Y-16484428D01*
X7081607Y-16465381D01*
X7081607Y-16427286D01*
X7072083Y-16408238D01*
X7062559Y-16398714D01*
X7043512Y-16389190D01*
X7253036Y-16303476D02*
X7214940Y-16303476D01*
X7195893Y-16313000D01*
X7186369Y-16322524D01*
X7167321Y-16351095D01*
X7157798Y-16389190D01*
X7157798Y-16465381D01*
X7167321Y-16484428D01*
X7176845Y-16493952D01*
X7195893Y-16503476D01*
X7233988Y-16503476D01*
X7253036Y-16493952D01*
X7262559Y-16484428D01*
X7272083Y-16465381D01*
X7272083Y-16417762D01*
X7262559Y-16398714D01*
X7253036Y-16389190D01*
X7233988Y-16379667D01*
X7195893Y-16379667D01*
X7176845Y-16389190D01*
X7167321Y-16398714D01*
X7157798Y-16417762D01*
X7510178Y-16503476D02*
X7510178Y-16303476D01*
X7595893Y-16503476D02*
X7595893Y-16398714D01*
X7586369Y-16379667D01*
X7567321Y-16370143D01*
X7538750Y-16370143D01*
X7519702Y-16379667D01*
X7510178Y-16389190D01*
X7719702Y-16503476D02*
X7700655Y-16493952D01*
X7691131Y-16484428D01*
X7681607Y-16465381D01*
X7681607Y-16408238D01*
X7691131Y-16389190D01*
X7700655Y-16379667D01*
X7719702Y-16370143D01*
X7748274Y-16370143D01*
X7767321Y-16379667D01*
X7776845Y-16389190D01*
X7786369Y-16408238D01*
X7786369Y-16465381D01*
X7776845Y-16484428D01*
X7767321Y-16493952D01*
X7748274Y-16503476D01*
X7719702Y-16503476D01*
X7900655Y-16503476D02*
X7881607Y-16493952D01*
X7872083Y-16474905D01*
X7872083Y-16303476D01*
X8053036Y-16493952D02*
X8033988Y-16503476D01*
X7995893Y-16503476D01*
X7976845Y-16493952D01*
X7967321Y-16474905D01*
X7967321Y-16398714D01*
X7976845Y-16379667D01*
X7995893Y-16370143D01*
X8033988Y-16370143D01*
X8053036Y-16379667D01*
X8062559Y-16398714D01*
X8062559Y-16417762D01*
X7967321Y-16436809D01*
X8138750Y-16493952D02*
X8157798Y-16503476D01*
X8195893Y-16503476D01*
X8214940Y-16493952D01*
X8224464Y-16474905D01*
X8224464Y-16465381D01*
X8214940Y-16446333D01*
X8195893Y-16436809D01*
X8167321Y-16436809D01*
X8148274Y-16427286D01*
X8138750Y-16408238D01*
X8138750Y-16398714D01*
X8148274Y-16379667D01*
X8167321Y-16370143D01*
X8195893Y-16370143D01*
X8214940Y-16379667D01*
X8291131Y-16579667D02*
X8300655Y-16570143D01*
X8319702Y-16541571D01*
X8329226Y-16522524D01*
X8338750Y-16493952D01*
X8348274Y-16446333D01*
X8348274Y-16408238D01*
X8338750Y-16360619D01*
X8329226Y-16332048D01*
X8319702Y-16313000D01*
X8300655Y-16284428D01*
X8291131Y-16274905D01*
M02*
