M48
; DRILL file {KiCad (6.0.9)} date Sat Nov 26 17:52:26 2022
; FORMAT={-:-/ absolute / inch / decimal}
; #@! TF.CreationDate,2022-11-26T17:52:26+01:00
; #@! TF.GenerationSoftware,Kicad,Pcbnew,(6.0.9)
; #@! TF.FileFunction,NonPlated,1,2,NPTH
FMAT,2
INCH
; #@! TA.AperFunction,NonPlated,NPTH,ComponentDrill
T1C0.0689
; #@! TA.AperFunction,NonPlated,NPTH,ComponentDrill
T2C0.1570
%
G90
G05
T1
X1.675Y-1.5125
X1.675Y-2.45
X1.675Y-3.2
X1.675Y-3.95
X1.675Y-4.7
X1.675Y-5.45
X2.05Y-1.5125
X2.05Y-5.45
X2.075Y-1.5125
X2.075Y-2.45
X2.075Y-3.2
X2.075Y-3.95
X2.075Y-4.7
X2.075Y-5.45
X2.425Y-1.5125
X2.425Y-2.45
X2.425Y-3.2
X2.425Y-3.95
X2.425Y-4.7
X2.425Y-5.45
X2.45Y-1.5125
X2.45Y-5.45
X2.8Y-1.5125
X2.825Y-1.5125
X2.825Y-2.45
X2.825Y-3.2
X2.825Y-3.95
X2.825Y-4.7
X2.825Y-5.45
X3.175Y-1.5125
X3.175Y-2.45
X3.175Y-3.2
X3.175Y-3.95
X3.175Y-4.7
X3.175Y-5.45
X3.2Y-1.5125
X3.55Y-1.5125
X3.575Y-1.5125
X3.575Y-2.45
X3.575Y-3.2
X3.575Y-3.95
X3.575Y-4.7
X3.575Y-5.45
X3.925Y-1.5125
X3.925Y-2.45
X3.925Y-3.2
X3.925Y-3.95
X3.925Y-4.7
X3.925Y-5.45
X3.95Y-1.5125
X4.3Y-1.5125
X4.325Y-1.5125
X4.325Y-2.45
X4.325Y-3.2
X4.325Y-3.95
X4.325Y-4.7
X4.325Y-5.45
X4.675Y-1.5125
X4.675Y-2.45
X4.675Y-3.2
X4.675Y-3.95
X4.675Y-4.7
X4.675Y-5.45
X4.7Y-1.5125
X5.05Y-1.5125
X5.05Y-5.45
X5.075Y-1.5125
X5.075Y-2.45
X5.075Y-3.2
X5.075Y-3.95
X5.075Y-4.7
X5.075Y-5.45
X5.425Y-1.5125
X5.425Y-2.45
X5.425Y-3.2
X5.425Y-3.95
X5.425Y-4.7
X5.425Y-5.45
X5.45Y-1.5125
X5.45Y-5.45
X5.825Y-1.5125
X5.825Y-2.45
X5.825Y-3.2
X5.825Y-3.95
X5.825Y-4.7
X5.825Y-5.45
T2
X1.875Y-1.5125
X1.875Y-2.45
X1.875Y-3.2
X1.875Y-3.95
X1.875Y-4.7
X1.875Y-5.45
X2.25Y-1.5125
X2.25Y-5.45
X2.625Y-1.5125
X2.625Y-2.45
X2.625Y-3.2
X2.625Y-3.95
X2.625Y-4.7
X2.625Y-5.45
X3.0Y-1.5125
X3.375Y-1.5125
X3.375Y-2.45
X3.375Y-3.2
X3.375Y-3.95
X3.375Y-4.7
X3.375Y-5.45
X3.75Y-1.5125
X4.125Y-1.5125
X4.125Y-2.45
X4.125Y-3.2
X4.125Y-3.95
X4.125Y-4.7
X4.125Y-5.45
X4.5Y-1.5125
X4.875Y-1.5125
X4.875Y-2.45
X4.875Y-3.2
X4.875Y-3.95
X4.875Y-4.7
X4.875Y-5.45
X5.25Y-1.5125
X5.25Y-5.45
X5.625Y-1.5125
X5.625Y-2.45
X5.625Y-3.2
X5.625Y-3.95
X5.625Y-4.7
X5.625Y-5.45
T0
M30
