%TF.GenerationSoftware,KiCad,Pcbnew,(6.0.9)*%
%TF.CreationDate,2022-11-26T17:52:30+01:00*%
%TF.ProjectId,tekskey,74656b73-6b65-4792-9e6b-696361645f70,rev?*%
%TF.SameCoordinates,Original*%
%TF.FileFunction,Soldermask,Top*%
%TF.FilePolarity,Negative*%
%FSLAX46Y46*%
G04 Gerber Fmt 4.6, Leading zero omitted, Abs format (unit mm)*
G04 Created by KiCad (PCBNEW (6.0.9)) date 2022-11-26 17:52:30*
%MOMM*%
%LPD*%
G01*
G04 APERTURE LIST*
G04 Aperture macros list*
%AMRoundRect*
0 Rectangle with rounded corners*
0 $1 Rounding radius*
0 $2 $3 $4 $5 $6 $7 $8 $9 X,Y pos of 4 corners*
0 Add a 4 corners polygon primitive as box body*
4,1,4,$2,$3,$4,$5,$6,$7,$8,$9,$2,$3,0*
0 Add four circle primitives for the rounded corners*
1,1,$1+$1,$2,$3*
1,1,$1+$1,$4,$5*
1,1,$1+$1,$6,$7*
1,1,$1+$1,$8,$9*
0 Add four rect primitives between the rounded corners*
20,1,$1+$1,$2,$3,$4,$5,0*
20,1,$1+$1,$4,$5,$6,$7,0*
20,1,$1+$1,$6,$7,$8,$9,0*
20,1,$1+$1,$8,$9,$2,$3,0*%
%AMFreePoly0*
4,1,18,-0.410000,0.265000,0.000000,0.675000,0.328000,0.675000,0.359380,0.668758,0.385983,0.650983,0.403758,0.624380,0.410000,0.593000,0.410000,-0.593000,0.403758,-0.624380,0.385983,-0.650983,0.359380,-0.668758,0.328000,-0.675000,-0.328000,-0.675000,-0.359380,-0.668758,-0.385983,-0.650983,-0.403758,-0.624380,-0.410000,-0.593000,-0.410000,0.265000,-0.410000,0.265000,$1*%
G04 Aperture macros list end*
%ADD10O,1.600000X1.600000*%
%ADD11R,1.600000X1.600000*%
%ADD12RoundRect,0.082000X0.593000X-0.328000X0.593000X0.328000X-0.593000X0.328000X-0.593000X-0.328000X0*%
%ADD13FreePoly0,90.000000*%
%ADD14C,3.987800*%
%ADD15C,1.750000*%
%ADD16C,3.300000*%
%ADD17RoundRect,0.250000X1.025000X1.000000X-1.025000X1.000000X-1.025000X-1.000000X1.025000X-1.000000X0*%
%ADD18RoundRect,0.082000X-0.593000X0.328000X-0.593000X-0.328000X0.593000X-0.328000X0.593000X0.328000X0*%
%ADD19FreePoly0,270.000000*%
%ADD20R,1.700000X1.700000*%
%ADD21O,1.700000X1.700000*%
G04 APERTURE END LIST*
D10*
%TO.C,D31*%
X45720000Y-47625000D03*
D11*
X53340000Y-47625000D03*
%TD*%
D12*
%TO.C,LED10*%
X50350000Y-56400000D03*
X50350000Y-57900000D03*
X44900000Y-56400000D03*
D13*
X44900000Y-57900000D03*
%TD*%
D14*
%TO.C,SW10*%
X47625000Y-62230000D03*
D15*
X42545000Y-62230000D03*
X52705000Y-62230000D03*
D16*
X43815000Y-64770000D03*
D17*
X40265000Y-64770000D03*
D16*
X50165000Y-67310000D03*
D17*
X53715000Y-67310000D03*
%TD*%
D11*
%TO.C,D1*%
X38100000Y-56515000D03*
D10*
X38100000Y-64135000D03*
%TD*%
D14*
%TO.C,SW51B1*%
X57150000Y-138430000D03*
D15*
X62230000Y-138430000D03*
X52070000Y-138430000D03*
D16*
X53340000Y-140970000D03*
D17*
X49790000Y-140970000D03*
D16*
X59690000Y-143510000D03*
D17*
X63240000Y-143510000D03*
%TD*%
D12*
%TO.C,LED54*%
X126550000Y-132600000D03*
X126550000Y-134100000D03*
X121100000Y-132600000D03*
D13*
X121100000Y-134100000D03*
%TD*%
D11*
%TO.C,D22*%
X95250000Y-113665000D03*
D10*
X95250000Y-121285000D03*
%TD*%
D11*
%TO.C,D32*%
X72390000Y-47625000D03*
D10*
X64770000Y-47625000D03*
%TD*%
D12*
%TO.C,LED32*%
X88450000Y-94500000D03*
X88450000Y-96000000D03*
X83000000Y-94500000D03*
D13*
X83000000Y-96000000D03*
%TD*%
D18*
%TO.C,LED1B1*%
X73475000Y-34087500D03*
X73475000Y-32587500D03*
X78925000Y-34087500D03*
D19*
X78925000Y-32587500D03*
%TD*%
D12*
%TO.C,LED34*%
X126550000Y-94500000D03*
X126550000Y-96000000D03*
X121100000Y-94500000D03*
D13*
X121100000Y-96000000D03*
%TD*%
D11*
%TO.C,D23*%
X114300000Y-113665000D03*
D10*
X114300000Y-121285000D03*
%TD*%
D12*
%TO.C,LED13*%
X107500000Y-56400000D03*
X107500000Y-57900000D03*
X102050000Y-56400000D03*
D13*
X102050000Y-57900000D03*
%TD*%
D14*
%TO.C,SW45*%
X142875000Y-119380000D03*
D15*
X147955000Y-119380000D03*
X137795000Y-119380000D03*
D17*
X135515000Y-121920000D03*
D16*
X139065000Y-121920000D03*
X145415000Y-124460000D03*
D17*
X148965000Y-124460000D03*
%TD*%
D14*
%TO.C,SW33*%
X104775000Y-100330000D03*
D15*
X99695000Y-100330000D03*
X109855000Y-100330000D03*
D17*
X97415000Y-102870000D03*
D16*
X100965000Y-102870000D03*
X107315000Y-105410000D03*
D17*
X110865000Y-105410000D03*
%TD*%
D15*
%TO.C,SW15*%
X137795000Y-62230000D03*
X147955000Y-62230000D03*
D14*
X142875000Y-62230000D03*
D17*
X135515000Y-64770000D03*
D16*
X139065000Y-64770000D03*
X145415000Y-67310000D03*
D17*
X148965000Y-67310000D03*
%TD*%
D12*
%TO.C,LED55*%
X145600000Y-132600000D03*
X145600000Y-134100000D03*
X140150000Y-132600000D03*
D13*
X140150000Y-134100000D03*
%TD*%
D15*
%TO.C,SW13*%
X109855000Y-62230000D03*
D14*
X104775000Y-62230000D03*
D15*
X99695000Y-62230000D03*
D16*
X100965000Y-64770000D03*
D17*
X97415000Y-64770000D03*
D16*
X107315000Y-67310000D03*
D17*
X110865000Y-67310000D03*
%TD*%
D11*
%TO.C,D16*%
X95250000Y-94615000D03*
D10*
X95250000Y-102235000D03*
%TD*%
D15*
%TO.C,SW31*%
X71755000Y-100330000D03*
X61595000Y-100330000D03*
D14*
X66675000Y-100330000D03*
D17*
X59315000Y-102870000D03*
D16*
X62865000Y-102870000D03*
X69215000Y-105410000D03*
D17*
X72765000Y-105410000D03*
%TD*%
D11*
%TO.C,D19*%
X38100000Y-113665000D03*
D10*
X38100000Y-121285000D03*
%TD*%
D15*
%TO.C,SW51*%
X71755000Y-138430000D03*
X61595000Y-138430000D03*
D14*
X66675000Y-138430000D03*
D17*
X59315000Y-140970000D03*
D16*
X62865000Y-140970000D03*
D17*
X72765000Y-143510000D03*
D16*
X69215000Y-143510000D03*
%TD*%
D15*
%TO.C,SW11*%
X61595000Y-62230000D03*
X71755000Y-62230000D03*
D14*
X66675000Y-62230000D03*
D16*
X62865000Y-64770000D03*
D17*
X59315000Y-64770000D03*
D16*
X69215000Y-67310000D03*
D17*
X72765000Y-67310000D03*
%TD*%
D14*
%TO.C,SW3*%
X104775000Y-38417500D03*
D15*
X109855000Y-38417500D03*
X99695000Y-38417500D03*
D17*
X97415000Y-40957500D03*
D16*
X100965000Y-40957500D03*
X107315000Y-43497500D03*
D17*
X110865000Y-43497500D03*
%TD*%
D12*
%TO.C,LED53*%
X107500000Y-132600000D03*
X107500000Y-134100000D03*
X102050000Y-132600000D03*
D13*
X102050000Y-134100000D03*
%TD*%
D14*
%TO.C,SW0*%
X47625000Y-38417500D03*
D15*
X52705000Y-38417500D03*
X42545000Y-38417500D03*
D16*
X43815000Y-40957500D03*
D17*
X40265000Y-40957500D03*
X53715000Y-43497500D03*
D16*
X50165000Y-43497500D03*
%TD*%
D11*
%TO.C,D20*%
X57150000Y-113665000D03*
D10*
X57150000Y-121285000D03*
%TD*%
D11*
%TO.C,D25*%
X38100000Y-132715000D03*
D10*
X38100000Y-140335000D03*
%TD*%
D18*
%TO.C,LED4*%
X121100000Y-34087500D03*
X121100000Y-32587500D03*
X126550000Y-34087500D03*
D19*
X126550000Y-32587500D03*
%TD*%
D11*
%TO.C,D36*%
X149066250Y-47625000D03*
D10*
X141446250Y-47625000D03*
%TD*%
D18*
%TO.C,LED2*%
X83000000Y-34087500D03*
X83000000Y-32587500D03*
X88450000Y-34087500D03*
D19*
X88450000Y-32587500D03*
%TD*%
D14*
%TO.C,SW52*%
X85725000Y-138430000D03*
D15*
X90805000Y-138430000D03*
X80645000Y-138430000D03*
D16*
X81915000Y-140970000D03*
D17*
X78365000Y-140970000D03*
X91815000Y-143510000D03*
D16*
X88265000Y-143510000D03*
%TD*%
D20*
%TO.C,J2*%
X91281250Y-25400000D03*
D21*
X93821250Y-25400000D03*
X96361250Y-25400000D03*
X98901250Y-25400000D03*
X101441250Y-25400000D03*
X103981250Y-25400000D03*
X106521250Y-25400000D03*
X109061250Y-25400000D03*
%TD*%
D15*
%TO.C,SW34*%
X118745000Y-100330000D03*
D14*
X123825000Y-100330000D03*
D15*
X128905000Y-100330000D03*
D17*
X116465000Y-102870000D03*
D16*
X120015000Y-102870000D03*
X126365000Y-105410000D03*
D17*
X129915000Y-105410000D03*
%TD*%
D14*
%TO.C,SW50*%
X47625000Y-138430000D03*
D15*
X52705000Y-138430000D03*
X42545000Y-138430000D03*
D17*
X40265000Y-140970000D03*
D16*
X43815000Y-140970000D03*
D17*
X53715000Y-143510000D03*
D16*
X50165000Y-143510000D03*
%TD*%
D14*
%TO.C,SW21*%
X66675000Y-81280000D03*
D15*
X71755000Y-81280000D03*
X61595000Y-81280000D03*
D16*
X62865000Y-83820000D03*
D17*
X59315000Y-83820000D03*
X72765000Y-86360000D03*
D16*
X69215000Y-86360000D03*
%TD*%
D11*
%TO.C,D13*%
X76200000Y-94615000D03*
D10*
X76200000Y-102235000D03*
%TD*%
D11*
%TO.C,D9*%
X76200000Y-75406250D03*
D10*
X76200000Y-83026250D03*
%TD*%
D15*
%TO.C,SW32*%
X80645000Y-100330000D03*
X90805000Y-100330000D03*
D14*
X85725000Y-100330000D03*
D16*
X81915000Y-102870000D03*
D17*
X78365000Y-102870000D03*
X91815000Y-105410000D03*
D16*
X88265000Y-105410000D03*
%TD*%
D15*
%TO.C,SW2*%
X90805000Y-38417500D03*
X80645000Y-38417500D03*
D14*
X85725000Y-38417500D03*
D17*
X78365000Y-40957500D03*
D16*
X81915000Y-40957500D03*
X88265000Y-43497500D03*
D17*
X91815000Y-43497500D03*
%TD*%
D12*
%TO.C,LED12*%
X88450000Y-56400000D03*
X88450000Y-57900000D03*
X83000000Y-56400000D03*
D13*
X83000000Y-57900000D03*
%TD*%
D12*
%TO.C,LED11*%
X69400000Y-56400000D03*
X69400000Y-57900000D03*
X63950000Y-56400000D03*
D13*
X63950000Y-57900000D03*
%TD*%
D12*
%TO.C,LED6*%
X59875000Y-132600000D03*
X59875000Y-134100000D03*
X54425000Y-132600000D03*
D13*
X54425000Y-134100000D03*
%TD*%
D18*
%TO.C,LED0*%
X44900000Y-34087500D03*
X44900000Y-32587500D03*
X50350000Y-34087500D03*
D19*
X50350000Y-32587500D03*
%TD*%
D14*
%TO.C,SW54*%
X123825000Y-138430000D03*
D15*
X128905000Y-138430000D03*
X118745000Y-138430000D03*
D16*
X120015000Y-140970000D03*
D17*
X116465000Y-140970000D03*
X129915000Y-143510000D03*
D16*
X126365000Y-143510000D03*
%TD*%
D18*
%TO.C,LED41*%
X63950000Y-115050000D03*
X63950000Y-113550000D03*
X69400000Y-115050000D03*
D19*
X69400000Y-113550000D03*
%TD*%
D18*
%TO.C,LED24*%
X121100000Y-76950000D03*
X121100000Y-75450000D03*
X126550000Y-76950000D03*
D19*
X126550000Y-75450000D03*
%TD*%
D14*
%TO.C,SW3B1*%
X95250000Y-38417500D03*
D15*
X100330000Y-38417500D03*
X90170000Y-38417500D03*
D17*
X87890000Y-40957500D03*
D16*
X91440000Y-40957500D03*
X97790000Y-43497500D03*
D17*
X101340000Y-43497500D03*
%TD*%
D14*
%TO.C,SW2B1*%
X76200000Y-38417500D03*
D15*
X71120000Y-38417500D03*
X81280000Y-38417500D03*
D16*
X72390000Y-40957500D03*
D17*
X68840000Y-40957500D03*
X82290000Y-43497500D03*
D16*
X78740000Y-43497500D03*
%TD*%
D11*
%TO.C,D7*%
X38100000Y-75565000D03*
D10*
X38100000Y-83185000D03*
%TD*%
D15*
%TO.C,SW41*%
X61595000Y-119380000D03*
D14*
X66675000Y-119380000D03*
D15*
X71755000Y-119380000D03*
D17*
X59315000Y-121920000D03*
D16*
X62865000Y-121920000D03*
D17*
X72765000Y-124460000D03*
D16*
X69215000Y-124460000D03*
%TD*%
D11*
%TO.C,D26*%
X56515000Y-147637500D03*
D10*
X64135000Y-147637500D03*
%TD*%
D11*
%TO.C,D17*%
X114300000Y-94615000D03*
D10*
X114300000Y-102235000D03*
%TD*%
D15*
%TO.C,SW1*%
X71755000Y-38417500D03*
X61595000Y-38417500D03*
D14*
X66675000Y-38417500D03*
D17*
X59315000Y-40957500D03*
D16*
X62865000Y-40957500D03*
X69215000Y-43497500D03*
D17*
X72765000Y-43497500D03*
%TD*%
D11*
%TO.C,D28*%
X95250000Y-132715000D03*
D10*
X95250000Y-140335000D03*
%TD*%
D11*
%TO.C,D35*%
X129540000Y-47625000D03*
D10*
X121920000Y-47625000D03*
%TD*%
D11*
%TO.C,D4*%
X95250000Y-56515000D03*
D10*
X95250000Y-64135000D03*
%TD*%
D15*
%TO.C,SW55B1*%
X138430000Y-138430000D03*
D14*
X133350000Y-138430000D03*
D15*
X128270000Y-138430000D03*
D16*
X129540000Y-140970000D03*
D17*
X125990000Y-140970000D03*
X139440000Y-143510000D03*
D16*
X135890000Y-143510000D03*
%TD*%
D12*
%TO.C,LED31*%
X69400000Y-94500000D03*
X69400000Y-96000000D03*
X63950000Y-94500000D03*
D13*
X63950000Y-96000000D03*
%TD*%
D14*
%TO.C,SW25*%
X142875000Y-81280000D03*
D15*
X137795000Y-81280000D03*
X147955000Y-81280000D03*
D17*
X135515000Y-83820000D03*
D16*
X139065000Y-83820000D03*
D17*
X148965000Y-86360000D03*
D16*
X145415000Y-86360000D03*
%TD*%
D11*
%TO.C,D3*%
X76200000Y-56515000D03*
D10*
X76200000Y-64135000D03*
%TD*%
D18*
%TO.C,LED1*%
X63950000Y-34087500D03*
X63950000Y-32587500D03*
X69400000Y-34087500D03*
D19*
X69400000Y-32587500D03*
%TD*%
D11*
%TO.C,D6*%
X133350000Y-56515000D03*
D10*
X133350000Y-64135000D03*
%TD*%
D11*
%TO.C,D18*%
X133350000Y-94615000D03*
D10*
X133350000Y-102235000D03*
%TD*%
D18*
%TO.C,LED21*%
X63950000Y-76950000D03*
X63950000Y-75450000D03*
X69400000Y-76950000D03*
D19*
X69400000Y-75450000D03*
%TD*%
D11*
%TO.C,D34*%
X110490000Y-47625000D03*
D10*
X102870000Y-47625000D03*
%TD*%
D12*
%TO.C,LED51*%
X69400000Y-132600000D03*
X69400000Y-134100000D03*
X63950000Y-132600000D03*
D13*
X63950000Y-134100000D03*
%TD*%
D18*
%TO.C,LED25*%
X140150000Y-76950000D03*
X140150000Y-75450000D03*
X145600000Y-76950000D03*
D19*
X145600000Y-75450000D03*
%TD*%
D14*
%TO.C,SW4B1*%
X114300000Y-38417500D03*
D15*
X109220000Y-38417500D03*
X119380000Y-38417500D03*
D16*
X110490000Y-40957500D03*
D17*
X106940000Y-40957500D03*
X120390000Y-43497500D03*
D16*
X116840000Y-43497500D03*
%TD*%
D18*
%TO.C,LED23*%
X102050000Y-76950000D03*
X102050000Y-75450000D03*
X107500000Y-76950000D03*
D19*
X107500000Y-75450000D03*
%TD*%
D15*
%TO.C,SW5*%
X137795000Y-38417500D03*
D14*
X142875000Y-38417500D03*
D15*
X147955000Y-38417500D03*
D17*
X135515000Y-40957500D03*
D16*
X139065000Y-40957500D03*
D17*
X148965000Y-43497500D03*
D16*
X145415000Y-43497500D03*
%TD*%
D18*
%TO.C,LED40*%
X44900000Y-115050000D03*
X44900000Y-113550000D03*
X50350000Y-115050000D03*
D19*
X50350000Y-113550000D03*
%TD*%
D11*
%TO.C,D2*%
X57150000Y-56515000D03*
D10*
X57150000Y-64135000D03*
%TD*%
D11*
%TO.C,D30*%
X132715000Y-147637500D03*
D10*
X140335000Y-147637500D03*
%TD*%
D12*
%TO.C,LED7*%
X136075000Y-132600000D03*
X136075000Y-134100000D03*
X130625000Y-132600000D03*
D13*
X130625000Y-134100000D03*
%TD*%
D15*
%TO.C,SW20*%
X42545000Y-81280000D03*
X52705000Y-81280000D03*
D14*
X47625000Y-81280000D03*
D17*
X40265000Y-83820000D03*
D16*
X43815000Y-83820000D03*
X50165000Y-86360000D03*
D17*
X53715000Y-86360000D03*
%TD*%
D18*
%TO.C,LED3B1*%
X111575000Y-34087500D03*
X111575000Y-32587500D03*
X117025000Y-34087500D03*
D19*
X117025000Y-32587500D03*
%TD*%
D11*
%TO.C,D29*%
X114300000Y-132715000D03*
D10*
X114300000Y-140335000D03*
%TD*%
D15*
%TO.C,SW1B1*%
X62230000Y-38417500D03*
D14*
X57150000Y-38417500D03*
D15*
X52070000Y-38417500D03*
D16*
X53340000Y-40957500D03*
D17*
X49790000Y-40957500D03*
X63240000Y-43497500D03*
D16*
X59690000Y-43497500D03*
%TD*%
D18*
%TO.C,LED5*%
X140150000Y-34087500D03*
X140150000Y-32587500D03*
X145600000Y-34087500D03*
D19*
X145600000Y-32587500D03*
%TD*%
D15*
%TO.C,SW4*%
X118745000Y-38417500D03*
D14*
X123825000Y-38417500D03*
D15*
X128905000Y-38417500D03*
D16*
X120015000Y-40957500D03*
D17*
X116465000Y-40957500D03*
D16*
X126365000Y-43497500D03*
D17*
X129915000Y-43497500D03*
%TD*%
D11*
%TO.C,D33*%
X91440000Y-47625000D03*
D10*
X83820000Y-47625000D03*
%TD*%
D18*
%TO.C,LED0B1*%
X54425000Y-34087500D03*
X54425000Y-32587500D03*
X59875000Y-34087500D03*
D19*
X59875000Y-32587500D03*
%TD*%
D18*
%TO.C,LED3*%
X102050000Y-34087500D03*
X102050000Y-32587500D03*
X107500000Y-34087500D03*
D19*
X107500000Y-32587500D03*
%TD*%
D14*
%TO.C,SW5B1*%
X133350000Y-38417500D03*
D15*
X138430000Y-38417500D03*
X128270000Y-38417500D03*
D17*
X125990000Y-40957500D03*
D16*
X129540000Y-40957500D03*
X135890000Y-43497500D03*
D17*
X139440000Y-43497500D03*
%TD*%
D14*
%TO.C,SW30*%
X47625000Y-100330000D03*
D15*
X42545000Y-100330000D03*
X52705000Y-100330000D03*
D17*
X40265000Y-102870000D03*
D16*
X43815000Y-102870000D03*
D17*
X53715000Y-105410000D03*
D16*
X50165000Y-105410000D03*
%TD*%
D11*
%TO.C,D27*%
X76200000Y-132715000D03*
D10*
X76200000Y-140335000D03*
%TD*%
D18*
%TO.C,LED42*%
X83000000Y-115050000D03*
X83000000Y-113550000D03*
X88450000Y-115050000D03*
D19*
X88450000Y-113550000D03*
%TD*%
D12*
%TO.C,LED52*%
X88450000Y-132600000D03*
X88450000Y-134100000D03*
X83000000Y-132600000D03*
D13*
X83000000Y-134100000D03*
%TD*%
D18*
%TO.C,LED2B1*%
X92525000Y-34087500D03*
X92525000Y-32587500D03*
X97975000Y-34087500D03*
D19*
X97975000Y-32587500D03*
%TD*%
D14*
%TO.C,SW42*%
X85725000Y-119380000D03*
D15*
X80645000Y-119380000D03*
X90805000Y-119380000D03*
D16*
X81915000Y-121920000D03*
D17*
X78365000Y-121920000D03*
D16*
X88265000Y-124460000D03*
D17*
X91815000Y-124460000D03*
%TD*%
D12*
%TO.C,LED33*%
X107500000Y-94500000D03*
X107500000Y-96000000D03*
X102050000Y-94500000D03*
D13*
X102050000Y-96000000D03*
%TD*%
D15*
%TO.C,SW55*%
X137795000Y-138430000D03*
X147955000Y-138430000D03*
D14*
X142875000Y-138430000D03*
D16*
X139065000Y-140970000D03*
D17*
X135515000Y-140970000D03*
X148965000Y-143510000D03*
D16*
X145415000Y-143510000D03*
%TD*%
D15*
%TO.C,SW24*%
X128905000Y-81280000D03*
D14*
X123825000Y-81280000D03*
D15*
X118745000Y-81280000D03*
D16*
X120015000Y-83820000D03*
D17*
X116465000Y-83820000D03*
X129915000Y-86360000D03*
D16*
X126365000Y-86360000D03*
%TD*%
D15*
%TO.C,SW40*%
X52705000Y-119380000D03*
X42545000Y-119380000D03*
D14*
X47625000Y-119380000D03*
D17*
X40265000Y-121920000D03*
D16*
X43815000Y-121920000D03*
D17*
X53715000Y-124460000D03*
D16*
X50165000Y-124460000D03*
%TD*%
D11*
%TO.C,D5*%
X114300000Y-56515000D03*
D10*
X114300000Y-64135000D03*
%TD*%
D15*
%TO.C,SW14*%
X118745000Y-62230000D03*
X128905000Y-62230000D03*
D14*
X123825000Y-62230000D03*
D16*
X120015000Y-64770000D03*
D17*
X116465000Y-64770000D03*
D16*
X126365000Y-67310000D03*
D17*
X129915000Y-67310000D03*
%TD*%
D12*
%TO.C,LED35*%
X145600000Y-94500000D03*
X145600000Y-96000000D03*
X140150000Y-94500000D03*
D13*
X140150000Y-96000000D03*
%TD*%
D11*
%TO.C,D10*%
X95250000Y-75406250D03*
D10*
X95250000Y-83026250D03*
%TD*%
D11*
%TO.C,D15*%
X57150000Y-94615000D03*
D10*
X57150000Y-102235000D03*
%TD*%
D15*
%TO.C,SW44*%
X118745000Y-119380000D03*
X128905000Y-119380000D03*
D14*
X123825000Y-119380000D03*
D17*
X116465000Y-121920000D03*
D16*
X120015000Y-121920000D03*
D17*
X129915000Y-124460000D03*
D16*
X126365000Y-124460000D03*
%TD*%
D11*
%TO.C,D21*%
X76200000Y-113665000D03*
D10*
X76200000Y-121285000D03*
%TD*%
D12*
%TO.C,LED14*%
X126550000Y-56400000D03*
X126550000Y-57900000D03*
X121100000Y-56400000D03*
D13*
X121100000Y-57900000D03*
%TD*%
D20*
%TO.C,J1*%
X158750000Y-72881250D03*
D21*
X158750000Y-75421250D03*
X158750000Y-77961250D03*
X158750000Y-80501250D03*
X158750000Y-83041250D03*
X158750000Y-85581250D03*
X158750000Y-88121250D03*
X158750000Y-90661250D03*
%TD*%
D15*
%TO.C,SW23*%
X99695000Y-81280000D03*
D14*
X104775000Y-81280000D03*
D15*
X109855000Y-81280000D03*
D17*
X97415000Y-83820000D03*
D16*
X100965000Y-83820000D03*
X107315000Y-86360000D03*
D17*
X110865000Y-86360000D03*
%TD*%
D18*
%TO.C,LED43*%
X102050000Y-115050000D03*
X102050000Y-113550000D03*
X107500000Y-115050000D03*
D19*
X107500000Y-113550000D03*
%TD*%
D11*
%TO.C,D24*%
X133350000Y-113665000D03*
D10*
X133350000Y-121285000D03*
%TD*%
D18*
%TO.C,LED4B1*%
X130625000Y-34087500D03*
X130625000Y-32587500D03*
X136075000Y-34087500D03*
D19*
X136075000Y-32587500D03*
%TD*%
D11*
%TO.C,D8*%
X57150000Y-75565000D03*
D10*
X57150000Y-83185000D03*
%TD*%
D14*
%TO.C,SW53*%
X104775000Y-138430000D03*
D15*
X109855000Y-138430000D03*
X99695000Y-138430000D03*
D17*
X97415000Y-140970000D03*
D16*
X100965000Y-140970000D03*
X107315000Y-143510000D03*
D17*
X110865000Y-143510000D03*
%TD*%
D18*
%TO.C,LED22*%
X83000000Y-76950000D03*
X83000000Y-75450000D03*
X88450000Y-76950000D03*
D19*
X88450000Y-75450000D03*
%TD*%
D18*
%TO.C,LED44*%
X121100000Y-115050000D03*
X121100000Y-113550000D03*
X126550000Y-115050000D03*
D19*
X126550000Y-113550000D03*
%TD*%
D15*
%TO.C,SW12*%
X80645000Y-62230000D03*
D14*
X85725000Y-62230000D03*
D15*
X90805000Y-62230000D03*
D17*
X78365000Y-64770000D03*
D16*
X81915000Y-64770000D03*
X88265000Y-67310000D03*
D17*
X91815000Y-67310000D03*
%TD*%
D11*
%TO.C,D12*%
X133350000Y-75565000D03*
D10*
X133350000Y-83185000D03*
%TD*%
D15*
%TO.C,SW22*%
X80645000Y-81280000D03*
D14*
X85725000Y-81280000D03*
D15*
X90805000Y-81280000D03*
D16*
X81915000Y-83820000D03*
D17*
X78365000Y-83820000D03*
X91815000Y-86360000D03*
D16*
X88265000Y-86360000D03*
%TD*%
D18*
%TO.C,LED20*%
X44900000Y-76950000D03*
X44900000Y-75450000D03*
X50350000Y-76950000D03*
D19*
X50350000Y-75450000D03*
%TD*%
D11*
%TO.C,D14*%
X38100000Y-94615000D03*
D10*
X38100000Y-102235000D03*
%TD*%
D15*
%TO.C,SW35*%
X137795000Y-100330000D03*
X147955000Y-100330000D03*
D14*
X142875000Y-100330000D03*
D16*
X139065000Y-102870000D03*
D17*
X135515000Y-102870000D03*
X148965000Y-105410000D03*
D16*
X145415000Y-105410000D03*
%TD*%
D11*
%TO.C,D11*%
X114300000Y-75565000D03*
D10*
X114300000Y-83185000D03*
%TD*%
D18*
%TO.C,LED45*%
X140150000Y-115050000D03*
X140150000Y-113550000D03*
X145600000Y-115050000D03*
D19*
X145600000Y-113550000D03*
%TD*%
D12*
%TO.C,LED30*%
X50350000Y-94500000D03*
X50350000Y-96000000D03*
X44900000Y-94500000D03*
D13*
X44900000Y-96000000D03*
%TD*%
D14*
%TO.C,SW43*%
X104775000Y-119380000D03*
D15*
X99695000Y-119380000D03*
X109855000Y-119380000D03*
D16*
X100965000Y-121920000D03*
D17*
X97415000Y-121920000D03*
X110865000Y-124460000D03*
D16*
X107315000Y-124460000D03*
%TD*%
D12*
%TO.C,LED15*%
X145600000Y-56400000D03*
X145600000Y-57900000D03*
X140150000Y-56400000D03*
D13*
X140150000Y-57900000D03*
%TD*%
D12*
%TO.C,LED50*%
X50350000Y-132600000D03*
X50350000Y-134100000D03*
X44900000Y-132600000D03*
D13*
X44900000Y-134100000D03*
%TD*%
M02*
