%TF.GenerationSoftware,KiCad,Pcbnew,(6.0.9)*%
%TF.CreationDate,2022-11-26T17:52:30+01:00*%
%TF.ProjectId,tekskey,74656b73-6b65-4792-9e6b-696361645f70,rev?*%
%TF.SameCoordinates,Original*%
%TF.FileFunction,Copper,L1,Top*%
%TF.FilePolarity,Positive*%
%FSLAX46Y46*%
G04 Gerber Fmt 4.6, Leading zero omitted, Abs format (unit mm)*
G04 Created by KiCad (PCBNEW (6.0.9)) date 2022-11-26 17:52:30*
%MOMM*%
%LPD*%
G01*
G04 APERTURE LIST*
G04 Aperture macros list*
%AMRoundRect*
0 Rectangle with rounded corners*
0 $1 Rounding radius*
0 $2 $3 $4 $5 $6 $7 $8 $9 X,Y pos of 4 corners*
0 Add a 4 corners polygon primitive as box body*
4,1,4,$2,$3,$4,$5,$6,$7,$8,$9,$2,$3,0*
0 Add four circle primitives for the rounded corners*
1,1,$1+$1,$2,$3*
1,1,$1+$1,$4,$5*
1,1,$1+$1,$6,$7*
1,1,$1+$1,$8,$9*
0 Add four rect primitives between the rounded corners*
20,1,$1+$1,$2,$3,$4,$5,0*
20,1,$1+$1,$4,$5,$6,$7,0*
20,1,$1+$1,$6,$7,$8,$9,0*
20,1,$1+$1,$8,$9,$2,$3,0*%
%AMFreePoly0*
4,1,18,-0.410000,0.265000,0.000000,0.675000,0.328000,0.675000,0.359380,0.668758,0.385983,0.650983,0.403758,0.624380,0.410000,0.593000,0.410000,-0.593000,0.403758,-0.624380,0.385983,-0.650983,0.359380,-0.668758,0.328000,-0.675000,-0.328000,-0.675000,-0.359380,-0.668758,-0.385983,-0.650983,-0.403758,-0.624380,-0.410000,-0.593000,-0.410000,0.265000,-0.410000,0.265000,$1*%
G04 Aperture macros list end*
%TA.AperFunction,ComponentPad*%
%ADD10O,1.600000X1.600000*%
%TD*%
%TA.AperFunction,ComponentPad*%
%ADD11R,1.600000X1.600000*%
%TD*%
%TA.AperFunction,SMDPad,CuDef*%
%ADD12RoundRect,0.082000X0.593000X-0.328000X0.593000X0.328000X-0.593000X0.328000X-0.593000X-0.328000X0*%
%TD*%
%TA.AperFunction,SMDPad,CuDef*%
%ADD13FreePoly0,90.000000*%
%TD*%
%TA.AperFunction,ComponentPad*%
%ADD14C,3.300000*%
%TD*%
%TA.AperFunction,SMDPad,CuDef*%
%ADD15R,1.650000X2.500000*%
%TD*%
%TA.AperFunction,SMDPad,CuDef*%
%ADD16RoundRect,0.250000X1.025000X1.000000X-1.025000X1.000000X-1.025000X-1.000000X1.025000X-1.000000X0*%
%TD*%
%TA.AperFunction,SMDPad,CuDef*%
%ADD17RoundRect,0.082000X-0.593000X0.328000X-0.593000X-0.328000X0.593000X-0.328000X0.593000X0.328000X0*%
%TD*%
%TA.AperFunction,SMDPad,CuDef*%
%ADD18FreePoly0,270.000000*%
%TD*%
%TA.AperFunction,ComponentPad*%
%ADD19R,1.700000X1.700000*%
%TD*%
%TA.AperFunction,ComponentPad*%
%ADD20O,1.700000X1.700000*%
%TD*%
%TA.AperFunction,Conductor*%
%ADD21C,0.600000*%
%TD*%
%TA.AperFunction,Conductor*%
%ADD22C,0.250000*%
%TD*%
%TA.AperFunction,Conductor*%
%ADD23C,1.000000*%
%TD*%
%TA.AperFunction,Conductor*%
%ADD24C,2.000000*%
%TD*%
G04 APERTURE END LIST*
D10*
%TO.P,D31,2,A*%
%TO.N,row0*%
X45720000Y-47625000D03*
D11*
%TO.P,D31,1,K*%
%TO.N,Net-(D31-Pad1)*%
X53340000Y-47625000D03*
%TD*%
D12*
%TO.P,LED10,1,VDD*%
%TO.N,+5V*%
X50350000Y-56400000D03*
%TO.P,LED10,2,DOUT*%
%TO.N,Net-(LED10-Pad2)*%
X50350000Y-57900000D03*
%TO.P,LED10,3,DIN*%
%TO.N,Net-(LED0-Pad2)*%
X44900000Y-56400000D03*
D13*
%TO.P,LED10,4,VSS*%
%TO.N,GND*%
X44900000Y-57900000D03*
%TD*%
D14*
%TO.P,SW10,1,1*%
%TO.N,Net-(D1-Pad2)*%
X43815000Y-64770000D03*
D15*
X41990000Y-64770000D03*
D16*
X40265000Y-64770000D03*
D14*
%TO.P,SW10,2,2*%
%TO.N,row1*%
X50165000Y-67310000D03*
D16*
X53715000Y-67310000D03*
D15*
X51965000Y-67310000D03*
%TD*%
D11*
%TO.P,D1,1,K*%
%TO.N,col0*%
X38100000Y-56515000D03*
D10*
%TO.P,D1,2,A*%
%TO.N,Net-(D1-Pad2)*%
X38100000Y-64135000D03*
%TD*%
D14*
%TO.P,SW51B1,1,1*%
%TO.N,row5*%
X53340000Y-140970000D03*
D15*
X51515000Y-140970000D03*
D16*
X49790000Y-140970000D03*
D14*
%TO.P,SW51B1,2,2*%
%TO.N,Net-(D26-Pad2)*%
X59690000Y-143510000D03*
D15*
X61490000Y-143510000D03*
D16*
X63240000Y-143510000D03*
%TD*%
D12*
%TO.P,LED54,1,VDD*%
%TO.N,+5V*%
X126550000Y-132600000D03*
%TO.P,LED54,2,DOUT*%
%TO.N,Net-(LED7-Pad3)*%
X126550000Y-134100000D03*
%TO.P,LED54,3,DIN*%
%TO.N,Net-(LED53-Pad2)*%
X121100000Y-132600000D03*
D13*
%TO.P,LED54,4,VSS*%
%TO.N,GND*%
X121100000Y-134100000D03*
%TD*%
D11*
%TO.P,D22,1,K*%
%TO.N,col3*%
X95250000Y-113665000D03*
D10*
%TO.P,D22,2,A*%
%TO.N,Net-(D22-Pad2)*%
X95250000Y-121285000D03*
%TD*%
D11*
%TO.P,D32,1,K*%
%TO.N,Net-(D32-Pad1)*%
X72390000Y-47625000D03*
D10*
%TO.P,D32,2,A*%
%TO.N,row0*%
X64770000Y-47625000D03*
%TD*%
D12*
%TO.P,LED32,1,VDD*%
%TO.N,+5V*%
X88450000Y-94500000D03*
%TO.P,LED32,2,DOUT*%
%TO.N,Net-(LED32-Pad2)*%
X88450000Y-96000000D03*
%TO.P,LED32,3,DIN*%
%TO.N,Net-(LED31-Pad2)*%
X83000000Y-94500000D03*
D13*
%TO.P,LED32,4,VSS*%
%TO.N,GND*%
X83000000Y-96000000D03*
%TD*%
D17*
%TO.P,LED1B1,1,VDD*%
%TO.N,+5V*%
X73475000Y-34087500D03*
%TO.P,LED1B1,2,DOUT*%
%TO.N,Net-(LED1-Pad3)*%
X73475000Y-32587500D03*
%TO.P,LED1B1,3,DIN*%
%TO.N,Net-(LED1B1-Pad3)*%
X78925000Y-34087500D03*
D18*
%TO.P,LED1B1,4,VSS*%
%TO.N,GND*%
X78925000Y-32587500D03*
%TD*%
D12*
%TO.P,LED34,1,VDD*%
%TO.N,+5V*%
X126550000Y-94500000D03*
%TO.P,LED34,2,DOUT*%
%TO.N,Net-(LED34-Pad2)*%
X126550000Y-96000000D03*
%TO.P,LED34,3,DIN*%
%TO.N,Net-(LED33-Pad2)*%
X121100000Y-94500000D03*
D13*
%TO.P,LED34,4,VSS*%
%TO.N,GND*%
X121100000Y-96000000D03*
%TD*%
D11*
%TO.P,D23,1,K*%
%TO.N,col4*%
X114300000Y-113665000D03*
D10*
%TO.P,D23,2,A*%
%TO.N,Net-(D23-Pad2)*%
X114300000Y-121285000D03*
%TD*%
D12*
%TO.P,LED13,1,VDD*%
%TO.N,+5V*%
X107500000Y-56400000D03*
%TO.P,LED13,2,DOUT*%
%TO.N,Net-(LED13-Pad2)*%
X107500000Y-57900000D03*
%TO.P,LED13,3,DIN*%
%TO.N,Net-(LED12-Pad2)*%
X102050000Y-56400000D03*
D13*
%TO.P,LED13,4,VSS*%
%TO.N,GND*%
X102050000Y-57900000D03*
%TD*%
D16*
%TO.P,SW45,1,1*%
%TO.N,Net-(D24-Pad2)*%
X135515000Y-121920000D03*
D14*
X139065000Y-121920000D03*
D15*
X137240000Y-121920000D03*
%TO.P,SW45,2,2*%
%TO.N,row4*%
X147215000Y-124460000D03*
D14*
X145415000Y-124460000D03*
D16*
X148965000Y-124460000D03*
%TD*%
D15*
%TO.P,SW33,1,1*%
%TO.N,Net-(D16-Pad2)*%
X99140000Y-102870000D03*
D16*
X97415000Y-102870000D03*
D14*
X100965000Y-102870000D03*
%TO.P,SW33,2,2*%
%TO.N,row3*%
X107315000Y-105410000D03*
D15*
X109115000Y-105410000D03*
D16*
X110865000Y-105410000D03*
%TD*%
D15*
%TO.P,SW15,1,1*%
%TO.N,Net-(D6-Pad2)*%
X137240000Y-64770000D03*
D16*
X135515000Y-64770000D03*
D14*
X139065000Y-64770000D03*
%TO.P,SW15,2,2*%
%TO.N,row1*%
X145415000Y-67310000D03*
D15*
X147215000Y-67310000D03*
D16*
X148965000Y-67310000D03*
%TD*%
D12*
%TO.P,LED55,1,VDD*%
%TO.N,+5V*%
X145600000Y-132600000D03*
%TO.P,LED55,2,DOUT*%
%TO.N,unconnected-(LED55-Pad2)*%
X145600000Y-134100000D03*
%TO.P,LED55,3,DIN*%
%TO.N,Net-(LED55-Pad3)*%
X140150000Y-132600000D03*
D13*
%TO.P,LED55,4,VSS*%
%TO.N,GND*%
X140150000Y-134100000D03*
%TD*%
D14*
%TO.P,SW13,1,1*%
%TO.N,Net-(D4-Pad2)*%
X100965000Y-64770000D03*
D15*
X99140000Y-64770000D03*
D16*
X97415000Y-64770000D03*
D14*
%TO.P,SW13,2,2*%
%TO.N,row1*%
X107315000Y-67310000D03*
D16*
X110865000Y-67310000D03*
D15*
X109115000Y-67310000D03*
%TD*%
D11*
%TO.P,D16,1,K*%
%TO.N,col3*%
X95250000Y-94615000D03*
D10*
%TO.P,D16,2,A*%
%TO.N,Net-(D16-Pad2)*%
X95250000Y-102235000D03*
%TD*%
D16*
%TO.P,SW31,1,1*%
%TO.N,Net-(D15-Pad2)*%
X59315000Y-102870000D03*
D15*
X61040000Y-102870000D03*
D14*
X62865000Y-102870000D03*
%TO.P,SW31,2,2*%
%TO.N,row3*%
X69215000Y-105410000D03*
D16*
X72765000Y-105410000D03*
D15*
X71015000Y-105410000D03*
%TD*%
D11*
%TO.P,D19,1,K*%
%TO.N,col0*%
X38100000Y-113665000D03*
D10*
%TO.P,D19,2,A*%
%TO.N,Net-(D19-Pad2)*%
X38100000Y-121285000D03*
%TD*%
D16*
%TO.P,SW51,1,1*%
%TO.N,Net-(D26-Pad2)*%
X59315000Y-140970000D03*
D14*
X62865000Y-140970000D03*
D15*
X61040000Y-140970000D03*
D16*
%TO.P,SW51,2,2*%
%TO.N,row5*%
X72765000Y-143510000D03*
D14*
X69215000Y-143510000D03*
D15*
X71015000Y-143510000D03*
%TD*%
%TO.P,SW11,1,1*%
%TO.N,Net-(D2-Pad2)*%
X61040000Y-64770000D03*
D14*
X62865000Y-64770000D03*
D16*
X59315000Y-64770000D03*
D15*
%TO.P,SW11,2,2*%
%TO.N,row1*%
X71015000Y-67310000D03*
D14*
X69215000Y-67310000D03*
D16*
X72765000Y-67310000D03*
%TD*%
%TO.P,SW3,1,1*%
%TO.N,col3*%
X97415000Y-40957500D03*
D15*
X99140000Y-40957500D03*
D14*
X100965000Y-40957500D03*
D15*
%TO.P,SW3,2,2*%
%TO.N,Net-(D34-Pad1)*%
X109115000Y-43497500D03*
D14*
X107315000Y-43497500D03*
D16*
X110865000Y-43497500D03*
%TD*%
D12*
%TO.P,LED53,1,VDD*%
%TO.N,+5V*%
X107500000Y-132600000D03*
%TO.P,LED53,2,DOUT*%
%TO.N,Net-(LED53-Pad2)*%
X107500000Y-134100000D03*
%TO.P,LED53,3,DIN*%
%TO.N,Net-(LED52-Pad2)*%
X102050000Y-132600000D03*
D13*
%TO.P,LED53,4,VSS*%
%TO.N,GND*%
X102050000Y-134100000D03*
%TD*%
D15*
%TO.P,SW0,1,1*%
%TO.N,col0*%
X41990000Y-40957500D03*
D14*
X43815000Y-40957500D03*
D16*
X40265000Y-40957500D03*
D15*
%TO.P,SW0,2,2*%
%TO.N,Net-(D31-Pad1)*%
X51965000Y-43497500D03*
D16*
X53715000Y-43497500D03*
D14*
X50165000Y-43497500D03*
%TD*%
D11*
%TO.P,D20,1,K*%
%TO.N,col1*%
X57150000Y-113665000D03*
D10*
%TO.P,D20,2,A*%
%TO.N,Net-(D20-Pad2)*%
X57150000Y-121285000D03*
%TD*%
D11*
%TO.P,D25,1,K*%
%TO.N,col0*%
X38100000Y-132715000D03*
D10*
%TO.P,D25,2,A*%
%TO.N,Net-(D25-Pad2)*%
X38100000Y-140335000D03*
%TD*%
D17*
%TO.P,LED4,1,VDD*%
%TO.N,+5V*%
X121100000Y-34087500D03*
%TO.P,LED4,2,DOUT*%
%TO.N,Net-(LED3B1-Pad3)*%
X121100000Y-32587500D03*
%TO.P,LED4,3,DIN*%
%TO.N,Net-(LED4-Pad3)*%
X126550000Y-34087500D03*
D18*
%TO.P,LED4,4,VSS*%
%TO.N,GND*%
X126550000Y-32587500D03*
%TD*%
D11*
%TO.P,D36,1,K*%
%TO.N,Net-(D36-Pad1)*%
X149066250Y-47625000D03*
D10*
%TO.P,D36,2,A*%
%TO.N,row0*%
X141446250Y-47625000D03*
%TD*%
D17*
%TO.P,LED2,1,VDD*%
%TO.N,+5V*%
X83000000Y-34087500D03*
%TO.P,LED2,2,DOUT*%
%TO.N,Net-(LED1B1-Pad3)*%
X83000000Y-32587500D03*
%TO.P,LED2,3,DIN*%
%TO.N,Net-(LED2-Pad3)*%
X88450000Y-34087500D03*
D18*
%TO.P,LED2,4,VSS*%
%TO.N,GND*%
X88450000Y-32587500D03*
%TD*%
D14*
%TO.P,SW52,1,1*%
%TO.N,Net-(D27-Pad2)*%
X81915000Y-140970000D03*
D15*
X80090000Y-140970000D03*
D16*
X78365000Y-140970000D03*
D15*
%TO.P,SW52,2,2*%
%TO.N,row5*%
X90065000Y-143510000D03*
D16*
X91815000Y-143510000D03*
D14*
X88265000Y-143510000D03*
%TD*%
D19*
%TO.P,J2,1,Pin_1*%
%TO.N,col0*%
X91281250Y-25400000D03*
D20*
%TO.P,J2,2,Pin_2*%
%TO.N,col1*%
X93821250Y-25400000D03*
%TO.P,J2,3,Pin_3*%
%TO.N,col2*%
X96361250Y-25400000D03*
%TO.P,J2,4,Pin_4*%
%TO.N,col3*%
X98901250Y-25400000D03*
%TO.P,J2,5,Pin_5*%
%TO.N,col4*%
X101441250Y-25400000D03*
%TO.P,J2,6,Pin_6*%
%TO.N,col5*%
X103981250Y-25400000D03*
%TO.P,J2,7,Pin_7*%
%TO.N,LEDIN*%
X106521250Y-25400000D03*
%TO.P,J2,8,Pin_8*%
%TO.N,unconnected-(J2-Pad8)*%
X109061250Y-25400000D03*
%TD*%
D16*
%TO.P,SW34,1,1*%
%TO.N,Net-(D17-Pad2)*%
X116465000Y-102870000D03*
D14*
X120015000Y-102870000D03*
D15*
X118190000Y-102870000D03*
D14*
%TO.P,SW34,2,2*%
%TO.N,row3*%
X126365000Y-105410000D03*
D16*
X129915000Y-105410000D03*
D15*
X128165000Y-105410000D03*
%TD*%
%TO.P,SW50,1,1*%
%TO.N,Net-(D25-Pad2)*%
X41990000Y-140970000D03*
D16*
X40265000Y-140970000D03*
D14*
X43815000Y-140970000D03*
D16*
%TO.P,SW50,2,2*%
%TO.N,row5*%
X53715000Y-143510000D03*
D14*
X50165000Y-143510000D03*
D15*
X51965000Y-143510000D03*
%TD*%
D14*
%TO.P,SW21,1,1*%
%TO.N,Net-(D8-Pad2)*%
X62865000Y-83820000D03*
D16*
X59315000Y-83820000D03*
D15*
X61040000Y-83820000D03*
D16*
%TO.P,SW21,2,2*%
%TO.N,row2*%
X72765000Y-86360000D03*
D14*
X69215000Y-86360000D03*
D15*
X71015000Y-86360000D03*
%TD*%
D11*
%TO.P,D13,1,K*%
%TO.N,col2*%
X76200000Y-94615000D03*
D10*
%TO.P,D13,2,A*%
%TO.N,Net-(D13-Pad2)*%
X76200000Y-102235000D03*
%TD*%
D11*
%TO.P,D9,1,K*%
%TO.N,col2*%
X76200000Y-75406250D03*
D10*
%TO.P,D9,2,A*%
%TO.N,Net-(D9-Pad2)*%
X76200000Y-83026250D03*
%TD*%
D15*
%TO.P,SW32,1,1*%
%TO.N,Net-(D13-Pad2)*%
X80090000Y-102870000D03*
D14*
X81915000Y-102870000D03*
D16*
X78365000Y-102870000D03*
%TO.P,SW32,2,2*%
%TO.N,row3*%
X91815000Y-105410000D03*
D14*
X88265000Y-105410000D03*
D15*
X90065000Y-105410000D03*
%TD*%
D16*
%TO.P,SW2,1,1*%
%TO.N,col2*%
X78365000Y-40957500D03*
D15*
X80090000Y-40957500D03*
D14*
X81915000Y-40957500D03*
%TO.P,SW2,2,2*%
%TO.N,Net-(D33-Pad1)*%
X88265000Y-43497500D03*
D16*
X91815000Y-43497500D03*
D15*
X90065000Y-43497500D03*
%TD*%
D12*
%TO.P,LED12,1,VDD*%
%TO.N,+5V*%
X88450000Y-56400000D03*
%TO.P,LED12,2,DOUT*%
%TO.N,Net-(LED12-Pad2)*%
X88450000Y-57900000D03*
%TO.P,LED12,3,DIN*%
%TO.N,Net-(LED11-Pad2)*%
X83000000Y-56400000D03*
D13*
%TO.P,LED12,4,VSS*%
%TO.N,GND*%
X83000000Y-57900000D03*
%TD*%
D12*
%TO.P,LED11,1,VDD*%
%TO.N,+5V*%
X69400000Y-56400000D03*
%TO.P,LED11,2,DOUT*%
%TO.N,Net-(LED11-Pad2)*%
X69400000Y-57900000D03*
%TO.P,LED11,3,DIN*%
%TO.N,Net-(LED10-Pad2)*%
X63950000Y-56400000D03*
D13*
%TO.P,LED11,4,VSS*%
%TO.N,GND*%
X63950000Y-57900000D03*
%TD*%
D12*
%TO.P,LED6,1,VDD*%
%TO.N,+5V*%
X59875000Y-132600000D03*
%TO.P,LED6,2,DOUT*%
%TO.N,Net-(LED6-Pad2)*%
X59875000Y-134100000D03*
%TO.P,LED6,3,DIN*%
%TO.N,Net-(LED6-Pad3)*%
X54425000Y-132600000D03*
D13*
%TO.P,LED6,4,VSS*%
%TO.N,GND*%
X54425000Y-134100000D03*
%TD*%
D17*
%TO.P,LED0,1,VDD*%
%TO.N,+5V*%
X44900000Y-34087500D03*
%TO.P,LED0,2,DOUT*%
%TO.N,Net-(LED0-Pad2)*%
X44900000Y-32587500D03*
%TO.P,LED0,3,DIN*%
%TO.N,Net-(LED0-Pad3)*%
X50350000Y-34087500D03*
D18*
%TO.P,LED0,4,VSS*%
%TO.N,GND*%
X50350000Y-32587500D03*
%TD*%
D15*
%TO.P,SW54,1,1*%
%TO.N,Net-(D29-Pad2)*%
X118190000Y-140970000D03*
D14*
X120015000Y-140970000D03*
D16*
X116465000Y-140970000D03*
%TO.P,SW54,2,2*%
%TO.N,row5*%
X129915000Y-143510000D03*
D14*
X126365000Y-143510000D03*
D15*
X128165000Y-143510000D03*
%TD*%
D17*
%TO.P,LED41,1,VDD*%
%TO.N,+5V*%
X63950000Y-115050000D03*
%TO.P,LED41,2,DOUT*%
%TO.N,Net-(LED40-Pad3)*%
X63950000Y-113550000D03*
%TO.P,LED41,3,DIN*%
%TO.N,Net-(LED41-Pad3)*%
X69400000Y-115050000D03*
D18*
%TO.P,LED41,4,VSS*%
%TO.N,GND*%
X69400000Y-113550000D03*
%TD*%
D17*
%TO.P,LED24,1,VDD*%
%TO.N,+5V*%
X121100000Y-76950000D03*
%TO.P,LED24,2,DOUT*%
%TO.N,Net-(LED23-Pad3)*%
X121100000Y-75450000D03*
%TO.P,LED24,3,DIN*%
%TO.N,Net-(LED24-Pad3)*%
X126550000Y-76950000D03*
D18*
%TO.P,LED24,4,VSS*%
%TO.N,GND*%
X126550000Y-75450000D03*
%TD*%
D15*
%TO.P,SW3B1,1,1*%
%TO.N,Net-(D33-Pad1)*%
X89615000Y-40957500D03*
D16*
X87890000Y-40957500D03*
D14*
X91440000Y-40957500D03*
%TO.P,SW3B1,2,2*%
%TO.N,col3*%
X97790000Y-43497500D03*
D16*
X101340000Y-43497500D03*
D15*
X99590000Y-43497500D03*
%TD*%
D14*
%TO.P,SW2B1,1,1*%
%TO.N,Net-(D32-Pad1)*%
X72390000Y-40957500D03*
D16*
X68840000Y-40957500D03*
D15*
X70565000Y-40957500D03*
D16*
%TO.P,SW2B1,2,2*%
%TO.N,col2*%
X82290000Y-43497500D03*
D14*
X78740000Y-43497500D03*
D15*
X80540000Y-43497500D03*
%TD*%
D11*
%TO.P,D7,1,K*%
%TO.N,col0*%
X38100000Y-75565000D03*
D10*
%TO.P,D7,2,A*%
%TO.N,Net-(D7-Pad2)*%
X38100000Y-83185000D03*
%TD*%
D16*
%TO.P,SW41,1,1*%
%TO.N,Net-(D20-Pad2)*%
X59315000Y-121920000D03*
D14*
X62865000Y-121920000D03*
D15*
X61040000Y-121920000D03*
D16*
%TO.P,SW41,2,2*%
%TO.N,row4*%
X72765000Y-124460000D03*
D15*
X71015000Y-124460000D03*
D14*
X69215000Y-124460000D03*
%TD*%
D11*
%TO.P,D26,1,K*%
%TO.N,col1*%
X56515000Y-147637500D03*
D10*
%TO.P,D26,2,A*%
%TO.N,Net-(D26-Pad2)*%
X64135000Y-147637500D03*
%TD*%
D11*
%TO.P,D17,1,K*%
%TO.N,col4*%
X114300000Y-94615000D03*
D10*
%TO.P,D17,2,A*%
%TO.N,Net-(D17-Pad2)*%
X114300000Y-102235000D03*
%TD*%
D16*
%TO.P,SW1,1,1*%
%TO.N,col1*%
X59315000Y-40957500D03*
D15*
X61040000Y-40957500D03*
D14*
X62865000Y-40957500D03*
%TO.P,SW1,2,2*%
%TO.N,Net-(D32-Pad1)*%
X69215000Y-43497500D03*
D16*
X72765000Y-43497500D03*
D15*
X71015000Y-43497500D03*
%TD*%
D11*
%TO.P,D28,1,K*%
%TO.N,col3*%
X95250000Y-132715000D03*
D10*
%TO.P,D28,2,A*%
%TO.N,Net-(D28-Pad2)*%
X95250000Y-140335000D03*
%TD*%
D11*
%TO.P,D35,1,K*%
%TO.N,Net-(D35-Pad1)*%
X129540000Y-47625000D03*
D10*
%TO.P,D35,2,A*%
%TO.N,row0*%
X121920000Y-47625000D03*
%TD*%
D11*
%TO.P,D4,1,K*%
%TO.N,col3*%
X95250000Y-56515000D03*
D10*
%TO.P,D4,2,A*%
%TO.N,Net-(D4-Pad2)*%
X95250000Y-64135000D03*
%TD*%
D14*
%TO.P,SW55B1,1,1*%
%TO.N,row5*%
X129540000Y-140970000D03*
D16*
X125990000Y-140970000D03*
D15*
X127715000Y-140970000D03*
D16*
%TO.P,SW55B1,2,2*%
%TO.N,Net-(SW55B1-Pad2)*%
X139440000Y-143510000D03*
D15*
X137690000Y-143510000D03*
D14*
X135890000Y-143510000D03*
%TD*%
D12*
%TO.P,LED31,1,VDD*%
%TO.N,+5V*%
X69400000Y-94500000D03*
%TO.P,LED31,2,DOUT*%
%TO.N,Net-(LED31-Pad2)*%
X69400000Y-96000000D03*
%TO.P,LED31,3,DIN*%
%TO.N,Net-(LED30-Pad2)*%
X63950000Y-94500000D03*
D13*
%TO.P,LED31,4,VSS*%
%TO.N,GND*%
X63950000Y-96000000D03*
%TD*%
D15*
%TO.P,SW25,1,1*%
%TO.N,Net-(D12-Pad2)*%
X137240000Y-83820000D03*
D16*
X135515000Y-83820000D03*
D14*
X139065000Y-83820000D03*
D15*
%TO.P,SW25,2,2*%
%TO.N,row2*%
X147215000Y-86360000D03*
D16*
X148965000Y-86360000D03*
D14*
X145415000Y-86360000D03*
%TD*%
D11*
%TO.P,D3,1,K*%
%TO.N,col2*%
X76200000Y-56515000D03*
D10*
%TO.P,D3,2,A*%
%TO.N,Net-(D3-Pad2)*%
X76200000Y-64135000D03*
%TD*%
D17*
%TO.P,LED1,1,VDD*%
%TO.N,+5V*%
X63950000Y-34087500D03*
%TO.P,LED1,2,DOUT*%
%TO.N,Net-(LED0B1-Pad3)*%
X63950000Y-32587500D03*
%TO.P,LED1,3,DIN*%
%TO.N,Net-(LED1-Pad3)*%
X69400000Y-34087500D03*
D18*
%TO.P,LED1,4,VSS*%
%TO.N,GND*%
X69400000Y-32587500D03*
%TD*%
D11*
%TO.P,D6,1,K*%
%TO.N,col5*%
X133350000Y-56515000D03*
D10*
%TO.P,D6,2,A*%
%TO.N,Net-(D6-Pad2)*%
X133350000Y-64135000D03*
%TD*%
D11*
%TO.P,D18,1,K*%
%TO.N,col5*%
X133350000Y-94615000D03*
D10*
%TO.P,D18,2,A*%
%TO.N,Net-(D18-Pad2)*%
X133350000Y-102235000D03*
%TD*%
D17*
%TO.P,LED21,1,VDD*%
%TO.N,+5V*%
X63950000Y-76950000D03*
%TO.P,LED21,2,DOUT*%
%TO.N,Net-(LED20-Pad3)*%
X63950000Y-75450000D03*
%TO.P,LED21,3,DIN*%
%TO.N,Net-(LED21-Pad3)*%
X69400000Y-76950000D03*
D18*
%TO.P,LED21,4,VSS*%
%TO.N,GND*%
X69400000Y-75450000D03*
%TD*%
D11*
%TO.P,D34,1,K*%
%TO.N,Net-(D34-Pad1)*%
X110490000Y-47625000D03*
D10*
%TO.P,D34,2,A*%
%TO.N,row0*%
X102870000Y-47625000D03*
%TD*%
D12*
%TO.P,LED51,1,VDD*%
%TO.N,+5V*%
X69400000Y-132600000D03*
%TO.P,LED51,2,DOUT*%
%TO.N,Net-(LED51-Pad2)*%
X69400000Y-134100000D03*
%TO.P,LED51,3,DIN*%
%TO.N,Net-(LED6-Pad2)*%
X63950000Y-132600000D03*
D13*
%TO.P,LED51,4,VSS*%
%TO.N,GND*%
X63950000Y-134100000D03*
%TD*%
D17*
%TO.P,LED25,1,VDD*%
%TO.N,+5V*%
X140150000Y-76950000D03*
%TO.P,LED25,2,DOUT*%
%TO.N,Net-(LED24-Pad3)*%
X140150000Y-75450000D03*
%TO.P,LED25,3,DIN*%
%TO.N,Net-(LED15-Pad2)*%
X145600000Y-76950000D03*
D18*
%TO.P,LED25,4,VSS*%
%TO.N,GND*%
X145600000Y-75450000D03*
%TD*%
D15*
%TO.P,SW4B1,1,1*%
%TO.N,Net-(D34-Pad1)*%
X108665000Y-40957500D03*
D14*
X110490000Y-40957500D03*
D16*
X106940000Y-40957500D03*
%TO.P,SW4B1,2,2*%
%TO.N,col4*%
X120390000Y-43497500D03*
D14*
X116840000Y-43497500D03*
D15*
X118640000Y-43497500D03*
%TD*%
D17*
%TO.P,LED23,1,VDD*%
%TO.N,+5V*%
X102050000Y-76950000D03*
%TO.P,LED23,2,DOUT*%
%TO.N,Net-(LED22-Pad3)*%
X102050000Y-75450000D03*
%TO.P,LED23,3,DIN*%
%TO.N,Net-(LED23-Pad3)*%
X107500000Y-76950000D03*
D18*
%TO.P,LED23,4,VSS*%
%TO.N,GND*%
X107500000Y-75450000D03*
%TD*%
D16*
%TO.P,SW5,1,1*%
%TO.N,col5*%
X135515000Y-40957500D03*
D14*
X139065000Y-40957500D03*
D15*
X137240000Y-40957500D03*
D16*
%TO.P,SW5,2,2*%
%TO.N,Net-(D36-Pad1)*%
X148965000Y-43497500D03*
D14*
X145415000Y-43497500D03*
D15*
X147215000Y-43497500D03*
%TD*%
D17*
%TO.P,LED40,1,VDD*%
%TO.N,+5V*%
X44900000Y-115050000D03*
%TO.P,LED40,2,DOUT*%
%TO.N,Net-(LED40-Pad2)*%
X44900000Y-113550000D03*
%TO.P,LED40,3,DIN*%
%TO.N,Net-(LED40-Pad3)*%
X50350000Y-115050000D03*
D18*
%TO.P,LED40,4,VSS*%
%TO.N,GND*%
X50350000Y-113550000D03*
%TD*%
D11*
%TO.P,D2,1,K*%
%TO.N,col1*%
X57150000Y-56515000D03*
D10*
%TO.P,D2,2,A*%
%TO.N,Net-(D2-Pad2)*%
X57150000Y-64135000D03*
%TD*%
D11*
%TO.P,D30,1,K*%
%TO.N,col5*%
X132715000Y-147637500D03*
D10*
%TO.P,D30,2,A*%
%TO.N,Net-(SW55B1-Pad2)*%
X140335000Y-147637500D03*
%TD*%
D12*
%TO.P,LED7,1,VDD*%
%TO.N,+5V*%
X136075000Y-132600000D03*
%TO.P,LED7,2,DOUT*%
%TO.N,Net-(LED55-Pad3)*%
X136075000Y-134100000D03*
%TO.P,LED7,3,DIN*%
%TO.N,Net-(LED7-Pad3)*%
X130625000Y-132600000D03*
D13*
%TO.P,LED7,4,VSS*%
%TO.N,GND*%
X130625000Y-134100000D03*
%TD*%
D16*
%TO.P,SW20,1,1*%
%TO.N,Net-(D7-Pad2)*%
X40265000Y-83820000D03*
D14*
X43815000Y-83820000D03*
D15*
X41990000Y-83820000D03*
D14*
%TO.P,SW20,2,2*%
%TO.N,row2*%
X50165000Y-86360000D03*
D16*
X53715000Y-86360000D03*
D15*
X51965000Y-86360000D03*
%TD*%
D17*
%TO.P,LED3B1,1,VDD*%
%TO.N,+5V*%
X111575000Y-34087500D03*
%TO.P,LED3B1,2,DOUT*%
%TO.N,Net-(LED3-Pad3)*%
X111575000Y-32587500D03*
%TO.P,LED3B1,3,DIN*%
%TO.N,Net-(LED3B1-Pad3)*%
X117025000Y-34087500D03*
D18*
%TO.P,LED3B1,4,VSS*%
%TO.N,GND*%
X117025000Y-32587500D03*
%TD*%
D11*
%TO.P,D29,1,K*%
%TO.N,col4*%
X114300000Y-132715000D03*
D10*
%TO.P,D29,2,A*%
%TO.N,Net-(D29-Pad2)*%
X114300000Y-140335000D03*
%TD*%
D15*
%TO.P,SW1B1,1,1*%
%TO.N,Net-(D31-Pad1)*%
X51515000Y-40957500D03*
D14*
X53340000Y-40957500D03*
D16*
X49790000Y-40957500D03*
%TO.P,SW1B1,2,2*%
%TO.N,col1*%
X63240000Y-43497500D03*
D14*
X59690000Y-43497500D03*
D15*
X61490000Y-43497500D03*
%TD*%
D17*
%TO.P,LED5,1,VDD*%
%TO.N,+5V*%
X140150000Y-34087500D03*
%TO.P,LED5,2,DOUT*%
%TO.N,Net-(LED4B1-Pad3)*%
X140150000Y-32587500D03*
%TO.P,LED5,3,DIN*%
%TO.N,LEDIN*%
X145600000Y-34087500D03*
D18*
%TO.P,LED5,4,VSS*%
%TO.N,GND*%
X145600000Y-32587500D03*
%TD*%
D14*
%TO.P,SW4,1,1*%
%TO.N,col4*%
X120015000Y-40957500D03*
D16*
X116465000Y-40957500D03*
D15*
X118190000Y-40957500D03*
D14*
%TO.P,SW4,2,2*%
%TO.N,Net-(D35-Pad1)*%
X126365000Y-43497500D03*
D15*
X128165000Y-43497500D03*
D16*
X129915000Y-43497500D03*
%TD*%
D11*
%TO.P,D33,1,K*%
%TO.N,Net-(D33-Pad1)*%
X91440000Y-47625000D03*
D10*
%TO.P,D33,2,A*%
%TO.N,row0*%
X83820000Y-47625000D03*
%TD*%
D17*
%TO.P,LED0B1,1,VDD*%
%TO.N,+5V*%
X54425000Y-34087500D03*
%TO.P,LED0B1,2,DOUT*%
%TO.N,Net-(LED0-Pad3)*%
X54425000Y-32587500D03*
%TO.P,LED0B1,3,DIN*%
%TO.N,Net-(LED0B1-Pad3)*%
X59875000Y-34087500D03*
D18*
%TO.P,LED0B1,4,VSS*%
%TO.N,GND*%
X59875000Y-32587500D03*
%TD*%
D17*
%TO.P,LED3,1,VDD*%
%TO.N,+5V*%
X102050000Y-34087500D03*
%TO.P,LED3,2,DOUT*%
%TO.N,Net-(LED2B1-Pad3)*%
X102050000Y-32587500D03*
%TO.P,LED3,3,DIN*%
%TO.N,Net-(LED3-Pad3)*%
X107500000Y-34087500D03*
D18*
%TO.P,LED3,4,VSS*%
%TO.N,GND*%
X107500000Y-32587500D03*
%TD*%
D16*
%TO.P,SW5B1,1,1*%
%TO.N,Net-(D35-Pad1)*%
X125990000Y-40957500D03*
D15*
X127715000Y-40957500D03*
D14*
X129540000Y-40957500D03*
D15*
%TO.P,SW5B1,2,2*%
%TO.N,col5*%
X137690000Y-43497500D03*
D14*
X135890000Y-43497500D03*
D16*
X139440000Y-43497500D03*
%TD*%
%TO.P,SW30,1,1*%
%TO.N,Net-(D14-Pad2)*%
X40265000Y-102870000D03*
D15*
X41990000Y-102870000D03*
D14*
X43815000Y-102870000D03*
D16*
%TO.P,SW30,2,2*%
%TO.N,row3*%
X53715000Y-105410000D03*
D15*
X51965000Y-105410000D03*
D14*
X50165000Y-105410000D03*
%TD*%
D11*
%TO.P,D27,1,K*%
%TO.N,col2*%
X76200000Y-132715000D03*
D10*
%TO.P,D27,2,A*%
%TO.N,Net-(D27-Pad2)*%
X76200000Y-140335000D03*
%TD*%
D17*
%TO.P,LED42,1,VDD*%
%TO.N,+5V*%
X83000000Y-115050000D03*
%TO.P,LED42,2,DOUT*%
%TO.N,Net-(LED41-Pad3)*%
X83000000Y-113550000D03*
%TO.P,LED42,3,DIN*%
%TO.N,Net-(LED42-Pad3)*%
X88450000Y-115050000D03*
D18*
%TO.P,LED42,4,VSS*%
%TO.N,GND*%
X88450000Y-113550000D03*
%TD*%
D12*
%TO.P,LED52,1,VDD*%
%TO.N,+5V*%
X88450000Y-132600000D03*
%TO.P,LED52,2,DOUT*%
%TO.N,Net-(LED52-Pad2)*%
X88450000Y-134100000D03*
%TO.P,LED52,3,DIN*%
%TO.N,Net-(LED51-Pad2)*%
X83000000Y-132600000D03*
D13*
%TO.P,LED52,4,VSS*%
%TO.N,GND*%
X83000000Y-134100000D03*
%TD*%
D17*
%TO.P,LED2B1,1,VDD*%
%TO.N,+5V*%
X92525000Y-34087500D03*
%TO.P,LED2B1,2,DOUT*%
%TO.N,Net-(LED2-Pad3)*%
X92525000Y-32587500D03*
%TO.P,LED2B1,3,DIN*%
%TO.N,Net-(LED2B1-Pad3)*%
X97975000Y-34087500D03*
D18*
%TO.P,LED2B1,4,VSS*%
%TO.N,GND*%
X97975000Y-32587500D03*
%TD*%
D14*
%TO.P,SW42,1,1*%
%TO.N,Net-(D21-Pad2)*%
X81915000Y-121920000D03*
D16*
X78365000Y-121920000D03*
D15*
X80090000Y-121920000D03*
%TO.P,SW42,2,2*%
%TO.N,row4*%
X90065000Y-124460000D03*
D14*
X88265000Y-124460000D03*
D16*
X91815000Y-124460000D03*
%TD*%
D12*
%TO.P,LED33,1,VDD*%
%TO.N,+5V*%
X107500000Y-94500000D03*
%TO.P,LED33,2,DOUT*%
%TO.N,Net-(LED33-Pad2)*%
X107500000Y-96000000D03*
%TO.P,LED33,3,DIN*%
%TO.N,Net-(LED32-Pad2)*%
X102050000Y-94500000D03*
D13*
%TO.P,LED33,4,VSS*%
%TO.N,GND*%
X102050000Y-96000000D03*
%TD*%
D14*
%TO.P,SW55,1,1*%
%TO.N,Net-(SW55B1-Pad2)*%
X139065000Y-140970000D03*
D15*
X137240000Y-140970000D03*
D16*
X135515000Y-140970000D03*
D15*
%TO.P,SW55,2,2*%
%TO.N,row5*%
X147215000Y-143510000D03*
D16*
X148965000Y-143510000D03*
D14*
X145415000Y-143510000D03*
%TD*%
D15*
%TO.P,SW24,1,1*%
%TO.N,Net-(D11-Pad2)*%
X118190000Y-83820000D03*
D14*
X120015000Y-83820000D03*
D16*
X116465000Y-83820000D03*
%TO.P,SW24,2,2*%
%TO.N,row2*%
X129915000Y-86360000D03*
D14*
X126365000Y-86360000D03*
D15*
X128165000Y-86360000D03*
%TD*%
D16*
%TO.P,SW40,1,1*%
%TO.N,Net-(D19-Pad2)*%
X40265000Y-121920000D03*
D14*
X43815000Y-121920000D03*
D15*
X41990000Y-121920000D03*
%TO.P,SW40,2,2*%
%TO.N,row4*%
X51965000Y-124460000D03*
D16*
X53715000Y-124460000D03*
D14*
X50165000Y-124460000D03*
%TD*%
D11*
%TO.P,D5,1,K*%
%TO.N,col4*%
X114300000Y-56515000D03*
D10*
%TO.P,D5,2,A*%
%TO.N,Net-(D5-Pad2)*%
X114300000Y-64135000D03*
%TD*%
D15*
%TO.P,SW14,1,1*%
%TO.N,Net-(D5-Pad2)*%
X118190000Y-64770000D03*
D14*
X120015000Y-64770000D03*
D16*
X116465000Y-64770000D03*
D15*
%TO.P,SW14,2,2*%
%TO.N,row1*%
X128165000Y-67310000D03*
D14*
X126365000Y-67310000D03*
D16*
X129915000Y-67310000D03*
%TD*%
D12*
%TO.P,LED35,1,VDD*%
%TO.N,+5V*%
X145600000Y-94500000D03*
%TO.P,LED35,2,DOUT*%
%TO.N,Net-(LED35-Pad2)*%
X145600000Y-96000000D03*
%TO.P,LED35,3,DIN*%
%TO.N,Net-(LED34-Pad2)*%
X140150000Y-94500000D03*
D13*
%TO.P,LED35,4,VSS*%
%TO.N,GND*%
X140150000Y-96000000D03*
%TD*%
D11*
%TO.P,D10,1,K*%
%TO.N,col3*%
X95250000Y-75406250D03*
D10*
%TO.P,D10,2,A*%
%TO.N,Net-(D10-Pad2)*%
X95250000Y-83026250D03*
%TD*%
D11*
%TO.P,D15,1,K*%
%TO.N,col1*%
X57150000Y-94615000D03*
D10*
%TO.P,D15,2,A*%
%TO.N,Net-(D15-Pad2)*%
X57150000Y-102235000D03*
%TD*%
D16*
%TO.P,SW44,1,1*%
%TO.N,Net-(D23-Pad2)*%
X116465000Y-121920000D03*
D15*
X118190000Y-121920000D03*
D14*
X120015000Y-121920000D03*
D16*
%TO.P,SW44,2,2*%
%TO.N,row4*%
X129915000Y-124460000D03*
D15*
X128165000Y-124460000D03*
D14*
X126365000Y-124460000D03*
%TD*%
D11*
%TO.P,D21,1,K*%
%TO.N,col2*%
X76200000Y-113665000D03*
D10*
%TO.P,D21,2,A*%
%TO.N,Net-(D21-Pad2)*%
X76200000Y-121285000D03*
%TD*%
D12*
%TO.P,LED14,1,VDD*%
%TO.N,+5V*%
X126550000Y-56400000D03*
%TO.P,LED14,2,DOUT*%
%TO.N,Net-(LED14-Pad2)*%
X126550000Y-57900000D03*
%TO.P,LED14,3,DIN*%
%TO.N,Net-(LED13-Pad2)*%
X121100000Y-56400000D03*
D13*
%TO.P,LED14,4,VSS*%
%TO.N,GND*%
X121100000Y-57900000D03*
%TD*%
D19*
%TO.P,J1,1,Pin_1*%
%TO.N,row0*%
X158750000Y-72881250D03*
D20*
%TO.P,J1,2,Pin_2*%
%TO.N,row1*%
X158750000Y-75421250D03*
%TO.P,J1,3,Pin_3*%
%TO.N,row2*%
X158750000Y-77961250D03*
%TO.P,J1,4,Pin_4*%
%TO.N,row3*%
X158750000Y-80501250D03*
%TO.P,J1,5,Pin_5*%
%TO.N,row4*%
X158750000Y-83041250D03*
%TO.P,J1,6,Pin_6*%
%TO.N,row5*%
X158750000Y-85581250D03*
%TO.P,J1,7,Pin_7*%
%TO.N,+5V*%
X158750000Y-88121250D03*
%TO.P,J1,8,Pin_8*%
%TO.N,GND*%
X158750000Y-90661250D03*
%TD*%
D16*
%TO.P,SW23,1,1*%
%TO.N,Net-(D10-Pad2)*%
X97415000Y-83820000D03*
D15*
X99140000Y-83820000D03*
D14*
X100965000Y-83820000D03*
%TO.P,SW23,2,2*%
%TO.N,row2*%
X107315000Y-86360000D03*
D15*
X109115000Y-86360000D03*
D16*
X110865000Y-86360000D03*
%TD*%
D17*
%TO.P,LED43,1,VDD*%
%TO.N,+5V*%
X102050000Y-115050000D03*
%TO.P,LED43,2,DOUT*%
%TO.N,Net-(LED42-Pad3)*%
X102050000Y-113550000D03*
%TO.P,LED43,3,DIN*%
%TO.N,Net-(LED43-Pad3)*%
X107500000Y-115050000D03*
D18*
%TO.P,LED43,4,VSS*%
%TO.N,GND*%
X107500000Y-113550000D03*
%TD*%
D11*
%TO.P,D24,1,K*%
%TO.N,col5*%
X133350000Y-113665000D03*
D10*
%TO.P,D24,2,A*%
%TO.N,Net-(D24-Pad2)*%
X133350000Y-121285000D03*
%TD*%
D17*
%TO.P,LED4B1,1,VDD*%
%TO.N,+5V*%
X130625000Y-34087500D03*
%TO.P,LED4B1,2,DOUT*%
%TO.N,Net-(LED4-Pad3)*%
X130625000Y-32587500D03*
%TO.P,LED4B1,3,DIN*%
%TO.N,Net-(LED4B1-Pad3)*%
X136075000Y-34087500D03*
D18*
%TO.P,LED4B1,4,VSS*%
%TO.N,GND*%
X136075000Y-32587500D03*
%TD*%
D11*
%TO.P,D8,1,K*%
%TO.N,col1*%
X57150000Y-75565000D03*
D10*
%TO.P,D8,2,A*%
%TO.N,Net-(D8-Pad2)*%
X57150000Y-83185000D03*
%TD*%
D16*
%TO.P,SW53,1,1*%
%TO.N,Net-(D28-Pad2)*%
X97415000Y-140970000D03*
D15*
X99140000Y-140970000D03*
D14*
X100965000Y-140970000D03*
%TO.P,SW53,2,2*%
%TO.N,row5*%
X107315000Y-143510000D03*
D15*
X109115000Y-143510000D03*
D16*
X110865000Y-143510000D03*
%TD*%
D17*
%TO.P,LED22,1,VDD*%
%TO.N,+5V*%
X83000000Y-76950000D03*
%TO.P,LED22,2,DOUT*%
%TO.N,Net-(LED21-Pad3)*%
X83000000Y-75450000D03*
%TO.P,LED22,3,DIN*%
%TO.N,Net-(LED22-Pad3)*%
X88450000Y-76950000D03*
D18*
%TO.P,LED22,4,VSS*%
%TO.N,GND*%
X88450000Y-75450000D03*
%TD*%
D17*
%TO.P,LED44,1,VDD*%
%TO.N,+5V*%
X121100000Y-115050000D03*
%TO.P,LED44,2,DOUT*%
%TO.N,Net-(LED43-Pad3)*%
X121100000Y-113550000D03*
%TO.P,LED44,3,DIN*%
%TO.N,Net-(LED44-Pad3)*%
X126550000Y-115050000D03*
D18*
%TO.P,LED44,4,VSS*%
%TO.N,GND*%
X126550000Y-113550000D03*
%TD*%
D16*
%TO.P,SW12,1,1*%
%TO.N,Net-(D3-Pad2)*%
X78365000Y-64770000D03*
D14*
X81915000Y-64770000D03*
D15*
X80090000Y-64770000D03*
D14*
%TO.P,SW12,2,2*%
%TO.N,row1*%
X88265000Y-67310000D03*
D16*
X91815000Y-67310000D03*
D15*
X90065000Y-67310000D03*
%TD*%
D11*
%TO.P,D12,1,K*%
%TO.N,col5*%
X133350000Y-75565000D03*
D10*
%TO.P,D12,2,A*%
%TO.N,Net-(D12-Pad2)*%
X133350000Y-83185000D03*
%TD*%
D14*
%TO.P,SW22,1,1*%
%TO.N,Net-(D9-Pad2)*%
X81915000Y-83820000D03*
D16*
X78365000Y-83820000D03*
D15*
X80090000Y-83820000D03*
D16*
%TO.P,SW22,2,2*%
%TO.N,row2*%
X91815000Y-86360000D03*
D14*
X88265000Y-86360000D03*
D15*
X90065000Y-86360000D03*
%TD*%
D17*
%TO.P,LED20,1,VDD*%
%TO.N,+5V*%
X44900000Y-76950000D03*
%TO.P,LED20,2,DOUT*%
%TO.N,Net-(LED20-Pad2)*%
X44900000Y-75450000D03*
%TO.P,LED20,3,DIN*%
%TO.N,Net-(LED20-Pad3)*%
X50350000Y-76950000D03*
D18*
%TO.P,LED20,4,VSS*%
%TO.N,GND*%
X50350000Y-75450000D03*
%TD*%
D11*
%TO.P,D14,1,K*%
%TO.N,col0*%
X38100000Y-94615000D03*
D10*
%TO.P,D14,2,A*%
%TO.N,Net-(D14-Pad2)*%
X38100000Y-102235000D03*
%TD*%
D15*
%TO.P,SW35,1,1*%
%TO.N,Net-(D18-Pad2)*%
X137240000Y-102870000D03*
D14*
X139065000Y-102870000D03*
D16*
X135515000Y-102870000D03*
%TO.P,SW35,2,2*%
%TO.N,row3*%
X148965000Y-105410000D03*
D14*
X145415000Y-105410000D03*
D15*
X147215000Y-105410000D03*
%TD*%
D11*
%TO.P,D11,1,K*%
%TO.N,col4*%
X114300000Y-75565000D03*
D10*
%TO.P,D11,2,A*%
%TO.N,Net-(D11-Pad2)*%
X114300000Y-83185000D03*
%TD*%
D17*
%TO.P,LED45,1,VDD*%
%TO.N,+5V*%
X140150000Y-115050000D03*
%TO.P,LED45,2,DOUT*%
%TO.N,Net-(LED44-Pad3)*%
X140150000Y-113550000D03*
%TO.P,LED45,3,DIN*%
%TO.N,Net-(LED35-Pad2)*%
X145600000Y-115050000D03*
D18*
%TO.P,LED45,4,VSS*%
%TO.N,GND*%
X145600000Y-113550000D03*
%TD*%
D12*
%TO.P,LED30,1,VDD*%
%TO.N,+5V*%
X50350000Y-94500000D03*
%TO.P,LED30,2,DOUT*%
%TO.N,Net-(LED30-Pad2)*%
X50350000Y-96000000D03*
%TO.P,LED30,3,DIN*%
%TO.N,Net-(LED20-Pad2)*%
X44900000Y-94500000D03*
D13*
%TO.P,LED30,4,VSS*%
%TO.N,GND*%
X44900000Y-96000000D03*
%TD*%
D14*
%TO.P,SW43,1,1*%
%TO.N,Net-(D22-Pad2)*%
X100965000Y-121920000D03*
D16*
X97415000Y-121920000D03*
D15*
X99140000Y-121920000D03*
%TO.P,SW43,2,2*%
%TO.N,row4*%
X109115000Y-124460000D03*
D16*
X110865000Y-124460000D03*
D14*
X107315000Y-124460000D03*
%TD*%
D12*
%TO.P,LED15,1,VDD*%
%TO.N,+5V*%
X145600000Y-56400000D03*
%TO.P,LED15,2,DOUT*%
%TO.N,Net-(LED15-Pad2)*%
X145600000Y-57900000D03*
%TO.P,LED15,3,DIN*%
%TO.N,Net-(LED14-Pad2)*%
X140150000Y-56400000D03*
D13*
%TO.P,LED15,4,VSS*%
%TO.N,GND*%
X140150000Y-57900000D03*
%TD*%
D12*
%TO.P,LED50,1,VDD*%
%TO.N,+5V*%
X50350000Y-132600000D03*
%TO.P,LED50,2,DOUT*%
%TO.N,Net-(LED6-Pad3)*%
X50350000Y-134100000D03*
%TO.P,LED50,3,DIN*%
%TO.N,Net-(LED40-Pad2)*%
X44900000Y-132600000D03*
D13*
%TO.P,LED50,4,VSS*%
%TO.N,GND*%
X44900000Y-134100000D03*
%TD*%
D21*
%TO.N,GND*%
X158750000Y-133350000D02*
X158750000Y-90661250D01*
X156368750Y-135731250D02*
X158750000Y-133350000D01*
X136525000Y-135731250D02*
X156368750Y-135731250D01*
X136525000Y-135731250D02*
X137318750Y-135731250D01*
X127793750Y-135731250D02*
X136525000Y-135731250D01*
D22*
X156368750Y-135731250D02*
X137318750Y-135731250D01*
D21*
%TO.N,+5V*%
X155575000Y-88106250D02*
X155590000Y-88121250D01*
X155575000Y-88106250D02*
X155575000Y-92868750D01*
X155575000Y-78581250D02*
X155575000Y-88106250D01*
X155590000Y-88121250D02*
X158750000Y-88121250D01*
D22*
%TO.N,LEDIN*%
X148431250Y-29368750D02*
X150018750Y-30956250D01*
X150018750Y-30956250D02*
X150018750Y-32543750D01*
X110490000Y-29368750D02*
X148431250Y-29368750D01*
X106521250Y-25400000D02*
X110490000Y-29368750D01*
X145643750Y-34131250D02*
X145600000Y-34087500D01*
X148431250Y-34131250D02*
X145643750Y-34131250D01*
X150018750Y-32543750D02*
X148431250Y-34131250D01*
D21*
%TO.N,+5V*%
X155575000Y-36512500D02*
X155575000Y-54768750D01*
X154781250Y-35718750D02*
X155575000Y-36512500D01*
X137318750Y-35718750D02*
X154781250Y-35718750D01*
%TO.N,GND*%
X149225000Y-73818750D02*
X148431250Y-73818750D01*
X150812500Y-61912500D02*
X150812500Y-72231250D01*
X148431250Y-59531250D02*
X150812500Y-61912500D01*
X137318750Y-59531250D02*
X148431250Y-59531250D01*
X150812500Y-72231250D02*
X149225000Y-73818750D01*
D22*
%TO.N,Net-(LED35-Pad2)*%
X145643750Y-115093750D02*
X145600000Y-115050000D01*
X149225000Y-115093750D02*
X145643750Y-115093750D01*
X151606250Y-98425000D02*
X151606250Y-112712500D01*
X151606250Y-112712500D02*
X149225000Y-115093750D01*
X145600000Y-96000000D02*
X149181250Y-96000000D01*
X149181250Y-96000000D02*
X151606250Y-98425000D01*
D21*
%TO.N,GND*%
X150812500Y-99218750D02*
X150812500Y-110331250D01*
X150812500Y-110331250D02*
X149225000Y-111918750D01*
X149225000Y-97631250D02*
X150812500Y-99218750D01*
X148431250Y-111918750D02*
X149225000Y-111918750D01*
D22*
%TO.N,Net-(D20-Pad2)*%
X58680000Y-121285000D02*
X59315000Y-121920000D01*
X57150000Y-121285000D02*
X58680000Y-121285000D01*
D21*
%TO.N,+5V*%
X155575000Y-92868750D02*
X155575000Y-111125000D01*
X148431250Y-92868750D02*
X155575000Y-92868750D01*
X155575000Y-54768750D02*
X155575000Y-78581250D01*
X137318750Y-78581250D02*
X155575000Y-78581250D01*
X155575000Y-113506250D02*
X155575000Y-111125000D01*
X137318750Y-116681250D02*
X152400000Y-116681250D01*
X155575000Y-111125000D02*
X155575000Y-129381250D01*
X152400000Y-116681250D02*
X155575000Y-113506250D01*
X155575000Y-129381250D02*
X153987500Y-130968750D01*
X153987500Y-130968750D02*
X148431250Y-130968750D01*
X148431250Y-54768750D02*
X155575000Y-54768750D01*
%TO.N,GND*%
X42068750Y-59531250D02*
X33937500Y-59531250D01*
X33637500Y-59831250D02*
X33637500Y-73518750D01*
X33937500Y-59531250D02*
X33637500Y-59831250D01*
X33637500Y-32543750D02*
X33637500Y-59831250D01*
X33937500Y-73818750D02*
X53181250Y-73818750D01*
X33637500Y-73518750D02*
X33637500Y-97331250D01*
X33937500Y-73818750D02*
X33637500Y-73518750D01*
X33937500Y-97631250D02*
X33637500Y-97331250D01*
X42068750Y-97631250D02*
X33937500Y-97631250D01*
X33637500Y-97331250D02*
X33637500Y-111618750D01*
X33937500Y-111918750D02*
X33637500Y-111618750D01*
X33637500Y-111618750D02*
X33637500Y-133650000D01*
X53181250Y-111918750D02*
X33937500Y-111918750D01*
X35718750Y-135731250D02*
X42068750Y-135731250D01*
X33637500Y-133650000D02*
X35718750Y-135731250D01*
X33637500Y-32543750D02*
X35225000Y-30956250D01*
X35225000Y-30956250D02*
X53181250Y-30956250D01*
%TO.N,+5V*%
X36512500Y-127793750D02*
X36512500Y-118268750D01*
X38100000Y-129381250D02*
X36512500Y-127793750D01*
X42068750Y-129381250D02*
X38100000Y-129381250D01*
X43656250Y-130968750D02*
X42068750Y-129381250D01*
X53181250Y-130968750D02*
X43656250Y-130968750D01*
X38100000Y-116681250D02*
X42068750Y-116681250D01*
X36512500Y-118268750D02*
X38100000Y-116681250D01*
X42068750Y-116681250D02*
X43700000Y-115050000D01*
X42068750Y-116681250D02*
X61118750Y-116681250D01*
X43700000Y-115050000D02*
X44900000Y-115050000D01*
D22*
%TO.N,Net-(LED15-Pad2)*%
X152443750Y-76950000D02*
X145600000Y-76950000D01*
X153987500Y-75406250D02*
X152443750Y-76950000D01*
X153987500Y-58737500D02*
X153987500Y-75406250D01*
X153150000Y-57900000D02*
X153987500Y-58737500D01*
X145600000Y-57900000D02*
X153150000Y-57900000D01*
%TO.N,row5*%
X141287500Y-150018750D02*
X142875000Y-148431250D01*
X142875000Y-148431250D02*
X142875000Y-146050000D01*
X142875000Y-146050000D02*
X145415000Y-143510000D01*
X130175000Y-148431250D02*
X131762500Y-150018750D01*
X131762500Y-150018750D02*
X141287500Y-150018750D01*
X130175000Y-143770000D02*
X130175000Y-148431250D01*
X129915000Y-143510000D02*
X130175000Y-143770000D01*
%TO.N,Net-(SW55B1-Pad2)*%
X139440000Y-143510000D02*
X140335000Y-144405000D01*
X140335000Y-144405000D02*
X140335000Y-147637500D01*
%TO.N,row5*%
X53816250Y-143510000D02*
X53715000Y-143510000D01*
X65087500Y-150018750D02*
X55562500Y-150018750D01*
X53975000Y-143668750D02*
X53816250Y-143510000D01*
X66675000Y-148431250D02*
X65087500Y-150018750D01*
X66675000Y-146050000D02*
X66675000Y-148431250D01*
X55562500Y-150018750D02*
X53975000Y-148431250D01*
X53975000Y-148431250D02*
X53975000Y-143668750D01*
X69215000Y-143510000D02*
X66675000Y-146050000D01*
%TO.N,Net-(D26-Pad2)*%
X64135000Y-144405000D02*
X64135000Y-147637500D01*
X63240000Y-143510000D02*
X64135000Y-144405000D01*
%TO.N,row0*%
X121920000Y-47625000D02*
X123507500Y-49212500D01*
X102870000Y-47625000D02*
X104457500Y-49212500D01*
X83820000Y-47625000D02*
X85407500Y-49212500D01*
X64770000Y-47625000D02*
X66357500Y-49212500D01*
X47307500Y-49212500D02*
X63182500Y-49212500D01*
X45720000Y-47625000D02*
X47307500Y-49212500D01*
%TO.N,Net-(LED0-Pad2)*%
X41275000Y-34131250D02*
X42862500Y-32543750D01*
X37306250Y-34131250D02*
X41275000Y-34131250D01*
X34925000Y-36512500D02*
X37306250Y-34131250D01*
X42862500Y-32543750D02*
X44856250Y-32543750D01*
X34925000Y-52387500D02*
X34925000Y-36512500D01*
X44856250Y-32543750D02*
X44900000Y-32587500D01*
X37306250Y-54768750D02*
X34925000Y-52387500D01*
X41275000Y-54768750D02*
X37306250Y-54768750D01*
X44900000Y-56400000D02*
X42906250Y-56400000D01*
X42906250Y-56400000D02*
X41275000Y-54768750D01*
D21*
%TO.N,+5V*%
X38100000Y-35718750D02*
X42068750Y-35718750D01*
X36512500Y-37306250D02*
X38100000Y-35718750D01*
X36512500Y-51593750D02*
X36512500Y-37306250D01*
X43656250Y-54768750D02*
X42068750Y-53181250D01*
X42068750Y-53181250D02*
X38100000Y-53181250D01*
X53181250Y-54768750D02*
X43656250Y-54768750D01*
X38100000Y-53181250D02*
X36512500Y-51593750D01*
X43700000Y-34087500D02*
X42068750Y-35718750D01*
X44900000Y-34087500D02*
X43700000Y-34087500D01*
D22*
%TO.N,Net-(LED40-Pad2)*%
X42906250Y-132600000D02*
X44900000Y-132600000D01*
X41275000Y-130968750D02*
X42906250Y-132600000D01*
X37306250Y-130968750D02*
X41275000Y-130968750D01*
X34925000Y-117475000D02*
X34925000Y-128587500D01*
X42862500Y-113506250D02*
X41275000Y-115093750D01*
X44856250Y-113506250D02*
X42862500Y-113506250D01*
X41275000Y-115093750D02*
X37306250Y-115093750D01*
X37306250Y-115093750D02*
X34925000Y-117475000D01*
X44900000Y-113550000D02*
X44856250Y-113506250D01*
X34925000Y-128587500D02*
X37306250Y-130968750D01*
%TO.N,Net-(LED20-Pad2)*%
X42906250Y-94500000D02*
X44900000Y-94500000D01*
X37306250Y-92868750D02*
X41275000Y-92868750D01*
X34925000Y-90487500D02*
X37306250Y-92868750D01*
X34925000Y-79375000D02*
X34925000Y-90487500D01*
X41275000Y-92868750D02*
X42906250Y-94500000D01*
X42818750Y-75450000D02*
X41275000Y-76993750D01*
X44900000Y-75450000D02*
X42818750Y-75450000D01*
X37306250Y-76993750D02*
X34925000Y-79375000D01*
X41275000Y-76993750D02*
X37306250Y-76993750D01*
D21*
%TO.N,+5V*%
X42068750Y-91281250D02*
X38100000Y-91281250D01*
X36512500Y-89693750D02*
X38100000Y-91281250D01*
X43656250Y-92868750D02*
X42068750Y-91281250D01*
X43656250Y-92868750D02*
X53181250Y-92868750D01*
X36512500Y-80168750D02*
X36512500Y-89693750D01*
X38100000Y-78581250D02*
X36512500Y-80168750D01*
X61118750Y-78581250D02*
X38100000Y-78581250D01*
D22*
%TO.N,Net-(D19-Pad2)*%
X39630000Y-121285000D02*
X40265000Y-121920000D01*
X38100000Y-121285000D02*
X39630000Y-121285000D01*
D23*
%TO.N,col5*%
X136207500Y-40957500D02*
X135515000Y-40957500D01*
X138747500Y-43497500D02*
X136207500Y-40957500D01*
X139440000Y-43497500D02*
X138747500Y-43497500D01*
%TO.N,col4*%
X117157500Y-40957500D02*
X116465000Y-40957500D01*
X119697500Y-43497500D02*
X117157500Y-40957500D01*
X120390000Y-43497500D02*
X119697500Y-43497500D01*
%TO.N,col3*%
X100647500Y-43497500D02*
X98107500Y-40957500D01*
X98107500Y-40957500D02*
X97415000Y-40957500D01*
X101340000Y-43497500D02*
X100647500Y-43497500D01*
D22*
%TO.N,col2*%
X79057500Y-40957500D02*
X78365000Y-40957500D01*
X82290000Y-43497500D02*
X81597500Y-43497500D01*
D23*
X81597500Y-43497500D02*
X79057500Y-40957500D01*
%TO.N,Net-(SW55B1-Pad2)*%
X138747500Y-143510000D02*
X136207500Y-140970000D01*
D22*
X136207500Y-140970000D02*
X135515000Y-140970000D01*
X139440000Y-143510000D02*
X138747500Y-143510000D01*
D24*
%TO.N,row5*%
X129222500Y-143510000D02*
X126682500Y-140970000D01*
D22*
X129915000Y-143510000D02*
X129222500Y-143510000D01*
X126682500Y-140970000D02*
X125990000Y-140970000D01*
%TO.N,row0*%
X64770000Y-47625000D02*
X63182500Y-49212500D01*
X83820000Y-47625000D02*
X82232500Y-49212500D01*
X66357500Y-49212500D02*
X82232500Y-49212500D01*
X102870000Y-47625000D02*
X101282500Y-49212500D01*
X85407500Y-49212500D02*
X101282500Y-49212500D01*
X121920000Y-47625000D02*
X120332500Y-49212500D01*
X104457500Y-49212500D02*
X120332500Y-49212500D01*
X123507500Y-49212500D02*
X139858750Y-49212500D01*
X141446250Y-47625000D02*
X139858750Y-49212500D01*
D21*
%TO.N,+5V*%
X50350000Y-132600000D02*
X51550000Y-132600000D01*
X62706250Y-130968750D02*
X53181250Y-130968750D01*
X51550000Y-132600000D02*
X53181250Y-130968750D01*
%TO.N,GND*%
X53225000Y-134100000D02*
X51593750Y-135731250D01*
X54425000Y-134100000D02*
X53225000Y-134100000D01*
X51593750Y-135731250D02*
X61118750Y-135731250D01*
X42068750Y-135731250D02*
X51593750Y-135731250D01*
%TO.N,+5V*%
X61075000Y-132600000D02*
X62706250Y-130968750D01*
X59875000Y-132600000D02*
X61075000Y-132600000D01*
X72231250Y-130968750D02*
X62706250Y-130968750D01*
%TO.N,GND*%
X62750000Y-134100000D02*
X61118750Y-135731250D01*
X63950000Y-134100000D02*
X62750000Y-134100000D01*
X61118750Y-135731250D02*
X80168750Y-135731250D01*
%TO.N,+5V*%
X69400000Y-132600000D02*
X70600000Y-132600000D01*
X70600000Y-132600000D02*
X72231250Y-130968750D01*
X91281250Y-130968750D02*
X72231250Y-130968750D01*
%TO.N,GND*%
X81800000Y-134100000D02*
X80168750Y-135731250D01*
X83000000Y-134100000D02*
X81800000Y-134100000D01*
X80168750Y-135731250D02*
X99218750Y-135731250D01*
%TO.N,+5V*%
X89650000Y-132600000D02*
X91281250Y-130968750D01*
X110331250Y-130968750D02*
X91281250Y-130968750D01*
X88450000Y-132600000D02*
X89650000Y-132600000D01*
%TO.N,GND*%
X100850000Y-134100000D02*
X99218750Y-135731250D01*
X102050000Y-134100000D02*
X100850000Y-134100000D01*
X99218750Y-135731250D02*
X118268750Y-135731250D01*
%TO.N,+5V*%
X108700000Y-132600000D02*
X110331250Y-130968750D01*
X107500000Y-132600000D02*
X108700000Y-132600000D01*
X129381250Y-130968750D02*
X110331250Y-130968750D01*
%TO.N,GND*%
X119900000Y-134100000D02*
X118268750Y-135731250D01*
X121100000Y-134100000D02*
X119900000Y-134100000D01*
X118268750Y-135731250D02*
X127793750Y-135731250D01*
X129425000Y-134100000D02*
X127793750Y-135731250D01*
X130625000Y-134100000D02*
X129425000Y-134100000D01*
%TO.N,+5V*%
X126550000Y-132600000D02*
X127750000Y-132600000D01*
X127750000Y-132600000D02*
X129381250Y-130968750D01*
X138906250Y-130968750D02*
X129381250Y-130968750D01*
X136075000Y-132600000D02*
X137275000Y-132600000D01*
X137275000Y-132600000D02*
X138906250Y-130968750D01*
X138906250Y-130968750D02*
X148431250Y-130968750D01*
%TO.N,GND*%
X138950000Y-134100000D02*
X137318750Y-135731250D01*
X140150000Y-134100000D02*
X138950000Y-134100000D01*
%TO.N,+5V*%
X146800000Y-132600000D02*
X148431250Y-130968750D01*
X145600000Y-132600000D02*
X146800000Y-132600000D01*
%TO.N,GND*%
X43700000Y-134100000D02*
X42068750Y-135731250D01*
X44900000Y-134100000D02*
X43700000Y-134100000D01*
X146800000Y-113550000D02*
X148431250Y-111918750D01*
X145600000Y-113550000D02*
X146800000Y-113550000D01*
X129381250Y-111918750D02*
X148431250Y-111918750D01*
%TO.N,+5V*%
X140150000Y-115050000D02*
X138950000Y-115050000D01*
X138950000Y-115050000D02*
X137318750Y-116681250D01*
X118268750Y-116681250D02*
X137318750Y-116681250D01*
%TO.N,GND*%
X127750000Y-113550000D02*
X129381250Y-111918750D01*
X126550000Y-113550000D02*
X127750000Y-113550000D01*
X110331250Y-111918750D02*
X129381250Y-111918750D01*
%TO.N,+5V*%
X119900000Y-115050000D02*
X118268750Y-116681250D01*
X121100000Y-115050000D02*
X119900000Y-115050000D01*
X99218750Y-116681250D02*
X118268750Y-116681250D01*
%TO.N,GND*%
X107500000Y-113550000D02*
X108700000Y-113550000D01*
X108700000Y-113550000D02*
X110331250Y-111918750D01*
X91281250Y-111918750D02*
X110331250Y-111918750D01*
%TO.N,+5V*%
X100850000Y-115050000D02*
X99218750Y-116681250D01*
X102050000Y-115050000D02*
X100850000Y-115050000D01*
X80168750Y-116681250D02*
X99218750Y-116681250D01*
%TO.N,GND*%
X88450000Y-113550000D02*
X89650000Y-113550000D01*
X72231250Y-111918750D02*
X91281250Y-111918750D01*
X89650000Y-113550000D02*
X91281250Y-111918750D01*
%TO.N,+5V*%
X81800000Y-115050000D02*
X80168750Y-116681250D01*
X83000000Y-115050000D02*
X81800000Y-115050000D01*
X61118750Y-116681250D02*
X80168750Y-116681250D01*
%TO.N,GND*%
X69400000Y-113550000D02*
X70600000Y-113550000D01*
X70600000Y-113550000D02*
X72231250Y-111918750D01*
X53181250Y-111918750D02*
X72231250Y-111918750D01*
%TO.N,+5V*%
X62750000Y-115050000D02*
X61118750Y-116681250D01*
X63950000Y-115050000D02*
X62750000Y-115050000D01*
%TO.N,GND*%
X50350000Y-113550000D02*
X51550000Y-113550000D01*
X51550000Y-113550000D02*
X53181250Y-111918750D01*
X43700000Y-96000000D02*
X42068750Y-97631250D01*
X44900000Y-96000000D02*
X43700000Y-96000000D01*
X42068750Y-97631250D02*
X61118750Y-97631250D01*
X62750000Y-96000000D02*
X61118750Y-97631250D01*
X63950000Y-96000000D02*
X62750000Y-96000000D01*
X61118750Y-97631250D02*
X80168750Y-97631250D01*
%TO.N,+5V*%
X69400000Y-94500000D02*
X70600000Y-94500000D01*
X72231250Y-92868750D02*
X91281250Y-92868750D01*
X70600000Y-94500000D02*
X72231250Y-92868750D01*
X53181250Y-92868750D02*
X72231250Y-92868750D01*
%TO.N,GND*%
X81800000Y-96000000D02*
X80168750Y-97631250D01*
X80168750Y-97631250D02*
X99218750Y-97631250D01*
X83000000Y-96000000D02*
X81800000Y-96000000D01*
%TO.N,+5V*%
X88450000Y-94500000D02*
X89650000Y-94500000D01*
X89650000Y-94500000D02*
X91281250Y-92868750D01*
X91281250Y-92868750D02*
X110331250Y-92868750D01*
%TO.N,GND*%
X100850000Y-96000000D02*
X99218750Y-97631250D01*
X102050000Y-96000000D02*
X100850000Y-96000000D01*
X99218750Y-97631250D02*
X118268750Y-97631250D01*
%TO.N,+5V*%
X108700000Y-94500000D02*
X110331250Y-92868750D01*
X107500000Y-94500000D02*
X108700000Y-94500000D01*
X110331250Y-92868750D02*
X128587500Y-92868750D01*
%TO.N,GND*%
X119900000Y-96000000D02*
X118268750Y-97631250D01*
X121100000Y-96000000D02*
X119900000Y-96000000D01*
X118268750Y-97631250D02*
X137318750Y-97631250D01*
%TO.N,+5V*%
X126956250Y-94500000D02*
X128587500Y-92868750D01*
X126550000Y-94500000D02*
X126956250Y-94500000D01*
X128587500Y-92868750D02*
X148431250Y-92868750D01*
%TO.N,GND*%
X138950000Y-96000000D02*
X137318750Y-97631250D01*
X140150000Y-96000000D02*
X138950000Y-96000000D01*
X137318750Y-97631250D02*
X149225000Y-97631250D01*
%TO.N,+5V*%
X146800000Y-94500000D02*
X148431250Y-92868750D01*
X145600000Y-94500000D02*
X146800000Y-94500000D01*
X51550000Y-94500000D02*
X53181250Y-92868750D01*
X50350000Y-94500000D02*
X51550000Y-94500000D01*
%TO.N,GND*%
X89650000Y-32587500D02*
X91281250Y-30956250D01*
X88450000Y-32587500D02*
X89650000Y-32587500D01*
X91281250Y-30956250D02*
X100806250Y-30956250D01*
X81756250Y-30956250D02*
X91281250Y-30956250D01*
%TO.N,+5V*%
X121100000Y-76950000D02*
X119900000Y-76950000D01*
X118268750Y-78581250D02*
X99218750Y-78581250D01*
X119900000Y-76950000D02*
X118268750Y-78581250D01*
X137318750Y-78581250D02*
X118268750Y-78581250D01*
%TO.N,GND*%
X107500000Y-75450000D02*
X108700000Y-75450000D01*
X108700000Y-75450000D02*
X110331250Y-73818750D01*
X110331250Y-73818750D02*
X129381250Y-73818750D01*
X91281250Y-73818750D02*
X110331250Y-73818750D01*
%TO.N,+5V*%
X102050000Y-76950000D02*
X100850000Y-76950000D01*
X99218750Y-78581250D02*
X80168750Y-78581250D01*
X100850000Y-76950000D02*
X99218750Y-78581250D01*
%TO.N,GND*%
X89650000Y-75450000D02*
X91281250Y-73818750D01*
X88450000Y-75450000D02*
X89650000Y-75450000D01*
X72231250Y-73818750D02*
X91281250Y-73818750D01*
%TO.N,+5V*%
X81800000Y-76950000D02*
X80168750Y-78581250D01*
X83000000Y-76950000D02*
X81800000Y-76950000D01*
X80168750Y-78581250D02*
X61118750Y-78581250D01*
%TO.N,GND*%
X53181250Y-73818750D02*
X72231250Y-73818750D01*
X69400000Y-75450000D02*
X70600000Y-75450000D01*
X70600000Y-75450000D02*
X72231250Y-73818750D01*
%TO.N,+5V*%
X62750000Y-76950000D02*
X61118750Y-78581250D01*
X63950000Y-76950000D02*
X62750000Y-76950000D01*
X43700000Y-76950000D02*
X42068750Y-78581250D01*
X44900000Y-76950000D02*
X43700000Y-76950000D01*
X138950000Y-76950000D02*
X137318750Y-78581250D01*
X140150000Y-76950000D02*
X138950000Y-76950000D01*
%TO.N,GND*%
X127750000Y-75450000D02*
X129381250Y-73818750D01*
X126550000Y-75450000D02*
X127750000Y-75450000D01*
X129381250Y-73818750D02*
X148431250Y-73818750D01*
X145600000Y-75450000D02*
X146800000Y-75450000D01*
X146800000Y-75450000D02*
X148431250Y-73818750D01*
X50350000Y-75450000D02*
X51550000Y-75450000D01*
X51550000Y-75450000D02*
X53181250Y-73818750D01*
%TO.N,+5V*%
X146800000Y-56400000D02*
X148431250Y-54768750D01*
X145600000Y-56400000D02*
X146800000Y-56400000D01*
X129381250Y-54768750D02*
X148431250Y-54768750D01*
%TO.N,GND*%
X119900000Y-57900000D02*
X118268750Y-59531250D01*
X121100000Y-57900000D02*
X119900000Y-57900000D01*
X118268750Y-59531250D02*
X99218750Y-59531250D01*
X137318750Y-59531250D02*
X118268750Y-59531250D01*
%TO.N,+5V*%
X108700000Y-56400000D02*
X110331250Y-54768750D01*
X107500000Y-56400000D02*
X108700000Y-56400000D01*
X110331250Y-54768750D02*
X91281250Y-54768750D01*
X129381250Y-54768750D02*
X110331250Y-54768750D01*
%TO.N,GND*%
X100850000Y-57900000D02*
X99218750Y-59531250D01*
X99218750Y-59531250D02*
X80168750Y-59531250D01*
X102050000Y-57900000D02*
X100850000Y-57900000D01*
%TO.N,+5V*%
X88450000Y-56400000D02*
X89650000Y-56400000D01*
X91281250Y-54768750D02*
X72231250Y-54768750D01*
X89650000Y-56400000D02*
X91281250Y-54768750D01*
%TO.N,GND*%
X83000000Y-57900000D02*
X81800000Y-57900000D01*
X81800000Y-57900000D02*
X80168750Y-59531250D01*
X80168750Y-59531250D02*
X61118750Y-59531250D01*
%TO.N,+5V*%
X72231250Y-54768750D02*
X53181250Y-54768750D01*
X69400000Y-56400000D02*
X70600000Y-56400000D01*
X70600000Y-56400000D02*
X72231250Y-54768750D01*
%TO.N,GND*%
X62750000Y-57900000D02*
X61118750Y-59531250D01*
X63950000Y-57900000D02*
X62750000Y-57900000D01*
X61118750Y-59531250D02*
X42068750Y-59531250D01*
X43700000Y-57900000D02*
X42068750Y-59531250D01*
X44900000Y-57900000D02*
X43700000Y-57900000D01*
%TO.N,+5V*%
X50350000Y-56400000D02*
X51550000Y-56400000D01*
X51550000Y-56400000D02*
X53181250Y-54768750D01*
X127750000Y-56400000D02*
X129381250Y-54768750D01*
X126550000Y-56400000D02*
X127750000Y-56400000D01*
%TO.N,GND*%
X138950000Y-57900000D02*
X137318750Y-59531250D01*
X140150000Y-57900000D02*
X138950000Y-57900000D01*
X146800000Y-32587500D02*
X148431250Y-30956250D01*
X145600000Y-32587500D02*
X146800000Y-32587500D01*
%TO.N,+5V*%
X138950000Y-34087500D02*
X137318750Y-35718750D01*
X140150000Y-34087500D02*
X138950000Y-34087500D01*
X127793750Y-35718750D02*
X137318750Y-35718750D01*
%TO.N,GND*%
X137275000Y-32587500D02*
X138906250Y-30956250D01*
X136075000Y-32587500D02*
X137275000Y-32587500D01*
X138906250Y-30956250D02*
X148431250Y-30956250D01*
X129381250Y-30956250D02*
X138906250Y-30956250D01*
%TO.N,+5V*%
X129425000Y-34087500D02*
X127793750Y-35718750D01*
X130625000Y-34087500D02*
X129425000Y-34087500D01*
X118268750Y-35718750D02*
X127793750Y-35718750D01*
%TO.N,GND*%
X127750000Y-32587500D02*
X129381250Y-30956250D01*
X126550000Y-32587500D02*
X127750000Y-32587500D01*
X119856250Y-30956250D02*
X129381250Y-30956250D01*
%TO.N,+5V*%
X119900000Y-34087500D02*
X118268750Y-35718750D01*
X121100000Y-34087500D02*
X119900000Y-34087500D01*
X108743750Y-35718750D02*
X118268750Y-35718750D01*
%TO.N,GND*%
X118225000Y-32587500D02*
X119856250Y-30956250D01*
X110331250Y-30956250D02*
X119856250Y-30956250D01*
X117025000Y-32587500D02*
X118225000Y-32587500D01*
%TO.N,+5V*%
X110375000Y-34087500D02*
X108743750Y-35718750D01*
X111575000Y-34087500D02*
X110375000Y-34087500D01*
X99218750Y-35718750D02*
X108743750Y-35718750D01*
%TO.N,GND*%
X108700000Y-32587500D02*
X110331250Y-30956250D01*
X107500000Y-32587500D02*
X108700000Y-32587500D01*
X100806250Y-30956250D02*
X110331250Y-30956250D01*
%TO.N,+5V*%
X100850000Y-34087500D02*
X99218750Y-35718750D01*
X102050000Y-34087500D02*
X100850000Y-34087500D01*
X89693750Y-35718750D02*
X99218750Y-35718750D01*
%TO.N,GND*%
X99175000Y-32587500D02*
X100806250Y-30956250D01*
X97975000Y-32587500D02*
X99175000Y-32587500D01*
%TO.N,+5V*%
X91325000Y-34087500D02*
X89693750Y-35718750D01*
X92525000Y-34087500D02*
X91325000Y-34087500D01*
X80168750Y-35718750D02*
X89693750Y-35718750D01*
X83000000Y-34087500D02*
X81800000Y-34087500D01*
X81800000Y-34087500D02*
X80168750Y-35718750D01*
X70643750Y-35718750D02*
X80168750Y-35718750D01*
%TO.N,GND*%
X80125000Y-32587500D02*
X81756250Y-30956250D01*
X78925000Y-32587500D02*
X80125000Y-32587500D01*
X72231250Y-30956250D02*
X81756250Y-30956250D01*
X70600000Y-32587500D02*
X72231250Y-30956250D01*
X69400000Y-32587500D02*
X70600000Y-32587500D01*
X62706250Y-30956250D02*
X72231250Y-30956250D01*
%TO.N,+5V*%
X73475000Y-34087500D02*
X72275000Y-34087500D01*
X61118750Y-35718750D02*
X70643750Y-35718750D01*
X72275000Y-34087500D02*
X70643750Y-35718750D01*
X53225000Y-34087500D02*
X51593750Y-35718750D01*
X51593750Y-35718750D02*
X61118750Y-35718750D01*
X42068750Y-35718750D02*
X51593750Y-35718750D01*
X54425000Y-34087500D02*
X53225000Y-34087500D01*
%TO.N,GND*%
X51550000Y-32587500D02*
X53181250Y-30956250D01*
X53181250Y-30956250D02*
X62706250Y-30956250D01*
X50350000Y-32587500D02*
X51550000Y-32587500D01*
%TO.N,+5V*%
X63950000Y-34087500D02*
X62750000Y-34087500D01*
X62750000Y-34087500D02*
X61118750Y-35718750D01*
%TO.N,GND*%
X61075000Y-32587500D02*
X62706250Y-30956250D01*
X59875000Y-32587500D02*
X61075000Y-32587500D01*
D22*
%TO.N,row5*%
X72765000Y-143510000D02*
X88265000Y-143510000D01*
X91815000Y-143510000D02*
X129915000Y-143510000D01*
%TO.N,Net-(D26-Pad2)*%
X61040000Y-142002500D02*
X61040000Y-140970000D01*
D23*
X62547500Y-143510000D02*
X61040000Y-142002500D01*
D22*
X63240000Y-143510000D02*
X62547500Y-143510000D01*
%TO.N,row5*%
X51515000Y-142002500D02*
X51515000Y-140970000D01*
D23*
X53022500Y-143510000D02*
X51515000Y-142002500D01*
D22*
X53715000Y-143510000D02*
X53022500Y-143510000D01*
%TO.N,Net-(D25-Pad2)*%
X39630000Y-140335000D02*
X40265000Y-140970000D01*
X38100000Y-140335000D02*
X39630000Y-140335000D01*
%TO.N,Net-(LED55-Pad3)*%
X137362500Y-134100000D02*
X138862500Y-132600000D01*
X138862500Y-132600000D02*
X140150000Y-132600000D01*
X136075000Y-134100000D02*
X137362500Y-134100000D01*
%TO.N,Net-(LED7-Pad3)*%
X129337500Y-132600000D02*
X130625000Y-132600000D01*
X127837500Y-134100000D02*
X129337500Y-132600000D01*
X126550000Y-134100000D02*
X127837500Y-134100000D01*
%TO.N,Net-(LED53-Pad2)*%
X121056250Y-132556250D02*
X121100000Y-132600000D01*
X116725000Y-134100000D02*
X118268750Y-132556250D01*
X107500000Y-134100000D02*
X116725000Y-134100000D01*
X118268750Y-132556250D02*
X121056250Y-132556250D01*
%TO.N,Net-(LED52-Pad2)*%
X102006250Y-132556250D02*
X102050000Y-132600000D01*
X99218750Y-132556250D02*
X102006250Y-132556250D01*
X97675000Y-134100000D02*
X99218750Y-132556250D01*
X88450000Y-134100000D02*
X97675000Y-134100000D01*
%TO.N,Net-(LED51-Pad2)*%
X82956250Y-132556250D02*
X83000000Y-132600000D01*
X80168750Y-132556250D02*
X82956250Y-132556250D01*
X78625000Y-134100000D02*
X80168750Y-132556250D01*
X69400000Y-134100000D02*
X78625000Y-134100000D01*
%TO.N,Net-(D29-Pad2)*%
X114300000Y-140335000D02*
X115830000Y-140335000D01*
X115830000Y-140335000D02*
X116465000Y-140970000D01*
%TO.N,Net-(D28-Pad2)*%
X96780000Y-140335000D02*
X97415000Y-140970000D01*
X95250000Y-140335000D02*
X96780000Y-140335000D01*
%TO.N,Net-(D27-Pad2)*%
X76200000Y-140335000D02*
X77730000Y-140335000D01*
X77730000Y-140335000D02*
X78365000Y-140970000D01*
%TO.N,Net-(LED6-Pad2)*%
X62662500Y-132600000D02*
X63950000Y-132600000D01*
X61162500Y-134100000D02*
X62662500Y-132600000D01*
X59875000Y-134100000D02*
X61162500Y-134100000D01*
%TO.N,Net-(LED6-Pad3)*%
X51637500Y-134100000D02*
X53137500Y-132600000D01*
X53137500Y-132600000D02*
X54425000Y-132600000D01*
X50350000Y-134100000D02*
X51637500Y-134100000D01*
%TO.N,Net-(LED44-Pad3)*%
X137318750Y-113506250D02*
X140106250Y-113506250D01*
X135775000Y-115050000D02*
X137318750Y-113506250D01*
X126550000Y-115050000D02*
X135775000Y-115050000D01*
X140106250Y-113506250D02*
X140150000Y-113550000D01*
%TO.N,Net-(D24-Pad2)*%
X134880000Y-121285000D02*
X135515000Y-121920000D01*
X133350000Y-121285000D02*
X134880000Y-121285000D01*
%TO.N,Net-(LED43-Pad3)*%
X121056250Y-113506250D02*
X121100000Y-113550000D01*
X118268750Y-113506250D02*
X121056250Y-113506250D01*
X116725000Y-115050000D02*
X118268750Y-113506250D01*
X107500000Y-115050000D02*
X116725000Y-115050000D01*
%TO.N,Net-(D23-Pad2)*%
X115830000Y-121285000D02*
X116465000Y-121920000D01*
X114300000Y-121285000D02*
X115830000Y-121285000D01*
%TO.N,Net-(D22-Pad2)*%
X96780000Y-121285000D02*
X97415000Y-121920000D01*
X95250000Y-121285000D02*
X96780000Y-121285000D01*
%TO.N,Net-(LED42-Pad3)*%
X99218750Y-113506250D02*
X102006250Y-113506250D01*
X102006250Y-113506250D02*
X102050000Y-113550000D01*
X97675000Y-115050000D02*
X99218750Y-113506250D01*
X88450000Y-115050000D02*
X97675000Y-115050000D01*
%TO.N,Net-(LED41-Pad3)*%
X82956250Y-113506250D02*
X83000000Y-113550000D01*
X80168750Y-113506250D02*
X82956250Y-113506250D01*
X78625000Y-115050000D02*
X80168750Y-113506250D01*
X69400000Y-115050000D02*
X78625000Y-115050000D01*
%TO.N,Net-(LED34-Pad2)*%
X137318750Y-94456250D02*
X140106250Y-94456250D01*
X135775000Y-96000000D02*
X137318750Y-94456250D01*
X126550000Y-96000000D02*
X135775000Y-96000000D01*
X140106250Y-94456250D02*
X140150000Y-94500000D01*
%TO.N,Net-(D18-Pad2)*%
X134880000Y-102235000D02*
X135515000Y-102870000D01*
X133350000Y-102235000D02*
X134880000Y-102235000D01*
%TO.N,Net-(D7-Pad2)*%
X39630000Y-83185000D02*
X40265000Y-83820000D01*
X38100000Y-83185000D02*
X39630000Y-83185000D01*
%TO.N,Net-(LED20-Pad3)*%
X63906250Y-75406250D02*
X63950000Y-75450000D01*
X59575000Y-76950000D02*
X61118750Y-75406250D01*
X50350000Y-76950000D02*
X59575000Y-76950000D01*
X61118750Y-75406250D02*
X63906250Y-75406250D01*
%TO.N,Net-(LED21-Pad3)*%
X82956250Y-75406250D02*
X83000000Y-75450000D01*
X80168750Y-75406250D02*
X82956250Y-75406250D01*
X78625000Y-76950000D02*
X80168750Y-75406250D01*
X69400000Y-76950000D02*
X78625000Y-76950000D01*
%TO.N,Net-(D8-Pad2)*%
X58680000Y-83185000D02*
X59315000Y-83820000D01*
X57150000Y-83185000D02*
X58680000Y-83185000D01*
%TO.N,Net-(D9-Pad2)*%
X77571250Y-83026250D02*
X78365000Y-83820000D01*
X76200000Y-83026250D02*
X77571250Y-83026250D01*
%TO.N,Net-(LED22-Pad3)*%
X99218750Y-75406250D02*
X102006250Y-75406250D01*
X97675000Y-76950000D02*
X99218750Y-75406250D01*
X88450000Y-76950000D02*
X97675000Y-76950000D01*
X102006250Y-75406250D02*
X102050000Y-75450000D01*
%TO.N,Net-(D10-Pad2)*%
X96621250Y-83026250D02*
X97415000Y-83820000D01*
X95250000Y-83026250D02*
X96621250Y-83026250D01*
%TO.N,Net-(LED23-Pad3)*%
X121056250Y-75406250D02*
X121100000Y-75450000D01*
X118268750Y-75406250D02*
X121056250Y-75406250D01*
X116725000Y-76950000D02*
X118268750Y-75406250D01*
X107500000Y-76950000D02*
X116725000Y-76950000D01*
%TO.N,Net-(D11-Pad2)*%
X115830000Y-83185000D02*
X116465000Y-83820000D01*
X114300000Y-83185000D02*
X115830000Y-83185000D01*
%TO.N,Net-(LED24-Pad3)*%
X140106250Y-75406250D02*
X140150000Y-75450000D01*
X137318750Y-75406250D02*
X140106250Y-75406250D01*
X135775000Y-76950000D02*
X137318750Y-75406250D01*
X126550000Y-76950000D02*
X135775000Y-76950000D01*
%TO.N,Net-(D12-Pad2)*%
X133350000Y-83185000D02*
X134880000Y-83185000D01*
X134880000Y-83185000D02*
X135515000Y-83820000D01*
%TO.N,Net-(D17-Pad2)*%
X115830000Y-102235000D02*
X116465000Y-102870000D01*
X114300000Y-102235000D02*
X115830000Y-102235000D01*
%TO.N,Net-(LED33-Pad2)*%
X121056250Y-94456250D02*
X121100000Y-94500000D01*
X118268750Y-94456250D02*
X121056250Y-94456250D01*
X116725000Y-96000000D02*
X118268750Y-94456250D01*
X107500000Y-96000000D02*
X116725000Y-96000000D01*
%TO.N,Net-(D16-Pad2)*%
X96780000Y-102235000D02*
X97415000Y-102870000D01*
X95250000Y-102235000D02*
X96780000Y-102235000D01*
%TO.N,Net-(LED32-Pad2)*%
X99218750Y-94456250D02*
X102006250Y-94456250D01*
X102006250Y-94456250D02*
X102050000Y-94500000D01*
X97675000Y-96000000D02*
X99218750Y-94456250D01*
X88450000Y-96000000D02*
X97675000Y-96000000D01*
%TO.N,Net-(D13-Pad2)*%
X77730000Y-102235000D02*
X78365000Y-102870000D01*
X76200000Y-102235000D02*
X77730000Y-102235000D01*
%TO.N,Net-(LED31-Pad2)*%
X80168750Y-94456250D02*
X82956250Y-94456250D01*
X78625000Y-96000000D02*
X80168750Y-94456250D01*
X82956250Y-94456250D02*
X83000000Y-94500000D01*
X69400000Y-96000000D02*
X78625000Y-96000000D01*
%TO.N,Net-(LED30-Pad2)*%
X61118750Y-94456250D02*
X63906250Y-94456250D01*
X63906250Y-94456250D02*
X63950000Y-94500000D01*
X59575000Y-96000000D02*
X61118750Y-94456250D01*
X50350000Y-96000000D02*
X59575000Y-96000000D01*
%TO.N,Net-(D14-Pad2)*%
X39630000Y-102235000D02*
X40265000Y-102870000D01*
X38100000Y-102235000D02*
X39630000Y-102235000D01*
%TO.N,Net-(D15-Pad2)*%
X58680000Y-102235000D02*
X59315000Y-102870000D01*
X57150000Y-102235000D02*
X58680000Y-102235000D01*
%TO.N,Net-(D1-Pad2)*%
X39630000Y-64135000D02*
X40265000Y-64770000D01*
X38100000Y-64135000D02*
X39630000Y-64135000D01*
%TO.N,Net-(D6-Pad2)*%
X133350000Y-64135000D02*
X134880000Y-64135000D01*
X134880000Y-64135000D02*
X135515000Y-64770000D01*
%TO.N,Net-(D5-Pad2)*%
X115830000Y-64135000D02*
X116465000Y-64770000D01*
X114300000Y-64135000D02*
X115830000Y-64135000D01*
%TO.N,Net-(D4-Pad2)*%
X96780000Y-64135000D02*
X97415000Y-64770000D01*
X95250000Y-64135000D02*
X96780000Y-64135000D01*
%TO.N,Net-(D3-Pad2)*%
X77730000Y-64135000D02*
X78365000Y-64770000D01*
X76200000Y-64135000D02*
X77730000Y-64135000D01*
%TO.N,Net-(D2-Pad2)*%
X58680000Y-64135000D02*
X59315000Y-64770000D01*
X57150000Y-64135000D02*
X58680000Y-64135000D01*
%TO.N,Net-(LED10-Pad2)*%
X63906250Y-56356250D02*
X63950000Y-56400000D01*
X61118750Y-56356250D02*
X63906250Y-56356250D01*
X59575000Y-57900000D02*
X61118750Y-56356250D01*
X50350000Y-57900000D02*
X59575000Y-57900000D01*
%TO.N,Net-(LED11-Pad2)*%
X82956250Y-56356250D02*
X83000000Y-56400000D01*
X78625000Y-57900000D02*
X80168750Y-56356250D01*
X80168750Y-56356250D02*
X82956250Y-56356250D01*
X69400000Y-57900000D02*
X78625000Y-57900000D01*
%TO.N,Net-(LED12-Pad2)*%
X102006250Y-56356250D02*
X102050000Y-56400000D01*
X99218750Y-56356250D02*
X102006250Y-56356250D01*
X97675000Y-57900000D02*
X99218750Y-56356250D01*
X88450000Y-57900000D02*
X97675000Y-57900000D01*
%TO.N,Net-(LED13-Pad2)*%
X121056250Y-56356250D02*
X121100000Y-56400000D01*
X118268750Y-56356250D02*
X121056250Y-56356250D01*
X116725000Y-57900000D02*
X118268750Y-56356250D01*
X107500000Y-57900000D02*
X116725000Y-57900000D01*
%TO.N,Net-(LED14-Pad2)*%
X140106250Y-56356250D02*
X140150000Y-56400000D01*
X137318750Y-56356250D02*
X140106250Y-56356250D01*
X135775000Y-57900000D02*
X137318750Y-56356250D01*
X126550000Y-57900000D02*
X135775000Y-57900000D01*
%TO.N,row2*%
X53715000Y-86360000D02*
X148965000Y-86360000D01*
%TO.N,row1*%
X53715000Y-67310000D02*
X148965000Y-67310000D01*
%TO.N,row3*%
X53715000Y-105410000D02*
X148965000Y-105410000D01*
%TO.N,row4*%
X53715000Y-124460000D02*
X147215000Y-124460000D01*
%TO.N,Net-(LED40-Pad3)*%
X50350000Y-115050000D02*
X59575000Y-115050000D01*
X63906250Y-113506250D02*
X63950000Y-113550000D01*
X61118750Y-113506250D02*
X63906250Y-113506250D01*
X59575000Y-115050000D02*
X61118750Y-113506250D01*
%TO.N,Net-(D21-Pad2)*%
X77730000Y-121285000D02*
X78365000Y-121920000D01*
X76200000Y-121285000D02*
X77730000Y-121285000D01*
%TO.N,Net-(D31-Pad1)*%
X53340000Y-47625000D02*
X53340000Y-43815000D01*
%TO.N,Net-(D32-Pad1)*%
X72390000Y-47625000D02*
X72390000Y-43815000D01*
D23*
X72390000Y-43815000D02*
X70565000Y-41990000D01*
X70565000Y-41990000D02*
X70565000Y-40957500D01*
D22*
%TO.N,Net-(D33-Pad1)*%
X91440000Y-47625000D02*
X91440000Y-43815000D01*
D23*
X91440000Y-43815000D02*
X89615000Y-41990000D01*
X89615000Y-41990000D02*
X89615000Y-40957500D01*
D22*
%TO.N,Net-(D34-Pad1)*%
X110490000Y-47625000D02*
X110490000Y-43815000D01*
D23*
X110490000Y-43815000D02*
X108665000Y-41990000D01*
X108665000Y-41990000D02*
X108665000Y-40957500D01*
%TO.N,Net-(D35-Pad1)*%
X129540000Y-43815000D02*
X127715000Y-41990000D01*
D22*
X129540000Y-47625000D02*
X129540000Y-43815000D01*
D23*
X127715000Y-41990000D02*
X127715000Y-40957500D01*
D22*
%TO.N,Net-(D36-Pad1)*%
X149066250Y-43598750D02*
X148965000Y-43497500D01*
X149066250Y-47625000D02*
X149066250Y-43598750D01*
%TO.N,Net-(LED0-Pad3)*%
X51637500Y-34087500D02*
X53181250Y-32543750D01*
X50350000Y-34087500D02*
X51637500Y-34087500D01*
X54381250Y-32543750D02*
X54425000Y-32587500D01*
X53181250Y-32543750D02*
X54381250Y-32543750D01*
%TO.N,Net-(LED0B1-Pad3)*%
X62662500Y-32587500D02*
X62750000Y-32587500D01*
X61162500Y-34087500D02*
X62662500Y-32587500D01*
X62750000Y-32587500D02*
X63950000Y-32587500D01*
X59875000Y-34087500D02*
X61162500Y-34087500D01*
%TO.N,Net-(LED1-Pad3)*%
X72187500Y-32587500D02*
X73475000Y-32587500D01*
X69400000Y-34087500D02*
X70687500Y-34087500D01*
X70687500Y-34087500D02*
X72187500Y-32587500D01*
%TO.N,Net-(LED1B1-Pad3)*%
X80212500Y-34087500D02*
X78925000Y-34087500D01*
X81712500Y-32587500D02*
X80212500Y-34087500D01*
X83000000Y-32587500D02*
X81712500Y-32587500D01*
%TO.N,Net-(LED2-Pad3)*%
X89737500Y-34087500D02*
X88450000Y-34087500D01*
X92525000Y-32587500D02*
X91237500Y-32587500D01*
X91237500Y-32587500D02*
X89737500Y-34087500D01*
%TO.N,Net-(LED2B1-Pad3)*%
X102050000Y-32587500D02*
X100762500Y-32587500D01*
X100762500Y-32587500D02*
X99262500Y-34087500D01*
X99262500Y-34087500D02*
X97975000Y-34087500D01*
%TO.N,Net-(LED3-Pad3)*%
X108787500Y-34087500D02*
X107500000Y-34087500D01*
X111575000Y-32587500D02*
X110287500Y-32587500D01*
X110287500Y-32587500D02*
X108787500Y-34087500D01*
%TO.N,Net-(LED3B1-Pad3)*%
X118312500Y-34087500D02*
X117025000Y-34087500D01*
X121100000Y-32587500D02*
X119812500Y-32587500D01*
X119812500Y-32587500D02*
X118312500Y-34087500D01*
%TO.N,Net-(LED4-Pad3)*%
X130625000Y-32587500D02*
X129337500Y-32587500D01*
X127837500Y-34087500D02*
X126550000Y-34087500D01*
X129337500Y-32587500D02*
X127837500Y-34087500D01*
%TO.N,Net-(LED4B1-Pad3)*%
X138862500Y-32587500D02*
X137362500Y-34087500D01*
X137362500Y-34087500D02*
X136075000Y-34087500D01*
X140150000Y-32587500D02*
X138862500Y-32587500D01*
%TD*%
M02*
