M48
; DRILL file {KiCad (6.0.9)} date Sat Nov 26 17:52:26 2022
; FORMAT={-:-/ absolute / inch / decimal}
; #@! TF.CreationDate,2022-11-26T17:52:26+01:00
; #@! TF.GenerationSoftware,Kicad,Pcbnew,(6.0.9)
; #@! TF.FileFunction,Plated,1,2,PTH
FMAT,2
INCH
; #@! TA.AperFunction,Plated,PTH,ComponentDrill
T1C0.0315
; #@! TA.AperFunction,Plated,PTH,ComponentDrill
T2C0.0394
; #@! TA.AperFunction,Plated,PTH,ComponentDrill
T3C0.1181
%
G90
G05
T1
X1.5Y-2.225
X1.5Y-2.525
X1.5Y-2.975
X1.5Y-3.275
X1.5Y-3.725
X1.5Y-4.025
X1.5Y-4.475
X1.5Y-4.775
X1.5Y-5.225
X1.5Y-5.525
X1.8Y-1.875
X2.1Y-1.875
X2.225Y-5.8125
X2.25Y-2.225
X2.25Y-2.525
X2.25Y-2.975
X2.25Y-3.275
X2.25Y-3.725
X2.25Y-4.025
X2.25Y-4.475
X2.25Y-4.775
X2.525Y-5.8125
X2.55Y-1.875
X2.85Y-1.875
X3.0Y-2.225
X3.0Y-2.525
X3.0Y-2.9688
X3.0Y-3.2687
X3.0Y-3.725
X3.0Y-4.025
X3.0Y-4.475
X3.0Y-4.775
X3.0Y-5.225
X3.0Y-5.525
X3.3Y-1.875
X3.6Y-1.875
X3.75Y-2.225
X3.75Y-2.525
X3.75Y-2.9688
X3.75Y-3.2687
X3.75Y-3.725
X3.75Y-4.025
X3.75Y-4.475
X3.75Y-4.775
X3.75Y-5.225
X3.75Y-5.525
X4.05Y-1.875
X4.35Y-1.875
X4.5Y-2.225
X4.5Y-2.525
X4.5Y-2.975
X4.5Y-3.275
X4.5Y-3.725
X4.5Y-4.025
X4.5Y-4.475
X4.5Y-4.775
X4.5Y-5.225
X4.5Y-5.525
X4.8Y-1.875
X5.1Y-1.875
X5.225Y-5.8125
X5.25Y-2.225
X5.25Y-2.525
X5.25Y-2.975
X5.25Y-3.275
X5.25Y-3.725
X5.25Y-4.025
X5.25Y-4.475
X5.25Y-4.775
X5.525Y-5.8125
X5.5687Y-1.875
X5.8687Y-1.875
T2
X3.5938Y-1.0
X3.6938Y-1.0
X3.7937Y-1.0
X3.8937Y-1.0
X3.9937Y-1.0
X4.0938Y-1.0
X4.1937Y-1.0
X4.2938Y-1.0
X6.25Y-2.8693
X6.25Y-2.9693
X6.25Y-3.0693
X6.25Y-3.1693
X6.25Y-3.2693
X6.25Y-3.3693
X6.25Y-3.4693
X6.25Y-3.5693
T3
X1.725Y-1.6125
X1.725Y-2.55
X1.725Y-3.3
X1.725Y-4.05
X1.725Y-4.8
X1.725Y-5.55
X1.975Y-1.7125
X1.975Y-2.65
X1.975Y-3.4
X1.975Y-4.15
X1.975Y-4.9
X1.975Y-5.65
X2.1Y-1.6125
X2.1Y-5.55
X2.35Y-1.7125
X2.35Y-5.65
X2.475Y-1.6125
X2.475Y-2.55
X2.475Y-3.3
X2.475Y-4.05
X2.475Y-4.8
X2.475Y-5.55
X2.725Y-1.7125
X2.725Y-2.65
X2.725Y-3.4
X2.725Y-4.15
X2.725Y-4.9
X2.725Y-5.65
X2.85Y-1.6125
X3.1Y-1.7125
X3.225Y-1.6125
X3.225Y-2.55
X3.225Y-3.3
X3.225Y-4.05
X3.225Y-4.8
X3.225Y-5.55
X3.475Y-1.7125
X3.475Y-2.65
X3.475Y-3.4
X3.475Y-4.15
X3.475Y-4.9
X3.475Y-5.65
X3.6Y-1.6125
X3.85Y-1.7125
X3.975Y-1.6125
X3.975Y-2.55
X3.975Y-3.3
X3.975Y-4.05
X3.975Y-4.8
X3.975Y-5.55
X4.225Y-1.7125
X4.225Y-2.65
X4.225Y-3.4
X4.225Y-4.15
X4.225Y-4.9
X4.225Y-5.65
X4.35Y-1.6125
X4.6Y-1.7125
X4.725Y-1.6125
X4.725Y-2.55
X4.725Y-3.3
X4.725Y-4.05
X4.725Y-4.8
X4.725Y-5.55
X4.975Y-1.7125
X4.975Y-2.65
X4.975Y-3.4
X4.975Y-4.15
X4.975Y-4.9
X4.975Y-5.65
X5.1Y-1.6125
X5.1Y-5.55
X5.35Y-1.7125
X5.35Y-5.65
X5.475Y-1.6125
X5.475Y-2.55
X5.475Y-3.3
X5.475Y-4.05
X5.475Y-4.8
X5.475Y-5.55
X5.725Y-1.7125
X5.725Y-2.65
X5.725Y-3.4
X5.725Y-4.15
X5.725Y-4.9
X5.725Y-5.65
T0
M30
