%TF.GenerationSoftware,KiCad,Pcbnew,7.0.7*%
%TF.CreationDate,2023-11-21T20:39:56+01:00*%
%TF.ProjectId,tekskey-v2-molten,74656b73-6b65-4792-9d76-322d6d6f6c74,rev?*%
%TF.SameCoordinates,Original*%
%TF.FileFunction,Drillmap*%
%TF.FilePolarity,Positive*%
%FSLAX45Y45*%
G04 Gerber Fmt 4.5, Leading zero omitted, Abs format (unit mm)*
G04 Created by KiCad (PCBNEW 7.0.7) date 2023-11-21 20:39:56*
%MOMM*%
%LPD*%
G01*
G04 APERTURE LIST*
%ADD10C,0.100000*%
%ADD11C,0.200000*%
%ADD12C,0.040000*%
%ADD13C,0.080000*%
%ADD14C,0.090000*%
%ADD15C,0.220000*%
%ADD16C,0.300000*%
G04 APERTURE END LIST*
D10*
X2857500Y-4445000D02*
X14843125Y-4445000D01*
X14843125Y-16986250D01*
X2857500Y-16986250D01*
X2857500Y-4445000D01*
D11*
D12*
X3393125Y-4980625D02*
X3433125Y-5020625D01*
X3433125Y-4980625D02*
X3393125Y-5020625D01*
X3869375Y-4980625D02*
X3909375Y-5020625D01*
X3909375Y-4980625D02*
X3869375Y-5020625D01*
X4901250Y-8076250D02*
X4941250Y-8116250D01*
X4941250Y-8076250D02*
X4901250Y-8116250D01*
X4901250Y-11886250D02*
X4941250Y-11926250D01*
X4941250Y-11886250D02*
X4901250Y-11926250D01*
X4901250Y-15696250D02*
X4941250Y-15736250D01*
X4941250Y-15696250D02*
X4901250Y-15736250D01*
X12188916Y-5261174D02*
X12228916Y-5301174D01*
X12228916Y-5261174D02*
X12188916Y-5301174D01*
X13360978Y-4976817D02*
X13400978Y-5016817D01*
X13400978Y-4976817D02*
X13360978Y-5016817D01*
X14188125Y-9663750D02*
X14228125Y-9703750D01*
X14228125Y-9663750D02*
X14188125Y-9703750D01*
X14188125Y-13473750D02*
X14228125Y-13513750D01*
X14228125Y-13473750D02*
X14188125Y-13513750D01*
X14346875Y-4980625D02*
X14386875Y-5020625D01*
X14386875Y-4980625D02*
X14346875Y-5020625D01*
X5887500Y-7143750D02*
G75*
G03*
X5887500Y-7143750I-20000J0D01*
G01*
X5887500Y-10953750D02*
G75*
G03*
X5887500Y-10953750I-20000J0D01*
G01*
X5887500Y-14763750D02*
G75*
G03*
X5887500Y-14763750I-20000J0D01*
G01*
X5935827Y-7027077D02*
G75*
G03*
X5935827Y-7027077I-20000J0D01*
G01*
X5935827Y-7260423D02*
G75*
G03*
X5935827Y-7260423I-20000J0D01*
G01*
X5935827Y-10837077D02*
G75*
G03*
X5935827Y-10837077I-20000J0D01*
G01*
X5935827Y-11070423D02*
G75*
G03*
X5935827Y-11070423I-20000J0D01*
G01*
X5935827Y-14647077D02*
G75*
G03*
X5935827Y-14647077I-20000J0D01*
G01*
X5935827Y-14880423D02*
G75*
G03*
X5935827Y-14880423I-20000J0D01*
G01*
X6052500Y-6978750D02*
G75*
G03*
X6052500Y-6978750I-20000J0D01*
G01*
X6052500Y-7308750D02*
G75*
G03*
X6052500Y-7308750I-20000J0D01*
G01*
X6052500Y-10788750D02*
G75*
G03*
X6052500Y-10788750I-20000J0D01*
G01*
X6052500Y-11118750D02*
G75*
G03*
X6052500Y-11118750I-20000J0D01*
G01*
X6052500Y-14598750D02*
G75*
G03*
X6052500Y-14598750I-20000J0D01*
G01*
X6052500Y-14928750D02*
G75*
G03*
X6052500Y-14928750I-20000J0D01*
G01*
X6169173Y-7027077D02*
G75*
G03*
X6169173Y-7027077I-20000J0D01*
G01*
X6169173Y-7260423D02*
G75*
G03*
X6169173Y-7260423I-20000J0D01*
G01*
X6169173Y-10837077D02*
G75*
G03*
X6169173Y-10837077I-20000J0D01*
G01*
X6169173Y-11070423D02*
G75*
G03*
X6169173Y-11070423I-20000J0D01*
G01*
X6169173Y-14647077D02*
G75*
G03*
X6169173Y-14647077I-20000J0D01*
G01*
X6169173Y-14880423D02*
G75*
G03*
X6169173Y-14880423I-20000J0D01*
G01*
X6217500Y-7143750D02*
G75*
G03*
X6217500Y-7143750I-20000J0D01*
G01*
X6217500Y-10953750D02*
G75*
G03*
X6217500Y-10953750I-20000J0D01*
G01*
X6217500Y-14763750D02*
G75*
G03*
X6217500Y-14763750I-20000J0D01*
G01*
X11602500Y-7064375D02*
G75*
G03*
X11602500Y-7064375I-20000J0D01*
G01*
X11602500Y-10953750D02*
G75*
G03*
X11602500Y-10953750I-20000J0D01*
G01*
X11602500Y-14763750D02*
G75*
G03*
X11602500Y-14763750I-20000J0D01*
G01*
X11650827Y-6947702D02*
G75*
G03*
X11650827Y-6947702I-20000J0D01*
G01*
X11650827Y-7181048D02*
G75*
G03*
X11650827Y-7181048I-20000J0D01*
G01*
X11650827Y-10837077D02*
G75*
G03*
X11650827Y-10837077I-20000J0D01*
G01*
X11650827Y-11070423D02*
G75*
G03*
X11650827Y-11070423I-20000J0D01*
G01*
X11650827Y-14647077D02*
G75*
G03*
X11650827Y-14647077I-20000J0D01*
G01*
X11650827Y-14880423D02*
G75*
G03*
X11650827Y-14880423I-20000J0D01*
G01*
X11767500Y-6899375D02*
G75*
G03*
X11767500Y-6899375I-20000J0D01*
G01*
X11767500Y-7229375D02*
G75*
G03*
X11767500Y-7229375I-20000J0D01*
G01*
X11767500Y-10788750D02*
G75*
G03*
X11767500Y-10788750I-20000J0D01*
G01*
X11767500Y-11118750D02*
G75*
G03*
X11767500Y-11118750I-20000J0D01*
G01*
X11767500Y-14598750D02*
G75*
G03*
X11767500Y-14598750I-20000J0D01*
G01*
X11767500Y-14928750D02*
G75*
G03*
X11767500Y-14928750I-20000J0D01*
G01*
X11884173Y-6947702D02*
G75*
G03*
X11884173Y-6947702I-20000J0D01*
G01*
X11884173Y-7181048D02*
G75*
G03*
X11884173Y-7181048I-20000J0D01*
G01*
X11884173Y-10837077D02*
G75*
G03*
X11884173Y-10837077I-20000J0D01*
G01*
X11884173Y-11070423D02*
G75*
G03*
X11884173Y-11070423I-20000J0D01*
G01*
X11884173Y-14647077D02*
G75*
G03*
X11884173Y-14647077I-20000J0D01*
G01*
X11884173Y-14880423D02*
G75*
G03*
X11884173Y-14880423I-20000J0D01*
G01*
X11932500Y-7064375D02*
G75*
G03*
X11932500Y-7064375I-20000J0D01*
G01*
X11932500Y-10953750D02*
G75*
G03*
X11932500Y-10953750I-20000J0D01*
G01*
X11932500Y-14763750D02*
G75*
G03*
X11932500Y-14763750I-20000J0D01*
G01*
D13*
X3333750Y-6452875D02*
X3333750Y-6532875D01*
X3293750Y-6492875D02*
X3373750Y-6492875D01*
X3333750Y-6960875D02*
X3333750Y-7040875D01*
X3293750Y-7000875D02*
X3373750Y-7000875D01*
X3333750Y-7246625D02*
X3333750Y-7326625D01*
X3293750Y-7286625D02*
X3373750Y-7286625D01*
X3333750Y-7754625D02*
X3333750Y-7834625D01*
X3293750Y-7794625D02*
X3373750Y-7794625D01*
X3333750Y-9151625D02*
X3333750Y-9231625D01*
X3293750Y-9191625D02*
X3373750Y-9191625D01*
X3333750Y-9659625D02*
X3333750Y-9739625D01*
X3293750Y-9699625D02*
X3373750Y-9699625D01*
X3333750Y-11056625D02*
X3333750Y-11136625D01*
X3293750Y-11096625D02*
X3373750Y-11096625D01*
X3333750Y-11564625D02*
X3333750Y-11644625D01*
X3293750Y-11604625D02*
X3373750Y-11604625D01*
X3333750Y-12961625D02*
X3333750Y-13041625D01*
X3293750Y-13001625D02*
X3373750Y-13001625D01*
X3333750Y-13469625D02*
X3333750Y-13549625D01*
X3293750Y-13509625D02*
X3373750Y-13509625D01*
X3333750Y-14866625D02*
X3333750Y-14946625D01*
X3293750Y-14906625D02*
X3373750Y-14906625D01*
X3333750Y-15374625D02*
X3333750Y-15454625D01*
X3293750Y-15414625D02*
X3373750Y-15414625D01*
X5238750Y-6452875D02*
X5238750Y-6532875D01*
X5198750Y-6492875D02*
X5278750Y-6492875D01*
X5238750Y-6960875D02*
X5238750Y-7040875D01*
X5198750Y-7000875D02*
X5278750Y-7000875D01*
X5238750Y-7246625D02*
X5238750Y-7326625D01*
X5198750Y-7286625D02*
X5278750Y-7286625D01*
X5238750Y-7754625D02*
X5238750Y-7834625D01*
X5198750Y-7794625D02*
X5278750Y-7794625D01*
X5238750Y-9151625D02*
X5238750Y-9231625D01*
X5198750Y-9191625D02*
X5278750Y-9191625D01*
X5238750Y-9659625D02*
X5238750Y-9739625D01*
X5198750Y-9699625D02*
X5278750Y-9699625D01*
X5238750Y-11056625D02*
X5238750Y-11136625D01*
X5198750Y-11096625D02*
X5278750Y-11096625D01*
X5238750Y-11564625D02*
X5238750Y-11644625D01*
X5198750Y-11604625D02*
X5278750Y-11604625D01*
X5238750Y-12961625D02*
X5238750Y-13041625D01*
X5198750Y-13001625D02*
X5278750Y-13001625D01*
X5238750Y-13469625D02*
X5238750Y-13549625D01*
X5198750Y-13509625D02*
X5278750Y-13509625D01*
X5238750Y-14866625D02*
X5238750Y-14946625D01*
X5198750Y-14906625D02*
X5278750Y-14906625D01*
X5238750Y-15374625D02*
X5238750Y-15454625D01*
X5198750Y-15414625D02*
X5278750Y-15414625D01*
X7143750Y-7246625D02*
X7143750Y-7326625D01*
X7103750Y-7286625D02*
X7183750Y-7286625D01*
X7143750Y-7754625D02*
X7143750Y-7834625D01*
X7103750Y-7794625D02*
X7183750Y-7794625D01*
X7143750Y-9151625D02*
X7143750Y-9231625D01*
X7103750Y-9191625D02*
X7183750Y-9191625D01*
X7143750Y-9659625D02*
X7143750Y-9739625D01*
X7103750Y-9699625D02*
X7183750Y-9699625D01*
X7143750Y-11056625D02*
X7143750Y-11136625D01*
X7103750Y-11096625D02*
X7183750Y-11096625D01*
X7143750Y-11564625D02*
X7143750Y-11644625D01*
X7103750Y-11604625D02*
X7183750Y-11604625D01*
X7143750Y-12961625D02*
X7143750Y-13041625D01*
X7103750Y-13001625D02*
X7183750Y-13001625D01*
X7143750Y-13469625D02*
X7143750Y-13549625D01*
X7103750Y-13509625D02*
X7183750Y-13509625D01*
X7143750Y-14866625D02*
X7143750Y-14946625D01*
X7103750Y-14906625D02*
X7183750Y-14906625D01*
X7143750Y-15374625D02*
X7143750Y-15454625D01*
X7103750Y-15414625D02*
X7183750Y-15414625D01*
X7778750Y-6452875D02*
X7778750Y-6532875D01*
X7738750Y-6492875D02*
X7818750Y-6492875D01*
X7778750Y-6960875D02*
X7778750Y-7040875D01*
X7738750Y-7000875D02*
X7818750Y-7000875D01*
X9048750Y-7246625D02*
X9048750Y-7326625D01*
X9008750Y-7286625D02*
X9088750Y-7286625D01*
X9048750Y-7754625D02*
X9048750Y-7834625D01*
X9008750Y-7794625D02*
X9088750Y-7794625D01*
X9048750Y-9151625D02*
X9048750Y-9231625D01*
X9008750Y-9191625D02*
X9088750Y-9191625D01*
X9048750Y-9659625D02*
X9048750Y-9739625D01*
X9008750Y-9699625D02*
X9088750Y-9699625D01*
X9048750Y-11056625D02*
X9048750Y-11136625D01*
X9008750Y-11096625D02*
X9088750Y-11096625D01*
X9048750Y-11564625D02*
X9048750Y-11644625D01*
X9008750Y-11604625D02*
X9088750Y-11604625D01*
X9048750Y-12961625D02*
X9048750Y-13041625D01*
X9008750Y-13001625D02*
X9088750Y-13001625D01*
X9048750Y-13469625D02*
X9048750Y-13549625D01*
X9008750Y-13509625D02*
X9088750Y-13509625D01*
X9048750Y-14866625D02*
X9048750Y-14946625D01*
X9008750Y-14906625D02*
X9088750Y-14906625D01*
X9048750Y-15374625D02*
X9048750Y-15454625D01*
X9008750Y-15414625D02*
X9088750Y-15414625D01*
X10953750Y-6452875D02*
X10953750Y-6532875D01*
X10913750Y-6492875D02*
X10993750Y-6492875D01*
X10953750Y-6960875D02*
X10953750Y-7040875D01*
X10913750Y-7000875D02*
X10993750Y-7000875D01*
X10953750Y-7246625D02*
X10953750Y-7326625D01*
X10913750Y-7286625D02*
X10993750Y-7286625D01*
X10953750Y-7754625D02*
X10953750Y-7834625D01*
X10913750Y-7794625D02*
X10993750Y-7794625D01*
X10953750Y-9151625D02*
X10953750Y-9231625D01*
X10913750Y-9191625D02*
X10993750Y-9191625D01*
X10953750Y-9659625D02*
X10953750Y-9739625D01*
X10913750Y-9699625D02*
X10993750Y-9699625D01*
X10953750Y-11056625D02*
X10953750Y-11136625D01*
X10913750Y-11096625D02*
X10993750Y-11096625D01*
X10953750Y-11564625D02*
X10953750Y-11644625D01*
X10913750Y-11604625D02*
X10993750Y-11604625D01*
X10953750Y-12961625D02*
X10953750Y-13041625D01*
X10913750Y-13001625D02*
X10993750Y-13001625D01*
X10953750Y-13469625D02*
X10953750Y-13549625D01*
X10913750Y-13509625D02*
X10993750Y-13509625D01*
X10953750Y-14866625D02*
X10953750Y-14946625D01*
X10913750Y-14906625D02*
X10993750Y-14906625D01*
X10953750Y-15374625D02*
X10953750Y-15454625D01*
X10913750Y-15414625D02*
X10993750Y-15414625D01*
X12858750Y-6452875D02*
X12858750Y-6532875D01*
X12818750Y-6492875D02*
X12898750Y-6492875D01*
X12858750Y-6960875D02*
X12858750Y-7040875D01*
X12818750Y-7000875D02*
X12898750Y-7000875D01*
X12858750Y-7246625D02*
X12858750Y-7326625D01*
X12818750Y-7286625D02*
X12898750Y-7286625D01*
X12858750Y-7754625D02*
X12858750Y-7834625D01*
X12818750Y-7794625D02*
X12898750Y-7794625D01*
X12858750Y-9151625D02*
X12858750Y-9231625D01*
X12818750Y-9191625D02*
X12898750Y-9191625D01*
X12858750Y-9659625D02*
X12858750Y-9739625D01*
X12818750Y-9699625D02*
X12898750Y-9699625D01*
X12858750Y-11056625D02*
X12858750Y-11136625D01*
X12818750Y-11096625D02*
X12898750Y-11096625D01*
X12858750Y-11564625D02*
X12858750Y-11644625D01*
X12818750Y-11604625D02*
X12898750Y-11604625D01*
X12858750Y-12961625D02*
X12858750Y-13041625D01*
X12818750Y-13001625D02*
X12898750Y-13001625D01*
X12858750Y-13469625D02*
X12858750Y-13549625D01*
X12818750Y-13509625D02*
X12898750Y-13509625D01*
X12858750Y-14866625D02*
X12858750Y-14946625D01*
X12818750Y-14906625D02*
X12898750Y-14906625D01*
X12858750Y-15374625D02*
X12858750Y-15454625D01*
X12818750Y-15414625D02*
X12898750Y-15414625D01*
D14*
X12501820Y-5844945D02*
X12501820Y-5781305D01*
X12438180Y-5781305D01*
X12438180Y-5844945D01*
X12501820Y-5844945D01*
D11*
X12425000Y-5793125D02*
X12425000Y-5833125D01*
X12425000Y-5833125D02*
G75*
G03*
X12515000Y-5833125I45000J0D01*
G01*
X12515000Y-5833125D02*
X12515000Y-5793125D01*
X12515000Y-5793125D02*
G75*
G03*
X12425000Y-5793125I-45000J0D01*
G01*
D14*
X12961820Y-5034945D02*
X12961820Y-4971305D01*
X12898180Y-4971305D01*
X12898180Y-5034945D01*
X12961820Y-5034945D01*
D11*
X12885000Y-4983125D02*
X12885000Y-5023125D01*
X12885000Y-5023125D02*
G75*
G03*
X12975000Y-5023125I45000J0D01*
G01*
X12975000Y-5023125D02*
X12975000Y-4983125D01*
X12975000Y-4983125D02*
G75*
G03*
X12885000Y-4983125I-45000J0D01*
G01*
D14*
X12961820Y-5334945D02*
X12961820Y-5271305D01*
X12898180Y-5271305D01*
X12898180Y-5334945D01*
X12961820Y-5334945D01*
D11*
X12885000Y-5283125D02*
X12885000Y-5323125D01*
X12885000Y-5323125D02*
G75*
G03*
X12975000Y-5323125I45000J0D01*
G01*
X12975000Y-5323125D02*
X12975000Y-5283125D01*
X12975000Y-5283125D02*
G75*
G03*
X12885000Y-5283125I-45000J0D01*
G01*
D14*
X12961820Y-5734945D02*
X12961820Y-5671305D01*
X12898180Y-5671305D01*
X12898180Y-5734945D01*
X12961820Y-5734945D01*
D11*
X12885000Y-5683125D02*
X12885000Y-5723125D01*
X12885000Y-5723125D02*
G75*
G03*
X12975000Y-5723125I45000J0D01*
G01*
X12975000Y-5723125D02*
X12975000Y-5683125D01*
X12975000Y-5683125D02*
G75*
G03*
X12885000Y-5683125I-45000J0D01*
G01*
D10*
X8128000Y-4987125D02*
X8178000Y-4937125D01*
X8128000Y-4887125D01*
X8078000Y-4937125D01*
X8128000Y-4987125D01*
X8128000Y-5241125D02*
X8178000Y-5191125D01*
X8128000Y-5141125D01*
X8078000Y-5191125D01*
X8128000Y-5241125D01*
X8128000Y-5495125D02*
X8178000Y-5445125D01*
X8128000Y-5395125D01*
X8078000Y-5445125D01*
X8128000Y-5495125D01*
X8128000Y-5749125D02*
X8178000Y-5699125D01*
X8128000Y-5649125D01*
X8078000Y-5699125D01*
X8128000Y-5749125D01*
X8128000Y-6257125D02*
X8178000Y-6207125D01*
X8128000Y-6157125D01*
X8078000Y-6207125D01*
X8128000Y-6257125D01*
X8128000Y-6511125D02*
X8178000Y-6461125D01*
X8128000Y-6411125D01*
X8078000Y-6461125D01*
X8128000Y-6511125D01*
X8128000Y-6765125D02*
X8178000Y-6715125D01*
X8128000Y-6665125D01*
X8078000Y-6715125D01*
X8128000Y-6765125D01*
X8128000Y-7019125D02*
X8178000Y-6969125D01*
X8128000Y-6919125D01*
X8078000Y-6969125D01*
X8128000Y-7019125D01*
X8382000Y-7019125D02*
X8432000Y-6969125D01*
X8382000Y-6919125D01*
X8332000Y-6969125D01*
X8382000Y-7019125D01*
X8636000Y-7019125D02*
X8686000Y-6969125D01*
X8636000Y-6919125D01*
X8586000Y-6969125D01*
X8636000Y-7019125D01*
X8890000Y-7019125D02*
X8940000Y-6969125D01*
X8890000Y-6919125D01*
X8840000Y-6969125D01*
X8890000Y-7019125D01*
X9144000Y-7019125D02*
X9194000Y-6969125D01*
X9144000Y-6919125D01*
X9094000Y-6969125D01*
X9144000Y-7019125D01*
X9398000Y-7019125D02*
X9448000Y-6969125D01*
X9398000Y-6919125D01*
X9348000Y-6969125D01*
X9398000Y-7019125D01*
X9652000Y-4987125D02*
X9702000Y-4937125D01*
X9652000Y-4887125D01*
X9602000Y-4937125D01*
X9652000Y-4987125D01*
X9652000Y-5241125D02*
X9702000Y-5191125D01*
X9652000Y-5141125D01*
X9602000Y-5191125D01*
X9652000Y-5241125D01*
X9652000Y-5495125D02*
X9702000Y-5445125D01*
X9652000Y-5395125D01*
X9602000Y-5445125D01*
X9652000Y-5495125D01*
X9652000Y-5749125D02*
X9702000Y-5699125D01*
X9652000Y-5649125D01*
X9602000Y-5699125D01*
X9652000Y-5749125D01*
X9652000Y-6003125D02*
X9702000Y-5953125D01*
X9652000Y-5903125D01*
X9602000Y-5953125D01*
X9652000Y-6003125D01*
X9652000Y-6511125D02*
X9702000Y-6461125D01*
X9652000Y-6411125D01*
X9602000Y-6461125D01*
X9652000Y-6511125D01*
X9652000Y-6765125D02*
X9702000Y-6715125D01*
X9652000Y-6665125D01*
X9602000Y-6715125D01*
X9652000Y-6765125D01*
X9652000Y-7019125D02*
X9702000Y-6969125D01*
X9652000Y-6919125D01*
X9602000Y-6969125D01*
X9652000Y-7019125D01*
D15*
X5922500Y-7033750D02*
X6142500Y-7253750D01*
X6142500Y-7033750D02*
X5922500Y-7253750D01*
X6142500Y-7143750D02*
G75*
G03*
X6142500Y-7143750I-110000J0D01*
G01*
X5922500Y-10843750D02*
X6142500Y-11063750D01*
X6142500Y-10843750D02*
X5922500Y-11063750D01*
X6142500Y-10953750D02*
G75*
G03*
X6142500Y-10953750I-110000J0D01*
G01*
X5922500Y-14653750D02*
X6142500Y-14873750D01*
X6142500Y-14653750D02*
X5922500Y-14873750D01*
X6142500Y-14763750D02*
G75*
G03*
X6142500Y-14763750I-110000J0D01*
G01*
X11637500Y-6954375D02*
X11857500Y-7174375D01*
X11857500Y-6954375D02*
X11637500Y-7174375D01*
X11857500Y-7064375D02*
G75*
G03*
X11857500Y-7064375I-110000J0D01*
G01*
X11637500Y-10843750D02*
X11857500Y-11063750D01*
X11857500Y-10843750D02*
X11637500Y-11063750D01*
X11857500Y-10953750D02*
G75*
G03*
X11857500Y-10953750I-110000J0D01*
G01*
X11637500Y-14653750D02*
X11857500Y-14873750D01*
X11857500Y-14653750D02*
X11637500Y-14873750D01*
X11857500Y-14763750D02*
G75*
G03*
X11857500Y-14763750I-110000J0D01*
G01*
D16*
X3596500Y-5819000D02*
X3896500Y-6119000D01*
X3896500Y-5819000D02*
X3596500Y-6119000D01*
X3746500Y-5819000D02*
X3746500Y-6119000D01*
X3596500Y-5969000D02*
X3896500Y-5969000D01*
X3596500Y-8200250D02*
X3896500Y-8500250D01*
X3896500Y-8200250D02*
X3596500Y-8500250D01*
X3746500Y-8200250D02*
X3746500Y-8500250D01*
X3596500Y-8350250D02*
X3896500Y-8350250D01*
X3596500Y-10105250D02*
X3896500Y-10405250D01*
X3896500Y-10105250D02*
X3596500Y-10405250D01*
X3746500Y-10105250D02*
X3746500Y-10405250D01*
X3596500Y-10255250D02*
X3896500Y-10255250D01*
X3596500Y-12010250D02*
X3896500Y-12310250D01*
X3896500Y-12010250D02*
X3596500Y-12310250D01*
X3746500Y-12010250D02*
X3746500Y-12310250D01*
X3596500Y-12160250D02*
X3896500Y-12160250D01*
X3596500Y-13915250D02*
X3896500Y-14215250D01*
X3896500Y-13915250D02*
X3596500Y-14215250D01*
X3746500Y-13915250D02*
X3746500Y-14215250D01*
X3596500Y-14065250D02*
X3896500Y-14065250D01*
X3596500Y-15820250D02*
X3896500Y-16120250D01*
X3896500Y-15820250D02*
X3596500Y-16120250D01*
X3746500Y-15820250D02*
X3746500Y-16120250D01*
X3596500Y-15970250D02*
X3896500Y-15970250D01*
X4231500Y-6073000D02*
X4531500Y-6373000D01*
X4531500Y-6073000D02*
X4231500Y-6373000D01*
X4381500Y-6073000D02*
X4381500Y-6373000D01*
X4231500Y-6223000D02*
X4531500Y-6223000D01*
X4231500Y-8454250D02*
X4531500Y-8754250D01*
X4531500Y-8454250D02*
X4231500Y-8754250D01*
X4381500Y-8454250D02*
X4381500Y-8754250D01*
X4231500Y-8604250D02*
X4531500Y-8604250D01*
X4231500Y-10359250D02*
X4531500Y-10659250D01*
X4531500Y-10359250D02*
X4231500Y-10659250D01*
X4381500Y-10359250D02*
X4381500Y-10659250D01*
X4231500Y-10509250D02*
X4531500Y-10509250D01*
X4231500Y-12264250D02*
X4531500Y-12564250D01*
X4531500Y-12264250D02*
X4231500Y-12564250D01*
X4381500Y-12264250D02*
X4381500Y-12564250D01*
X4231500Y-12414250D02*
X4531500Y-12414250D01*
X4231500Y-14169250D02*
X4531500Y-14469250D01*
X4531500Y-14169250D02*
X4231500Y-14469250D01*
X4381500Y-14169250D02*
X4381500Y-14469250D01*
X4231500Y-14319250D02*
X4531500Y-14319250D01*
X4231500Y-16074250D02*
X4531500Y-16374250D01*
X4531500Y-16074250D02*
X4231500Y-16374250D01*
X4381500Y-16074250D02*
X4381500Y-16374250D01*
X4231500Y-16224250D02*
X4531500Y-16224250D01*
X5501500Y-5819000D02*
X5801500Y-6119000D01*
X5801500Y-5819000D02*
X5501500Y-6119000D01*
X5651500Y-5819000D02*
X5651500Y-6119000D01*
X5501500Y-5969000D02*
X5801500Y-5969000D01*
X5501500Y-8200250D02*
X5801500Y-8500250D01*
X5801500Y-8200250D02*
X5501500Y-8500250D01*
X5651500Y-8200250D02*
X5651500Y-8500250D01*
X5501500Y-8350250D02*
X5801500Y-8350250D01*
X5501500Y-10105250D02*
X5801500Y-10405250D01*
X5801500Y-10105250D02*
X5501500Y-10405250D01*
X5651500Y-10105250D02*
X5651500Y-10405250D01*
X5501500Y-10255250D02*
X5801500Y-10255250D01*
X5501500Y-12010250D02*
X5801500Y-12310250D01*
X5801500Y-12010250D02*
X5501500Y-12310250D01*
X5651500Y-12010250D02*
X5651500Y-12310250D01*
X5501500Y-12160250D02*
X5801500Y-12160250D01*
X5501500Y-13915250D02*
X5801500Y-14215250D01*
X5801500Y-13915250D02*
X5501500Y-14215250D01*
X5651500Y-13915250D02*
X5651500Y-14215250D01*
X5501500Y-14065250D02*
X5801500Y-14065250D01*
X5501500Y-15820250D02*
X5801500Y-16120250D01*
X5801500Y-15820250D02*
X5501500Y-16120250D01*
X5651500Y-15820250D02*
X5651500Y-16120250D01*
X5501500Y-15970250D02*
X5801500Y-15970250D01*
X6136500Y-6073000D02*
X6436500Y-6373000D01*
X6436500Y-6073000D02*
X6136500Y-6373000D01*
X6286500Y-6073000D02*
X6286500Y-6373000D01*
X6136500Y-6223000D02*
X6436500Y-6223000D01*
X6136500Y-8454250D02*
X6436500Y-8754250D01*
X6436500Y-8454250D02*
X6136500Y-8754250D01*
X6286500Y-8454250D02*
X6286500Y-8754250D01*
X6136500Y-8604250D02*
X6436500Y-8604250D01*
X6136500Y-10359250D02*
X6436500Y-10659250D01*
X6436500Y-10359250D02*
X6136500Y-10659250D01*
X6286500Y-10359250D02*
X6286500Y-10659250D01*
X6136500Y-10509250D02*
X6436500Y-10509250D01*
X6136500Y-12264250D02*
X6436500Y-12564250D01*
X6436500Y-12264250D02*
X6136500Y-12564250D01*
X6286500Y-12264250D02*
X6286500Y-12564250D01*
X6136500Y-12414250D02*
X6436500Y-12414250D01*
X6136500Y-14169250D02*
X6436500Y-14469250D01*
X6436500Y-14169250D02*
X6136500Y-14469250D01*
X6286500Y-14169250D02*
X6286500Y-14469250D01*
X6136500Y-14319250D02*
X6436500Y-14319250D01*
X6136500Y-16074250D02*
X6436500Y-16374250D01*
X6436500Y-16074250D02*
X6136500Y-16374250D01*
X6286500Y-16074250D02*
X6286500Y-16374250D01*
X6136500Y-16224250D02*
X6436500Y-16224250D01*
X6454000Y-5819000D02*
X6754000Y-6119000D01*
X6754000Y-5819000D02*
X6454000Y-6119000D01*
X6604000Y-5819000D02*
X6604000Y-6119000D01*
X6454000Y-5969000D02*
X6754000Y-5969000D01*
X7089000Y-6073000D02*
X7389000Y-6373000D01*
X7389000Y-6073000D02*
X7089000Y-6373000D01*
X7239000Y-6073000D02*
X7239000Y-6373000D01*
X7089000Y-6223000D02*
X7389000Y-6223000D01*
X7406500Y-8200250D02*
X7706500Y-8500250D01*
X7706500Y-8200250D02*
X7406500Y-8500250D01*
X7556500Y-8200250D02*
X7556500Y-8500250D01*
X7406500Y-8350250D02*
X7706500Y-8350250D01*
X7406500Y-10105250D02*
X7706500Y-10405250D01*
X7706500Y-10105250D02*
X7406500Y-10405250D01*
X7556500Y-10105250D02*
X7556500Y-10405250D01*
X7406500Y-10255250D02*
X7706500Y-10255250D01*
X7406500Y-12010250D02*
X7706500Y-12310250D01*
X7706500Y-12010250D02*
X7406500Y-12310250D01*
X7556500Y-12010250D02*
X7556500Y-12310250D01*
X7406500Y-12160250D02*
X7706500Y-12160250D01*
X7406500Y-13915250D02*
X7706500Y-14215250D01*
X7706500Y-13915250D02*
X7406500Y-14215250D01*
X7556500Y-13915250D02*
X7556500Y-14215250D01*
X7406500Y-14065250D02*
X7706500Y-14065250D01*
X7406500Y-15820250D02*
X7706500Y-16120250D01*
X7706500Y-15820250D02*
X7406500Y-16120250D01*
X7556500Y-15820250D02*
X7556500Y-16120250D01*
X7406500Y-15970250D02*
X7706500Y-15970250D01*
X8041500Y-8454250D02*
X8341500Y-8754250D01*
X8341500Y-8454250D02*
X8041500Y-8754250D01*
X8191500Y-8454250D02*
X8191500Y-8754250D01*
X8041500Y-8604250D02*
X8341500Y-8604250D01*
X8041500Y-10359250D02*
X8341500Y-10659250D01*
X8341500Y-10359250D02*
X8041500Y-10659250D01*
X8191500Y-10359250D02*
X8191500Y-10659250D01*
X8041500Y-10509250D02*
X8341500Y-10509250D01*
X8041500Y-12264250D02*
X8341500Y-12564250D01*
X8341500Y-12264250D02*
X8041500Y-12564250D01*
X8191500Y-12264250D02*
X8191500Y-12564250D01*
X8041500Y-12414250D02*
X8341500Y-12414250D01*
X8041500Y-14169250D02*
X8341500Y-14469250D01*
X8341500Y-14169250D02*
X8041500Y-14469250D01*
X8191500Y-14169250D02*
X8191500Y-14469250D01*
X8041500Y-14319250D02*
X8341500Y-14319250D01*
X8041500Y-16074250D02*
X8341500Y-16374250D01*
X8341500Y-16074250D02*
X8041500Y-16374250D01*
X8191500Y-16074250D02*
X8191500Y-16374250D01*
X8041500Y-16224250D02*
X8341500Y-16224250D01*
X8359000Y-5819000D02*
X8659000Y-6119000D01*
X8659000Y-5819000D02*
X8359000Y-6119000D01*
X8509000Y-5819000D02*
X8509000Y-6119000D01*
X8359000Y-5969000D02*
X8659000Y-5969000D01*
X8994000Y-6073000D02*
X9294000Y-6373000D01*
X9294000Y-6073000D02*
X8994000Y-6373000D01*
X9144000Y-6073000D02*
X9144000Y-6373000D01*
X8994000Y-6223000D02*
X9294000Y-6223000D01*
X9311500Y-8200250D02*
X9611500Y-8500250D01*
X9611500Y-8200250D02*
X9311500Y-8500250D01*
X9461500Y-8200250D02*
X9461500Y-8500250D01*
X9311500Y-8350250D02*
X9611500Y-8350250D01*
X9311500Y-10105250D02*
X9611500Y-10405250D01*
X9611500Y-10105250D02*
X9311500Y-10405250D01*
X9461500Y-10105250D02*
X9461500Y-10405250D01*
X9311500Y-10255250D02*
X9611500Y-10255250D01*
X9311500Y-12010250D02*
X9611500Y-12310250D01*
X9611500Y-12010250D02*
X9311500Y-12310250D01*
X9461500Y-12010250D02*
X9461500Y-12310250D01*
X9311500Y-12160250D02*
X9611500Y-12160250D01*
X9311500Y-13915250D02*
X9611500Y-14215250D01*
X9611500Y-13915250D02*
X9311500Y-14215250D01*
X9461500Y-13915250D02*
X9461500Y-14215250D01*
X9311500Y-14065250D02*
X9611500Y-14065250D01*
X9311500Y-15820250D02*
X9611500Y-16120250D01*
X9611500Y-15820250D02*
X9311500Y-16120250D01*
X9461500Y-15820250D02*
X9461500Y-16120250D01*
X9311500Y-15970250D02*
X9611500Y-15970250D01*
X9946500Y-8454250D02*
X10246500Y-8754250D01*
X10246500Y-8454250D02*
X9946500Y-8754250D01*
X10096500Y-8454250D02*
X10096500Y-8754250D01*
X9946500Y-8604250D02*
X10246500Y-8604250D01*
X9946500Y-10359250D02*
X10246500Y-10659250D01*
X10246500Y-10359250D02*
X9946500Y-10659250D01*
X10096500Y-10359250D02*
X10096500Y-10659250D01*
X9946500Y-10509250D02*
X10246500Y-10509250D01*
X9946500Y-12264250D02*
X10246500Y-12564250D01*
X10246500Y-12264250D02*
X9946500Y-12564250D01*
X10096500Y-12264250D02*
X10096500Y-12564250D01*
X9946500Y-12414250D02*
X10246500Y-12414250D01*
X9946500Y-14169250D02*
X10246500Y-14469250D01*
X10246500Y-14169250D02*
X9946500Y-14469250D01*
X10096500Y-14169250D02*
X10096500Y-14469250D01*
X9946500Y-14319250D02*
X10246500Y-14319250D01*
X9946500Y-16074250D02*
X10246500Y-16374250D01*
X10246500Y-16074250D02*
X9946500Y-16374250D01*
X10096500Y-16074250D02*
X10096500Y-16374250D01*
X9946500Y-16224250D02*
X10246500Y-16224250D01*
X10264000Y-5819000D02*
X10564000Y-6119000D01*
X10564000Y-5819000D02*
X10264000Y-6119000D01*
X10414000Y-5819000D02*
X10414000Y-6119000D01*
X10264000Y-5969000D02*
X10564000Y-5969000D01*
X10899000Y-6073000D02*
X11199000Y-6373000D01*
X11199000Y-6073000D02*
X10899000Y-6373000D01*
X11049000Y-6073000D02*
X11049000Y-6373000D01*
X10899000Y-6223000D02*
X11199000Y-6223000D01*
X11216500Y-5819000D02*
X11516500Y-6119000D01*
X11516500Y-5819000D02*
X11216500Y-6119000D01*
X11366500Y-5819000D02*
X11366500Y-6119000D01*
X11216500Y-5969000D02*
X11516500Y-5969000D01*
X11216500Y-8200250D02*
X11516500Y-8500250D01*
X11516500Y-8200250D02*
X11216500Y-8500250D01*
X11366500Y-8200250D02*
X11366500Y-8500250D01*
X11216500Y-8350250D02*
X11516500Y-8350250D01*
X11216500Y-10105250D02*
X11516500Y-10405250D01*
X11516500Y-10105250D02*
X11216500Y-10405250D01*
X11366500Y-10105250D02*
X11366500Y-10405250D01*
X11216500Y-10255250D02*
X11516500Y-10255250D01*
X11216500Y-12010250D02*
X11516500Y-12310250D01*
X11516500Y-12010250D02*
X11216500Y-12310250D01*
X11366500Y-12010250D02*
X11366500Y-12310250D01*
X11216500Y-12160250D02*
X11516500Y-12160250D01*
X11216500Y-13915250D02*
X11516500Y-14215250D01*
X11516500Y-13915250D02*
X11216500Y-14215250D01*
X11366500Y-13915250D02*
X11366500Y-14215250D01*
X11216500Y-14065250D02*
X11516500Y-14065250D01*
X11216500Y-15820250D02*
X11516500Y-16120250D01*
X11516500Y-15820250D02*
X11216500Y-16120250D01*
X11366500Y-15820250D02*
X11366500Y-16120250D01*
X11216500Y-15970250D02*
X11516500Y-15970250D01*
X11851500Y-6073000D02*
X12151500Y-6373000D01*
X12151500Y-6073000D02*
X11851500Y-6373000D01*
X12001500Y-6073000D02*
X12001500Y-6373000D01*
X11851500Y-6223000D02*
X12151500Y-6223000D01*
X11851500Y-8454250D02*
X12151500Y-8754250D01*
X12151500Y-8454250D02*
X11851500Y-8754250D01*
X12001500Y-8454250D02*
X12001500Y-8754250D01*
X11851500Y-8604250D02*
X12151500Y-8604250D01*
X11851500Y-10359250D02*
X12151500Y-10659250D01*
X12151500Y-10359250D02*
X11851500Y-10659250D01*
X12001500Y-10359250D02*
X12001500Y-10659250D01*
X11851500Y-10509250D02*
X12151500Y-10509250D01*
X11851500Y-12264250D02*
X12151500Y-12564250D01*
X12151500Y-12264250D02*
X11851500Y-12564250D01*
X12001500Y-12264250D02*
X12001500Y-12564250D01*
X11851500Y-12414250D02*
X12151500Y-12414250D01*
X11851500Y-14169250D02*
X12151500Y-14469250D01*
X12151500Y-14169250D02*
X11851500Y-14469250D01*
X12001500Y-14169250D02*
X12001500Y-14469250D01*
X11851500Y-14319250D02*
X12151500Y-14319250D01*
X11851500Y-16074250D02*
X12151500Y-16374250D01*
X12151500Y-16074250D02*
X11851500Y-16374250D01*
X12001500Y-16074250D02*
X12001500Y-16374250D01*
X11851500Y-16224250D02*
X12151500Y-16224250D01*
X13121500Y-5819000D02*
X13421500Y-6119000D01*
X13421500Y-5819000D02*
X13121500Y-6119000D01*
X13271500Y-5819000D02*
X13271500Y-6119000D01*
X13121500Y-5969000D02*
X13421500Y-5969000D01*
X13121500Y-8200250D02*
X13421500Y-8500250D01*
X13421500Y-8200250D02*
X13121500Y-8500250D01*
X13271500Y-8200250D02*
X13271500Y-8500250D01*
X13121500Y-8350250D02*
X13421500Y-8350250D01*
X13121500Y-10105250D02*
X13421500Y-10405250D01*
X13421500Y-10105250D02*
X13121500Y-10405250D01*
X13271500Y-10105250D02*
X13271500Y-10405250D01*
X13121500Y-10255250D02*
X13421500Y-10255250D01*
X13121500Y-12010250D02*
X13421500Y-12310250D01*
X13421500Y-12010250D02*
X13121500Y-12310250D01*
X13271500Y-12010250D02*
X13271500Y-12310250D01*
X13121500Y-12160250D02*
X13421500Y-12160250D01*
X13121500Y-13915250D02*
X13421500Y-14215250D01*
X13421500Y-13915250D02*
X13121500Y-14215250D01*
X13271500Y-13915250D02*
X13271500Y-14215250D01*
X13121500Y-14065250D02*
X13421500Y-14065250D01*
X13121500Y-15820250D02*
X13421500Y-16120250D01*
X13421500Y-15820250D02*
X13121500Y-16120250D01*
X13271500Y-15820250D02*
X13271500Y-16120250D01*
X13121500Y-15970250D02*
X13421500Y-15970250D01*
X13756500Y-6073000D02*
X14056500Y-6373000D01*
X14056500Y-6073000D02*
X13756500Y-6373000D01*
X13906500Y-6073000D02*
X13906500Y-6373000D01*
X13756500Y-6223000D02*
X14056500Y-6223000D01*
X13756500Y-8454250D02*
X14056500Y-8754250D01*
X14056500Y-8454250D02*
X13756500Y-8754250D01*
X13906500Y-8454250D02*
X13906500Y-8754250D01*
X13756500Y-8604250D02*
X14056500Y-8604250D01*
X13756500Y-10359250D02*
X14056500Y-10659250D01*
X14056500Y-10359250D02*
X13756500Y-10659250D01*
X13906500Y-10359250D02*
X13906500Y-10659250D01*
X13756500Y-10509250D02*
X14056500Y-10509250D01*
X13756500Y-12264250D02*
X14056500Y-12564250D01*
X14056500Y-12264250D02*
X13756500Y-12564250D01*
X13906500Y-12264250D02*
X13906500Y-12564250D01*
X13756500Y-12414250D02*
X14056500Y-12414250D01*
X13756500Y-14169250D02*
X14056500Y-14469250D01*
X14056500Y-14169250D02*
X13756500Y-14469250D01*
X13906500Y-14169250D02*
X13906500Y-14469250D01*
X13756500Y-14319250D02*
X14056500Y-14319250D01*
X13756500Y-16074250D02*
X14056500Y-16374250D01*
X14056500Y-16074250D02*
X13756500Y-16374250D01*
X13906500Y-16074250D02*
X13906500Y-16374250D01*
X13756500Y-16224250D02*
X14056500Y-16224250D01*
D11*
X3113277Y-17302734D02*
X3113277Y-17102734D01*
X3113277Y-17102734D02*
X3160896Y-17102734D01*
X3160896Y-17102734D02*
X3189467Y-17112258D01*
X3189467Y-17112258D02*
X3208515Y-17131305D01*
X3208515Y-17131305D02*
X3218039Y-17150353D01*
X3218039Y-17150353D02*
X3227562Y-17188448D01*
X3227562Y-17188448D02*
X3227562Y-17217020D01*
X3227562Y-17217020D02*
X3218039Y-17255115D01*
X3218039Y-17255115D02*
X3208515Y-17274162D01*
X3208515Y-17274162D02*
X3189467Y-17293210D01*
X3189467Y-17293210D02*
X3160896Y-17302734D01*
X3160896Y-17302734D02*
X3113277Y-17302734D01*
X3313277Y-17302734D02*
X3313277Y-17169400D01*
X3313277Y-17207496D02*
X3322801Y-17188448D01*
X3322801Y-17188448D02*
X3332324Y-17178924D01*
X3332324Y-17178924D02*
X3351372Y-17169400D01*
X3351372Y-17169400D02*
X3370420Y-17169400D01*
X3437086Y-17302734D02*
X3437086Y-17169400D01*
X3437086Y-17102734D02*
X3427562Y-17112258D01*
X3427562Y-17112258D02*
X3437086Y-17121781D01*
X3437086Y-17121781D02*
X3446610Y-17112258D01*
X3446610Y-17112258D02*
X3437086Y-17102734D01*
X3437086Y-17102734D02*
X3437086Y-17121781D01*
X3560896Y-17302734D02*
X3541848Y-17293210D01*
X3541848Y-17293210D02*
X3532324Y-17274162D01*
X3532324Y-17274162D02*
X3532324Y-17102734D01*
X3665658Y-17302734D02*
X3646610Y-17293210D01*
X3646610Y-17293210D02*
X3637086Y-17274162D01*
X3637086Y-17274162D02*
X3637086Y-17102734D01*
X3894229Y-17302734D02*
X3894229Y-17102734D01*
X3894229Y-17102734D02*
X3960896Y-17245591D01*
X3960896Y-17245591D02*
X4027562Y-17102734D01*
X4027562Y-17102734D02*
X4027562Y-17302734D01*
X4208515Y-17302734D02*
X4208515Y-17197972D01*
X4208515Y-17197972D02*
X4198991Y-17178924D01*
X4198991Y-17178924D02*
X4179943Y-17169400D01*
X4179943Y-17169400D02*
X4141848Y-17169400D01*
X4141848Y-17169400D02*
X4122801Y-17178924D01*
X4208515Y-17293210D02*
X4189467Y-17302734D01*
X4189467Y-17302734D02*
X4141848Y-17302734D01*
X4141848Y-17302734D02*
X4122801Y-17293210D01*
X4122801Y-17293210D02*
X4113277Y-17274162D01*
X4113277Y-17274162D02*
X4113277Y-17255115D01*
X4113277Y-17255115D02*
X4122801Y-17236067D01*
X4122801Y-17236067D02*
X4141848Y-17226543D01*
X4141848Y-17226543D02*
X4189467Y-17226543D01*
X4189467Y-17226543D02*
X4208515Y-17217020D01*
X4303753Y-17169400D02*
X4303753Y-17369400D01*
X4303753Y-17178924D02*
X4322801Y-17169400D01*
X4322801Y-17169400D02*
X4360896Y-17169400D01*
X4360896Y-17169400D02*
X4379944Y-17178924D01*
X4379944Y-17178924D02*
X4389467Y-17188448D01*
X4389467Y-17188448D02*
X4398991Y-17207496D01*
X4398991Y-17207496D02*
X4398991Y-17264639D01*
X4398991Y-17264639D02*
X4389467Y-17283686D01*
X4389467Y-17283686D02*
X4379944Y-17293210D01*
X4379944Y-17293210D02*
X4360896Y-17302734D01*
X4360896Y-17302734D02*
X4322801Y-17302734D01*
X4322801Y-17302734D02*
X4303753Y-17293210D01*
X4484705Y-17283686D02*
X4494229Y-17293210D01*
X4494229Y-17293210D02*
X4484705Y-17302734D01*
X4484705Y-17302734D02*
X4475182Y-17293210D01*
X4475182Y-17293210D02*
X4484705Y-17283686D01*
X4484705Y-17283686D02*
X4484705Y-17302734D01*
X4484705Y-17178924D02*
X4494229Y-17188448D01*
X4494229Y-17188448D02*
X4484705Y-17197972D01*
X4484705Y-17197972D02*
X4475182Y-17188448D01*
X4475182Y-17188448D02*
X4484705Y-17178924D01*
X4484705Y-17178924D02*
X4484705Y-17197972D01*
D12*
X2812500Y-17611250D02*
X2852500Y-17651250D01*
X2852500Y-17611250D02*
X2812500Y-17651250D01*
D11*
X3151372Y-17522734D02*
X3170420Y-17522734D01*
X3170420Y-17522734D02*
X3189467Y-17532258D01*
X3189467Y-17532258D02*
X3198991Y-17541781D01*
X3198991Y-17541781D02*
X3208515Y-17560829D01*
X3208515Y-17560829D02*
X3218039Y-17598924D01*
X3218039Y-17598924D02*
X3218039Y-17646543D01*
X3218039Y-17646543D02*
X3208515Y-17684639D01*
X3208515Y-17684639D02*
X3198991Y-17703686D01*
X3198991Y-17703686D02*
X3189467Y-17713210D01*
X3189467Y-17713210D02*
X3170420Y-17722734D01*
X3170420Y-17722734D02*
X3151372Y-17722734D01*
X3151372Y-17722734D02*
X3132324Y-17713210D01*
X3132324Y-17713210D02*
X3122801Y-17703686D01*
X3122801Y-17703686D02*
X3113277Y-17684639D01*
X3113277Y-17684639D02*
X3103753Y-17646543D01*
X3103753Y-17646543D02*
X3103753Y-17598924D01*
X3103753Y-17598924D02*
X3113277Y-17560829D01*
X3113277Y-17560829D02*
X3122801Y-17541781D01*
X3122801Y-17541781D02*
X3132324Y-17532258D01*
X3132324Y-17532258D02*
X3151372Y-17522734D01*
X3303753Y-17703686D02*
X3313277Y-17713210D01*
X3313277Y-17713210D02*
X3303753Y-17722734D01*
X3303753Y-17722734D02*
X3294229Y-17713210D01*
X3294229Y-17713210D02*
X3303753Y-17703686D01*
X3303753Y-17703686D02*
X3303753Y-17722734D01*
X3484705Y-17589400D02*
X3484705Y-17722734D01*
X3437086Y-17513210D02*
X3389467Y-17656067D01*
X3389467Y-17656067D02*
X3513277Y-17656067D01*
X3627562Y-17522734D02*
X3646610Y-17522734D01*
X3646610Y-17522734D02*
X3665658Y-17532258D01*
X3665658Y-17532258D02*
X3675182Y-17541781D01*
X3675182Y-17541781D02*
X3684705Y-17560829D01*
X3684705Y-17560829D02*
X3694229Y-17598924D01*
X3694229Y-17598924D02*
X3694229Y-17646543D01*
X3694229Y-17646543D02*
X3684705Y-17684639D01*
X3684705Y-17684639D02*
X3675182Y-17703686D01*
X3675182Y-17703686D02*
X3665658Y-17713210D01*
X3665658Y-17713210D02*
X3646610Y-17722734D01*
X3646610Y-17722734D02*
X3627562Y-17722734D01*
X3627562Y-17722734D02*
X3608515Y-17713210D01*
X3608515Y-17713210D02*
X3598991Y-17703686D01*
X3598991Y-17703686D02*
X3589467Y-17684639D01*
X3589467Y-17684639D02*
X3579943Y-17646543D01*
X3579943Y-17646543D02*
X3579943Y-17598924D01*
X3579943Y-17598924D02*
X3589467Y-17560829D01*
X3589467Y-17560829D02*
X3598991Y-17541781D01*
X3598991Y-17541781D02*
X3608515Y-17532258D01*
X3608515Y-17532258D02*
X3627562Y-17522734D01*
X3818039Y-17522734D02*
X3837086Y-17522734D01*
X3837086Y-17522734D02*
X3856134Y-17532258D01*
X3856134Y-17532258D02*
X3865658Y-17541781D01*
X3865658Y-17541781D02*
X3875182Y-17560829D01*
X3875182Y-17560829D02*
X3884705Y-17598924D01*
X3884705Y-17598924D02*
X3884705Y-17646543D01*
X3884705Y-17646543D02*
X3875182Y-17684639D01*
X3875182Y-17684639D02*
X3865658Y-17703686D01*
X3865658Y-17703686D02*
X3856134Y-17713210D01*
X3856134Y-17713210D02*
X3837086Y-17722734D01*
X3837086Y-17722734D02*
X3818039Y-17722734D01*
X3818039Y-17722734D02*
X3798991Y-17713210D01*
X3798991Y-17713210D02*
X3789467Y-17703686D01*
X3789467Y-17703686D02*
X3779943Y-17684639D01*
X3779943Y-17684639D02*
X3770420Y-17646543D01*
X3770420Y-17646543D02*
X3770420Y-17598924D01*
X3770420Y-17598924D02*
X3779943Y-17560829D01*
X3779943Y-17560829D02*
X3789467Y-17541781D01*
X3789467Y-17541781D02*
X3798991Y-17532258D01*
X3798991Y-17532258D02*
X3818039Y-17522734D01*
X3970420Y-17722734D02*
X3970420Y-17589400D01*
X3970420Y-17608448D02*
X3979943Y-17598924D01*
X3979943Y-17598924D02*
X3998991Y-17589400D01*
X3998991Y-17589400D02*
X4027563Y-17589400D01*
X4027563Y-17589400D02*
X4046610Y-17598924D01*
X4046610Y-17598924D02*
X4056134Y-17617972D01*
X4056134Y-17617972D02*
X4056134Y-17722734D01*
X4056134Y-17617972D02*
X4065658Y-17598924D01*
X4065658Y-17598924D02*
X4084705Y-17589400D01*
X4084705Y-17589400D02*
X4113277Y-17589400D01*
X4113277Y-17589400D02*
X4132324Y-17598924D01*
X4132324Y-17598924D02*
X4141848Y-17617972D01*
X4141848Y-17617972D02*
X4141848Y-17722734D01*
X4237086Y-17722734D02*
X4237086Y-17589400D01*
X4237086Y-17608448D02*
X4246610Y-17598924D01*
X4246610Y-17598924D02*
X4265658Y-17589400D01*
X4265658Y-17589400D02*
X4294229Y-17589400D01*
X4294229Y-17589400D02*
X4313277Y-17598924D01*
X4313277Y-17598924D02*
X4322801Y-17617972D01*
X4322801Y-17617972D02*
X4322801Y-17722734D01*
X4322801Y-17617972D02*
X4332325Y-17598924D01*
X4332325Y-17598924D02*
X4351372Y-17589400D01*
X4351372Y-17589400D02*
X4379944Y-17589400D01*
X4379944Y-17589400D02*
X4398991Y-17598924D01*
X4398991Y-17598924D02*
X4408515Y-17617972D01*
X4408515Y-17617972D02*
X4408515Y-17722734D01*
X4798991Y-17513210D02*
X4627563Y-17770353D01*
X5056134Y-17522734D02*
X5075182Y-17522734D01*
X5075182Y-17522734D02*
X5094229Y-17532258D01*
X5094229Y-17532258D02*
X5103753Y-17541781D01*
X5103753Y-17541781D02*
X5113277Y-17560829D01*
X5113277Y-17560829D02*
X5122801Y-17598924D01*
X5122801Y-17598924D02*
X5122801Y-17646543D01*
X5122801Y-17646543D02*
X5113277Y-17684639D01*
X5113277Y-17684639D02*
X5103753Y-17703686D01*
X5103753Y-17703686D02*
X5094229Y-17713210D01*
X5094229Y-17713210D02*
X5075182Y-17722734D01*
X5075182Y-17722734D02*
X5056134Y-17722734D01*
X5056134Y-17722734D02*
X5037087Y-17713210D01*
X5037087Y-17713210D02*
X5027563Y-17703686D01*
X5027563Y-17703686D02*
X5018039Y-17684639D01*
X5018039Y-17684639D02*
X5008515Y-17646543D01*
X5008515Y-17646543D02*
X5008515Y-17598924D01*
X5008515Y-17598924D02*
X5018039Y-17560829D01*
X5018039Y-17560829D02*
X5027563Y-17541781D01*
X5027563Y-17541781D02*
X5037087Y-17532258D01*
X5037087Y-17532258D02*
X5056134Y-17522734D01*
X5208515Y-17703686D02*
X5218039Y-17713210D01*
X5218039Y-17713210D02*
X5208515Y-17722734D01*
X5208515Y-17722734D02*
X5198991Y-17713210D01*
X5198991Y-17713210D02*
X5208515Y-17703686D01*
X5208515Y-17703686D02*
X5208515Y-17722734D01*
X5341848Y-17522734D02*
X5360896Y-17522734D01*
X5360896Y-17522734D02*
X5379944Y-17532258D01*
X5379944Y-17532258D02*
X5389468Y-17541781D01*
X5389468Y-17541781D02*
X5398991Y-17560829D01*
X5398991Y-17560829D02*
X5408515Y-17598924D01*
X5408515Y-17598924D02*
X5408515Y-17646543D01*
X5408515Y-17646543D02*
X5398991Y-17684639D01*
X5398991Y-17684639D02*
X5389468Y-17703686D01*
X5389468Y-17703686D02*
X5379944Y-17713210D01*
X5379944Y-17713210D02*
X5360896Y-17722734D01*
X5360896Y-17722734D02*
X5341848Y-17722734D01*
X5341848Y-17722734D02*
X5322801Y-17713210D01*
X5322801Y-17713210D02*
X5313277Y-17703686D01*
X5313277Y-17703686D02*
X5303753Y-17684639D01*
X5303753Y-17684639D02*
X5294229Y-17646543D01*
X5294229Y-17646543D02*
X5294229Y-17598924D01*
X5294229Y-17598924D02*
X5303753Y-17560829D01*
X5303753Y-17560829D02*
X5313277Y-17541781D01*
X5313277Y-17541781D02*
X5322801Y-17532258D01*
X5322801Y-17532258D02*
X5341848Y-17522734D01*
X5598991Y-17722734D02*
X5484706Y-17722734D01*
X5541848Y-17722734D02*
X5541848Y-17522734D01*
X5541848Y-17522734D02*
X5522801Y-17551305D01*
X5522801Y-17551305D02*
X5503753Y-17570353D01*
X5503753Y-17570353D02*
X5484706Y-17579877D01*
X5779944Y-17522734D02*
X5684706Y-17522734D01*
X5684706Y-17522734D02*
X5675182Y-17617972D01*
X5675182Y-17617972D02*
X5684706Y-17608448D01*
X5684706Y-17608448D02*
X5703753Y-17598924D01*
X5703753Y-17598924D02*
X5751372Y-17598924D01*
X5751372Y-17598924D02*
X5770420Y-17608448D01*
X5770420Y-17608448D02*
X5779944Y-17617972D01*
X5779944Y-17617972D02*
X5789467Y-17637020D01*
X5789467Y-17637020D02*
X5789467Y-17684639D01*
X5789467Y-17684639D02*
X5779944Y-17703686D01*
X5779944Y-17703686D02*
X5770420Y-17713210D01*
X5770420Y-17713210D02*
X5751372Y-17722734D01*
X5751372Y-17722734D02*
X5703753Y-17722734D01*
X5703753Y-17722734D02*
X5684706Y-17713210D01*
X5684706Y-17713210D02*
X5675182Y-17703686D01*
X5856134Y-17522734D02*
X5989467Y-17522734D01*
X5989467Y-17522734D02*
X5903753Y-17722734D01*
X6056134Y-17522734D02*
X6056134Y-17560829D01*
X6132325Y-17522734D02*
X6132325Y-17560829D01*
X6427563Y-17798924D02*
X6418039Y-17789400D01*
X6418039Y-17789400D02*
X6398991Y-17760829D01*
X6398991Y-17760829D02*
X6389468Y-17741781D01*
X6389468Y-17741781D02*
X6379944Y-17713210D01*
X6379944Y-17713210D02*
X6370420Y-17665591D01*
X6370420Y-17665591D02*
X6370420Y-17627496D01*
X6370420Y-17627496D02*
X6379944Y-17579877D01*
X6379944Y-17579877D02*
X6389468Y-17551305D01*
X6389468Y-17551305D02*
X6398991Y-17532258D01*
X6398991Y-17532258D02*
X6418039Y-17503686D01*
X6418039Y-17503686D02*
X6427563Y-17494162D01*
X6608515Y-17722734D02*
X6494229Y-17722734D01*
X6551372Y-17722734D02*
X6551372Y-17522734D01*
X6551372Y-17522734D02*
X6532325Y-17551305D01*
X6532325Y-17551305D02*
X6513277Y-17570353D01*
X6513277Y-17570353D02*
X6494229Y-17579877D01*
X6732325Y-17522734D02*
X6751372Y-17522734D01*
X6751372Y-17522734D02*
X6770420Y-17532258D01*
X6770420Y-17532258D02*
X6779944Y-17541781D01*
X6779944Y-17541781D02*
X6789468Y-17560829D01*
X6789468Y-17560829D02*
X6798991Y-17598924D01*
X6798991Y-17598924D02*
X6798991Y-17646543D01*
X6798991Y-17646543D02*
X6789468Y-17684639D01*
X6789468Y-17684639D02*
X6779944Y-17703686D01*
X6779944Y-17703686D02*
X6770420Y-17713210D01*
X6770420Y-17713210D02*
X6751372Y-17722734D01*
X6751372Y-17722734D02*
X6732325Y-17722734D01*
X6732325Y-17722734D02*
X6713277Y-17713210D01*
X6713277Y-17713210D02*
X6703753Y-17703686D01*
X6703753Y-17703686D02*
X6694229Y-17684639D01*
X6694229Y-17684639D02*
X6684706Y-17646543D01*
X6684706Y-17646543D02*
X6684706Y-17598924D01*
X6684706Y-17598924D02*
X6694229Y-17560829D01*
X6694229Y-17560829D02*
X6703753Y-17541781D01*
X6703753Y-17541781D02*
X6713277Y-17532258D01*
X6713277Y-17532258D02*
X6732325Y-17522734D01*
X7037087Y-17722734D02*
X7037087Y-17522734D01*
X7122801Y-17722734D02*
X7122801Y-17617972D01*
X7122801Y-17617972D02*
X7113277Y-17598924D01*
X7113277Y-17598924D02*
X7094230Y-17589400D01*
X7094230Y-17589400D02*
X7065658Y-17589400D01*
X7065658Y-17589400D02*
X7046610Y-17598924D01*
X7046610Y-17598924D02*
X7037087Y-17608448D01*
X7246610Y-17722734D02*
X7227563Y-17713210D01*
X7227563Y-17713210D02*
X7218039Y-17703686D01*
X7218039Y-17703686D02*
X7208515Y-17684639D01*
X7208515Y-17684639D02*
X7208515Y-17627496D01*
X7208515Y-17627496D02*
X7218039Y-17608448D01*
X7218039Y-17608448D02*
X7227563Y-17598924D01*
X7227563Y-17598924D02*
X7246610Y-17589400D01*
X7246610Y-17589400D02*
X7275182Y-17589400D01*
X7275182Y-17589400D02*
X7294230Y-17598924D01*
X7294230Y-17598924D02*
X7303753Y-17608448D01*
X7303753Y-17608448D02*
X7313277Y-17627496D01*
X7313277Y-17627496D02*
X7313277Y-17684639D01*
X7313277Y-17684639D02*
X7303753Y-17703686D01*
X7303753Y-17703686D02*
X7294230Y-17713210D01*
X7294230Y-17713210D02*
X7275182Y-17722734D01*
X7275182Y-17722734D02*
X7246610Y-17722734D01*
X7427563Y-17722734D02*
X7408515Y-17713210D01*
X7408515Y-17713210D02*
X7398991Y-17694162D01*
X7398991Y-17694162D02*
X7398991Y-17522734D01*
X7579944Y-17713210D02*
X7560896Y-17722734D01*
X7560896Y-17722734D02*
X7522801Y-17722734D01*
X7522801Y-17722734D02*
X7503753Y-17713210D01*
X7503753Y-17713210D02*
X7494230Y-17694162D01*
X7494230Y-17694162D02*
X7494230Y-17617972D01*
X7494230Y-17617972D02*
X7503753Y-17598924D01*
X7503753Y-17598924D02*
X7522801Y-17589400D01*
X7522801Y-17589400D02*
X7560896Y-17589400D01*
X7560896Y-17589400D02*
X7579944Y-17598924D01*
X7579944Y-17598924D02*
X7589468Y-17617972D01*
X7589468Y-17617972D02*
X7589468Y-17637020D01*
X7589468Y-17637020D02*
X7494230Y-17656067D01*
X7665658Y-17713210D02*
X7684706Y-17722734D01*
X7684706Y-17722734D02*
X7722801Y-17722734D01*
X7722801Y-17722734D02*
X7741849Y-17713210D01*
X7741849Y-17713210D02*
X7751372Y-17694162D01*
X7751372Y-17694162D02*
X7751372Y-17684639D01*
X7751372Y-17684639D02*
X7741849Y-17665591D01*
X7741849Y-17665591D02*
X7722801Y-17656067D01*
X7722801Y-17656067D02*
X7694230Y-17656067D01*
X7694230Y-17656067D02*
X7675182Y-17646543D01*
X7675182Y-17646543D02*
X7665658Y-17627496D01*
X7665658Y-17627496D02*
X7665658Y-17617972D01*
X7665658Y-17617972D02*
X7675182Y-17598924D01*
X7675182Y-17598924D02*
X7694230Y-17589400D01*
X7694230Y-17589400D02*
X7722801Y-17589400D01*
X7722801Y-17589400D02*
X7741849Y-17598924D01*
X7818039Y-17798924D02*
X7827563Y-17789400D01*
X7827563Y-17789400D02*
X7846611Y-17760829D01*
X7846611Y-17760829D02*
X7856134Y-17741781D01*
X7856134Y-17741781D02*
X7865658Y-17713210D01*
X7865658Y-17713210D02*
X7875182Y-17665591D01*
X7875182Y-17665591D02*
X7875182Y-17627496D01*
X7875182Y-17627496D02*
X7865658Y-17579877D01*
X7865658Y-17579877D02*
X7856134Y-17551305D01*
X7856134Y-17551305D02*
X7846611Y-17532258D01*
X7846611Y-17532258D02*
X7827563Y-17503686D01*
X7827563Y-17503686D02*
X7818039Y-17494162D01*
D12*
X2852500Y-17895250D02*
G75*
G03*
X2852500Y-17895250I-20000J0D01*
G01*
D11*
X3151372Y-17786734D02*
X3170420Y-17786734D01*
X3170420Y-17786734D02*
X3189467Y-17796258D01*
X3189467Y-17796258D02*
X3198991Y-17805781D01*
X3198991Y-17805781D02*
X3208515Y-17824829D01*
X3208515Y-17824829D02*
X3218039Y-17862924D01*
X3218039Y-17862924D02*
X3218039Y-17910543D01*
X3218039Y-17910543D02*
X3208515Y-17948639D01*
X3208515Y-17948639D02*
X3198991Y-17967686D01*
X3198991Y-17967686D02*
X3189467Y-17977210D01*
X3189467Y-17977210D02*
X3170420Y-17986734D01*
X3170420Y-17986734D02*
X3151372Y-17986734D01*
X3151372Y-17986734D02*
X3132324Y-17977210D01*
X3132324Y-17977210D02*
X3122801Y-17967686D01*
X3122801Y-17967686D02*
X3113277Y-17948639D01*
X3113277Y-17948639D02*
X3103753Y-17910543D01*
X3103753Y-17910543D02*
X3103753Y-17862924D01*
X3103753Y-17862924D02*
X3113277Y-17824829D01*
X3113277Y-17824829D02*
X3122801Y-17805781D01*
X3122801Y-17805781D02*
X3132324Y-17796258D01*
X3132324Y-17796258D02*
X3151372Y-17786734D01*
X3303753Y-17967686D02*
X3313277Y-17977210D01*
X3313277Y-17977210D02*
X3303753Y-17986734D01*
X3303753Y-17986734D02*
X3294229Y-17977210D01*
X3294229Y-17977210D02*
X3303753Y-17967686D01*
X3303753Y-17967686D02*
X3303753Y-17986734D01*
X3484705Y-17853400D02*
X3484705Y-17986734D01*
X3437086Y-17777210D02*
X3389467Y-17920067D01*
X3389467Y-17920067D02*
X3513277Y-17920067D01*
X3627562Y-17786734D02*
X3646610Y-17786734D01*
X3646610Y-17786734D02*
X3665658Y-17796258D01*
X3665658Y-17796258D02*
X3675182Y-17805781D01*
X3675182Y-17805781D02*
X3684705Y-17824829D01*
X3684705Y-17824829D02*
X3694229Y-17862924D01*
X3694229Y-17862924D02*
X3694229Y-17910543D01*
X3694229Y-17910543D02*
X3684705Y-17948639D01*
X3684705Y-17948639D02*
X3675182Y-17967686D01*
X3675182Y-17967686D02*
X3665658Y-17977210D01*
X3665658Y-17977210D02*
X3646610Y-17986734D01*
X3646610Y-17986734D02*
X3627562Y-17986734D01*
X3627562Y-17986734D02*
X3608515Y-17977210D01*
X3608515Y-17977210D02*
X3598991Y-17967686D01*
X3598991Y-17967686D02*
X3589467Y-17948639D01*
X3589467Y-17948639D02*
X3579943Y-17910543D01*
X3579943Y-17910543D02*
X3579943Y-17862924D01*
X3579943Y-17862924D02*
X3589467Y-17824829D01*
X3589467Y-17824829D02*
X3598991Y-17805781D01*
X3598991Y-17805781D02*
X3608515Y-17796258D01*
X3608515Y-17796258D02*
X3627562Y-17786734D01*
X3818039Y-17786734D02*
X3837086Y-17786734D01*
X3837086Y-17786734D02*
X3856134Y-17796258D01*
X3856134Y-17796258D02*
X3865658Y-17805781D01*
X3865658Y-17805781D02*
X3875182Y-17824829D01*
X3875182Y-17824829D02*
X3884705Y-17862924D01*
X3884705Y-17862924D02*
X3884705Y-17910543D01*
X3884705Y-17910543D02*
X3875182Y-17948639D01*
X3875182Y-17948639D02*
X3865658Y-17967686D01*
X3865658Y-17967686D02*
X3856134Y-17977210D01*
X3856134Y-17977210D02*
X3837086Y-17986734D01*
X3837086Y-17986734D02*
X3818039Y-17986734D01*
X3818039Y-17986734D02*
X3798991Y-17977210D01*
X3798991Y-17977210D02*
X3789467Y-17967686D01*
X3789467Y-17967686D02*
X3779943Y-17948639D01*
X3779943Y-17948639D02*
X3770420Y-17910543D01*
X3770420Y-17910543D02*
X3770420Y-17862924D01*
X3770420Y-17862924D02*
X3779943Y-17824829D01*
X3779943Y-17824829D02*
X3789467Y-17805781D01*
X3789467Y-17805781D02*
X3798991Y-17796258D01*
X3798991Y-17796258D02*
X3818039Y-17786734D01*
X3970420Y-17986734D02*
X3970420Y-17853400D01*
X3970420Y-17872448D02*
X3979943Y-17862924D01*
X3979943Y-17862924D02*
X3998991Y-17853400D01*
X3998991Y-17853400D02*
X4027563Y-17853400D01*
X4027563Y-17853400D02*
X4046610Y-17862924D01*
X4046610Y-17862924D02*
X4056134Y-17881972D01*
X4056134Y-17881972D02*
X4056134Y-17986734D01*
X4056134Y-17881972D02*
X4065658Y-17862924D01*
X4065658Y-17862924D02*
X4084705Y-17853400D01*
X4084705Y-17853400D02*
X4113277Y-17853400D01*
X4113277Y-17853400D02*
X4132324Y-17862924D01*
X4132324Y-17862924D02*
X4141848Y-17881972D01*
X4141848Y-17881972D02*
X4141848Y-17986734D01*
X4237086Y-17986734D02*
X4237086Y-17853400D01*
X4237086Y-17872448D02*
X4246610Y-17862924D01*
X4246610Y-17862924D02*
X4265658Y-17853400D01*
X4265658Y-17853400D02*
X4294229Y-17853400D01*
X4294229Y-17853400D02*
X4313277Y-17862924D01*
X4313277Y-17862924D02*
X4322801Y-17881972D01*
X4322801Y-17881972D02*
X4322801Y-17986734D01*
X4322801Y-17881972D02*
X4332325Y-17862924D01*
X4332325Y-17862924D02*
X4351372Y-17853400D01*
X4351372Y-17853400D02*
X4379944Y-17853400D01*
X4379944Y-17853400D02*
X4398991Y-17862924D01*
X4398991Y-17862924D02*
X4408515Y-17881972D01*
X4408515Y-17881972D02*
X4408515Y-17986734D01*
X4798991Y-17777210D02*
X4627563Y-18034353D01*
X5056134Y-17786734D02*
X5075182Y-17786734D01*
X5075182Y-17786734D02*
X5094229Y-17796258D01*
X5094229Y-17796258D02*
X5103753Y-17805781D01*
X5103753Y-17805781D02*
X5113277Y-17824829D01*
X5113277Y-17824829D02*
X5122801Y-17862924D01*
X5122801Y-17862924D02*
X5122801Y-17910543D01*
X5122801Y-17910543D02*
X5113277Y-17948639D01*
X5113277Y-17948639D02*
X5103753Y-17967686D01*
X5103753Y-17967686D02*
X5094229Y-17977210D01*
X5094229Y-17977210D02*
X5075182Y-17986734D01*
X5075182Y-17986734D02*
X5056134Y-17986734D01*
X5056134Y-17986734D02*
X5037087Y-17977210D01*
X5037087Y-17977210D02*
X5027563Y-17967686D01*
X5027563Y-17967686D02*
X5018039Y-17948639D01*
X5018039Y-17948639D02*
X5008515Y-17910543D01*
X5008515Y-17910543D02*
X5008515Y-17862924D01*
X5008515Y-17862924D02*
X5018039Y-17824829D01*
X5018039Y-17824829D02*
X5027563Y-17805781D01*
X5027563Y-17805781D02*
X5037087Y-17796258D01*
X5037087Y-17796258D02*
X5056134Y-17786734D01*
X5208515Y-17967686D02*
X5218039Y-17977210D01*
X5218039Y-17977210D02*
X5208515Y-17986734D01*
X5208515Y-17986734D02*
X5198991Y-17977210D01*
X5198991Y-17977210D02*
X5208515Y-17967686D01*
X5208515Y-17967686D02*
X5208515Y-17986734D01*
X5341848Y-17786734D02*
X5360896Y-17786734D01*
X5360896Y-17786734D02*
X5379944Y-17796258D01*
X5379944Y-17796258D02*
X5389468Y-17805781D01*
X5389468Y-17805781D02*
X5398991Y-17824829D01*
X5398991Y-17824829D02*
X5408515Y-17862924D01*
X5408515Y-17862924D02*
X5408515Y-17910543D01*
X5408515Y-17910543D02*
X5398991Y-17948639D01*
X5398991Y-17948639D02*
X5389468Y-17967686D01*
X5389468Y-17967686D02*
X5379944Y-17977210D01*
X5379944Y-17977210D02*
X5360896Y-17986734D01*
X5360896Y-17986734D02*
X5341848Y-17986734D01*
X5341848Y-17986734D02*
X5322801Y-17977210D01*
X5322801Y-17977210D02*
X5313277Y-17967686D01*
X5313277Y-17967686D02*
X5303753Y-17948639D01*
X5303753Y-17948639D02*
X5294229Y-17910543D01*
X5294229Y-17910543D02*
X5294229Y-17862924D01*
X5294229Y-17862924D02*
X5303753Y-17824829D01*
X5303753Y-17824829D02*
X5313277Y-17805781D01*
X5313277Y-17805781D02*
X5322801Y-17796258D01*
X5322801Y-17796258D02*
X5341848Y-17786734D01*
X5598991Y-17986734D02*
X5484706Y-17986734D01*
X5541848Y-17986734D02*
X5541848Y-17786734D01*
X5541848Y-17786734D02*
X5522801Y-17815305D01*
X5522801Y-17815305D02*
X5503753Y-17834353D01*
X5503753Y-17834353D02*
X5484706Y-17843877D01*
X5779944Y-17786734D02*
X5684706Y-17786734D01*
X5684706Y-17786734D02*
X5675182Y-17881972D01*
X5675182Y-17881972D02*
X5684706Y-17872448D01*
X5684706Y-17872448D02*
X5703753Y-17862924D01*
X5703753Y-17862924D02*
X5751372Y-17862924D01*
X5751372Y-17862924D02*
X5770420Y-17872448D01*
X5770420Y-17872448D02*
X5779944Y-17881972D01*
X5779944Y-17881972D02*
X5789467Y-17901020D01*
X5789467Y-17901020D02*
X5789467Y-17948639D01*
X5789467Y-17948639D02*
X5779944Y-17967686D01*
X5779944Y-17967686D02*
X5770420Y-17977210D01*
X5770420Y-17977210D02*
X5751372Y-17986734D01*
X5751372Y-17986734D02*
X5703753Y-17986734D01*
X5703753Y-17986734D02*
X5684706Y-17977210D01*
X5684706Y-17977210D02*
X5675182Y-17967686D01*
X5856134Y-17786734D02*
X5989467Y-17786734D01*
X5989467Y-17786734D02*
X5903753Y-17986734D01*
X6056134Y-17786734D02*
X6056134Y-17824829D01*
X6132325Y-17786734D02*
X6132325Y-17824829D01*
X6427563Y-18062924D02*
X6418039Y-18053400D01*
X6418039Y-18053400D02*
X6398991Y-18024829D01*
X6398991Y-18024829D02*
X6389468Y-18005781D01*
X6389468Y-18005781D02*
X6379944Y-17977210D01*
X6379944Y-17977210D02*
X6370420Y-17929591D01*
X6370420Y-17929591D02*
X6370420Y-17891496D01*
X6370420Y-17891496D02*
X6379944Y-17843877D01*
X6379944Y-17843877D02*
X6389468Y-17815305D01*
X6389468Y-17815305D02*
X6398991Y-17796258D01*
X6398991Y-17796258D02*
X6418039Y-17767686D01*
X6418039Y-17767686D02*
X6427563Y-17758162D01*
X6589468Y-17853400D02*
X6589468Y-17986734D01*
X6541848Y-17777210D02*
X6494229Y-17920067D01*
X6494229Y-17920067D02*
X6618039Y-17920067D01*
X6722801Y-17872448D02*
X6703753Y-17862924D01*
X6703753Y-17862924D02*
X6694229Y-17853400D01*
X6694229Y-17853400D02*
X6684706Y-17834353D01*
X6684706Y-17834353D02*
X6684706Y-17824829D01*
X6684706Y-17824829D02*
X6694229Y-17805781D01*
X6694229Y-17805781D02*
X6703753Y-17796258D01*
X6703753Y-17796258D02*
X6722801Y-17786734D01*
X6722801Y-17786734D02*
X6760896Y-17786734D01*
X6760896Y-17786734D02*
X6779944Y-17796258D01*
X6779944Y-17796258D02*
X6789468Y-17805781D01*
X6789468Y-17805781D02*
X6798991Y-17824829D01*
X6798991Y-17824829D02*
X6798991Y-17834353D01*
X6798991Y-17834353D02*
X6789468Y-17853400D01*
X6789468Y-17853400D02*
X6779944Y-17862924D01*
X6779944Y-17862924D02*
X6760896Y-17872448D01*
X6760896Y-17872448D02*
X6722801Y-17872448D01*
X6722801Y-17872448D02*
X6703753Y-17881972D01*
X6703753Y-17881972D02*
X6694229Y-17891496D01*
X6694229Y-17891496D02*
X6684706Y-17910543D01*
X6684706Y-17910543D02*
X6684706Y-17948639D01*
X6684706Y-17948639D02*
X6694229Y-17967686D01*
X6694229Y-17967686D02*
X6703753Y-17977210D01*
X6703753Y-17977210D02*
X6722801Y-17986734D01*
X6722801Y-17986734D02*
X6760896Y-17986734D01*
X6760896Y-17986734D02*
X6779944Y-17977210D01*
X6779944Y-17977210D02*
X6789468Y-17967686D01*
X6789468Y-17967686D02*
X6798991Y-17948639D01*
X6798991Y-17948639D02*
X6798991Y-17910543D01*
X6798991Y-17910543D02*
X6789468Y-17891496D01*
X6789468Y-17891496D02*
X6779944Y-17881972D01*
X6779944Y-17881972D02*
X6760896Y-17872448D01*
X7037087Y-17986734D02*
X7037087Y-17786734D01*
X7122801Y-17986734D02*
X7122801Y-17881972D01*
X7122801Y-17881972D02*
X7113277Y-17862924D01*
X7113277Y-17862924D02*
X7094230Y-17853400D01*
X7094230Y-17853400D02*
X7065658Y-17853400D01*
X7065658Y-17853400D02*
X7046610Y-17862924D01*
X7046610Y-17862924D02*
X7037087Y-17872448D01*
X7246610Y-17986734D02*
X7227563Y-17977210D01*
X7227563Y-17977210D02*
X7218039Y-17967686D01*
X7218039Y-17967686D02*
X7208515Y-17948639D01*
X7208515Y-17948639D02*
X7208515Y-17891496D01*
X7208515Y-17891496D02*
X7218039Y-17872448D01*
X7218039Y-17872448D02*
X7227563Y-17862924D01*
X7227563Y-17862924D02*
X7246610Y-17853400D01*
X7246610Y-17853400D02*
X7275182Y-17853400D01*
X7275182Y-17853400D02*
X7294230Y-17862924D01*
X7294230Y-17862924D02*
X7303753Y-17872448D01*
X7303753Y-17872448D02*
X7313277Y-17891496D01*
X7313277Y-17891496D02*
X7313277Y-17948639D01*
X7313277Y-17948639D02*
X7303753Y-17967686D01*
X7303753Y-17967686D02*
X7294230Y-17977210D01*
X7294230Y-17977210D02*
X7275182Y-17986734D01*
X7275182Y-17986734D02*
X7246610Y-17986734D01*
X7427563Y-17986734D02*
X7408515Y-17977210D01*
X7408515Y-17977210D02*
X7398991Y-17958162D01*
X7398991Y-17958162D02*
X7398991Y-17786734D01*
X7579944Y-17977210D02*
X7560896Y-17986734D01*
X7560896Y-17986734D02*
X7522801Y-17986734D01*
X7522801Y-17986734D02*
X7503753Y-17977210D01*
X7503753Y-17977210D02*
X7494230Y-17958162D01*
X7494230Y-17958162D02*
X7494230Y-17881972D01*
X7494230Y-17881972D02*
X7503753Y-17862924D01*
X7503753Y-17862924D02*
X7522801Y-17853400D01*
X7522801Y-17853400D02*
X7560896Y-17853400D01*
X7560896Y-17853400D02*
X7579944Y-17862924D01*
X7579944Y-17862924D02*
X7589468Y-17881972D01*
X7589468Y-17881972D02*
X7589468Y-17901020D01*
X7589468Y-17901020D02*
X7494230Y-17920067D01*
X7665658Y-17977210D02*
X7684706Y-17986734D01*
X7684706Y-17986734D02*
X7722801Y-17986734D01*
X7722801Y-17986734D02*
X7741849Y-17977210D01*
X7741849Y-17977210D02*
X7751372Y-17958162D01*
X7751372Y-17958162D02*
X7751372Y-17948639D01*
X7751372Y-17948639D02*
X7741849Y-17929591D01*
X7741849Y-17929591D02*
X7722801Y-17920067D01*
X7722801Y-17920067D02*
X7694230Y-17920067D01*
X7694230Y-17920067D02*
X7675182Y-17910543D01*
X7675182Y-17910543D02*
X7665658Y-17891496D01*
X7665658Y-17891496D02*
X7665658Y-17881972D01*
X7665658Y-17881972D02*
X7675182Y-17862924D01*
X7675182Y-17862924D02*
X7694230Y-17853400D01*
X7694230Y-17853400D02*
X7722801Y-17853400D01*
X7722801Y-17853400D02*
X7741849Y-17862924D01*
X7818039Y-18062924D02*
X7827563Y-18053400D01*
X7827563Y-18053400D02*
X7846611Y-18024829D01*
X7846611Y-18024829D02*
X7856134Y-18005781D01*
X7856134Y-18005781D02*
X7865658Y-17977210D01*
X7865658Y-17977210D02*
X7875182Y-17929591D01*
X7875182Y-17929591D02*
X7875182Y-17891496D01*
X7875182Y-17891496D02*
X7865658Y-17843877D01*
X7865658Y-17843877D02*
X7856134Y-17815305D01*
X7856134Y-17815305D02*
X7846611Y-17796258D01*
X7846611Y-17796258D02*
X7827563Y-17767686D01*
X7827563Y-17767686D02*
X7818039Y-17758162D01*
D13*
X2812500Y-18119250D02*
X2812500Y-18199250D01*
X2772500Y-18159250D02*
X2852500Y-18159250D01*
D11*
X3151372Y-18050734D02*
X3170420Y-18050734D01*
X3170420Y-18050734D02*
X3189467Y-18060258D01*
X3189467Y-18060258D02*
X3198991Y-18069781D01*
X3198991Y-18069781D02*
X3208515Y-18088829D01*
X3208515Y-18088829D02*
X3218039Y-18126924D01*
X3218039Y-18126924D02*
X3218039Y-18174543D01*
X3218039Y-18174543D02*
X3208515Y-18212639D01*
X3208515Y-18212639D02*
X3198991Y-18231686D01*
X3198991Y-18231686D02*
X3189467Y-18241210D01*
X3189467Y-18241210D02*
X3170420Y-18250734D01*
X3170420Y-18250734D02*
X3151372Y-18250734D01*
X3151372Y-18250734D02*
X3132324Y-18241210D01*
X3132324Y-18241210D02*
X3122801Y-18231686D01*
X3122801Y-18231686D02*
X3113277Y-18212639D01*
X3113277Y-18212639D02*
X3103753Y-18174543D01*
X3103753Y-18174543D02*
X3103753Y-18126924D01*
X3103753Y-18126924D02*
X3113277Y-18088829D01*
X3113277Y-18088829D02*
X3122801Y-18069781D01*
X3122801Y-18069781D02*
X3132324Y-18060258D01*
X3132324Y-18060258D02*
X3151372Y-18050734D01*
X3303753Y-18231686D02*
X3313277Y-18241210D01*
X3313277Y-18241210D02*
X3303753Y-18250734D01*
X3303753Y-18250734D02*
X3294229Y-18241210D01*
X3294229Y-18241210D02*
X3303753Y-18231686D01*
X3303753Y-18231686D02*
X3303753Y-18250734D01*
X3427562Y-18136448D02*
X3408515Y-18126924D01*
X3408515Y-18126924D02*
X3398991Y-18117400D01*
X3398991Y-18117400D02*
X3389467Y-18098353D01*
X3389467Y-18098353D02*
X3389467Y-18088829D01*
X3389467Y-18088829D02*
X3398991Y-18069781D01*
X3398991Y-18069781D02*
X3408515Y-18060258D01*
X3408515Y-18060258D02*
X3427562Y-18050734D01*
X3427562Y-18050734D02*
X3465658Y-18050734D01*
X3465658Y-18050734D02*
X3484705Y-18060258D01*
X3484705Y-18060258D02*
X3494229Y-18069781D01*
X3494229Y-18069781D02*
X3503753Y-18088829D01*
X3503753Y-18088829D02*
X3503753Y-18098353D01*
X3503753Y-18098353D02*
X3494229Y-18117400D01*
X3494229Y-18117400D02*
X3484705Y-18126924D01*
X3484705Y-18126924D02*
X3465658Y-18136448D01*
X3465658Y-18136448D02*
X3427562Y-18136448D01*
X3427562Y-18136448D02*
X3408515Y-18145972D01*
X3408515Y-18145972D02*
X3398991Y-18155496D01*
X3398991Y-18155496D02*
X3389467Y-18174543D01*
X3389467Y-18174543D02*
X3389467Y-18212639D01*
X3389467Y-18212639D02*
X3398991Y-18231686D01*
X3398991Y-18231686D02*
X3408515Y-18241210D01*
X3408515Y-18241210D02*
X3427562Y-18250734D01*
X3427562Y-18250734D02*
X3465658Y-18250734D01*
X3465658Y-18250734D02*
X3484705Y-18241210D01*
X3484705Y-18241210D02*
X3494229Y-18231686D01*
X3494229Y-18231686D02*
X3503753Y-18212639D01*
X3503753Y-18212639D02*
X3503753Y-18174543D01*
X3503753Y-18174543D02*
X3494229Y-18155496D01*
X3494229Y-18155496D02*
X3484705Y-18145972D01*
X3484705Y-18145972D02*
X3465658Y-18136448D01*
X3627562Y-18050734D02*
X3646610Y-18050734D01*
X3646610Y-18050734D02*
X3665658Y-18060258D01*
X3665658Y-18060258D02*
X3675182Y-18069781D01*
X3675182Y-18069781D02*
X3684705Y-18088829D01*
X3684705Y-18088829D02*
X3694229Y-18126924D01*
X3694229Y-18126924D02*
X3694229Y-18174543D01*
X3694229Y-18174543D02*
X3684705Y-18212639D01*
X3684705Y-18212639D02*
X3675182Y-18231686D01*
X3675182Y-18231686D02*
X3665658Y-18241210D01*
X3665658Y-18241210D02*
X3646610Y-18250734D01*
X3646610Y-18250734D02*
X3627562Y-18250734D01*
X3627562Y-18250734D02*
X3608515Y-18241210D01*
X3608515Y-18241210D02*
X3598991Y-18231686D01*
X3598991Y-18231686D02*
X3589467Y-18212639D01*
X3589467Y-18212639D02*
X3579943Y-18174543D01*
X3579943Y-18174543D02*
X3579943Y-18126924D01*
X3579943Y-18126924D02*
X3589467Y-18088829D01*
X3589467Y-18088829D02*
X3598991Y-18069781D01*
X3598991Y-18069781D02*
X3608515Y-18060258D01*
X3608515Y-18060258D02*
X3627562Y-18050734D01*
X3818039Y-18050734D02*
X3837086Y-18050734D01*
X3837086Y-18050734D02*
X3856134Y-18060258D01*
X3856134Y-18060258D02*
X3865658Y-18069781D01*
X3865658Y-18069781D02*
X3875182Y-18088829D01*
X3875182Y-18088829D02*
X3884705Y-18126924D01*
X3884705Y-18126924D02*
X3884705Y-18174543D01*
X3884705Y-18174543D02*
X3875182Y-18212639D01*
X3875182Y-18212639D02*
X3865658Y-18231686D01*
X3865658Y-18231686D02*
X3856134Y-18241210D01*
X3856134Y-18241210D02*
X3837086Y-18250734D01*
X3837086Y-18250734D02*
X3818039Y-18250734D01*
X3818039Y-18250734D02*
X3798991Y-18241210D01*
X3798991Y-18241210D02*
X3789467Y-18231686D01*
X3789467Y-18231686D02*
X3779943Y-18212639D01*
X3779943Y-18212639D02*
X3770420Y-18174543D01*
X3770420Y-18174543D02*
X3770420Y-18126924D01*
X3770420Y-18126924D02*
X3779943Y-18088829D01*
X3779943Y-18088829D02*
X3789467Y-18069781D01*
X3789467Y-18069781D02*
X3798991Y-18060258D01*
X3798991Y-18060258D02*
X3818039Y-18050734D01*
X3970420Y-18250734D02*
X3970420Y-18117400D01*
X3970420Y-18136448D02*
X3979943Y-18126924D01*
X3979943Y-18126924D02*
X3998991Y-18117400D01*
X3998991Y-18117400D02*
X4027563Y-18117400D01*
X4027563Y-18117400D02*
X4046610Y-18126924D01*
X4046610Y-18126924D02*
X4056134Y-18145972D01*
X4056134Y-18145972D02*
X4056134Y-18250734D01*
X4056134Y-18145972D02*
X4065658Y-18126924D01*
X4065658Y-18126924D02*
X4084705Y-18117400D01*
X4084705Y-18117400D02*
X4113277Y-18117400D01*
X4113277Y-18117400D02*
X4132324Y-18126924D01*
X4132324Y-18126924D02*
X4141848Y-18145972D01*
X4141848Y-18145972D02*
X4141848Y-18250734D01*
X4237086Y-18250734D02*
X4237086Y-18117400D01*
X4237086Y-18136448D02*
X4246610Y-18126924D01*
X4246610Y-18126924D02*
X4265658Y-18117400D01*
X4265658Y-18117400D02*
X4294229Y-18117400D01*
X4294229Y-18117400D02*
X4313277Y-18126924D01*
X4313277Y-18126924D02*
X4322801Y-18145972D01*
X4322801Y-18145972D02*
X4322801Y-18250734D01*
X4322801Y-18145972D02*
X4332325Y-18126924D01*
X4332325Y-18126924D02*
X4351372Y-18117400D01*
X4351372Y-18117400D02*
X4379944Y-18117400D01*
X4379944Y-18117400D02*
X4398991Y-18126924D01*
X4398991Y-18126924D02*
X4408515Y-18145972D01*
X4408515Y-18145972D02*
X4408515Y-18250734D01*
X4798991Y-18041210D02*
X4627563Y-18298353D01*
X5056134Y-18050734D02*
X5075182Y-18050734D01*
X5075182Y-18050734D02*
X5094229Y-18060258D01*
X5094229Y-18060258D02*
X5103753Y-18069781D01*
X5103753Y-18069781D02*
X5113277Y-18088829D01*
X5113277Y-18088829D02*
X5122801Y-18126924D01*
X5122801Y-18126924D02*
X5122801Y-18174543D01*
X5122801Y-18174543D02*
X5113277Y-18212639D01*
X5113277Y-18212639D02*
X5103753Y-18231686D01*
X5103753Y-18231686D02*
X5094229Y-18241210D01*
X5094229Y-18241210D02*
X5075182Y-18250734D01*
X5075182Y-18250734D02*
X5056134Y-18250734D01*
X5056134Y-18250734D02*
X5037087Y-18241210D01*
X5037087Y-18241210D02*
X5027563Y-18231686D01*
X5027563Y-18231686D02*
X5018039Y-18212639D01*
X5018039Y-18212639D02*
X5008515Y-18174543D01*
X5008515Y-18174543D02*
X5008515Y-18126924D01*
X5008515Y-18126924D02*
X5018039Y-18088829D01*
X5018039Y-18088829D02*
X5027563Y-18069781D01*
X5027563Y-18069781D02*
X5037087Y-18060258D01*
X5037087Y-18060258D02*
X5056134Y-18050734D01*
X5208515Y-18231686D02*
X5218039Y-18241210D01*
X5218039Y-18241210D02*
X5208515Y-18250734D01*
X5208515Y-18250734D02*
X5198991Y-18241210D01*
X5198991Y-18241210D02*
X5208515Y-18231686D01*
X5208515Y-18231686D02*
X5208515Y-18250734D01*
X5341848Y-18050734D02*
X5360896Y-18050734D01*
X5360896Y-18050734D02*
X5379944Y-18060258D01*
X5379944Y-18060258D02*
X5389468Y-18069781D01*
X5389468Y-18069781D02*
X5398991Y-18088829D01*
X5398991Y-18088829D02*
X5408515Y-18126924D01*
X5408515Y-18126924D02*
X5408515Y-18174543D01*
X5408515Y-18174543D02*
X5398991Y-18212639D01*
X5398991Y-18212639D02*
X5389468Y-18231686D01*
X5389468Y-18231686D02*
X5379944Y-18241210D01*
X5379944Y-18241210D02*
X5360896Y-18250734D01*
X5360896Y-18250734D02*
X5341848Y-18250734D01*
X5341848Y-18250734D02*
X5322801Y-18241210D01*
X5322801Y-18241210D02*
X5313277Y-18231686D01*
X5313277Y-18231686D02*
X5303753Y-18212639D01*
X5303753Y-18212639D02*
X5294229Y-18174543D01*
X5294229Y-18174543D02*
X5294229Y-18126924D01*
X5294229Y-18126924D02*
X5303753Y-18088829D01*
X5303753Y-18088829D02*
X5313277Y-18069781D01*
X5313277Y-18069781D02*
X5322801Y-18060258D01*
X5322801Y-18060258D02*
X5341848Y-18050734D01*
X5475182Y-18050734D02*
X5598991Y-18050734D01*
X5598991Y-18050734D02*
X5532325Y-18126924D01*
X5532325Y-18126924D02*
X5560896Y-18126924D01*
X5560896Y-18126924D02*
X5579944Y-18136448D01*
X5579944Y-18136448D02*
X5589468Y-18145972D01*
X5589468Y-18145972D02*
X5598991Y-18165020D01*
X5598991Y-18165020D02*
X5598991Y-18212639D01*
X5598991Y-18212639D02*
X5589468Y-18231686D01*
X5589468Y-18231686D02*
X5579944Y-18241210D01*
X5579944Y-18241210D02*
X5560896Y-18250734D01*
X5560896Y-18250734D02*
X5503753Y-18250734D01*
X5503753Y-18250734D02*
X5484706Y-18241210D01*
X5484706Y-18241210D02*
X5475182Y-18231686D01*
X5789467Y-18250734D02*
X5675182Y-18250734D01*
X5732325Y-18250734D02*
X5732325Y-18050734D01*
X5732325Y-18050734D02*
X5713277Y-18079305D01*
X5713277Y-18079305D02*
X5694229Y-18098353D01*
X5694229Y-18098353D02*
X5675182Y-18107877D01*
X5970420Y-18050734D02*
X5875182Y-18050734D01*
X5875182Y-18050734D02*
X5865658Y-18145972D01*
X5865658Y-18145972D02*
X5875182Y-18136448D01*
X5875182Y-18136448D02*
X5894229Y-18126924D01*
X5894229Y-18126924D02*
X5941848Y-18126924D01*
X5941848Y-18126924D02*
X5960896Y-18136448D01*
X5960896Y-18136448D02*
X5970420Y-18145972D01*
X5970420Y-18145972D02*
X5979944Y-18165020D01*
X5979944Y-18165020D02*
X5979944Y-18212639D01*
X5979944Y-18212639D02*
X5970420Y-18231686D01*
X5970420Y-18231686D02*
X5960896Y-18241210D01*
X5960896Y-18241210D02*
X5941848Y-18250734D01*
X5941848Y-18250734D02*
X5894229Y-18250734D01*
X5894229Y-18250734D02*
X5875182Y-18241210D01*
X5875182Y-18241210D02*
X5865658Y-18231686D01*
X6056134Y-18050734D02*
X6056134Y-18088829D01*
X6132325Y-18050734D02*
X6132325Y-18088829D01*
X6427563Y-18326924D02*
X6418039Y-18317400D01*
X6418039Y-18317400D02*
X6398991Y-18288829D01*
X6398991Y-18288829D02*
X6389468Y-18269781D01*
X6389468Y-18269781D02*
X6379944Y-18241210D01*
X6379944Y-18241210D02*
X6370420Y-18193591D01*
X6370420Y-18193591D02*
X6370420Y-18155496D01*
X6370420Y-18155496D02*
X6379944Y-18107877D01*
X6379944Y-18107877D02*
X6389468Y-18079305D01*
X6389468Y-18079305D02*
X6398991Y-18060258D01*
X6398991Y-18060258D02*
X6418039Y-18031686D01*
X6418039Y-18031686D02*
X6427563Y-18022162D01*
X6484706Y-18050734D02*
X6618039Y-18050734D01*
X6618039Y-18050734D02*
X6532325Y-18250734D01*
X6732325Y-18050734D02*
X6751372Y-18050734D01*
X6751372Y-18050734D02*
X6770420Y-18060258D01*
X6770420Y-18060258D02*
X6779944Y-18069781D01*
X6779944Y-18069781D02*
X6789468Y-18088829D01*
X6789468Y-18088829D02*
X6798991Y-18126924D01*
X6798991Y-18126924D02*
X6798991Y-18174543D01*
X6798991Y-18174543D02*
X6789468Y-18212639D01*
X6789468Y-18212639D02*
X6779944Y-18231686D01*
X6779944Y-18231686D02*
X6770420Y-18241210D01*
X6770420Y-18241210D02*
X6751372Y-18250734D01*
X6751372Y-18250734D02*
X6732325Y-18250734D01*
X6732325Y-18250734D02*
X6713277Y-18241210D01*
X6713277Y-18241210D02*
X6703753Y-18231686D01*
X6703753Y-18231686D02*
X6694229Y-18212639D01*
X6694229Y-18212639D02*
X6684706Y-18174543D01*
X6684706Y-18174543D02*
X6684706Y-18126924D01*
X6684706Y-18126924D02*
X6694229Y-18088829D01*
X6694229Y-18088829D02*
X6703753Y-18069781D01*
X6703753Y-18069781D02*
X6713277Y-18060258D01*
X6713277Y-18060258D02*
X6732325Y-18050734D01*
X7037087Y-18250734D02*
X7037087Y-18050734D01*
X7122801Y-18250734D02*
X7122801Y-18145972D01*
X7122801Y-18145972D02*
X7113277Y-18126924D01*
X7113277Y-18126924D02*
X7094230Y-18117400D01*
X7094230Y-18117400D02*
X7065658Y-18117400D01*
X7065658Y-18117400D02*
X7046610Y-18126924D01*
X7046610Y-18126924D02*
X7037087Y-18136448D01*
X7246610Y-18250734D02*
X7227563Y-18241210D01*
X7227563Y-18241210D02*
X7218039Y-18231686D01*
X7218039Y-18231686D02*
X7208515Y-18212639D01*
X7208515Y-18212639D02*
X7208515Y-18155496D01*
X7208515Y-18155496D02*
X7218039Y-18136448D01*
X7218039Y-18136448D02*
X7227563Y-18126924D01*
X7227563Y-18126924D02*
X7246610Y-18117400D01*
X7246610Y-18117400D02*
X7275182Y-18117400D01*
X7275182Y-18117400D02*
X7294230Y-18126924D01*
X7294230Y-18126924D02*
X7303753Y-18136448D01*
X7303753Y-18136448D02*
X7313277Y-18155496D01*
X7313277Y-18155496D02*
X7313277Y-18212639D01*
X7313277Y-18212639D02*
X7303753Y-18231686D01*
X7303753Y-18231686D02*
X7294230Y-18241210D01*
X7294230Y-18241210D02*
X7275182Y-18250734D01*
X7275182Y-18250734D02*
X7246610Y-18250734D01*
X7427563Y-18250734D02*
X7408515Y-18241210D01*
X7408515Y-18241210D02*
X7398991Y-18222162D01*
X7398991Y-18222162D02*
X7398991Y-18050734D01*
X7579944Y-18241210D02*
X7560896Y-18250734D01*
X7560896Y-18250734D02*
X7522801Y-18250734D01*
X7522801Y-18250734D02*
X7503753Y-18241210D01*
X7503753Y-18241210D02*
X7494230Y-18222162D01*
X7494230Y-18222162D02*
X7494230Y-18145972D01*
X7494230Y-18145972D02*
X7503753Y-18126924D01*
X7503753Y-18126924D02*
X7522801Y-18117400D01*
X7522801Y-18117400D02*
X7560896Y-18117400D01*
X7560896Y-18117400D02*
X7579944Y-18126924D01*
X7579944Y-18126924D02*
X7589468Y-18145972D01*
X7589468Y-18145972D02*
X7589468Y-18165020D01*
X7589468Y-18165020D02*
X7494230Y-18184067D01*
X7665658Y-18241210D02*
X7684706Y-18250734D01*
X7684706Y-18250734D02*
X7722801Y-18250734D01*
X7722801Y-18250734D02*
X7741849Y-18241210D01*
X7741849Y-18241210D02*
X7751372Y-18222162D01*
X7751372Y-18222162D02*
X7751372Y-18212639D01*
X7751372Y-18212639D02*
X7741849Y-18193591D01*
X7741849Y-18193591D02*
X7722801Y-18184067D01*
X7722801Y-18184067D02*
X7694230Y-18184067D01*
X7694230Y-18184067D02*
X7675182Y-18174543D01*
X7675182Y-18174543D02*
X7665658Y-18155496D01*
X7665658Y-18155496D02*
X7665658Y-18145972D01*
X7665658Y-18145972D02*
X7675182Y-18126924D01*
X7675182Y-18126924D02*
X7694230Y-18117400D01*
X7694230Y-18117400D02*
X7722801Y-18117400D01*
X7722801Y-18117400D02*
X7741849Y-18126924D01*
X7818039Y-18326924D02*
X7827563Y-18317400D01*
X7827563Y-18317400D02*
X7846611Y-18288829D01*
X7846611Y-18288829D02*
X7856134Y-18269781D01*
X7856134Y-18269781D02*
X7865658Y-18241210D01*
X7865658Y-18241210D02*
X7875182Y-18193591D01*
X7875182Y-18193591D02*
X7875182Y-18155496D01*
X7875182Y-18155496D02*
X7865658Y-18107877D01*
X7865658Y-18107877D02*
X7856134Y-18079305D01*
X7856134Y-18079305D02*
X7846611Y-18060258D01*
X7846611Y-18060258D02*
X7827563Y-18031686D01*
X7827563Y-18031686D02*
X7818039Y-18022162D01*
D14*
X2839320Y-18455070D02*
X2839320Y-18391430D01*
X2775680Y-18391430D01*
X2775680Y-18455070D01*
X2839320Y-18455070D01*
D11*
X3151372Y-18314734D02*
X3170420Y-18314734D01*
X3170420Y-18314734D02*
X3189467Y-18324258D01*
X3189467Y-18324258D02*
X3198991Y-18333781D01*
X3198991Y-18333781D02*
X3208515Y-18352829D01*
X3208515Y-18352829D02*
X3218039Y-18390924D01*
X3218039Y-18390924D02*
X3218039Y-18438543D01*
X3218039Y-18438543D02*
X3208515Y-18476639D01*
X3208515Y-18476639D02*
X3198991Y-18495686D01*
X3198991Y-18495686D02*
X3189467Y-18505210D01*
X3189467Y-18505210D02*
X3170420Y-18514734D01*
X3170420Y-18514734D02*
X3151372Y-18514734D01*
X3151372Y-18514734D02*
X3132324Y-18505210D01*
X3132324Y-18505210D02*
X3122801Y-18495686D01*
X3122801Y-18495686D02*
X3113277Y-18476639D01*
X3113277Y-18476639D02*
X3103753Y-18438543D01*
X3103753Y-18438543D02*
X3103753Y-18390924D01*
X3103753Y-18390924D02*
X3113277Y-18352829D01*
X3113277Y-18352829D02*
X3122801Y-18333781D01*
X3122801Y-18333781D02*
X3132324Y-18324258D01*
X3132324Y-18324258D02*
X3151372Y-18314734D01*
X3303753Y-18495686D02*
X3313277Y-18505210D01*
X3313277Y-18505210D02*
X3303753Y-18514734D01*
X3303753Y-18514734D02*
X3294229Y-18505210D01*
X3294229Y-18505210D02*
X3303753Y-18495686D01*
X3303753Y-18495686D02*
X3303753Y-18514734D01*
X3408515Y-18514734D02*
X3446610Y-18514734D01*
X3446610Y-18514734D02*
X3465658Y-18505210D01*
X3465658Y-18505210D02*
X3475182Y-18495686D01*
X3475182Y-18495686D02*
X3494229Y-18467115D01*
X3494229Y-18467115D02*
X3503753Y-18429020D01*
X3503753Y-18429020D02*
X3503753Y-18352829D01*
X3503753Y-18352829D02*
X3494229Y-18333781D01*
X3494229Y-18333781D02*
X3484705Y-18324258D01*
X3484705Y-18324258D02*
X3465658Y-18314734D01*
X3465658Y-18314734D02*
X3427562Y-18314734D01*
X3427562Y-18314734D02*
X3408515Y-18324258D01*
X3408515Y-18324258D02*
X3398991Y-18333781D01*
X3398991Y-18333781D02*
X3389467Y-18352829D01*
X3389467Y-18352829D02*
X3389467Y-18400448D01*
X3389467Y-18400448D02*
X3398991Y-18419496D01*
X3398991Y-18419496D02*
X3408515Y-18429020D01*
X3408515Y-18429020D02*
X3427562Y-18438543D01*
X3427562Y-18438543D02*
X3465658Y-18438543D01*
X3465658Y-18438543D02*
X3484705Y-18429020D01*
X3484705Y-18429020D02*
X3494229Y-18419496D01*
X3494229Y-18419496D02*
X3503753Y-18400448D01*
X3627562Y-18314734D02*
X3646610Y-18314734D01*
X3646610Y-18314734D02*
X3665658Y-18324258D01*
X3665658Y-18324258D02*
X3675182Y-18333781D01*
X3675182Y-18333781D02*
X3684705Y-18352829D01*
X3684705Y-18352829D02*
X3694229Y-18390924D01*
X3694229Y-18390924D02*
X3694229Y-18438543D01*
X3694229Y-18438543D02*
X3684705Y-18476639D01*
X3684705Y-18476639D02*
X3675182Y-18495686D01*
X3675182Y-18495686D02*
X3665658Y-18505210D01*
X3665658Y-18505210D02*
X3646610Y-18514734D01*
X3646610Y-18514734D02*
X3627562Y-18514734D01*
X3627562Y-18514734D02*
X3608515Y-18505210D01*
X3608515Y-18505210D02*
X3598991Y-18495686D01*
X3598991Y-18495686D02*
X3589467Y-18476639D01*
X3589467Y-18476639D02*
X3579943Y-18438543D01*
X3579943Y-18438543D02*
X3579943Y-18390924D01*
X3579943Y-18390924D02*
X3589467Y-18352829D01*
X3589467Y-18352829D02*
X3598991Y-18333781D01*
X3598991Y-18333781D02*
X3608515Y-18324258D01*
X3608515Y-18324258D02*
X3627562Y-18314734D01*
X3818039Y-18314734D02*
X3837086Y-18314734D01*
X3837086Y-18314734D02*
X3856134Y-18324258D01*
X3856134Y-18324258D02*
X3865658Y-18333781D01*
X3865658Y-18333781D02*
X3875182Y-18352829D01*
X3875182Y-18352829D02*
X3884705Y-18390924D01*
X3884705Y-18390924D02*
X3884705Y-18438543D01*
X3884705Y-18438543D02*
X3875182Y-18476639D01*
X3875182Y-18476639D02*
X3865658Y-18495686D01*
X3865658Y-18495686D02*
X3856134Y-18505210D01*
X3856134Y-18505210D02*
X3837086Y-18514734D01*
X3837086Y-18514734D02*
X3818039Y-18514734D01*
X3818039Y-18514734D02*
X3798991Y-18505210D01*
X3798991Y-18505210D02*
X3789467Y-18495686D01*
X3789467Y-18495686D02*
X3779943Y-18476639D01*
X3779943Y-18476639D02*
X3770420Y-18438543D01*
X3770420Y-18438543D02*
X3770420Y-18390924D01*
X3770420Y-18390924D02*
X3779943Y-18352829D01*
X3779943Y-18352829D02*
X3789467Y-18333781D01*
X3789467Y-18333781D02*
X3798991Y-18324258D01*
X3798991Y-18324258D02*
X3818039Y-18314734D01*
X3970420Y-18514734D02*
X3970420Y-18381400D01*
X3970420Y-18400448D02*
X3979943Y-18390924D01*
X3979943Y-18390924D02*
X3998991Y-18381400D01*
X3998991Y-18381400D02*
X4027563Y-18381400D01*
X4027563Y-18381400D02*
X4046610Y-18390924D01*
X4046610Y-18390924D02*
X4056134Y-18409972D01*
X4056134Y-18409972D02*
X4056134Y-18514734D01*
X4056134Y-18409972D02*
X4065658Y-18390924D01*
X4065658Y-18390924D02*
X4084705Y-18381400D01*
X4084705Y-18381400D02*
X4113277Y-18381400D01*
X4113277Y-18381400D02*
X4132324Y-18390924D01*
X4132324Y-18390924D02*
X4141848Y-18409972D01*
X4141848Y-18409972D02*
X4141848Y-18514734D01*
X4237086Y-18514734D02*
X4237086Y-18381400D01*
X4237086Y-18400448D02*
X4246610Y-18390924D01*
X4246610Y-18390924D02*
X4265658Y-18381400D01*
X4265658Y-18381400D02*
X4294229Y-18381400D01*
X4294229Y-18381400D02*
X4313277Y-18390924D01*
X4313277Y-18390924D02*
X4322801Y-18409972D01*
X4322801Y-18409972D02*
X4322801Y-18514734D01*
X4322801Y-18409972D02*
X4332325Y-18390924D01*
X4332325Y-18390924D02*
X4351372Y-18381400D01*
X4351372Y-18381400D02*
X4379944Y-18381400D01*
X4379944Y-18381400D02*
X4398991Y-18390924D01*
X4398991Y-18390924D02*
X4408515Y-18409972D01*
X4408515Y-18409972D02*
X4408515Y-18514734D01*
X4798991Y-18305210D02*
X4627563Y-18562353D01*
X5056134Y-18314734D02*
X5075182Y-18314734D01*
X5075182Y-18314734D02*
X5094229Y-18324258D01*
X5094229Y-18324258D02*
X5103753Y-18333781D01*
X5103753Y-18333781D02*
X5113277Y-18352829D01*
X5113277Y-18352829D02*
X5122801Y-18390924D01*
X5122801Y-18390924D02*
X5122801Y-18438543D01*
X5122801Y-18438543D02*
X5113277Y-18476639D01*
X5113277Y-18476639D02*
X5103753Y-18495686D01*
X5103753Y-18495686D02*
X5094229Y-18505210D01*
X5094229Y-18505210D02*
X5075182Y-18514734D01*
X5075182Y-18514734D02*
X5056134Y-18514734D01*
X5056134Y-18514734D02*
X5037087Y-18505210D01*
X5037087Y-18505210D02*
X5027563Y-18495686D01*
X5027563Y-18495686D02*
X5018039Y-18476639D01*
X5018039Y-18476639D02*
X5008515Y-18438543D01*
X5008515Y-18438543D02*
X5008515Y-18390924D01*
X5008515Y-18390924D02*
X5018039Y-18352829D01*
X5018039Y-18352829D02*
X5027563Y-18333781D01*
X5027563Y-18333781D02*
X5037087Y-18324258D01*
X5037087Y-18324258D02*
X5056134Y-18314734D01*
X5208515Y-18495686D02*
X5218039Y-18505210D01*
X5218039Y-18505210D02*
X5208515Y-18514734D01*
X5208515Y-18514734D02*
X5198991Y-18505210D01*
X5198991Y-18505210D02*
X5208515Y-18495686D01*
X5208515Y-18495686D02*
X5208515Y-18514734D01*
X5341848Y-18314734D02*
X5360896Y-18314734D01*
X5360896Y-18314734D02*
X5379944Y-18324258D01*
X5379944Y-18324258D02*
X5389468Y-18333781D01*
X5389468Y-18333781D02*
X5398991Y-18352829D01*
X5398991Y-18352829D02*
X5408515Y-18390924D01*
X5408515Y-18390924D02*
X5408515Y-18438543D01*
X5408515Y-18438543D02*
X5398991Y-18476639D01*
X5398991Y-18476639D02*
X5389468Y-18495686D01*
X5389468Y-18495686D02*
X5379944Y-18505210D01*
X5379944Y-18505210D02*
X5360896Y-18514734D01*
X5360896Y-18514734D02*
X5341848Y-18514734D01*
X5341848Y-18514734D02*
X5322801Y-18505210D01*
X5322801Y-18505210D02*
X5313277Y-18495686D01*
X5313277Y-18495686D02*
X5303753Y-18476639D01*
X5303753Y-18476639D02*
X5294229Y-18438543D01*
X5294229Y-18438543D02*
X5294229Y-18390924D01*
X5294229Y-18390924D02*
X5303753Y-18352829D01*
X5303753Y-18352829D02*
X5313277Y-18333781D01*
X5313277Y-18333781D02*
X5322801Y-18324258D01*
X5322801Y-18324258D02*
X5341848Y-18314734D01*
X5475182Y-18314734D02*
X5598991Y-18314734D01*
X5598991Y-18314734D02*
X5532325Y-18390924D01*
X5532325Y-18390924D02*
X5560896Y-18390924D01*
X5560896Y-18390924D02*
X5579944Y-18400448D01*
X5579944Y-18400448D02*
X5589468Y-18409972D01*
X5589468Y-18409972D02*
X5598991Y-18429020D01*
X5598991Y-18429020D02*
X5598991Y-18476639D01*
X5598991Y-18476639D02*
X5589468Y-18495686D01*
X5589468Y-18495686D02*
X5579944Y-18505210D01*
X5579944Y-18505210D02*
X5560896Y-18514734D01*
X5560896Y-18514734D02*
X5503753Y-18514734D01*
X5503753Y-18514734D02*
X5484706Y-18505210D01*
X5484706Y-18505210D02*
X5475182Y-18495686D01*
X5779944Y-18314734D02*
X5684706Y-18314734D01*
X5684706Y-18314734D02*
X5675182Y-18409972D01*
X5675182Y-18409972D02*
X5684706Y-18400448D01*
X5684706Y-18400448D02*
X5703753Y-18390924D01*
X5703753Y-18390924D02*
X5751372Y-18390924D01*
X5751372Y-18390924D02*
X5770420Y-18400448D01*
X5770420Y-18400448D02*
X5779944Y-18409972D01*
X5779944Y-18409972D02*
X5789467Y-18429020D01*
X5789467Y-18429020D02*
X5789467Y-18476639D01*
X5789467Y-18476639D02*
X5779944Y-18495686D01*
X5779944Y-18495686D02*
X5770420Y-18505210D01*
X5770420Y-18505210D02*
X5751372Y-18514734D01*
X5751372Y-18514734D02*
X5703753Y-18514734D01*
X5703753Y-18514734D02*
X5684706Y-18505210D01*
X5684706Y-18505210D02*
X5675182Y-18495686D01*
X5960896Y-18381400D02*
X5960896Y-18514734D01*
X5913277Y-18305210D02*
X5865658Y-18448067D01*
X5865658Y-18448067D02*
X5989467Y-18448067D01*
X6056134Y-18314734D02*
X6056134Y-18352829D01*
X6132325Y-18314734D02*
X6132325Y-18352829D01*
X6427563Y-18590924D02*
X6418039Y-18581400D01*
X6418039Y-18581400D02*
X6398991Y-18552829D01*
X6398991Y-18552829D02*
X6389468Y-18533781D01*
X6389468Y-18533781D02*
X6379944Y-18505210D01*
X6379944Y-18505210D02*
X6370420Y-18457591D01*
X6370420Y-18457591D02*
X6370420Y-18419496D01*
X6370420Y-18419496D02*
X6379944Y-18371877D01*
X6379944Y-18371877D02*
X6389468Y-18343305D01*
X6389468Y-18343305D02*
X6398991Y-18324258D01*
X6398991Y-18324258D02*
X6418039Y-18295686D01*
X6418039Y-18295686D02*
X6427563Y-18286162D01*
X6541848Y-18314734D02*
X6560896Y-18314734D01*
X6560896Y-18314734D02*
X6579944Y-18324258D01*
X6579944Y-18324258D02*
X6589468Y-18333781D01*
X6589468Y-18333781D02*
X6598991Y-18352829D01*
X6598991Y-18352829D02*
X6608515Y-18390924D01*
X6608515Y-18390924D02*
X6608515Y-18438543D01*
X6608515Y-18438543D02*
X6598991Y-18476639D01*
X6598991Y-18476639D02*
X6589468Y-18495686D01*
X6589468Y-18495686D02*
X6579944Y-18505210D01*
X6579944Y-18505210D02*
X6560896Y-18514734D01*
X6560896Y-18514734D02*
X6541848Y-18514734D01*
X6541848Y-18514734D02*
X6522801Y-18505210D01*
X6522801Y-18505210D02*
X6513277Y-18495686D01*
X6513277Y-18495686D02*
X6503753Y-18476639D01*
X6503753Y-18476639D02*
X6494229Y-18438543D01*
X6494229Y-18438543D02*
X6494229Y-18390924D01*
X6494229Y-18390924D02*
X6503753Y-18352829D01*
X6503753Y-18352829D02*
X6513277Y-18333781D01*
X6513277Y-18333781D02*
X6522801Y-18324258D01*
X6522801Y-18324258D02*
X6541848Y-18314734D01*
X6846610Y-18514734D02*
X6846610Y-18314734D01*
X6932325Y-18514734D02*
X6932325Y-18409972D01*
X6932325Y-18409972D02*
X6922801Y-18390924D01*
X6922801Y-18390924D02*
X6903753Y-18381400D01*
X6903753Y-18381400D02*
X6875182Y-18381400D01*
X6875182Y-18381400D02*
X6856134Y-18390924D01*
X6856134Y-18390924D02*
X6846610Y-18400448D01*
X7056134Y-18514734D02*
X7037087Y-18505210D01*
X7037087Y-18505210D02*
X7027563Y-18495686D01*
X7027563Y-18495686D02*
X7018039Y-18476639D01*
X7018039Y-18476639D02*
X7018039Y-18419496D01*
X7018039Y-18419496D02*
X7027563Y-18400448D01*
X7027563Y-18400448D02*
X7037087Y-18390924D01*
X7037087Y-18390924D02*
X7056134Y-18381400D01*
X7056134Y-18381400D02*
X7084706Y-18381400D01*
X7084706Y-18381400D02*
X7103753Y-18390924D01*
X7103753Y-18390924D02*
X7113277Y-18400448D01*
X7113277Y-18400448D02*
X7122801Y-18419496D01*
X7122801Y-18419496D02*
X7122801Y-18476639D01*
X7122801Y-18476639D02*
X7113277Y-18495686D01*
X7113277Y-18495686D02*
X7103753Y-18505210D01*
X7103753Y-18505210D02*
X7084706Y-18514734D01*
X7084706Y-18514734D02*
X7056134Y-18514734D01*
X7237087Y-18514734D02*
X7218039Y-18505210D01*
X7218039Y-18505210D02*
X7208515Y-18486162D01*
X7208515Y-18486162D02*
X7208515Y-18314734D01*
X7389468Y-18505210D02*
X7370420Y-18514734D01*
X7370420Y-18514734D02*
X7332325Y-18514734D01*
X7332325Y-18514734D02*
X7313277Y-18505210D01*
X7313277Y-18505210D02*
X7303753Y-18486162D01*
X7303753Y-18486162D02*
X7303753Y-18409972D01*
X7303753Y-18409972D02*
X7313277Y-18390924D01*
X7313277Y-18390924D02*
X7332325Y-18381400D01*
X7332325Y-18381400D02*
X7370420Y-18381400D01*
X7370420Y-18381400D02*
X7389468Y-18390924D01*
X7389468Y-18390924D02*
X7398991Y-18409972D01*
X7398991Y-18409972D02*
X7398991Y-18429020D01*
X7398991Y-18429020D02*
X7303753Y-18448067D01*
X7475182Y-18505210D02*
X7494230Y-18514734D01*
X7494230Y-18514734D02*
X7532325Y-18514734D01*
X7532325Y-18514734D02*
X7551372Y-18505210D01*
X7551372Y-18505210D02*
X7560896Y-18486162D01*
X7560896Y-18486162D02*
X7560896Y-18476639D01*
X7560896Y-18476639D02*
X7551372Y-18457591D01*
X7551372Y-18457591D02*
X7532325Y-18448067D01*
X7532325Y-18448067D02*
X7503753Y-18448067D01*
X7503753Y-18448067D02*
X7484706Y-18438543D01*
X7484706Y-18438543D02*
X7475182Y-18419496D01*
X7475182Y-18419496D02*
X7475182Y-18409972D01*
X7475182Y-18409972D02*
X7484706Y-18390924D01*
X7484706Y-18390924D02*
X7503753Y-18381400D01*
X7503753Y-18381400D02*
X7532325Y-18381400D01*
X7532325Y-18381400D02*
X7551372Y-18390924D01*
X7798992Y-18438543D02*
X7951373Y-18438543D01*
X7875182Y-18514734D02*
X7875182Y-18362353D01*
X8284706Y-18381400D02*
X8284706Y-18514734D01*
X8237087Y-18305210D02*
X8189468Y-18448067D01*
X8189468Y-18448067D02*
X8313277Y-18448067D01*
X8532325Y-18505210D02*
X8551373Y-18514734D01*
X8551373Y-18514734D02*
X8589468Y-18514734D01*
X8589468Y-18514734D02*
X8608516Y-18505210D01*
X8608516Y-18505210D02*
X8618039Y-18486162D01*
X8618039Y-18486162D02*
X8618039Y-18476639D01*
X8618039Y-18476639D02*
X8608516Y-18457591D01*
X8608516Y-18457591D02*
X8589468Y-18448067D01*
X8589468Y-18448067D02*
X8560896Y-18448067D01*
X8560896Y-18448067D02*
X8541849Y-18438543D01*
X8541849Y-18438543D02*
X8532325Y-18419496D01*
X8532325Y-18419496D02*
X8532325Y-18409972D01*
X8532325Y-18409972D02*
X8541849Y-18390924D01*
X8541849Y-18390924D02*
X8560896Y-18381400D01*
X8560896Y-18381400D02*
X8589468Y-18381400D01*
X8589468Y-18381400D02*
X8608516Y-18390924D01*
X8732325Y-18514734D02*
X8713277Y-18505210D01*
X8713277Y-18505210D02*
X8703754Y-18486162D01*
X8703754Y-18486162D02*
X8703754Y-18314734D01*
X8837087Y-18514734D02*
X8818039Y-18505210D01*
X8818039Y-18505210D02*
X8808516Y-18495686D01*
X8808516Y-18495686D02*
X8798992Y-18476639D01*
X8798992Y-18476639D02*
X8798992Y-18419496D01*
X8798992Y-18419496D02*
X8808516Y-18400448D01*
X8808516Y-18400448D02*
X8818039Y-18390924D01*
X8818039Y-18390924D02*
X8837087Y-18381400D01*
X8837087Y-18381400D02*
X8865658Y-18381400D01*
X8865658Y-18381400D02*
X8884706Y-18390924D01*
X8884706Y-18390924D02*
X8894230Y-18400448D01*
X8894230Y-18400448D02*
X8903754Y-18419496D01*
X8903754Y-18419496D02*
X8903754Y-18476639D01*
X8903754Y-18476639D02*
X8894230Y-18495686D01*
X8894230Y-18495686D02*
X8884706Y-18505210D01*
X8884706Y-18505210D02*
X8865658Y-18514734D01*
X8865658Y-18514734D02*
X8837087Y-18514734D01*
X8960897Y-18381400D02*
X9037087Y-18381400D01*
X8989468Y-18314734D02*
X8989468Y-18486162D01*
X8989468Y-18486162D02*
X8998992Y-18505210D01*
X8998992Y-18505210D02*
X9018039Y-18514734D01*
X9018039Y-18514734D02*
X9037087Y-18514734D01*
X9094230Y-18505210D02*
X9113277Y-18514734D01*
X9113277Y-18514734D02*
X9151373Y-18514734D01*
X9151373Y-18514734D02*
X9170420Y-18505210D01*
X9170420Y-18505210D02*
X9179944Y-18486162D01*
X9179944Y-18486162D02*
X9179944Y-18476639D01*
X9179944Y-18476639D02*
X9170420Y-18457591D01*
X9170420Y-18457591D02*
X9151373Y-18448067D01*
X9151373Y-18448067D02*
X9122801Y-18448067D01*
X9122801Y-18448067D02*
X9103754Y-18438543D01*
X9103754Y-18438543D02*
X9094230Y-18419496D01*
X9094230Y-18419496D02*
X9094230Y-18409972D01*
X9094230Y-18409972D02*
X9103754Y-18390924D01*
X9103754Y-18390924D02*
X9122801Y-18381400D01*
X9122801Y-18381400D02*
X9151373Y-18381400D01*
X9151373Y-18381400D02*
X9170420Y-18390924D01*
X9246611Y-18590924D02*
X9256135Y-18581400D01*
X9256135Y-18581400D02*
X9275182Y-18552829D01*
X9275182Y-18552829D02*
X9284706Y-18533781D01*
X9284706Y-18533781D02*
X9294230Y-18505210D01*
X9294230Y-18505210D02*
X9303754Y-18457591D01*
X9303754Y-18457591D02*
X9303754Y-18419496D01*
X9303754Y-18419496D02*
X9294230Y-18371877D01*
X9294230Y-18371877D02*
X9284706Y-18343305D01*
X9284706Y-18343305D02*
X9275182Y-18324258D01*
X9275182Y-18324258D02*
X9256135Y-18295686D01*
X9256135Y-18295686D02*
X9246611Y-18286162D01*
D10*
X2802500Y-18737250D02*
X2852500Y-18687250D01*
X2802500Y-18637250D01*
X2752500Y-18687250D01*
X2802500Y-18737250D01*
D11*
X3218039Y-18778734D02*
X3103753Y-18778734D01*
X3160896Y-18778734D02*
X3160896Y-18578734D01*
X3160896Y-18578734D02*
X3141848Y-18607305D01*
X3141848Y-18607305D02*
X3122801Y-18626353D01*
X3122801Y-18626353D02*
X3103753Y-18635877D01*
X3303753Y-18759686D02*
X3313277Y-18769210D01*
X3313277Y-18769210D02*
X3303753Y-18778734D01*
X3303753Y-18778734D02*
X3294229Y-18769210D01*
X3294229Y-18769210D02*
X3303753Y-18759686D01*
X3303753Y-18759686D02*
X3303753Y-18778734D01*
X3437086Y-18578734D02*
X3456134Y-18578734D01*
X3456134Y-18578734D02*
X3475182Y-18588258D01*
X3475182Y-18588258D02*
X3484705Y-18597781D01*
X3484705Y-18597781D02*
X3494229Y-18616829D01*
X3494229Y-18616829D02*
X3503753Y-18654924D01*
X3503753Y-18654924D02*
X3503753Y-18702543D01*
X3503753Y-18702543D02*
X3494229Y-18740639D01*
X3494229Y-18740639D02*
X3484705Y-18759686D01*
X3484705Y-18759686D02*
X3475182Y-18769210D01*
X3475182Y-18769210D02*
X3456134Y-18778734D01*
X3456134Y-18778734D02*
X3437086Y-18778734D01*
X3437086Y-18778734D02*
X3418039Y-18769210D01*
X3418039Y-18769210D02*
X3408515Y-18759686D01*
X3408515Y-18759686D02*
X3398991Y-18740639D01*
X3398991Y-18740639D02*
X3389467Y-18702543D01*
X3389467Y-18702543D02*
X3389467Y-18654924D01*
X3389467Y-18654924D02*
X3398991Y-18616829D01*
X3398991Y-18616829D02*
X3408515Y-18597781D01*
X3408515Y-18597781D02*
X3418039Y-18588258D01*
X3418039Y-18588258D02*
X3437086Y-18578734D01*
X3627562Y-18578734D02*
X3646610Y-18578734D01*
X3646610Y-18578734D02*
X3665658Y-18588258D01*
X3665658Y-18588258D02*
X3675182Y-18597781D01*
X3675182Y-18597781D02*
X3684705Y-18616829D01*
X3684705Y-18616829D02*
X3694229Y-18654924D01*
X3694229Y-18654924D02*
X3694229Y-18702543D01*
X3694229Y-18702543D02*
X3684705Y-18740639D01*
X3684705Y-18740639D02*
X3675182Y-18759686D01*
X3675182Y-18759686D02*
X3665658Y-18769210D01*
X3665658Y-18769210D02*
X3646610Y-18778734D01*
X3646610Y-18778734D02*
X3627562Y-18778734D01*
X3627562Y-18778734D02*
X3608515Y-18769210D01*
X3608515Y-18769210D02*
X3598991Y-18759686D01*
X3598991Y-18759686D02*
X3589467Y-18740639D01*
X3589467Y-18740639D02*
X3579943Y-18702543D01*
X3579943Y-18702543D02*
X3579943Y-18654924D01*
X3579943Y-18654924D02*
X3589467Y-18616829D01*
X3589467Y-18616829D02*
X3598991Y-18597781D01*
X3598991Y-18597781D02*
X3608515Y-18588258D01*
X3608515Y-18588258D02*
X3627562Y-18578734D01*
X3818039Y-18578734D02*
X3837086Y-18578734D01*
X3837086Y-18578734D02*
X3856134Y-18588258D01*
X3856134Y-18588258D02*
X3865658Y-18597781D01*
X3865658Y-18597781D02*
X3875182Y-18616829D01*
X3875182Y-18616829D02*
X3884705Y-18654924D01*
X3884705Y-18654924D02*
X3884705Y-18702543D01*
X3884705Y-18702543D02*
X3875182Y-18740639D01*
X3875182Y-18740639D02*
X3865658Y-18759686D01*
X3865658Y-18759686D02*
X3856134Y-18769210D01*
X3856134Y-18769210D02*
X3837086Y-18778734D01*
X3837086Y-18778734D02*
X3818039Y-18778734D01*
X3818039Y-18778734D02*
X3798991Y-18769210D01*
X3798991Y-18769210D02*
X3789467Y-18759686D01*
X3789467Y-18759686D02*
X3779943Y-18740639D01*
X3779943Y-18740639D02*
X3770420Y-18702543D01*
X3770420Y-18702543D02*
X3770420Y-18654924D01*
X3770420Y-18654924D02*
X3779943Y-18616829D01*
X3779943Y-18616829D02*
X3789467Y-18597781D01*
X3789467Y-18597781D02*
X3798991Y-18588258D01*
X3798991Y-18588258D02*
X3818039Y-18578734D01*
X3970420Y-18778734D02*
X3970420Y-18645400D01*
X3970420Y-18664448D02*
X3979943Y-18654924D01*
X3979943Y-18654924D02*
X3998991Y-18645400D01*
X3998991Y-18645400D02*
X4027563Y-18645400D01*
X4027563Y-18645400D02*
X4046610Y-18654924D01*
X4046610Y-18654924D02*
X4056134Y-18673972D01*
X4056134Y-18673972D02*
X4056134Y-18778734D01*
X4056134Y-18673972D02*
X4065658Y-18654924D01*
X4065658Y-18654924D02*
X4084705Y-18645400D01*
X4084705Y-18645400D02*
X4113277Y-18645400D01*
X4113277Y-18645400D02*
X4132324Y-18654924D01*
X4132324Y-18654924D02*
X4141848Y-18673972D01*
X4141848Y-18673972D02*
X4141848Y-18778734D01*
X4237086Y-18778734D02*
X4237086Y-18645400D01*
X4237086Y-18664448D02*
X4246610Y-18654924D01*
X4246610Y-18654924D02*
X4265658Y-18645400D01*
X4265658Y-18645400D02*
X4294229Y-18645400D01*
X4294229Y-18645400D02*
X4313277Y-18654924D01*
X4313277Y-18654924D02*
X4322801Y-18673972D01*
X4322801Y-18673972D02*
X4322801Y-18778734D01*
X4322801Y-18673972D02*
X4332325Y-18654924D01*
X4332325Y-18654924D02*
X4351372Y-18645400D01*
X4351372Y-18645400D02*
X4379944Y-18645400D01*
X4379944Y-18645400D02*
X4398991Y-18654924D01*
X4398991Y-18654924D02*
X4408515Y-18673972D01*
X4408515Y-18673972D02*
X4408515Y-18778734D01*
X4798991Y-18569210D02*
X4627563Y-18826353D01*
X5056134Y-18578734D02*
X5075182Y-18578734D01*
X5075182Y-18578734D02*
X5094229Y-18588258D01*
X5094229Y-18588258D02*
X5103753Y-18597781D01*
X5103753Y-18597781D02*
X5113277Y-18616829D01*
X5113277Y-18616829D02*
X5122801Y-18654924D01*
X5122801Y-18654924D02*
X5122801Y-18702543D01*
X5122801Y-18702543D02*
X5113277Y-18740639D01*
X5113277Y-18740639D02*
X5103753Y-18759686D01*
X5103753Y-18759686D02*
X5094229Y-18769210D01*
X5094229Y-18769210D02*
X5075182Y-18778734D01*
X5075182Y-18778734D02*
X5056134Y-18778734D01*
X5056134Y-18778734D02*
X5037087Y-18769210D01*
X5037087Y-18769210D02*
X5027563Y-18759686D01*
X5027563Y-18759686D02*
X5018039Y-18740639D01*
X5018039Y-18740639D02*
X5008515Y-18702543D01*
X5008515Y-18702543D02*
X5008515Y-18654924D01*
X5008515Y-18654924D02*
X5018039Y-18616829D01*
X5018039Y-18616829D02*
X5027563Y-18597781D01*
X5027563Y-18597781D02*
X5037087Y-18588258D01*
X5037087Y-18588258D02*
X5056134Y-18578734D01*
X5208515Y-18759686D02*
X5218039Y-18769210D01*
X5218039Y-18769210D02*
X5208515Y-18778734D01*
X5208515Y-18778734D02*
X5198991Y-18769210D01*
X5198991Y-18769210D02*
X5208515Y-18759686D01*
X5208515Y-18759686D02*
X5208515Y-18778734D01*
X5341848Y-18578734D02*
X5360896Y-18578734D01*
X5360896Y-18578734D02*
X5379944Y-18588258D01*
X5379944Y-18588258D02*
X5389468Y-18597781D01*
X5389468Y-18597781D02*
X5398991Y-18616829D01*
X5398991Y-18616829D02*
X5408515Y-18654924D01*
X5408515Y-18654924D02*
X5408515Y-18702543D01*
X5408515Y-18702543D02*
X5398991Y-18740639D01*
X5398991Y-18740639D02*
X5389468Y-18759686D01*
X5389468Y-18759686D02*
X5379944Y-18769210D01*
X5379944Y-18769210D02*
X5360896Y-18778734D01*
X5360896Y-18778734D02*
X5341848Y-18778734D01*
X5341848Y-18778734D02*
X5322801Y-18769210D01*
X5322801Y-18769210D02*
X5313277Y-18759686D01*
X5313277Y-18759686D02*
X5303753Y-18740639D01*
X5303753Y-18740639D02*
X5294229Y-18702543D01*
X5294229Y-18702543D02*
X5294229Y-18654924D01*
X5294229Y-18654924D02*
X5303753Y-18616829D01*
X5303753Y-18616829D02*
X5313277Y-18597781D01*
X5313277Y-18597781D02*
X5322801Y-18588258D01*
X5322801Y-18588258D02*
X5341848Y-18578734D01*
X5475182Y-18578734D02*
X5598991Y-18578734D01*
X5598991Y-18578734D02*
X5532325Y-18654924D01*
X5532325Y-18654924D02*
X5560896Y-18654924D01*
X5560896Y-18654924D02*
X5579944Y-18664448D01*
X5579944Y-18664448D02*
X5589468Y-18673972D01*
X5589468Y-18673972D02*
X5598991Y-18693020D01*
X5598991Y-18693020D02*
X5598991Y-18740639D01*
X5598991Y-18740639D02*
X5589468Y-18759686D01*
X5589468Y-18759686D02*
X5579944Y-18769210D01*
X5579944Y-18769210D02*
X5560896Y-18778734D01*
X5560896Y-18778734D02*
X5503753Y-18778734D01*
X5503753Y-18778734D02*
X5484706Y-18769210D01*
X5484706Y-18769210D02*
X5475182Y-18759686D01*
X5694229Y-18778734D02*
X5732325Y-18778734D01*
X5732325Y-18778734D02*
X5751372Y-18769210D01*
X5751372Y-18769210D02*
X5760896Y-18759686D01*
X5760896Y-18759686D02*
X5779944Y-18731115D01*
X5779944Y-18731115D02*
X5789467Y-18693020D01*
X5789467Y-18693020D02*
X5789467Y-18616829D01*
X5789467Y-18616829D02*
X5779944Y-18597781D01*
X5779944Y-18597781D02*
X5770420Y-18588258D01*
X5770420Y-18588258D02*
X5751372Y-18578734D01*
X5751372Y-18578734D02*
X5713277Y-18578734D01*
X5713277Y-18578734D02*
X5694229Y-18588258D01*
X5694229Y-18588258D02*
X5684706Y-18597781D01*
X5684706Y-18597781D02*
X5675182Y-18616829D01*
X5675182Y-18616829D02*
X5675182Y-18664448D01*
X5675182Y-18664448D02*
X5684706Y-18683496D01*
X5684706Y-18683496D02*
X5694229Y-18693020D01*
X5694229Y-18693020D02*
X5713277Y-18702543D01*
X5713277Y-18702543D02*
X5751372Y-18702543D01*
X5751372Y-18702543D02*
X5770420Y-18693020D01*
X5770420Y-18693020D02*
X5779944Y-18683496D01*
X5779944Y-18683496D02*
X5789467Y-18664448D01*
X5960896Y-18645400D02*
X5960896Y-18778734D01*
X5913277Y-18569210D02*
X5865658Y-18712067D01*
X5865658Y-18712067D02*
X5989467Y-18712067D01*
X6056134Y-18578734D02*
X6056134Y-18616829D01*
X6132325Y-18578734D02*
X6132325Y-18616829D01*
X6427563Y-18854924D02*
X6418039Y-18845400D01*
X6418039Y-18845400D02*
X6398991Y-18816829D01*
X6398991Y-18816829D02*
X6389468Y-18797781D01*
X6389468Y-18797781D02*
X6379944Y-18769210D01*
X6379944Y-18769210D02*
X6370420Y-18721591D01*
X6370420Y-18721591D02*
X6370420Y-18683496D01*
X6370420Y-18683496D02*
X6379944Y-18635877D01*
X6379944Y-18635877D02*
X6389468Y-18607305D01*
X6389468Y-18607305D02*
X6398991Y-18588258D01*
X6398991Y-18588258D02*
X6418039Y-18559686D01*
X6418039Y-18559686D02*
X6427563Y-18550162D01*
X6494229Y-18597781D02*
X6503753Y-18588258D01*
X6503753Y-18588258D02*
X6522801Y-18578734D01*
X6522801Y-18578734D02*
X6570420Y-18578734D01*
X6570420Y-18578734D02*
X6589468Y-18588258D01*
X6589468Y-18588258D02*
X6598991Y-18597781D01*
X6598991Y-18597781D02*
X6608515Y-18616829D01*
X6608515Y-18616829D02*
X6608515Y-18635877D01*
X6608515Y-18635877D02*
X6598991Y-18664448D01*
X6598991Y-18664448D02*
X6484706Y-18778734D01*
X6484706Y-18778734D02*
X6608515Y-18778734D01*
X6798991Y-18778734D02*
X6684706Y-18778734D01*
X6741848Y-18778734D02*
X6741848Y-18578734D01*
X6741848Y-18578734D02*
X6722801Y-18607305D01*
X6722801Y-18607305D02*
X6703753Y-18626353D01*
X6703753Y-18626353D02*
X6684706Y-18635877D01*
X7037087Y-18778734D02*
X7037087Y-18578734D01*
X7122801Y-18778734D02*
X7122801Y-18673972D01*
X7122801Y-18673972D02*
X7113277Y-18654924D01*
X7113277Y-18654924D02*
X7094230Y-18645400D01*
X7094230Y-18645400D02*
X7065658Y-18645400D01*
X7065658Y-18645400D02*
X7046610Y-18654924D01*
X7046610Y-18654924D02*
X7037087Y-18664448D01*
X7246610Y-18778734D02*
X7227563Y-18769210D01*
X7227563Y-18769210D02*
X7218039Y-18759686D01*
X7218039Y-18759686D02*
X7208515Y-18740639D01*
X7208515Y-18740639D02*
X7208515Y-18683496D01*
X7208515Y-18683496D02*
X7218039Y-18664448D01*
X7218039Y-18664448D02*
X7227563Y-18654924D01*
X7227563Y-18654924D02*
X7246610Y-18645400D01*
X7246610Y-18645400D02*
X7275182Y-18645400D01*
X7275182Y-18645400D02*
X7294230Y-18654924D01*
X7294230Y-18654924D02*
X7303753Y-18664448D01*
X7303753Y-18664448D02*
X7313277Y-18683496D01*
X7313277Y-18683496D02*
X7313277Y-18740639D01*
X7313277Y-18740639D02*
X7303753Y-18759686D01*
X7303753Y-18759686D02*
X7294230Y-18769210D01*
X7294230Y-18769210D02*
X7275182Y-18778734D01*
X7275182Y-18778734D02*
X7246610Y-18778734D01*
X7427563Y-18778734D02*
X7408515Y-18769210D01*
X7408515Y-18769210D02*
X7398991Y-18750162D01*
X7398991Y-18750162D02*
X7398991Y-18578734D01*
X7579944Y-18769210D02*
X7560896Y-18778734D01*
X7560896Y-18778734D02*
X7522801Y-18778734D01*
X7522801Y-18778734D02*
X7503753Y-18769210D01*
X7503753Y-18769210D02*
X7494230Y-18750162D01*
X7494230Y-18750162D02*
X7494230Y-18673972D01*
X7494230Y-18673972D02*
X7503753Y-18654924D01*
X7503753Y-18654924D02*
X7522801Y-18645400D01*
X7522801Y-18645400D02*
X7560896Y-18645400D01*
X7560896Y-18645400D02*
X7579944Y-18654924D01*
X7579944Y-18654924D02*
X7589468Y-18673972D01*
X7589468Y-18673972D02*
X7589468Y-18693020D01*
X7589468Y-18693020D02*
X7494230Y-18712067D01*
X7665658Y-18769210D02*
X7684706Y-18778734D01*
X7684706Y-18778734D02*
X7722801Y-18778734D01*
X7722801Y-18778734D02*
X7741849Y-18769210D01*
X7741849Y-18769210D02*
X7751372Y-18750162D01*
X7751372Y-18750162D02*
X7751372Y-18740639D01*
X7751372Y-18740639D02*
X7741849Y-18721591D01*
X7741849Y-18721591D02*
X7722801Y-18712067D01*
X7722801Y-18712067D02*
X7694230Y-18712067D01*
X7694230Y-18712067D02*
X7675182Y-18702543D01*
X7675182Y-18702543D02*
X7665658Y-18683496D01*
X7665658Y-18683496D02*
X7665658Y-18673972D01*
X7665658Y-18673972D02*
X7675182Y-18654924D01*
X7675182Y-18654924D02*
X7694230Y-18645400D01*
X7694230Y-18645400D02*
X7722801Y-18645400D01*
X7722801Y-18645400D02*
X7741849Y-18654924D01*
X7818039Y-18854924D02*
X7827563Y-18845400D01*
X7827563Y-18845400D02*
X7846611Y-18816829D01*
X7846611Y-18816829D02*
X7856134Y-18797781D01*
X7856134Y-18797781D02*
X7865658Y-18769210D01*
X7865658Y-18769210D02*
X7875182Y-18721591D01*
X7875182Y-18721591D02*
X7875182Y-18683496D01*
X7875182Y-18683496D02*
X7865658Y-18635877D01*
X7865658Y-18635877D02*
X7856134Y-18607305D01*
X7856134Y-18607305D02*
X7846611Y-18588258D01*
X7846611Y-18588258D02*
X7827563Y-18559686D01*
X7827563Y-18559686D02*
X7818039Y-18550162D01*
X2652500Y-18851250D02*
X2852500Y-19051250D01*
X2852500Y-18851250D02*
X2652500Y-19051250D01*
X2852500Y-18951250D02*
G75*
G03*
X2852500Y-18951250I-100000J0D01*
G01*
X3103753Y-18861781D02*
X3113277Y-18852258D01*
X3113277Y-18852258D02*
X3132324Y-18842734D01*
X3132324Y-18842734D02*
X3179943Y-18842734D01*
X3179943Y-18842734D02*
X3198991Y-18852258D01*
X3198991Y-18852258D02*
X3208515Y-18861781D01*
X3208515Y-18861781D02*
X3218039Y-18880829D01*
X3218039Y-18880829D02*
X3218039Y-18899877D01*
X3218039Y-18899877D02*
X3208515Y-18928448D01*
X3208515Y-18928448D02*
X3094229Y-19042734D01*
X3094229Y-19042734D02*
X3218039Y-19042734D01*
X3303753Y-19023686D02*
X3313277Y-19033210D01*
X3313277Y-19033210D02*
X3303753Y-19042734D01*
X3303753Y-19042734D02*
X3294229Y-19033210D01*
X3294229Y-19033210D02*
X3303753Y-19023686D01*
X3303753Y-19023686D02*
X3303753Y-19042734D01*
X3389467Y-18861781D02*
X3398991Y-18852258D01*
X3398991Y-18852258D02*
X3418039Y-18842734D01*
X3418039Y-18842734D02*
X3465658Y-18842734D01*
X3465658Y-18842734D02*
X3484705Y-18852258D01*
X3484705Y-18852258D02*
X3494229Y-18861781D01*
X3494229Y-18861781D02*
X3503753Y-18880829D01*
X3503753Y-18880829D02*
X3503753Y-18899877D01*
X3503753Y-18899877D02*
X3494229Y-18928448D01*
X3494229Y-18928448D02*
X3379943Y-19042734D01*
X3379943Y-19042734D02*
X3503753Y-19042734D01*
X3627562Y-18842734D02*
X3646610Y-18842734D01*
X3646610Y-18842734D02*
X3665658Y-18852258D01*
X3665658Y-18852258D02*
X3675182Y-18861781D01*
X3675182Y-18861781D02*
X3684705Y-18880829D01*
X3684705Y-18880829D02*
X3694229Y-18918924D01*
X3694229Y-18918924D02*
X3694229Y-18966543D01*
X3694229Y-18966543D02*
X3684705Y-19004639D01*
X3684705Y-19004639D02*
X3675182Y-19023686D01*
X3675182Y-19023686D02*
X3665658Y-19033210D01*
X3665658Y-19033210D02*
X3646610Y-19042734D01*
X3646610Y-19042734D02*
X3627562Y-19042734D01*
X3627562Y-19042734D02*
X3608515Y-19033210D01*
X3608515Y-19033210D02*
X3598991Y-19023686D01*
X3598991Y-19023686D02*
X3589467Y-19004639D01*
X3589467Y-19004639D02*
X3579943Y-18966543D01*
X3579943Y-18966543D02*
X3579943Y-18918924D01*
X3579943Y-18918924D02*
X3589467Y-18880829D01*
X3589467Y-18880829D02*
X3598991Y-18861781D01*
X3598991Y-18861781D02*
X3608515Y-18852258D01*
X3608515Y-18852258D02*
X3627562Y-18842734D01*
X3818039Y-18842734D02*
X3837086Y-18842734D01*
X3837086Y-18842734D02*
X3856134Y-18852258D01*
X3856134Y-18852258D02*
X3865658Y-18861781D01*
X3865658Y-18861781D02*
X3875182Y-18880829D01*
X3875182Y-18880829D02*
X3884705Y-18918924D01*
X3884705Y-18918924D02*
X3884705Y-18966543D01*
X3884705Y-18966543D02*
X3875182Y-19004639D01*
X3875182Y-19004639D02*
X3865658Y-19023686D01*
X3865658Y-19023686D02*
X3856134Y-19033210D01*
X3856134Y-19033210D02*
X3837086Y-19042734D01*
X3837086Y-19042734D02*
X3818039Y-19042734D01*
X3818039Y-19042734D02*
X3798991Y-19033210D01*
X3798991Y-19033210D02*
X3789467Y-19023686D01*
X3789467Y-19023686D02*
X3779943Y-19004639D01*
X3779943Y-19004639D02*
X3770420Y-18966543D01*
X3770420Y-18966543D02*
X3770420Y-18918924D01*
X3770420Y-18918924D02*
X3779943Y-18880829D01*
X3779943Y-18880829D02*
X3789467Y-18861781D01*
X3789467Y-18861781D02*
X3798991Y-18852258D01*
X3798991Y-18852258D02*
X3818039Y-18842734D01*
X3970420Y-19042734D02*
X3970420Y-18909400D01*
X3970420Y-18928448D02*
X3979943Y-18918924D01*
X3979943Y-18918924D02*
X3998991Y-18909400D01*
X3998991Y-18909400D02*
X4027563Y-18909400D01*
X4027563Y-18909400D02*
X4046610Y-18918924D01*
X4046610Y-18918924D02*
X4056134Y-18937972D01*
X4056134Y-18937972D02*
X4056134Y-19042734D01*
X4056134Y-18937972D02*
X4065658Y-18918924D01*
X4065658Y-18918924D02*
X4084705Y-18909400D01*
X4084705Y-18909400D02*
X4113277Y-18909400D01*
X4113277Y-18909400D02*
X4132324Y-18918924D01*
X4132324Y-18918924D02*
X4141848Y-18937972D01*
X4141848Y-18937972D02*
X4141848Y-19042734D01*
X4237086Y-19042734D02*
X4237086Y-18909400D01*
X4237086Y-18928448D02*
X4246610Y-18918924D01*
X4246610Y-18918924D02*
X4265658Y-18909400D01*
X4265658Y-18909400D02*
X4294229Y-18909400D01*
X4294229Y-18909400D02*
X4313277Y-18918924D01*
X4313277Y-18918924D02*
X4322801Y-18937972D01*
X4322801Y-18937972D02*
X4322801Y-19042734D01*
X4322801Y-18937972D02*
X4332325Y-18918924D01*
X4332325Y-18918924D02*
X4351372Y-18909400D01*
X4351372Y-18909400D02*
X4379944Y-18909400D01*
X4379944Y-18909400D02*
X4398991Y-18918924D01*
X4398991Y-18918924D02*
X4408515Y-18937972D01*
X4408515Y-18937972D02*
X4408515Y-19042734D01*
X4798991Y-18833210D02*
X4627563Y-19090353D01*
X5056134Y-18842734D02*
X5075182Y-18842734D01*
X5075182Y-18842734D02*
X5094229Y-18852258D01*
X5094229Y-18852258D02*
X5103753Y-18861781D01*
X5103753Y-18861781D02*
X5113277Y-18880829D01*
X5113277Y-18880829D02*
X5122801Y-18918924D01*
X5122801Y-18918924D02*
X5122801Y-18966543D01*
X5122801Y-18966543D02*
X5113277Y-19004639D01*
X5113277Y-19004639D02*
X5103753Y-19023686D01*
X5103753Y-19023686D02*
X5094229Y-19033210D01*
X5094229Y-19033210D02*
X5075182Y-19042734D01*
X5075182Y-19042734D02*
X5056134Y-19042734D01*
X5056134Y-19042734D02*
X5037087Y-19033210D01*
X5037087Y-19033210D02*
X5027563Y-19023686D01*
X5027563Y-19023686D02*
X5018039Y-19004639D01*
X5018039Y-19004639D02*
X5008515Y-18966543D01*
X5008515Y-18966543D02*
X5008515Y-18918924D01*
X5008515Y-18918924D02*
X5018039Y-18880829D01*
X5018039Y-18880829D02*
X5027563Y-18861781D01*
X5027563Y-18861781D02*
X5037087Y-18852258D01*
X5037087Y-18852258D02*
X5056134Y-18842734D01*
X5208515Y-19023686D02*
X5218039Y-19033210D01*
X5218039Y-19033210D02*
X5208515Y-19042734D01*
X5208515Y-19042734D02*
X5198991Y-19033210D01*
X5198991Y-19033210D02*
X5208515Y-19023686D01*
X5208515Y-19023686D02*
X5208515Y-19042734D01*
X5341848Y-18842734D02*
X5360896Y-18842734D01*
X5360896Y-18842734D02*
X5379944Y-18852258D01*
X5379944Y-18852258D02*
X5389468Y-18861781D01*
X5389468Y-18861781D02*
X5398991Y-18880829D01*
X5398991Y-18880829D02*
X5408515Y-18918924D01*
X5408515Y-18918924D02*
X5408515Y-18966543D01*
X5408515Y-18966543D02*
X5398991Y-19004639D01*
X5398991Y-19004639D02*
X5389468Y-19023686D01*
X5389468Y-19023686D02*
X5379944Y-19033210D01*
X5379944Y-19033210D02*
X5360896Y-19042734D01*
X5360896Y-19042734D02*
X5341848Y-19042734D01*
X5341848Y-19042734D02*
X5322801Y-19033210D01*
X5322801Y-19033210D02*
X5313277Y-19023686D01*
X5313277Y-19023686D02*
X5303753Y-19004639D01*
X5303753Y-19004639D02*
X5294229Y-18966543D01*
X5294229Y-18966543D02*
X5294229Y-18918924D01*
X5294229Y-18918924D02*
X5303753Y-18880829D01*
X5303753Y-18880829D02*
X5313277Y-18861781D01*
X5313277Y-18861781D02*
X5322801Y-18852258D01*
X5322801Y-18852258D02*
X5341848Y-18842734D01*
X5522801Y-18928448D02*
X5503753Y-18918924D01*
X5503753Y-18918924D02*
X5494229Y-18909400D01*
X5494229Y-18909400D02*
X5484706Y-18890353D01*
X5484706Y-18890353D02*
X5484706Y-18880829D01*
X5484706Y-18880829D02*
X5494229Y-18861781D01*
X5494229Y-18861781D02*
X5503753Y-18852258D01*
X5503753Y-18852258D02*
X5522801Y-18842734D01*
X5522801Y-18842734D02*
X5560896Y-18842734D01*
X5560896Y-18842734D02*
X5579944Y-18852258D01*
X5579944Y-18852258D02*
X5589468Y-18861781D01*
X5589468Y-18861781D02*
X5598991Y-18880829D01*
X5598991Y-18880829D02*
X5598991Y-18890353D01*
X5598991Y-18890353D02*
X5589468Y-18909400D01*
X5589468Y-18909400D02*
X5579944Y-18918924D01*
X5579944Y-18918924D02*
X5560896Y-18928448D01*
X5560896Y-18928448D02*
X5522801Y-18928448D01*
X5522801Y-18928448D02*
X5503753Y-18937972D01*
X5503753Y-18937972D02*
X5494229Y-18947496D01*
X5494229Y-18947496D02*
X5484706Y-18966543D01*
X5484706Y-18966543D02*
X5484706Y-19004639D01*
X5484706Y-19004639D02*
X5494229Y-19023686D01*
X5494229Y-19023686D02*
X5503753Y-19033210D01*
X5503753Y-19033210D02*
X5522801Y-19042734D01*
X5522801Y-19042734D02*
X5560896Y-19042734D01*
X5560896Y-19042734D02*
X5579944Y-19033210D01*
X5579944Y-19033210D02*
X5589468Y-19023686D01*
X5589468Y-19023686D02*
X5598991Y-19004639D01*
X5598991Y-19004639D02*
X5598991Y-18966543D01*
X5598991Y-18966543D02*
X5589468Y-18947496D01*
X5589468Y-18947496D02*
X5579944Y-18937972D01*
X5579944Y-18937972D02*
X5560896Y-18928448D01*
X5770420Y-18842734D02*
X5732325Y-18842734D01*
X5732325Y-18842734D02*
X5713277Y-18852258D01*
X5713277Y-18852258D02*
X5703753Y-18861781D01*
X5703753Y-18861781D02*
X5684706Y-18890353D01*
X5684706Y-18890353D02*
X5675182Y-18928448D01*
X5675182Y-18928448D02*
X5675182Y-19004639D01*
X5675182Y-19004639D02*
X5684706Y-19023686D01*
X5684706Y-19023686D02*
X5694229Y-19033210D01*
X5694229Y-19033210D02*
X5713277Y-19042734D01*
X5713277Y-19042734D02*
X5751372Y-19042734D01*
X5751372Y-19042734D02*
X5770420Y-19033210D01*
X5770420Y-19033210D02*
X5779944Y-19023686D01*
X5779944Y-19023686D02*
X5789467Y-19004639D01*
X5789467Y-19004639D02*
X5789467Y-18957020D01*
X5789467Y-18957020D02*
X5779944Y-18937972D01*
X5779944Y-18937972D02*
X5770420Y-18928448D01*
X5770420Y-18928448D02*
X5751372Y-18918924D01*
X5751372Y-18918924D02*
X5713277Y-18918924D01*
X5713277Y-18918924D02*
X5694229Y-18928448D01*
X5694229Y-18928448D02*
X5684706Y-18937972D01*
X5684706Y-18937972D02*
X5675182Y-18957020D01*
X5960896Y-18842734D02*
X5922801Y-18842734D01*
X5922801Y-18842734D02*
X5903753Y-18852258D01*
X5903753Y-18852258D02*
X5894229Y-18861781D01*
X5894229Y-18861781D02*
X5875182Y-18890353D01*
X5875182Y-18890353D02*
X5865658Y-18928448D01*
X5865658Y-18928448D02*
X5865658Y-19004639D01*
X5865658Y-19004639D02*
X5875182Y-19023686D01*
X5875182Y-19023686D02*
X5884706Y-19033210D01*
X5884706Y-19033210D02*
X5903753Y-19042734D01*
X5903753Y-19042734D02*
X5941848Y-19042734D01*
X5941848Y-19042734D02*
X5960896Y-19033210D01*
X5960896Y-19033210D02*
X5970420Y-19023686D01*
X5970420Y-19023686D02*
X5979944Y-19004639D01*
X5979944Y-19004639D02*
X5979944Y-18957020D01*
X5979944Y-18957020D02*
X5970420Y-18937972D01*
X5970420Y-18937972D02*
X5960896Y-18928448D01*
X5960896Y-18928448D02*
X5941848Y-18918924D01*
X5941848Y-18918924D02*
X5903753Y-18918924D01*
X5903753Y-18918924D02*
X5884706Y-18928448D01*
X5884706Y-18928448D02*
X5875182Y-18937972D01*
X5875182Y-18937972D02*
X5865658Y-18957020D01*
X6056134Y-18842734D02*
X6056134Y-18880829D01*
X6132325Y-18842734D02*
X6132325Y-18880829D01*
X6427563Y-19118924D02*
X6418039Y-19109400D01*
X6418039Y-19109400D02*
X6398991Y-19080829D01*
X6398991Y-19080829D02*
X6389468Y-19061781D01*
X6389468Y-19061781D02*
X6379944Y-19033210D01*
X6379944Y-19033210D02*
X6370420Y-18985591D01*
X6370420Y-18985591D02*
X6370420Y-18947496D01*
X6370420Y-18947496D02*
X6379944Y-18899877D01*
X6379944Y-18899877D02*
X6389468Y-18871305D01*
X6389468Y-18871305D02*
X6398991Y-18852258D01*
X6398991Y-18852258D02*
X6418039Y-18823686D01*
X6418039Y-18823686D02*
X6427563Y-18814162D01*
X6589468Y-18842734D02*
X6551372Y-18842734D01*
X6551372Y-18842734D02*
X6532325Y-18852258D01*
X6532325Y-18852258D02*
X6522801Y-18861781D01*
X6522801Y-18861781D02*
X6503753Y-18890353D01*
X6503753Y-18890353D02*
X6494229Y-18928448D01*
X6494229Y-18928448D02*
X6494229Y-19004639D01*
X6494229Y-19004639D02*
X6503753Y-19023686D01*
X6503753Y-19023686D02*
X6513277Y-19033210D01*
X6513277Y-19033210D02*
X6532325Y-19042734D01*
X6532325Y-19042734D02*
X6570420Y-19042734D01*
X6570420Y-19042734D02*
X6589468Y-19033210D01*
X6589468Y-19033210D02*
X6598991Y-19023686D01*
X6598991Y-19023686D02*
X6608515Y-19004639D01*
X6608515Y-19004639D02*
X6608515Y-18957020D01*
X6608515Y-18957020D02*
X6598991Y-18937972D01*
X6598991Y-18937972D02*
X6589468Y-18928448D01*
X6589468Y-18928448D02*
X6570420Y-18918924D01*
X6570420Y-18918924D02*
X6532325Y-18918924D01*
X6532325Y-18918924D02*
X6513277Y-18928448D01*
X6513277Y-18928448D02*
X6503753Y-18937972D01*
X6503753Y-18937972D02*
X6494229Y-18957020D01*
X6846610Y-19042734D02*
X6846610Y-18842734D01*
X6932325Y-19042734D02*
X6932325Y-18937972D01*
X6932325Y-18937972D02*
X6922801Y-18918924D01*
X6922801Y-18918924D02*
X6903753Y-18909400D01*
X6903753Y-18909400D02*
X6875182Y-18909400D01*
X6875182Y-18909400D02*
X6856134Y-18918924D01*
X6856134Y-18918924D02*
X6846610Y-18928448D01*
X7056134Y-19042734D02*
X7037087Y-19033210D01*
X7037087Y-19033210D02*
X7027563Y-19023686D01*
X7027563Y-19023686D02*
X7018039Y-19004639D01*
X7018039Y-19004639D02*
X7018039Y-18947496D01*
X7018039Y-18947496D02*
X7027563Y-18928448D01*
X7027563Y-18928448D02*
X7037087Y-18918924D01*
X7037087Y-18918924D02*
X7056134Y-18909400D01*
X7056134Y-18909400D02*
X7084706Y-18909400D01*
X7084706Y-18909400D02*
X7103753Y-18918924D01*
X7103753Y-18918924D02*
X7113277Y-18928448D01*
X7113277Y-18928448D02*
X7122801Y-18947496D01*
X7122801Y-18947496D02*
X7122801Y-19004639D01*
X7122801Y-19004639D02*
X7113277Y-19023686D01*
X7113277Y-19023686D02*
X7103753Y-19033210D01*
X7103753Y-19033210D02*
X7084706Y-19042734D01*
X7084706Y-19042734D02*
X7056134Y-19042734D01*
X7237087Y-19042734D02*
X7218039Y-19033210D01*
X7218039Y-19033210D02*
X7208515Y-19014162D01*
X7208515Y-19014162D02*
X7208515Y-18842734D01*
X7389468Y-19033210D02*
X7370420Y-19042734D01*
X7370420Y-19042734D02*
X7332325Y-19042734D01*
X7332325Y-19042734D02*
X7313277Y-19033210D01*
X7313277Y-19033210D02*
X7303753Y-19014162D01*
X7303753Y-19014162D02*
X7303753Y-18937972D01*
X7303753Y-18937972D02*
X7313277Y-18918924D01*
X7313277Y-18918924D02*
X7332325Y-18909400D01*
X7332325Y-18909400D02*
X7370420Y-18909400D01*
X7370420Y-18909400D02*
X7389468Y-18918924D01*
X7389468Y-18918924D02*
X7398991Y-18937972D01*
X7398991Y-18937972D02*
X7398991Y-18957020D01*
X7398991Y-18957020D02*
X7303753Y-18976067D01*
X7475182Y-19033210D02*
X7494230Y-19042734D01*
X7494230Y-19042734D02*
X7532325Y-19042734D01*
X7532325Y-19042734D02*
X7551372Y-19033210D01*
X7551372Y-19033210D02*
X7560896Y-19014162D01*
X7560896Y-19014162D02*
X7560896Y-19004639D01*
X7560896Y-19004639D02*
X7551372Y-18985591D01*
X7551372Y-18985591D02*
X7532325Y-18976067D01*
X7532325Y-18976067D02*
X7503753Y-18976067D01*
X7503753Y-18976067D02*
X7484706Y-18966543D01*
X7484706Y-18966543D02*
X7475182Y-18947496D01*
X7475182Y-18947496D02*
X7475182Y-18937972D01*
X7475182Y-18937972D02*
X7484706Y-18918924D01*
X7484706Y-18918924D02*
X7503753Y-18909400D01*
X7503753Y-18909400D02*
X7532325Y-18909400D01*
X7532325Y-18909400D02*
X7551372Y-18918924D01*
X7627563Y-19118924D02*
X7637087Y-19109400D01*
X7637087Y-19109400D02*
X7656134Y-19080829D01*
X7656134Y-19080829D02*
X7665658Y-19061781D01*
X7665658Y-19061781D02*
X7675182Y-19033210D01*
X7675182Y-19033210D02*
X7684706Y-18985591D01*
X7684706Y-18985591D02*
X7684706Y-18947496D01*
X7684706Y-18947496D02*
X7675182Y-18899877D01*
X7675182Y-18899877D02*
X7665658Y-18871305D01*
X7665658Y-18871305D02*
X7656134Y-18852258D01*
X7656134Y-18852258D02*
X7637087Y-18823686D01*
X7637087Y-18823686D02*
X7627563Y-18814162D01*
X2652500Y-19171250D02*
X2852500Y-19371250D01*
X2852500Y-19171250D02*
X2652500Y-19371250D01*
X2752500Y-19171250D02*
X2752500Y-19371250D01*
X2652500Y-19271250D02*
X2852500Y-19271250D01*
X3094229Y-19162734D02*
X3218039Y-19162734D01*
X3218039Y-19162734D02*
X3151372Y-19238924D01*
X3151372Y-19238924D02*
X3179943Y-19238924D01*
X3179943Y-19238924D02*
X3198991Y-19248448D01*
X3198991Y-19248448D02*
X3208515Y-19257972D01*
X3208515Y-19257972D02*
X3218039Y-19277020D01*
X3218039Y-19277020D02*
X3218039Y-19324639D01*
X3218039Y-19324639D02*
X3208515Y-19343686D01*
X3208515Y-19343686D02*
X3198991Y-19353210D01*
X3198991Y-19353210D02*
X3179943Y-19362734D01*
X3179943Y-19362734D02*
X3122801Y-19362734D01*
X3122801Y-19362734D02*
X3103753Y-19353210D01*
X3103753Y-19353210D02*
X3094229Y-19343686D01*
X3303753Y-19343686D02*
X3313277Y-19353210D01*
X3313277Y-19353210D02*
X3303753Y-19362734D01*
X3303753Y-19362734D02*
X3294229Y-19353210D01*
X3294229Y-19353210D02*
X3303753Y-19343686D01*
X3303753Y-19343686D02*
X3303753Y-19362734D01*
X3437086Y-19162734D02*
X3456134Y-19162734D01*
X3456134Y-19162734D02*
X3475182Y-19172258D01*
X3475182Y-19172258D02*
X3484705Y-19181781D01*
X3484705Y-19181781D02*
X3494229Y-19200829D01*
X3494229Y-19200829D02*
X3503753Y-19238924D01*
X3503753Y-19238924D02*
X3503753Y-19286543D01*
X3503753Y-19286543D02*
X3494229Y-19324639D01*
X3494229Y-19324639D02*
X3484705Y-19343686D01*
X3484705Y-19343686D02*
X3475182Y-19353210D01*
X3475182Y-19353210D02*
X3456134Y-19362734D01*
X3456134Y-19362734D02*
X3437086Y-19362734D01*
X3437086Y-19362734D02*
X3418039Y-19353210D01*
X3418039Y-19353210D02*
X3408515Y-19343686D01*
X3408515Y-19343686D02*
X3398991Y-19324639D01*
X3398991Y-19324639D02*
X3389467Y-19286543D01*
X3389467Y-19286543D02*
X3389467Y-19238924D01*
X3389467Y-19238924D02*
X3398991Y-19200829D01*
X3398991Y-19200829D02*
X3408515Y-19181781D01*
X3408515Y-19181781D02*
X3418039Y-19172258D01*
X3418039Y-19172258D02*
X3437086Y-19162734D01*
X3627562Y-19162734D02*
X3646610Y-19162734D01*
X3646610Y-19162734D02*
X3665658Y-19172258D01*
X3665658Y-19172258D02*
X3675182Y-19181781D01*
X3675182Y-19181781D02*
X3684705Y-19200829D01*
X3684705Y-19200829D02*
X3694229Y-19238924D01*
X3694229Y-19238924D02*
X3694229Y-19286543D01*
X3694229Y-19286543D02*
X3684705Y-19324639D01*
X3684705Y-19324639D02*
X3675182Y-19343686D01*
X3675182Y-19343686D02*
X3665658Y-19353210D01*
X3665658Y-19353210D02*
X3646610Y-19362734D01*
X3646610Y-19362734D02*
X3627562Y-19362734D01*
X3627562Y-19362734D02*
X3608515Y-19353210D01*
X3608515Y-19353210D02*
X3598991Y-19343686D01*
X3598991Y-19343686D02*
X3589467Y-19324639D01*
X3589467Y-19324639D02*
X3579943Y-19286543D01*
X3579943Y-19286543D02*
X3579943Y-19238924D01*
X3579943Y-19238924D02*
X3589467Y-19200829D01*
X3589467Y-19200829D02*
X3598991Y-19181781D01*
X3598991Y-19181781D02*
X3608515Y-19172258D01*
X3608515Y-19172258D02*
X3627562Y-19162734D01*
X3818039Y-19162734D02*
X3837086Y-19162734D01*
X3837086Y-19162734D02*
X3856134Y-19172258D01*
X3856134Y-19172258D02*
X3865658Y-19181781D01*
X3865658Y-19181781D02*
X3875182Y-19200829D01*
X3875182Y-19200829D02*
X3884705Y-19238924D01*
X3884705Y-19238924D02*
X3884705Y-19286543D01*
X3884705Y-19286543D02*
X3875182Y-19324639D01*
X3875182Y-19324639D02*
X3865658Y-19343686D01*
X3865658Y-19343686D02*
X3856134Y-19353210D01*
X3856134Y-19353210D02*
X3837086Y-19362734D01*
X3837086Y-19362734D02*
X3818039Y-19362734D01*
X3818039Y-19362734D02*
X3798991Y-19353210D01*
X3798991Y-19353210D02*
X3789467Y-19343686D01*
X3789467Y-19343686D02*
X3779943Y-19324639D01*
X3779943Y-19324639D02*
X3770420Y-19286543D01*
X3770420Y-19286543D02*
X3770420Y-19238924D01*
X3770420Y-19238924D02*
X3779943Y-19200829D01*
X3779943Y-19200829D02*
X3789467Y-19181781D01*
X3789467Y-19181781D02*
X3798991Y-19172258D01*
X3798991Y-19172258D02*
X3818039Y-19162734D01*
X3970420Y-19362734D02*
X3970420Y-19229400D01*
X3970420Y-19248448D02*
X3979943Y-19238924D01*
X3979943Y-19238924D02*
X3998991Y-19229400D01*
X3998991Y-19229400D02*
X4027563Y-19229400D01*
X4027563Y-19229400D02*
X4046610Y-19238924D01*
X4046610Y-19238924D02*
X4056134Y-19257972D01*
X4056134Y-19257972D02*
X4056134Y-19362734D01*
X4056134Y-19257972D02*
X4065658Y-19238924D01*
X4065658Y-19238924D02*
X4084705Y-19229400D01*
X4084705Y-19229400D02*
X4113277Y-19229400D01*
X4113277Y-19229400D02*
X4132324Y-19238924D01*
X4132324Y-19238924D02*
X4141848Y-19257972D01*
X4141848Y-19257972D02*
X4141848Y-19362734D01*
X4237086Y-19362734D02*
X4237086Y-19229400D01*
X4237086Y-19248448D02*
X4246610Y-19238924D01*
X4246610Y-19238924D02*
X4265658Y-19229400D01*
X4265658Y-19229400D02*
X4294229Y-19229400D01*
X4294229Y-19229400D02*
X4313277Y-19238924D01*
X4313277Y-19238924D02*
X4322801Y-19257972D01*
X4322801Y-19257972D02*
X4322801Y-19362734D01*
X4322801Y-19257972D02*
X4332325Y-19238924D01*
X4332325Y-19238924D02*
X4351372Y-19229400D01*
X4351372Y-19229400D02*
X4379944Y-19229400D01*
X4379944Y-19229400D02*
X4398991Y-19238924D01*
X4398991Y-19238924D02*
X4408515Y-19257972D01*
X4408515Y-19257972D02*
X4408515Y-19362734D01*
X4798991Y-19153210D02*
X4627563Y-19410353D01*
X5056134Y-19162734D02*
X5075182Y-19162734D01*
X5075182Y-19162734D02*
X5094229Y-19172258D01*
X5094229Y-19172258D02*
X5103753Y-19181781D01*
X5103753Y-19181781D02*
X5113277Y-19200829D01*
X5113277Y-19200829D02*
X5122801Y-19238924D01*
X5122801Y-19238924D02*
X5122801Y-19286543D01*
X5122801Y-19286543D02*
X5113277Y-19324639D01*
X5113277Y-19324639D02*
X5103753Y-19343686D01*
X5103753Y-19343686D02*
X5094229Y-19353210D01*
X5094229Y-19353210D02*
X5075182Y-19362734D01*
X5075182Y-19362734D02*
X5056134Y-19362734D01*
X5056134Y-19362734D02*
X5037087Y-19353210D01*
X5037087Y-19353210D02*
X5027563Y-19343686D01*
X5027563Y-19343686D02*
X5018039Y-19324639D01*
X5018039Y-19324639D02*
X5008515Y-19286543D01*
X5008515Y-19286543D02*
X5008515Y-19238924D01*
X5008515Y-19238924D02*
X5018039Y-19200829D01*
X5018039Y-19200829D02*
X5027563Y-19181781D01*
X5027563Y-19181781D02*
X5037087Y-19172258D01*
X5037087Y-19172258D02*
X5056134Y-19162734D01*
X5208515Y-19343686D02*
X5218039Y-19353210D01*
X5218039Y-19353210D02*
X5208515Y-19362734D01*
X5208515Y-19362734D02*
X5198991Y-19353210D01*
X5198991Y-19353210D02*
X5208515Y-19343686D01*
X5208515Y-19343686D02*
X5208515Y-19362734D01*
X5408515Y-19362734D02*
X5294229Y-19362734D01*
X5351372Y-19362734D02*
X5351372Y-19162734D01*
X5351372Y-19162734D02*
X5332325Y-19191305D01*
X5332325Y-19191305D02*
X5313277Y-19210353D01*
X5313277Y-19210353D02*
X5294229Y-19219877D01*
X5598991Y-19362734D02*
X5484706Y-19362734D01*
X5541848Y-19362734D02*
X5541848Y-19162734D01*
X5541848Y-19162734D02*
X5522801Y-19191305D01*
X5522801Y-19191305D02*
X5503753Y-19210353D01*
X5503753Y-19210353D02*
X5484706Y-19219877D01*
X5713277Y-19248448D02*
X5694229Y-19238924D01*
X5694229Y-19238924D02*
X5684706Y-19229400D01*
X5684706Y-19229400D02*
X5675182Y-19210353D01*
X5675182Y-19210353D02*
X5675182Y-19200829D01*
X5675182Y-19200829D02*
X5684706Y-19181781D01*
X5684706Y-19181781D02*
X5694229Y-19172258D01*
X5694229Y-19172258D02*
X5713277Y-19162734D01*
X5713277Y-19162734D02*
X5751372Y-19162734D01*
X5751372Y-19162734D02*
X5770420Y-19172258D01*
X5770420Y-19172258D02*
X5779944Y-19181781D01*
X5779944Y-19181781D02*
X5789467Y-19200829D01*
X5789467Y-19200829D02*
X5789467Y-19210353D01*
X5789467Y-19210353D02*
X5779944Y-19229400D01*
X5779944Y-19229400D02*
X5770420Y-19238924D01*
X5770420Y-19238924D02*
X5751372Y-19248448D01*
X5751372Y-19248448D02*
X5713277Y-19248448D01*
X5713277Y-19248448D02*
X5694229Y-19257972D01*
X5694229Y-19257972D02*
X5684706Y-19267496D01*
X5684706Y-19267496D02*
X5675182Y-19286543D01*
X5675182Y-19286543D02*
X5675182Y-19324639D01*
X5675182Y-19324639D02*
X5684706Y-19343686D01*
X5684706Y-19343686D02*
X5694229Y-19353210D01*
X5694229Y-19353210D02*
X5713277Y-19362734D01*
X5713277Y-19362734D02*
X5751372Y-19362734D01*
X5751372Y-19362734D02*
X5770420Y-19353210D01*
X5770420Y-19353210D02*
X5779944Y-19343686D01*
X5779944Y-19343686D02*
X5789467Y-19324639D01*
X5789467Y-19324639D02*
X5789467Y-19286543D01*
X5789467Y-19286543D02*
X5779944Y-19267496D01*
X5779944Y-19267496D02*
X5770420Y-19257972D01*
X5770420Y-19257972D02*
X5751372Y-19248448D01*
X5979944Y-19362734D02*
X5865658Y-19362734D01*
X5922801Y-19362734D02*
X5922801Y-19162734D01*
X5922801Y-19162734D02*
X5903753Y-19191305D01*
X5903753Y-19191305D02*
X5884706Y-19210353D01*
X5884706Y-19210353D02*
X5865658Y-19219877D01*
X6056134Y-19162734D02*
X6056134Y-19200829D01*
X6132325Y-19162734D02*
X6132325Y-19200829D01*
X6427563Y-19438924D02*
X6418039Y-19429400D01*
X6418039Y-19429400D02*
X6398991Y-19400829D01*
X6398991Y-19400829D02*
X6389468Y-19381781D01*
X6389468Y-19381781D02*
X6379944Y-19353210D01*
X6379944Y-19353210D02*
X6370420Y-19305591D01*
X6370420Y-19305591D02*
X6370420Y-19267496D01*
X6370420Y-19267496D02*
X6379944Y-19219877D01*
X6379944Y-19219877D02*
X6389468Y-19191305D01*
X6389468Y-19191305D02*
X6398991Y-19172258D01*
X6398991Y-19172258D02*
X6418039Y-19143686D01*
X6418039Y-19143686D02*
X6427563Y-19134162D01*
X6484706Y-19162734D02*
X6618039Y-19162734D01*
X6618039Y-19162734D02*
X6532325Y-19362734D01*
X6779944Y-19229400D02*
X6779944Y-19362734D01*
X6732325Y-19153210D02*
X6684706Y-19296067D01*
X6684706Y-19296067D02*
X6808515Y-19296067D01*
X7037087Y-19362734D02*
X7037087Y-19162734D01*
X7122801Y-19362734D02*
X7122801Y-19257972D01*
X7122801Y-19257972D02*
X7113277Y-19238924D01*
X7113277Y-19238924D02*
X7094230Y-19229400D01*
X7094230Y-19229400D02*
X7065658Y-19229400D01*
X7065658Y-19229400D02*
X7046610Y-19238924D01*
X7046610Y-19238924D02*
X7037087Y-19248448D01*
X7246610Y-19362734D02*
X7227563Y-19353210D01*
X7227563Y-19353210D02*
X7218039Y-19343686D01*
X7218039Y-19343686D02*
X7208515Y-19324639D01*
X7208515Y-19324639D02*
X7208515Y-19267496D01*
X7208515Y-19267496D02*
X7218039Y-19248448D01*
X7218039Y-19248448D02*
X7227563Y-19238924D01*
X7227563Y-19238924D02*
X7246610Y-19229400D01*
X7246610Y-19229400D02*
X7275182Y-19229400D01*
X7275182Y-19229400D02*
X7294230Y-19238924D01*
X7294230Y-19238924D02*
X7303753Y-19248448D01*
X7303753Y-19248448D02*
X7313277Y-19267496D01*
X7313277Y-19267496D02*
X7313277Y-19324639D01*
X7313277Y-19324639D02*
X7303753Y-19343686D01*
X7303753Y-19343686D02*
X7294230Y-19353210D01*
X7294230Y-19353210D02*
X7275182Y-19362734D01*
X7275182Y-19362734D02*
X7246610Y-19362734D01*
X7427563Y-19362734D02*
X7408515Y-19353210D01*
X7408515Y-19353210D02*
X7398991Y-19334162D01*
X7398991Y-19334162D02*
X7398991Y-19162734D01*
X7579944Y-19353210D02*
X7560896Y-19362734D01*
X7560896Y-19362734D02*
X7522801Y-19362734D01*
X7522801Y-19362734D02*
X7503753Y-19353210D01*
X7503753Y-19353210D02*
X7494230Y-19334162D01*
X7494230Y-19334162D02*
X7494230Y-19257972D01*
X7494230Y-19257972D02*
X7503753Y-19238924D01*
X7503753Y-19238924D02*
X7522801Y-19229400D01*
X7522801Y-19229400D02*
X7560896Y-19229400D01*
X7560896Y-19229400D02*
X7579944Y-19238924D01*
X7579944Y-19238924D02*
X7589468Y-19257972D01*
X7589468Y-19257972D02*
X7589468Y-19277020D01*
X7589468Y-19277020D02*
X7494230Y-19296067D01*
X7665658Y-19353210D02*
X7684706Y-19362734D01*
X7684706Y-19362734D02*
X7722801Y-19362734D01*
X7722801Y-19362734D02*
X7741849Y-19353210D01*
X7741849Y-19353210D02*
X7751372Y-19334162D01*
X7751372Y-19334162D02*
X7751372Y-19324639D01*
X7751372Y-19324639D02*
X7741849Y-19305591D01*
X7741849Y-19305591D02*
X7722801Y-19296067D01*
X7722801Y-19296067D02*
X7694230Y-19296067D01*
X7694230Y-19296067D02*
X7675182Y-19286543D01*
X7675182Y-19286543D02*
X7665658Y-19267496D01*
X7665658Y-19267496D02*
X7665658Y-19257972D01*
X7665658Y-19257972D02*
X7675182Y-19238924D01*
X7675182Y-19238924D02*
X7694230Y-19229400D01*
X7694230Y-19229400D02*
X7722801Y-19229400D01*
X7722801Y-19229400D02*
X7741849Y-19238924D01*
X7818039Y-19438924D02*
X7827563Y-19429400D01*
X7827563Y-19429400D02*
X7846611Y-19400829D01*
X7846611Y-19400829D02*
X7856134Y-19381781D01*
X7856134Y-19381781D02*
X7865658Y-19353210D01*
X7865658Y-19353210D02*
X7875182Y-19305591D01*
X7875182Y-19305591D02*
X7875182Y-19267496D01*
X7875182Y-19267496D02*
X7865658Y-19219877D01*
X7865658Y-19219877D02*
X7856134Y-19191305D01*
X7856134Y-19191305D02*
X7846611Y-19172258D01*
X7846611Y-19172258D02*
X7827563Y-19143686D01*
X7827563Y-19143686D02*
X7818039Y-19134162D01*
M02*
