M48
; DRILL file {KiCad 7.0.7} date Tue Nov 21 20:39:54 2023
; FORMAT={-:-/ absolute / metric / decimal}
; #@! TF.CreationDate,2023-11-21T20:39:54+01:00
; #@! TF.GenerationSoftware,Kicad,Pcbnew,7.0.7
; #@! TF.FileFunction,NonPlated,1,2,NPTH
FMAT,2
METRIC
; #@! TA.AperFunction,NonPlated,NPTH,ComponentDrill
T1C0.800
; #@! TA.AperFunction,NonPlated,NPTH,ComponentDrill
T2C1.750
; #@! TA.AperFunction,NonPlated,NPTH,ComponentDrill
T3C3.988
%
G90
G05
T1
X127.0Y-48.431
X127.0Y-55.431
T2
X36.195Y-57.15
X36.195Y-80.962
X36.195Y-100.012
X36.195Y-119.062
X36.195Y-138.112
X36.195Y-157.162
X46.355Y-57.15
X46.355Y-80.962
X46.355Y-100.012
X46.355Y-119.062
X46.355Y-138.112
X46.355Y-157.162
X55.245Y-57.15
X55.245Y-80.962
X55.245Y-100.012
X55.245Y-119.062
X55.245Y-138.112
X55.245Y-157.162
X64.77Y-57.15
X65.405Y-57.15
X65.405Y-80.962
X65.405Y-100.012
X65.405Y-119.062
X65.405Y-138.112
X65.405Y-157.162
X74.295Y-80.962
X74.295Y-100.012
X74.295Y-119.062
X74.295Y-138.112
X74.295Y-157.162
X74.93Y-57.15
X83.82Y-57.15
X84.455Y-80.962
X84.455Y-100.012
X84.455Y-119.062
X84.455Y-138.112
X84.455Y-157.162
X93.345Y-80.962
X93.345Y-100.012
X93.345Y-119.062
X93.345Y-138.112
X93.345Y-157.162
X93.98Y-57.15
X102.87Y-57.15
X103.505Y-80.962
X103.505Y-100.012
X103.505Y-119.062
X103.505Y-138.112
X103.505Y-157.162
X112.395Y-57.15
X112.395Y-80.962
X112.395Y-100.012
X112.395Y-119.062
X112.395Y-138.112
X112.395Y-157.162
X113.03Y-57.15
X122.555Y-57.15
X122.555Y-80.962
X122.555Y-100.012
X122.555Y-119.062
X122.555Y-138.112
X122.555Y-157.162
X131.445Y-57.15
X131.445Y-80.962
X131.445Y-100.012
X131.445Y-119.062
X131.445Y-138.112
X131.445Y-157.162
X141.605Y-57.15
X141.605Y-80.962
X141.605Y-100.012
X141.605Y-119.062
X141.605Y-138.112
X141.605Y-157.162
T3
X41.275Y-57.15
X41.275Y-80.962
X41.275Y-100.012
X41.275Y-119.062
X41.275Y-138.112
X41.275Y-157.162
X60.325Y-57.15
X60.325Y-80.962
X60.325Y-100.012
X60.325Y-119.062
X60.325Y-138.112
X60.325Y-157.162
X69.85Y-57.15
X79.375Y-80.962
X79.375Y-100.012
X79.375Y-119.062
X79.375Y-138.112
X79.375Y-157.162
X88.9Y-57.15
X98.425Y-80.962
X98.425Y-100.012
X98.425Y-119.062
X98.425Y-138.112
X98.425Y-157.162
X107.95Y-57.15
X117.475Y-57.15
X117.475Y-80.962
X117.475Y-100.012
X117.475Y-119.062
X117.475Y-138.112
X117.475Y-157.162
X136.525Y-57.15
X136.525Y-80.962
X136.525Y-100.012
X136.525Y-119.062
X136.525Y-138.112
X136.525Y-157.162
T0
M30
